<?xml version="1.0" encoding="utf-8" standalone="no"?>
<!DOCTYPE svg PUBLIC "-//W3C//DTD SVG 1.1//EN"
  "http://www.w3.org/Graphics/SVG/1.1/DTD/svg11.dtd">
<svg xmlns:xlink="http://www.w3.org/1999/xlink" width="623.723438pt" height="194.43625pt" viewBox="0 0 623.723438 194.43625" xmlns="http://www.w3.org/2000/svg" version="1.1">
 <metadata>
  <rdf:RDF xmlns:dc="http://purl.org/dc/elements/1.1/" xmlns:cc="http://creativecommons.org/ns#" xmlns:rdf="http://www.w3.org/1999/02/22-rdf-syntax-ns#">
   <cc:Work>
    <dc:type rdf:resource="http://purl.org/dc/dcmitype/StillImage"/>
    <dc:date>2022-07-08T02:20:49.306838</dc:date>
    <dc:format>image/svg+xml</dc:format>
    <dc:creator>
     <cc:Agent>
      <dc:title>Matplotlib v3.5.1, https://matplotlib.org/</dc:title>
     </cc:Agent>
    </dc:creator>
   </cc:Work>
  </rdf:RDF>
 </metadata>
 <defs>
  <style type="text/css">*{stroke-linejoin: round; stroke-linecap: butt}</style>
 </defs>
 <g id="figure_1">
  <g id="patch_1">
   <path d="M -0 194.43625 
L 623.723438 194.43625 
L 623.723438 0 
L -0 0 
L -0 194.43625 
z
" style="fill: none"/>
  </g>
  <g id="axes_1">
   <g id="patch_2">
    <path d="M 58.523438 170.28 
L 616.523438 170.28 
L 616.523438 7.2 
L 58.523438 7.2 
z
" style="fill: #ffffff"/>
   </g>
   <g id="PolyCollection_1">
    <defs>
     <path id="m492c360478" d="M 114.323664 -84.709057 
L 114.323211 -84.709057 
L 114.320017 -85.177431 
L 114.315892 -85.645805 
L 114.312165 -86.114179 
L 114.311033 -86.582552 
L 114.311438 -87.050926 
L 114.310571 -87.5193 
L 114.312008 -87.987674 
L 114.310198 -88.456048 
L 114.309299 -88.924422 
L 114.307485 -89.392796 
L 114.302471 -89.86117 
L 114.291388 -90.329544 
L 114.278349 -90.797918 
L 114.269593 -91.266292 
L 114.25728 -91.734666 
L 114.243835 -92.20304 
L 114.229358 -92.671414 
L 114.214344 -93.139788 
L 114.184989 -93.608162 
L 114.140781 -94.076536 
L 114.081963 -94.54491 
L 114.029768 -95.013284 
L 113.979182 -95.481658 
L 113.912073 -95.950031 
L 113.850501 -96.418405 
L 113.754314 -96.886779 
L 113.651844 -97.355153 
L 113.592997 -97.823527 
L 113.535626 -98.291901 
L 113.403705 -98.760275 
L 113.268016 -99.228649 
L 113.108911 -99.697023 
L 112.907678 -100.165397 
L 112.625511 -100.633771 
L 112.374591 -101.102145 
L 112.090846 -101.570519 
L 111.806758 -102.038893 
L 111.353787 -102.507267 
L 110.723212 -102.975641 
L 110.202659 -103.444015 
L 109.266154 -103.912389 
L 108.029217 -104.380763 
L 105.775375 -104.849137 
L 97.184745 -105.317511 
L 69.683437 -105.785884 
L 88.433047 -106.254258 
L 103.960914 -106.722632 
L 107.318042 -107.191006 
L 108.848089 -107.65938 
L 109.860551 -108.127754 
L 110.473614 -108.596128 
L 110.954607 -109.064502 
L 111.39724 -109.532876 
L 111.776728 -110.00125 
L 112.145282 -110.469624 
L 112.500661 -110.937998 
L 112.719677 -111.406372 
L 112.859297 -111.874746 
L 113.032274 -112.34312 
L 113.20515 -112.811494 
L 113.391269 -113.279868 
L 113.53744 -113.748242 
L 113.652878 -114.216616 
L 113.748187 -114.68499 
L 113.844983 -115.153363 
L 113.928791 -115.621737 
L 113.983672 -116.090111 
L 114.029579 -116.558485 
L 114.072731 -117.026859 
L 114.110107 -117.495233 
L 114.148661 -117.963607 
L 114.170696 -118.431981 
L 114.187098 -118.900355 
L 114.198619 -119.368729 
L 114.213654 -119.837103 
L 114.230069 -120.305477 
L 114.238682 -120.773851 
L 114.238617 -121.242225 
L 114.244628 -121.710599 
L 114.249368 -122.178973 
L 114.252219 -122.647347 
L 114.262498 -123.115721 
L 114.267218 -123.584095 
L 114.270777 -124.052469 
L 114.271565 -124.520843 
L 114.277763 -124.989216 
L 114.283194 -125.45759 
L 114.296901 -125.925964 
L 114.309358 -126.394338 
L 114.313782 -126.862712 
L 114.316532 -127.331086 
L 114.318143 -127.79946 
L 114.317093 -128.267834 
L 114.31802 -128.736208 
L 114.319593 -129.204582 
L 114.320223 -129.672956 
L 114.320797 -130.14133 
L 114.321047 -130.609704 
L 114.323275 -131.078078 
L 114.3236 -131.078078 
L 114.3236 -131.078078 
L 114.325828 -130.609704 
L 114.326078 -130.14133 
L 114.326652 -129.672956 
L 114.327282 -129.204582 
L 114.328855 -128.736208 
L 114.329782 -128.267834 
L 114.328732 -127.79946 
L 114.330343 -127.331086 
L 114.333093 -126.862712 
L 114.337517 -126.394338 
L 114.349974 -125.925964 
L 114.363681 -125.45759 
L 114.369112 -124.989216 
L 114.37531 -124.520843 
L 114.376098 -124.052469 
L 114.379657 -123.584095 
L 114.384377 -123.115721 
L 114.394656 -122.647347 
L 114.397507 -122.178973 
L 114.402247 -121.710599 
L 114.408258 -121.242225 
L 114.408193 -120.773851 
L 114.416806 -120.305477 
L 114.433221 -119.837103 
L 114.448256 -119.368729 
L 114.459777 -118.900355 
L 114.476179 -118.431981 
L 114.498214 -117.963607 
L 114.536768 -117.495233 
L 114.574144 -117.026859 
L 114.617296 -116.558485 
L 114.663203 -116.090111 
L 114.718084 -115.621737 
L 114.801892 -115.153363 
L 114.898688 -114.68499 
L 114.993997 -114.216616 
L 115.109435 -113.748242 
L 115.255606 -113.279868 
L 115.441725 -112.811494 
L 115.614601 -112.34312 
L 115.787578 -111.874746 
L 115.927198 -111.406372 
L 116.146214 -110.937998 
L 116.501593 -110.469624 
L 116.870147 -110.00125 
L 117.249635 -109.532876 
L 117.692268 -109.064502 
L 118.173261 -108.596128 
L 118.786324 -108.127754 
L 119.798786 -107.65938 
L 121.328833 -107.191006 
L 124.685961 -106.722632 
L 140.213828 -106.254258 
L 158.963438 -105.785884 
L 131.46213 -105.317511 
L 122.8715 -104.849137 
L 120.617658 -104.380763 
L 119.380721 -103.912389 
L 118.444216 -103.444015 
L 117.923663 -102.975641 
L 117.293088 -102.507267 
L 116.840117 -102.038893 
L 116.556029 -101.570519 
L 116.272284 -101.102145 
L 116.021364 -100.633771 
L 115.739197 -100.165397 
L 115.537964 -99.697023 
L 115.378859 -99.228649 
L 115.24317 -98.760275 
L 115.111249 -98.291901 
L 115.053878 -97.823527 
L 114.995031 -97.355153 
L 114.892561 -96.886779 
L 114.796374 -96.418405 
L 114.734802 -95.950031 
L 114.667693 -95.481658 
L 114.617107 -95.013284 
L 114.564912 -94.54491 
L 114.506094 -94.076536 
L 114.461886 -93.608162 
L 114.432531 -93.139788 
L 114.417517 -92.671414 
L 114.40304 -92.20304 
L 114.389595 -91.734666 
L 114.377282 -91.266292 
L 114.368526 -90.797918 
L 114.355487 -90.329544 
L 114.344404 -89.86117 
L 114.33939 -89.392796 
L 114.337576 -88.924422 
L 114.336677 -88.456048 
L 114.334867 -87.987674 
L 114.336304 -87.5193 
L 114.335437 -87.050926 
L 114.335842 -86.582552 
L 114.33471 -86.114179 
L 114.330983 -85.645805 
L 114.326858 -85.177431 
L 114.323664 -84.709057 
z
" style="stroke: #3d3d3d; stroke-width: 1.5"/>
    </defs>
    <g clip-path="url(#p79132c0390)">
     <use xlink:href="#m492c360478" x="0" y="194.43625" style="fill: #3a923a; stroke: #3d3d3d; stroke-width: 1.5"/>
    </g>
   </g>
   <g id="PolyCollection_2">
    <defs>
     <path id="m3e83919359" d="M 225.923521 -47.011069 
L 225.923354 -47.011069 
L 225.922945 -48.201204 
L 225.923435 -49.391339 
L 225.923437 -50.581473 
L 225.923437 -51.771608 
L 225.92318 -52.961742 
L 225.923189 -54.151877 
L 225.923413 -55.342012 
L 225.922826 -56.532146 
L 225.923419 -57.722281 
L 225.922475 -58.912416 
L 225.922651 -60.10255 
L 225.923407 -61.292685 
L 225.921895 -62.48282 
L 225.922452 -63.672954 
L 225.920016 -64.863089 
L 225.920752 -66.053224 
L 225.918821 -67.243358 
L 225.920573 -68.433493 
L 225.919596 -69.623628 
L 225.920185 -70.813762 
L 225.916077 -72.003897 
L 225.917816 -73.194032 
L 225.914849 -74.384166 
L 225.91058 -75.574301 
L 225.910241 -76.764436 
L 225.913598 -77.95457 
L 225.907995 -79.144705 
L 225.898533 -80.33484 
L 225.893915 -81.524974 
L 225.884684 -82.715109 
L 225.869558 -83.905244 
L 225.8796 -85.095378 
L 225.853891 -86.285513 
L 225.837756 -87.475647 
L 225.823974 -88.665782 
L 225.801521 -89.855917 
L 225.768358 -91.046051 
L 225.744286 -92.236186 
L 225.677655 -93.426321 
L 225.634338 -94.616455 
L 225.532569 -95.80659 
L 225.403187 -96.996725 
L 225.222193 -98.186859 
L 225.00995 -99.376994 
L 224.654085 -100.567129 
L 224.138011 -101.757263 
L 223.145465 -102.947398 
L 220.816144 -104.137533 
L 202.304565 -105.327667 
L 206.510616 -106.517802 
L 221.226084 -107.707937 
L 223.123735 -108.898071 
L 224.01876 -110.088206 
L 224.571558 -111.278341 
L 224.955969 -112.468475 
L 225.14926 -113.65861 
L 225.31449 -114.848745 
L 225.440263 -116.038879 
L 225.551424 -117.229014 
L 225.602754 -118.419149 
L 225.684558 -119.609283 
L 225.726403 -120.799418 
L 225.769612 -121.989552 
L 225.802172 -123.179687 
L 225.813107 -124.369822 
L 225.844358 -125.559956 
L 225.85127 -126.750091 
L 225.870579 -127.940226 
L 225.872748 -129.13036 
L 225.887215 -130.320495 
L 225.891267 -131.51063 
L 225.904838 -132.700764 
L 225.903227 -133.890899 
L 225.904146 -135.081034 
L 225.908173 -136.271168 
L 225.909812 -137.461303 
L 225.908465 -138.651438 
L 225.912979 -139.841572 
L 225.915438 -141.031707 
L 225.914711 -142.221842 
L 225.919145 -143.411976 
L 225.917438 -144.602111 
L 225.919567 -145.792246 
L 225.920746 -146.98238 
L 225.919906 -148.172515 
L 225.92075 -149.36265 
L 225.920972 -150.552784 
L 225.920492 -151.742919 
L 225.922446 -152.933054 
L 225.921457 -154.123188 
L 225.922695 -155.313323 
L 225.923246 -156.503457 
L 225.922748 -157.693592 
L 225.922097 -158.883727 
L 225.923031 -160.073861 
L 225.923192 -161.263996 
L 225.922303 -162.454131 
L 225.922931 -163.644265 
L 225.923354 -164.8344 
L 225.923521 -164.8344 
L 225.923521 -164.8344 
L 225.923944 -163.644265 
L 225.924572 -162.454131 
L 225.923683 -161.263996 
L 225.923844 -160.073861 
L 225.924778 -158.883727 
L 225.924127 -157.693592 
L 225.923629 -156.503457 
L 225.92418 -155.313323 
L 225.925418 -154.123188 
L 225.924429 -152.933054 
L 225.926383 -151.742919 
L 225.925903 -150.552784 
L 225.926125 -149.36265 
L 225.926969 -148.172515 
L 225.926129 -146.98238 
L 225.927308 -145.792246 
L 225.929437 -144.602111 
L 225.92773 -143.411976 
L 225.932164 -142.221842 
L 225.931437 -141.031707 
L 225.933896 -139.841572 
L 225.93841 -138.651438 
L 225.937063 -137.461303 
L 225.938702 -136.271168 
L 225.942729 -135.081034 
L 225.943648 -133.890899 
L 225.942037 -132.700764 
L 225.955608 -131.51063 
L 225.95966 -130.320495 
L 225.974127 -129.13036 
L 225.976296 -127.940226 
L 225.995605 -126.750091 
L 226.002517 -125.559956 
L 226.033768 -124.369822 
L 226.044703 -123.179687 
L 226.077263 -121.989552 
L 226.120472 -120.799418 
L 226.162317 -119.609283 
L 226.244121 -118.419149 
L 226.295451 -117.229014 
L 226.406612 -116.038879 
L 226.532385 -114.848745 
L 226.697615 -113.65861 
L 226.890906 -112.468475 
L 227.275317 -111.278341 
L 227.828115 -110.088206 
L 228.72314 -108.898071 
L 230.620791 -107.707937 
L 245.336259 -106.517802 
L 249.54231 -105.327667 
L 231.030731 -104.137533 
L 228.70141 -102.947398 
L 227.708864 -101.757263 
L 227.19279 -100.567129 
L 226.836925 -99.376994 
L 226.624682 -98.186859 
L 226.443688 -96.996725 
L 226.314306 -95.80659 
L 226.212537 -94.616455 
L 226.16922 -93.426321 
L 226.102589 -92.236186 
L 226.078517 -91.046051 
L 226.045354 -89.855917 
L 226.022901 -88.665782 
L 226.009119 -87.475647 
L 225.992984 -86.285513 
L 225.967275 -85.095378 
L 225.977317 -83.905244 
L 225.962191 -82.715109 
L 225.95296 -81.524974 
L 225.948342 -80.33484 
L 225.93888 -79.144705 
L 225.933277 -77.95457 
L 225.936634 -76.764436 
L 225.936295 -75.574301 
L 225.932026 -74.384166 
L 225.929059 -73.194032 
L 225.930798 -72.003897 
L 225.92669 -70.813762 
L 225.927279 -69.623628 
L 225.926302 -68.433493 
L 225.928054 -67.243358 
L 225.926123 -66.053224 
L 225.926859 -64.863089 
L 225.924423 -63.672954 
L 225.92498 -62.48282 
L 225.923468 -61.292685 
L 225.924224 -60.10255 
L 225.9244 -58.912416 
L 225.923456 -57.722281 
L 225.924049 -56.532146 
L 225.923462 -55.342012 
L 225.923686 -54.151877 
L 225.923695 -52.961742 
L 225.923438 -51.771608 
L 225.923438 -50.581473 
L 225.92344 -49.391339 
L 225.92393 -48.201204 
L 225.923521 -47.011069 
z
" style="stroke: #3d3d3d; stroke-width: 1.5"/>
    </defs>
    <g clip-path="url(#p79132c0390)">
     <use xlink:href="#m3e83919359" x="0" y="194.43625" style="fill: #3a923a; stroke: #3d3d3d; stroke-width: 1.5"/>
    </g>
   </g>
   <g id="PolyCollection_3">
    <defs>
     <path id="m30e52edce3" d="M 337.52362 -61.251209 
L 337.523255 -61.251209 
L 337.521473 -62.330137 
L 337.522939 -63.409065 
L 337.521411 -64.487993 
L 337.520759 -65.566921 
L 337.522548 -66.645849 
L 337.519351 -67.724777 
L 337.521432 -68.803705 
L 337.521283 -69.882634 
L 337.521735 -70.961562 
L 337.518561 -72.04049 
L 337.518197 -73.119418 
L 337.518815 -74.198346 
L 337.509804 -75.277274 
L 337.508404 -76.356202 
L 337.506042 -77.43513 
L 337.50484 -78.514058 
L 337.506454 -79.592986 
L 337.506414 -80.671914 
L 337.491097 -81.750842 
L 337.473314 -82.829771 
L 337.472004 -83.908699 
L 337.455095 -84.987627 
L 337.454218 -86.066555 
L 337.442061 -87.145483 
L 337.416778 -88.224411 
L 337.388741 -89.303339 
L 337.350774 -90.382267 
L 337.326478 -91.461195 
L 337.303691 -92.540123 
L 337.248073 -93.619051 
L 337.186774 -94.697979 
L 337.098115 -95.776907 
L 336.916187 -96.855836 
L 336.771349 -97.934764 
L 336.584669 -99.013692 
L 336.338123 -100.09262 
L 335.922004 -101.171548 
L 335.366189 -102.250476 
L 334.434547 -103.329404 
L 331.568984 -104.408332 
L 308.829188 -105.48726 
L 318.066457 -106.566188 
L 332.830108 -107.645116 
L 334.723225 -108.724044 
L 335.540872 -109.802973 
L 336.07982 -110.881901 
L 336.432225 -111.960829 
L 336.702392 -113.039757 
L 336.847314 -114.118685 
L 336.981306 -115.197613 
L 337.111945 -116.276541 
L 337.200517 -117.355469 
L 337.253896 -118.434397 
L 337.308947 -119.513325 
L 337.338169 -120.592253 
L 337.351358 -121.671181 
L 337.389375 -122.750109 
L 337.403526 -123.829038 
L 337.428187 -124.907966 
L 337.438245 -125.986894 
L 337.453614 -127.065822 
L 337.463331 -128.14475 
L 337.482777 -129.223678 
L 337.484367 -130.302606 
L 337.482846 -131.381534 
L 337.492395 -132.460462 
L 337.495509 -133.53939 
L 337.497189 -134.618318 
L 337.496594 -135.697246 
L 337.503298 -136.776175 
L 337.507349 -137.855103 
L 337.511256 -138.934031 
L 337.510215 -140.012959 
L 337.510168 -141.091887 
L 337.513194 -142.170815 
L 337.517404 -143.249743 
L 337.51846 -144.328671 
L 337.513686 -145.407599 
L 337.517329 -146.486527 
L 337.518618 -147.565455 
L 337.51896 -148.644383 
L 337.51798 -149.723311 
L 337.519745 -150.80224 
L 337.522646 -151.881168 
L 337.521641 -152.960096 
L 337.521528 -154.039024 
L 337.523381 -155.117952 
L 337.523437 -156.19688 
L 337.523293 -157.275808 
L 337.521224 -158.354736 
L 337.520916 -159.433664 
L 337.523153 -160.512592 
L 337.523437 -161.59152 
L 337.523437 -162.670448 
L 337.523437 -163.749377 
L 337.523437 -164.828305 
L 337.523322 -165.907233 
L 337.522396 -166.986161 
L 337.523296 -168.065089 
L 337.523579 -168.065089 
L 337.523579 -168.065089 
L 337.524479 -166.986161 
L 337.523553 -165.907233 
L 337.523438 -164.828305 
L 337.523438 -163.749377 
L 337.523438 -162.670448 
L 337.523438 -161.59152 
L 337.523722 -160.512592 
L 337.525959 -159.433664 
L 337.525651 -158.354736 
L 337.523582 -157.275808 
L 337.523438 -156.19688 
L 337.523494 -155.117952 
L 337.525347 -154.039024 
L 337.525234 -152.960096 
L 337.524229 -151.881168 
L 337.52713 -150.80224 
L 337.528895 -149.723311 
L 337.527915 -148.644383 
L 337.528257 -147.565455 
L 337.529546 -146.486527 
L 337.533189 -145.407599 
L 337.528415 -144.328671 
L 337.529471 -143.249743 
L 337.533681 -142.170815 
L 337.536707 -141.091887 
L 337.53666 -140.012959 
L 337.535619 -138.934031 
L 337.539526 -137.855103 
L 337.543577 -136.776175 
L 337.550281 -135.697246 
L 337.549686 -134.618318 
L 337.551366 -133.53939 
L 337.55448 -132.460462 
L 337.564029 -131.381534 
L 337.562508 -130.302606 
L 337.564098 -129.223678 
L 337.583544 -128.14475 
L 337.593261 -127.065822 
L 337.60863 -125.986894 
L 337.618688 -124.907966 
L 337.643349 -123.829038 
L 337.6575 -122.750109 
L 337.695517 -121.671181 
L 337.708706 -120.592253 
L 337.737928 -119.513325 
L 337.792979 -118.434397 
L 337.846358 -117.355469 
L 337.93493 -116.276541 
L 338.065569 -115.197613 
L 338.199561 -114.118685 
L 338.344483 -113.039757 
L 338.61465 -111.960829 
L 338.967055 -110.881901 
L 339.506003 -109.802973 
L 340.32365 -108.724044 
L 342.216767 -107.645116 
L 356.980418 -106.566188 
L 366.217687 -105.48726 
L 343.477891 -104.408332 
L 340.612328 -103.329404 
L 339.680686 -102.250476 
L 339.124871 -101.171548 
L 338.708752 -100.09262 
L 338.462206 -99.013692 
L 338.275526 -97.934764 
L 338.130688 -96.855836 
L 337.94876 -95.776907 
L 337.860101 -94.697979 
L 337.798802 -93.619051 
L 337.743184 -92.540123 
L 337.720397 -91.461195 
L 337.696101 -90.382267 
L 337.658134 -89.303339 
L 337.630097 -88.224411 
L 337.604814 -87.145483 
L 337.592657 -86.066555 
L 337.59178 -84.987627 
L 337.574871 -83.908699 
L 337.573561 -82.829771 
L 337.555778 -81.750842 
L 337.540461 -80.671914 
L 337.540421 -79.592986 
L 337.542035 -78.514058 
L 337.540833 -77.43513 
L 337.538471 -76.356202 
L 337.537071 -75.277274 
L 337.52806 -74.198346 
L 337.528678 -73.119418 
L 337.528314 -72.04049 
L 337.52514 -70.961562 
L 337.525592 -69.882634 
L 337.525443 -68.803705 
L 337.527524 -67.724777 
L 337.524327 -66.645849 
L 337.526116 -65.566921 
L 337.525464 -64.487993 
L 337.523936 -63.409065 
L 337.525402 -62.330137 
L 337.52362 -61.251209 
z
" style="stroke: #3d3d3d; stroke-width: 1.5"/>
    </defs>
    <g clip-path="url(#p79132c0390)">
     <use xlink:href="#m30e52edce3" x="0" y="194.43625" style="fill: #3a923a; stroke: #3d3d3d; stroke-width: 1.5"/>
    </g>
   </g>
   <g id="PolyCollection_4">
    <defs>
     <path id="mf1e46d42bd" d="M 449.123661 -49.545771 
L 449.123214 -49.545771 
L 449.121889 -50.640273 
L 449.122717 -51.734775 
L 449.123415 -52.829277 
L 449.123437 -53.923779 
L 449.123437 -55.01828 
L 449.123438 -56.112782 
L 449.123438 -57.207284 
L 449.123437 -58.301786 
L 449.123437 -59.396288 
L 449.123434 -60.49079 
L 449.123127 -61.585292 
L 449.12168 -62.679794 
L 449.121205 -63.774296 
L 449.120847 -64.868798 
L 449.122159 -65.9633 
L 449.120874 -67.057802 
L 449.120088 -68.152304 
L 449.120376 -69.246806 
L 449.12292 -70.341308 
L 449.121977 -71.43581 
L 449.115992 -72.530311 
L 449.111048 -73.624813 
L 449.114313 -74.719315 
L 449.108071 -75.813817 
L 449.106529 -76.908319 
L 449.102235 -78.002821 
L 449.100547 -79.097323 
L 449.089887 -80.191825 
L 449.091325 -81.286327 
L 449.090179 -82.380829 
L 449.073847 -83.475331 
L 449.058233 -84.569833 
L 449.054908 -85.664335 
L 449.043724 -86.758837 
L 449.015936 -87.853339 
L 449.003221 -88.947841 
L 448.973525 -90.042343 
L 448.932698 -91.136844 
L 448.896147 -92.231346 
L 448.846182 -93.325848 
L 448.791403 -94.42035 
L 448.694054 -95.514852 
L 448.640064 -96.609354 
L 448.571829 -97.703856 
L 448.444035 -98.798358 
L 448.217293 -99.89286 
L 447.895145 -100.987362 
L 447.465359 -102.081864 
L 446.54831 -103.176366 
L 443.025208 -104.270868 
L 424.741871 -105.36537 
L 427.266103 -106.459872 
L 443.786036 -107.554374 
L 446.399067 -108.648876 
L 447.114557 -109.743377 
L 447.554356 -110.837879 
L 447.830019 -111.932381 
L 448.014349 -113.026883 
L 448.231909 -114.121385 
L 448.413445 -115.215887 
L 448.544157 -116.310389 
L 448.612901 -117.404891 
L 448.669507 -118.499393 
L 448.738394 -119.593895 
L 448.78316 -120.688397 
L 448.82849 -121.782899 
L 448.864858 -122.877401 
L 448.894381 -123.971903 
L 448.950581 -125.066405 
L 449.002463 -126.160907 
L 449.021028 -127.255409 
L 449.033031 -128.34991 
L 449.048171 -129.444412 
L 449.053022 -130.538914 
L 449.068127 -131.633416 
L 449.076268 -132.727918 
L 449.084842 -133.82242 
L 449.090555 -134.916922 
L 449.095791 -136.011424 
L 449.098911 -137.105926 
L 449.106021 -138.200428 
L 449.103092 -139.29493 
L 449.100689 -140.389432 
L 449.106084 -141.483934 
L 449.115373 -142.578436 
L 449.116862 -143.672938 
L 449.11914 -144.76744 
L 449.118897 -145.861942 
L 449.120777 -146.956443 
L 449.121708 -148.050945 
L 449.120838 -149.145447 
L 449.122643 -150.239949 
L 449.123109 -151.334451 
L 449.121348 -152.428953 
L 449.121201 -153.523455 
L 449.123018 -154.617957 
L 449.122711 -155.712459 
L 449.121889 -156.806961 
L 449.123214 -157.901463 
L 449.123661 -157.901463 
L 449.123661 -157.901463 
L 449.124986 -156.806961 
L 449.124164 -155.712459 
L 449.123857 -154.617957 
L 449.125674 -153.523455 
L 449.125527 -152.428953 
L 449.123766 -151.334451 
L 449.124232 -150.239949 
L 449.126037 -149.145447 
L 449.125167 -148.050945 
L 449.126098 -146.956443 
L 449.127978 -145.861942 
L 449.127735 -144.76744 
L 449.130013 -143.672938 
L 449.131502 -142.578436 
L 449.140791 -141.483934 
L 449.146186 -140.389432 
L 449.143783 -139.29493 
L 449.140854 -138.200428 
L 449.147964 -137.105926 
L 449.151084 -136.011424 
L 449.15632 -134.916922 
L 449.162033 -133.82242 
L 449.170607 -132.727918 
L 449.178748 -131.633416 
L 449.193853 -130.538914 
L 449.198704 -129.444412 
L 449.213844 -128.34991 
L 449.225847 -127.255409 
L 449.244412 -126.160907 
L 449.296294 -125.066405 
L 449.352494 -123.971903 
L 449.382017 -122.877401 
L 449.418385 -121.782899 
L 449.463715 -120.688397 
L 449.508481 -119.593895 
L 449.577368 -118.499393 
L 449.633974 -117.404891 
L 449.702718 -116.310389 
L 449.83343 -115.215887 
L 450.014966 -114.121385 
L 450.232526 -113.026883 
L 450.416856 -111.932381 
L 450.692519 -110.837879 
L 451.132318 -109.743377 
L 451.847808 -108.648876 
L 454.460839 -107.554374 
L 470.980772 -106.459872 
L 473.505004 -105.36537 
L 455.221667 -104.270868 
L 451.698565 -103.176366 
L 450.781516 -102.081864 
L 450.35173 -100.987362 
L 450.029582 -99.89286 
L 449.80284 -98.798358 
L 449.675046 -97.703856 
L 449.606811 -96.609354 
L 449.552821 -95.514852 
L 449.455472 -94.42035 
L 449.400693 -93.325848 
L 449.350728 -92.231346 
L 449.314177 -91.136844 
L 449.27335 -90.042343 
L 449.243654 -88.947841 
L 449.230939 -87.853339 
L 449.203151 -86.758837 
L 449.191967 -85.664335 
L 449.188642 -84.569833 
L 449.173028 -83.475331 
L 449.156696 -82.380829 
L 449.15555 -81.286327 
L 449.156988 -80.191825 
L 449.146328 -79.097323 
L 449.14464 -78.002821 
L 449.140346 -76.908319 
L 449.138804 -75.813817 
L 449.132562 -74.719315 
L 449.135827 -73.624813 
L 449.130883 -72.530311 
L 449.124898 -71.43581 
L 449.123955 -70.341308 
L 449.126499 -69.246806 
L 449.126787 -68.152304 
L 449.126001 -67.057802 
L 449.124716 -65.9633 
L 449.126028 -64.868798 
L 449.12567 -63.774296 
L 449.125195 -62.679794 
L 449.123748 -61.585292 
L 449.123441 -60.49079 
L 449.123438 -59.396288 
L 449.123438 -58.301786 
L 449.123438 -57.207284 
L 449.123438 -56.112782 
L 449.123438 -55.01828 
L 449.123438 -53.923779 
L 449.12346 -52.829277 
L 449.124158 -51.734775 
L 449.124986 -50.640273 
L 449.123661 -49.545771 
z
" style="stroke: #3d3d3d; stroke-width: 1.5"/>
    </defs>
    <g clip-path="url(#p79132c0390)">
     <use xlink:href="#mf1e46d42bd" x="0" y="194.43625" style="fill: #3a923a; stroke: #3d3d3d; stroke-width: 1.5"/>
    </g>
   </g>
   <g id="PolyCollection_5">
    <defs>
     <path id="ma6bb6bacb1" d="M 560.724582 -31.568977 
L 560.722293 -31.568977 
L 560.720891 -33.066498 
L 560.718807 -34.564019 
L 560.716536 -36.061539 
L 560.71492 -37.55906 
L 560.714429 -39.056581 
L 560.714405 -40.554101 
L 560.713138 -42.051622 
L 560.709011 -43.549143 
L 560.701999 -45.046663 
L 560.694222 -46.544184 
L 560.688662 -48.041705 
L 560.686713 -49.539225 
L 560.686902 -51.036746 
L 560.686429 -52.534267 
L 560.684042 -54.031787 
L 560.680952 -55.529308 
L 560.678752 -57.026829 
L 560.676901 -58.524349 
L 560.672772 -60.02187 
L 560.664197 -61.51939 
L 560.651772 -63.016911 
L 560.638493 -64.514432 
L 560.62686 -66.011952 
L 560.615977 -67.509473 
L 560.601424 -69.006994 
L 560.578144 -70.504514 
L 560.543665 -72.002035 
L 560.49895 -73.499556 
L 560.447238 -74.997076 
L 560.393301 -76.494597 
L 560.343488 -77.992118 
L 560.304212 -79.489638 
L 560.278283 -80.987159 
L 560.262323 -82.48468 
L 560.248207 -83.9822 
L 560.227319 -85.479721 
L 560.194323 -86.977242 
L 560.148602 -88.474762 
L 560.092791 -89.972283 
L 560.028294 -91.469804 
L 559.949827 -92.967324 
L 559.842584 -94.464845 
L 559.681452 -95.962366 
L 559.425878 -97.459886 
L 559.011162 -98.957407 
L 558.361377 -100.454928 
L 557.458017 -101.952448 
L 556.441467 -103.449969 
L 555.629244 -104.94749 
L 555.355688 -106.44501 
L 555.731998 -107.942531 
L 556.563198 -109.440052 
L 557.508241 -110.937572 
L 558.308592 -112.435093 
L 558.882251 -113.932614 
L 559.268996 -115.430134 
L 559.539087 -116.927655 
L 559.743181 -118.425176 
L 559.905283 -119.922696 
L 560.033226 -121.420217 
L 560.129556 -122.917738 
L 560.198164 -124.415258 
L 560.247284 -125.912779 
L 560.288738 -127.4103 
L 560.332919 -128.90782 
L 560.38308 -130.405341 
L 560.434719 -131.902862 
L 560.480851 -133.400382 
L 560.517855 -134.897903 
L 560.547244 -136.395424 
L 560.573148 -137.892944 
L 560.598008 -139.390465 
L 560.61988 -140.887986 
L 560.633968 -142.385506 
L 560.637436 -143.883027 
L 560.633103 -145.380548 
L 560.628469 -146.878068 
L 560.630697 -148.375589 
L 560.641745 -149.87311 
L 560.65767 -151.37063 
L 560.672124 -152.868151 
L 560.680525 -154.365671 
L 560.682024 -155.863192 
L 560.679122 -157.360713 
L 560.6759 -158.858233 
L 560.675676 -160.355754 
L 560.679408 -161.853275 
L 560.685969 -163.350795 
L 560.693602 -164.848316 
L 560.700887 -166.345837 
L 560.706791 -167.843357 
L 560.71064 -169.340878 
L 560.712504 -170.838399 
L 560.713359 -172.335919 
L 560.714455 -173.83344 
L 560.716377 -175.330961 
L 560.718763 -176.828481 
L 560.720881 -178.326002 
L 560.722291 -179.823523 
L 560.724584 -179.823523 
L 560.724584 -179.823523 
L 560.725994 -178.326002 
L 560.728112 -176.828481 
L 560.730498 -175.330961 
L 560.73242 -173.83344 
L 560.733516 -172.335919 
L 560.734371 -170.838399 
L 560.736235 -169.340878 
L 560.740084 -167.843357 
L 560.745988 -166.345837 
L 560.753273 -164.848316 
L 560.760906 -163.350795 
L 560.767467 -161.853275 
L 560.771199 -160.355754 
L 560.770975 -158.858233 
L 560.767753 -157.360713 
L 560.764851 -155.863192 
L 560.76635 -154.365671 
L 560.774751 -152.868151 
L 560.789205 -151.37063 
L 560.80513 -149.87311 
L 560.816178 -148.375589 
L 560.818406 -146.878068 
L 560.813772 -145.380548 
L 560.809439 -143.883027 
L 560.812907 -142.385506 
L 560.826995 -140.887986 
L 560.848867 -139.390465 
L 560.873727 -137.892944 
L 560.899631 -136.395424 
L 560.92902 -134.897903 
L 560.966024 -133.400382 
L 561.012156 -131.902862 
L 561.063795 -130.405341 
L 561.113956 -128.90782 
L 561.158137 -127.4103 
L 561.199591 -125.912779 
L 561.248711 -124.415258 
L 561.317319 -122.917738 
L 561.413649 -121.420217 
L 561.541592 -119.922696 
L 561.703694 -118.425176 
L 561.907788 -116.927655 
L 562.177879 -115.430134 
L 562.564624 -113.932614 
L 563.138283 -112.435093 
L 563.938634 -110.937572 
L 564.883677 -109.440052 
L 565.714877 -107.942531 
L 566.091187 -106.44501 
L 565.817631 -104.94749 
L 565.005408 -103.449969 
L 563.988858 -101.952448 
L 563.085498 -100.454928 
L 562.435713 -98.957407 
L 562.020997 -97.459886 
L 561.765423 -95.962366 
L 561.604291 -94.464845 
L 561.497048 -92.967324 
L 561.418581 -91.469804 
L 561.354084 -89.972283 
L 561.298273 -88.474762 
L 561.252552 -86.977242 
L 561.219556 -85.479721 
L 561.198668 -83.9822 
L 561.184552 -82.48468 
L 561.168592 -80.987159 
L 561.142663 -79.489638 
L 561.103387 -77.992118 
L 561.053574 -76.494597 
L 560.999637 -74.997076 
L 560.947925 -73.499556 
L 560.90321 -72.002035 
L 560.868731 -70.504514 
L 560.845451 -69.006994 
L 560.830898 -67.509473 
L 560.820015 -66.011952 
L 560.808382 -64.514432 
L 560.795103 -63.016911 
L 560.782678 -61.51939 
L 560.774103 -60.02187 
L 560.769974 -58.524349 
L 560.768123 -57.026829 
L 560.765923 -55.529308 
L 560.762833 -54.031787 
L 560.760446 -52.534267 
L 560.759973 -51.036746 
L 560.760162 -49.539225 
L 560.758213 -48.041705 
L 560.752653 -46.544184 
L 560.744876 -45.046663 
L 560.737864 -43.549143 
L 560.733737 -42.051622 
L 560.73247 -40.554101 
L 560.732446 -39.056581 
L 560.731955 -37.55906 
L 560.730339 -36.061539 
L 560.728068 -34.564019 
L 560.725984 -33.066498 
L 560.724582 -31.568977 
z
" style="stroke: #3d3d3d; stroke-width: 1.5"/>
    </defs>
    <g clip-path="url(#p79132c0390)">
     <use xlink:href="#ma6bb6bacb1" x="0" y="194.43625" style="fill: #3a923a; stroke: #3d3d3d; stroke-width: 1.5"/>
    </g>
   </g>
   <g id="matplotlib.axis_1">
    <g id="xtick_1">
     <g id="line2d_1">
      <defs>
       <path id="m1e660ad165" d="M 0 0 
L 0 3.5 
" style="stroke: #000000; stroke-width: 0.8"/>
      </defs>
      <g>
       <use xlink:href="#m1e660ad165" x="114.323438" y="170.28" style="stroke: #000000; stroke-width: 0.8"/>
      </g>
     </g>
     <g id="text_1">
      <!-- dense_1 -->
      <g transform="translate(93.541406 184.878438)scale(0.1 -0.1)">
       <defs>
        <path id="DejaVuSans-64" d="M 2906 2969 
L 2906 4863 
L 3481 4863 
L 3481 0 
L 2906 0 
L 2906 525 
Q 2725 213 2448 61 
Q 2172 -91 1784 -91 
Q 1150 -91 751 415 
Q 353 922 353 1747 
Q 353 2572 751 3078 
Q 1150 3584 1784 3584 
Q 2172 3584 2448 3432 
Q 2725 3281 2906 2969 
z
M 947 1747 
Q 947 1113 1208 752 
Q 1469 391 1925 391 
Q 2381 391 2643 752 
Q 2906 1113 2906 1747 
Q 2906 2381 2643 2742 
Q 2381 3103 1925 3103 
Q 1469 3103 1208 2742 
Q 947 2381 947 1747 
z
" transform="scale(0.015625)"/>
        <path id="DejaVuSans-65" d="M 3597 1894 
L 3597 1613 
L 953 1613 
Q 991 1019 1311 708 
Q 1631 397 2203 397 
Q 2534 397 2845 478 
Q 3156 559 3463 722 
L 3463 178 
Q 3153 47 2828 -22 
Q 2503 -91 2169 -91 
Q 1331 -91 842 396 
Q 353 884 353 1716 
Q 353 2575 817 3079 
Q 1281 3584 2069 3584 
Q 2775 3584 3186 3129 
Q 3597 2675 3597 1894 
z
M 3022 2063 
Q 3016 2534 2758 2815 
Q 2500 3097 2075 3097 
Q 1594 3097 1305 2825 
Q 1016 2553 972 2059 
L 3022 2063 
z
" transform="scale(0.015625)"/>
        <path id="DejaVuSans-6e" d="M 3513 2113 
L 3513 0 
L 2938 0 
L 2938 2094 
Q 2938 2591 2744 2837 
Q 2550 3084 2163 3084 
Q 1697 3084 1428 2787 
Q 1159 2491 1159 1978 
L 1159 0 
L 581 0 
L 581 3500 
L 1159 3500 
L 1159 2956 
Q 1366 3272 1645 3428 
Q 1925 3584 2291 3584 
Q 2894 3584 3203 3211 
Q 3513 2838 3513 2113 
z
" transform="scale(0.015625)"/>
        <path id="DejaVuSans-73" d="M 2834 3397 
L 2834 2853 
Q 2591 2978 2328 3040 
Q 2066 3103 1784 3103 
Q 1356 3103 1142 2972 
Q 928 2841 928 2578 
Q 928 2378 1081 2264 
Q 1234 2150 1697 2047 
L 1894 2003 
Q 2506 1872 2764 1633 
Q 3022 1394 3022 966 
Q 3022 478 2636 193 
Q 2250 -91 1575 -91 
Q 1294 -91 989 -36 
Q 684 19 347 128 
L 347 722 
Q 666 556 975 473 
Q 1284 391 1588 391 
Q 1994 391 2212 530 
Q 2431 669 2431 922 
Q 2431 1156 2273 1281 
Q 2116 1406 1581 1522 
L 1381 1569 
Q 847 1681 609 1914 
Q 372 2147 372 2553 
Q 372 3047 722 3315 
Q 1072 3584 1716 3584 
Q 2034 3584 2315 3537 
Q 2597 3491 2834 3397 
z
" transform="scale(0.015625)"/>
        <path id="DejaVuSans-5f" d="M 3263 -1063 
L 3263 -1509 
L -63 -1509 
L -63 -1063 
L 3263 -1063 
z
" transform="scale(0.015625)"/>
        <path id="DejaVuSans-31" d="M 794 531 
L 1825 531 
L 1825 4091 
L 703 3866 
L 703 4441 
L 1819 4666 
L 2450 4666 
L 2450 531 
L 3481 531 
L 3481 0 
L 794 0 
L 794 531 
z
" transform="scale(0.015625)"/>
       </defs>
       <use xlink:href="#DejaVuSans-64"/>
       <use xlink:href="#DejaVuSans-65" x="63.476562"/>
       <use xlink:href="#DejaVuSans-6e" x="125"/>
       <use xlink:href="#DejaVuSans-73" x="188.378906"/>
       <use xlink:href="#DejaVuSans-65" x="240.478516"/>
       <use xlink:href="#DejaVuSans-5f" x="302.001953"/>
       <use xlink:href="#DejaVuSans-31" x="352.001953"/>
      </g>
     </g>
    </g>
    <g id="xtick_2">
     <g id="line2d_2">
      <g>
       <use xlink:href="#m1e660ad165" x="225.923438" y="170.28" style="stroke: #000000; stroke-width: 0.8"/>
      </g>
     </g>
     <g id="text_2">
      <!-- dense_3 -->
      <g transform="translate(205.141406 184.878438)scale(0.1 -0.1)">
       <defs>
        <path id="DejaVuSans-33" d="M 2597 2516 
Q 3050 2419 3304 2112 
Q 3559 1806 3559 1356 
Q 3559 666 3084 287 
Q 2609 -91 1734 -91 
Q 1441 -91 1130 -33 
Q 819 25 488 141 
L 488 750 
Q 750 597 1062 519 
Q 1375 441 1716 441 
Q 2309 441 2620 675 
Q 2931 909 2931 1356 
Q 2931 1769 2642 2001 
Q 2353 2234 1838 2234 
L 1294 2234 
L 1294 2753 
L 1863 2753 
Q 2328 2753 2575 2939 
Q 2822 3125 2822 3475 
Q 2822 3834 2567 4026 
Q 2313 4219 1838 4219 
Q 1578 4219 1281 4162 
Q 984 4106 628 3988 
L 628 4550 
Q 988 4650 1302 4700 
Q 1616 4750 1894 4750 
Q 2613 4750 3031 4423 
Q 3450 4097 3450 3541 
Q 3450 3153 3228 2886 
Q 3006 2619 2597 2516 
z
" transform="scale(0.015625)"/>
       </defs>
       <use xlink:href="#DejaVuSans-64"/>
       <use xlink:href="#DejaVuSans-65" x="63.476562"/>
       <use xlink:href="#DejaVuSans-6e" x="125"/>
       <use xlink:href="#DejaVuSans-73" x="188.378906"/>
       <use xlink:href="#DejaVuSans-65" x="240.478516"/>
       <use xlink:href="#DejaVuSans-5f" x="302.001953"/>
       <use xlink:href="#DejaVuSans-33" x="352.001953"/>
      </g>
     </g>
    </g>
    <g id="xtick_3">
     <g id="line2d_3">
      <g>
       <use xlink:href="#m1e660ad165" x="337.523438" y="170.28" style="stroke: #000000; stroke-width: 0.8"/>
      </g>
     </g>
     <g id="text_3">
      <!-- dense_5 -->
      <g transform="translate(316.741406 184.878438)scale(0.1 -0.1)">
       <defs>
        <path id="DejaVuSans-35" d="M 691 4666 
L 3169 4666 
L 3169 4134 
L 1269 4134 
L 1269 2991 
Q 1406 3038 1543 3061 
Q 1681 3084 1819 3084 
Q 2600 3084 3056 2656 
Q 3513 2228 3513 1497 
Q 3513 744 3044 326 
Q 2575 -91 1722 -91 
Q 1428 -91 1123 -41 
Q 819 9 494 109 
L 494 744 
Q 775 591 1075 516 
Q 1375 441 1709 441 
Q 2250 441 2565 725 
Q 2881 1009 2881 1497 
Q 2881 1984 2565 2268 
Q 2250 2553 1709 2553 
Q 1456 2553 1204 2497 
Q 953 2441 691 2322 
L 691 4666 
z
" transform="scale(0.015625)"/>
       </defs>
       <use xlink:href="#DejaVuSans-64"/>
       <use xlink:href="#DejaVuSans-65" x="63.476562"/>
       <use xlink:href="#DejaVuSans-6e" x="125"/>
       <use xlink:href="#DejaVuSans-73" x="188.378906"/>
       <use xlink:href="#DejaVuSans-65" x="240.478516"/>
       <use xlink:href="#DejaVuSans-5f" x="302.001953"/>
       <use xlink:href="#DejaVuSans-35" x="352.001953"/>
      </g>
     </g>
    </g>
    <g id="xtick_4">
     <g id="line2d_4">
      <g>
       <use xlink:href="#m1e660ad165" x="449.123438" y="170.28" style="stroke: #000000; stroke-width: 0.8"/>
      </g>
     </g>
     <g id="text_4">
      <!-- dense_7 -->
      <g transform="translate(428.341406 184.878438)scale(0.1 -0.1)">
       <defs>
        <path id="DejaVuSans-37" d="M 525 4666 
L 3525 4666 
L 3525 4397 
L 1831 0 
L 1172 0 
L 2766 4134 
L 525 4134 
L 525 4666 
z
" transform="scale(0.015625)"/>
       </defs>
       <use xlink:href="#DejaVuSans-64"/>
       <use xlink:href="#DejaVuSans-65" x="63.476562"/>
       <use xlink:href="#DejaVuSans-6e" x="125"/>
       <use xlink:href="#DejaVuSans-73" x="188.378906"/>
       <use xlink:href="#DejaVuSans-65" x="240.478516"/>
       <use xlink:href="#DejaVuSans-5f" x="302.001953"/>
       <use xlink:href="#DejaVuSans-37" x="352.001953"/>
      </g>
     </g>
    </g>
    <g id="xtick_5">
     <g id="line2d_5">
      <g>
       <use xlink:href="#m1e660ad165" x="560.723438" y="170.28" style="stroke: #000000; stroke-width: 0.8"/>
      </g>
     </g>
     <g id="text_5">
      <!-- dense_9 -->
      <g transform="translate(539.941406 184.878438)scale(0.1 -0.1)">
       <defs>
        <path id="DejaVuSans-39" d="M 703 97 
L 703 672 
Q 941 559 1184 500 
Q 1428 441 1663 441 
Q 2288 441 2617 861 
Q 2947 1281 2994 2138 
Q 2813 1869 2534 1725 
Q 2256 1581 1919 1581 
Q 1219 1581 811 2004 
Q 403 2428 403 3163 
Q 403 3881 828 4315 
Q 1253 4750 1959 4750 
Q 2769 4750 3195 4129 
Q 3622 3509 3622 2328 
Q 3622 1225 3098 567 
Q 2575 -91 1691 -91 
Q 1453 -91 1209 -44 
Q 966 3 703 97 
z
M 1959 2075 
Q 2384 2075 2632 2365 
Q 2881 2656 2881 3163 
Q 2881 3666 2632 3958 
Q 2384 4250 1959 4250 
Q 1534 4250 1286 3958 
Q 1038 3666 1038 3163 
Q 1038 2656 1286 2365 
Q 1534 2075 1959 2075 
z
" transform="scale(0.015625)"/>
       </defs>
       <use xlink:href="#DejaVuSans-64"/>
       <use xlink:href="#DejaVuSans-65" x="63.476562"/>
       <use xlink:href="#DejaVuSans-6e" x="125"/>
       <use xlink:href="#DejaVuSans-73" x="188.378906"/>
       <use xlink:href="#DejaVuSans-65" x="240.478516"/>
       <use xlink:href="#DejaVuSans-5f" x="302.001953"/>
       <use xlink:href="#DejaVuSans-39" x="352.001953"/>
      </g>
     </g>
    </g>
   </g>
   <g id="matplotlib.axis_2">
    <g id="ytick_1">
     <g id="line2d_6">
      <defs>
       <path id="m3c5e85db5a" d="M 0 0 
L -3.5 0 
" style="stroke: #000000; stroke-width: 0.8"/>
      </defs>
      <g>
       <use xlink:href="#m3c5e85db5a" x="58.523438" y="150.439164" style="stroke: #000000; stroke-width: 0.8"/>
      </g>
     </g>
     <g id="text_6">
      <!-- −0.02 -->
      <g transform="translate(20.878125 154.238382)scale(0.1 -0.1)">
       <defs>
        <path id="DejaVuSans-2212" d="M 678 2272 
L 4684 2272 
L 4684 1741 
L 678 1741 
L 678 2272 
z
" transform="scale(0.015625)"/>
        <path id="DejaVuSans-30" d="M 2034 4250 
Q 1547 4250 1301 3770 
Q 1056 3291 1056 2328 
Q 1056 1369 1301 889 
Q 1547 409 2034 409 
Q 2525 409 2770 889 
Q 3016 1369 3016 2328 
Q 3016 3291 2770 3770 
Q 2525 4250 2034 4250 
z
M 2034 4750 
Q 2819 4750 3233 4129 
Q 3647 3509 3647 2328 
Q 3647 1150 3233 529 
Q 2819 -91 2034 -91 
Q 1250 -91 836 529 
Q 422 1150 422 2328 
Q 422 3509 836 4129 
Q 1250 4750 2034 4750 
z
" transform="scale(0.015625)"/>
        <path id="DejaVuSans-2e" d="M 684 794 
L 1344 794 
L 1344 0 
L 684 0 
L 684 794 
z
" transform="scale(0.015625)"/>
        <path id="DejaVuSans-32" d="M 1228 531 
L 3431 531 
L 3431 0 
L 469 0 
L 469 531 
Q 828 903 1448 1529 
Q 2069 2156 2228 2338 
Q 2531 2678 2651 2914 
Q 2772 3150 2772 3378 
Q 2772 3750 2511 3984 
Q 2250 4219 1831 4219 
Q 1534 4219 1204 4116 
Q 875 4013 500 3803 
L 500 4441 
Q 881 4594 1212 4672 
Q 1544 4750 1819 4750 
Q 2544 4750 2975 4387 
Q 3406 4025 3406 3419 
Q 3406 3131 3298 2873 
Q 3191 2616 2906 2266 
Q 2828 2175 2409 1742 
Q 1991 1309 1228 531 
z
" transform="scale(0.015625)"/>
       </defs>
       <use xlink:href="#DejaVuSans-2212"/>
       <use xlink:href="#DejaVuSans-30" x="83.789062"/>
       <use xlink:href="#DejaVuSans-2e" x="147.412109"/>
       <use xlink:href="#DejaVuSans-30" x="179.199219"/>
       <use xlink:href="#DejaVuSans-32" x="242.822266"/>
      </g>
     </g>
    </g>
    <g id="ytick_2">
     <g id="line2d_7">
      <g>
       <use xlink:href="#m3c5e85db5a" x="58.523438" y="119.505369" style="stroke: #000000; stroke-width: 0.8"/>
      </g>
     </g>
     <g id="text_7">
      <!-- −0.01 -->
      <g transform="translate(20.878125 123.304588)scale(0.1 -0.1)">
       <use xlink:href="#DejaVuSans-2212"/>
       <use xlink:href="#DejaVuSans-30" x="83.789062"/>
       <use xlink:href="#DejaVuSans-2e" x="147.412109"/>
       <use xlink:href="#DejaVuSans-30" x="179.199219"/>
       <use xlink:href="#DejaVuSans-31" x="242.822266"/>
      </g>
     </g>
    </g>
    <g id="ytick_3">
     <g id="line2d_8">
      <g>
       <use xlink:href="#m3c5e85db5a" x="58.523438" y="88.571575" style="stroke: #000000; stroke-width: 0.8"/>
      </g>
     </g>
     <g id="text_8">
      <!-- 0.00 -->
      <g transform="translate(29.257812 92.370794)scale(0.1 -0.1)">
       <use xlink:href="#DejaVuSans-30"/>
       <use xlink:href="#DejaVuSans-2e" x="63.623047"/>
       <use xlink:href="#DejaVuSans-30" x="95.410156"/>
       <use xlink:href="#DejaVuSans-30" x="159.033203"/>
      </g>
     </g>
    </g>
    <g id="ytick_4">
     <g id="line2d_9">
      <g>
       <use xlink:href="#m3c5e85db5a" x="58.523438" y="57.63778" style="stroke: #000000; stroke-width: 0.8"/>
      </g>
     </g>
     <g id="text_9">
      <!-- 0.01 -->
      <g transform="translate(29.257812 61.436999)scale(0.1 -0.1)">
       <use xlink:href="#DejaVuSans-30"/>
       <use xlink:href="#DejaVuSans-2e" x="63.623047"/>
       <use xlink:href="#DejaVuSans-30" x="95.410156"/>
       <use xlink:href="#DejaVuSans-31" x="159.033203"/>
      </g>
     </g>
    </g>
    <g id="ytick_5">
     <g id="line2d_10">
      <g>
       <use xlink:href="#m3c5e85db5a" x="58.523438" y="26.703986" style="stroke: #000000; stroke-width: 0.8"/>
      </g>
     </g>
     <g id="text_10">
      <!-- 0.02 -->
      <g transform="translate(29.257812 30.503205)scale(0.1 -0.1)">
       <use xlink:href="#DejaVuSans-30"/>
       <use xlink:href="#DejaVuSans-2e" x="63.623047"/>
       <use xlink:href="#DejaVuSans-30" x="95.410156"/>
       <use xlink:href="#DejaVuSans-32" x="159.033203"/>
      </g>
     </g>
    </g>
    <g id="text_11">
     <!-- ${\nabla}_w L$ -->
     <g transform="translate(14.798437 97.94)rotate(-90)scale(0.1 -0.1)">
      <defs>
       <path id="DejaVuSans-2207" d="M 2138 659 
L 3444 4047 
L 831 4047 
L 2138 659 
z
M 1791 0 
L -19 4603 
L 4300 4603 
L 2491 0 
L 1791 0 
z
" transform="scale(0.015625)"/>
       <path id="DejaVuSans-Oblique-77" d="M 544 3500 
L 1113 3500 
L 1259 684 
L 2566 3500 
L 3231 3500 
L 3425 684 
L 4666 3500 
L 5241 3500 
L 3641 0 
L 2969 0 
L 2797 2900 
L 1459 0 
L 781 0 
L 544 3500 
z
" transform="scale(0.015625)"/>
       <path id="DejaVuSans-Oblique-4c" d="M 1075 4666 
L 1709 4666 
L 909 525 
L 3181 525 
L 3078 0 
L 172 0 
L 1075 4666 
z
" transform="scale(0.015625)"/>
      </defs>
      <use xlink:href="#DejaVuSans-2207" transform="translate(0 0.09375)"/>
      <use xlink:href="#DejaVuSans-Oblique-77" transform="translate(67.851562 -16.3125)scale(0.7)"/>
      <use xlink:href="#DejaVuSans-Oblique-4c" transform="translate(127.836914 0.09375)"/>
     </g>
    </g>
   </g>
   <g id="line2d_11">
    <path d="M 114.323438 91.950834 
L 114.323438 85.052567 
" clip-path="url(#p79132c0390)" style="fill: none; stroke: #3d3d3d; stroke-width: 1.5; stroke-linecap: square"/>
   </g>
   <g id="line2d_12">
    <path d="M 114.323438 89.364072 
L 114.323438 87.639466 
" clip-path="url(#p79132c0390)" style="fill: none; stroke: #3d3d3d; stroke-width: 4.5; stroke-linecap: square"/>
   </g>
   <g id="line2d_13">
    <path d="M 225.923438 91.126591 
L 225.923438 85.91069 
" clip-path="url(#p79132c0390)" style="fill: none; stroke: #3d3d3d; stroke-width: 1.5; stroke-linecap: square"/>
   </g>
   <g id="line2d_14">
    <path d="M 225.923438 89.170617 
L 225.923438 87.86648 
" clip-path="url(#p79132c0390)" style="fill: none; stroke: #3d3d3d; stroke-width: 4.5; stroke-linecap: square"/>
   </g>
   <g id="line2d_15">
    <path d="M 337.523438 90.683577 
L 337.523438 86.389598 
" clip-path="url(#p79132c0390)" style="fill: none; stroke: #3d3d3d; stroke-width: 1.5; stroke-linecap: square"/>
   </g>
   <g id="line2d_16">
    <path d="M 337.523438 89.073365 
L 337.523438 87.999356 
" clip-path="url(#p79132c0390)" style="fill: none; stroke: #3d3d3d; stroke-width: 4.5; stroke-linecap: square"/>
   </g>
   <g id="line2d_17">
    <path d="M 449.123438 90.547966 
L 449.123438 86.217047 
" clip-path="url(#p79132c0390)" style="fill: none; stroke: #3d3d3d; stroke-width: 1.5; stroke-linecap: square"/>
   </g>
   <g id="line2d_18">
    <path d="M 449.123438 88.924834 
L 449.123438 87.841396 
" clip-path="url(#p79132c0390)" style="fill: none; stroke: #3d3d3d; stroke-width: 4.5; stroke-linecap: square"/>
   </g>
   <g id="line2d_19">
    <path d="M 560.723438 103.757828 
L 560.723438 72.559646 
" clip-path="url(#p79132c0390)" style="fill: none; stroke: #3d3d3d; stroke-width: 1.5; stroke-linecap: square"/>
   </g>
   <g id="line2d_20">
    <path d="M 560.723438 92.067238 
L 560.723438 84.259663 
" clip-path="url(#p79132c0390)" style="fill: none; stroke: #3d3d3d; stroke-width: 4.5; stroke-linecap: square"/>
   </g>
   <g id="patch_3">
    <path d="M 58.523438 170.28 
L 58.523438 7.2 
" style="fill: none; stroke: #000000; stroke-width: 0.8; stroke-linejoin: miter; stroke-linecap: square"/>
   </g>
   <g id="patch_4">
    <path d="M 616.523438 170.28 
L 616.523438 7.2 
" style="fill: none; stroke: #000000; stroke-width: 0.8; stroke-linejoin: miter; stroke-linecap: square"/>
   </g>
   <g id="patch_5">
    <path d="M 58.523438 170.28 
L 616.523438 170.28 
" style="fill: none; stroke: #000000; stroke-width: 0.8; stroke-linejoin: miter; stroke-linecap: square"/>
   </g>
   <g id="patch_6">
    <path d="M 58.523438 7.2 
L 616.523438 7.2 
" style="fill: none; stroke: #000000; stroke-width: 0.8; stroke-linejoin: miter; stroke-linecap: square"/>
   </g>
   <g id="PathCollection_1">
    <defs>
     <path id="m917879ef90" d="M 0 1.5 
C 0.397805 1.5 0.77937 1.341951 1.06066 1.06066 
C 1.341951 0.77937 1.5 0.397805 1.5 0 
C 1.5 -0.397805 1.341951 -0.77937 1.06066 -1.06066 
C 0.77937 -1.341951 0.397805 -1.5 0 -1.5 
C -0.397805 -1.5 -0.77937 -1.341951 -1.06066 -1.06066 
C -1.341951 -0.77937 -1.5 -0.397805 -1.5 0 
C -1.5 0.397805 -1.341951 0.77937 -1.06066 1.06066 
C -0.77937 1.341951 -0.397805 1.5 0 1.5 
z
" style="stroke: #3d3d3d"/>
    </defs>
    <g clip-path="url(#p79132c0390)">
     <use xlink:href="#m917879ef90" x="114.323438" y="88.571062" style="fill: #ffffff; stroke: #3d3d3d"/>
    </g>
   </g>
   <g id="PathCollection_2">
    <g clip-path="url(#p79132c0390)">
     <use xlink:href="#m917879ef90" x="225.923438" y="88.571575" style="fill: #ffffff; stroke: #3d3d3d"/>
    </g>
   </g>
   <g id="PathCollection_3">
    <g clip-path="url(#p79132c0390)">
     <use xlink:href="#m917879ef90" x="337.523438" y="88.571575" style="fill: #ffffff; stroke: #3d3d3d"/>
    </g>
   </g>
   <g id="PathCollection_4">
    <g clip-path="url(#p79132c0390)">
     <use xlink:href="#m917879ef90" x="449.123438" y="88.571575" style="fill: #ffffff; stroke: #3d3d3d"/>
    </g>
   </g>
   <g id="PathCollection_5">
    <g clip-path="url(#p79132c0390)">
     <use xlink:href="#m917879ef90" x="560.723438" y="88.457825" style="fill: #ffffff; stroke: #3d3d3d"/>
    </g>
   </g>
   <g id="legend_1">
    <g id="patch_7">
     <path d="M 65.523438 29.878125 
L 116.678125 29.878125 
Q 118.678125 29.878125 118.678125 27.878125 
L 118.678125 14.2 
Q 118.678125 12.2 116.678125 12.2 
L 65.523438 12.2 
Q 63.523438 12.2 63.523438 14.2 
L 63.523438 27.878125 
Q 63.523438 29.878125 65.523438 29.878125 
z
" style="fill: #ffffff; opacity: 0.8; stroke: #cccccc; stroke-linejoin: miter"/>
    </g>
    <g id="patch_8">
     <path d="M 67.523438 23.798438 
L 87.523438 23.798438 
L 87.523438 16.798438 
L 67.523438 16.798438 
z
" style="fill: #3a923a; stroke: #3d3d3d; stroke-width: 1.5; stroke-linejoin: miter"/>
    </g>
    <g id="text_12">
     <!-- relu -->
     <g transform="translate(95.523438 23.798438)scale(0.1 -0.1)">
      <defs>
       <path id="DejaVuSans-72" d="M 2631 2963 
Q 2534 3019 2420 3045 
Q 2306 3072 2169 3072 
Q 1681 3072 1420 2755 
Q 1159 2438 1159 1844 
L 1159 0 
L 581 0 
L 581 3500 
L 1159 3500 
L 1159 2956 
Q 1341 3275 1631 3429 
Q 1922 3584 2338 3584 
Q 2397 3584 2469 3576 
Q 2541 3569 2628 3553 
L 2631 2963 
z
" transform="scale(0.015625)"/>
       <path id="DejaVuSans-6c" d="M 603 4863 
L 1178 4863 
L 1178 0 
L 603 0 
L 603 4863 
z
" transform="scale(0.015625)"/>
       <path id="DejaVuSans-75" d="M 544 1381 
L 544 3500 
L 1119 3500 
L 1119 1403 
Q 1119 906 1312 657 
Q 1506 409 1894 409 
Q 2359 409 2629 706 
Q 2900 1003 2900 1516 
L 2900 3500 
L 3475 3500 
L 3475 0 
L 2900 0 
L 2900 538 
Q 2691 219 2414 64 
Q 2138 -91 1772 -91 
Q 1169 -91 856 284 
Q 544 659 544 1381 
z
M 1991 3584 
L 1991 3584 
z
" transform="scale(0.015625)"/>
      </defs>
      <use xlink:href="#DejaVuSans-72"/>
      <use xlink:href="#DejaVuSans-65" x="38.863281"/>
      <use xlink:href="#DejaVuSans-6c" x="100.386719"/>
      <use xlink:href="#DejaVuSans-75" x="128.169922"/>
     </g>
    </g>
   </g>
  </g>
 </g>
 <defs>
  <clipPath id="p79132c0390">
   <rect x="58.523438" y="7.2" width="558" height="163.08"/>
  </clipPath>
 </defs>
</svg>
