<?xml version="1.0" encoding="utf-8" standalone="no"?>
<!DOCTYPE svg PUBLIC "-//W3C//DTD SVG 1.1//EN"
  "http://www.w3.org/Graphics/SVG/1.1/DTD/svg11.dtd">
<svg xmlns:xlink="http://www.w3.org/1999/xlink" width="623.723438pt" height="194.43625pt" viewBox="0 0 623.723438 194.43625" xmlns="http://www.w3.org/2000/svg" version="1.1">
 <metadata>
  <rdf:RDF xmlns:dc="http://purl.org/dc/elements/1.1/" xmlns:cc="http://creativecommons.org/ns#" xmlns:rdf="http://www.w3.org/1999/02/22-rdf-syntax-ns#">
   <cc:Work>
    <dc:type rdf:resource="http://purl.org/dc/dcmitype/StillImage"/>
    <dc:date>2022-07-08T02:20:49.261426</dc:date>
    <dc:format>image/svg+xml</dc:format>
    <dc:creator>
     <cc:Agent>
      <dc:title>Matplotlib v3.5.1, https://matplotlib.org/</dc:title>
     </cc:Agent>
    </dc:creator>
   </cc:Work>
  </rdf:RDF>
 </metadata>
 <defs>
  <style type="text/css">*{stroke-linejoin: round; stroke-linecap: butt}</style>
 </defs>
 <g id="figure_1">
  <g id="patch_1">
   <path d="M -0 194.43625 
L 623.723438 194.43625 
L 623.723438 0 
L -0 0 
L -0 194.43625 
z
" style="fill: none"/>
  </g>
  <g id="axes_1">
   <g id="patch_2">
    <path d="M 58.523438 170.28 
L 616.523438 170.28 
L 616.523438 7.2 
L 58.523438 7.2 
z
" style="fill: #ffffff"/>
   </g>
   <g id="PolyCollection_1">
    <defs>
     <path id="me2dc5de179" d="M 114.323598 -91.357537 
L 114.323277 -91.357537 
L 114.321395 -91.775491 
L 114.317451 -92.193444 
L 114.314138 -92.611398 
L 114.312327 -93.029351 
L 114.311629 -93.447304 
L 114.312465 -93.865258 
L 114.307926 -94.283211 
L 114.298806 -94.701165 
L 114.294123 -95.119118 
L 114.287568 -95.537071 
L 114.278885 -95.955025 
L 114.270976 -96.372978 
L 114.262601 -96.790931 
L 114.247345 -97.208885 
L 114.222254 -97.626838 
L 114.198995 -98.044792 
L 114.174846 -98.462745 
L 114.153191 -98.880698 
L 114.129804 -99.298652 
L 114.10033 -99.716605 
L 114.046568 -100.134558 
L 113.985722 -100.552512 
L 113.896091 -100.970465 
L 113.842525 -101.388419 
L 113.724338 -101.806372 
L 113.555513 -102.224325 
L 113.39431 -102.642279 
L 113.213552 -103.060232 
L 113.030663 -103.478185 
L 112.839244 -103.896139 
L 112.602251 -104.314092 
L 112.270281 -104.732046 
L 111.866704 -105.149999 
L 111.342736 -105.567952 
L 110.852699 -105.985906 
L 110.32347 -106.403859 
L 109.635626 -106.821812 
L 108.865144 -107.239766 
L 108.013953 -107.657719 
L 107.009514 -108.075673 
L 105.861684 -108.493626 
L 104.677806 -108.911579 
L 103.455546 -109.329533 
L 102.231475 -109.747486 
L 100.760129 -110.16544 
L 98.713676 -110.583393 
L 96.241965 -111.001346 
L 91.53813 -111.4193 
L 75.653343 -111.837253 
L 69.683437 -112.255206 
L 87.408684 -112.67316 
L 94.631056 -113.091113 
L 97.656233 -113.509067 
L 99.588917 -113.92702 
L 101.251725 -114.344973 
L 102.775388 -114.762927 
L 104.163827 -115.18088 
L 105.40312 -115.598833 
L 106.516611 -116.016787 
L 107.508883 -116.43474 
L 108.331505 -116.852694 
L 109.056716 -117.270647 
L 109.732817 -117.6886 
L 110.343892 -118.106554 
L 110.886995 -118.524507 
L 111.372532 -118.94246 
L 111.793329 -119.360414 
L 112.184815 -119.778367 
L 112.547673 -120.196321 
L 112.851089 -120.614274 
L 113.10031 -121.032227 
L 113.323275 -121.450181 
L 113.499486 -121.868134 
L 113.62468 -122.286087 
L 113.731399 -122.704041 
L 113.819109 -123.121994 
L 113.937661 -123.539948 
L 114.015775 -123.957901 
L 114.067022 -124.375854 
L 114.119082 -124.793808 
L 114.157178 -125.211761 
L 114.183433 -125.629715 
L 114.20615 -126.047668 
L 114.23422 -126.465621 
L 114.252973 -126.883575 
L 114.260853 -127.301528 
L 114.281557 -127.719481 
L 114.290944 -128.137435 
L 114.293023 -128.555388 
L 114.296914 -128.973342 
L 114.306072 -129.391295 
L 114.312243 -129.809248 
L 114.317319 -130.227202 
L 114.318265 -130.645155 
L 114.316383 -131.063108 
L 114.316821 -131.481062 
L 114.319589 -131.899015 
L 114.322037 -132.316969 
L 114.323317 -132.734922 
L 114.323558 -132.734922 
L 114.323558 -132.734922 
L 114.324838 -132.316969 
L 114.327286 -131.899015 
L 114.330054 -131.481062 
L 114.330492 -131.063108 
L 114.32861 -130.645155 
L 114.329556 -130.227202 
L 114.334632 -129.809248 
L 114.340803 -129.391295 
L 114.349961 -128.973342 
L 114.353852 -128.555388 
L 114.355931 -128.137435 
L 114.365318 -127.719481 
L 114.386022 -127.301528 
L 114.393902 -126.883575 
L 114.412655 -126.465621 
L 114.440725 -126.047668 
L 114.463442 -125.629715 
L 114.489697 -125.211761 
L 114.527793 -124.793808 
L 114.579853 -124.375854 
L 114.6311 -123.957901 
L 114.709214 -123.539948 
L 114.827766 -123.121994 
L 114.915476 -122.704041 
L 115.022195 -122.286087 
L 115.147389 -121.868134 
L 115.3236 -121.450181 
L 115.546565 -121.032227 
L 115.795786 -120.614274 
L 116.099202 -120.196321 
L 116.46206 -119.778367 
L 116.853546 -119.360414 
L 117.274343 -118.94246 
L 117.75988 -118.524507 
L 118.302983 -118.106554 
L 118.914058 -117.6886 
L 119.590159 -117.270647 
L 120.31537 -116.852694 
L 121.137992 -116.43474 
L 122.130264 -116.016787 
L 123.243755 -115.598833 
L 124.483048 -115.18088 
L 125.871487 -114.762927 
L 127.39515 -114.344973 
L 129.057958 -113.92702 
L 130.990642 -113.509067 
L 134.015819 -113.091113 
L 141.238191 -112.67316 
L 158.963438 -112.255206 
L 152.993532 -111.837253 
L 137.108745 -111.4193 
L 132.40491 -111.001346 
L 129.933199 -110.583393 
L 127.886746 -110.16544 
L 126.4154 -109.747486 
L 125.191329 -109.329533 
L 123.969069 -108.911579 
L 122.785191 -108.493626 
L 121.637361 -108.075673 
L 120.632922 -107.657719 
L 119.781731 -107.239766 
L 119.011249 -106.821812 
L 118.323405 -106.403859 
L 117.794176 -105.985906 
L 117.304139 -105.567952 
L 116.780171 -105.149999 
L 116.376594 -104.732046 
L 116.044624 -104.314092 
L 115.807631 -103.896139 
L 115.616212 -103.478185 
L 115.433323 -103.060232 
L 115.252565 -102.642279 
L 115.091362 -102.224325 
L 114.922537 -101.806372 
L 114.80435 -101.388419 
L 114.750784 -100.970465 
L 114.661153 -100.552512 
L 114.600307 -100.134558 
L 114.546545 -99.716605 
L 114.517071 -99.298652 
L 114.493684 -98.880698 
L 114.472029 -98.462745 
L 114.44788 -98.044792 
L 114.424621 -97.626838 
L 114.39953 -97.208885 
L 114.384274 -96.790931 
L 114.375899 -96.372978 
L 114.36799 -95.955025 
L 114.359307 -95.537071 
L 114.352752 -95.119118 
L 114.348069 -94.701165 
L 114.338949 -94.283211 
L 114.33441 -93.865258 
L 114.335246 -93.447304 
L 114.334548 -93.029351 
L 114.332737 -92.611398 
L 114.329424 -92.193444 
L 114.32548 -91.775491 
L 114.323598 -91.357537 
z
" style="stroke: #515151; stroke-width: 1.5"/>
    </defs>
    <g clip-path="url(#pfe88a5791c)">
     <use xlink:href="#me2dc5de179" x="0" y="194.43625" style="fill: #e1812c; stroke: #515151; stroke-width: 1.5"/>
    </g>
   </g>
   <g id="PolyCollection_2">
    <defs>
     <path id="m1a927e47a2" d="M 225.923598 -83.278791 
L 225.923277 -83.278791 
L 225.922503 -83.872521 
L 225.922463 -84.466251 
L 225.923242 -85.059981 
L 225.923105 -85.653712 
L 225.92177 -86.247442 
L 225.92055 -86.841172 
L 225.919413 -87.434902 
L 225.919749 -88.028633 
L 225.920193 -88.622363 
L 225.915407 -89.216093 
L 225.912459 -89.809823 
L 225.911457 -90.403553 
L 225.905986 -90.997284 
L 225.8953 -91.591014 
L 225.888956 -92.184744 
L 225.87734 -92.778474 
L 225.859608 -93.372205 
L 225.845521 -93.965935 
L 225.827079 -94.559665 
L 225.805661 -95.153395 
L 225.787216 -95.747125 
L 225.746489 -96.340856 
L 225.691811 -96.934586 
L 225.636352 -97.528316 
L 225.555049 -98.122046 
L 225.471944 -98.715777 
L 225.395261 -99.309507 
L 225.250441 -99.903237 
L 225.063414 -100.496967 
L 224.857346 -101.090697 
L 224.625016 -101.684428 
L 224.373754 -102.278158 
L 224.021055 -102.871888 
L 223.508787 -103.465618 
L 222.967056 -104.059349 
L 222.359376 -104.653079 
L 221.647521 -105.246809 
L 220.813893 -105.840539 
L 219.826263 -106.434269 
L 218.768703 -107.028 
L 217.652725 -107.62173 
L 216.205447 -108.21546 
L 214.653266 -108.80919 
L 213.070354 -109.402921 
L 211.650649 -109.996651 
L 210.465257 -110.590381 
L 209.428098 -111.184111 
L 208.652651 -111.777841 
L 208.61938 -112.371572 
L 209.243479 -112.965302 
L 210.208514 -113.559032 
L 211.466853 -114.152762 
L 213.037323 -114.746493 
L 214.572522 -115.340223 
L 215.998474 -115.933953 
L 217.469141 -116.527683 
L 218.671074 -117.121413 
L 219.635161 -117.715144 
L 220.584669 -118.308874 
L 221.489574 -118.902604 
L 222.267695 -119.496334 
L 222.974005 -120.090065 
L 223.537043 -120.683795 
L 223.958879 -121.277525 
L 224.3218 -121.871255 
L 224.641493 -122.464985 
L 224.897074 -123.058716 
L 225.0683 -123.652446 
L 225.204257 -124.246176 
L 225.342404 -124.839906 
L 225.494591 -125.433637 
L 225.581712 -126.027367 
L 225.613646 -126.621097 
L 225.683441 -127.214827 
L 225.745837 -127.808557 
L 225.770622 -128.402288 
L 225.796391 -128.996018 
L 225.838355 -129.589748 
L 225.86113 -130.183478 
L 225.866867 -130.777209 
L 225.875182 -131.370939 
L 225.885802 -131.964669 
L 225.898665 -132.558399 
L 225.904711 -133.152129 
L 225.910648 -133.74586 
L 225.913276 -134.33959 
L 225.913443 -134.93332 
L 225.9118 -135.52705 
L 225.916352 -136.120781 
L 225.920622 -136.714511 
L 225.9218 -137.308241 
L 225.922978 -137.901971 
L 225.923043 -138.495701 
L 225.92228 -139.089432 
L 225.922782 -139.683162 
L 225.923191 -140.276892 
L 225.922462 -140.870622 
L 225.922503 -141.464353 
L 225.923277 -142.058083 
L 225.923598 -142.058083 
L 225.923598 -142.058083 
L 225.924372 -141.464353 
L 225.924413 -140.870622 
L 225.923684 -140.276892 
L 225.924093 -139.683162 
L 225.924595 -139.089432 
L 225.923832 -138.495701 
L 225.923897 -137.901971 
L 225.925075 -137.308241 
L 225.926253 -136.714511 
L 225.930523 -136.120781 
L 225.935075 -135.52705 
L 225.933432 -134.93332 
L 225.933599 -134.33959 
L 225.936227 -133.74586 
L 225.942164 -133.152129 
L 225.94821 -132.558399 
L 225.961073 -131.964669 
L 225.971693 -131.370939 
L 225.980008 -130.777209 
L 225.985745 -130.183478 
L 226.00852 -129.589748 
L 226.050484 -128.996018 
L 226.076253 -128.402288 
L 226.101038 -127.808557 
L 226.163434 -127.214827 
L 226.233229 -126.621097 
L 226.265163 -126.027367 
L 226.352284 -125.433637 
L 226.504471 -124.839906 
L 226.642618 -124.246176 
L 226.778575 -123.652446 
L 226.949801 -123.058716 
L 227.205382 -122.464985 
L 227.525075 -121.871255 
L 227.887996 -121.277525 
L 228.309832 -120.683795 
L 228.87287 -120.090065 
L 229.57918 -119.496334 
L 230.357301 -118.902604 
L 231.262206 -118.308874 
L 232.211714 -117.715144 
L 233.175801 -117.121413 
L 234.377734 -116.527683 
L 235.848401 -115.933953 
L 237.274353 -115.340223 
L 238.809552 -114.746493 
L 240.380022 -114.152762 
L 241.638361 -113.559032 
L 242.603396 -112.965302 
L 243.227495 -112.371572 
L 243.194224 -111.777841 
L 242.418777 -111.184111 
L 241.381618 -110.590381 
L 240.196226 -109.996651 
L 238.776521 -109.402921 
L 237.193609 -108.80919 
L 235.641428 -108.21546 
L 234.19415 -107.62173 
L 233.078172 -107.028 
L 232.020612 -106.434269 
L 231.032982 -105.840539 
L 230.199354 -105.246809 
L 229.487499 -104.653079 
L 228.879819 -104.059349 
L 228.338088 -103.465618 
L 227.82582 -102.871888 
L 227.473121 -102.278158 
L 227.221859 -101.684428 
L 226.989529 -101.090697 
L 226.783461 -100.496967 
L 226.596434 -99.903237 
L 226.451614 -99.309507 
L 226.374931 -98.715777 
L 226.291826 -98.122046 
L 226.210523 -97.528316 
L 226.155064 -96.934586 
L 226.100386 -96.340856 
L 226.059659 -95.747125 
L 226.041214 -95.153395 
L 226.019796 -94.559665 
L 226.001354 -93.965935 
L 225.987267 -93.372205 
L 225.969535 -92.778474 
L 225.957919 -92.184744 
L 225.951575 -91.591014 
L 225.940889 -90.997284 
L 225.935418 -90.403553 
L 225.934416 -89.809823 
L 225.931468 -89.216093 
L 225.926682 -88.622363 
L 225.927126 -88.028633 
L 225.927462 -87.434902 
L 225.926325 -86.841172 
L 225.925105 -86.247442 
L 225.92377 -85.653712 
L 225.923633 -85.059981 
L 225.924412 -84.466251 
L 225.924372 -83.872521 
L 225.923598 -83.278791 
z
" style="stroke: #515151; stroke-width: 1.5"/>
    </defs>
    <g clip-path="url(#pfe88a5791c)">
     <use xlink:href="#m1a927e47a2" x="0" y="194.43625" style="fill: #e1812c; stroke: #515151; stroke-width: 1.5"/>
    </g>
   </g>
   <g id="PolyCollection_3">
    <defs>
     <path id="mf9ffb9e0da" d="M 337.523682 -78.498151 
L 337.523193 -78.498151 
L 337.522213 -79.159722 
L 337.521492 -79.821293 
L 337.521615 -80.482864 
L 337.52139 -81.144435 
L 337.521455 -81.806006 
L 337.520379 -82.467578 
L 337.51861 -83.129149 
L 337.517441 -83.79072 
L 337.517671 -84.452291 
L 337.518408 -85.113862 
L 337.51855 -85.775433 
L 337.516331 -86.437004 
L 337.508021 -87.098575 
L 337.499014 -87.760147 
L 337.497731 -88.421718 
L 337.496059 -89.083289 
L 337.493604 -89.74486 
L 337.483173 -90.406431 
L 337.463999 -91.068002 
L 337.449043 -91.729573 
L 337.437604 -92.391144 
L 337.415041 -93.052716 
L 337.379797 -93.714287 
L 337.340049 -94.375858 
L 337.301754 -95.037429 
L 337.243614 -95.699 
L 337.15701 -96.360571 
L 337.067899 -97.022142 
L 336.984628 -97.683713 
L 336.874867 -98.345284 
L 336.744394 -99.006856 
L 336.577041 -99.668427 
L 336.357286 -100.329998 
L 336.098906 -100.991569 
L 335.793369 -101.65314 
L 335.411962 -102.314711 
L 334.998759 -102.976282 
L 334.520028 -103.637853 
L 333.899718 -104.299425 
L 333.123835 -104.960996 
L 332.179908 -105.622567 
L 331.179892 -106.284138 
L 330.118827 -106.945709 
L 328.921252 -107.60728 
L 327.753383 -108.268851 
L 326.532221 -108.930422 
L 325.183866 -109.591994 
L 323.861478 -110.253565 
L 322.865679 -110.915136 
L 322.482465 -111.576707 
L 322.588359 -112.238278 
L 323.032996 -112.899849 
L 323.659808 -113.56142 
L 324.485405 -114.222991 
L 325.492656 -114.884562 
L 326.714658 -115.546134 
L 328.181891 -116.207705 
L 329.529231 -116.869276 
L 330.716411 -117.530847 
L 331.829458 -118.192418 
L 332.74466 -118.853989 
L 333.518121 -119.51556 
L 334.134361 -120.177131 
L 334.70917 -120.838703 
L 335.202921 -121.500274 
L 335.616039 -122.161845 
L 335.958179 -122.823416 
L 336.209687 -123.484987 
L 336.442805 -124.146558 
L 336.649707 -124.808129 
L 336.802969 -125.4697 
L 336.931678 -126.131271 
L 337.064134 -126.792843 
L 337.155334 -127.454414 
L 337.216953 -128.115985 
L 337.26547 -128.777556 
L 337.297663 -129.439127 
L 337.33824 -130.100698 
L 337.373782 -130.762269 
L 337.406324 -131.42384 
L 337.436682 -132.085412 
L 337.458442 -132.746983 
L 337.464086 -133.408554 
L 337.467994 -134.070125 
L 337.481568 -134.731696 
L 337.494364 -135.393267 
L 337.501805 -136.054838 
L 337.508022 -136.716409 
L 337.513314 -137.377981 
L 337.515577 -138.039552 
L 337.515967 -138.701123 
L 337.513146 -139.362694 
L 337.514838 -140.024265 
L 337.519066 -140.685836 
L 337.519225 -141.347407 
L 337.517248 -142.008978 
L 337.518471 -142.670549 
L 337.521589 -143.332121 
L 337.523154 -143.993692 
L 337.523721 -143.993692 
L 337.523721 -143.993692 
L 337.525286 -143.332121 
L 337.528404 -142.670549 
L 337.529627 -142.008978 
L 337.52765 -141.347407 
L 337.527809 -140.685836 
L 337.532037 -140.024265 
L 337.533729 -139.362694 
L 337.530908 -138.701123 
L 337.531298 -138.039552 
L 337.533561 -137.377981 
L 337.538853 -136.716409 
L 337.54507 -136.054838 
L 337.552511 -135.393267 
L 337.565307 -134.731696 
L 337.578881 -134.070125 
L 337.582789 -133.408554 
L 337.588433 -132.746983 
L 337.610193 -132.085412 
L 337.640551 -131.42384 
L 337.673093 -130.762269 
L 337.708635 -130.100698 
L 337.749212 -129.439127 
L 337.781405 -128.777556 
L 337.829922 -128.115985 
L 337.891541 -127.454414 
L 337.982741 -126.792843 
L 338.115197 -126.131271 
L 338.243906 -125.4697 
L 338.397168 -124.808129 
L 338.60407 -124.146558 
L 338.837188 -123.484987 
L 339.088696 -122.823416 
L 339.430836 -122.161845 
L 339.843954 -121.500274 
L 340.337705 -120.838703 
L 340.912514 -120.177131 
L 341.528754 -119.51556 
L 342.302215 -118.853989 
L 343.217417 -118.192418 
L 344.330464 -117.530847 
L 345.517644 -116.869276 
L 346.864984 -116.207705 
L 348.332217 -115.546134 
L 349.554219 -114.884562 
L 350.56147 -114.222991 
L 351.387067 -113.56142 
L 352.013879 -112.899849 
L 352.458516 -112.238278 
L 352.56441 -111.576707 
L 352.181196 -110.915136 
L 351.185397 -110.253565 
L 349.863009 -109.591994 
L 348.514654 -108.930422 
L 347.293492 -108.268851 
L 346.125623 -107.60728 
L 344.928048 -106.945709 
L 343.866983 -106.284138 
L 342.866967 -105.622567 
L 341.92304 -104.960996 
L 341.147157 -104.299425 
L 340.526847 -103.637853 
L 340.048116 -102.976282 
L 339.634913 -102.314711 
L 339.253506 -101.65314 
L 338.947969 -100.991569 
L 338.689589 -100.329998 
L 338.469834 -99.668427 
L 338.302481 -99.006856 
L 338.172008 -98.345284 
L 338.062247 -97.683713 
L 337.978976 -97.022142 
L 337.889865 -96.360571 
L 337.803261 -95.699 
L 337.745121 -95.037429 
L 337.706826 -94.375858 
L 337.667078 -93.714287 
L 337.631834 -93.052716 
L 337.609271 -92.391144 
L 337.597832 -91.729573 
L 337.582876 -91.068002 
L 337.563702 -90.406431 
L 337.553271 -89.74486 
L 337.550816 -89.083289 
L 337.549144 -88.421718 
L 337.547861 -87.760147 
L 337.538854 -87.098575 
L 337.530544 -86.437004 
L 337.528325 -85.775433 
L 337.528467 -85.113862 
L 337.529204 -84.452291 
L 337.529434 -83.79072 
L 337.528265 -83.129149 
L 337.526496 -82.467578 
L 337.52542 -81.806006 
L 337.525485 -81.144435 
L 337.52526 -80.482864 
L 337.525383 -79.821293 
L 337.524662 -79.159722 
L 337.523682 -78.498151 
z
" style="stroke: #515151; stroke-width: 1.5"/>
    </defs>
    <g clip-path="url(#pfe88a5791c)">
     <use xlink:href="#mf9ffb9e0da" x="0" y="194.43625" style="fill: #e1812c; stroke: #515151; stroke-width: 1.5"/>
    </g>
   </g>
   <g id="PolyCollection_4">
    <defs>
     <path id="m6e52c7d723" d="M 449.123769 -59.803251 
L 449.123106 -59.803251 
L 449.121812 -60.759269 
L 449.121028 -61.715287 
L 449.122353 -62.671304 
L 449.123176 -63.627322 
L 449.122485 -64.58334 
L 449.121084 -65.539358 
L 449.121667 -66.495375 
L 449.123033 -67.451393 
L 449.123347 -68.407411 
L 449.12277 -69.363429 
L 449.121257 -70.319446 
L 449.12085 -71.275464 
L 449.120881 -72.231482 
L 449.121042 -73.1875 
L 449.121683 -74.143517 
L 449.119826 -75.099535 
L 449.118693 -76.055553 
L 449.118959 -77.011571 
L 449.114814 -77.967588 
L 449.109002 -78.923606 
L 449.105842 -79.879624 
L 449.101392 -80.835642 
L 449.090645 -81.79166 
L 449.081059 -82.747677 
L 449.07634 -83.703695 
L 449.073725 -84.659713 
L 449.06303 -85.615731 
L 449.053543 -86.571748 
L 449.041531 -87.527766 
L 449.024915 -88.483784 
L 449.005064 -89.439802 
L 448.970243 -90.395819 
L 448.925822 -91.351837 
L 448.867244 -92.307855 
L 448.778997 -93.263873 
L 448.668079 -94.21989 
L 448.551476 -95.175908 
L 448.42853 -96.131926 
L 448.244076 -97.087944 
L 448.000193 -98.043961 
L 447.705263 -98.999979 
L 447.33035 -99.955997 
L 446.940549 -100.912015 
L 446.541075 -101.868033 
L 445.989058 -102.82405 
L 445.295563 -103.780068 
L 444.48531 -104.736086 
L 443.388758 -105.692104 
L 442.079099 -106.648121 
L 440.849762 -107.604139 
L 439.743519 -108.560157 
L 438.683336 -109.516175 
L 437.785727 -110.472192 
L 437.266336 -111.42821 
L 437.094334 -112.384228 
L 437.352269 -113.340246 
L 438.145672 -114.296263 
L 439.316107 -115.252281 
L 440.510457 -116.208299 
L 441.662302 -117.164317 
L 442.852041 -118.120334 
L 443.89836 -119.076352 
L 444.760861 -120.03237 
L 445.517402 -120.988388 
L 446.145051 -121.944405 
L 446.705042 -122.900423 
L 447.232386 -123.856441 
L 447.635624 -124.812459 
L 447.947976 -125.768477 
L 448.156036 -126.724494 
L 448.293492 -127.680512 
L 448.477924 -128.63653 
L 448.630404 -129.592548 
L 448.685895 -130.548565 
L 448.748278 -131.504583 
L 448.850649 -132.460601 
L 448.934691 -133.416619 
L 448.975062 -134.372636 
L 448.996246 -135.328654 
L 449.014248 -136.284672 
L 449.036278 -137.24069 
L 449.052109 -138.196707 
L 449.065911 -139.152725 
L 449.07933 -140.108743 
L 449.084114 -141.064761 
L 449.095954 -142.020778 
L 449.103058 -142.976796 
L 449.104234 -143.932814 
L 449.10452 -144.888832 
L 449.102646 -145.84485 
L 449.107834 -146.800867 
L 449.115958 -147.756885 
L 449.116306 -148.712903 
L 449.116371 -149.668921 
L 449.118806 -150.624938 
L 449.118835 -151.580956 
L 449.118079 -152.536974 
L 449.120477 -153.492992 
L 449.122897 -154.449009 
L 449.123978 -154.449009 
L 449.123978 -154.449009 
L 449.126398 -153.492992 
L 449.128796 -152.536974 
L 449.12804 -151.580956 
L 449.128069 -150.624938 
L 449.130504 -149.668921 
L 449.130569 -148.712903 
L 449.130917 -147.756885 
L 449.139041 -146.800867 
L 449.144229 -145.84485 
L 449.142355 -144.888832 
L 449.142641 -143.932814 
L 449.143817 -142.976796 
L 449.150921 -142.020778 
L 449.162761 -141.064761 
L 449.167545 -140.108743 
L 449.180964 -139.152725 
L 449.194766 -138.196707 
L 449.210597 -137.24069 
L 449.232627 -136.284672 
L 449.250629 -135.328654 
L 449.271813 -134.372636 
L 449.312184 -133.416619 
L 449.396226 -132.460601 
L 449.498597 -131.504583 
L 449.56098 -130.548565 
L 449.616471 -129.592548 
L 449.768951 -128.63653 
L 449.953383 -127.680512 
L 450.090839 -126.724494 
L 450.298899 -125.768477 
L 450.611251 -124.812459 
L 451.014489 -123.856441 
L 451.541833 -122.900423 
L 452.101824 -121.944405 
L 452.729473 -120.988388 
L 453.486014 -120.03237 
L 454.348515 -119.076352 
L 455.394834 -118.120334 
L 456.584573 -117.164317 
L 457.736418 -116.208299 
L 458.930768 -115.252281 
L 460.101203 -114.296263 
L 460.894606 -113.340246 
L 461.152541 -112.384228 
L 460.980539 -111.42821 
L 460.461148 -110.472192 
L 459.563539 -109.516175 
L 458.503356 -108.560157 
L 457.397113 -107.604139 
L 456.167776 -106.648121 
L 454.858117 -105.692104 
L 453.761565 -104.736086 
L 452.951312 -103.780068 
L 452.257817 -102.82405 
L 451.7058 -101.868033 
L 451.306326 -100.912015 
L 450.916525 -99.955997 
L 450.541612 -98.999979 
L 450.246682 -98.043961 
L 450.002799 -97.087944 
L 449.818345 -96.131926 
L 449.695399 -95.175908 
L 449.578796 -94.21989 
L 449.467878 -93.263873 
L 449.379631 -92.307855 
L 449.321053 -91.351837 
L 449.276632 -90.395819 
L 449.241811 -89.439802 
L 449.22196 -88.483784 
L 449.205344 -87.527766 
L 449.193332 -86.571748 
L 449.183845 -85.615731 
L 449.17315 -84.659713 
L 449.170535 -83.703695 
L 449.165816 -82.747677 
L 449.15623 -81.79166 
L 449.145483 -80.835642 
L 449.141033 -79.879624 
L 449.137873 -78.923606 
L 449.132061 -77.967588 
L 449.127916 -77.011571 
L 449.128182 -76.055553 
L 449.127049 -75.099535 
L 449.125192 -74.143517 
L 449.125833 -73.1875 
L 449.125994 -72.231482 
L 449.126025 -71.275464 
L 449.125618 -70.319446 
L 449.124105 -69.363429 
L 449.123528 -68.407411 
L 449.123842 -67.451393 
L 449.125208 -66.495375 
L 449.125791 -65.539358 
L 449.12439 -64.58334 
L 449.123699 -63.627322 
L 449.124522 -62.671304 
L 449.125847 -61.715287 
L 449.125063 -60.759269 
L 449.123769 -59.803251 
z
" style="stroke: #515151; stroke-width: 1.5"/>
    </defs>
    <g clip-path="url(#pfe88a5791c)">
     <use xlink:href="#m6e52c7d723" x="0" y="194.43625" style="fill: #e1812c; stroke: #515151; stroke-width: 1.5"/>
    </g>
   </g>
   <g id="PolyCollection_5">
    <defs>
     <path id="m244fe1c85d" d="M 560.725 -31.568977 
L 560.721875 -31.568977 
L 560.720638 -33.066498 
L 560.71886 -34.564019 
L 560.716572 -36.061539 
L 560.713916 -37.55906 
L 560.711058 -39.056581 
L 560.70804 -40.554101 
L 560.704626 -42.051622 
L 560.700285 -43.549143 
L 560.694344 -45.046663 
L 560.686279 -46.544184 
L 560.675961 -48.041705 
L 560.663728 -49.539225 
L 560.650259 -51.036746 
L 560.636312 -52.534267 
L 560.622461 -54.031787 
L 560.608866 -55.529308 
L 560.595061 -57.026829 
L 560.579798 -58.524349 
L 560.561089 -60.02187 
L 560.536621 -61.51939 
L 560.504506 -63.016911 
L 560.46407 -64.514432 
L 560.416249 -66.011952 
L 560.363324 -67.509473 
L 560.308111 -69.006994 
L 560.252965 -70.504514 
L 560.198986 -72.002035 
L 560.145567 -73.499556 
L 560.090327 -74.997076 
L 560.029437 -76.494597 
L 559.958427 -77.992118 
L 559.873405 -79.489638 
L 559.772308 -80.987159 
L 559.655621 -82.48468 
L 559.526189 -83.9822 
L 559.388298 -85.479721 
L 559.2466 -86.977242 
L 559.105296 -88.474762 
L 558.967454 -89.972283 
L 558.834041 -91.469804 
L 558.702739 -92.967324 
L 558.567439 -94.464845 
L 558.419588 -95.962366 
L 558.251613 -97.459886 
L 558.061027 -98.957407 
L 557.852966 -100.454928 
L 557.639502 -101.952448 
L 557.435964 -103.449969 
L 557.256208 -104.94749 
L 557.109289 -106.44501 
L 556.998976 -107.942531 
L 556.925817 -109.440052 
L 556.890056 -110.937572 
L 556.893264 -112.435093 
L 556.937485 -113.932614 
L 557.022404 -115.430134 
L 557.142649 -116.927655 
L 557.287477 -118.425176 
L 557.443679 -119.922696 
L 557.600328 -121.420217 
L 557.752702 -122.917738 
L 557.903217 -124.415258 
L 558.05898 -125.912779 
L 558.227429 -127.4103 
L 558.412306 -128.90782 
L 558.611659 -130.405341 
L 558.818284 -131.902862 
L 559.021868 -133.400382 
L 559.211572 -134.897903 
L 559.378176 -136.395424 
L 559.515494 -137.892944 
L 559.621189 -139.390465 
L 559.697055 -140.887986 
L 559.748628 -142.385506 
L 559.784052 -143.883027 
L 559.812454 -145.380548 
L 559.842366 -146.878068 
L 559.880626 -148.375589 
L 559.931761 -149.87311 
L 559.997596 -151.37063 
L 560.076937 -152.868151 
L 560.165548 -154.365671 
L 560.25683 -155.863192 
L 560.343338 -157.360713 
L 560.418709 -158.858233 
L 560.47924 -160.355754 
L 560.524498 -161.853275 
L 560.556837 -163.350795 
L 560.58019 -164.848316 
L 560.598716 -166.345837 
L 560.6157 -167.843357 
L 560.632961 -169.340878 
L 560.650792 -170.838399 
L 560.668359 -172.335919 
L 560.68436 -173.83344 
L 560.69766 -175.330961 
L 560.707704 -176.828481 
L 560.714584 -178.326002 
L 560.718857 -179.823523 
L 560.728018 -179.823523 
L 560.728018 -179.823523 
L 560.732291 -178.326002 
L 560.739171 -176.828481 
L 560.749215 -175.330961 
L 560.762515 -173.83344 
L 560.778516 -172.335919 
L 560.796083 -170.838399 
L 560.813914 -169.340878 
L 560.831175 -167.843357 
L 560.848159 -166.345837 
L 560.866685 -164.848316 
L 560.890038 -163.350795 
L 560.922377 -161.853275 
L 560.967635 -160.355754 
L 561.028166 -158.858233 
L 561.103537 -157.360713 
L 561.190045 -155.863192 
L 561.281327 -154.365671 
L 561.369938 -152.868151 
L 561.449279 -151.37063 
L 561.515114 -149.87311 
L 561.566249 -148.375589 
L 561.604509 -146.878068 
L 561.634421 -145.380548 
L 561.662823 -143.883027 
L 561.698247 -142.385506 
L 561.74982 -140.887986 
L 561.825686 -139.390465 
L 561.931381 -137.892944 
L 562.068699 -136.395424 
L 562.235303 -134.897903 
L 562.425007 -133.400382 
L 562.628591 -131.902862 
L 562.835216 -130.405341 
L 563.034569 -128.90782 
L 563.219446 -127.4103 
L 563.387895 -125.912779 
L 563.543658 -124.415258 
L 563.694173 -122.917738 
L 563.846547 -121.420217 
L 564.003196 -119.922696 
L 564.159398 -118.425176 
L 564.304226 -116.927655 
L 564.424471 -115.430134 
L 564.50939 -113.932614 
L 564.553611 -112.435093 
L 564.556819 -110.937572 
L 564.521058 -109.440052 
L 564.447899 -107.942531 
L 564.337586 -106.44501 
L 564.190667 -104.94749 
L 564.010911 -103.449969 
L 563.807373 -101.952448 
L 563.593909 -100.454928 
L 563.385848 -98.957407 
L 563.195262 -97.459886 
L 563.027287 -95.962366 
L 562.879436 -94.464845 
L 562.744136 -92.967324 
L 562.612834 -91.469804 
L 562.479421 -89.972283 
L 562.341579 -88.474762 
L 562.200275 -86.977242 
L 562.058577 -85.479721 
L 561.920686 -83.9822 
L 561.791254 -82.48468 
L 561.674567 -80.987159 
L 561.57347 -79.489638 
L 561.488448 -77.992118 
L 561.417438 -76.494597 
L 561.356548 -74.997076 
L 561.301308 -73.499556 
L 561.247889 -72.002035 
L 561.19391 -70.504514 
L 561.138764 -69.006994 
L 561.083551 -67.509473 
L 561.030626 -66.011952 
L 560.982805 -64.514432 
L 560.942369 -63.016911 
L 560.910254 -61.51939 
L 560.885786 -60.02187 
L 560.867077 -58.524349 
L 560.851814 -57.026829 
L 560.838009 -55.529308 
L 560.824414 -54.031787 
L 560.810563 -52.534267 
L 560.796616 -51.036746 
L 560.783147 -49.539225 
L 560.770914 -48.041705 
L 560.760596 -46.544184 
L 560.752531 -45.046663 
L 560.74659 -43.549143 
L 560.742249 -42.051622 
L 560.738835 -40.554101 
L 560.735817 -39.056581 
L 560.732959 -37.55906 
L 560.730303 -36.061539 
L 560.728015 -34.564019 
L 560.726237 -33.066498 
L 560.725 -31.568977 
z
" style="stroke: #515151; stroke-width: 1.5"/>
    </defs>
    <g clip-path="url(#pfe88a5791c)">
     <use xlink:href="#m244fe1c85d" x="0" y="194.43625" style="fill: #e1812c; stroke: #515151; stroke-width: 1.5"/>
    </g>
   </g>
   <g id="matplotlib.axis_1">
    <g id="xtick_1">
     <g id="line2d_1">
      <defs>
       <path id="m86545ede47" d="M 0 0 
L 0 3.5 
" style="stroke: #000000; stroke-width: 0.8"/>
      </defs>
      <g>
       <use xlink:href="#m86545ede47" x="114.323438" y="170.28" style="stroke: #000000; stroke-width: 0.8"/>
      </g>
     </g>
     <g id="text_1">
      <!-- dense_1 -->
      <g transform="translate(93.541406 184.878438)scale(0.1 -0.1)">
       <defs>
        <path id="DejaVuSans-64" d="M 2906 2969 
L 2906 4863 
L 3481 4863 
L 3481 0 
L 2906 0 
L 2906 525 
Q 2725 213 2448 61 
Q 2172 -91 1784 -91 
Q 1150 -91 751 415 
Q 353 922 353 1747 
Q 353 2572 751 3078 
Q 1150 3584 1784 3584 
Q 2172 3584 2448 3432 
Q 2725 3281 2906 2969 
z
M 947 1747 
Q 947 1113 1208 752 
Q 1469 391 1925 391 
Q 2381 391 2643 752 
Q 2906 1113 2906 1747 
Q 2906 2381 2643 2742 
Q 2381 3103 1925 3103 
Q 1469 3103 1208 2742 
Q 947 2381 947 1747 
z
" transform="scale(0.015625)"/>
        <path id="DejaVuSans-65" d="M 3597 1894 
L 3597 1613 
L 953 1613 
Q 991 1019 1311 708 
Q 1631 397 2203 397 
Q 2534 397 2845 478 
Q 3156 559 3463 722 
L 3463 178 
Q 3153 47 2828 -22 
Q 2503 -91 2169 -91 
Q 1331 -91 842 396 
Q 353 884 353 1716 
Q 353 2575 817 3079 
Q 1281 3584 2069 3584 
Q 2775 3584 3186 3129 
Q 3597 2675 3597 1894 
z
M 3022 2063 
Q 3016 2534 2758 2815 
Q 2500 3097 2075 3097 
Q 1594 3097 1305 2825 
Q 1016 2553 972 2059 
L 3022 2063 
z
" transform="scale(0.015625)"/>
        <path id="DejaVuSans-6e" d="M 3513 2113 
L 3513 0 
L 2938 0 
L 2938 2094 
Q 2938 2591 2744 2837 
Q 2550 3084 2163 3084 
Q 1697 3084 1428 2787 
Q 1159 2491 1159 1978 
L 1159 0 
L 581 0 
L 581 3500 
L 1159 3500 
L 1159 2956 
Q 1366 3272 1645 3428 
Q 1925 3584 2291 3584 
Q 2894 3584 3203 3211 
Q 3513 2838 3513 2113 
z
" transform="scale(0.015625)"/>
        <path id="DejaVuSans-73" d="M 2834 3397 
L 2834 2853 
Q 2591 2978 2328 3040 
Q 2066 3103 1784 3103 
Q 1356 3103 1142 2972 
Q 928 2841 928 2578 
Q 928 2378 1081 2264 
Q 1234 2150 1697 2047 
L 1894 2003 
Q 2506 1872 2764 1633 
Q 3022 1394 3022 966 
Q 3022 478 2636 193 
Q 2250 -91 1575 -91 
Q 1294 -91 989 -36 
Q 684 19 347 128 
L 347 722 
Q 666 556 975 473 
Q 1284 391 1588 391 
Q 1994 391 2212 530 
Q 2431 669 2431 922 
Q 2431 1156 2273 1281 
Q 2116 1406 1581 1522 
L 1381 1569 
Q 847 1681 609 1914 
Q 372 2147 372 2553 
Q 372 3047 722 3315 
Q 1072 3584 1716 3584 
Q 2034 3584 2315 3537 
Q 2597 3491 2834 3397 
z
" transform="scale(0.015625)"/>
        <path id="DejaVuSans-5f" d="M 3263 -1063 
L 3263 -1509 
L -63 -1509 
L -63 -1063 
L 3263 -1063 
z
" transform="scale(0.015625)"/>
        <path id="DejaVuSans-31" d="M 794 531 
L 1825 531 
L 1825 4091 
L 703 3866 
L 703 4441 
L 1819 4666 
L 2450 4666 
L 2450 531 
L 3481 531 
L 3481 0 
L 794 0 
L 794 531 
z
" transform="scale(0.015625)"/>
       </defs>
       <use xlink:href="#DejaVuSans-64"/>
       <use xlink:href="#DejaVuSans-65" x="63.476562"/>
       <use xlink:href="#DejaVuSans-6e" x="125"/>
       <use xlink:href="#DejaVuSans-73" x="188.378906"/>
       <use xlink:href="#DejaVuSans-65" x="240.478516"/>
       <use xlink:href="#DejaVuSans-5f" x="302.001953"/>
       <use xlink:href="#DejaVuSans-31" x="352.001953"/>
      </g>
     </g>
    </g>
    <g id="xtick_2">
     <g id="line2d_2">
      <g>
       <use xlink:href="#m86545ede47" x="225.923438" y="170.28" style="stroke: #000000; stroke-width: 0.8"/>
      </g>
     </g>
     <g id="text_2">
      <!-- dense_3 -->
      <g transform="translate(205.141406 184.878438)scale(0.1 -0.1)">
       <defs>
        <path id="DejaVuSans-33" d="M 2597 2516 
Q 3050 2419 3304 2112 
Q 3559 1806 3559 1356 
Q 3559 666 3084 287 
Q 2609 -91 1734 -91 
Q 1441 -91 1130 -33 
Q 819 25 488 141 
L 488 750 
Q 750 597 1062 519 
Q 1375 441 1716 441 
Q 2309 441 2620 675 
Q 2931 909 2931 1356 
Q 2931 1769 2642 2001 
Q 2353 2234 1838 2234 
L 1294 2234 
L 1294 2753 
L 1863 2753 
Q 2328 2753 2575 2939 
Q 2822 3125 2822 3475 
Q 2822 3834 2567 4026 
Q 2313 4219 1838 4219 
Q 1578 4219 1281 4162 
Q 984 4106 628 3988 
L 628 4550 
Q 988 4650 1302 4700 
Q 1616 4750 1894 4750 
Q 2613 4750 3031 4423 
Q 3450 4097 3450 3541 
Q 3450 3153 3228 2886 
Q 3006 2619 2597 2516 
z
" transform="scale(0.015625)"/>
       </defs>
       <use xlink:href="#DejaVuSans-64"/>
       <use xlink:href="#DejaVuSans-65" x="63.476562"/>
       <use xlink:href="#DejaVuSans-6e" x="125"/>
       <use xlink:href="#DejaVuSans-73" x="188.378906"/>
       <use xlink:href="#DejaVuSans-65" x="240.478516"/>
       <use xlink:href="#DejaVuSans-5f" x="302.001953"/>
       <use xlink:href="#DejaVuSans-33" x="352.001953"/>
      </g>
     </g>
    </g>
    <g id="xtick_3">
     <g id="line2d_3">
      <g>
       <use xlink:href="#m86545ede47" x="337.523438" y="170.28" style="stroke: #000000; stroke-width: 0.8"/>
      </g>
     </g>
     <g id="text_3">
      <!-- dense_5 -->
      <g transform="translate(316.741406 184.878438)scale(0.1 -0.1)">
       <defs>
        <path id="DejaVuSans-35" d="M 691 4666 
L 3169 4666 
L 3169 4134 
L 1269 4134 
L 1269 2991 
Q 1406 3038 1543 3061 
Q 1681 3084 1819 3084 
Q 2600 3084 3056 2656 
Q 3513 2228 3513 1497 
Q 3513 744 3044 326 
Q 2575 -91 1722 -91 
Q 1428 -91 1123 -41 
Q 819 9 494 109 
L 494 744 
Q 775 591 1075 516 
Q 1375 441 1709 441 
Q 2250 441 2565 725 
Q 2881 1009 2881 1497 
Q 2881 1984 2565 2268 
Q 2250 2553 1709 2553 
Q 1456 2553 1204 2497 
Q 953 2441 691 2322 
L 691 4666 
z
" transform="scale(0.015625)"/>
       </defs>
       <use xlink:href="#DejaVuSans-64"/>
       <use xlink:href="#DejaVuSans-65" x="63.476562"/>
       <use xlink:href="#DejaVuSans-6e" x="125"/>
       <use xlink:href="#DejaVuSans-73" x="188.378906"/>
       <use xlink:href="#DejaVuSans-65" x="240.478516"/>
       <use xlink:href="#DejaVuSans-5f" x="302.001953"/>
       <use xlink:href="#DejaVuSans-35" x="352.001953"/>
      </g>
     </g>
    </g>
    <g id="xtick_4">
     <g id="line2d_4">
      <g>
       <use xlink:href="#m86545ede47" x="449.123438" y="170.28" style="stroke: #000000; stroke-width: 0.8"/>
      </g>
     </g>
     <g id="text_4">
      <!-- dense_7 -->
      <g transform="translate(428.341406 184.878438)scale(0.1 -0.1)">
       <defs>
        <path id="DejaVuSans-37" d="M 525 4666 
L 3525 4666 
L 3525 4397 
L 1831 0 
L 1172 0 
L 2766 4134 
L 525 4134 
L 525 4666 
z
" transform="scale(0.015625)"/>
       </defs>
       <use xlink:href="#DejaVuSans-64"/>
       <use xlink:href="#DejaVuSans-65" x="63.476562"/>
       <use xlink:href="#DejaVuSans-6e" x="125"/>
       <use xlink:href="#DejaVuSans-73" x="188.378906"/>
       <use xlink:href="#DejaVuSans-65" x="240.478516"/>
       <use xlink:href="#DejaVuSans-5f" x="302.001953"/>
       <use xlink:href="#DejaVuSans-37" x="352.001953"/>
      </g>
     </g>
    </g>
    <g id="xtick_5">
     <g id="line2d_5">
      <g>
       <use xlink:href="#m86545ede47" x="560.723438" y="170.28" style="stroke: #000000; stroke-width: 0.8"/>
      </g>
     </g>
     <g id="text_5">
      <!-- dense_9 -->
      <g transform="translate(539.941406 184.878438)scale(0.1 -0.1)">
       <defs>
        <path id="DejaVuSans-39" d="M 703 97 
L 703 672 
Q 941 559 1184 500 
Q 1428 441 1663 441 
Q 2288 441 2617 861 
Q 2947 1281 2994 2138 
Q 2813 1869 2534 1725 
Q 2256 1581 1919 1581 
Q 1219 1581 811 2004 
Q 403 2428 403 3163 
Q 403 3881 828 4315 
Q 1253 4750 1959 4750 
Q 2769 4750 3195 4129 
Q 3622 3509 3622 2328 
Q 3622 1225 3098 567 
Q 2575 -91 1691 -91 
Q 1453 -91 1209 -44 
Q 966 3 703 97 
z
M 1959 2075 
Q 2384 2075 2632 2365 
Q 2881 2656 2881 3163 
Q 2881 3666 2632 3958 
Q 2384 4250 1959 4250 
Q 1534 4250 1286 3958 
Q 1038 3666 1038 3163 
Q 1038 2656 1286 2365 
Q 1534 2075 1959 2075 
z
" transform="scale(0.015625)"/>
       </defs>
       <use xlink:href="#DejaVuSans-64"/>
       <use xlink:href="#DejaVuSans-65" x="63.476562"/>
       <use xlink:href="#DejaVuSans-6e" x="125"/>
       <use xlink:href="#DejaVuSans-73" x="188.378906"/>
       <use xlink:href="#DejaVuSans-65" x="240.478516"/>
       <use xlink:href="#DejaVuSans-5f" x="302.001953"/>
       <use xlink:href="#DejaVuSans-39" x="352.001953"/>
      </g>
     </g>
    </g>
   </g>
   <g id="matplotlib.axis_2">
    <g id="ytick_1">
     <g id="line2d_6">
      <defs>
       <path id="m5c26ac2bf5" d="M 0 0 
L -3.5 0 
" style="stroke: #000000; stroke-width: 0.8"/>
      </defs>
      <g>
       <use xlink:href="#m5c26ac2bf5" x="58.523438" y="161.057042" style="stroke: #000000; stroke-width: 0.8"/>
      </g>
     </g>
     <g id="text_6">
      <!-- −0.06 -->
      <g transform="translate(20.878125 164.856261)scale(0.1 -0.1)">
       <defs>
        <path id="DejaVuSans-2212" d="M 678 2272 
L 4684 2272 
L 4684 1741 
L 678 1741 
L 678 2272 
z
" transform="scale(0.015625)"/>
        <path id="DejaVuSans-30" d="M 2034 4250 
Q 1547 4250 1301 3770 
Q 1056 3291 1056 2328 
Q 1056 1369 1301 889 
Q 1547 409 2034 409 
Q 2525 409 2770 889 
Q 3016 1369 3016 2328 
Q 3016 3291 2770 3770 
Q 2525 4250 2034 4250 
z
M 2034 4750 
Q 2819 4750 3233 4129 
Q 3647 3509 3647 2328 
Q 3647 1150 3233 529 
Q 2819 -91 2034 -91 
Q 1250 -91 836 529 
Q 422 1150 422 2328 
Q 422 3509 836 4129 
Q 1250 4750 2034 4750 
z
" transform="scale(0.015625)"/>
        <path id="DejaVuSans-2e" d="M 684 794 
L 1344 794 
L 1344 0 
L 684 0 
L 684 794 
z
" transform="scale(0.015625)"/>
        <path id="DejaVuSans-36" d="M 2113 2584 
Q 1688 2584 1439 2293 
Q 1191 2003 1191 1497 
Q 1191 994 1439 701 
Q 1688 409 2113 409 
Q 2538 409 2786 701 
Q 3034 994 3034 1497 
Q 3034 2003 2786 2293 
Q 2538 2584 2113 2584 
z
M 3366 4563 
L 3366 3988 
Q 3128 4100 2886 4159 
Q 2644 4219 2406 4219 
Q 1781 4219 1451 3797 
Q 1122 3375 1075 2522 
Q 1259 2794 1537 2939 
Q 1816 3084 2150 3084 
Q 2853 3084 3261 2657 
Q 3669 2231 3669 1497 
Q 3669 778 3244 343 
Q 2819 -91 2113 -91 
Q 1303 -91 875 529 
Q 447 1150 447 2328 
Q 447 3434 972 4092 
Q 1497 4750 2381 4750 
Q 2619 4750 2861 4703 
Q 3103 4656 3366 4563 
z
" transform="scale(0.015625)"/>
       </defs>
       <use xlink:href="#DejaVuSans-2212"/>
       <use xlink:href="#DejaVuSans-30" x="83.789062"/>
       <use xlink:href="#DejaVuSans-2e" x="147.412109"/>
       <use xlink:href="#DejaVuSans-30" x="179.199219"/>
       <use xlink:href="#DejaVuSans-36" x="242.822266"/>
      </g>
     </g>
    </g>
    <g id="ytick_2">
     <g id="line2d_7">
      <g>
       <use xlink:href="#m5c26ac2bf5" x="58.523438" y="134.815919" style="stroke: #000000; stroke-width: 0.8"/>
      </g>
     </g>
     <g id="text_7">
      <!-- −0.04 -->
      <g transform="translate(20.878125 138.615138)scale(0.1 -0.1)">
       <defs>
        <path id="DejaVuSans-34" d="M 2419 4116 
L 825 1625 
L 2419 1625 
L 2419 4116 
z
M 2253 4666 
L 3047 4666 
L 3047 1625 
L 3713 1625 
L 3713 1100 
L 3047 1100 
L 3047 0 
L 2419 0 
L 2419 1100 
L 313 1100 
L 313 1709 
L 2253 4666 
z
" transform="scale(0.015625)"/>
       </defs>
       <use xlink:href="#DejaVuSans-2212"/>
       <use xlink:href="#DejaVuSans-30" x="83.789062"/>
       <use xlink:href="#DejaVuSans-2e" x="147.412109"/>
       <use xlink:href="#DejaVuSans-30" x="179.199219"/>
       <use xlink:href="#DejaVuSans-34" x="242.822266"/>
      </g>
     </g>
    </g>
    <g id="ytick_3">
     <g id="line2d_8">
      <g>
       <use xlink:href="#m5c26ac2bf5" x="58.523438" y="108.574797" style="stroke: #000000; stroke-width: 0.8"/>
      </g>
     </g>
     <g id="text_8">
      <!-- −0.02 -->
      <g transform="translate(20.878125 112.374015)scale(0.1 -0.1)">
       <defs>
        <path id="DejaVuSans-32" d="M 1228 531 
L 3431 531 
L 3431 0 
L 469 0 
L 469 531 
Q 828 903 1448 1529 
Q 2069 2156 2228 2338 
Q 2531 2678 2651 2914 
Q 2772 3150 2772 3378 
Q 2772 3750 2511 3984 
Q 2250 4219 1831 4219 
Q 1534 4219 1204 4116 
Q 875 4013 500 3803 
L 500 4441 
Q 881 4594 1212 4672 
Q 1544 4750 1819 4750 
Q 2544 4750 2975 4387 
Q 3406 4025 3406 3419 
Q 3406 3131 3298 2873 
Q 3191 2616 2906 2266 
Q 2828 2175 2409 1742 
Q 1991 1309 1228 531 
z
" transform="scale(0.015625)"/>
       </defs>
       <use xlink:href="#DejaVuSans-2212"/>
       <use xlink:href="#DejaVuSans-30" x="83.789062"/>
       <use xlink:href="#DejaVuSans-2e" x="147.412109"/>
       <use xlink:href="#DejaVuSans-30" x="179.199219"/>
       <use xlink:href="#DejaVuSans-32" x="242.822266"/>
      </g>
     </g>
    </g>
    <g id="ytick_4">
     <g id="line2d_9">
      <g>
       <use xlink:href="#m5c26ac2bf5" x="58.523438" y="82.333674" style="stroke: #000000; stroke-width: 0.8"/>
      </g>
     </g>
     <g id="text_9">
      <!-- 0.00 -->
      <g transform="translate(29.257812 86.132893)scale(0.1 -0.1)">
       <use xlink:href="#DejaVuSans-30"/>
       <use xlink:href="#DejaVuSans-2e" x="63.623047"/>
       <use xlink:href="#DejaVuSans-30" x="95.410156"/>
       <use xlink:href="#DejaVuSans-30" x="159.033203"/>
      </g>
     </g>
    </g>
    <g id="ytick_5">
     <g id="line2d_10">
      <g>
       <use xlink:href="#m5c26ac2bf5" x="58.523438" y="56.092551" style="stroke: #000000; stroke-width: 0.8"/>
      </g>
     </g>
     <g id="text_10">
      <!-- 0.02 -->
      <g transform="translate(29.257812 59.89177)scale(0.1 -0.1)">
       <use xlink:href="#DejaVuSans-30"/>
       <use xlink:href="#DejaVuSans-2e" x="63.623047"/>
       <use xlink:href="#DejaVuSans-30" x="95.410156"/>
       <use xlink:href="#DejaVuSans-32" x="159.033203"/>
      </g>
     </g>
    </g>
    <g id="ytick_6">
     <g id="line2d_11">
      <g>
       <use xlink:href="#m5c26ac2bf5" x="58.523438" y="29.851428" style="stroke: #000000; stroke-width: 0.8"/>
      </g>
     </g>
     <g id="text_11">
      <!-- 0.04 -->
      <g transform="translate(29.257812 33.650647)scale(0.1 -0.1)">
       <use xlink:href="#DejaVuSans-30"/>
       <use xlink:href="#DejaVuSans-2e" x="63.623047"/>
       <use xlink:href="#DejaVuSans-30" x="95.410156"/>
       <use xlink:href="#DejaVuSans-34" x="159.033203"/>
      </g>
     </g>
    </g>
    <g id="text_12">
     <!-- ${\nabla}_w L$ -->
     <g transform="translate(14.798437 97.94)rotate(-90)scale(0.1 -0.1)">
      <defs>
       <path id="DejaVuSans-2207" d="M 2138 659 
L 3444 4047 
L 831 4047 
L 2138 659 
z
M 1791 0 
L -19 4603 
L 4300 4603 
L 2491 0 
L 1791 0 
z
" transform="scale(0.015625)"/>
       <path id="DejaVuSans-Oblique-77" d="M 544 3500 
L 1113 3500 
L 1259 684 
L 2566 3500 
L 3231 3500 
L 3425 684 
L 4666 3500 
L 5241 3500 
L 3641 0 
L 2969 0 
L 2797 2900 
L 1459 0 
L 781 0 
L 544 3500 
z
" transform="scale(0.015625)"/>
       <path id="DejaVuSans-Oblique-4c" d="M 1075 4666 
L 1709 4666 
L 909 525 
L 3181 525 
L 3078 0 
L 172 0 
L 1075 4666 
z
" transform="scale(0.015625)"/>
      </defs>
      <use xlink:href="#DejaVuSans-2207" transform="translate(0 0.09375)"/>
      <use xlink:href="#DejaVuSans-Oblique-77" transform="translate(67.851562 -16.3125)scale(0.7)"/>
      <use xlink:href="#DejaVuSans-Oblique-4c" transform="translate(127.836914 0.09375)"/>
     </g>
    </g>
   </g>
   <g id="line2d_12">
    <path d="M 114.323438 89.318497 
L 114.323438 75.18373 
" clip-path="url(#pfe88a5791c)" style="fill: none; stroke: #515151; stroke-width: 1.5; stroke-linecap: square"/>
   </g>
   <g id="line2d_13">
    <path d="M 114.323438 84.017934 
L 114.323438 80.484224 
" clip-path="url(#pfe88a5791c)" style="fill: none; stroke: #515151; stroke-width: 4.5; stroke-linecap: square"/>
   </g>
   <g id="line2d_14">
    <path d="M 225.923438 93.634166 
L 225.923438 71.028315 
" clip-path="url(#pfe88a5791c)" style="fill: none; stroke: #515151; stroke-width: 1.5; stroke-linecap: square"/>
   </g>
   <g id="line2d_15">
    <path d="M 225.923438 85.156397 
L 225.923438 79.504204 
" clip-path="url(#pfe88a5791c)" style="fill: none; stroke: #515151; stroke-width: 4.5; stroke-linecap: square"/>
   </g>
   <g id="line2d_16">
    <path d="M 337.523438 95.198748 
L 337.523438 69.487159 
" clip-path="url(#pfe88a5791c)" style="fill: none; stroke: #515151; stroke-width: 1.5; stroke-linecap: square"/>
   </g>
   <g id="line2d_17">
    <path d="M 337.523438 85.557438 
L 337.523438 79.129246 
" clip-path="url(#pfe88a5791c)" style="fill: none; stroke: #515151; stroke-width: 4.5; stroke-linecap: square"/>
   </g>
   <g id="line2d_18">
    <path d="M 449.123438 98.358059 
L 449.123438 66.18919 
" clip-path="url(#pfe88a5791c)" style="fill: none; stroke: #515151; stroke-width: 1.5; stroke-linecap: square"/>
   </g>
   <g id="line2d_19">
    <path d="M 449.123438 86.309945 
L 449.123438 78.260229 
" clip-path="url(#pfe88a5791c)" style="fill: none; stroke: #515151; stroke-width: 4.5; stroke-linecap: square"/>
   </g>
   <g id="line2d_20">
    <path d="M 560.723438 130.604628 
L 560.723438 32.576812 
" clip-path="url(#pfe88a5791c)" style="fill: none; stroke: #515151; stroke-width: 1.5; stroke-linecap: square"/>
   </g>
   <g id="line2d_21">
    <path d="M 560.723438 94.419869 
L 560.723438 69.608621 
" clip-path="url(#pfe88a5791c)" style="fill: none; stroke: #515151; stroke-width: 4.5; stroke-linecap: square"/>
   </g>
   <g id="patch_3">
    <path d="M 58.523438 170.28 
L 58.523438 7.2 
" style="fill: none; stroke: #000000; stroke-width: 0.8; stroke-linejoin: miter; stroke-linecap: square"/>
   </g>
   <g id="patch_4">
    <path d="M 616.523438 170.28 
L 616.523438 7.2 
" style="fill: none; stroke: #000000; stroke-width: 0.8; stroke-linejoin: miter; stroke-linecap: square"/>
   </g>
   <g id="patch_5">
    <path d="M 58.523438 170.28 
L 616.523438 170.28 
" style="fill: none; stroke: #000000; stroke-width: 0.8; stroke-linejoin: miter; stroke-linecap: square"/>
   </g>
   <g id="patch_6">
    <path d="M 58.523438 7.2 
L 616.523438 7.2 
" style="fill: none; stroke: #000000; stroke-width: 0.8; stroke-linejoin: miter; stroke-linecap: square"/>
   </g>
   <g id="PathCollection_1">
    <defs>
     <path id="mffbfb6ef1d" d="M 0 1.5 
C 0.397805 1.5 0.77937 1.341951 1.06066 1.06066 
C 1.341951 0.77937 1.5 0.397805 1.5 0 
C 1.5 -0.397805 1.341951 -0.77937 1.06066 -1.06066 
C 0.77937 -1.341951 0.397805 -1.5 0 -1.5 
C -0.397805 -1.5 -0.77937 -1.341951 -1.06066 -1.06066 
C -1.341951 -0.77937 -1.5 -0.397805 -1.5 0 
C -1.5 0.397805 -1.341951 0.77937 -1.06066 1.06066 
C -0.77937 1.341951 -0.397805 1.5 0 1.5 
z
" style="stroke: #515151"/>
    </defs>
    <g clip-path="url(#pfe88a5791c)">
     <use xlink:href="#mffbfb6ef1d" x="114.323438" y="82.326349" style="fill: #ffffff; stroke: #515151"/>
    </g>
   </g>
   <g id="PathCollection_2">
    <g clip-path="url(#pfe88a5791c)">
     <use xlink:href="#mffbfb6ef1d" x="225.923438" y="82.329837" style="fill: #ffffff; stroke: #515151"/>
    </g>
   </g>
   <g id="PathCollection_3">
    <g clip-path="url(#pfe88a5791c)">
     <use xlink:href="#mffbfb6ef1d" x="337.523438" y="82.36134" style="fill: #ffffff; stroke: #515151"/>
    </g>
   </g>
   <g id="PathCollection_4">
    <g clip-path="url(#pfe88a5791c)">
     <use xlink:href="#mffbfb6ef1d" x="449.123438" y="82.276929" style="fill: #ffffff; stroke: #515151"/>
    </g>
   </g>
   <g id="PathCollection_5">
    <g clip-path="url(#pfe88a5791c)">
     <use xlink:href="#mffbfb6ef1d" x="560.723438" y="82.270195" style="fill: #ffffff; stroke: #515151"/>
    </g>
   </g>
   <g id="legend_1">
    <g id="patch_7">
     <path d="M 65.523438 29.878125 
L 120.246875 29.878125 
Q 122.246875 29.878125 122.246875 27.878125 
L 122.246875 14.2 
Q 122.246875 12.2 120.246875 12.2 
L 65.523438 12.2 
Q 63.523438 12.2 63.523438 14.2 
L 63.523438 27.878125 
Q 63.523438 29.878125 65.523438 29.878125 
z
" style="fill: #ffffff; opacity: 0.8; stroke: #cccccc; stroke-linejoin: miter"/>
    </g>
    <g id="patch_8">
     <path d="M 67.523438 23.798438 
L 87.523438 23.798438 
L 87.523438 16.798438 
L 67.523438 16.798438 
z
" style="fill: #e1812c; stroke: #515151; stroke-width: 1.5; stroke-linejoin: miter"/>
    </g>
    <g id="text_13">
     <!-- tanh -->
     <g transform="translate(95.523438 23.798438)scale(0.1 -0.1)">
      <defs>
       <path id="DejaVuSans-74" d="M 1172 4494 
L 1172 3500 
L 2356 3500 
L 2356 3053 
L 1172 3053 
L 1172 1153 
Q 1172 725 1289 603 
Q 1406 481 1766 481 
L 2356 481 
L 2356 0 
L 1766 0 
Q 1100 0 847 248 
Q 594 497 594 1153 
L 594 3053 
L 172 3053 
L 172 3500 
L 594 3500 
L 594 4494 
L 1172 4494 
z
" transform="scale(0.015625)"/>
       <path id="DejaVuSans-61" d="M 2194 1759 
Q 1497 1759 1228 1600 
Q 959 1441 959 1056 
Q 959 750 1161 570 
Q 1363 391 1709 391 
Q 2188 391 2477 730 
Q 2766 1069 2766 1631 
L 2766 1759 
L 2194 1759 
z
M 3341 1997 
L 3341 0 
L 2766 0 
L 2766 531 
Q 2569 213 2275 61 
Q 1981 -91 1556 -91 
Q 1019 -91 701 211 
Q 384 513 384 1019 
Q 384 1609 779 1909 
Q 1175 2209 1959 2209 
L 2766 2209 
L 2766 2266 
Q 2766 2663 2505 2880 
Q 2244 3097 1772 3097 
Q 1472 3097 1187 3025 
Q 903 2953 641 2809 
L 641 3341 
Q 956 3463 1253 3523 
Q 1550 3584 1831 3584 
Q 2591 3584 2966 3190 
Q 3341 2797 3341 1997 
z
" transform="scale(0.015625)"/>
       <path id="DejaVuSans-68" d="M 3513 2113 
L 3513 0 
L 2938 0 
L 2938 2094 
Q 2938 2591 2744 2837 
Q 2550 3084 2163 3084 
Q 1697 3084 1428 2787 
Q 1159 2491 1159 1978 
L 1159 0 
L 581 0 
L 581 4863 
L 1159 4863 
L 1159 2956 
Q 1366 3272 1645 3428 
Q 1925 3584 2291 3584 
Q 2894 3584 3203 3211 
Q 3513 2838 3513 2113 
z
" transform="scale(0.015625)"/>
      </defs>
      <use xlink:href="#DejaVuSans-74"/>
      <use xlink:href="#DejaVuSans-61" x="39.208984"/>
      <use xlink:href="#DejaVuSans-6e" x="100.488281"/>
      <use xlink:href="#DejaVuSans-68" x="163.867188"/>
     </g>
    </g>
   </g>
  </g>
 </g>
 <defs>
  <clipPath id="pfe88a5791c">
   <rect x="58.523438" y="7.2" width="558" height="163.08"/>
  </clipPath>
 </defs>
</svg>
