<?xml version="1.0" encoding="utf-8" standalone="no"?>
<!DOCTYPE svg PUBLIC "-//W3C//DTD SVG 1.1//EN"
  "http://www.w3.org/Graphics/SVG/1.1/DTD/svg11.dtd">
<svg xmlns:xlink="http://www.w3.org/1999/xlink" width="614.204687pt" height="213.884397pt" viewBox="0 0 614.204687 213.884397" xmlns="http://www.w3.org/2000/svg" version="1.1">
 <metadata>
  <rdf:RDF xmlns:dc="http://purl.org/dc/elements/1.1/" xmlns:cc="http://creativecommons.org/ns#" xmlns:rdf="http://www.w3.org/1999/02/22-rdf-syntax-ns#">
   <cc:Work>
    <dc:type rdf:resource="http://purl.org/dc/dcmitype/StillImage"/>
    <dc:date>2022-07-08T02:25:29.005612</dc:date>
    <dc:format>image/svg+xml</dc:format>
    <dc:creator>
     <cc:Agent>
      <dc:title>Matplotlib v3.5.1, https://matplotlib.org/</dc:title>
     </cc:Agent>
    </dc:creator>
   </cc:Work>
  </rdf:RDF>
 </metadata>
 <defs>
  <style type="text/css">*{stroke-linejoin: round; stroke-linecap: butt}</style>
 </defs>
 <g id="figure_1">
  <g id="patch_1">
   <path d="M 0 213.884397 
L 614.204687 213.884397 
L 614.204687 0 
L 0 0 
L 0 213.884397 
z
" style="fill: none"/>
  </g>
  <g id="axes_1">
   <g id="patch_2">
    <path d="M 49.004687 170.28 
L 607.004688 170.28 
L 607.004688 7.2 
L 49.004687 7.2 
z
" style="fill: #ffffff"/>
   </g>
   <g id="PolyCollection_1">
    <defs>
     <path id="m6598d3892f" d="M 83.879714 -109.526187 
L 83.879661 -109.526187 
L 83.87953 -110.066477 
L 83.879687 -110.606767 
L 83.879687 -111.147057 
L 83.879602 -111.687346 
L 83.879391 -112.227636 
L 83.879274 -112.767926 
L 83.879177 -113.308216 
L 83.878115 -113.848506 
L 83.877397 -114.388796 
L 83.876234 -114.929086 
L 83.87469 -115.469376 
L 83.874623 -116.009666 
L 83.87253 -116.549955 
L 83.871954 -117.090245 
L 83.872143 -117.630535 
L 83.868577 -118.170825 
L 83.868809 -118.711115 
L 83.868005 -119.251405 
L 83.867592 -119.791695 
L 83.867204 -120.331985 
L 83.868337 -120.872275 
L 83.867354 -121.412564 
L 83.863829 -121.952854 
L 83.86401 -122.493144 
L 83.862036 -123.033434 
L 83.858584 -123.573724 
L 83.856143 -124.114014 
L 83.850477 -124.654304 
L 83.841626 -125.194594 
L 83.833667 -125.734884 
L 83.819622 -126.275173 
L 83.7958 -126.815463 
L 83.77439 -127.355753 
L 83.748464 -127.896043 
L 83.705566 -128.436333 
L 83.652761 -128.976623 
L 83.599222 -129.516913 
L 83.527851 -130.057203 
L 83.424577 -130.597493 
L 83.340164 -131.137782 
L 83.213873 -131.678072 
L 83.048981 -132.218362 
L 82.879593 -132.758652 
L 82.674872 -133.298942 
L 82.389772 -133.839232 
L 82.087576 -134.379522 
L 81.701579 -134.919812 
L 81.251561 -135.460102 
L 80.694845 -136.000391 
L 79.976599 -136.540681 
L 79.165458 -137.080971 
L 78.161646 -137.621261 
L 76.979438 -138.161551 
L 75.483242 -138.701841 
L 73.681593 -139.242131 
L 71.666397 -139.782421 
L 69.192361 -140.322711 
L 66.682259 -140.863 
L 63.794748 -141.40329 
L 61.070808 -141.94358 
L 58.741897 -142.48387 
L 57.317064 -143.02416 
L 56.996183 -143.56445 
L 57.867982 -144.10474 
L 59.914727 -144.64503 
L 62.694128 -145.18532 
L 65.602249 -145.725609 
L 68.513796 -146.265899 
L 71.226241 -146.806189 
L 73.590532 -147.346479 
L 75.683925 -147.886769 
L 77.411192 -148.427059 
L 78.858432 -148.967349 
L 80.034694 -149.507639 
L 80.95464 -150.047929 
L 81.654377 -150.588218 
L 82.255687 -151.128508 
L 82.710515 -151.668798 
L 83.018886 -152.209088 
L 83.27255 -152.749378 
L 83.454072 -153.289668 
L 83.58077 -153.829958 
L 83.668474 -154.370248 
L 83.723944 -154.910537 
L 83.770654 -155.450827 
L 83.807597 -155.991117 
L 83.82791 -156.531407 
L 83.844081 -157.071697 
L 83.855764 -157.611987 
L 83.866754 -158.152277 
L 83.8715 -158.692567 
L 83.874089 -159.232857 
L 83.876074 -159.773146 
L 83.877305 -160.313436 
L 83.878837 -160.853726 
L 83.878636 -161.394016 
L 83.879613 -161.934306 
L 83.879241 -162.474596 
L 83.879636 -163.014886 
L 83.879739 -163.014886 
L 83.879739 -163.014886 
L 83.880134 -162.474596 
L 83.879762 -161.934306 
L 83.880739 -161.394016 
L 83.880538 -160.853726 
L 83.88207 -160.313436 
L 83.883301 -159.773146 
L 83.885286 -159.232857 
L 83.887875 -158.692567 
L 83.892621 -158.152277 
L 83.903611 -157.611987 
L 83.915294 -157.071697 
L 83.931465 -156.531407 
L 83.951778 -155.991117 
L 83.988721 -155.450827 
L 84.035431 -154.910537 
L 84.090901 -154.370248 
L 84.178605 -153.829958 
L 84.305303 -153.289668 
L 84.486825 -152.749378 
L 84.740489 -152.209088 
L 85.04886 -151.668798 
L 85.503688 -151.128508 
L 86.104998 -150.588218 
L 86.804735 -150.047929 
L 87.724681 -149.507639 
L 88.900943 -148.967349 
L 90.348183 -148.427059 
L 92.07545 -147.886769 
L 94.168843 -147.346479 
L 96.533134 -146.806189 
L 99.245579 -146.265899 
L 102.157126 -145.725609 
L 105.065247 -145.18532 
L 107.844648 -144.64503 
L 109.891393 -144.10474 
L 110.763192 -143.56445 
L 110.442311 -143.02416 
L 109.017478 -142.48387 
L 106.688567 -141.94358 
L 103.964627 -141.40329 
L 101.077116 -140.863 
L 98.567014 -140.322711 
L 96.092978 -139.782421 
L 94.077782 -139.242131 
L 92.276133 -138.701841 
L 90.779937 -138.161551 
L 89.597729 -137.621261 
L 88.593917 -137.080971 
L 87.782776 -136.540681 
L 87.06453 -136.000391 
L 86.507814 -135.460102 
L 86.057796 -134.919812 
L 85.671799 -134.379522 
L 85.369603 -133.839232 
L 85.084503 -133.298942 
L 84.879782 -132.758652 
L 84.710394 -132.218362 
L 84.545502 -131.678072 
L 84.419211 -131.137782 
L 84.334798 -130.597493 
L 84.231524 -130.057203 
L 84.160153 -129.516913 
L 84.106614 -128.976623 
L 84.053809 -128.436333 
L 84.010911 -127.896043 
L 83.984985 -127.355753 
L 83.963575 -126.815463 
L 83.939753 -126.275173 
L 83.925708 -125.734884 
L 83.917749 -125.194594 
L 83.908898 -124.654304 
L 83.903232 -124.114014 
L 83.900791 -123.573724 
L 83.897339 -123.033434 
L 83.895365 -122.493144 
L 83.895546 -121.952854 
L 83.892021 -121.412564 
L 83.891038 -120.872275 
L 83.892171 -120.331985 
L 83.891783 -119.791695 
L 83.89137 -119.251405 
L 83.890566 -118.711115 
L 83.890798 -118.170825 
L 83.887232 -117.630535 
L 83.887421 -117.090245 
L 83.886845 -116.549955 
L 83.884752 -116.009666 
L 83.884685 -115.469376 
L 83.883141 -114.929086 
L 83.881978 -114.388796 
L 83.88126 -113.848506 
L 83.880198 -113.308216 
L 83.880101 -112.767926 
L 83.879984 -112.227636 
L 83.879773 -111.687346 
L 83.879688 -111.147057 
L 83.879688 -110.606767 
L 83.879845 -110.066477 
L 83.879714 -109.526187 
z
" style="stroke: #585858; stroke-width: 1.5"/>
    </defs>
    <g clip-path="url(#pefe40b280e)">
     <use xlink:href="#m6598d3892f" x="0" y="213.884397" style="fill: #9372b2; stroke: #585858; stroke-width: 1.5"/>
    </g>
   </g>
   <g id="PolyCollection_2">
    <defs>
     <path id="m0e446efc8d" d="M 153.631388 -135.416172 
L 153.627987 -135.416172 
L 153.576837 -135.694149 
L 153.423216 -135.972126 
L 153.282946 -136.250104 
L 152.890583 -136.528081 
L 152.195164 -136.806058 
L 151.334178 -137.084036 
L 150.402332 -137.362013 
L 149.40539 -137.63999 
L 148.309667 -137.917968 
L 147.143054 -138.195945 
L 145.902088 -138.473922 
L 144.49069 -138.7519 
L 143.041842 -139.029877 
L 141.521305 -139.307855 
L 139.9376 -139.585832 
L 138.191122 -139.863809 
L 136.390448 -140.141787 
L 134.680248 -140.419764 
L 132.873411 -140.697741 
L 131.234184 -140.975719 
L 129.82219 -141.253696 
L 128.368453 -141.531673 
L 127.254312 -141.809651 
L 126.390496 -142.087628 
L 125.831418 -142.365605 
L 125.729687 -142.643583 
L 125.940117 -142.92156 
L 126.408977 -143.199537 
L 126.678108 -143.477515 
L 126.848853 -143.755492 
L 127.414001 -144.03347 
L 128.225045 -144.311447 
L 129.39026 -144.589424 
L 130.754039 -144.867402 
L 132.227878 -145.145379 
L 133.732792 -145.423356 
L 135.207206 -145.701334 
L 136.759767 -145.979311 
L 138.22283 -146.257288 
L 139.642612 -146.535266 
L 141.021591 -146.813243 
L 142.288599 -147.09122 
L 143.433674 -147.369198 
L 144.548547 -147.647175 
L 145.578812 -147.925152 
L 146.495947 -148.20313 
L 147.32197 -148.481107 
L 148.087626 -148.759084 
L 148.779193 -149.037062 
L 149.414538 -149.315039 
L 149.946997 -149.593017 
L 150.434641 -149.870994 
L 150.85256 -150.148971 
L 151.203037 -150.426949 
L 151.545136 -150.704926 
L 151.847007 -150.982903 
L 152.148164 -151.260881 
L 152.379984 -151.538858 
L 152.550434 -151.816835 
L 152.705142 -152.094813 
L 152.860026 -152.37279 
L 152.986769 -152.650767 
L 153.090181 -152.928745 
L 153.179786 -153.206722 
L 153.260968 -153.484699 
L 153.318683 -153.762677 
L 153.370081 -154.040654 
L 153.413152 -154.318631 
L 153.44419 -154.596609 
L 153.470727 -154.874586 
L 153.495707 -155.152564 
L 153.519235 -155.430541 
L 153.54101 -155.708518 
L 153.557774 -155.986496 
L 153.569261 -156.264473 
L 153.577857 -156.54245 
L 153.58969 -156.820428 
L 153.594348 -157.098405 
L 153.599708 -157.376382 
L 153.606988 -157.65436 
L 153.611535 -157.932337 
L 153.618364 -158.210314 
L 153.620668 -158.488292 
L 153.621759 -158.766269 
L 153.623338 -159.044246 
L 153.624324 -159.322224 
L 153.624937 -159.600201 
L 153.626836 -159.878178 
L 153.626987 -160.156156 
L 153.627753 -160.434133 
L 153.629207 -160.712111 
L 153.628404 -160.990088 
L 153.628204 -161.268065 
L 153.629155 -161.546043 
L 153.629635 -161.82402 
L 153.629557 -162.101997 
L 153.629289 -162.379975 
L 153.629213 -162.657952 
L 153.629625 -162.935929 
L 153.62975 -162.935929 
L 153.62975 -162.935929 
L 153.630162 -162.657952 
L 153.630086 -162.379975 
L 153.629818 -162.101997 
L 153.62974 -161.82402 
L 153.63022 -161.546043 
L 153.631171 -161.268065 
L 153.630971 -160.990088 
L 153.630168 -160.712111 
L 153.631622 -160.434133 
L 153.632388 -160.156156 
L 153.632539 -159.878178 
L 153.634438 -159.600201 
L 153.635051 -159.322224 
L 153.636037 -159.044246 
L 153.637616 -158.766269 
L 153.638707 -158.488292 
L 153.641011 -158.210314 
L 153.64784 -157.932337 
L 153.652387 -157.65436 
L 153.659667 -157.376382 
L 153.665027 -157.098405 
L 153.669685 -156.820428 
L 153.681518 -156.54245 
L 153.690114 -156.264473 
L 153.701601 -155.986496 
L 153.718365 -155.708518 
L 153.74014 -155.430541 
L 153.763668 -155.152564 
L 153.788648 -154.874586 
L 153.815185 -154.596609 
L 153.846223 -154.318631 
L 153.889294 -154.040654 
L 153.940692 -153.762677 
L 153.998407 -153.484699 
L 154.079589 -153.206722 
L 154.169194 -152.928745 
L 154.272606 -152.650767 
L 154.399349 -152.37279 
L 154.554233 -152.094813 
L 154.708941 -151.816835 
L 154.879391 -151.538858 
L 155.111211 -151.260881 
L 155.412368 -150.982903 
L 155.714239 -150.704926 
L 156.056338 -150.426949 
L 156.406815 -150.148971 
L 156.824734 -149.870994 
L 157.312378 -149.593017 
L 157.844837 -149.315039 
L 158.480182 -149.037062 
L 159.171749 -148.759084 
L 159.937405 -148.481107 
L 160.763428 -148.20313 
L 161.680563 -147.925152 
L 162.710828 -147.647175 
L 163.825701 -147.369198 
L 164.970776 -147.09122 
L 166.237784 -146.813243 
L 167.616763 -146.535266 
L 169.036545 -146.257288 
L 170.499608 -145.979311 
L 172.052169 -145.701334 
L 173.526583 -145.423356 
L 175.031497 -145.145379 
L 176.505336 -144.867402 
L 177.869115 -144.589424 
L 179.03433 -144.311447 
L 179.845374 -144.03347 
L 180.410522 -143.755492 
L 180.581267 -143.477515 
L 180.850398 -143.199537 
L 181.319258 -142.92156 
L 181.529687 -142.643583 
L 181.427957 -142.365605 
L 180.868879 -142.087628 
L 180.005063 -141.809651 
L 178.890922 -141.531673 
L 177.437185 -141.253696 
L 176.025191 -140.975719 
L 174.385964 -140.697741 
L 172.579127 -140.419764 
L 170.868927 -140.141787 
L 169.068253 -139.863809 
L 167.321775 -139.585832 
L 165.73807 -139.307855 
L 164.217533 -139.029877 
L 162.768685 -138.7519 
L 161.357287 -138.473922 
L 160.116321 -138.195945 
L 158.949708 -137.917968 
L 157.853985 -137.63999 
L 156.857043 -137.362013 
L 155.925197 -137.084036 
L 155.064211 -136.806058 
L 154.368792 -136.528081 
L 153.976429 -136.250104 
L 153.836159 -135.972126 
L 153.682538 -135.694149 
L 153.631388 -135.416172 
z
" style="stroke: #585858; stroke-width: 1.5"/>
    </defs>
    <g clip-path="url(#pefe40b280e)">
     <use xlink:href="#m0e446efc8d" x="0" y="213.884397" style="fill: #9372b2; stroke: #585858; stroke-width: 1.5"/>
    </g>
   </g>
   <g id="PolyCollection_3">
    <defs>
     <path id="medab4e86fd" d="M 223.379729 -103.610701 
L 223.379646 -103.610701 
L 223.379239 -104.387814 
L 223.379153 -105.164927 
L 223.379241 -105.94204 
L 223.378837 -106.719153 
L 223.378473 -107.496267 
L 223.377689 -108.27338 
L 223.3769 -109.050493 
L 223.376027 -109.827606 
L 223.373662 -110.604719 
L 223.372341 -111.381832 
L 223.368709 -112.158946 
L 223.363845 -112.936059 
L 223.357112 -113.713172 
L 223.349106 -114.490285 
L 223.340428 -115.267398 
L 223.32931 -116.044512 
L 223.316409 -116.821625 
L 223.302081 -117.598738 
L 223.283273 -118.375851 
L 223.259919 -119.152964 
L 223.237797 -119.930077 
L 223.215025 -120.707191 
L 223.17775 -121.484304 
L 223.143861 -122.261417 
L 223.109483 -123.03853 
L 223.053351 -123.815643 
L 222.992328 -124.592757 
L 222.920286 -125.36987 
L 222.825604 -126.146983 
L 222.700312 -126.924096 
L 222.545116 -127.701209 
L 222.392749 -128.478322 
L 222.18037 -129.255436 
L 221.911568 -130.032549 
L 221.583266 -130.809662 
L 221.201484 -131.586775 
L 220.768011 -132.363888 
L 220.280298 -133.141002 
L 219.683904 -133.918115 
L 219.00528 -134.695228 
L 218.22711 -135.472341 
L 217.27709 -136.249454 
L 216.269121 -137.026567 
L 215.025984 -137.803681 
L 213.665955 -138.580794 
L 212.200094 -139.357907 
L 210.859001 -140.13502 
L 209.303262 -140.912133 
L 207.976337 -141.689247 
L 207.246205 -142.46636 
L 207.004896 -143.243473 
L 207.290688 -144.020586 
L 208.149137 -144.797699 
L 209.417584 -145.574812 
L 210.839831 -146.351926 
L 212.404338 -147.129039 
L 213.934536 -147.906152 
L 215.410516 -148.683265 
L 216.747946 -149.460378 
L 217.891521 -150.237492 
L 218.896469 -151.014605 
L 219.759311 -151.791718 
L 220.494876 -152.568831 
L 221.086323 -153.345944 
L 221.564969 -154.123057 
L 222.018391 -154.900171 
L 222.327298 -155.677284 
L 222.546251 -156.454397 
L 222.729889 -157.23151 
L 222.867853 -158.008623 
L 222.972908 -158.785737 
L 223.074782 -159.56285 
L 223.151515 -160.339963 
L 223.204055 -161.117076 
L 223.249265 -161.894189 
L 223.278301 -162.671302 
L 223.301801 -163.448416 
L 223.325051 -164.225529 
L 223.33768 -165.002642 
L 223.348696 -165.779755 
L 223.356764 -166.556868 
L 223.359828 -167.333982 
L 223.365841 -168.111095 
L 223.369024 -168.888208 
L 223.371312 -169.665321 
L 223.373023 -170.442434 
L 223.374517 -171.219547 
L 223.375516 -171.996661 
L 223.37669 -172.773774 
L 223.378061 -173.550887 
L 223.378187 -174.328 
L 223.377855 -175.105113 
L 223.379127 -175.882227 
L 223.379447 -176.65934 
L 223.379445 -177.436453 
L 223.379406 -178.213566 
L 223.379575 -178.990679 
L 223.379314 -179.767793 
L 223.379654 -180.544906 
L 223.379721 -180.544906 
L 223.379721 -180.544906 
L 223.380061 -179.767793 
L 223.3798 -178.990679 
L 223.379969 -178.213566 
L 223.37993 -177.436453 
L 223.379928 -176.65934 
L 223.380248 -175.882227 
L 223.38152 -175.105113 
L 223.381188 -174.328 
L 223.381314 -173.550887 
L 223.382685 -172.773774 
L 223.383859 -171.996661 
L 223.384858 -171.219547 
L 223.386352 -170.442434 
L 223.388063 -169.665321 
L 223.390351 -168.888208 
L 223.393534 -168.111095 
L 223.399547 -167.333982 
L 223.402611 -166.556868 
L 223.410679 -165.779755 
L 223.421695 -165.002642 
L 223.434324 -164.225529 
L 223.457574 -163.448416 
L 223.481074 -162.671302 
L 223.51011 -161.894189 
L 223.55532 -161.117076 
L 223.60786 -160.339963 
L 223.684593 -159.56285 
L 223.786467 -158.785737 
L 223.891522 -158.008623 
L 224.029486 -157.23151 
L 224.213124 -156.454397 
L 224.432077 -155.677284 
L 224.740984 -154.900171 
L 225.194406 -154.123057 
L 225.673052 -153.345944 
L 226.264499 -152.568831 
L 227.000064 -151.791718 
L 227.862906 -151.014605 
L 228.867854 -150.237492 
L 230.011429 -149.460378 
L 231.348859 -148.683265 
L 232.824839 -147.906152 
L 234.355037 -147.129039 
L 235.919544 -146.351926 
L 237.341791 -145.574812 
L 238.610238 -144.797699 
L 239.468687 -144.020586 
L 239.754479 -143.243473 
L 239.51317 -142.46636 
L 238.783038 -141.689247 
L 237.456113 -140.912133 
L 235.900374 -140.13502 
L 234.559281 -139.357907 
L 233.09342 -138.580794 
L 231.733391 -137.803681 
L 230.490254 -137.026567 
L 229.482285 -136.249454 
L 228.532265 -135.472341 
L 227.754095 -134.695228 
L 227.075471 -133.918115 
L 226.479077 -133.141002 
L 225.991364 -132.363888 
L 225.557891 -131.586775 
L 225.176109 -130.809662 
L 224.847807 -130.032549 
L 224.579005 -129.255436 
L 224.366626 -128.478322 
L 224.214259 -127.701209 
L 224.059063 -126.924096 
L 223.933771 -126.146983 
L 223.839089 -125.36987 
L 223.767047 -124.592757 
L 223.706024 -123.815643 
L 223.649892 -123.03853 
L 223.615514 -122.261417 
L 223.581625 -121.484304 
L 223.54435 -120.707191 
L 223.521578 -119.930077 
L 223.499456 -119.152964 
L 223.476102 -118.375851 
L 223.457294 -117.598738 
L 223.442966 -116.821625 
L 223.430065 -116.044512 
L 223.418947 -115.267398 
L 223.410269 -114.490285 
L 223.402263 -113.713172 
L 223.39553 -112.936059 
L 223.390666 -112.158946 
L 223.387034 -111.381832 
L 223.385713 -110.604719 
L 223.383348 -109.827606 
L 223.382475 -109.050493 
L 223.381686 -108.27338 
L 223.380902 -107.496267 
L 223.380538 -106.719153 
L 223.380134 -105.94204 
L 223.380222 -105.164927 
L 223.380136 -104.387814 
L 223.379729 -103.610701 
z
" style="stroke: #585858; stroke-width: 1.5"/>
    </defs>
    <g clip-path="url(#pefe40b280e)">
     <use xlink:href="#medab4e86fd" x="0" y="213.884397" style="fill: #9372b2; stroke: #585858; stroke-width: 1.5"/>
    </g>
   </g>
   <g id="PolyCollection_4">
    <defs>
     <path id="ma4403a2a32" d="M 293.152223 -135.12151 
L 293.107152 -135.12151 
L 292.53449 -135.578461 
L 290.271634 -136.035412 
L 287.642369 -136.492363 
L 285.09339 -136.949314 
L 282.686457 -137.406265 
L 280.725714 -137.863216 
L 279.085673 -138.320167 
L 277.666416 -138.777118 
L 276.449239 -139.234069 
L 275.379444 -139.69102 
L 274.592155 -140.147971 
L 274.302523 -140.604922 
L 274.034043 -141.061873 
L 273.973429 -141.518824 
L 274.267459 -141.975775 
L 274.998967 -142.432726 
L 275.878708 -142.889676 
L 276.536659 -143.346627 
L 276.882082 -143.803578 
L 277.198257 -144.260529 
L 277.770489 -144.71748 
L 278.46448 -145.174431 
L 279.270487 -145.631382 
L 280.058252 -146.088333 
L 280.97481 -146.545284 
L 281.920117 -147.002235 
L 282.779108 -147.459186 
L 283.709925 -147.916137 
L 284.610779 -148.373088 
L 285.42509 -148.830039 
L 286.204256 -149.28699 
L 286.978824 -149.743941 
L 287.593076 -150.200892 
L 288.196098 -150.657843 
L 288.779518 -151.114794 
L 289.288256 -151.571745 
L 289.749328 -152.028696 
L 290.179203 -152.485647 
L 290.559719 -152.942598 
L 290.879527 -153.399549 
L 291.146724 -153.8565 
L 291.43465 -154.313451 
L 291.714845 -154.770402 
L 291.916866 -155.227353 
L 292.084998 -155.684304 
L 292.217809 -156.141255 
L 292.333371 -156.598206 
L 292.444801 -157.055157 
L 292.536649 -157.512108 
L 292.615198 -157.969059 
L 292.673051 -158.42601 
L 292.736631 -158.882961 
L 292.802868 -159.339912 
L 292.848233 -159.796863 
L 292.894984 -160.253814 
L 292.932398 -160.710765 
L 292.955618 -161.167716 
L 292.986513 -161.624667 
L 293.008558 -162.081618 
L 293.025712 -162.538569 
L 293.036181 -162.99552 
L 293.05241 -163.452471 
L 293.066299 -163.909422 
L 293.079417 -164.366373 
L 293.085059 -164.823324 
L 293.091212 -165.280275 
L 293.098132 -165.737226 
L 293.104607 -166.194177 
L 293.107296 -166.651128 
L 293.109696 -167.108079 
L 293.110127 -167.56503 
L 293.11615 -168.021981 
L 293.117039 -168.478932 
L 293.119352 -168.935883 
L 293.120912 -169.392834 
L 293.121665 -169.849785 
L 293.122766 -170.306736 
L 293.123577 -170.763687 
L 293.124523 -171.220638 
L 293.125402 -171.677589 
L 293.125582 -172.13454 
L 293.12616 -172.591491 
L 293.127451 -173.048442 
L 293.127979 -173.505393 
L 293.128594 -173.962344 
L 293.128059 -174.419295 
L 293.127498 -174.876246 
L 293.128161 -175.333197 
L 293.129096 -175.790148 
L 293.129461 -176.247099 
L 293.129407 -176.70405 
L 293.129591 -177.161001 
L 293.129321 -177.617952 
L 293.129257 -178.074903 
L 293.129642 -178.531854 
L 293.129627 -178.988805 
L 293.129281 -179.445756 
L 293.129327 -179.902707 
L 293.129647 -180.359658 
L 293.129728 -180.359658 
L 293.129728 -180.359658 
L 293.130048 -179.902707 
L 293.130094 -179.445756 
L 293.129748 -178.988805 
L 293.129733 -178.531854 
L 293.130118 -178.074903 
L 293.130054 -177.617952 
L 293.129784 -177.161001 
L 293.129968 -176.70405 
L 293.129914 -176.247099 
L 293.130279 -175.790148 
L 293.131214 -175.333197 
L 293.131877 -174.876246 
L 293.131316 -174.419295 
L 293.130781 -173.962344 
L 293.131396 -173.505393 
L 293.131924 -173.048442 
L 293.133215 -172.591491 
L 293.133793 -172.13454 
L 293.133973 -171.677589 
L 293.134852 -171.220638 
L 293.135798 -170.763687 
L 293.136609 -170.306736 
L 293.13771 -169.849785 
L 293.138463 -169.392834 
L 293.140023 -168.935883 
L 293.142336 -168.478932 
L 293.143225 -168.021981 
L 293.149248 -167.56503 
L 293.149679 -167.108079 
L 293.152079 -166.651128 
L 293.154768 -166.194177 
L 293.161243 -165.737226 
L 293.168163 -165.280275 
L 293.174316 -164.823324 
L 293.179958 -164.366373 
L 293.193076 -163.909422 
L 293.206965 -163.452471 
L 293.223194 -162.99552 
L 293.233663 -162.538569 
L 293.250817 -162.081618 
L 293.272862 -161.624667 
L 293.303757 -161.167716 
L 293.326977 -160.710765 
L 293.364391 -160.253814 
L 293.411142 -159.796863 
L 293.456507 -159.339912 
L 293.522744 -158.882961 
L 293.586324 -158.42601 
L 293.644177 -157.969059 
L 293.722726 -157.512108 
L 293.814574 -157.055157 
L 293.926004 -156.598206 
L 294.041566 -156.141255 
L 294.174377 -155.684304 
L 294.342509 -155.227353 
L 294.54453 -154.770402 
L 294.824725 -154.313451 
L 295.112651 -153.8565 
L 295.379848 -153.399549 
L 295.699656 -152.942598 
L 296.080172 -152.485647 
L 296.510047 -152.028696 
L 296.971119 -151.571745 
L 297.479857 -151.114794 
L 298.063277 -150.657843 
L 298.666299 -150.200892 
L 299.280551 -149.743941 
L 300.055119 -149.28699 
L 300.834285 -148.830039 
L 301.648596 -148.373088 
L 302.54945 -147.916137 
L 303.480267 -147.459186 
L 304.339258 -147.002235 
L 305.284565 -146.545284 
L 306.201123 -146.088333 
L 306.988888 -145.631382 
L 307.794895 -145.174431 
L 308.488886 -144.71748 
L 309.061118 -144.260529 
L 309.377293 -143.803578 
L 309.722716 -143.346627 
L 310.380667 -142.889676 
L 311.260408 -142.432726 
L 311.991916 -141.975775 
L 312.285946 -141.518824 
L 312.225332 -141.061873 
L 311.956852 -140.604922 
L 311.66722 -140.147971 
L 310.879931 -139.69102 
L 309.810136 -139.234069 
L 308.592959 -138.777118 
L 307.173702 -138.320167 
L 305.533661 -137.863216 
L 303.572918 -137.406265 
L 301.165985 -136.949314 
L 298.617006 -136.492363 
L 295.987741 -136.035412 
L 293.724885 -135.578461 
L 293.152223 -135.12151 
z
" style="stroke: #585858; stroke-width: 1.5"/>
    </defs>
    <g clip-path="url(#pefe40b280e)">
     <use xlink:href="#ma4403a2a32" x="0" y="213.884397" style="fill: #9372b2; stroke: #585858; stroke-width: 1.5"/>
    </g>
   </g>
   <g id="PolyCollection_5">
    <defs>
     <path id="m1c8efb3559" d="M 362.879719 -91.334613 
L 362.879656 -91.334613 
L 362.879348 -92.405818 
L 362.879509 -93.477023 
L 362.879041 -94.548228 
L 362.879312 -95.619433 
L 362.878826 -96.690639 
L 362.87835 -97.761844 
L 362.87898 -98.833049 
L 362.878415 -99.904254 
L 362.877124 -100.975459 
L 362.877491 -102.046664 
L 362.876586 -103.117869 
L 362.875409 -104.189074 
L 362.874282 -105.260279 
L 362.872488 -106.331484 
L 362.871929 -107.402689 
L 362.870062 -108.473894 
L 362.866666 -109.545099 
L 362.86747 -110.616304 
L 362.85904 -111.687509 
L 362.855947 -112.758715 
L 362.845948 -113.82992 
L 362.834581 -114.901125 
L 362.814738 -115.97233 
L 362.795668 -117.043535 
L 362.757879 -118.11474 
L 362.727896 -119.185945 
L 362.686306 -120.25715 
L 362.628638 -121.328355 
L 362.544001 -122.39956 
L 362.435911 -123.470765 
L 362.304762 -124.54197 
L 362.118601 -125.613175 
L 361.923665 -126.68438 
L 361.622457 -127.755586 
L 361.274417 -128.826791 
L 360.846698 -129.897996 
L 360.336347 -130.969201 
L 359.709053 -132.040406 
L 358.996564 -133.111611 
L 358.192981 -134.182816 
L 357.266888 -135.254021 
L 356.137614 -136.325226 
L 354.908069 -137.396431 
L 353.71851 -138.467636 
L 352.621204 -139.538841 
L 351.475461 -140.610046 
L 350.474004 -141.681251 
L 349.698906 -142.752457 
L 349.62459 -143.823662 
L 350.087744 -144.894867 
L 351.083555 -145.966072 
L 352.438875 -147.037277 
L 353.846631 -148.108482 
L 355.222293 -149.179687 
L 356.572612 -150.250892 
L 357.767686 -151.322097 
L 358.760113 -152.393302 
L 359.617938 -153.464507 
L 360.322429 -154.535712 
L 360.907057 -155.606917 
L 361.375106 -156.678122 
L 361.757598 -157.749328 
L 362.038867 -158.820533 
L 362.236972 -159.891738 
L 362.400197 -160.962943 
L 362.519866 -162.034148 
L 362.619701 -163.105353 
L 362.69002 -164.176558 
L 362.738493 -165.247763 
L 362.772945 -166.318968 
L 362.806166 -167.390173 
L 362.828846 -168.461378 
L 362.842012 -169.532583 
L 362.849906 -170.603788 
L 362.857877 -171.674993 
L 362.864984 -172.746199 
L 362.868062 -173.817404 
L 362.870362 -174.888609 
L 362.873274 -175.959814 
L 362.874152 -177.031019 
L 362.874296 -178.102224 
L 362.874534 -179.173429 
L 362.875584 -180.244634 
L 362.875973 -181.315839 
L 362.876635 -182.387044 
L 362.8763 -183.458249 
L 362.877208 -184.529454 
L 362.878229 -185.600659 
L 362.878671 -186.671864 
L 362.879002 -187.743069 
L 362.879379 -188.814275 
L 362.87957 -189.88548 
L 362.879687 -190.956685 
L 362.879687 -192.02789 
L 362.879687 -193.099095 
L 362.879687 -194.1703 
L 362.879684 -195.241505 
L 362.879524 -196.31271 
L 362.879664 -197.383915 
L 362.879711 -197.383915 
L 362.879711 -197.383915 
L 362.879851 -196.31271 
L 362.879691 -195.241505 
L 362.879688 -194.1703 
L 362.879687 -193.099095 
L 362.879688 -192.02789 
L 362.879688 -190.956685 
L 362.879805 -189.88548 
L 362.879996 -188.814275 
L 362.880373 -187.743069 
L 362.880704 -186.671864 
L 362.881146 -185.600659 
L 362.882167 -184.529454 
L 362.883075 -183.458249 
L 362.88274 -182.387044 
L 362.883402 -181.315839 
L 362.883791 -180.244634 
L 362.884841 -179.173429 
L 362.885079 -178.102224 
L 362.885223 -177.031019 
L 362.886101 -175.959814 
L 362.889013 -174.888609 
L 362.891313 -173.817404 
L 362.894391 -172.746199 
L 362.901498 -171.674993 
L 362.909469 -170.603788 
L 362.917363 -169.532583 
L 362.930529 -168.461378 
L 362.953209 -167.390173 
L 362.98643 -166.318968 
L 363.020882 -165.247763 
L 363.069355 -164.176558 
L 363.139674 -163.105353 
L 363.239509 -162.034148 
L 363.359178 -160.962943 
L 363.522403 -159.891738 
L 363.720508 -158.820533 
L 364.001777 -157.749328 
L 364.384269 -156.678122 
L 364.852318 -155.606917 
L 365.436946 -154.535712 
L 366.141437 -153.464507 
L 366.999262 -152.393302 
L 367.991689 -151.322097 
L 369.186763 -150.250892 
L 370.537082 -149.179687 
L 371.912744 -148.108482 
L 373.3205 -147.037277 
L 374.67582 -145.966072 
L 375.671631 -144.894867 
L 376.134785 -143.823662 
L 376.060469 -142.752457 
L 375.285371 -141.681251 
L 374.283914 -140.610046 
L 373.138171 -139.538841 
L 372.040865 -138.467636 
L 370.851306 -137.396431 
L 369.621761 -136.325226 
L 368.492487 -135.254021 
L 367.566394 -134.182816 
L 366.762811 -133.111611 
L 366.050322 -132.040406 
L 365.423028 -130.969201 
L 364.912677 -129.897996 
L 364.484958 -128.826791 
L 364.136918 -127.755586 
L 363.83571 -126.68438 
L 363.640774 -125.613175 
L 363.454613 -124.54197 
L 363.323464 -123.470765 
L 363.215374 -122.39956 
L 363.130737 -121.328355 
L 363.073069 -120.25715 
L 363.031479 -119.185945 
L 363.001496 -118.11474 
L 362.963707 -117.043535 
L 362.944637 -115.97233 
L 362.924794 -114.901125 
L 362.913427 -113.82992 
L 362.903428 -112.758715 
L 362.900335 -111.687509 
L 362.891905 -110.616304 
L 362.892709 -109.545099 
L 362.889313 -108.473894 
L 362.887446 -107.402689 
L 362.886887 -106.331484 
L 362.885093 -105.260279 
L 362.883966 -104.189074 
L 362.882789 -103.117869 
L 362.881884 -102.046664 
L 362.882251 -100.975459 
L 362.88096 -99.904254 
L 362.880395 -98.833049 
L 362.881025 -97.761844 
L 362.880549 -96.690639 
L 362.880063 -95.619433 
L 362.880334 -94.548228 
L 362.879866 -93.477023 
L 362.880027 -92.405818 
L 362.879719 -91.334613 
z
" style="stroke: #585858; stroke-width: 1.5"/>
    </defs>
    <g clip-path="url(#pefe40b280e)">
     <use xlink:href="#m1c8efb3559" x="0" y="213.884397" style="fill: #9372b2; stroke: #585858; stroke-width: 1.5"/>
    </g>
   </g>
   <g id="PolyCollection_6">
    <defs>
     <path id="m2162254e37" d="M 432.663929 -134.973336 
L 432.595446 -134.973336 
L 431.424474 -135.60158 
L 426.793287 -136.229824 
L 421.91558 -136.858068 
L 418.755579 -137.486312 
L 417.027126 -138.114556 
L 415.924631 -138.7428 
L 415.454551 -139.371044 
L 415.647487 -139.999288 
L 416.11996 -140.627532 
L 416.691797 -141.255776 
L 417.370311 -141.884021 
L 418.087071 -142.512265 
L 418.909504 -143.140509 
L 419.317107 -143.768753 
L 419.58089 -144.396997 
L 419.887782 -145.025241 
L 420.450578 -145.653485 
L 421.219547 -146.281729 
L 422.029885 -146.909973 
L 422.826857 -147.538217 
L 423.678055 -148.166461 
L 424.505439 -148.794705 
L 425.263296 -149.42295 
L 426.072872 -150.051194 
L 426.8383 -150.679438 
L 427.513767 -151.307682 
L 428.110567 -151.935926 
L 428.660054 -152.56417 
L 429.151459 -153.192414 
L 429.643312 -153.820658 
L 430.024992 -154.448902 
L 430.38149 -155.077146 
L 430.712071 -155.70539 
L 430.975301 -156.333634 
L 431.243899 -156.961879 
L 431.460171 -157.590123 
L 431.650245 -158.218367 
L 431.796027 -158.846611 
L 431.918994 -159.474855 
L 432.021649 -160.103099 
L 432.12084 -160.731343 
L 432.198684 -161.359587 
L 432.265798 -161.987831 
L 432.327113 -162.616075 
L 432.382961 -163.244319 
L 432.422713 -163.872563 
L 432.456898 -164.500808 
L 432.48429 -165.129052 
L 432.507791 -165.757296 
L 432.523207 -166.38554 
L 432.549528 -167.013784 
L 432.559329 -167.642028 
L 432.574996 -168.270272 
L 432.58632 -168.898516 
L 432.592438 -169.52676 
L 432.595989 -170.155004 
L 432.601656 -170.783248 
L 432.605653 -171.411492 
L 432.61067 -172.039737 
L 432.614638 -172.667981 
L 432.617573 -173.296225 
L 432.618284 -173.924469 
L 432.617565 -174.552713 
L 432.622864 -175.180957 
L 432.623214 -175.809201 
L 432.623583 -176.437445 
L 432.624306 -177.065689 
L 432.623966 -177.693933 
L 432.624454 -178.322177 
L 432.624413 -178.950422 
L 432.624864 -179.578666 
L 432.625689 -180.20691 
L 432.625572 -180.835154 
L 432.626079 -181.463398 
L 432.626359 -182.091642 
L 432.626864 -182.719886 
L 432.62645 -183.34813 
L 432.625906 -183.976374 
L 432.627464 -184.604618 
L 432.628232 -185.232862 
L 432.628262 -185.861106 
L 432.628516 -186.489351 
L 432.628957 -187.117595 
L 432.628943 -187.745839 
L 432.629393 -188.374083 
L 432.629307 -189.002327 
L 432.629465 -189.630571 
L 432.629682 -190.258815 
L 432.629687 -190.887059 
L 432.629687 -191.515303 
L 432.629687 -192.143547 
L 432.629687 -192.771791 
L 432.629687 -193.400035 
L 432.629687 -194.02828 
L 432.629687 -194.656524 
L 432.629687 -195.284768 
L 432.62963 -195.913012 
L 432.629459 -196.541256 
L 432.629656 -197.1695 
L 432.629719 -197.1695 
L 432.629719 -197.1695 
L 432.629916 -196.541256 
L 432.629745 -195.913012 
L 432.629688 -195.284768 
L 432.629688 -194.656524 
L 432.629687 -194.02828 
L 432.629687 -193.400035 
L 432.629687 -192.771791 
L 432.629687 -192.143547 
L 432.629688 -191.515303 
L 432.629688 -190.887059 
L 432.629693 -190.258815 
L 432.62991 -189.630571 
L 432.630068 -189.002327 
L 432.629982 -188.374083 
L 432.630432 -187.745839 
L 432.630418 -187.117595 
L 432.630859 -186.489351 
L 432.631113 -185.861106 
L 432.631143 -185.232862 
L 432.631911 -184.604618 
L 432.633469 -183.976374 
L 432.632925 -183.34813 
L 432.632511 -182.719886 
L 432.633016 -182.091642 
L 432.633296 -181.463398 
L 432.633803 -180.835154 
L 432.633686 -180.20691 
L 432.634511 -179.578666 
L 432.634962 -178.950422 
L 432.634921 -178.322177 
L 432.635409 -177.693933 
L 432.635069 -177.065689 
L 432.635792 -176.437445 
L 432.636161 -175.809201 
L 432.636511 -175.180957 
L 432.64181 -174.552713 
L 432.641091 -173.924469 
L 432.641802 -173.296225 
L 432.644737 -172.667981 
L 432.648705 -172.039737 
L 432.653722 -171.411492 
L 432.657719 -170.783248 
L 432.663386 -170.155004 
L 432.666937 -169.52676 
L 432.673055 -168.898516 
L 432.684379 -168.270272 
L 432.700046 -167.642028 
L 432.709847 -167.013784 
L 432.736168 -166.38554 
L 432.751584 -165.757296 
L 432.775085 -165.129052 
L 432.802477 -164.500808 
L 432.836662 -163.872563 
L 432.876414 -163.244319 
L 432.932262 -162.616075 
L 432.993577 -161.987831 
L 433.060691 -161.359587 
L 433.138535 -160.731343 
L 433.237726 -160.103099 
L 433.340381 -159.474855 
L 433.463348 -158.846611 
L 433.60913 -158.218367 
L 433.799204 -157.590123 
L 434.015476 -156.961879 
L 434.284074 -156.333634 
L 434.547304 -155.70539 
L 434.877885 -155.077146 
L 435.234383 -154.448902 
L 435.616063 -153.820658 
L 436.107916 -153.192414 
L 436.599321 -152.56417 
L 437.148808 -151.935926 
L 437.745608 -151.307682 
L 438.421075 -150.679438 
L 439.186503 -150.051194 
L 439.996079 -149.42295 
L 440.753936 -148.794705 
L 441.58132 -148.166461 
L 442.432518 -147.538217 
L 443.22949 -146.909973 
L 444.039828 -146.281729 
L 444.808797 -145.653485 
L 445.371593 -145.025241 
L 445.678485 -144.396997 
L 445.942268 -143.768753 
L 446.349871 -143.140509 
L 447.172304 -142.512265 
L 447.889064 -141.884021 
L 448.567578 -141.255776 
L 449.139415 -140.627532 
L 449.611888 -139.999288 
L 449.804824 -139.371044 
L 449.334744 -138.7428 
L 448.232249 -138.114556 
L 446.503796 -137.486312 
L 443.343795 -136.858068 
L 438.466088 -136.229824 
L 433.834901 -135.60158 
L 432.663929 -134.973336 
z
" style="stroke: #585858; stroke-width: 1.5"/>
    </defs>
    <g clip-path="url(#pefe40b280e)">
     <use xlink:href="#m2162254e37" x="0" y="213.884397" style="fill: #9372b2; stroke: #585858; stroke-width: 1.5"/>
    </g>
   </g>
   <g id="PolyCollection_7">
    <defs>
     <path id="ma4a5dcc5b7" d="M 502.379713 -51.017124 
L 502.379662 -51.017124 
L 502.379505 -52.514645 
L 502.379631 -54.012165 
L 502.379687 -55.509686 
L 502.379687 -57.007207 
L 502.379687 -58.504727 
L 502.379667 -60.002248 
L 502.37951 -61.499769 
L 502.379601 -62.997289 
L 502.379399 -64.49481 
L 502.379474 -65.992331 
L 502.379679 -67.489851 
L 502.379678 -68.987372 
L 502.379498 -70.484893 
L 502.379323 -71.982413 
L 502.379452 -73.479934 
L 502.379267 -74.977455 
L 502.378828 -76.474975 
L 502.378092 -77.972496 
L 502.377706 -79.470017 
L 502.378287 -80.967537 
L 502.377985 -82.465058 
L 502.377041 -83.962578 
L 502.375229 -85.460099 
L 502.374146 -86.95762 
L 502.37261 -88.45514 
L 502.372527 -89.952661 
L 502.37267 -91.450182 
L 502.369025 -92.947702 
L 502.364786 -94.445223 
L 502.360164 -95.942744 
L 502.359815 -97.440264 
L 502.353351 -98.937785 
L 502.343969 -100.435306 
L 502.326681 -101.932826 
L 502.305988 -103.430347 
L 502.278565 -104.927868 
L 502.243993 -106.425388 
L 502.202919 -107.922909 
L 502.130065 -109.42043 
L 502.048036 -110.91795 
L 501.958578 -112.415471 
L 501.834469 -113.912992 
L 501.695846 -115.410512 
L 501.545635 -116.908033 
L 501.365039 -118.405554 
L 501.139856 -119.903074 
L 500.903713 -121.400595 
L 500.635696 -122.898116 
L 500.314613 -124.395636 
L 499.950921 -125.893157 
L 499.538628 -127.390678 
L 499.139274 -128.888198 
L 498.653753 -130.385719 
L 498.12864 -131.88324 
L 497.574777 -133.38076 
L 497.014987 -134.878281 
L 496.469749 -136.375802 
L 495.953058 -137.873322 
L 495.39954 -139.370843 
L 495.029249 -140.868364 
L 494.799947 -142.365884 
L 494.782623 -143.863405 
L 494.979161 -145.360926 
L 495.223248 -146.858446 
L 495.669061 -148.355967 
L 496.175805 -149.853488 
L 496.85149 -151.351008 
L 497.495952 -152.848529 
L 498.149222 -154.34605 
L 498.781706 -155.84357 
L 499.367951 -157.341091 
L 499.939593 -158.838612 
L 500.451949 -160.336132 
L 500.89939 -161.833653 
L 501.24484 -163.331174 
L 501.495016 -164.828694 
L 501.700619 -166.326215 
L 501.874853 -167.823736 
L 502.017896 -169.321256 
L 502.101706 -170.818777 
L 502.175491 -172.316298 
L 502.231207 -173.813818 
L 502.266213 -175.311339 
L 502.291872 -176.808859 
L 502.316621 -178.30638 
L 502.338228 -179.803901 
L 502.352065 -181.301421 
L 502.360079 -182.798942 
L 502.36442 -184.296463 
L 502.367793 -185.793983 
L 502.371962 -187.291504 
L 502.374451 -188.789025 
L 502.376258 -190.286545 
L 502.377428 -191.784066 
L 502.37824 -193.281587 
L 502.378952 -194.779107 
L 502.379395 -196.276628 
L 502.379411 -197.774149 
L 502.37966 -199.271669 
L 502.379715 -199.271669 
L 502.379715 -199.271669 
L 502.379964 -197.774149 
L 502.37998 -196.276628 
L 502.380423 -194.779107 
L 502.381135 -193.281587 
L 502.381947 -191.784066 
L 502.383117 -190.286545 
L 502.384924 -188.789025 
L 502.387413 -187.291504 
L 502.391582 -185.793983 
L 502.394955 -184.296463 
L 502.399296 -182.798942 
L 502.40731 -181.301421 
L 502.421147 -179.803901 
L 502.442754 -178.30638 
L 502.467503 -176.808859 
L 502.493162 -175.311339 
L 502.528168 -173.813818 
L 502.583884 -172.316298 
L 502.657669 -170.818777 
L 502.741479 -169.321256 
L 502.884522 -167.823736 
L 503.058756 -166.326215 
L 503.264359 -164.828694 
L 503.514535 -163.331174 
L 503.859985 -161.833653 
L 504.307426 -160.336132 
L 504.819782 -158.838612 
L 505.391424 -157.341091 
L 505.977669 -155.84357 
L 506.610153 -154.34605 
L 507.263423 -152.848529 
L 507.907885 -151.351008 
L 508.58357 -149.853488 
L 509.090314 -148.355967 
L 509.536127 -146.858446 
L 509.780214 -145.360926 
L 509.976752 -143.863405 
L 509.959428 -142.365884 
L 509.730126 -140.868364 
L 509.359835 -139.370843 
L 508.806317 -137.873322 
L 508.289626 -136.375802 
L 507.744388 -134.878281 
L 507.184598 -133.38076 
L 506.630735 -131.88324 
L 506.105622 -130.385719 
L 505.620101 -128.888198 
L 505.220747 -127.390678 
L 504.808454 -125.893157 
L 504.444762 -124.395636 
L 504.123679 -122.898116 
L 503.855662 -121.400595 
L 503.619519 -119.903074 
L 503.394336 -118.405554 
L 503.21374 -116.908033 
L 503.063529 -115.410512 
L 502.924906 -113.912992 
L 502.800797 -112.415471 
L 502.711339 -110.91795 
L 502.62931 -109.42043 
L 502.556456 -107.922909 
L 502.515382 -106.425388 
L 502.48081 -104.927868 
L 502.453387 -103.430347 
L 502.432694 -101.932826 
L 502.415406 -100.435306 
L 502.406024 -98.937785 
L 502.39956 -97.440264 
L 502.399211 -95.942744 
L 502.394589 -94.445223 
L 502.39035 -92.947702 
L 502.386705 -91.450182 
L 502.386848 -89.952661 
L 502.386765 -88.45514 
L 502.385229 -86.95762 
L 502.384146 -85.460099 
L 502.382334 -83.962578 
L 502.38139 -82.465058 
L 502.381088 -80.967537 
L 502.381669 -79.470017 
L 502.381283 -77.972496 
L 502.380547 -76.474975 
L 502.380108 -74.977455 
L 502.379923 -73.479934 
L 502.380052 -71.982413 
L 502.379877 -70.484893 
L 502.379697 -68.987372 
L 502.379696 -67.489851 
L 502.379901 -65.992331 
L 502.379976 -64.49481 
L 502.379774 -62.997289 
L 502.379865 -61.499769 
L 502.379708 -60.002248 
L 502.379688 -58.504727 
L 502.379688 -57.007207 
L 502.379688 -55.509686 
L 502.379744 -54.012165 
L 502.37987 -52.514645 
L 502.379713 -51.017124 
z
" style="stroke: #585858; stroke-width: 1.5"/>
    </defs>
    <g clip-path="url(#pefe40b280e)">
     <use xlink:href="#ma4a5dcc5b7" x="0" y="213.884397" style="fill: #9372b2; stroke: #585858; stroke-width: 1.5"/>
    </g>
   </g>
   <g id="PolyCollection_8">
    <defs>
     <path id="m310a8428bf" d="M 572.615405 -134.492881 
L 571.64397 -134.492881 
L 567.824689 -135.141822 
L 558.200277 -135.790763 
L 551.487154 -136.439703 
L 551.991511 -137.088644 
L 554.37481 -137.737585 
L 556.436308 -138.386525 
L 558.130675 -139.035466 
L 559.48542 -139.684407 
L 560.590172 -140.333347 
L 561.621325 -140.982288 
L 562.560561 -141.631229 
L 563.3569 -142.280169 
L 563.966076 -142.92911 
L 564.359816 -143.578051 
L 564.552968 -144.226991 
L 564.656743 -144.875932 
L 564.761843 -145.524873 
L 564.829141 -146.173813 
L 564.930543 -146.822754 
L 565.123468 -147.471695 
L 565.349148 -148.120635 
L 565.554407 -148.769576 
L 565.742978 -149.418517 
L 565.983548 -150.067457 
L 566.304942 -150.716398 
L 566.623269 -151.365339 
L 566.898645 -152.014279 
L 567.159168 -152.66322 
L 567.444949 -153.312161 
L 567.732193 -153.961101 
L 568.015026 -154.610042 
L 568.298859 -155.258983 
L 568.561901 -155.907923 
L 568.81607 -156.556864 
L 569.066536 -157.205804 
L 569.314189 -157.854745 
L 569.570152 -158.503686 
L 569.814212 -159.152626 
L 570.025659 -159.801567 
L 570.241817 -160.450508 
L 570.455024 -161.099448 
L 570.633493 -161.748389 
L 570.799619 -162.39733 
L 570.951231 -163.04627 
L 571.068748 -163.695211 
L 571.170481 -164.344152 
L 571.273239 -164.993092 
L 571.368106 -165.642033 
L 571.450382 -166.290974 
L 571.522143 -166.939914 
L 571.597919 -167.588855 
L 571.676064 -168.237796 
L 571.738639 -168.886736 
L 571.789831 -169.535677 
L 571.823608 -170.184618 
L 571.84976 -170.833558 
L 571.885155 -171.482499 
L 571.920304 -172.13144 
L 571.946115 -172.78038 
L 571.970847 -173.429321 
L 571.99173 -174.078262 
L 572.003739 -174.727202 
L 572.017877 -175.376143 
L 572.031482 -176.025084 
L 572.040285 -176.674024 
L 572.04827 -177.322965 
L 572.059422 -177.971906 
L 572.073821 -178.620846 
L 572.083843 -179.269787 
L 572.089367 -179.918728 
L 572.095653 -180.567668 
L 572.102314 -181.216609 
L 572.106496 -181.86555 
L 572.108982 -182.51449 
L 572.111784 -183.163431 
L 572.113455 -183.812372 
L 572.114657 -184.461312 
L 572.116451 -185.110253 
L 572.117588 -185.759194 
L 572.119031 -186.408134 
L 572.121552 -187.057075 
L 572.123259 -187.706016 
L 572.12441 -188.354956 
L 572.124498 -189.003897 
L 572.124958 -189.652838 
L 572.12657 -190.301778 
L 572.127253 -190.950719 
L 572.127283 -191.59966 
L 572.127588 -192.2486 
L 572.128069 -192.897541 
L 572.128425 -193.546482 
L 572.128618 -194.195422 
L 572.128954 -194.844363 
L 572.129429 -195.493304 
L 572.129496 -196.142244 
L 572.129305 -196.791185 
L 572.129281 -197.440126 
L 572.129481 -198.089066 
L 572.12965 -198.738007 
L 572.129725 -198.738007 
L 572.129725 -198.738007 
L 572.129894 -198.089066 
L 572.130094 -197.440126 
L 572.13007 -196.791185 
L 572.129879 -196.142244 
L 572.129946 -195.493304 
L 572.130421 -194.844363 
L 572.130757 -194.195422 
L 572.13095 -193.546482 
L 572.131306 -192.897541 
L 572.131787 -192.2486 
L 572.132092 -191.59966 
L 572.132122 -190.950719 
L 572.132805 -190.301778 
L 572.134417 -189.652838 
L 572.134877 -189.003897 
L 572.134965 -188.354956 
L 572.136116 -187.706016 
L 572.137823 -187.057075 
L 572.140344 -186.408134 
L 572.141787 -185.759194 
L 572.142924 -185.110253 
L 572.144718 -184.461312 
L 572.14592 -183.812372 
L 572.147591 -183.163431 
L 572.150393 -182.51449 
L 572.152879 -181.86555 
L 572.157061 -181.216609 
L 572.163722 -180.567668 
L 572.170008 -179.918728 
L 572.175532 -179.269787 
L 572.185554 -178.620846 
L 572.199953 -177.971906 
L 572.211105 -177.322965 
L 572.21909 -176.674024 
L 572.227893 -176.025084 
L 572.241498 -175.376143 
L 572.255636 -174.727202 
L 572.267645 -174.078262 
L 572.288528 -173.429321 
L 572.31326 -172.78038 
L 572.339071 -172.13144 
L 572.37422 -171.482499 
L 572.409615 -170.833558 
L 572.435767 -170.184618 
L 572.469544 -169.535677 
L 572.520736 -168.886736 
L 572.583311 -168.237796 
L 572.661456 -167.588855 
L 572.737232 -166.939914 
L 572.808993 -166.290974 
L 572.891269 -165.642033 
L 572.986136 -164.993092 
L 573.088894 -164.344152 
L 573.190627 -163.695211 
L 573.308144 -163.04627 
L 573.459756 -162.39733 
L 573.625882 -161.748389 
L 573.804351 -161.099448 
L 574.017558 -160.450508 
L 574.233716 -159.801567 
L 574.445163 -159.152626 
L 574.689223 -158.503686 
L 574.945186 -157.854745 
L 575.192839 -157.205804 
L 575.443305 -156.556864 
L 575.697474 -155.907923 
L 575.960516 -155.258983 
L 576.244349 -154.610042 
L 576.527182 -153.961101 
L 576.814426 -153.312161 
L 577.100207 -152.66322 
L 577.36073 -152.014279 
L 577.636106 -151.365339 
L 577.954433 -150.716398 
L 578.275827 -150.067457 
L 578.516397 -149.418517 
L 578.704968 -148.769576 
L 578.910227 -148.120635 
L 579.135907 -147.471695 
L 579.328832 -146.822754 
L 579.430234 -146.173813 
L 579.497532 -145.524873 
L 579.602632 -144.875932 
L 579.706407 -144.226991 
L 579.899559 -143.578051 
L 580.293299 -142.92911 
L 580.902475 -142.280169 
L 581.698814 -141.631229 
L 582.63805 -140.982288 
L 583.669203 -140.333347 
L 584.773955 -139.684407 
L 586.1287 -139.035466 
L 587.823067 -138.386525 
L 589.884565 -137.737585 
L 592.267864 -137.088644 
L 592.772221 -136.439703 
L 586.059098 -135.790763 
L 576.434686 -135.141822 
L 572.615405 -134.492881 
z
" style="stroke: #585858; stroke-width: 1.5"/>
    </defs>
    <g clip-path="url(#pefe40b280e)">
     <use xlink:href="#m310a8428bf" x="0" y="213.884397" style="fill: #9372b2; stroke: #585858; stroke-width: 1.5"/>
    </g>
   </g>
   <g id="matplotlib.axis_1">
    <g id="xtick_1">
     <g id="line2d_1">
      <defs>
       <path id="m0b569d5e8d" d="M 0 0 
L 0 3.5 
" style="stroke: #000000; stroke-width: 0.8"/>
      </defs>
      <g>
       <use xlink:href="#m0b569d5e8d" x="83.879687" y="170.28" style="stroke: #000000; stroke-width: 0.8"/>
      </g>
     </g>
     <g id="text_1">
      <!-- dense_1 -->
      <g transform="translate(67.192077 204.642471)rotate(-30)scale(0.1 -0.1)">
       <defs>
        <path id="DejaVuSans-64" d="M 2906 2969 
L 2906 4863 
L 3481 4863 
L 3481 0 
L 2906 0 
L 2906 525 
Q 2725 213 2448 61 
Q 2172 -91 1784 -91 
Q 1150 -91 751 415 
Q 353 922 353 1747 
Q 353 2572 751 3078 
Q 1150 3584 1784 3584 
Q 2172 3584 2448 3432 
Q 2725 3281 2906 2969 
z
M 947 1747 
Q 947 1113 1208 752 
Q 1469 391 1925 391 
Q 2381 391 2643 752 
Q 2906 1113 2906 1747 
Q 2906 2381 2643 2742 
Q 2381 3103 1925 3103 
Q 1469 3103 1208 2742 
Q 947 2381 947 1747 
z
" transform="scale(0.015625)"/>
        <path id="DejaVuSans-65" d="M 3597 1894 
L 3597 1613 
L 953 1613 
Q 991 1019 1311 708 
Q 1631 397 2203 397 
Q 2534 397 2845 478 
Q 3156 559 3463 722 
L 3463 178 
Q 3153 47 2828 -22 
Q 2503 -91 2169 -91 
Q 1331 -91 842 396 
Q 353 884 353 1716 
Q 353 2575 817 3079 
Q 1281 3584 2069 3584 
Q 2775 3584 3186 3129 
Q 3597 2675 3597 1894 
z
M 3022 2063 
Q 3016 2534 2758 2815 
Q 2500 3097 2075 3097 
Q 1594 3097 1305 2825 
Q 1016 2553 972 2059 
L 3022 2063 
z
" transform="scale(0.015625)"/>
        <path id="DejaVuSans-6e" d="M 3513 2113 
L 3513 0 
L 2938 0 
L 2938 2094 
Q 2938 2591 2744 2837 
Q 2550 3084 2163 3084 
Q 1697 3084 1428 2787 
Q 1159 2491 1159 1978 
L 1159 0 
L 581 0 
L 581 3500 
L 1159 3500 
L 1159 2956 
Q 1366 3272 1645 3428 
Q 1925 3584 2291 3584 
Q 2894 3584 3203 3211 
Q 3513 2838 3513 2113 
z
" transform="scale(0.015625)"/>
        <path id="DejaVuSans-73" d="M 2834 3397 
L 2834 2853 
Q 2591 2978 2328 3040 
Q 2066 3103 1784 3103 
Q 1356 3103 1142 2972 
Q 928 2841 928 2578 
Q 928 2378 1081 2264 
Q 1234 2150 1697 2047 
L 1894 2003 
Q 2506 1872 2764 1633 
Q 3022 1394 3022 966 
Q 3022 478 2636 193 
Q 2250 -91 1575 -91 
Q 1294 -91 989 -36 
Q 684 19 347 128 
L 347 722 
Q 666 556 975 473 
Q 1284 391 1588 391 
Q 1994 391 2212 530 
Q 2431 669 2431 922 
Q 2431 1156 2273 1281 
Q 2116 1406 1581 1522 
L 1381 1569 
Q 847 1681 609 1914 
Q 372 2147 372 2553 
Q 372 3047 722 3315 
Q 1072 3584 1716 3584 
Q 2034 3584 2315 3537 
Q 2597 3491 2834 3397 
z
" transform="scale(0.015625)"/>
        <path id="DejaVuSans-5f" d="M 3263 -1063 
L 3263 -1509 
L -63 -1509 
L -63 -1063 
L 3263 -1063 
z
" transform="scale(0.015625)"/>
        <path id="DejaVuSans-31" d="M 794 531 
L 1825 531 
L 1825 4091 
L 703 3866 
L 703 4441 
L 1819 4666 
L 2450 4666 
L 2450 531 
L 3481 531 
L 3481 0 
L 794 0 
L 794 531 
z
" transform="scale(0.015625)"/>
       </defs>
       <use xlink:href="#DejaVuSans-64"/>
       <use xlink:href="#DejaVuSans-65" x="63.476562"/>
       <use xlink:href="#DejaVuSans-6e" x="125"/>
       <use xlink:href="#DejaVuSans-73" x="188.378906"/>
       <use xlink:href="#DejaVuSans-65" x="240.478516"/>
       <use xlink:href="#DejaVuSans-5f" x="302.001953"/>
       <use xlink:href="#DejaVuSans-31" x="352.001953"/>
      </g>
     </g>
    </g>
    <g id="xtick_2">
     <g id="line2d_2">
      <g>
       <use xlink:href="#m0b569d5e8d" x="153.629687" y="170.28" style="stroke: #000000; stroke-width: 0.8"/>
      </g>
     </g>
     <g id="text_2">
      <!-- elu_2 -->
      <g transform="translate(143.408174 197.176065)rotate(-30)scale(0.1 -0.1)">
       <defs>
        <path id="DejaVuSans-6c" d="M 603 4863 
L 1178 4863 
L 1178 0 
L 603 0 
L 603 4863 
z
" transform="scale(0.015625)"/>
        <path id="DejaVuSans-75" d="M 544 1381 
L 544 3500 
L 1119 3500 
L 1119 1403 
Q 1119 906 1312 657 
Q 1506 409 1894 409 
Q 2359 409 2629 706 
Q 2900 1003 2900 1516 
L 2900 3500 
L 3475 3500 
L 3475 0 
L 2900 0 
L 2900 538 
Q 2691 219 2414 64 
Q 2138 -91 1772 -91 
Q 1169 -91 856 284 
Q 544 659 544 1381 
z
M 1991 3584 
L 1991 3584 
z
" transform="scale(0.015625)"/>
        <path id="DejaVuSans-32" d="M 1228 531 
L 3431 531 
L 3431 0 
L 469 0 
L 469 531 
Q 828 903 1448 1529 
Q 2069 2156 2228 2338 
Q 2531 2678 2651 2914 
Q 2772 3150 2772 3378 
Q 2772 3750 2511 3984 
Q 2250 4219 1831 4219 
Q 1534 4219 1204 4116 
Q 875 4013 500 3803 
L 500 4441 
Q 881 4594 1212 4672 
Q 1544 4750 1819 4750 
Q 2544 4750 2975 4387 
Q 3406 4025 3406 3419 
Q 3406 3131 3298 2873 
Q 3191 2616 2906 2266 
Q 2828 2175 2409 1742 
Q 1991 1309 1228 531 
z
" transform="scale(0.015625)"/>
       </defs>
       <use xlink:href="#DejaVuSans-65"/>
       <use xlink:href="#DejaVuSans-6c" x="61.523438"/>
       <use xlink:href="#DejaVuSans-75" x="89.306641"/>
       <use xlink:href="#DejaVuSans-5f" x="152.685547"/>
       <use xlink:href="#DejaVuSans-32" x="202.685547"/>
      </g>
     </g>
    </g>
    <g id="xtick_3">
     <g id="line2d_3">
      <g>
       <use xlink:href="#m0b569d5e8d" x="223.379687" y="170.28" style="stroke: #000000; stroke-width: 0.8"/>
      </g>
     </g>
     <g id="text_3">
      <!-- dense_3 -->
      <g transform="translate(206.692077 204.642471)rotate(-30)scale(0.1 -0.1)">
       <defs>
        <path id="DejaVuSans-33" d="M 2597 2516 
Q 3050 2419 3304 2112 
Q 3559 1806 3559 1356 
Q 3559 666 3084 287 
Q 2609 -91 1734 -91 
Q 1441 -91 1130 -33 
Q 819 25 488 141 
L 488 750 
Q 750 597 1062 519 
Q 1375 441 1716 441 
Q 2309 441 2620 675 
Q 2931 909 2931 1356 
Q 2931 1769 2642 2001 
Q 2353 2234 1838 2234 
L 1294 2234 
L 1294 2753 
L 1863 2753 
Q 2328 2753 2575 2939 
Q 2822 3125 2822 3475 
Q 2822 3834 2567 4026 
Q 2313 4219 1838 4219 
Q 1578 4219 1281 4162 
Q 984 4106 628 3988 
L 628 4550 
Q 988 4650 1302 4700 
Q 1616 4750 1894 4750 
Q 2613 4750 3031 4423 
Q 3450 4097 3450 3541 
Q 3450 3153 3228 2886 
Q 3006 2619 2597 2516 
z
" transform="scale(0.015625)"/>
       </defs>
       <use xlink:href="#DejaVuSans-64"/>
       <use xlink:href="#DejaVuSans-65" x="63.476562"/>
       <use xlink:href="#DejaVuSans-6e" x="125"/>
       <use xlink:href="#DejaVuSans-73" x="188.378906"/>
       <use xlink:href="#DejaVuSans-65" x="240.478516"/>
       <use xlink:href="#DejaVuSans-5f" x="302.001953"/>
       <use xlink:href="#DejaVuSans-33" x="352.001953"/>
      </g>
     </g>
    </g>
    <g id="xtick_4">
     <g id="line2d_4">
      <g>
       <use xlink:href="#m0b569d5e8d" x="293.129687" y="170.28" style="stroke: #000000; stroke-width: 0.8"/>
      </g>
     </g>
     <g id="text_4">
      <!-- elu_4 -->
      <g transform="translate(282.908174 197.176065)rotate(-30)scale(0.1 -0.1)">
       <defs>
        <path id="DejaVuSans-34" d="M 2419 4116 
L 825 1625 
L 2419 1625 
L 2419 4116 
z
M 2253 4666 
L 3047 4666 
L 3047 1625 
L 3713 1625 
L 3713 1100 
L 3047 1100 
L 3047 0 
L 2419 0 
L 2419 1100 
L 313 1100 
L 313 1709 
L 2253 4666 
z
" transform="scale(0.015625)"/>
       </defs>
       <use xlink:href="#DejaVuSans-65"/>
       <use xlink:href="#DejaVuSans-6c" x="61.523438"/>
       <use xlink:href="#DejaVuSans-75" x="89.306641"/>
       <use xlink:href="#DejaVuSans-5f" x="152.685547"/>
       <use xlink:href="#DejaVuSans-34" x="202.685547"/>
      </g>
     </g>
    </g>
    <g id="xtick_5">
     <g id="line2d_5">
      <g>
       <use xlink:href="#m0b569d5e8d" x="362.879687" y="170.28" style="stroke: #000000; stroke-width: 0.8"/>
      </g>
     </g>
     <g id="text_5">
      <!-- dense_5 -->
      <g transform="translate(346.192077 204.642471)rotate(-30)scale(0.1 -0.1)">
       <defs>
        <path id="DejaVuSans-35" d="M 691 4666 
L 3169 4666 
L 3169 4134 
L 1269 4134 
L 1269 2991 
Q 1406 3038 1543 3061 
Q 1681 3084 1819 3084 
Q 2600 3084 3056 2656 
Q 3513 2228 3513 1497 
Q 3513 744 3044 326 
Q 2575 -91 1722 -91 
Q 1428 -91 1123 -41 
Q 819 9 494 109 
L 494 744 
Q 775 591 1075 516 
Q 1375 441 1709 441 
Q 2250 441 2565 725 
Q 2881 1009 2881 1497 
Q 2881 1984 2565 2268 
Q 2250 2553 1709 2553 
Q 1456 2553 1204 2497 
Q 953 2441 691 2322 
L 691 4666 
z
" transform="scale(0.015625)"/>
       </defs>
       <use xlink:href="#DejaVuSans-64"/>
       <use xlink:href="#DejaVuSans-65" x="63.476562"/>
       <use xlink:href="#DejaVuSans-6e" x="125"/>
       <use xlink:href="#DejaVuSans-73" x="188.378906"/>
       <use xlink:href="#DejaVuSans-65" x="240.478516"/>
       <use xlink:href="#DejaVuSans-5f" x="302.001953"/>
       <use xlink:href="#DejaVuSans-35" x="352.001953"/>
      </g>
     </g>
    </g>
    <g id="xtick_6">
     <g id="line2d_6">
      <g>
       <use xlink:href="#m0b569d5e8d" x="432.629687" y="170.28" style="stroke: #000000; stroke-width: 0.8"/>
      </g>
     </g>
     <g id="text_6">
      <!-- elu_6 -->
      <g transform="translate(422.408174 197.176065)rotate(-30)scale(0.1 -0.1)">
       <defs>
        <path id="DejaVuSans-36" d="M 2113 2584 
Q 1688 2584 1439 2293 
Q 1191 2003 1191 1497 
Q 1191 994 1439 701 
Q 1688 409 2113 409 
Q 2538 409 2786 701 
Q 3034 994 3034 1497 
Q 3034 2003 2786 2293 
Q 2538 2584 2113 2584 
z
M 3366 4563 
L 3366 3988 
Q 3128 4100 2886 4159 
Q 2644 4219 2406 4219 
Q 1781 4219 1451 3797 
Q 1122 3375 1075 2522 
Q 1259 2794 1537 2939 
Q 1816 3084 2150 3084 
Q 2853 3084 3261 2657 
Q 3669 2231 3669 1497 
Q 3669 778 3244 343 
Q 2819 -91 2113 -91 
Q 1303 -91 875 529 
Q 447 1150 447 2328 
Q 447 3434 972 4092 
Q 1497 4750 2381 4750 
Q 2619 4750 2861 4703 
Q 3103 4656 3366 4563 
z
" transform="scale(0.015625)"/>
       </defs>
       <use xlink:href="#DejaVuSans-65"/>
       <use xlink:href="#DejaVuSans-6c" x="61.523438"/>
       <use xlink:href="#DejaVuSans-75" x="89.306641"/>
       <use xlink:href="#DejaVuSans-5f" x="152.685547"/>
       <use xlink:href="#DejaVuSans-36" x="202.685547"/>
      </g>
     </g>
    </g>
    <g id="xtick_7">
     <g id="line2d_7">
      <g>
       <use xlink:href="#m0b569d5e8d" x="502.379687" y="170.28" style="stroke: #000000; stroke-width: 0.8"/>
      </g>
     </g>
     <g id="text_7">
      <!-- dense_7 -->
      <g transform="translate(485.692077 204.642471)rotate(-30)scale(0.1 -0.1)">
       <defs>
        <path id="DejaVuSans-37" d="M 525 4666 
L 3525 4666 
L 3525 4397 
L 1831 0 
L 1172 0 
L 2766 4134 
L 525 4134 
L 525 4666 
z
" transform="scale(0.015625)"/>
       </defs>
       <use xlink:href="#DejaVuSans-64"/>
       <use xlink:href="#DejaVuSans-65" x="63.476562"/>
       <use xlink:href="#DejaVuSans-6e" x="125"/>
       <use xlink:href="#DejaVuSans-73" x="188.378906"/>
       <use xlink:href="#DejaVuSans-65" x="240.478516"/>
       <use xlink:href="#DejaVuSans-5f" x="302.001953"/>
       <use xlink:href="#DejaVuSans-37" x="352.001953"/>
      </g>
     </g>
    </g>
    <g id="xtick_8">
     <g id="line2d_8">
      <g>
       <use xlink:href="#m0b569d5e8d" x="572.129688" y="170.28" style="stroke: #000000; stroke-width: 0.8"/>
      </g>
     </g>
     <g id="text_8">
      <!-- elu_8 -->
      <g transform="translate(561.908174 197.176065)rotate(-30)scale(0.1 -0.1)">
       <defs>
        <path id="DejaVuSans-38" d="M 2034 2216 
Q 1584 2216 1326 1975 
Q 1069 1734 1069 1313 
Q 1069 891 1326 650 
Q 1584 409 2034 409 
Q 2484 409 2743 651 
Q 3003 894 3003 1313 
Q 3003 1734 2745 1975 
Q 2488 2216 2034 2216 
z
M 1403 2484 
Q 997 2584 770 2862 
Q 544 3141 544 3541 
Q 544 4100 942 4425 
Q 1341 4750 2034 4750 
Q 2731 4750 3128 4425 
Q 3525 4100 3525 3541 
Q 3525 3141 3298 2862 
Q 3072 2584 2669 2484 
Q 3125 2378 3379 2068 
Q 3634 1759 3634 1313 
Q 3634 634 3220 271 
Q 2806 -91 2034 -91 
Q 1263 -91 848 271 
Q 434 634 434 1313 
Q 434 1759 690 2068 
Q 947 2378 1403 2484 
z
M 1172 3481 
Q 1172 3119 1398 2916 
Q 1625 2713 2034 2713 
Q 2441 2713 2670 2916 
Q 2900 3119 2900 3481 
Q 2900 3844 2670 4047 
Q 2441 4250 2034 4250 
Q 1625 4250 1398 4047 
Q 1172 3844 1172 3481 
z
" transform="scale(0.015625)"/>
       </defs>
       <use xlink:href="#DejaVuSans-65"/>
       <use xlink:href="#DejaVuSans-6c" x="61.523438"/>
       <use xlink:href="#DejaVuSans-75" x="89.306641"/>
       <use xlink:href="#DejaVuSans-5f" x="152.685547"/>
       <use xlink:href="#DejaVuSans-38" x="202.685547"/>
      </g>
     </g>
    </g>
   </g>
   <g id="matplotlib.axis_2">
    <g id="ytick_1">
     <g id="line2d_9">
      <defs>
       <path id="m37ec84a071" d="M 0 0 
L -3.5 0 
" style="stroke: #000000; stroke-width: 0.8"/>
      </defs>
      <g>
       <use xlink:href="#m37ec84a071" x="49.004687" y="146.920835" style="stroke: #000000; stroke-width: 0.8"/>
      </g>
     </g>
     <g id="text_9">
      <!-- 10 -->
      <g transform="translate(20.9 150.720054)scale(0.1 -0.1)">
       <defs>
        <path id="DejaVuSans-2212" d="M 678 2272 
L 4684 2272 
L 4684 1741 
L 678 1741 
L 678 2272 
z
" transform="scale(0.015625)"/>
        <path id="DejaVuSans-30" d="M 2034 4250 
Q 1547 4250 1301 3770 
Q 1056 3291 1056 2328 
Q 1056 1369 1301 889 
Q 1547 409 2034 409 
Q 2525 409 2770 889 
Q 3016 1369 3016 2328 
Q 3016 3291 2770 3770 
Q 2525 4250 2034 4250 
z
M 2034 4750 
Q 2819 4750 3233 4129 
Q 3647 3509 3647 2328 
Q 3647 1150 3233 529 
Q 2819 -91 2034 -91 
Q 1250 -91 836 529 
Q 422 1150 422 2328 
Q 422 3509 836 4129 
Q 1250 4750 2034 4750 
z
" transform="scale(0.015625)"/>
       </defs>
       <use xlink:href="#DejaVuSans-2212"/>
       <use xlink:href="#DejaVuSans-31" x="83.789062"/>
       <use xlink:href="#DejaVuSans-30" x="147.412109"/>
      </g>
     </g>
    </g>
    <g id="ytick_2">
     <g id="line2d_10">
      <g>
       <use xlink:href="#m37ec84a071" x="49.004687" y="108.76244" style="stroke: #000000; stroke-width: 0.8"/>
      </g>
     </g>
     <g id="text_10">
      <!-- 5 -->
      <g transform="translate(27.2625 112.561659)scale(0.1 -0.1)">
       <use xlink:href="#DejaVuSans-2212"/>
       <use xlink:href="#DejaVuSans-35" x="83.789062"/>
      </g>
     </g>
    </g>
    <g id="ytick_3">
     <g id="line2d_11">
      <g>
       <use xlink:href="#m37ec84a071" x="49.004687" y="70.604045" style="stroke: #000000; stroke-width: 0.8"/>
      </g>
     </g>
     <g id="text_11">
      <!-- 0 -->
      <g transform="translate(35.642187 74.403264)scale(0.1 -0.1)">
       <use xlink:href="#DejaVuSans-30"/>
      </g>
     </g>
    </g>
    <g id="ytick_4">
     <g id="line2d_12">
      <g>
       <use xlink:href="#m37ec84a071" x="49.004687" y="32.44565" style="stroke: #000000; stroke-width: 0.8"/>
      </g>
     </g>
     <g id="text_12">
      <!-- 5 -->
      <g transform="translate(35.642187 36.244869)scale(0.1 -0.1)">
       <use xlink:href="#DejaVuSans-35"/>
      </g>
     </g>
    </g>
    <g id="text_13">
     <!-- ${\phi}$ -->
     <g transform="translate(14.8 92.04)rotate(-90)scale(0.1 -0.1)">
      <defs>
       <path id="DejaVuSans-Oblique-3d5" d="M 2991 4863 
L 2738 3572 
Q 3363 3572 3684 3094 
Q 4016 2606 3850 1747 
Q 3681 888 3159 400 
Q 2653 -78 2028 -78 
L 1784 -1331 
L 1213 -1331 
L 1456 -78 
Q 834 -78 509 400 
Q 178 888 347 1747 
Q 513 2606 1034 3094 
Q 1544 3572 2166 3572 
L 2419 4863 
L 2991 4863 
z
M 2128 434 
Q 2481 434 2784 756 
Q 3116 1116 3244 1747 
Q 3369 2372 3169 2738 
Q 2991 3059 2638 3059 
L 2128 434 
z
M 1556 434 
L 2066 3059 
Q 1716 3059 1413 2738 
Q 1072 2372 953 1747 
Q 834 1116 1028 756 
Q 1203 434 1556 434 
z
" transform="scale(0.015625)"/>
      </defs>
      <use xlink:href="#DejaVuSans-Oblique-3d5" transform="translate(0 0.015625)"/>
     </g>
    </g>
   </g>
   <g id="line2d_13">
    <path d="M 83.879687 79.405624 
L 83.879687 62.07701 
" clip-path="url(#pefe40b280e)" style="fill: none; stroke: #585858; stroke-width: 1.5; stroke-linecap: square"/>
   </g>
   <g id="line2d_14">
    <path d="M 83.879687 72.907452 
L 83.879687 68.575255 
" clip-path="url(#pefe40b280e)" style="fill: none; stroke: #585858; stroke-width: 4.5; stroke-linecap: square"/>
   </g>
   <g id="line2d_15">
    <path d="M 153.629687 78.139119 
L 153.629687 62.549658 
" clip-path="url(#pefe40b280e)" style="fill: none; stroke: #585858; stroke-width: 1.5; stroke-linecap: square"/>
   </g>
   <g id="line2d_16">
    <path d="M 153.629687 72.592328 
L 153.629687 68.575255 
" clip-path="url(#pefe40b280e)" style="fill: none; stroke: #585858; stroke-width: 4.5; stroke-linecap: square"/>
   </g>
   <g id="line2d_17">
    <path d="M 223.379687 85.260096 
L 223.379687 56.826715 
" clip-path="url(#pefe40b280e)" style="fill: none; stroke: #585858; stroke-width: 1.5; stroke-linecap: square"/>
   </g>
   <g id="line2d_18">
    <path d="M 223.379687 74.597853 
L 223.379687 67.489386 
" clip-path="url(#pefe40b280e)" style="fill: none; stroke: #585858; stroke-width: 4.5; stroke-linecap: square"/>
   </g>
   <g id="line2d_19">
    <path d="M 293.129687 78.189129 
L 293.129687 58.153149 
" clip-path="url(#pefe40b280e)" style="fill: none; stroke: #585858; stroke-width: 1.5; stroke-linecap: square"/>
   </g>
   <g id="line2d_20">
    <path d="M 293.129687 73.713571 
L 293.129687 67.489386 
" clip-path="url(#pefe40b280e)" style="fill: none; stroke: #585858; stroke-width: 4.5; stroke-linecap: square"/>
   </g>
   <g id="line2d_21">
    <path d="M 362.879687 88.478824 
L 362.879687 53.471451 
" clip-path="url(#pefe40b280e)" style="fill: none; stroke: #585858; stroke-width: 1.5; stroke-linecap: square"/>
   </g>
   <g id="line2d_22">
    <path d="M 362.879687 75.351351 
L 362.879687 66.59938 
" clip-path="url(#pefe40b280e)" style="fill: none; stroke: #585858; stroke-width: 4.5; stroke-linecap: square"/>
   </g>
   <g id="line2d_23">
    <path d="M 432.629687 78.226224 
L 432.629687 55.290656 
" clip-path="url(#pefe40b280e)" style="fill: none; stroke: #585858; stroke-width: 1.5; stroke-linecap: square"/>
   </g>
   <g id="line2d_24">
    <path d="M 432.629687 74.138723 
L 432.629687 66.59938 
" clip-path="url(#pefe40b280e)" style="fill: none; stroke: #585858; stroke-width: 4.5; stroke-linecap: square"/>
   </g>
   <g id="line2d_25">
    <path d="M 502.379687 101.714817 
L 502.379687 41.450013 
" clip-path="url(#pefe40b280e)" style="fill: none; stroke: #585858; stroke-width: 1.5; stroke-linecap: square"/>
   </g>
   <g id="line2d_26">
    <path d="M 502.379687 79.118137 
L 502.379687 64.050442 
" clip-path="url(#pefe40b280e)" style="fill: none; stroke: #585858; stroke-width: 4.5; stroke-linecap: square"/>
   </g>
   <g id="line2d_27">
    <path d="M 572.129688 78.235671 
L 572.129688 46.526266 
" clip-path="url(#pefe40b280e)" style="fill: none; stroke: #585858; stroke-width: 1.5; stroke-linecap: square"/>
   </g>
   <g id="line2d_28">
    <path d="M 572.129688 75.734744 
L 572.129688 64.050442 
" clip-path="url(#pefe40b280e)" style="fill: none; stroke: #585858; stroke-width: 4.5; stroke-linecap: square"/>
   </g>
   <g id="patch_3">
    <path d="M 49.004687 170.28 
L 49.004687 7.2 
" style="fill: none; stroke: #000000; stroke-width: 0.8; stroke-linejoin: miter; stroke-linecap: square"/>
   </g>
   <g id="patch_4">
    <path d="M 607.004688 170.28 
L 607.004688 7.2 
" style="fill: none; stroke: #000000; stroke-width: 0.8; stroke-linejoin: miter; stroke-linecap: square"/>
   </g>
   <g id="patch_5">
    <path d="M 49.004687 170.28 
L 607.004688 170.28 
" style="fill: none; stroke: #000000; stroke-width: 0.8; stroke-linejoin: miter; stroke-linecap: square"/>
   </g>
   <g id="patch_6">
    <path d="M 49.004687 7.2 
L 607.004688 7.2 
" style="fill: none; stroke: #000000; stroke-width: 0.8; stroke-linejoin: miter; stroke-linecap: square"/>
   </g>
   <g id="PathCollection_1">
    <defs>
     <path id="me70894d88b" d="M 0 1.5 
C 0.397805 1.5 0.77937 1.341951 1.06066 1.06066 
C 1.341951 0.77937 1.5 0.397805 1.5 0 
C 1.5 -0.397805 1.341951 -0.77937 1.06066 -1.06066 
C 0.77937 -1.341951 0.397805 -1.5 0 -1.5 
C -0.397805 -1.5 -0.77937 -1.341951 -1.06066 -1.06066 
C -1.341951 -0.77937 -1.5 -0.397805 -1.5 0 
C -1.5 0.397805 -1.341951 0.77937 -1.06066 1.06066 
C -0.77937 1.341951 -0.397805 1.5 0 1.5 
z
" style="stroke: #585858"/>
    </defs>
    <g clip-path="url(#pefe40b280e)">
     <use xlink:href="#me70894d88b" x="83.879687" y="70.662" style="fill: #ffffff; stroke: #585858"/>
    </g>
   </g>
   <g id="PathCollection_2">
    <g clip-path="url(#pefe40b280e)">
     <use xlink:href="#me70894d88b" x="153.629687" y="70.661781" style="fill: #ffffff; stroke: #585858"/>
    </g>
   </g>
   <g id="PathCollection_3">
    <g clip-path="url(#pefe40b280e)">
     <use xlink:href="#me70894d88b" x="223.379687" y="70.935937" style="fill: #ffffff; stroke: #585858"/>
    </g>
   </g>
   <g id="PathCollection_4">
    <g clip-path="url(#pefe40b280e)">
     <use xlink:href="#me70894d88b" x="293.129687" y="70.928824" style="fill: #ffffff; stroke: #585858"/>
    </g>
   </g>
   <g id="PathCollection_5">
    <g clip-path="url(#pefe40b280e)">
     <use xlink:href="#me70894d88b" x="362.879687" y="70.827658" style="fill: #ffffff; stroke: #585858"/>
    </g>
   </g>
   <g id="PathCollection_6">
    <g clip-path="url(#pefe40b280e)">
     <use xlink:href="#me70894d88b" x="432.629687" y="70.824414" style="fill: #ffffff; stroke: #585858"/>
    </g>
   </g>
   <g id="PathCollection_7">
    <g clip-path="url(#pefe40b280e)">
     <use xlink:href="#me70894d88b" x="502.379687" y="71.302578" style="fill: #ffffff; stroke: #585858"/>
    </g>
   </g>
   <g id="PathCollection_8">
    <g clip-path="url(#pefe40b280e)">
     <use xlink:href="#me70894d88b" x="572.129688" y="71.271563" style="fill: #ffffff; stroke: #585858"/>
    </g>
   </g>
  </g>
 </g>
 <defs>
  <clipPath id="pefe40b280e">
   <rect x="49.004687" y="7.2" width="558" height="163.08"/>
  </clipPath>
 </defs>
</svg>
