<?xml version="1.0" encoding="utf-8" standalone="no"?>
<!DOCTYPE svg PUBLIC "-//W3C//DTD SVG 1.1//EN"
  "http://www.w3.org/Graphics/SVG/1.1/DTD/svg11.dtd">
<svg xmlns:xlink="http://www.w3.org/1999/xlink" width="607.842188pt" height="213.884397pt" viewBox="0 0 607.842188 213.884397" xmlns="http://www.w3.org/2000/svg" version="1.1">
 <metadata>
  <rdf:RDF xmlns:dc="http://purl.org/dc/elements/1.1/" xmlns:cc="http://creativecommons.org/ns#" xmlns:rdf="http://www.w3.org/1999/02/22-rdf-syntax-ns#">
   <cc:Work>
    <dc:type rdf:resource="http://purl.org/dc/dcmitype/StillImage"/>
    <dc:date>2022-07-08T02:25:28.789097</dc:date>
    <dc:format>image/svg+xml</dc:format>
    <dc:creator>
     <cc:Agent>
      <dc:title>Matplotlib v3.5.1, https://matplotlib.org/</dc:title>
     </cc:Agent>
    </dc:creator>
   </cc:Work>
  </rdf:RDF>
 </metadata>
 <defs>
  <style type="text/css">*{stroke-linejoin: round; stroke-linecap: butt}</style>
 </defs>
 <g id="figure_1">
  <g id="patch_1">
   <path d="M 0 213.884397 
L 607.842188 213.884397 
L 607.842188 0 
L 0 0 
L 0 213.884397 
z
" style="fill: none"/>
  </g>
  <g id="axes_1">
   <g id="patch_2">
    <path d="M 42.642188 170.28 
L 600.642187 170.28 
L 600.642187 7.2 
L 42.642188 7.2 
z
" style="fill: #ffffff"/>
   </g>
   <g id="PolyCollection_1">
    <defs>
     <path id="mc37de49664" d="M 77.517211 -70.246891 
L 77.517164 -70.246891 
L 77.516814 -71.329782 
L 77.517135 -72.412674 
L 77.516924 -73.495566 
L 77.516408 -74.578458 
L 77.516527 -75.66135 
L 77.515609 -76.744242 
L 77.515375 -77.827134 
L 77.513488 -78.910026 
L 77.512529 -79.992918 
L 77.509088 -81.07581 
L 77.505148 -82.158702 
L 77.502928 -83.241593 
L 77.492697 -84.324485 
L 77.487897 -85.407377 
L 77.481055 -86.490269 
L 77.473976 -87.573161 
L 77.460722 -88.656053 
L 77.441682 -89.738945 
L 77.421213 -90.821837 
L 77.412384 -91.904729 
L 77.390401 -92.987621 
L 77.355792 -94.070513 
L 77.335857 -95.153405 
L 77.318876 -96.236296 
L 77.27324 -97.319188 
L 77.253059 -98.40208 
L 77.210602 -99.484972 
L 77.157788 -100.567864 
L 77.109221 -101.650756 
L 77.01614 -102.733648 
L 76.922004 -103.81654 
L 76.792073 -104.899432 
L 76.641376 -105.982324 
L 76.446777 -107.065216 
L 76.200942 -108.148107 
L 75.874015 -109.230999 
L 75.46658 -110.313891 
L 74.908911 -111.396783 
L 74.158288 -112.479675 
L 73.254622 -113.562567 
L 72.011838 -114.645459 
L 70.494945 -115.728351 
L 68.663726 -116.811243 
L 66.458429 -117.894135 
L 63.899951 -118.977027 
L 61.22781 -120.059919 
L 58.500523 -121.14281 
L 56.26433 -122.225702 
L 55.238826 -123.308594 
L 55.52206 -124.391486 
L 57.204495 -125.474378 
L 59.710297 -126.55727 
L 62.532318 -127.640162 
L 65.270893 -128.723054 
L 67.683971 -129.805946 
L 69.790099 -130.888838 
L 71.431877 -131.97173 
L 72.786015 -133.054621 
L 73.87786 -134.137513 
L 74.666489 -135.220405 
L 75.2877 -136.303297 
L 75.759281 -137.386189 
L 76.102963 -138.469081 
L 76.36908 -139.551973 
L 76.582357 -140.634865 
L 76.754027 -141.717757 
L 76.88661 -142.800649 
L 77.003504 -143.883541 
L 77.087215 -144.966432 
L 77.174053 -146.049324 
L 77.245403 -147.132216 
L 77.291596 -148.215108 
L 77.34224 -149.298 
L 77.375312 -150.380892 
L 77.403324 -151.463784 
L 77.42126 -152.546676 
L 77.439466 -153.629568 
L 77.454729 -154.71246 
L 77.464879 -155.795352 
L 77.471584 -156.878244 
L 77.481198 -157.961135 
L 77.488574 -159.044027 
L 77.490475 -160.126919 
L 77.495421 -161.209811 
L 77.501859 -162.292703 
L 77.504316 -163.375595 
L 77.506778 -164.458487 
L 77.508396 -165.541379 
L 77.510301 -166.624271 
L 77.510611 -167.707163 
L 77.511731 -168.790055 
L 77.512248 -169.872946 
L 77.513978 -170.955838 
L 77.51608 -172.03873 
L 77.516319 -173.121622 
L 77.516713 -174.204514 
L 77.516755 -175.287406 
L 77.517012 -176.370298 
L 77.517168 -177.45319 
L 77.517207 -177.45319 
L 77.517207 -177.45319 
L 77.517363 -176.370298 
L 77.51762 -175.287406 
L 77.517662 -174.204514 
L 77.518056 -173.121622 
L 77.518295 -172.03873 
L 77.520397 -170.955838 
L 77.522127 -169.872946 
L 77.522644 -168.790055 
L 77.523764 -167.707163 
L 77.524074 -166.624271 
L 77.525979 -165.541379 
L 77.527597 -164.458487 
L 77.530059 -163.375595 
L 77.532516 -162.292703 
L 77.538954 -161.209811 
L 77.5439 -160.126919 
L 77.545801 -159.044027 
L 77.553177 -157.961135 
L 77.562791 -156.878244 
L 77.569496 -155.795352 
L 77.579646 -154.71246 
L 77.594909 -153.629568 
L 77.613115 -152.546676 
L 77.631051 -151.463784 
L 77.659063 -150.380892 
L 77.692135 -149.298 
L 77.742779 -148.215108 
L 77.788972 -147.132216 
L 77.860322 -146.049324 
L 77.94716 -144.966432 
L 78.030871 -143.883541 
L 78.147765 -142.800649 
L 78.280348 -141.717757 
L 78.452018 -140.634865 
L 78.665295 -139.551973 
L 78.931412 -138.469081 
L 79.275094 -137.386189 
L 79.746675 -136.303297 
L 80.367886 -135.220405 
L 81.156515 -134.137513 
L 82.24836 -133.054621 
L 83.602498 -131.97173 
L 85.244276 -130.888838 
L 87.350404 -129.805946 
L 89.763482 -128.723054 
L 92.502057 -127.640162 
L 95.324078 -126.55727 
L 97.82988 -125.474378 
L 99.512315 -124.391486 
L 99.795549 -123.308594 
L 98.770045 -122.225702 
L 96.533852 -121.14281 
L 93.806565 -120.059919 
L 91.134424 -118.977027 
L 88.575946 -117.894135 
L 86.370649 -116.811243 
L 84.53943 -115.728351 
L 83.022537 -114.645459 
L 81.779753 -113.562567 
L 80.876087 -112.479675 
L 80.125464 -111.396783 
L 79.567795 -110.313891 
L 79.16036 -109.230999 
L 78.833433 -108.148107 
L 78.587598 -107.065216 
L 78.392999 -105.982324 
L 78.242302 -104.899432 
L 78.112371 -103.81654 
L 78.018235 -102.733648 
L 77.925154 -101.650756 
L 77.876587 -100.567864 
L 77.823773 -99.484972 
L 77.781316 -98.40208 
L 77.761135 -97.319188 
L 77.715499 -96.236296 
L 77.698518 -95.153405 
L 77.678583 -94.070513 
L 77.643974 -92.987621 
L 77.621991 -91.904729 
L 77.613162 -90.821837 
L 77.592693 -89.738945 
L 77.573653 -88.656053 
L 77.560399 -87.573161 
L 77.55332 -86.490269 
L 77.546478 -85.407377 
L 77.541678 -84.324485 
L 77.531447 -83.241593 
L 77.529227 -82.158702 
L 77.525287 -81.07581 
L 77.521846 -79.992918 
L 77.520887 -78.910026 
L 77.519 -77.827134 
L 77.518766 -76.744242 
L 77.517848 -75.66135 
L 77.517967 -74.578458 
L 77.517451 -73.495566 
L 77.51724 -72.412674 
L 77.517561 -71.329782 
L 77.517211 -70.246891 
z
" style="stroke: #515151; stroke-width: 1.5"/>
    </defs>
    <g clip-path="url(#p593912a6a9)">
     <use xlink:href="#mc37de49664" x="0" y="213.884397" style="fill: #e1812c; stroke: #515151; stroke-width: 1.5"/>
    </g>
   </g>
   <g id="PolyCollection_2">
    <defs>
     <path id="maf456f3261" d="M 147.341542 -110.503176 
L 147.192833 -110.503176 
L 146.780939 -110.76721 
L 145.657703 -111.031244 
L 144.287694 -111.295278 
L 143.594371 -111.559311 
L 143.472509 -111.823345 
L 143.400525 -112.087379 
L 143.248464 -112.351412 
L 143.052393 -112.615446 
L 142.828899 -112.87948 
L 142.578846 -113.143514 
L 142.298906 -113.407547 
L 141.993366 -113.671581 
L 141.657553 -113.935615 
L 141.287761 -114.199649 
L 140.886487 -114.463682 
L 140.47682 -114.727716 
L 140.07857 -114.99175 
L 139.662176 -115.255783 
L 139.200827 -115.519817 
L 138.70547 -115.783851 
L 138.197336 -116.047885 
L 137.692679 -116.311918 
L 137.199698 -116.575952 
L 136.707542 -116.839986 
L 136.1926 -117.10402 
L 135.654318 -117.368053 
L 135.106585 -117.632087 
L 134.544386 -117.896121 
L 133.982815 -118.160154 
L 133.432491 -118.424188 
L 132.854301 -118.688222 
L 132.244758 -118.952256 
L 131.63849 -119.216289 
L 131.047907 -119.480323 
L 130.497323 -119.744357 
L 129.957671 -120.00839 
L 129.406752 -120.272424 
L 128.859945 -120.536458 
L 128.283489 -120.800492 
L 127.713869 -121.064525 
L 127.206049 -121.328559 
L 126.717501 -121.592593 
L 126.244305 -121.856627 
L 125.842892 -122.12066 
L 125.543201 -122.384694 
L 125.320443 -122.648728 
L 125.129369 -122.912761 
L 124.970831 -123.176795 
L 124.888635 -123.440829 
L 124.876047 -123.704863 
L 124.889412 -123.968896 
L 124.987377 -124.23293 
L 125.214848 -124.496964 
L 125.511019 -124.760998 
L 125.813787 -125.025031 
L 126.167817 -125.289065 
L 126.605693 -125.553099 
L 127.082173 -125.817132 
L 127.564269 -126.081166 
L 128.0773 -126.3452 
L 128.652104 -126.609234 
L 129.234913 -126.873267 
L 129.814074 -127.137301 
L 130.415128 -127.401335 
L 131.025576 -127.665369 
L 131.637369 -127.929402 
L 132.250547 -128.193436 
L 132.861552 -128.45747 
L 133.448416 -128.721503 
L 134.010436 -128.985537 
L 134.59832 -129.249571 
L 135.22052 -129.513605 
L 135.798828 -129.777638 
L 136.357155 -130.041672 
L 136.930167 -130.305706 
L 137.445481 -130.569739 
L 137.904981 -130.833773 
L 138.37022 -131.097807 
L 138.860061 -131.361841 
L 139.374675 -131.625874 
L 139.870984 -131.889908 
L 140.320896 -132.153942 
L 140.73189 -132.417976 
L 141.10856 -132.682009 
L 141.474257 -132.946043 
L 141.839868 -133.210077 
L 142.180857 -133.47411 
L 142.478716 -133.738144 
L 142.7367 -134.002178 
L 142.973891 -134.266212 
L 143.200921 -134.530245 
L 143.419918 -134.794279 
L 143.652405 -135.058313 
L 143.959684 -135.322347 
L 144.446645 -135.58638 
L 145.243105 -135.850414 
L 146.241079 -136.114448 
L 146.959779 -136.378481 
L 147.219079 -136.642515 
L 147.315296 -136.642515 
L 147.315296 -136.642515 
L 147.574596 -136.378481 
L 148.293296 -136.114448 
L 149.29127 -135.850414 
L 150.08773 -135.58638 
L 150.574691 -135.322347 
L 150.88197 -135.058313 
L 151.114457 -134.794279 
L 151.333454 -134.530245 
L 151.560484 -134.266212 
L 151.797675 -134.002178 
L 152.055659 -133.738144 
L 152.353518 -133.47411 
L 152.694507 -133.210077 
L 153.060118 -132.946043 
L 153.425815 -132.682009 
L 153.802485 -132.417976 
L 154.213479 -132.153942 
L 154.663391 -131.889908 
L 155.1597 -131.625874 
L 155.674314 -131.361841 
L 156.164155 -131.097807 
L 156.629394 -130.833773 
L 157.088894 -130.569739 
L 157.604208 -130.305706 
L 158.17722 -130.041672 
L 158.735547 -129.777638 
L 159.313855 -129.513605 
L 159.936055 -129.249571 
L 160.523939 -128.985537 
L 161.085959 -128.721503 
L 161.672823 -128.45747 
L 162.283828 -128.193436 
L 162.897006 -127.929402 
L 163.508799 -127.665369 
L 164.119247 -127.401335 
L 164.720301 -127.137301 
L 165.299462 -126.873267 
L 165.882271 -126.609234 
L 166.457075 -126.3452 
L 166.970106 -126.081166 
L 167.452202 -125.817132 
L 167.928682 -125.553099 
L 168.366558 -125.289065 
L 168.720588 -125.025031 
L 169.023356 -124.760998 
L 169.319527 -124.496964 
L 169.546998 -124.23293 
L 169.644963 -123.968896 
L 169.658328 -123.704863 
L 169.64574 -123.440829 
L 169.563544 -123.176795 
L 169.405006 -122.912761 
L 169.213932 -122.648728 
L 168.991174 -122.384694 
L 168.691483 -122.12066 
L 168.29007 -121.856627 
L 167.816874 -121.592593 
L 167.328326 -121.328559 
L 166.820506 -121.064525 
L 166.250886 -120.800492 
L 165.67443 -120.536458 
L 165.127623 -120.272424 
L 164.576704 -120.00839 
L 164.037052 -119.744357 
L 163.486468 -119.480323 
L 162.895885 -119.216289 
L 162.289617 -118.952256 
L 161.680074 -118.688222 
L 161.101884 -118.424188 
L 160.55156 -118.160154 
L 159.989989 -117.896121 
L 159.42779 -117.632087 
L 158.880057 -117.368053 
L 158.341775 -117.10402 
L 157.826833 -116.839986 
L 157.334677 -116.575952 
L 156.841696 -116.311918 
L 156.337039 -116.047885 
L 155.828905 -115.783851 
L 155.333548 -115.519817 
L 154.872199 -115.255783 
L 154.455805 -114.99175 
L 154.057555 -114.727716 
L 153.647888 -114.463682 
L 153.246614 -114.199649 
L 152.876822 -113.935615 
L 152.541009 -113.671581 
L 152.235469 -113.407547 
L 151.955529 -113.143514 
L 151.705476 -112.87948 
L 151.481982 -112.615446 
L 151.285911 -112.351412 
L 151.13385 -112.087379 
L 151.061866 -111.823345 
L 150.940004 -111.559311 
L 150.246681 -111.295278 
L 148.876672 -111.031244 
L 147.753436 -110.76721 
L 147.341542 -110.503176 
z
" style="stroke: #515151; stroke-width: 1.5"/>
    </defs>
    <g clip-path="url(#p593912a6a9)">
     <use xlink:href="#maf456f3261" x="0" y="213.884397" style="fill: #e1812c; stroke: #515151; stroke-width: 1.5"/>
    </g>
   </g>
   <g id="PolyCollection_3">
    <defs>
     <path id="m2d55d35947" d="M 217.017209 -51.017124 
L 217.017166 -51.017124 
L 217.017026 -52.388268 
L 217.017105 -53.759412 
L 217.017021 -55.130556 
L 217.016556 -56.501701 
L 217.014992 -57.872845 
L 217.015265 -59.243989 
L 217.013597 -60.615133 
L 217.010702 -61.986277 
L 217.008587 -63.357421 
L 217.007122 -64.728566 
L 217.004917 -66.09971 
L 217.002013 -67.470854 
L 217.000063 -68.841998 
L 216.996933 -70.213142 
L 216.994828 -71.584286 
L 216.992603 -72.955431 
L 216.986781 -74.326575 
L 216.980012 -75.697719 
L 216.968693 -77.068863 
L 216.962689 -78.440007 
L 216.950813 -79.811151 
L 216.935946 -81.182296 
L 216.921484 -82.55344 
L 216.899083 -83.924584 
L 216.863414 -85.295728 
L 216.830059 -86.666872 
L 216.784576 -88.038016 
L 216.718562 -89.409161 
L 216.657766 -90.780305 
L 216.567256 -92.151449 
L 216.483025 -93.522593 
L 216.372913 -94.893737 
L 216.251127 -96.264881 
L 216.134301 -97.636026 
L 215.989914 -99.00717 
L 215.815889 -100.378314 
L 215.581345 -101.749458 
L 215.279756 -103.120602 
L 214.982984 -104.491746 
L 214.607748 -105.862891 
L 214.149068 -107.234035 
L 213.547517 -108.605179 
L 212.918929 -109.976323 
L 212.124808 -111.347467 
L 211.195808 -112.718611 
L 210.174761 -114.089756 
L 209.06874 -115.4609 
L 207.906494 -116.832044 
L 206.726828 -118.203188 
L 205.640764 -119.574332 
L 204.739809 -120.945477 
L 204.167567 -122.316621 
L 203.959255 -123.687765 
L 204.269956 -125.058909 
L 205.027021 -126.430053 
L 206.023382 -127.801197 
L 207.123967 -129.172342 
L 208.350701 -130.543486 
L 209.500941 -131.91463 
L 210.478151 -133.285774 
L 211.404751 -134.656918 
L 212.266722 -136.028062 
L 213.003965 -137.399207 
L 213.670787 -138.770351 
L 214.257551 -140.141495 
L 214.757485 -141.512639 
L 215.143733 -142.883783 
L 215.47844 -144.254927 
L 215.757611 -145.626072 
L 215.981245 -146.997216 
L 216.146572 -148.36836 
L 216.293697 -149.739504 
L 216.413593 -151.110648 
L 216.499019 -152.481792 
L 216.595052 -153.852937 
L 216.66751 -155.224081 
L 216.7269 -156.595225 
L 216.779358 -157.966369 
L 216.827283 -159.337513 
L 216.867437 -160.708657 
L 216.902411 -162.079802 
L 216.933028 -163.450946 
L 216.955308 -164.82209 
L 216.970664 -166.193234 
L 216.9831 -167.564378 
L 216.993439 -168.935522 
L 217.000172 -170.306667 
L 217.006745 -171.677811 
L 217.010588 -173.048955 
L 217.012739 -174.420099 
L 217.014522 -175.791243 
L 217.015116 -177.162387 
L 217.015372 -178.533532 
L 217.016779 -179.904676 
L 217.01702 -181.27582 
L 217.017169 -182.646964 
L 217.017157 -184.018108 
L 217.017027 -185.389252 
L 217.017166 -186.760397 
L 217.017209 -186.760397 
L 217.017209 -186.760397 
L 217.017348 -185.389252 
L 217.017218 -184.018108 
L 217.017206 -182.646964 
L 217.017355 -181.27582 
L 217.017596 -179.904676 
L 217.019003 -178.533532 
L 217.019259 -177.162387 
L 217.019853 -175.791243 
L 217.021636 -174.420099 
L 217.023787 -173.048955 
L 217.02763 -171.677811 
L 217.034203 -170.306667 
L 217.040936 -168.935522 
L 217.051275 -167.564378 
L 217.063711 -166.193234 
L 217.079067 -164.82209 
L 217.101347 -163.450946 
L 217.131964 -162.079802 
L 217.166938 -160.708657 
L 217.207092 -159.337513 
L 217.255017 -157.966369 
L 217.307475 -156.595225 
L 217.366865 -155.224081 
L 217.439323 -153.852937 
L 217.535356 -152.481792 
L 217.620782 -151.110648 
L 217.740678 -149.739504 
L 217.887803 -148.36836 
L 218.05313 -146.997216 
L 218.276764 -145.626072 
L 218.555935 -144.254927 
L 218.890642 -142.883783 
L 219.27689 -141.512639 
L 219.776824 -140.141495 
L 220.363588 -138.770351 
L 221.03041 -137.399207 
L 221.767653 -136.028062 
L 222.629624 -134.656918 
L 223.556224 -133.285774 
L 224.533434 -131.91463 
L 225.683674 -130.543486 
L 226.910408 -129.172342 
L 228.010993 -127.801197 
L 229.007354 -126.430053 
L 229.764419 -125.058909 
L 230.07512 -123.687765 
L 229.866808 -122.316621 
L 229.294566 -120.945477 
L 228.393611 -119.574332 
L 227.307547 -118.203188 
L 226.127881 -116.832044 
L 224.965635 -115.4609 
L 223.859614 -114.089756 
L 222.838567 -112.718611 
L 221.909567 -111.347467 
L 221.115446 -109.976323 
L 220.486858 -108.605179 
L 219.885307 -107.234035 
L 219.426627 -105.862891 
L 219.051391 -104.491746 
L 218.754619 -103.120602 
L 218.45303 -101.749458 
L 218.218486 -100.378314 
L 218.044461 -99.00717 
L 217.900074 -97.636026 
L 217.783248 -96.264881 
L 217.661462 -94.893737 
L 217.55135 -93.522593 
L 217.467119 -92.151449 
L 217.376609 -90.780305 
L 217.315813 -89.409161 
L 217.249799 -88.038016 
L 217.204316 -86.666872 
L 217.170961 -85.295728 
L 217.135292 -83.924584 
L 217.112891 -82.55344 
L 217.098429 -81.182296 
L 217.083562 -79.811151 
L 217.071686 -78.440007 
L 217.065682 -77.068863 
L 217.054363 -75.697719 
L 217.047594 -74.326575 
L 217.041772 -72.955431 
L 217.039547 -71.584286 
L 217.037442 -70.213142 
L 217.034312 -68.841998 
L 217.032362 -67.470854 
L 217.029458 -66.09971 
L 217.027253 -64.728566 
L 217.025788 -63.357421 
L 217.023673 -61.986277 
L 217.020778 -60.615133 
L 217.01911 -59.243989 
L 217.019383 -57.872845 
L 217.017819 -56.501701 
L 217.017354 -55.130556 
L 217.01727 -53.759412 
L 217.017349 -52.388268 
L 217.017209 -51.017124 
z
" style="stroke: #515151; stroke-width: 1.5"/>
    </defs>
    <g clip-path="url(#p593912a6a9)">
     <use xlink:href="#m2d55d35947" x="0" y="213.884397" style="fill: #e1812c; stroke: #515151; stroke-width: 1.5"/>
    </g>
   </g>
   <g id="PolyCollection_4">
    <defs>
     <path id="m8d6e5b37cc" d="M 287.155707 -110.186782 
L 286.378668 -110.186782 
L 285.402101 -110.457192 
L 283.270541 -110.727603 
L 280.087796 -110.998014 
L 276.909261 -111.268425 
L 274.918477 -111.538835 
L 274.341405 -111.809246 
L 274.561822 -112.079657 
L 274.952532 -112.350068 
L 275.244405 -112.620478 
L 275.4074 -112.890889 
L 275.490619 -113.1613 
L 275.539433 -113.431711 
L 275.562487 -113.702121 
L 275.548628 -113.972532 
L 275.500367 -114.242943 
L 275.435442 -114.513354 
L 275.367883 -114.783764 
L 275.302994 -115.054175 
L 275.241038 -115.324586 
L 275.179319 -115.594997 
L 275.11589 -115.865407 
L 275.051325 -116.135818 
L 274.987474 -116.406229 
L 274.925102 -116.67664 
L 274.86305 -116.94705 
L 274.798511 -117.217461 
L 274.724864 -117.487872 
L 274.638836 -117.758283 
L 274.553138 -118.028693 
L 274.484608 -118.299104 
L 274.431187 -118.569515 
L 274.378122 -118.839926 
L 274.318084 -119.110336 
L 274.250378 -119.380747 
L 274.175152 -119.651158 
L 274.100218 -119.921569 
L 274.037041 -120.191979 
L 273.986406 -120.46239 
L 273.941269 -120.732801 
L 273.897739 -121.003212 
L 273.855767 -121.273622 
L 273.816423 -121.544033 
L 273.783157 -121.814444 
L 273.76069 -122.084855 
L 273.746403 -122.355265 
L 273.728012 -122.625676 
L 273.697501 -122.896087 
L 273.662971 -123.166498 
L 273.64163 -123.436908 
L 273.641918 -123.707319 
L 273.655264 -123.97773 
L 273.669991 -124.248141 
L 273.688876 -124.518551 
L 273.724228 -124.788962 
L 273.780807 -125.059373 
L 273.850951 -125.329784 
L 273.923101 -125.600194 
L 273.989653 -125.870605 
L 274.049793 -126.141016 
L 274.110597 -126.411427 
L 274.17961 -126.681837 
L 274.254587 -126.952248 
L 274.330067 -127.222659 
L 274.406963 -127.49307 
L 274.484908 -127.76348 
L 274.556341 -128.033891 
L 274.61646 -128.304302 
L 274.671969 -128.574713 
L 274.735394 -128.845123 
L 274.815604 -129.115534 
L 274.915366 -129.385945 
L 275.028403 -129.656356 
L 275.136823 -129.926766 
L 275.224676 -130.197177 
L 275.294331 -130.467588 
L 275.356528 -130.737999 
L 275.408085 -131.008409 
L 275.434347 -131.27882 
L 275.433014 -131.549231 
L 275.423415 -131.819642 
L 275.430211 -132.090052 
L 275.46127 -132.360463 
L 275.500107 -132.630874 
L 275.522847 -132.901285 
L 275.524519 -133.171695 
L 275.521233 -133.442106 
L 275.528087 -133.712517 
L 275.546849 -133.982928 
L 275.569358 -134.253338 
L 275.577016 -134.523749 
L 275.549379 -134.79416 
L 275.523286 -135.064571 
L 275.723253 -135.334981 
L 276.62787 -135.605392 
L 278.63483 -135.875803 
L 281.440187 -136.146214 
L 284.063797 -136.416624 
L 285.741942 -136.687035 
L 286.483337 -136.957446 
L 287.051038 -136.957446 
L 287.051038 -136.957446 
L 287.792433 -136.687035 
L 289.470578 -136.416624 
L 292.094188 -136.146214 
L 294.899545 -135.875803 
L 296.906505 -135.605392 
L 297.811122 -135.334981 
L 298.011089 -135.064571 
L 297.984996 -134.79416 
L 297.957359 -134.523749 
L 297.965017 -134.253338 
L 297.987526 -133.982928 
L 298.006288 -133.712517 
L 298.013142 -133.442106 
L 298.009856 -133.171695 
L 298.011528 -132.901285 
L 298.034268 -132.630874 
L 298.073105 -132.360463 
L 298.104164 -132.090052 
L 298.11096 -131.819642 
L 298.101361 -131.549231 
L 298.100028 -131.27882 
L 298.12629 -131.008409 
L 298.177847 -130.737999 
L 298.240044 -130.467588 
L 298.309699 -130.197177 
L 298.397552 -129.926766 
L 298.505972 -129.656356 
L 298.619009 -129.385945 
L 298.718771 -129.115534 
L 298.798981 -128.845123 
L 298.862406 -128.574713 
L 298.917915 -128.304302 
L 298.978034 -128.033891 
L 299.049467 -127.76348 
L 299.127412 -127.49307 
L 299.204308 -127.222659 
L 299.279788 -126.952248 
L 299.354765 -126.681837 
L 299.423778 -126.411427 
L 299.484582 -126.141016 
L 299.544722 -125.870605 
L 299.611274 -125.600194 
L 299.683424 -125.329784 
L 299.753568 -125.059373 
L 299.810147 -124.788962 
L 299.845499 -124.518551 
L 299.864384 -124.248141 
L 299.879111 -123.97773 
L 299.892457 -123.707319 
L 299.892745 -123.436908 
L 299.871404 -123.166498 
L 299.836874 -122.896087 
L 299.806363 -122.625676 
L 299.787972 -122.355265 
L 299.773685 -122.084855 
L 299.751218 -121.814444 
L 299.717952 -121.544033 
L 299.678608 -121.273622 
L 299.636636 -121.003212 
L 299.593106 -120.732801 
L 299.547969 -120.46239 
L 299.497334 -120.191979 
L 299.434157 -119.921569 
L 299.359223 -119.651158 
L 299.283997 -119.380747 
L 299.216291 -119.110336 
L 299.156253 -118.839926 
L 299.103188 -118.569515 
L 299.049767 -118.299104 
L 298.981237 -118.028693 
L 298.895539 -117.758283 
L 298.809511 -117.487872 
L 298.735864 -117.217461 
L 298.671325 -116.94705 
L 298.609273 -116.67664 
L 298.546901 -116.406229 
L 298.48305 -116.135818 
L 298.418485 -115.865407 
L 298.355056 -115.594997 
L 298.293337 -115.324586 
L 298.231381 -115.054175 
L 298.166492 -114.783764 
L 298.098933 -114.513354 
L 298.034008 -114.242943 
L 297.985747 -113.972532 
L 297.971888 -113.702121 
L 297.994942 -113.431711 
L 298.043756 -113.1613 
L 298.126975 -112.890889 
L 298.28997 -112.620478 
L 298.581843 -112.350068 
L 298.972553 -112.079657 
L 299.19297 -111.809246 
L 298.615898 -111.538835 
L 296.625114 -111.268425 
L 293.446579 -110.998014 
L 290.263834 -110.727603 
L 288.132274 -110.457192 
L 287.155707 -110.186782 
z
" style="stroke: #515151; stroke-width: 1.5"/>
    </defs>
    <g clip-path="url(#p593912a6a9)">
     <use xlink:href="#m8d6e5b37cc" x="0" y="213.884397" style="fill: #e1812c; stroke: #515151; stroke-width: 1.5"/>
    </g>
   </g>
   <g id="PolyCollection_5">
    <defs>
     <path id="md5979b3db2" d="M 356.51721 -61.245288 
L 356.517165 -61.245288 
L 356.517028 -62.417177 
L 356.517124 -63.589066 
L 356.517183 -64.760955 
L 356.51709 -65.932845 
L 356.516915 -67.104734 
L 356.516898 -68.276623 
L 356.516509 -69.448512 
L 356.515834 -70.620401 
L 356.514773 -71.79229 
L 356.513635 -72.964179 
L 356.51257 -74.136068 
L 356.511602 -75.307957 
L 356.507491 -76.479847 
L 356.503093 -77.651736 
L 356.49759 -78.823625 
L 356.493429 -79.995514 
L 356.489004 -81.167403 
L 356.481033 -82.339292 
L 356.476913 -83.511181 
L 356.466403 -84.68307 
L 356.450148 -85.854959 
L 356.435915 -87.026849 
L 356.415448 -88.198738 
L 356.382255 -89.370627 
L 356.338427 -90.542516 
L 356.305527 -91.714405 
L 356.235884 -92.886294 
L 356.136773 -94.058183 
L 356.040224 -95.230072 
L 355.925641 -96.401961 
L 355.785122 -97.57385 
L 355.59804 -98.74574 
L 355.398784 -99.917629 
L 355.173405 -101.089518 
L 354.912944 -102.261407 
L 354.630442 -103.433296 
L 354.266394 -104.605185 
L 353.882162 -105.777074 
L 353.399745 -106.948963 
L 352.847628 -108.120852 
L 352.305611 -109.292742 
L 351.648289 -110.464631 
L 350.955756 -111.63652 
L 350.201999 -112.808409 
L 349.390579 -113.980298 
L 348.55855 -115.152187 
L 347.787363 -116.324076 
L 346.972595 -117.495965 
L 346.365922 -118.667854 
L 345.812964 -119.839744 
L 345.381423 -121.011633 
L 345.082559 -122.183522 
L 344.968153 -123.355411 
L 344.941275 -124.5273 
L 345.092418 -125.699189 
L 345.444077 -126.871078 
L 345.990319 -128.042967 
L 346.590038 -129.214856 
L 347.238603 -130.386746 
L 347.983885 -131.558635 
L 348.738012 -132.730524 
L 349.567281 -133.902413 
L 350.349263 -135.074302 
L 351.064816 -136.246191 
L 351.780092 -137.41808 
L 352.437516 -138.589969 
L 353.030154 -139.761858 
L 353.53173 -140.933748 
L 353.978382 -142.105637 
L 354.382354 -143.277526 
L 354.717167 -144.449415 
L 355.033954 -145.621304 
L 355.293196 -146.793193 
L 355.494122 -147.965082 
L 355.690018 -149.136971 
L 355.85628 -150.30886 
L 355.999489 -151.480749 
L 356.104998 -152.652639 
L 356.195473 -153.824528 
L 356.268165 -154.996417 
L 356.332903 -156.168306 
L 356.382722 -157.340195 
L 356.415139 -158.512084 
L 356.442879 -159.683973 
L 356.46704 -160.855862 
L 356.481263 -162.027751 
L 356.490321 -163.199641 
L 356.497317 -164.37153 
L 356.504064 -165.543419 
L 356.508076 -166.715308 
L 356.510366 -167.887197 
L 356.512429 -169.059086 
L 356.514282 -170.230975 
L 356.514675 -171.402864 
L 356.515834 -172.574753 
L 356.516018 -173.746643 
L 356.516387 -174.918532 
L 356.5169 -176.090421 
L 356.517162 -177.26231 
L 356.517213 -177.26231 
L 356.517213 -177.26231 
L 356.517475 -176.090421 
L 356.517988 -174.918532 
L 356.518357 -173.746643 
L 356.518541 -172.574753 
L 356.5197 -171.402864 
L 356.520093 -170.230975 
L 356.521946 -169.059086 
L 356.524009 -167.887197 
L 356.526299 -166.715308 
L 356.530311 -165.543419 
L 356.537058 -164.37153 
L 356.544054 -163.199641 
L 356.553112 -162.027751 
L 356.567335 -160.855862 
L 356.591496 -159.683973 
L 356.619236 -158.512084 
L 356.651653 -157.340195 
L 356.701472 -156.168306 
L 356.76621 -154.996417 
L 356.838902 -153.824528 
L 356.929377 -152.652639 
L 357.034886 -151.480749 
L 357.178095 -150.30886 
L 357.344357 -149.136971 
L 357.540253 -147.965082 
L 357.741179 -146.793193 
L 358.000421 -145.621304 
L 358.317208 -144.449415 
L 358.652021 -143.277526 
L 359.055993 -142.105637 
L 359.502645 -140.933748 
L 360.004221 -139.761858 
L 360.596859 -138.589969 
L 361.254283 -137.41808 
L 361.969559 -136.246191 
L 362.685112 -135.074302 
L 363.467094 -133.902413 
L 364.296363 -132.730524 
L 365.05049 -131.558635 
L 365.795772 -130.386746 
L 366.444337 -129.214856 
L 367.044056 -128.042967 
L 367.590298 -126.871078 
L 367.941957 -125.699189 
L 368.0931 -124.5273 
L 368.066222 -123.355411 
L 367.951816 -122.183522 
L 367.652952 -121.011633 
L 367.221411 -119.839744 
L 366.668453 -118.667854 
L 366.06178 -117.495965 
L 365.247012 -116.324076 
L 364.475825 -115.152187 
L 363.643796 -113.980298 
L 362.832376 -112.808409 
L 362.078619 -111.63652 
L 361.386086 -110.464631 
L 360.728764 -109.292742 
L 360.186747 -108.120852 
L 359.63463 -106.948963 
L 359.152213 -105.777074 
L 358.767981 -104.605185 
L 358.403933 -103.433296 
L 358.121431 -102.261407 
L 357.86097 -101.089518 
L 357.635591 -99.917629 
L 357.436335 -98.74574 
L 357.249253 -97.57385 
L 357.108734 -96.401961 
L 356.994151 -95.230072 
L 356.897602 -94.058183 
L 356.798491 -92.886294 
L 356.728848 -91.714405 
L 356.695948 -90.542516 
L 356.65212 -89.370627 
L 356.618927 -88.198738 
L 356.59846 -87.026849 
L 356.584227 -85.854959 
L 356.567972 -84.68307 
L 356.557462 -83.511181 
L 356.553342 -82.339292 
L 356.545371 -81.167403 
L 356.540946 -79.995514 
L 356.536785 -78.823625 
L 356.531282 -77.651736 
L 356.526884 -76.479847 
L 356.522773 -75.307957 
L 356.521805 -74.136068 
L 356.52074 -72.964179 
L 356.519602 -71.79229 
L 356.518541 -70.620401 
L 356.517866 -69.448512 
L 356.517477 -68.276623 
L 356.51746 -67.104734 
L 356.517285 -65.932845 
L 356.517192 -64.760955 
L 356.517251 -63.589066 
L 356.517347 -62.417177 
L 356.51721 -61.245288 
z
" style="stroke: #515151; stroke-width: 1.5"/>
    </defs>
    <g clip-path="url(#p593912a6a9)">
     <use xlink:href="#md5979b3db2" x="0" y="213.884397" style="fill: #e1812c; stroke: #515151; stroke-width: 1.5"/>
    </g>
   </g>
   <g id="PolyCollection_6">
    <defs>
     <path id="mddb6d9909f" d="M 426.46319 -110.169468 
L 426.071185 -110.169468 
L 425.537245 -110.440195 
L 424.237762 -110.710921 
L 421.962984 -110.981648 
L 419.088836 -111.252375 
L 416.459269 -111.523102 
L 414.715477 -111.793829 
L 413.88321 -112.064556 
L 413.607072 -112.335283 
L 413.556452 -112.60601 
L 413.577319 -112.876736 
L 413.629768 -113.147463 
L 413.697788 -113.41819 
L 413.764493 -113.688917 
L 413.824951 -113.959644 
L 413.882273 -114.230371 
L 413.934885 -114.501098 
L 413.978889 -114.771824 
L 414.013816 -115.042551 
L 414.039015 -115.313278 
L 414.053652 -115.584005 
L 414.065899 -115.854732 
L 414.091795 -116.125459 
L 414.139727 -116.396186 
L 414.199243 -116.666912 
L 414.245098 -116.937639 
L 414.25743 -117.208366 
L 414.243597 -117.479093 
L 414.233784 -117.74982 
L 414.253598 -118.020547 
L 414.307124 -118.291274 
L 414.379647 -118.562 
L 414.446976 -118.832727 
L 414.490742 -119.103454 
L 414.512985 -119.374181 
L 414.528864 -119.644908 
L 414.546509 -119.915635 
L 414.564735 -120.186362 
L 414.584941 -120.457088 
L 414.610246 -120.727815 
L 414.635224 -120.998542 
L 414.648624 -121.269269 
L 414.646373 -121.539996 
L 414.636971 -121.810723 
L 414.634729 -122.08145 
L 414.649995 -122.352176 
L 414.681141 -122.622903 
L 414.710872 -122.89363 
L 414.718094 -123.164357 
L 414.697765 -123.435084 
L 414.662165 -123.705811 
L 414.625842 -123.976538 
L 414.598449 -124.247265 
L 414.583741 -124.517991 
L 414.574958 -124.788718 
L 414.558536 -125.059445 
L 414.527161 -125.330172 
L 414.485155 -125.600899 
L 414.442588 -125.871626 
L 414.40707 -126.142353 
L 414.381476 -126.413079 
L 414.367662 -126.683806 
L 414.365333 -126.954533 
L 414.365393 -127.22526 
L 414.353868 -127.495987 
L 414.32626 -127.766714 
L 414.290667 -128.037441 
L 414.254416 -128.308167 
L 414.213977 -128.578894 
L 414.160796 -128.849621 
L 414.09288 -129.120348 
L 414.017926 -129.391075 
L 413.947609 -129.661802 
L 413.889276 -129.932529 
L 413.83753 -130.203255 
L 413.776431 -130.473982 
L 413.697804 -130.744709 
L 413.610647 -131.015436 
L 413.529255 -131.286163 
L 413.462786 -131.55689 
L 413.413836 -131.827617 
L 413.371811 -132.098343 
L 413.312701 -132.36907 
L 413.224435 -132.639797 
L 413.124296 -132.910524 
L 413.037932 -133.181251 
L 412.975044 -133.451978 
L 412.92943 -133.722705 
L 412.889685 -133.993432 
L 412.850846 -134.264158 
L 412.831803 -134.534885 
L 412.909685 -134.805612 
L 413.277833 -135.076339 
L 414.275957 -135.347066 
L 416.229055 -135.617793 
L 419.046647 -135.88852 
L 422.024576 -136.159246 
L 424.312027 -136.429973 
L 425.581277 -136.7007 
L 426.087806 -136.971427 
L 426.446569 -136.971427 
L 426.446569 -136.971427 
L 426.953098 -136.7007 
L 428.222348 -136.429973 
L 430.509799 -136.159246 
L 433.487728 -135.88852 
L 436.30532 -135.617793 
L 438.258418 -135.347066 
L 439.256542 -135.076339 
L 439.62469 -134.805612 
L 439.702572 -134.534885 
L 439.683529 -134.264158 
L 439.64469 -133.993432 
L 439.604945 -133.722705 
L 439.559331 -133.451978 
L 439.496443 -133.181251 
L 439.410079 -132.910524 
L 439.30994 -132.639797 
L 439.221674 -132.36907 
L 439.162564 -132.098343 
L 439.120539 -131.827617 
L 439.071589 -131.55689 
L 439.00512 -131.286163 
L 438.923728 -131.015436 
L 438.836571 -130.744709 
L 438.757944 -130.473982 
L 438.696845 -130.203255 
L 438.645099 -129.932529 
L 438.586766 -129.661802 
L 438.516449 -129.391075 
L 438.441495 -129.120348 
L 438.373579 -128.849621 
L 438.320398 -128.578894 
L 438.279959 -128.308167 
L 438.243708 -128.037441 
L 438.208115 -127.766714 
L 438.180507 -127.495987 
L 438.168982 -127.22526 
L 438.169042 -126.954533 
L 438.166713 -126.683806 
L 438.152899 -126.413079 
L 438.127305 -126.142353 
L 438.091787 -125.871626 
L 438.04922 -125.600899 
L 438.007214 -125.330172 
L 437.975839 -125.059445 
L 437.959417 -124.788718 
L 437.950634 -124.517991 
L 437.935926 -124.247265 
L 437.908533 -123.976538 
L 437.87221 -123.705811 
L 437.83661 -123.435084 
L 437.816281 -123.164357 
L 437.823503 -122.89363 
L 437.853234 -122.622903 
L 437.88438 -122.352176 
L 437.899646 -122.08145 
L 437.897404 -121.810723 
L 437.888002 -121.539996 
L 437.885751 -121.269269 
L 437.899151 -120.998542 
L 437.924129 -120.727815 
L 437.949434 -120.457088 
L 437.96964 -120.186362 
L 437.987866 -119.915635 
L 438.005511 -119.644908 
L 438.02139 -119.374181 
L 438.043633 -119.103454 
L 438.087399 -118.832727 
L 438.154728 -118.562 
L 438.227251 -118.291274 
L 438.280777 -118.020547 
L 438.300591 -117.74982 
L 438.290778 -117.479093 
L 438.276945 -117.208366 
L 438.289277 -116.937639 
L 438.335132 -116.666912 
L 438.394648 -116.396186 
L 438.44258 -116.125459 
L 438.468476 -115.854732 
L 438.480723 -115.584005 
L 438.49536 -115.313278 
L 438.520559 -115.042551 
L 438.555486 -114.771824 
L 438.59949 -114.501098 
L 438.652102 -114.230371 
L 438.709424 -113.959644 
L 438.769882 -113.688917 
L 438.836587 -113.41819 
L 438.904607 -113.147463 
L 438.957056 -112.876736 
L 438.977923 -112.60601 
L 438.927303 -112.335283 
L 438.651165 -112.064556 
L 437.818898 -111.793829 
L 436.075106 -111.523102 
L 433.445539 -111.252375 
L 430.571391 -110.981648 
L 428.296613 -110.710921 
L 426.99713 -110.440195 
L 426.46319 -110.169468 
z
" style="stroke: #515151; stroke-width: 1.5"/>
    </defs>
    <g clip-path="url(#p593912a6a9)">
     <use xlink:href="#mddb6d9909f" x="0" y="213.884397" style="fill: #e1812c; stroke: #515151; stroke-width: 1.5"/>
    </g>
   </g>
   <g id="PolyCollection_7">
    <defs>
     <path id="m1d9e29c64d" d="M 496.017226 -59.170905 
L 496.017149 -59.170905 
L 496.016858 -60.586064 
L 496.01595 -62.001223 
L 496.013951 -63.416383 
L 496.009446 -64.831542 
L 496.002441 -66.246701 
L 495.992915 -67.66186 
L 495.980316 -69.07702 
L 495.968473 -70.492179 
L 495.961533 -71.907338 
L 495.953213 -73.322497 
L 495.941687 -74.737657 
L 495.935014 -76.152816 
L 495.923725 -77.567975 
L 495.901539 -78.983134 
L 495.870031 -80.398294 
L 495.82676 -81.813453 
L 495.76193 -83.228612 
L 495.674829 -84.643771 
L 495.560415 -86.05893 
L 495.411 -87.47409 
L 495.249782 -88.889249 
L 495.082879 -90.304408 
L 494.902179 -91.719567 
L 494.69775 -93.134727 
L 494.458361 -94.549886 
L 494.20027 -95.965045 
L 493.933675 -97.380204 
L 493.625024 -98.795364 
L 493.252536 -100.210523 
L 492.829528 -101.625682 
L 492.419746 -103.040841 
L 492.008349 -104.456001 
L 491.563981 -105.87116 
L 491.101439 -107.286319 
L 490.695226 -108.701478 
L 490.345798 -110.116637 
L 490.026212 -111.531797 
L 489.800352 -112.946956 
L 489.708094 -114.362115 
L 489.669036 -115.777274 
L 489.697459 -117.192434 
L 489.771753 -118.607593 
L 489.819997 -120.022752 
L 489.830058 -121.437911 
L 489.854531 -122.853071 
L 489.87394 -124.26823 
L 489.862292 -125.683389 
L 489.8171 -127.098548 
L 489.768281 -128.513708 
L 489.713536 -129.928867 
L 489.675376 -131.344026 
L 489.706705 -132.759185 
L 489.820629 -134.174345 
L 489.963661 -135.589504 
L 490.156153 -137.004663 
L 490.460504 -138.419822 
L 490.838161 -139.834981 
L 491.254991 -141.250141 
L 491.663865 -142.6653 
L 492.041542 -144.080459 
L 492.443182 -145.495618 
L 492.843417 -146.910778 
L 493.230511 -148.325937 
L 493.601448 -149.741096 
L 493.943666 -151.156255 
L 494.237078 -152.571415 
L 494.47672 -153.986574 
L 494.674485 -155.401733 
L 494.890408 -156.816892 
L 495.105223 -158.232052 
L 495.269155 -159.647211 
L 495.401225 -161.06237 
L 495.523155 -162.477529 
L 495.625447 -163.892688 
L 495.712363 -165.307848 
L 495.770737 -166.723007 
L 495.815285 -168.138166 
L 495.854092 -169.553325 
L 495.8853 -170.968485 
L 495.912812 -172.383644 
L 495.933378 -173.798803 
L 495.948475 -175.213962 
L 495.962765 -176.629122 
L 495.976909 -178.044281 
L 495.988839 -179.45944 
L 495.996401 -180.874599 
L 496.00247 -182.289759 
L 496.008315 -183.704918 
L 496.012427 -185.120077 
L 496.014747 -186.535236 
L 496.015612 -187.950396 
L 496.016275 -189.365555 
L 496.016737 -190.780714 
L 496.01679 -192.195873 
L 496.016952 -193.611032 
L 496.017086 -195.026192 
L 496.017005 -196.441351 
L 496.017052 -197.85651 
L 496.017162 -199.271669 
L 496.017213 -199.271669 
L 496.017213 -199.271669 
L 496.017323 -197.85651 
L 496.01737 -196.441351 
L 496.017289 -195.026192 
L 496.017423 -193.611032 
L 496.017585 -192.195873 
L 496.017638 -190.780714 
L 496.0181 -189.365555 
L 496.018763 -187.950396 
L 496.019628 -186.535236 
L 496.021948 -185.120077 
L 496.02606 -183.704918 
L 496.031905 -182.289759 
L 496.037974 -180.874599 
L 496.045536 -179.45944 
L 496.057466 -178.044281 
L 496.07161 -176.629122 
L 496.0859 -175.213962 
L 496.100997 -173.798803 
L 496.121563 -172.383644 
L 496.149075 -170.968485 
L 496.180283 -169.553325 
L 496.21909 -168.138166 
L 496.263638 -166.723007 
L 496.322012 -165.307848 
L 496.408928 -163.892688 
L 496.51122 -162.477529 
L 496.63315 -161.06237 
L 496.76522 -159.647211 
L 496.929152 -158.232052 
L 497.143967 -156.816892 
L 497.35989 -155.401733 
L 497.557655 -153.986574 
L 497.797297 -152.571415 
L 498.090709 -151.156255 
L 498.432927 -149.741096 
L 498.803864 -148.325937 
L 499.190958 -146.910778 
L 499.591193 -145.495618 
L 499.992833 -144.080459 
L 500.37051 -142.6653 
L 500.779384 -141.250141 
L 501.196214 -139.834981 
L 501.573871 -138.419822 
L 501.878222 -137.004663 
L 502.070714 -135.589504 
L 502.213746 -134.174345 
L 502.32767 -132.759185 
L 502.358999 -131.344026 
L 502.320839 -129.928867 
L 502.266094 -128.513708 
L 502.217275 -127.098548 
L 502.172083 -125.683389 
L 502.160435 -124.26823 
L 502.179844 -122.853071 
L 502.204317 -121.437911 
L 502.214378 -120.022752 
L 502.262622 -118.607593 
L 502.336916 -117.192434 
L 502.365339 -115.777274 
L 502.326281 -114.362115 
L 502.234023 -112.946956 
L 502.008163 -111.531797 
L 501.688577 -110.116637 
L 501.339149 -108.701478 
L 500.932936 -107.286319 
L 500.470394 -105.87116 
L 500.026026 -104.456001 
L 499.614629 -103.040841 
L 499.204847 -101.625682 
L 498.781839 -100.210523 
L 498.409351 -98.795364 
L 498.1007 -97.380204 
L 497.834105 -95.965045 
L 497.576014 -94.549886 
L 497.336625 -93.134727 
L 497.132196 -91.719567 
L 496.951496 -90.304408 
L 496.784593 -88.889249 
L 496.623375 -87.47409 
L 496.47396 -86.05893 
L 496.359546 -84.643771 
L 496.272445 -83.228612 
L 496.207615 -81.813453 
L 496.164344 -80.398294 
L 496.132836 -78.983134 
L 496.11065 -77.567975 
L 496.099361 -76.152816 
L 496.092688 -74.737657 
L 496.081162 -73.322497 
L 496.072842 -71.907338 
L 496.065902 -70.492179 
L 496.054059 -69.07702 
L 496.04146 -67.66186 
L 496.031934 -66.246701 
L 496.024929 -64.831542 
L 496.020424 -63.416383 
L 496.018425 -62.001223 
L 496.017517 -60.586064 
L 496.017226 -59.170905 
z
" style="stroke: #515151; stroke-width: 1.5"/>
    </defs>
    <g clip-path="url(#p593912a6a9)">
     <use xlink:href="#m1d9e29c64d" x="0" y="213.884397" style="fill: #e1812c; stroke: #515151; stroke-width: 1.5"/>
    </g>
   </g>
   <g id="PolyCollection_8">
    <defs>
     <path id="m35d8e826bf" d="M 566.683926 -109.7799 
L 564.850449 -109.7799 
L 563.476475 -110.058551 
L 560.904723 -110.337202 
L 556.948048 -110.615853 
L 551.990208 -110.894504 
L 547.02469 -111.173155 
L 543.226662 -111.451806 
L 541.324962 -111.730457 
L 541.280849 -112.009108 
L 542.487502 -112.287759 
L 544.227725 -112.56641 
L 546.002191 -112.845061 
L 547.588616 -113.123712 
L 548.942371 -113.402362 
L 550.088076 -113.681013 
L 551.063622 -113.959664 
L 551.905322 -114.238315 
L 552.646746 -114.516966 
L 553.316496 -114.795617 
L 553.933514 -115.074268 
L 554.504252 -115.352919 
L 555.02539 -115.63157 
L 555.49137 -115.910221 
L 555.902039 -116.188872 
L 556.265569 -116.467523 
L 556.595452 -116.746174 
L 556.904202 -117.024825 
L 557.197757 -117.303476 
L 557.473935 -117.582127 
L 557.726282 -117.860777 
L 557.951134 -118.139428 
L 558.152238 -118.418079 
L 558.338308 -118.69673 
L 558.515339 -118.975381 
L 558.681221 -119.254032 
L 558.828032 -119.532683 
L 558.949422 -119.811334 
L 559.045707 -120.089985 
L 559.122886 -120.368636 
L 559.188485 -120.647287 
L 559.248645 -120.925938 
L 559.307225 -121.204589 
L 559.365376 -121.48324 
L 559.421433 -121.761891 
L 559.472133 -122.040542 
L 559.514785 -122.319192 
L 559.548586 -122.597843 
L 559.574094 -122.876494 
L 559.591871 -123.155145 
L 559.602074 -123.433796 
L 559.605184 -123.712447 
L 559.602253 -123.991098 
L 559.593852 -124.269749 
L 559.579152 -124.5484 
L 559.556434 -124.827051 
L 559.52419 -125.105702 
L 559.481594 -125.384353 
L 559.428454 -125.663004 
L 559.365014 -125.941655 
L 559.291388 -126.220306 
L 559.207199 -126.498957 
L 559.112382 -126.777607 
L 559.008262 -127.056258 
L 558.896778 -127.334909 
L 558.778123 -127.61356 
L 558.64975 -127.892211 
L 558.507951 -128.170862 
L 558.349591 -128.449513 
L 558.171886 -128.728164 
L 557.971704 -129.006815 
L 557.746725 -129.285466 
L 557.497283 -129.564117 
L 557.225553 -129.842768 
L 556.932093 -130.121419 
L 556.613856 -130.40007 
L 556.266234 -130.678721 
L 555.886217 -130.957372 
L 555.472189 -131.236022 
L 555.020132 -131.514673 
L 554.520039 -131.793324 
L 553.955658 -132.071975 
L 553.307433 -132.350626 
L 552.556642 -132.629277 
L 551.688056 -132.907928 
L 550.687828 -133.186579 
L 549.534804 -133.46523 
L 548.188544 -133.743881 
L 546.584792 -134.022532 
L 544.658329 -134.301183 
L 542.420953 -134.579834 
L 540.103664 -134.858485 
L 538.290848 -135.137136 
L 537.867188 -135.415787 
L 539.63205 -135.694437 
L 543.730339 -135.973088 
L 549.366825 -136.251739 
L 555.151966 -136.53039 
L 559.855649 -136.809041 
L 562.956668 -137.087692 
L 564.632872 -137.366343 
L 566.901503 -137.366343 
L 566.901503 -137.366343 
L 568.577707 -137.087692 
L 571.678726 -136.809041 
L 576.382409 -136.53039 
L 582.16755 -136.251739 
L 587.804036 -135.973088 
L 591.902325 -135.694437 
L 593.667187 -135.415787 
L 593.243527 -135.137136 
L 591.430711 -134.858485 
L 589.113422 -134.579834 
L 586.876046 -134.301183 
L 584.949583 -134.022532 
L 583.345831 -133.743881 
L 581.999571 -133.46523 
L 580.846547 -133.186579 
L 579.846319 -132.907928 
L 578.977733 -132.629277 
L 578.226942 -132.350626 
L 577.578717 -132.071975 
L 577.014336 -131.793324 
L 576.514243 -131.514673 
L 576.062186 -131.236022 
L 575.648158 -130.957372 
L 575.268141 -130.678721 
L 574.920519 -130.40007 
L 574.602282 -130.121419 
L 574.308822 -129.842768 
L 574.037092 -129.564117 
L 573.78765 -129.285466 
L 573.562671 -129.006815 
L 573.362489 -128.728164 
L 573.184784 -128.449513 
L 573.026424 -128.170862 
L 572.884625 -127.892211 
L 572.756252 -127.61356 
L 572.637597 -127.334909 
L 572.526113 -127.056258 
L 572.421993 -126.777607 
L 572.327176 -126.498957 
L 572.242987 -126.220306 
L 572.169361 -125.941655 
L 572.105921 -125.663004 
L 572.052781 -125.384353 
L 572.010185 -125.105702 
L 571.977941 -124.827051 
L 571.955223 -124.5484 
L 571.940523 -124.269749 
L 571.932122 -123.991098 
L 571.929191 -123.712447 
L 571.932301 -123.433796 
L 571.942504 -123.155145 
L 571.960281 -122.876494 
L 571.985789 -122.597843 
L 572.01959 -122.319192 
L 572.062242 -122.040542 
L 572.112942 -121.761891 
L 572.168999 -121.48324 
L 572.22715 -121.204589 
L 572.28573 -120.925938 
L 572.34589 -120.647287 
L 572.411489 -120.368636 
L 572.488668 -120.089985 
L 572.584953 -119.811334 
L 572.706343 -119.532683 
L 572.853154 -119.254032 
L 573.019036 -118.975381 
L 573.196067 -118.69673 
L 573.382137 -118.418079 
L 573.583241 -118.139428 
L 573.808093 -117.860777 
L 574.06044 -117.582127 
L 574.336618 -117.303476 
L 574.630173 -117.024825 
L 574.938923 -116.746174 
L 575.268806 -116.467523 
L 575.632336 -116.188872 
L 576.043005 -115.910221 
L 576.508985 -115.63157 
L 577.030123 -115.352919 
L 577.600861 -115.074268 
L 578.217879 -114.795617 
L 578.887629 -114.516966 
L 579.629053 -114.238315 
L 580.470753 -113.959664 
L 581.446299 -113.681013 
L 582.592004 -113.402362 
L 583.945759 -113.123712 
L 585.532184 -112.845061 
L 587.30665 -112.56641 
L 589.046873 -112.287759 
L 590.253526 -112.009108 
L 590.209413 -111.730457 
L 588.307713 -111.451806 
L 584.509685 -111.173155 
L 579.544167 -110.894504 
L 574.586327 -110.615853 
L 570.629652 -110.337202 
L 568.0579 -110.058551 
L 566.683926 -109.7799 
z
" style="stroke: #515151; stroke-width: 1.5"/>
    </defs>
    <g clip-path="url(#p593912a6a9)">
     <use xlink:href="#m35d8e826bf" x="0" y="213.884397" style="fill: #e1812c; stroke: #515151; stroke-width: 1.5"/>
    </g>
   </g>
   <g id="matplotlib.axis_1">
    <g id="xtick_1">
     <g id="line2d_1">
      <defs>
       <path id="md6cdd81f59" d="M 0 0 
L 0 3.5 
" style="stroke: #000000; stroke-width: 0.8"/>
      </defs>
      <g>
       <use xlink:href="#md6cdd81f59" x="77.517188" y="170.28" style="stroke: #000000; stroke-width: 0.8"/>
      </g>
     </g>
     <g id="text_1">
      <!-- dense_1 -->
      <g transform="translate(60.829577 204.642471)rotate(-30)scale(0.1 -0.1)">
       <defs>
        <path id="DejaVuSans-64" d="M 2906 2969 
L 2906 4863 
L 3481 4863 
L 3481 0 
L 2906 0 
L 2906 525 
Q 2725 213 2448 61 
Q 2172 -91 1784 -91 
Q 1150 -91 751 415 
Q 353 922 353 1747 
Q 353 2572 751 3078 
Q 1150 3584 1784 3584 
Q 2172 3584 2448 3432 
Q 2725 3281 2906 2969 
z
M 947 1747 
Q 947 1113 1208 752 
Q 1469 391 1925 391 
Q 2381 391 2643 752 
Q 2906 1113 2906 1747 
Q 2906 2381 2643 2742 
Q 2381 3103 1925 3103 
Q 1469 3103 1208 2742 
Q 947 2381 947 1747 
z
" transform="scale(0.015625)"/>
        <path id="DejaVuSans-65" d="M 3597 1894 
L 3597 1613 
L 953 1613 
Q 991 1019 1311 708 
Q 1631 397 2203 397 
Q 2534 397 2845 478 
Q 3156 559 3463 722 
L 3463 178 
Q 3153 47 2828 -22 
Q 2503 -91 2169 -91 
Q 1331 -91 842 396 
Q 353 884 353 1716 
Q 353 2575 817 3079 
Q 1281 3584 2069 3584 
Q 2775 3584 3186 3129 
Q 3597 2675 3597 1894 
z
M 3022 2063 
Q 3016 2534 2758 2815 
Q 2500 3097 2075 3097 
Q 1594 3097 1305 2825 
Q 1016 2553 972 2059 
L 3022 2063 
z
" transform="scale(0.015625)"/>
        <path id="DejaVuSans-6e" d="M 3513 2113 
L 3513 0 
L 2938 0 
L 2938 2094 
Q 2938 2591 2744 2837 
Q 2550 3084 2163 3084 
Q 1697 3084 1428 2787 
Q 1159 2491 1159 1978 
L 1159 0 
L 581 0 
L 581 3500 
L 1159 3500 
L 1159 2956 
Q 1366 3272 1645 3428 
Q 1925 3584 2291 3584 
Q 2894 3584 3203 3211 
Q 3513 2838 3513 2113 
z
" transform="scale(0.015625)"/>
        <path id="DejaVuSans-73" d="M 2834 3397 
L 2834 2853 
Q 2591 2978 2328 3040 
Q 2066 3103 1784 3103 
Q 1356 3103 1142 2972 
Q 928 2841 928 2578 
Q 928 2378 1081 2264 
Q 1234 2150 1697 2047 
L 1894 2003 
Q 2506 1872 2764 1633 
Q 3022 1394 3022 966 
Q 3022 478 2636 193 
Q 2250 -91 1575 -91 
Q 1294 -91 989 -36 
Q 684 19 347 128 
L 347 722 
Q 666 556 975 473 
Q 1284 391 1588 391 
Q 1994 391 2212 530 
Q 2431 669 2431 922 
Q 2431 1156 2273 1281 
Q 2116 1406 1581 1522 
L 1381 1569 
Q 847 1681 609 1914 
Q 372 2147 372 2553 
Q 372 3047 722 3315 
Q 1072 3584 1716 3584 
Q 2034 3584 2315 3537 
Q 2597 3491 2834 3397 
z
" transform="scale(0.015625)"/>
        <path id="DejaVuSans-5f" d="M 3263 -1063 
L 3263 -1509 
L -63 -1509 
L -63 -1063 
L 3263 -1063 
z
" transform="scale(0.015625)"/>
        <path id="DejaVuSans-31" d="M 794 531 
L 1825 531 
L 1825 4091 
L 703 3866 
L 703 4441 
L 1819 4666 
L 2450 4666 
L 2450 531 
L 3481 531 
L 3481 0 
L 794 0 
L 794 531 
z
" transform="scale(0.015625)"/>
       </defs>
       <use xlink:href="#DejaVuSans-64"/>
       <use xlink:href="#DejaVuSans-65" x="63.476562"/>
       <use xlink:href="#DejaVuSans-6e" x="125"/>
       <use xlink:href="#DejaVuSans-73" x="188.378906"/>
       <use xlink:href="#DejaVuSans-65" x="240.478516"/>
       <use xlink:href="#DejaVuSans-5f" x="302.001953"/>
       <use xlink:href="#DejaVuSans-31" x="352.001953"/>
      </g>
     </g>
    </g>
    <g id="xtick_2">
     <g id="line2d_2">
      <g>
       <use xlink:href="#md6cdd81f59" x="147.267188" y="170.28" style="stroke: #000000; stroke-width: 0.8"/>
      </g>
     </g>
     <g id="text_2">
      <!-- tanh_2 -->
      <g transform="translate(133.8177 200.903409)rotate(-30)scale(0.1 -0.1)">
       <defs>
        <path id="DejaVuSans-74" d="M 1172 4494 
L 1172 3500 
L 2356 3500 
L 2356 3053 
L 1172 3053 
L 1172 1153 
Q 1172 725 1289 603 
Q 1406 481 1766 481 
L 2356 481 
L 2356 0 
L 1766 0 
Q 1100 0 847 248 
Q 594 497 594 1153 
L 594 3053 
L 172 3053 
L 172 3500 
L 594 3500 
L 594 4494 
L 1172 4494 
z
" transform="scale(0.015625)"/>
        <path id="DejaVuSans-61" d="M 2194 1759 
Q 1497 1759 1228 1600 
Q 959 1441 959 1056 
Q 959 750 1161 570 
Q 1363 391 1709 391 
Q 2188 391 2477 730 
Q 2766 1069 2766 1631 
L 2766 1759 
L 2194 1759 
z
M 3341 1997 
L 3341 0 
L 2766 0 
L 2766 531 
Q 2569 213 2275 61 
Q 1981 -91 1556 -91 
Q 1019 -91 701 211 
Q 384 513 384 1019 
Q 384 1609 779 1909 
Q 1175 2209 1959 2209 
L 2766 2209 
L 2766 2266 
Q 2766 2663 2505 2880 
Q 2244 3097 1772 3097 
Q 1472 3097 1187 3025 
Q 903 2953 641 2809 
L 641 3341 
Q 956 3463 1253 3523 
Q 1550 3584 1831 3584 
Q 2591 3584 2966 3190 
Q 3341 2797 3341 1997 
z
" transform="scale(0.015625)"/>
        <path id="DejaVuSans-68" d="M 3513 2113 
L 3513 0 
L 2938 0 
L 2938 2094 
Q 2938 2591 2744 2837 
Q 2550 3084 2163 3084 
Q 1697 3084 1428 2787 
Q 1159 2491 1159 1978 
L 1159 0 
L 581 0 
L 581 4863 
L 1159 4863 
L 1159 2956 
Q 1366 3272 1645 3428 
Q 1925 3584 2291 3584 
Q 2894 3584 3203 3211 
Q 3513 2838 3513 2113 
z
" transform="scale(0.015625)"/>
        <path id="DejaVuSans-32" d="M 1228 531 
L 3431 531 
L 3431 0 
L 469 0 
L 469 531 
Q 828 903 1448 1529 
Q 2069 2156 2228 2338 
Q 2531 2678 2651 2914 
Q 2772 3150 2772 3378 
Q 2772 3750 2511 3984 
Q 2250 4219 1831 4219 
Q 1534 4219 1204 4116 
Q 875 4013 500 3803 
L 500 4441 
Q 881 4594 1212 4672 
Q 1544 4750 1819 4750 
Q 2544 4750 2975 4387 
Q 3406 4025 3406 3419 
Q 3406 3131 3298 2873 
Q 3191 2616 2906 2266 
Q 2828 2175 2409 1742 
Q 1991 1309 1228 531 
z
" transform="scale(0.015625)"/>
       </defs>
       <use xlink:href="#DejaVuSans-74"/>
       <use xlink:href="#DejaVuSans-61" x="39.208984"/>
       <use xlink:href="#DejaVuSans-6e" x="100.488281"/>
       <use xlink:href="#DejaVuSans-68" x="163.867188"/>
       <use xlink:href="#DejaVuSans-5f" x="227.246094"/>
       <use xlink:href="#DejaVuSans-32" x="277.246094"/>
      </g>
     </g>
    </g>
    <g id="xtick_3">
     <g id="line2d_3">
      <g>
       <use xlink:href="#md6cdd81f59" x="217.017188" y="170.28" style="stroke: #000000; stroke-width: 0.8"/>
      </g>
     </g>
     <g id="text_3">
      <!-- dense_3 -->
      <g transform="translate(200.329577 204.642471)rotate(-30)scale(0.1 -0.1)">
       <defs>
        <path id="DejaVuSans-33" d="M 2597 2516 
Q 3050 2419 3304 2112 
Q 3559 1806 3559 1356 
Q 3559 666 3084 287 
Q 2609 -91 1734 -91 
Q 1441 -91 1130 -33 
Q 819 25 488 141 
L 488 750 
Q 750 597 1062 519 
Q 1375 441 1716 441 
Q 2309 441 2620 675 
Q 2931 909 2931 1356 
Q 2931 1769 2642 2001 
Q 2353 2234 1838 2234 
L 1294 2234 
L 1294 2753 
L 1863 2753 
Q 2328 2753 2575 2939 
Q 2822 3125 2822 3475 
Q 2822 3834 2567 4026 
Q 2313 4219 1838 4219 
Q 1578 4219 1281 4162 
Q 984 4106 628 3988 
L 628 4550 
Q 988 4650 1302 4700 
Q 1616 4750 1894 4750 
Q 2613 4750 3031 4423 
Q 3450 4097 3450 3541 
Q 3450 3153 3228 2886 
Q 3006 2619 2597 2516 
z
" transform="scale(0.015625)"/>
       </defs>
       <use xlink:href="#DejaVuSans-64"/>
       <use xlink:href="#DejaVuSans-65" x="63.476562"/>
       <use xlink:href="#DejaVuSans-6e" x="125"/>
       <use xlink:href="#DejaVuSans-73" x="188.378906"/>
       <use xlink:href="#DejaVuSans-65" x="240.478516"/>
       <use xlink:href="#DejaVuSans-5f" x="302.001953"/>
       <use xlink:href="#DejaVuSans-33" x="352.001953"/>
      </g>
     </g>
    </g>
    <g id="xtick_4">
     <g id="line2d_4">
      <g>
       <use xlink:href="#md6cdd81f59" x="286.767187" y="170.28" style="stroke: #000000; stroke-width: 0.8"/>
      </g>
     </g>
     <g id="text_4">
      <!-- tanh_4 -->
      <g transform="translate(273.3177 200.903409)rotate(-30)scale(0.1 -0.1)">
       <defs>
        <path id="DejaVuSans-34" d="M 2419 4116 
L 825 1625 
L 2419 1625 
L 2419 4116 
z
M 2253 4666 
L 3047 4666 
L 3047 1625 
L 3713 1625 
L 3713 1100 
L 3047 1100 
L 3047 0 
L 2419 0 
L 2419 1100 
L 313 1100 
L 313 1709 
L 2253 4666 
z
" transform="scale(0.015625)"/>
       </defs>
       <use xlink:href="#DejaVuSans-74"/>
       <use xlink:href="#DejaVuSans-61" x="39.208984"/>
       <use xlink:href="#DejaVuSans-6e" x="100.488281"/>
       <use xlink:href="#DejaVuSans-68" x="163.867188"/>
       <use xlink:href="#DejaVuSans-5f" x="227.246094"/>
       <use xlink:href="#DejaVuSans-34" x="277.246094"/>
      </g>
     </g>
    </g>
    <g id="xtick_5">
     <g id="line2d_5">
      <g>
       <use xlink:href="#md6cdd81f59" x="356.517187" y="170.28" style="stroke: #000000; stroke-width: 0.8"/>
      </g>
     </g>
     <g id="text_5">
      <!-- dense_5 -->
      <g transform="translate(339.829577 204.642471)rotate(-30)scale(0.1 -0.1)">
       <defs>
        <path id="DejaVuSans-35" d="M 691 4666 
L 3169 4666 
L 3169 4134 
L 1269 4134 
L 1269 2991 
Q 1406 3038 1543 3061 
Q 1681 3084 1819 3084 
Q 2600 3084 3056 2656 
Q 3513 2228 3513 1497 
Q 3513 744 3044 326 
Q 2575 -91 1722 -91 
Q 1428 -91 1123 -41 
Q 819 9 494 109 
L 494 744 
Q 775 591 1075 516 
Q 1375 441 1709 441 
Q 2250 441 2565 725 
Q 2881 1009 2881 1497 
Q 2881 1984 2565 2268 
Q 2250 2553 1709 2553 
Q 1456 2553 1204 2497 
Q 953 2441 691 2322 
L 691 4666 
z
" transform="scale(0.015625)"/>
       </defs>
       <use xlink:href="#DejaVuSans-64"/>
       <use xlink:href="#DejaVuSans-65" x="63.476562"/>
       <use xlink:href="#DejaVuSans-6e" x="125"/>
       <use xlink:href="#DejaVuSans-73" x="188.378906"/>
       <use xlink:href="#DejaVuSans-65" x="240.478516"/>
       <use xlink:href="#DejaVuSans-5f" x="302.001953"/>
       <use xlink:href="#DejaVuSans-35" x="352.001953"/>
      </g>
     </g>
    </g>
    <g id="xtick_6">
     <g id="line2d_6">
      <g>
       <use xlink:href="#md6cdd81f59" x="426.267187" y="170.28" style="stroke: #000000; stroke-width: 0.8"/>
      </g>
     </g>
     <g id="text_6">
      <!-- tanh_6 -->
      <g transform="translate(412.8177 200.903409)rotate(-30)scale(0.1 -0.1)">
       <defs>
        <path id="DejaVuSans-36" d="M 2113 2584 
Q 1688 2584 1439 2293 
Q 1191 2003 1191 1497 
Q 1191 994 1439 701 
Q 1688 409 2113 409 
Q 2538 409 2786 701 
Q 3034 994 3034 1497 
Q 3034 2003 2786 2293 
Q 2538 2584 2113 2584 
z
M 3366 4563 
L 3366 3988 
Q 3128 4100 2886 4159 
Q 2644 4219 2406 4219 
Q 1781 4219 1451 3797 
Q 1122 3375 1075 2522 
Q 1259 2794 1537 2939 
Q 1816 3084 2150 3084 
Q 2853 3084 3261 2657 
Q 3669 2231 3669 1497 
Q 3669 778 3244 343 
Q 2819 -91 2113 -91 
Q 1303 -91 875 529 
Q 447 1150 447 2328 
Q 447 3434 972 4092 
Q 1497 4750 2381 4750 
Q 2619 4750 2861 4703 
Q 3103 4656 3366 4563 
z
" transform="scale(0.015625)"/>
       </defs>
       <use xlink:href="#DejaVuSans-74"/>
       <use xlink:href="#DejaVuSans-61" x="39.208984"/>
       <use xlink:href="#DejaVuSans-6e" x="100.488281"/>
       <use xlink:href="#DejaVuSans-68" x="163.867188"/>
       <use xlink:href="#DejaVuSans-5f" x="227.246094"/>
       <use xlink:href="#DejaVuSans-36" x="277.246094"/>
      </g>
     </g>
    </g>
    <g id="xtick_7">
     <g id="line2d_7">
      <g>
       <use xlink:href="#md6cdd81f59" x="496.017187" y="170.28" style="stroke: #000000; stroke-width: 0.8"/>
      </g>
     </g>
     <g id="text_7">
      <!-- dense_7 -->
      <g transform="translate(479.329577 204.642471)rotate(-30)scale(0.1 -0.1)">
       <defs>
        <path id="DejaVuSans-37" d="M 525 4666 
L 3525 4666 
L 3525 4397 
L 1831 0 
L 1172 0 
L 2766 4134 
L 525 4134 
L 525 4666 
z
" transform="scale(0.015625)"/>
       </defs>
       <use xlink:href="#DejaVuSans-64"/>
       <use xlink:href="#DejaVuSans-65" x="63.476562"/>
       <use xlink:href="#DejaVuSans-6e" x="125"/>
       <use xlink:href="#DejaVuSans-73" x="188.378906"/>
       <use xlink:href="#DejaVuSans-65" x="240.478516"/>
       <use xlink:href="#DejaVuSans-5f" x="302.001953"/>
       <use xlink:href="#DejaVuSans-37" x="352.001953"/>
      </g>
     </g>
    </g>
    <g id="xtick_8">
     <g id="line2d_8">
      <g>
       <use xlink:href="#md6cdd81f59" x="565.767187" y="170.28" style="stroke: #000000; stroke-width: 0.8"/>
      </g>
     </g>
     <g id="text_8">
      <!-- tanh_8 -->
      <g transform="translate(552.3177 200.903409)rotate(-30)scale(0.1 -0.1)">
       <defs>
        <path id="DejaVuSans-38" d="M 2034 2216 
Q 1584 2216 1326 1975 
Q 1069 1734 1069 1313 
Q 1069 891 1326 650 
Q 1584 409 2034 409 
Q 2484 409 2743 651 
Q 3003 894 3003 1313 
Q 3003 1734 2745 1975 
Q 2488 2216 2034 2216 
z
M 1403 2484 
Q 997 2584 770 2862 
Q 544 3141 544 3541 
Q 544 4100 942 4425 
Q 1341 4750 2034 4750 
Q 2731 4750 3128 4425 
Q 3525 4100 3525 3541 
Q 3525 3141 3298 2862 
Q 3072 2584 2669 2484 
Q 3125 2378 3379 2068 
Q 3634 1759 3634 1313 
Q 3634 634 3220 271 
Q 2806 -91 2034 -91 
Q 1263 -91 848 271 
Q 434 634 434 1313 
Q 434 1759 690 2068 
Q 947 2378 1403 2484 
z
M 1172 3481 
Q 1172 3119 1398 2916 
Q 1625 2713 2034 2713 
Q 2441 2713 2670 2916 
Q 2900 3119 2900 3481 
Q 2900 3844 2670 4047 
Q 2441 4250 2034 4250 
Q 1625 4250 1398 4047 
Q 1172 3844 1172 3481 
z
" transform="scale(0.015625)"/>
       </defs>
       <use xlink:href="#DejaVuSans-74"/>
       <use xlink:href="#DejaVuSans-61" x="39.208984"/>
       <use xlink:href="#DejaVuSans-6e" x="100.488281"/>
       <use xlink:href="#DejaVuSans-68" x="163.867188"/>
       <use xlink:href="#DejaVuSans-5f" x="227.246094"/>
       <use xlink:href="#DejaVuSans-38" x="277.246094"/>
      </g>
     </g>
    </g>
   </g>
   <g id="matplotlib.axis_2">
    <g id="ytick_1">
     <g id="line2d_9">
      <defs>
       <path id="m7f6cf38c1b" d="M 0 0 
L -3.5 0 
" style="stroke: #000000; stroke-width: 0.8"/>
      </defs>
      <g>
       <use xlink:href="#m7f6cf38c1b" x="42.642188" y="165.279153" style="stroke: #000000; stroke-width: 0.8"/>
      </g>
     </g>
     <g id="text_9">
      <!-- 6 -->
      <g transform="translate(20.9 169.078371)scale(0.1 -0.1)">
       <defs>
        <path id="DejaVuSans-2212" d="M 678 2272 
L 4684 2272 
L 4684 1741 
L 678 1741 
L 678 2272 
z
" transform="scale(0.015625)"/>
       </defs>
       <use xlink:href="#DejaVuSans-2212"/>
       <use xlink:href="#DejaVuSans-36" x="83.789062"/>
      </g>
     </g>
    </g>
    <g id="ytick_2">
     <g id="line2d_10">
      <g>
       <use xlink:href="#m7f6cf38c1b" x="42.642188" y="140.290031" style="stroke: #000000; stroke-width: 0.8"/>
      </g>
     </g>
     <g id="text_10">
      <!-- 4 -->
      <g transform="translate(20.9 144.08925)scale(0.1 -0.1)">
       <use xlink:href="#DejaVuSans-2212"/>
       <use xlink:href="#DejaVuSans-34" x="83.789062"/>
      </g>
     </g>
    </g>
    <g id="ytick_3">
     <g id="line2d_11">
      <g>
       <use xlink:href="#m7f6cf38c1b" x="42.642188" y="115.300909" style="stroke: #000000; stroke-width: 0.8"/>
      </g>
     </g>
     <g id="text_11">
      <!-- 2 -->
      <g transform="translate(20.9 119.100128)scale(0.1 -0.1)">
       <use xlink:href="#DejaVuSans-2212"/>
       <use xlink:href="#DejaVuSans-32" x="83.789062"/>
      </g>
     </g>
    </g>
    <g id="ytick_4">
     <g id="line2d_12">
      <g>
       <use xlink:href="#m7f6cf38c1b" x="42.642188" y="90.311788" style="stroke: #000000; stroke-width: 0.8"/>
      </g>
     </g>
     <g id="text_12">
      <!-- 0 -->
      <g transform="translate(29.279688 94.111006)scale(0.1 -0.1)">
       <defs>
        <path id="DejaVuSans-30" d="M 2034 4250 
Q 1547 4250 1301 3770 
Q 1056 3291 1056 2328 
Q 1056 1369 1301 889 
Q 1547 409 2034 409 
Q 2525 409 2770 889 
Q 3016 1369 3016 2328 
Q 3016 3291 2770 3770 
Q 2525 4250 2034 4250 
z
M 2034 4750 
Q 2819 4750 3233 4129 
Q 3647 3509 3647 2328 
Q 3647 1150 3233 529 
Q 2819 -91 2034 -91 
Q 1250 -91 836 529 
Q 422 1150 422 2328 
Q 422 3509 836 4129 
Q 1250 4750 2034 4750 
z
" transform="scale(0.015625)"/>
       </defs>
       <use xlink:href="#DejaVuSans-30"/>
      </g>
     </g>
    </g>
    <g id="ytick_5">
     <g id="line2d_13">
      <g>
       <use xlink:href="#m7f6cf38c1b" x="42.642188" y="65.322666" style="stroke: #000000; stroke-width: 0.8"/>
      </g>
     </g>
     <g id="text_13">
      <!-- 2 -->
      <g transform="translate(29.279688 69.121885)scale(0.1 -0.1)">
       <use xlink:href="#DejaVuSans-32"/>
      </g>
     </g>
    </g>
    <g id="ytick_6">
     <g id="line2d_14">
      <g>
       <use xlink:href="#m7f6cf38c1b" x="42.642188" y="40.333544" style="stroke: #000000; stroke-width: 0.8"/>
      </g>
     </g>
     <g id="text_14">
      <!-- 4 -->
      <g transform="translate(29.279688 44.132763)scale(0.1 -0.1)">
       <use xlink:href="#DejaVuSans-34"/>
      </g>
     </g>
    </g>
    <g id="ytick_7">
     <g id="line2d_15">
      <g>
       <use xlink:href="#m7f6cf38c1b" x="42.642188" y="15.344423" style="stroke: #000000; stroke-width: 0.8"/>
      </g>
     </g>
     <g id="text_15">
      <!-- 6 -->
      <g transform="translate(29.279688 19.143641)scale(0.1 -0.1)">
       <use xlink:href="#DejaVuSans-36"/>
      </g>
     </g>
    </g>
    <g id="text_16">
     <!-- ${\phi}$ -->
     <g transform="translate(14.8 92.04)rotate(-90)scale(0.1 -0.1)">
      <defs>
       <path id="DejaVuSans-Oblique-3d5" d="M 2991 4863 
L 2738 3572 
Q 3363 3572 3684 3094 
Q 4016 2606 3850 1747 
Q 3681 888 3159 400 
Q 2653 -78 2028 -78 
L 1784 -1331 
L 1213 -1331 
L 1456 -78 
Q 834 -78 509 400 
Q 178 888 347 1747 
Q 513 2606 1034 3094 
Q 1544 3572 2166 3572 
L 2419 4863 
L 2991 4863 
z
M 2128 434 
Q 2481 434 2784 756 
Q 3116 1116 3244 1747 
Q 3369 2372 3169 2738 
Q 2991 3059 2638 3059 
L 2128 434 
z
M 1556 434 
L 2066 3059 
Q 1716 3059 1413 2738 
Q 1072 2372 953 1747 
Q 834 1116 1028 756 
Q 1203 434 1556 434 
z
" transform="scale(0.015625)"/>
      </defs>
      <use xlink:href="#DejaVuSans-Oblique-3d5" transform="translate(0 0.015625)"/>
     </g>
    </g>
   </g>
   <g id="line2d_16">
    <path d="M 77.517188 105.671107 
L 77.517188 75.076852 
" clip-path="url(#p593912a6a9)" style="fill: none; stroke: #515151; stroke-width: 1.5; stroke-linecap: square"/>
   </g>
   <g id="line2d_17">
    <path d="M 77.517188 94.198278 
L 77.517188 86.549692 
" clip-path="url(#p593912a6a9)" style="fill: none; stroke: #515151; stroke-width: 4.5; stroke-linecap: square"/>
   </g>
   <g id="line2d_18">
    <path d="M 147.267188 102.800779 
L 147.267188 77.822322 
" clip-path="url(#p593912a6a9)" style="fill: none; stroke: #515151; stroke-width: 1.5; stroke-linecap: square"/>
   </g>
   <g id="line2d_19">
    <path d="M 147.267188 94.0776 
L 147.267188 86.659406 
" clip-path="url(#p593912a6a9)" style="fill: none; stroke: #515151; stroke-width: 4.5; stroke-linecap: square"/>
   </g>
   <g id="line2d_20">
    <path d="M 217.017188 116.655959 
L 217.017188 64.342748 
" clip-path="url(#p593912a6a9)" style="fill: none; stroke: #515151; stroke-width: 1.5; stroke-linecap: square"/>
   </g>
   <g id="line2d_21">
    <path d="M 217.017188 97.038558 
L 217.017188 83.960184 
" clip-path="url(#p593912a6a9)" style="fill: none; stroke: #515151; stroke-width: 4.5; stroke-linecap: square"/>
   </g>
   <g id="line2d_22">
    <path d="M 286.767187 102.806066 
L 286.767187 77.8185 
" clip-path="url(#p593912a6a9)" style="fill: none; stroke: #515151; stroke-width: 1.5; stroke-linecap: square"/>
   </g>
   <g id="line2d_23">
    <path d="M 286.767187 96.456082 
L 286.767187 84.456109 
" clip-path="url(#p593912a6a9)" style="fill: none; stroke: #515151; stroke-width: 4.5; stroke-linecap: square"/>
   </g>
   <g id="line2d_24">
    <path d="M 356.517187 118.498496 
L 356.517187 61.742114 
" clip-path="url(#p593912a6a9)" style="fill: none; stroke: #515151; stroke-width: 1.5; stroke-linecap: square"/>
   </g>
   <g id="line2d_25">
    <path d="M 356.517187 97.215075 
L 356.517187 83.025782 
" clip-path="url(#p593912a6a9)" style="fill: none; stroke: #515151; stroke-width: 4.5; stroke-linecap: square"/>
   </g>
   <g id="line2d_26">
    <path d="M 426.267187 102.804901 
L 426.267187 77.822998 
" clip-path="url(#p593912a6a9)" style="fill: none; stroke: #515151; stroke-width: 1.5; stroke-linecap: square"/>
   </g>
   <g id="line2d_27">
    <path d="M 426.267187 96.588982 
L 426.267187 83.752897 
" clip-path="url(#p593912a6a9)" style="fill: none; stroke: #515151; stroke-width: 4.5; stroke-linecap: square"/>
   </g>
   <g id="line2d_28">
    <path d="M 496.017187 138.340077 
L 496.017187 40.967221 
" clip-path="url(#p593912a6a9)" style="fill: none; stroke: #515151; stroke-width: 1.5; stroke-linecap: square"/>
   </g>
   <g id="line2d_29">
    <path d="M 496.017187 101.825544 
L 496.017187 77.481886 
" clip-path="url(#p593912a6a9)" style="fill: none; stroke: #515151; stroke-width: 4.5; stroke-linecap: square"/>
   </g>
   <g id="line2d_30">
    <path d="M 565.767187 102.805123 
L 565.767187 77.817427 
" clip-path="url(#p593912a6a9)" style="fill: none; stroke: #515151; stroke-width: 1.5; stroke-linecap: square"/>
   </g>
   <g id="line2d_31">
    <path d="M 565.767187 99.390422 
L 565.767187 80.658022 
" clip-path="url(#p593912a6a9)" style="fill: none; stroke: #515151; stroke-width: 4.5; stroke-linecap: square"/>
   </g>
   <g id="patch_3">
    <path d="M 42.642188 170.28 
L 42.642188 7.2 
" style="fill: none; stroke: #000000; stroke-width: 0.8; stroke-linejoin: miter; stroke-linecap: square"/>
   </g>
   <g id="patch_4">
    <path d="M 600.642187 170.28 
L 600.642187 7.2 
" style="fill: none; stroke: #000000; stroke-width: 0.8; stroke-linejoin: miter; stroke-linecap: square"/>
   </g>
   <g id="patch_5">
    <path d="M 42.642188 170.28 
L 600.642187 170.28 
" style="fill: none; stroke: #000000; stroke-width: 0.8; stroke-linejoin: miter; stroke-linecap: square"/>
   </g>
   <g id="patch_6">
    <path d="M 42.642188 7.2 
L 600.642187 7.2 
" style="fill: none; stroke: #000000; stroke-width: 0.8; stroke-linejoin: miter; stroke-linecap: square"/>
   </g>
   <g id="PathCollection_1">
    <defs>
     <path id="m4629597489" d="M 0 1.5 
C 0.397805 1.5 0.77937 1.341951 1.06066 1.06066 
C 1.341951 0.77937 1.5 0.397805 1.5 0 
C 1.5 -0.397805 1.341951 -0.77937 1.06066 -1.06066 
C 0.77937 -1.341951 0.397805 -1.5 0 -1.5 
C -0.397805 -1.5 -0.77937 -1.341951 -1.06066 -1.06066 
C -1.341951 -0.77937 -1.5 -0.397805 -1.5 0 
C -1.5 0.397805 -1.341951 0.77937 -1.06066 1.06066 
C -0.77937 1.341951 -0.397805 1.5 0 1.5 
z
" style="stroke: #515151"/>
    </defs>
    <g clip-path="url(#p593912a6a9)">
     <use xlink:href="#m4629597489" x="77.517188" y="90.345031" style="fill: #ffffff; stroke: #515151"/>
    </g>
   </g>
   <g id="PathCollection_2">
    <g clip-path="url(#p593912a6a9)">
     <use xlink:href="#m4629597489" x="147.267188" y="90.34503" style="fill: #ffffff; stroke: #515151"/>
    </g>
   </g>
   <g id="PathCollection_3">
    <g clip-path="url(#p593912a6a9)">
     <use xlink:href="#m4629597489" x="217.017188" y="90.472898" style="fill: #ffffff; stroke: #515151"/>
    </g>
   </g>
   <g id="PathCollection_4">
    <g clip-path="url(#p593912a6a9)">
     <use xlink:href="#m4629597489" x="286.767187" y="90.472889" style="fill: #ffffff; stroke: #515151"/>
    </g>
   </g>
   <g id="PathCollection_5">
    <g clip-path="url(#p593912a6a9)">
     <use xlink:href="#m4629597489" x="356.517187" y="90.117118" style="fill: #ffffff; stroke: #515151"/>
    </g>
   </g>
   <g id="PathCollection_6">
    <g clip-path="url(#p593912a6a9)">
     <use xlink:href="#m4629597489" x="426.267187" y="90.117133" style="fill: #ffffff; stroke: #515151"/>
    </g>
   </g>
   <g id="PathCollection_7">
    <g clip-path="url(#p593912a6a9)">
     <use xlink:href="#m4629597489" x="496.017187" y="89.682709" style="fill: #ffffff; stroke: #515151"/>
    </g>
   </g>
   <g id="PathCollection_8">
    <g clip-path="url(#p593912a6a9)">
     <use xlink:href="#m4629597489" x="565.767187" y="89.68324" style="fill: #ffffff; stroke: #515151"/>
    </g>
   </g>
  </g>
 </g>
 <defs>
  <clipPath id="p593912a6a9">
   <rect x="42.642188" y="7.2" width="558" height="163.08"/>
  </clipPath>
 </defs>
</svg>
