<?xml version="1.0" encoding="utf-8" standalone="no"?>
<!DOCTYPE svg PUBLIC "-//W3C//DTD SVG 1.1//EN"
  "http://www.w3.org/Graphics/SVG/1.1/DTD/svg11.dtd">
<svg xmlns:xlink="http://www.w3.org/1999/xlink" width="623.723438pt" height="194.830895pt" viewBox="0 0 623.723438 194.830895" xmlns="http://www.w3.org/2000/svg" version="1.1">
 <metadata>
  <rdf:RDF xmlns:dc="http://purl.org/dc/elements/1.1/" xmlns:cc="http://creativecommons.org/ns#" xmlns:rdf="http://www.w3.org/1999/02/22-rdf-syntax-ns#">
   <cc:Work>
    <dc:type rdf:resource="http://purl.org/dc/dcmitype/StillImage"/>
    <dc:date>2022-07-08T02:20:49.355056</dc:date>
    <dc:format>image/svg+xml</dc:format>
    <dc:creator>
     <cc:Agent>
      <dc:title>Matplotlib v3.5.1, https://matplotlib.org/</dc:title>
     </cc:Agent>
    </dc:creator>
   </cc:Work>
  </rdf:RDF>
 </metadata>
 <defs>
  <style type="text/css">*{stroke-linejoin: round; stroke-linecap: butt}</style>
 </defs>
 <g id="figure_1">
  <g id="patch_1">
   <path d="M -0 194.830895 
L 623.723438 194.830895 
L 623.723438 0 
L -0 0 
L -0 194.830895 
z
" style="fill: none"/>
  </g>
  <g id="axes_1">
   <g id="patch_2">
    <path d="M 58.523438 170.674645 
L 616.523438 170.674645 
L 616.523438 7.594645 
L 58.523438 7.594645 
z
" style="fill: #ffffff"/>
   </g>
   <g id="PolyCollection_1">
    <defs>
     <path id="m267770d4ee" d="M 114.323501 -102.418257 
L 114.323374 -102.418257 
L 114.322746 -102.799347 
L 114.322493 -103.180436 
L 114.322349 -103.561525 
L 114.322082 -103.942614 
L 114.320035 -104.323704 
L 114.314477 -104.704793 
L 114.31067 -105.085882 
L 114.298537 -105.466972 
L 114.296606 -105.848061 
L 114.295397 -106.22915 
L 114.296819 -106.610239 
L 114.290055 -106.991329 
L 114.284881 -107.372418 
L 114.274859 -107.753507 
L 114.261627 -108.134597 
L 114.230565 -108.515686 
L 114.203042 -108.896775 
L 114.181011 -109.277864 
L 114.137826 -109.658954 
L 114.100543 -110.040043 
L 114.036078 -110.421132 
L 113.984601 -110.802222 
L 113.943611 -111.183311 
L 113.866707 -111.5644 
L 113.762411 -111.945489 
L 113.671286 -112.326579 
L 113.568311 -112.707668 
L 113.415365 -113.088757 
L 113.303509 -113.469846 
L 113.189277 -113.850936 
L 112.982552 -114.232025 
L 112.74447 -114.613114 
L 112.564355 -114.994204 
L 112.401764 -115.375293 
L 112.158717 -115.756382 
L 111.697118 -116.137471 
L 111.3016 -116.518561 
L 110.845985 -116.89965 
L 110.242489 -117.280739 
L 109.504225 -117.661829 
L 108.330722 -118.042918 
L 106.260285 -118.424007 
L 102.454589 -118.805096 
L 93.028084 -119.186186 
L 69.683437 -119.567275 
L 82.94539 -119.948364 
L 99.00468 -120.329454 
L 104.064254 -120.710543 
L 106.709981 -121.091632 
L 108.016088 -121.472721 
L 108.792798 -121.853811 
L 109.678072 -122.2349 
L 110.459379 -122.615989 
L 111.087522 -122.997079 
L 111.396601 -123.378168 
L 111.6317 -123.759257 
L 111.92772 -124.140346 
L 112.222039 -124.521436 
L 112.497699 -124.902525 
L 112.780223 -125.283614 
L 112.985514 -125.664704 
L 113.166234 -126.045793 
L 113.305673 -126.426882 
L 113.384483 -126.807971 
L 113.491709 -127.189061 
L 113.594781 -127.57015 
L 113.720569 -127.951239 
L 113.838267 -128.332329 
L 113.889956 -128.713418 
L 113.937766 -129.094507 
L 113.984093 -129.475596 
L 114.058622 -129.856686 
L 114.117663 -130.237775 
L 114.16413 -130.618864 
L 114.208962 -130.999954 
L 114.230287 -131.381043 
L 114.24847 -131.762132 
L 114.273171 -132.143221 
L 114.285878 -132.524311 
L 114.294751 -132.9054 
L 114.305455 -133.286489 
L 114.30923 -133.667579 
L 114.311462 -134.048668 
L 114.315816 -134.429757 
L 114.316476 -134.810846 
L 114.316755 -135.191936 
L 114.317394 -135.573025 
L 114.316668 -135.954114 
L 114.317415 -136.335204 
L 114.319649 -136.716293 
L 114.319896 -137.097382 
L 114.319793 -137.478471 
L 114.32195 -137.859561 
L 114.323298 -138.24065 
L 114.322939 -138.621739 
L 114.322246 -139.002829 
L 114.322243 -139.383918 
L 114.322867 -139.765007 
L 114.323379 -140.146096 
L 114.323496 -140.146096 
L 114.323496 -140.146096 
L 114.324008 -139.765007 
L 114.324632 -139.383918 
L 114.324629 -139.002829 
L 114.323936 -138.621739 
L 114.323577 -138.24065 
L 114.324925 -137.859561 
L 114.327082 -137.478471 
L 114.326979 -137.097382 
L 114.327226 -136.716293 
L 114.32946 -136.335204 
L 114.330207 -135.954114 
L 114.329481 -135.573025 
L 114.33012 -135.191936 
L 114.330399 -134.810846 
L 114.331059 -134.429757 
L 114.335413 -134.048668 
L 114.337645 -133.667579 
L 114.34142 -133.286489 
L 114.352124 -132.9054 
L 114.360997 -132.524311 
L 114.373704 -132.143221 
L 114.398405 -131.762132 
L 114.416588 -131.381043 
L 114.437913 -130.999954 
L 114.482745 -130.618864 
L 114.529212 -130.237775 
L 114.588253 -129.856686 
L 114.662782 -129.475596 
L 114.709109 -129.094507 
L 114.756919 -128.713418 
L 114.808608 -128.332329 
L 114.926306 -127.951239 
L 115.052094 -127.57015 
L 115.155166 -127.189061 
L 115.262392 -126.807971 
L 115.341202 -126.426882 
L 115.480641 -126.045793 
L 115.661361 -125.664704 
L 115.866652 -125.283614 
L 116.149176 -124.902525 
L 116.424836 -124.521436 
L 116.719155 -124.140346 
L 117.015175 -123.759257 
L 117.250274 -123.378168 
L 117.559353 -122.997079 
L 118.187496 -122.615989 
L 118.968803 -122.2349 
L 119.854077 -121.853811 
L 120.630787 -121.472721 
L 121.936894 -121.091632 
L 124.582621 -120.710543 
L 129.642195 -120.329454 
L 145.701485 -119.948364 
L 158.963438 -119.567275 
L 135.618791 -119.186186 
L 126.192286 -118.805096 
L 122.38659 -118.424007 
L 120.316153 -118.042918 
L 119.14265 -117.661829 
L 118.404386 -117.280739 
L 117.80089 -116.89965 
L 117.345275 -116.518561 
L 116.949757 -116.137471 
L 116.488158 -115.756382 
L 116.245111 -115.375293 
L 116.08252 -114.994204 
L 115.902405 -114.613114 
L 115.664323 -114.232025 
L 115.457598 -113.850936 
L 115.343366 -113.469846 
L 115.23151 -113.088757 
L 115.078564 -112.707668 
L 114.975589 -112.326579 
L 114.884464 -111.945489 
L 114.780168 -111.5644 
L 114.703264 -111.183311 
L 114.662274 -110.802222 
L 114.610797 -110.421132 
L 114.546332 -110.040043 
L 114.509049 -109.658954 
L 114.465864 -109.277864 
L 114.443833 -108.896775 
L 114.41631 -108.515686 
L 114.385248 -108.134597 
L 114.372016 -107.753507 
L 114.361994 -107.372418 
L 114.35682 -106.991329 
L 114.350056 -106.610239 
L 114.351478 -106.22915 
L 114.350269 -105.848061 
L 114.348338 -105.466972 
L 114.336205 -105.085882 
L 114.332398 -104.704793 
L 114.32684 -104.323704 
L 114.324793 -103.942614 
L 114.324526 -103.561525 
L 114.324382 -103.180436 
L 114.324129 -102.799347 
L 114.323501 -102.418257 
z
" style="stroke: #4c4c4c; stroke-width: 1.5"/>
    </defs>
    <g clip-path="url(#pd6d42c8ae5)">
     <use xlink:href="#m267770d4ee" x="0" y="194.830895" style="fill: #c03d3e; stroke: #4c4c4c; stroke-width: 1.5"/>
    </g>
   </g>
   <g id="PolyCollection_2">
    <defs>
     <path id="mdfcba5b6d9" d="M 225.92354 -86.778194 
L 225.923335 -86.778194 
L 225.922492 -87.622317 
L 225.922769 -88.466441 
L 225.922107 -89.310565 
L 225.922126 -90.154689 
L 225.922085 -90.998813 
L 225.919925 -91.842937 
L 225.921535 -92.687061 
L 225.920909 -93.531185 
L 225.919712 -94.375308 
L 225.919415 -95.219432 
L 225.918311 -96.063556 
L 225.918533 -96.90768 
L 225.914377 -97.751804 
L 225.913792 -98.595928 
L 225.913207 -99.440052 
L 225.904565 -100.284176 
L 225.895648 -101.1283 
L 225.886405 -101.972423 
L 225.870027 -102.816547 
L 225.863359 -103.660671 
L 225.860725 -104.504795 
L 225.84763 -105.348919 
L 225.825526 -106.193043 
L 225.791168 -107.037167 
L 225.768438 -107.881291 
L 225.692907 -108.725414 
L 225.648036 -109.569538 
L 225.592195 -110.413662 
L 225.490412 -111.257786 
L 225.401076 -112.10191 
L 225.281065 -112.946034 
L 225.09491 -113.790158 
L 224.78785 -114.634282 
L 224.399242 -115.478406 
L 223.677596 -116.322529 
L 222.236484 -117.166653 
L 218.657531 -118.010777 
L 208.661822 -118.854901 
L 194.691076 -119.699025 
L 211.113689 -120.543149 
L 219.090232 -121.387273 
L 221.928797 -122.231397 
L 223.277543 -123.07552 
L 223.89245 -123.919644 
L 224.430224 -124.763768 
L 224.703684 -125.607892 
L 224.946909 -126.452016 
L 225.079101 -127.29614 
L 225.274794 -128.140264 
L 225.399822 -128.984388 
L 225.487862 -129.828512 
L 225.562865 -130.672635 
L 225.601939 -131.516759 
L 225.662137 -132.360883 
L 225.711996 -133.205007 
L 225.735515 -134.049131 
L 225.772341 -134.893255 
L 225.794303 -135.737379 
L 225.806204 -136.581503 
L 225.830076 -137.425626 
L 225.841528 -138.26975 
L 225.864908 -139.113874 
L 225.863979 -139.957998 
L 225.865823 -140.802122 
L 225.882991 -141.646246 
L 225.886496 -142.49037 
L 225.889161 -143.334494 
L 225.893299 -144.178618 
L 225.901507 -145.022741 
L 225.902296 -145.866865 
L 225.906754 -146.710989 
L 225.909072 -147.555113 
L 225.912186 -148.399237 
L 225.913798 -149.243361 
L 225.914379 -150.087485 
L 225.916112 -150.931609 
L 225.918791 -151.775732 
L 225.917073 -152.619856 
L 225.917056 -153.46398 
L 225.917623 -154.308104 
L 225.917853 -155.152228 
L 225.919724 -155.996352 
L 225.921388 -156.840476 
L 225.92032 -157.6846 
L 225.922406 -158.528724 
L 225.921912 -159.372847 
L 225.922496 -160.216971 
L 225.922427 -161.061095 
L 225.922714 -161.905219 
L 225.922318 -162.749343 
L 225.920853 -163.593467 
L 225.922173 -164.437591 
L 225.9227 -165.281715 
L 225.923412 -166.125839 
L 225.923437 -166.969962 
L 225.923415 -167.814086 
L 225.922704 -168.65821 
L 225.92261 -169.502334 
L 225.923336 -170.346458 
L 225.923539 -170.346458 
L 225.923539 -170.346458 
L 225.924265 -169.502334 
L 225.924171 -168.65821 
L 225.92346 -167.814086 
L 225.923438 -166.969962 
L 225.923463 -166.125839 
L 225.924175 -165.281715 
L 225.924702 -164.437591 
L 225.926022 -163.593467 
L 225.924557 -162.749343 
L 225.924161 -161.905219 
L 225.924448 -161.061095 
L 225.924379 -160.216971 
L 225.924963 -159.372847 
L 225.924469 -158.528724 
L 225.926555 -157.6846 
L 225.925487 -156.840476 
L 225.927151 -155.996352 
L 225.929022 -155.152228 
L 225.929252 -154.308104 
L 225.929819 -153.46398 
L 225.929802 -152.619856 
L 225.928084 -151.775732 
L 225.930763 -150.931609 
L 225.932496 -150.087485 
L 225.933077 -149.243361 
L 225.934689 -148.399237 
L 225.937803 -147.555113 
L 225.940121 -146.710989 
L 225.944579 -145.866865 
L 225.945368 -145.022741 
L 225.953576 -144.178618 
L 225.957714 -143.334494 
L 225.960379 -142.49037 
L 225.963884 -141.646246 
L 225.981052 -140.802122 
L 225.982896 -139.957998 
L 225.981967 -139.113874 
L 226.005347 -138.26975 
L 226.016799 -137.425626 
L 226.040671 -136.581503 
L 226.052572 -135.737379 
L 226.074534 -134.893255 
L 226.11136 -134.049131 
L 226.134879 -133.205007 
L 226.184738 -132.360883 
L 226.244936 -131.516759 
L 226.28401 -130.672635 
L 226.359013 -129.828512 
L 226.447053 -128.984388 
L 226.572081 -128.140264 
L 226.767774 -127.29614 
L 226.899966 -126.452016 
L 227.143191 -125.607892 
L 227.416651 -124.763768 
L 227.954425 -123.919644 
L 228.569332 -123.07552 
L 229.918078 -122.231397 
L 232.756643 -121.387273 
L 240.733186 -120.543149 
L 257.155799 -119.699025 
L 243.185053 -118.854901 
L 233.189344 -118.010777 
L 229.610391 -117.166653 
L 228.169279 -116.322529 
L 227.447633 -115.478406 
L 227.059025 -114.634282 
L 226.751965 -113.790158 
L 226.56581 -112.946034 
L 226.445799 -112.10191 
L 226.356463 -111.257786 
L 226.25468 -110.413662 
L 226.198839 -109.569538 
L 226.153968 -108.725414 
L 226.078437 -107.881291 
L 226.055707 -107.037167 
L 226.021349 -106.193043 
L 225.999245 -105.348919 
L 225.98615 -104.504795 
L 225.983516 -103.660671 
L 225.976848 -102.816547 
L 225.96047 -101.972423 
L 225.951227 -101.1283 
L 225.94231 -100.284176 
L 225.933668 -99.440052 
L 225.933083 -98.595928 
L 225.932498 -97.751804 
L 225.928342 -96.90768 
L 225.928564 -96.063556 
L 225.92746 -95.219432 
L 225.927163 -94.375308 
L 225.925966 -93.531185 
L 225.92534 -92.687061 
L 225.92695 -91.842937 
L 225.92479 -90.998813 
L 225.924749 -90.154689 
L 225.924768 -89.310565 
L 225.924106 -88.466441 
L 225.924383 -87.622317 
L 225.92354 -86.778194 
z
" style="stroke: #4c4c4c; stroke-width: 1.5"/>
    </defs>
    <g clip-path="url(#pd6d42c8ae5)">
     <use xlink:href="#mdfcba5b6d9" x="0" y="194.830895" style="fill: #c03d3e; stroke: #4c4c4c; stroke-width: 1.5"/>
    </g>
   </g>
   <g id="PolyCollection_3">
    <defs>
     <path id="mbd6619b3ce" d="M 337.523594 -68.657715 
L 337.523281 -68.657715 
L 337.522294 -69.677492 
L 337.523352 -70.697268 
L 337.523437 -71.717044 
L 337.523437 -72.73682 
L 337.523438 -73.756597 
L 337.523438 -74.776373 
L 337.523438 -75.796149 
L 337.523437 -76.815926 
L 337.523437 -77.835702 
L 337.523385 -78.855478 
L 337.522269 -79.875254 
L 337.521597 -80.895031 
L 337.522035 -81.914807 
L 337.522312 -82.934583 
L 337.52228 -83.95436 
L 337.522067 -84.974136 
L 337.521139 -85.993912 
L 337.522637 -87.013688 
L 337.521244 -88.033465 
L 337.520469 -89.053241 
L 337.518205 -90.073017 
L 337.518157 -91.092794 
L 337.516669 -92.11257 
L 337.517257 -93.132346 
L 337.516899 -94.152122 
L 337.5141 -95.171899 
L 337.507129 -96.191675 
L 337.500987 -97.211451 
L 337.500268 -98.231227 
L 337.5014 -99.251004 
L 337.488467 -100.27078 
L 337.476961 -101.290556 
L 337.464073 -102.310333 
L 337.440766 -103.330109 
L 337.415641 -104.349885 
L 337.404405 -105.369661 
L 337.367552 -106.389438 
L 337.326952 -107.409214 
L 337.283037 -108.42899 
L 337.187524 -109.448767 
L 337.094946 -110.468543 
L 337.010428 -111.488319 
L 336.901167 -112.508095 
L 336.68475 -113.527872 
L 336.35544 -114.547648 
L 335.891502 -115.567424 
L 334.87546 -116.587201 
L 332.496228 -117.606977 
L 324.196474 -118.626753 
L 308.840782 -119.646529 
L 324.36384 -120.666306 
L 332.183934 -121.686082 
L 334.473804 -122.705858 
L 335.321372 -123.725634 
L 335.840784 -124.745411 
L 336.208365 -125.765187 
L 336.489017 -126.784963 
L 336.70594 -127.80474 
L 336.840253 -128.824516 
L 336.961182 -129.844292 
L 337.065579 -130.864068 
L 337.14321 -131.883845 
L 337.234415 -132.903621 
L 337.303068 -133.923397 
L 337.325081 -134.943174 
L 337.341355 -135.96295 
L 337.374316 -136.982726 
L 337.402987 -138.002502 
L 337.422983 -139.022279 
L 337.451635 -140.042055 
L 337.454488 -141.061831 
L 337.464539 -142.081608 
L 337.465972 -143.101384 
L 337.486844 -144.12116 
L 337.502097 -145.140936 
L 337.500848 -146.160713 
L 337.505022 -147.180489 
L 337.503264 -148.200265 
L 337.509469 -149.220041 
L 337.510163 -150.239818 
L 337.513975 -151.259594 
L 337.511114 -152.27937 
L 337.518201 -153.299147 
L 337.516129 -154.318923 
L 337.516689 -155.338699 
L 337.52065 -156.358475 
L 337.520158 -157.378252 
L 337.522192 -158.398028 
L 337.521322 -159.417804 
L 337.520774 -160.437581 
L 337.520122 -161.457357 
L 337.522306 -162.477133 
L 337.522582 -163.496909 
L 337.522927 -164.516686 
L 337.522373 -165.536462 
L 337.523179 -166.556238 
L 337.523248 -167.576015 
L 337.521141 -168.595791 
L 337.523148 -169.615567 
L 337.523727 -169.615567 
L 337.523727 -169.615567 
L 337.525734 -168.595791 
L 337.523627 -167.576015 
L 337.523696 -166.556238 
L 337.524502 -165.536462 
L 337.523948 -164.516686 
L 337.524293 -163.496909 
L 337.524569 -162.477133 
L 337.526753 -161.457357 
L 337.526101 -160.437581 
L 337.525553 -159.417804 
L 337.524683 -158.398028 
L 337.526717 -157.378252 
L 337.526225 -156.358475 
L 337.530186 -155.338699 
L 337.530746 -154.318923 
L 337.528674 -153.299147 
L 337.535761 -152.27937 
L 337.5329 -151.259594 
L 337.536712 -150.239818 
L 337.537406 -149.220041 
L 337.543611 -148.200265 
L 337.541853 -147.180489 
L 337.546027 -146.160713 
L 337.544778 -145.140936 
L 337.560031 -144.12116 
L 337.580903 -143.101384 
L 337.582336 -142.081608 
L 337.592387 -141.061831 
L 337.59524 -140.042055 
L 337.623892 -139.022279 
L 337.643888 -138.002502 
L 337.672559 -136.982726 
L 337.70552 -135.96295 
L 337.721794 -134.943174 
L 337.743807 -133.923397 
L 337.81246 -132.903621 
L 337.903665 -131.883845 
L 337.981296 -130.864068 
L 338.085693 -129.844292 
L 338.206622 -128.824516 
L 338.340935 -127.80474 
L 338.557858 -126.784963 
L 338.83851 -125.765187 
L 339.206091 -124.745411 
L 339.725503 -123.725634 
L 340.573071 -122.705858 
L 342.862941 -121.686082 
L 350.683035 -120.666306 
L 366.206093 -119.646529 
L 350.850401 -118.626753 
L 342.550647 -117.606977 
L 340.171415 -116.587201 
L 339.155373 -115.567424 
L 338.691435 -114.547648 
L 338.362125 -113.527872 
L 338.145708 -112.508095 
L 338.036447 -111.488319 
L 337.951929 -110.468543 
L 337.859351 -109.448767 
L 337.763838 -108.42899 
L 337.719923 -107.409214 
L 337.679323 -106.389438 
L 337.64247 -105.369661 
L 337.631234 -104.349885 
L 337.606109 -103.330109 
L 337.582802 -102.310333 
L 337.569914 -101.290556 
L 337.558408 -100.27078 
L 337.545475 -99.251004 
L 337.546607 -98.231227 
L 337.545888 -97.211451 
L 337.539746 -96.191675 
L 337.532775 -95.171899 
L 337.529976 -94.152122 
L 337.529618 -93.132346 
L 337.530206 -92.11257 
L 337.528718 -91.092794 
L 337.52867 -90.073017 
L 337.526406 -89.053241 
L 337.525631 -88.033465 
L 337.524238 -87.013688 
L 337.525736 -85.993912 
L 337.524808 -84.974136 
L 337.524595 -83.95436 
L 337.524563 -82.934583 
L 337.52484 -81.914807 
L 337.525278 -80.895031 
L 337.524606 -79.875254 
L 337.52349 -78.855478 
L 337.523438 -77.835702 
L 337.523438 -76.815926 
L 337.523438 -75.796149 
L 337.523438 -74.776373 
L 337.523438 -73.756597 
L 337.523438 -72.73682 
L 337.523438 -71.717044 
L 337.523523 -70.697268 
L 337.524581 -69.677492 
L 337.523594 -68.657715 
z
" style="stroke: #4c4c4c; stroke-width: 1.5"/>
    </defs>
    <g clip-path="url(#pd6d42c8ae5)">
     <use xlink:href="#mbd6619b3ce" x="0" y="194.830895" style="fill: #c03d3e; stroke: #4c4c4c; stroke-width: 1.5"/>
    </g>
   </g>
   <g id="PolyCollection_4">
    <defs>
     <path id="m8923e645b6" d="M 449.123679 -81.644914 
L 449.123196 -81.644914 
L 449.121877 -82.558556 
L 449.122315 -83.472197 
L 449.123336 -84.385839 
L 449.122979 -85.29948 
L 449.120834 -86.213121 
L 449.119038 -87.126763 
L 449.119893 -88.040404 
L 449.116254 -88.954046 
L 449.115538 -89.867687 
L 449.117387 -90.781329 
L 449.118214 -91.69497 
L 449.114795 -92.608611 
L 449.111349 -93.522253 
L 449.113112 -94.435894 
L 449.111862 -95.349536 
L 449.10382 -96.263177 
L 449.097524 -97.176818 
L 449.091083 -98.09046 
L 449.091364 -99.004101 
L 449.090317 -99.917743 
L 449.075585 -100.831384 
L 449.047231 -101.745026 
L 449.048844 -102.658667 
L 449.050572 -103.572308 
L 449.02799 -104.48595 
L 448.997974 -105.399591 
L 448.929983 -106.313233 
L 448.877283 -107.226874 
L 448.841782 -108.140516 
L 448.823458 -109.054157 
L 448.77413 -109.967798 
L 448.673581 -110.88144 
L 448.536765 -111.795081 
L 448.379199 -112.708723 
L 448.145145 -113.622364 
L 447.865462 -114.536006 
L 447.421598 -115.449647 
L 446.537477 -116.363288 
L 444.517591 -117.27693 
L 439.612304 -118.190571 
L 429.401877 -119.104213 
L 427.353912 -120.017854 
L 437.994999 -120.931495 
L 443.933445 -121.845137 
L 446.077935 -122.758778 
L 446.975838 -123.67242 
L 447.427984 -124.586061 
L 447.73407 -125.499703 
L 447.973106 -126.413344 
L 448.109594 -127.326985 
L 448.279554 -128.240627 
L 448.410268 -129.154268 
L 448.456277 -130.06791 
L 448.584168 -130.981551 
L 448.69381 -131.895193 
L 448.736544 -132.808834 
L 448.741735 -133.722475 
L 448.790621 -134.636117 
L 448.836724 -135.549758 
L 448.861253 -136.4634 
L 448.928082 -137.377041 
L 448.967593 -138.290683 
L 448.971797 -139.204324 
L 448.990049 -140.117965 
L 449.017089 -141.031607 
L 449.042441 -141.945248 
L 449.048048 -142.85889 
L 449.054524 -143.772531 
L 449.066756 -144.686173 
L 449.072778 -145.599814 
L 449.088045 -146.513455 
L 449.086665 -147.427097 
L 449.091706 -148.340738 
L 449.095825 -149.25438 
L 449.106819 -150.168021 
L 449.105364 -151.081662 
L 449.10343 -151.995304 
L 449.112667 -152.908945 
L 449.112123 -153.822587 
L 449.113799 -154.736228 
L 449.115351 -155.64987 
L 449.117891 -156.563511 
L 449.11839 -157.477152 
L 449.120468 -158.390794 
L 449.119685 -159.304435 
L 449.117981 -160.218077 
L 449.120897 -161.131718 
L 449.122037 -162.04536 
L 449.11922 -162.959001 
L 449.12017 -163.872642 
L 449.122737 -164.786284 
L 449.120945 -165.699925 
L 449.119422 -166.613567 
L 449.121423 -167.527208 
L 449.123221 -168.44085 
L 449.123345 -169.354491 
L 449.122315 -170.268132 
L 449.121877 -171.181774 
L 449.123196 -172.095415 
L 449.123679 -172.095415 
L 449.123679 -172.095415 
L 449.124998 -171.181774 
L 449.12456 -170.268132 
L 449.12353 -169.354491 
L 449.123654 -168.44085 
L 449.125452 -167.527208 
L 449.127453 -166.613567 
L 449.12593 -165.699925 
L 449.124138 -164.786284 
L 449.126705 -163.872642 
L 449.127655 -162.959001 
L 449.124838 -162.04536 
L 449.125978 -161.131718 
L 449.128894 -160.218077 
L 449.12719 -159.304435 
L 449.126407 -158.390794 
L 449.128485 -157.477152 
L 449.128984 -156.563511 
L 449.131524 -155.64987 
L 449.133076 -154.736228 
L 449.134752 -153.822587 
L 449.134208 -152.908945 
L 449.143445 -151.995304 
L 449.141511 -151.081662 
L 449.140056 -150.168021 
L 449.15105 -149.25438 
L 449.155169 -148.340738 
L 449.16021 -147.427097 
L 449.15883 -146.513455 
L 449.174097 -145.599814 
L 449.180119 -144.686173 
L 449.192351 -143.772531 
L 449.198827 -142.85889 
L 449.204434 -141.945248 
L 449.229786 -141.031607 
L 449.256826 -140.117965 
L 449.275078 -139.204324 
L 449.279282 -138.290683 
L 449.318793 -137.377041 
L 449.385622 -136.4634 
L 449.410151 -135.549758 
L 449.456254 -134.636117 
L 449.50514 -133.722475 
L 449.510331 -132.808834 
L 449.553065 -131.895193 
L 449.662707 -130.981551 
L 449.790598 -130.06791 
L 449.836607 -129.154268 
L 449.967321 -128.240627 
L 450.137281 -127.326985 
L 450.273769 -126.413344 
L 450.512805 -125.499703 
L 450.818891 -124.586061 
L 451.271037 -123.67242 
L 452.16894 -122.758778 
L 454.31343 -121.845137 
L 460.251876 -120.931495 
L 470.892963 -120.017854 
L 468.844998 -119.104213 
L 458.634571 -118.190571 
L 453.729284 -117.27693 
L 451.709398 -116.363288 
L 450.825277 -115.449647 
L 450.381413 -114.536006 
L 450.10173 -113.622364 
L 449.867676 -112.708723 
L 449.71011 -111.795081 
L 449.573294 -110.88144 
L 449.472745 -109.967798 
L 449.423417 -109.054157 
L 449.405093 -108.140516 
L 449.369592 -107.226874 
L 449.316892 -106.313233 
L 449.248901 -105.399591 
L 449.218885 -104.48595 
L 449.196303 -103.572308 
L 449.198031 -102.658667 
L 449.199644 -101.745026 
L 449.17129 -100.831384 
L 449.156558 -99.917743 
L 449.155511 -99.004101 
L 449.155792 -98.09046 
L 449.149351 -97.176818 
L 449.143055 -96.263177 
L 449.135013 -95.349536 
L 449.133763 -94.435894 
L 449.135526 -93.522253 
L 449.13208 -92.608611 
L 449.128661 -91.69497 
L 449.129488 -90.781329 
L 449.131337 -89.867687 
L 449.130621 -88.954046 
L 449.126982 -88.040404 
L 449.127837 -87.126763 
L 449.126041 -86.213121 
L 449.123896 -85.29948 
L 449.123539 -84.385839 
L 449.12456 -83.472197 
L 449.124998 -82.558556 
L 449.123679 -81.644914 
z
" style="stroke: #4c4c4c; stroke-width: 1.5"/>
    </defs>
    <g clip-path="url(#pd6d42c8ae5)">
     <use xlink:href="#m8923e645b6" x="0" y="194.830895" style="fill: #c03d3e; stroke: #4c4c4c; stroke-width: 1.5"/>
    </g>
   </g>
   <g id="PolyCollection_5">
    <defs>
     <path id="m213e65af2f" d="M 560.724703 -31.568977 
L 560.722172 -31.568977 
L 560.720416 -33.066498 
L 560.717802 -34.564019 
L 560.715225 -36.061539 
L 560.714088 -37.55906 
L 560.715123 -39.056581 
L 560.717661 -40.554101 
L 560.720299 -42.051622 
L 560.722086 -43.549143 
L 560.722887 -45.046663 
L 560.722889 -46.544184 
L 560.722069 -48.041705 
L 560.720133 -49.539225 
L 560.716952 -51.036746 
L 560.713075 -52.534267 
L 560.709698 -54.031787 
L 560.708018 -55.529308 
L 560.708628 -57.026829 
L 560.711314 -58.524349 
L 560.715117 -60.02187 
L 560.718736 -61.51939 
L 560.721217 -63.016911 
L 560.722263 -64.514432 
L 560.721801 -66.011952 
L 560.719373 -67.509473 
L 560.714073 -69.006994 
L 560.705257 -70.504514 
L 560.693506 -72.002035 
L 560.680878 -73.499556 
L 560.669788 -74.997076 
L 560.661207 -76.494597 
L 560.653879 -77.992118 
L 560.645467 -79.489638 
L 560.634317 -80.987159 
L 560.619622 -82.48468 
L 560.599876 -83.9822 
L 560.572551 -85.479721 
L 560.537085 -86.977242 
L 560.49846 -88.474762 
L 560.465857 -89.972283 
L 560.44472 -91.469804 
L 560.42935 -92.967324 
L 560.40613 -94.464845 
L 560.365548 -95.962366 
L 560.308489 -97.459886 
L 560.240916 -98.957407 
L 560.168192 -100.454928 
L 560.096388 -101.952448 
L 560.03215 -103.449969 
L 559.974376 -104.94749 
L 559.905834 -106.44501 
L 559.794686 -107.942531 
L 559.602321 -109.440052 
L 559.289055 -110.937572 
L 558.821709 -112.435093 
L 558.191894 -113.932614 
L 557.43975 -115.430134 
L 556.66894 -116.927655 
L 556.039641 -118.425176 
L 555.72438 -119.922696 
L 555.828336 -121.420217 
L 556.322311 -122.917738 
L 557.051643 -124.415258 
L 557.824035 -125.912779 
L 558.505126 -127.4103 
L 559.049081 -128.90782 
L 559.462627 -130.405341 
L 559.760962 -131.902862 
L 559.958175 -133.400382 
L 560.07824 -134.897903 
L 560.154277 -136.395424 
L 560.213424 -137.892944 
L 560.267573 -139.390465 
L 560.318704 -140.887986 
L 560.367197 -142.385506 
L 560.41219 -143.883027 
L 560.448862 -145.380548 
L 560.471474 -146.878068 
L 560.47997 -148.375589 
L 560.482477 -149.87311 
L 560.491311 -151.37063 
L 560.515658 -152.868151 
L 560.555735 -154.365671 
L 560.602434 -155.863192 
L 560.642957 -157.360713 
L 560.66847 -158.858233 
L 560.678402 -160.355754 
L 560.679121 -161.853275 
L 560.6789 -163.350795 
L 560.682785 -164.848316 
L 560.690439 -166.345837 
L 560.69817 -167.843357 
L 560.703053 -169.340878 
L 560.705189 -170.838399 
L 560.70662 -172.335919 
L 560.709074 -173.83344 
L 560.712808 -175.330961 
L 560.716874 -176.828481 
L 560.720136 -178.326002 
L 560.722106 -179.823523 
L 560.724769 -179.823523 
L 560.724769 -179.823523 
L 560.726739 -178.326002 
L 560.730001 -176.828481 
L 560.734067 -175.330961 
L 560.737801 -173.83344 
L 560.740255 -172.335919 
L 560.741686 -170.838399 
L 560.743822 -169.340878 
L 560.748705 -167.843357 
L 560.756436 -166.345837 
L 560.76409 -164.848316 
L 560.767975 -163.350795 
L 560.767754 -161.853275 
L 560.768473 -160.355754 
L 560.778405 -158.858233 
L 560.803918 -157.360713 
L 560.844441 -155.863192 
L 560.89114 -154.365671 
L 560.931217 -152.868151 
L 560.955564 -151.37063 
L 560.964398 -149.87311 
L 560.966905 -148.375589 
L 560.975401 -146.878068 
L 560.998013 -145.380548 
L 561.034685 -143.883027 
L 561.079678 -142.385506 
L 561.128171 -140.887986 
L 561.179302 -139.390465 
L 561.233451 -137.892944 
L 561.292598 -136.395424 
L 561.368635 -134.897903 
L 561.4887 -133.400382 
L 561.685913 -131.902862 
L 561.984248 -130.405341 
L 562.397794 -128.90782 
L 562.941749 -127.4103 
L 563.62284 -125.912779 
L 564.395232 -124.415258 
L 565.124564 -122.917738 
L 565.618539 -121.420217 
L 565.722495 -119.922696 
L 565.407234 -118.425176 
L 564.777935 -116.927655 
L 564.007125 -115.430134 
L 563.254981 -113.932614 
L 562.625166 -112.435093 
L 562.15782 -110.937572 
L 561.844554 -109.440052 
L 561.652189 -107.942531 
L 561.541041 -106.44501 
L 561.472499 -104.94749 
L 561.414725 -103.449969 
L 561.350487 -101.952448 
L 561.278683 -100.454928 
L 561.205959 -98.957407 
L 561.138386 -97.459886 
L 561.081327 -95.962366 
L 561.040745 -94.464845 
L 561.017525 -92.967324 
L 561.002155 -91.469804 
L 560.981018 -89.972283 
L 560.948415 -88.474762 
L 560.90979 -86.977242 
L 560.874324 -85.479721 
L 560.846999 -83.9822 
L 560.827253 -82.48468 
L 560.812558 -80.987159 
L 560.801408 -79.489638 
L 560.792996 -77.992118 
L 560.785668 -76.494597 
L 560.777087 -74.997076 
L 560.765997 -73.499556 
L 560.753369 -72.002035 
L 560.741618 -70.504514 
L 560.732802 -69.006994 
L 560.727502 -67.509473 
L 560.725074 -66.011952 
L 560.724612 -64.514432 
L 560.725658 -63.016911 
L 560.728139 -61.51939 
L 560.731758 -60.02187 
L 560.735561 -58.524349 
L 560.738247 -57.026829 
L 560.738857 -55.529308 
L 560.737177 -54.031787 
L 560.7338 -52.534267 
L 560.729923 -51.036746 
L 560.726742 -49.539225 
L 560.724806 -48.041705 
L 560.723986 -46.544184 
L 560.723988 -45.046663 
L 560.724789 -43.549143 
L 560.726576 -42.051622 
L 560.729214 -40.554101 
L 560.731752 -39.056581 
L 560.732787 -37.55906 
L 560.73165 -36.061539 
L 560.729073 -34.564019 
L 560.726459 -33.066498 
L 560.724703 -31.568977 
z
" style="stroke: #4c4c4c; stroke-width: 1.5"/>
    </defs>
    <g clip-path="url(#pd6d42c8ae5)">
     <use xlink:href="#m213e65af2f" x="0" y="194.830895" style="fill: #c03d3e; stroke: #4c4c4c; stroke-width: 1.5"/>
    </g>
   </g>
   <g id="matplotlib.axis_1">
    <g id="xtick_1">
     <g id="line2d_1">
      <defs>
       <path id="m37eb00c3b2" d="M 0 0 
L 0 3.5 
" style="stroke: #000000; stroke-width: 0.8"/>
      </defs>
      <g>
       <use xlink:href="#m37eb00c3b2" x="114.323438" y="170.674645" style="stroke: #000000; stroke-width: 0.8"/>
      </g>
     </g>
     <g id="text_1">
      <!-- dense_1 -->
      <g transform="translate(93.541406 185.273082)scale(0.1 -0.1)">
       <defs>
        <path id="DejaVuSans-64" d="M 2906 2969 
L 2906 4863 
L 3481 4863 
L 3481 0 
L 2906 0 
L 2906 525 
Q 2725 213 2448 61 
Q 2172 -91 1784 -91 
Q 1150 -91 751 415 
Q 353 922 353 1747 
Q 353 2572 751 3078 
Q 1150 3584 1784 3584 
Q 2172 3584 2448 3432 
Q 2725 3281 2906 2969 
z
M 947 1747 
Q 947 1113 1208 752 
Q 1469 391 1925 391 
Q 2381 391 2643 752 
Q 2906 1113 2906 1747 
Q 2906 2381 2643 2742 
Q 2381 3103 1925 3103 
Q 1469 3103 1208 2742 
Q 947 2381 947 1747 
z
" transform="scale(0.015625)"/>
        <path id="DejaVuSans-65" d="M 3597 1894 
L 3597 1613 
L 953 1613 
Q 991 1019 1311 708 
Q 1631 397 2203 397 
Q 2534 397 2845 478 
Q 3156 559 3463 722 
L 3463 178 
Q 3153 47 2828 -22 
Q 2503 -91 2169 -91 
Q 1331 -91 842 396 
Q 353 884 353 1716 
Q 353 2575 817 3079 
Q 1281 3584 2069 3584 
Q 2775 3584 3186 3129 
Q 3597 2675 3597 1894 
z
M 3022 2063 
Q 3016 2534 2758 2815 
Q 2500 3097 2075 3097 
Q 1594 3097 1305 2825 
Q 1016 2553 972 2059 
L 3022 2063 
z
" transform="scale(0.015625)"/>
        <path id="DejaVuSans-6e" d="M 3513 2113 
L 3513 0 
L 2938 0 
L 2938 2094 
Q 2938 2591 2744 2837 
Q 2550 3084 2163 3084 
Q 1697 3084 1428 2787 
Q 1159 2491 1159 1978 
L 1159 0 
L 581 0 
L 581 3500 
L 1159 3500 
L 1159 2956 
Q 1366 3272 1645 3428 
Q 1925 3584 2291 3584 
Q 2894 3584 3203 3211 
Q 3513 2838 3513 2113 
z
" transform="scale(0.015625)"/>
        <path id="DejaVuSans-73" d="M 2834 3397 
L 2834 2853 
Q 2591 2978 2328 3040 
Q 2066 3103 1784 3103 
Q 1356 3103 1142 2972 
Q 928 2841 928 2578 
Q 928 2378 1081 2264 
Q 1234 2150 1697 2047 
L 1894 2003 
Q 2506 1872 2764 1633 
Q 3022 1394 3022 966 
Q 3022 478 2636 193 
Q 2250 -91 1575 -91 
Q 1294 -91 989 -36 
Q 684 19 347 128 
L 347 722 
Q 666 556 975 473 
Q 1284 391 1588 391 
Q 1994 391 2212 530 
Q 2431 669 2431 922 
Q 2431 1156 2273 1281 
Q 2116 1406 1581 1522 
L 1381 1569 
Q 847 1681 609 1914 
Q 372 2147 372 2553 
Q 372 3047 722 3315 
Q 1072 3584 1716 3584 
Q 2034 3584 2315 3537 
Q 2597 3491 2834 3397 
z
" transform="scale(0.015625)"/>
        <path id="DejaVuSans-5f" d="M 3263 -1063 
L 3263 -1509 
L -63 -1509 
L -63 -1063 
L 3263 -1063 
z
" transform="scale(0.015625)"/>
        <path id="DejaVuSans-31" d="M 794 531 
L 1825 531 
L 1825 4091 
L 703 3866 
L 703 4441 
L 1819 4666 
L 2450 4666 
L 2450 531 
L 3481 531 
L 3481 0 
L 794 0 
L 794 531 
z
" transform="scale(0.015625)"/>
       </defs>
       <use xlink:href="#DejaVuSans-64"/>
       <use xlink:href="#DejaVuSans-65" x="63.476562"/>
       <use xlink:href="#DejaVuSans-6e" x="125"/>
       <use xlink:href="#DejaVuSans-73" x="188.378906"/>
       <use xlink:href="#DejaVuSans-65" x="240.478516"/>
       <use xlink:href="#DejaVuSans-5f" x="302.001953"/>
       <use xlink:href="#DejaVuSans-31" x="352.001953"/>
      </g>
     </g>
    </g>
    <g id="xtick_2">
     <g id="line2d_2">
      <g>
       <use xlink:href="#m37eb00c3b2" x="225.923438" y="170.674645" style="stroke: #000000; stroke-width: 0.8"/>
      </g>
     </g>
     <g id="text_2">
      <!-- dense_3 -->
      <g transform="translate(205.141406 185.273082)scale(0.1 -0.1)">
       <defs>
        <path id="DejaVuSans-33" d="M 2597 2516 
Q 3050 2419 3304 2112 
Q 3559 1806 3559 1356 
Q 3559 666 3084 287 
Q 2609 -91 1734 -91 
Q 1441 -91 1130 -33 
Q 819 25 488 141 
L 488 750 
Q 750 597 1062 519 
Q 1375 441 1716 441 
Q 2309 441 2620 675 
Q 2931 909 2931 1356 
Q 2931 1769 2642 2001 
Q 2353 2234 1838 2234 
L 1294 2234 
L 1294 2753 
L 1863 2753 
Q 2328 2753 2575 2939 
Q 2822 3125 2822 3475 
Q 2822 3834 2567 4026 
Q 2313 4219 1838 4219 
Q 1578 4219 1281 4162 
Q 984 4106 628 3988 
L 628 4550 
Q 988 4650 1302 4700 
Q 1616 4750 1894 4750 
Q 2613 4750 3031 4423 
Q 3450 4097 3450 3541 
Q 3450 3153 3228 2886 
Q 3006 2619 2597 2516 
z
" transform="scale(0.015625)"/>
       </defs>
       <use xlink:href="#DejaVuSans-64"/>
       <use xlink:href="#DejaVuSans-65" x="63.476562"/>
       <use xlink:href="#DejaVuSans-6e" x="125"/>
       <use xlink:href="#DejaVuSans-73" x="188.378906"/>
       <use xlink:href="#DejaVuSans-65" x="240.478516"/>
       <use xlink:href="#DejaVuSans-5f" x="302.001953"/>
       <use xlink:href="#DejaVuSans-33" x="352.001953"/>
      </g>
     </g>
    </g>
    <g id="xtick_3">
     <g id="line2d_3">
      <g>
       <use xlink:href="#m37eb00c3b2" x="337.523438" y="170.674645" style="stroke: #000000; stroke-width: 0.8"/>
      </g>
     </g>
     <g id="text_3">
      <!-- dense_5 -->
      <g transform="translate(316.741406 185.273082)scale(0.1 -0.1)">
       <defs>
        <path id="DejaVuSans-35" d="M 691 4666 
L 3169 4666 
L 3169 4134 
L 1269 4134 
L 1269 2991 
Q 1406 3038 1543 3061 
Q 1681 3084 1819 3084 
Q 2600 3084 3056 2656 
Q 3513 2228 3513 1497 
Q 3513 744 3044 326 
Q 2575 -91 1722 -91 
Q 1428 -91 1123 -41 
Q 819 9 494 109 
L 494 744 
Q 775 591 1075 516 
Q 1375 441 1709 441 
Q 2250 441 2565 725 
Q 2881 1009 2881 1497 
Q 2881 1984 2565 2268 
Q 2250 2553 1709 2553 
Q 1456 2553 1204 2497 
Q 953 2441 691 2322 
L 691 4666 
z
" transform="scale(0.015625)"/>
       </defs>
       <use xlink:href="#DejaVuSans-64"/>
       <use xlink:href="#DejaVuSans-65" x="63.476562"/>
       <use xlink:href="#DejaVuSans-6e" x="125"/>
       <use xlink:href="#DejaVuSans-73" x="188.378906"/>
       <use xlink:href="#DejaVuSans-65" x="240.478516"/>
       <use xlink:href="#DejaVuSans-5f" x="302.001953"/>
       <use xlink:href="#DejaVuSans-35" x="352.001953"/>
      </g>
     </g>
    </g>
    <g id="xtick_4">
     <g id="line2d_4">
      <g>
       <use xlink:href="#m37eb00c3b2" x="449.123438" y="170.674645" style="stroke: #000000; stroke-width: 0.8"/>
      </g>
     </g>
     <g id="text_4">
      <!-- dense_7 -->
      <g transform="translate(428.341406 185.273082)scale(0.1 -0.1)">
       <defs>
        <path id="DejaVuSans-37" d="M 525 4666 
L 3525 4666 
L 3525 4397 
L 1831 0 
L 1172 0 
L 2766 4134 
L 525 4134 
L 525 4666 
z
" transform="scale(0.015625)"/>
       </defs>
       <use xlink:href="#DejaVuSans-64"/>
       <use xlink:href="#DejaVuSans-65" x="63.476562"/>
       <use xlink:href="#DejaVuSans-6e" x="125"/>
       <use xlink:href="#DejaVuSans-73" x="188.378906"/>
       <use xlink:href="#DejaVuSans-65" x="240.478516"/>
       <use xlink:href="#DejaVuSans-5f" x="302.001953"/>
       <use xlink:href="#DejaVuSans-37" x="352.001953"/>
      </g>
     </g>
    </g>
    <g id="xtick_5">
     <g id="line2d_5">
      <g>
       <use xlink:href="#m37eb00c3b2" x="560.723438" y="170.674645" style="stroke: #000000; stroke-width: 0.8"/>
      </g>
     </g>
     <g id="text_5">
      <!-- dense_9 -->
      <g transform="translate(539.941406 185.273082)scale(0.1 -0.1)">
       <defs>
        <path id="DejaVuSans-39" d="M 703 97 
L 703 672 
Q 941 559 1184 500 
Q 1428 441 1663 441 
Q 2288 441 2617 861 
Q 2947 1281 2994 2138 
Q 2813 1869 2534 1725 
Q 2256 1581 1919 1581 
Q 1219 1581 811 2004 
Q 403 2428 403 3163 
Q 403 3881 828 4315 
Q 1253 4750 1959 4750 
Q 2769 4750 3195 4129 
Q 3622 3509 3622 2328 
Q 3622 1225 3098 567 
Q 2575 -91 1691 -91 
Q 1453 -91 1209 -44 
Q 966 3 703 97 
z
M 1959 2075 
Q 2384 2075 2632 2365 
Q 2881 2656 2881 3163 
Q 2881 3666 2632 3958 
Q 2384 4250 1959 4250 
Q 1534 4250 1286 3958 
Q 1038 3666 1038 3163 
Q 1038 2656 1286 2365 
Q 1534 2075 1959 2075 
z
" transform="scale(0.015625)"/>
       </defs>
       <use xlink:href="#DejaVuSans-64"/>
       <use xlink:href="#DejaVuSans-65" x="63.476562"/>
       <use xlink:href="#DejaVuSans-6e" x="125"/>
       <use xlink:href="#DejaVuSans-73" x="188.378906"/>
       <use xlink:href="#DejaVuSans-65" x="240.478516"/>
       <use xlink:href="#DejaVuSans-5f" x="302.001953"/>
       <use xlink:href="#DejaVuSans-39" x="352.001953"/>
      </g>
     </g>
    </g>
   </g>
   <g id="matplotlib.axis_2">
    <g id="ytick_1">
     <g id="line2d_6">
      <defs>
       <path id="m935f739e8a" d="M 0 0 
L -3.5 0 
" style="stroke: #000000; stroke-width: 0.8"/>
      </defs>
      <g>
       <use xlink:href="#m935f739e8a" x="58.523438" y="160.752171" style="stroke: #000000; stroke-width: 0.8"/>
      </g>
     </g>
     <g id="text_6">
      <!-- −0.04 -->
      <g transform="translate(20.878125 164.55139)scale(0.1 -0.1)">
       <defs>
        <path id="DejaVuSans-2212" d="M 678 2272 
L 4684 2272 
L 4684 1741 
L 678 1741 
L 678 2272 
z
" transform="scale(0.015625)"/>
        <path id="DejaVuSans-30" d="M 2034 4250 
Q 1547 4250 1301 3770 
Q 1056 3291 1056 2328 
Q 1056 1369 1301 889 
Q 1547 409 2034 409 
Q 2525 409 2770 889 
Q 3016 1369 3016 2328 
Q 3016 3291 2770 3770 
Q 2525 4250 2034 4250 
z
M 2034 4750 
Q 2819 4750 3233 4129 
Q 3647 3509 3647 2328 
Q 3647 1150 3233 529 
Q 2819 -91 2034 -91 
Q 1250 -91 836 529 
Q 422 1150 422 2328 
Q 422 3509 836 4129 
Q 1250 4750 2034 4750 
z
" transform="scale(0.015625)"/>
        <path id="DejaVuSans-2e" d="M 684 794 
L 1344 794 
L 1344 0 
L 684 0 
L 684 794 
z
" transform="scale(0.015625)"/>
        <path id="DejaVuSans-34" d="M 2419 4116 
L 825 1625 
L 2419 1625 
L 2419 4116 
z
M 2253 4666 
L 3047 4666 
L 3047 1625 
L 3713 1625 
L 3713 1100 
L 3047 1100 
L 3047 0 
L 2419 0 
L 2419 1100 
L 313 1100 
L 313 1709 
L 2253 4666 
z
" transform="scale(0.015625)"/>
       </defs>
       <use xlink:href="#DejaVuSans-2212"/>
       <use xlink:href="#DejaVuSans-30" x="83.789062"/>
       <use xlink:href="#DejaVuSans-2e" x="147.412109"/>
       <use xlink:href="#DejaVuSans-30" x="179.199219"/>
       <use xlink:href="#DejaVuSans-34" x="242.822266"/>
      </g>
     </g>
    </g>
    <g id="ytick_2">
     <g id="line2d_7">
      <g>
       <use xlink:href="#m935f739e8a" x="58.523438" y="139.358892" style="stroke: #000000; stroke-width: 0.8"/>
      </g>
     </g>
     <g id="text_7">
      <!-- −0.03 -->
      <g transform="translate(20.878125 143.158111)scale(0.1 -0.1)">
       <use xlink:href="#DejaVuSans-2212"/>
       <use xlink:href="#DejaVuSans-30" x="83.789062"/>
       <use xlink:href="#DejaVuSans-2e" x="147.412109"/>
       <use xlink:href="#DejaVuSans-30" x="179.199219"/>
       <use xlink:href="#DejaVuSans-33" x="242.822266"/>
      </g>
     </g>
    </g>
    <g id="ytick_3">
     <g id="line2d_8">
      <g>
       <use xlink:href="#m935f739e8a" x="58.523438" y="117.965613" style="stroke: #000000; stroke-width: 0.8"/>
      </g>
     </g>
     <g id="text_8">
      <!-- −0.02 -->
      <g transform="translate(20.878125 121.764832)scale(0.1 -0.1)">
       <defs>
        <path id="DejaVuSans-32" d="M 1228 531 
L 3431 531 
L 3431 0 
L 469 0 
L 469 531 
Q 828 903 1448 1529 
Q 2069 2156 2228 2338 
Q 2531 2678 2651 2914 
Q 2772 3150 2772 3378 
Q 2772 3750 2511 3984 
Q 2250 4219 1831 4219 
Q 1534 4219 1204 4116 
Q 875 4013 500 3803 
L 500 4441 
Q 881 4594 1212 4672 
Q 1544 4750 1819 4750 
Q 2544 4750 2975 4387 
Q 3406 4025 3406 3419 
Q 3406 3131 3298 2873 
Q 3191 2616 2906 2266 
Q 2828 2175 2409 1742 
Q 1991 1309 1228 531 
z
" transform="scale(0.015625)"/>
       </defs>
       <use xlink:href="#DejaVuSans-2212"/>
       <use xlink:href="#DejaVuSans-30" x="83.789062"/>
       <use xlink:href="#DejaVuSans-2e" x="147.412109"/>
       <use xlink:href="#DejaVuSans-30" x="179.199219"/>
       <use xlink:href="#DejaVuSans-32" x="242.822266"/>
      </g>
     </g>
    </g>
    <g id="ytick_4">
     <g id="line2d_9">
      <g>
       <use xlink:href="#m935f739e8a" x="58.523438" y="96.572335" style="stroke: #000000; stroke-width: 0.8"/>
      </g>
     </g>
     <g id="text_9">
      <!-- −0.01 -->
      <g transform="translate(20.878125 100.371553)scale(0.1 -0.1)">
       <use xlink:href="#DejaVuSans-2212"/>
       <use xlink:href="#DejaVuSans-30" x="83.789062"/>
       <use xlink:href="#DejaVuSans-2e" x="147.412109"/>
       <use xlink:href="#DejaVuSans-30" x="179.199219"/>
       <use xlink:href="#DejaVuSans-31" x="242.822266"/>
      </g>
     </g>
    </g>
    <g id="ytick_5">
     <g id="line2d_10">
      <g>
       <use xlink:href="#m935f739e8a" x="58.523438" y="75.179056" style="stroke: #000000; stroke-width: 0.8"/>
      </g>
     </g>
     <g id="text_10">
      <!-- 0.00 -->
      <g transform="translate(29.257812 78.978274)scale(0.1 -0.1)">
       <use xlink:href="#DejaVuSans-30"/>
       <use xlink:href="#DejaVuSans-2e" x="63.623047"/>
       <use xlink:href="#DejaVuSans-30" x="95.410156"/>
       <use xlink:href="#DejaVuSans-30" x="159.033203"/>
      </g>
     </g>
    </g>
    <g id="ytick_6">
     <g id="line2d_11">
      <g>
       <use xlink:href="#m935f739e8a" x="58.523438" y="53.785777" style="stroke: #000000; stroke-width: 0.8"/>
      </g>
     </g>
     <g id="text_11">
      <!-- 0.01 -->
      <g transform="translate(29.257812 57.584995)scale(0.1 -0.1)">
       <use xlink:href="#DejaVuSans-30"/>
       <use xlink:href="#DejaVuSans-2e" x="63.623047"/>
       <use xlink:href="#DejaVuSans-30" x="95.410156"/>
       <use xlink:href="#DejaVuSans-31" x="159.033203"/>
      </g>
     </g>
    </g>
    <g id="ytick_7">
     <g id="line2d_12">
      <g>
       <use xlink:href="#m935f739e8a" x="58.523438" y="32.392498" style="stroke: #000000; stroke-width: 0.8"/>
      </g>
     </g>
     <g id="text_12">
      <!-- 0.02 -->
      <g transform="translate(29.257812 36.191716)scale(0.1 -0.1)">
       <use xlink:href="#DejaVuSans-30"/>
       <use xlink:href="#DejaVuSans-2e" x="63.623047"/>
       <use xlink:href="#DejaVuSans-30" x="95.410156"/>
       <use xlink:href="#DejaVuSans-32" x="159.033203"/>
      </g>
     </g>
    </g>
    <g id="ytick_8">
     <g id="line2d_13">
      <g>
       <use xlink:href="#m935f739e8a" x="58.523438" y="10.999219" style="stroke: #000000; stroke-width: 0.8"/>
      </g>
     </g>
     <g id="text_13">
      <!-- 0.03 -->
      <g transform="translate(29.257812 14.798438)scale(0.1 -0.1)">
       <use xlink:href="#DejaVuSans-30"/>
       <use xlink:href="#DejaVuSans-2e" x="63.623047"/>
       <use xlink:href="#DejaVuSans-30" x="95.410156"/>
       <use xlink:href="#DejaVuSans-33" x="159.033203"/>
      </g>
     </g>
    </g>
    <g id="text_14">
     <!-- ${\nabla}_w L$ -->
     <g transform="translate(14.798437 98.334645)rotate(-90)scale(0.1 -0.1)">
      <defs>
       <path id="DejaVuSans-2207" d="M 2138 659 
L 3444 4047 
L 831 4047 
L 2138 659 
z
M 1791 0 
L -19 4603 
L 4300 4603 
L 2491 0 
L 1791 0 
z
" transform="scale(0.015625)"/>
       <path id="DejaVuSans-Oblique-77" d="M 544 3500 
L 1113 3500 
L 1259 684 
L 2566 3500 
L 3231 3500 
L 3425 684 
L 4666 3500 
L 5241 3500 
L 3641 0 
L 2969 0 
L 2797 2900 
L 1459 0 
L 781 0 
L 544 3500 
z
" transform="scale(0.015625)"/>
       <path id="DejaVuSans-Oblique-4c" d="M 1075 4666 
L 1709 4666 
L 909 525 
L 3181 525 
L 3078 0 
L 172 0 
L 1075 4666 
z
" transform="scale(0.015625)"/>
      </defs>
      <use xlink:href="#DejaVuSans-2207" transform="translate(0 0.09375)"/>
      <use xlink:href="#DejaVuSans-Oblique-77" transform="translate(67.851562 -16.3125)scale(0.7)"/>
      <use xlink:href="#DejaVuSans-Oblique-4c" transform="translate(127.836914 0.09375)"/>
     </g>
    </g>
   </g>
   <g id="line2d_14">
    <path d="M 114.323438 78.370296 
L 114.323438 71.62319 
" clip-path="url(#pd6d42c8ae5)" style="fill: none; stroke: #4c4c4c; stroke-width: 1.5; stroke-linecap: square"/>
   </g>
   <g id="line2d_15">
    <path d="M 114.323438 75.840126 
L 114.323438 74.153287 
" clip-path="url(#pd6d42c8ae5)" style="fill: none; stroke: #4c4c4c; stroke-width: 4.5; stroke-linecap: square"/>
   </g>
   <g id="line2d_16">
    <path d="M 225.923438 78.606982 
L 225.923438 71.430198 
" clip-path="url(#pd6d42c8ae5)" style="fill: none; stroke: #4c4c4c; stroke-width: 1.5; stroke-linecap: square"/>
   </g>
   <g id="line2d_17">
    <path d="M 225.923438 75.915687 
L 225.923438 74.121477 
" clip-path="url(#pd6d42c8ae5)" style="fill: none; stroke: #4c4c4c; stroke-width: 4.5; stroke-linecap: square"/>
   </g>
   <g id="line2d_18">
    <path d="M 337.523438 78.688695 
L 337.523438 71.266939 
" clip-path="url(#pd6d42c8ae5)" style="fill: none; stroke: #4c4c4c; stroke-width: 1.5; stroke-linecap: square"/>
   </g>
   <g id="line2d_19">
    <path d="M 337.523438 75.905697 
L 337.523438 74.050119 
" clip-path="url(#pd6d42c8ae5)" style="fill: none; stroke: #4c4c4c; stroke-width: 4.5; stroke-linecap: square"/>
   </g>
   <g id="line2d_20">
    <path d="M 449.123438 79.202696 
L 449.123438 70.727923 
" clip-path="url(#pd6d42c8ae5)" style="fill: none; stroke: #4c4c4c; stroke-width: 1.5; stroke-linecap: square"/>
   </g>
   <g id="line2d_21">
    <path d="M 449.123438 76.0253 
L 449.123438 73.90631 
" clip-path="url(#pd6d42c8ae5)" style="fill: none; stroke: #4c4c4c; stroke-width: 4.5; stroke-linecap: square"/>
   </g>
   <g id="line2d_22">
    <path d="M 560.723438 92.310139 
L 560.723438 57.770895 
" clip-path="url(#pd6d42c8ae5)" style="fill: none; stroke: #4c4c4c; stroke-width: 1.5; stroke-linecap: square"/>
   </g>
   <g id="line2d_23">
    <path d="M 560.723438 79.352222 
L 560.723438 70.67288 
" clip-path="url(#pd6d42c8ae5)" style="fill: none; stroke: #4c4c4c; stroke-width: 4.5; stroke-linecap: square"/>
   </g>
   <g id="patch_3">
    <path d="M 58.523438 170.674645 
L 58.523438 7.594645 
" style="fill: none; stroke: #000000; stroke-width: 0.8; stroke-linejoin: miter; stroke-linecap: square"/>
   </g>
   <g id="patch_4">
    <path d="M 616.523438 170.674645 
L 616.523438 7.594645 
" style="fill: none; stroke: #000000; stroke-width: 0.8; stroke-linejoin: miter; stroke-linecap: square"/>
   </g>
   <g id="patch_5">
    <path d="M 58.523438 170.674645 
L 616.523438 170.674645 
" style="fill: none; stroke: #000000; stroke-width: 0.8; stroke-linejoin: miter; stroke-linecap: square"/>
   </g>
   <g id="patch_6">
    <path d="M 58.523438 7.594645 
L 616.523438 7.594645 
" style="fill: none; stroke: #000000; stroke-width: 0.8; stroke-linejoin: miter; stroke-linecap: square"/>
   </g>
   <g id="PathCollection_1">
    <defs>
     <path id="m9a6f9c601f" d="M 0 1.5 
C 0.397805 1.5 0.77937 1.341951 1.06066 1.06066 
C 1.341951 0.77937 1.5 0.397805 1.5 0 
C 1.5 -0.397805 1.341951 -0.77937 1.06066 -1.06066 
C 0.77937 -1.341951 0.397805 -1.5 0 -1.5 
C -0.397805 -1.5 -0.77937 -1.341951 -1.06066 -1.06066 
C -1.341951 -0.77937 -1.5 -0.397805 -1.5 0 
C -1.5 0.397805 -1.341951 0.77937 -1.06066 1.06066 
C -0.77937 1.341951 -0.397805 1.5 0 1.5 
z
" style="stroke: #4c4c4c"/>
    </defs>
    <g clip-path="url(#pd6d42c8ae5)">
     <use xlink:href="#m9a6f9c601f" x="114.323438" y="75.169207" style="fill: #ffffff; stroke: #4c4c4c"/>
    </g>
   </g>
   <g id="PathCollection_2">
    <g clip-path="url(#pd6d42c8ae5)">
     <use xlink:href="#m9a6f9c601f" x="225.923438" y="75.146245" style="fill: #ffffff; stroke: #4c4c4c"/>
    </g>
   </g>
   <g id="PathCollection_3">
    <g clip-path="url(#pd6d42c8ae5)">
     <use xlink:href="#m9a6f9c601f" x="337.523438" y="75.136703" style="fill: #ffffff; stroke: #4c4c4c"/>
    </g>
   </g>
   <g id="PathCollection_4">
    <g clip-path="url(#pd6d42c8ae5)">
     <use xlink:href="#m9a6f9c601f" x="449.123438" y="75.123016" style="fill: #ffffff; stroke: #4c4c4c"/>
    </g>
   </g>
   <g id="PathCollection_5">
    <g clip-path="url(#pd6d42c8ae5)">
     <use xlink:href="#m9a6f9c601f" x="560.723438" y="74.687406" style="fill: #ffffff; stroke: #4c4c4c"/>
    </g>
   </g>
   <g id="legend_1">
    <g id="patch_7">
     <path d="M 65.523438 30.27277 
L 143.084375 30.27277 
Q 145.084375 30.27277 145.084375 28.27277 
L 145.084375 14.594645 
Q 145.084375 12.594645 143.084375 12.594645 
L 65.523438 12.594645 
Q 63.523438 12.594645 63.523438 14.594645 
L 63.523438 28.27277 
Q 63.523438 30.27277 65.523438 30.27277 
z
" style="fill: #ffffff; opacity: 0.8; stroke: #cccccc; stroke-linejoin: miter"/>
    </g>
    <g id="patch_8">
     <path d="M 67.523438 24.193082 
L 87.523438 24.193082 
L 87.523438 17.193082 
L 67.523438 17.193082 
z
" style="fill: #c03d3e; stroke: #4c4c4c; stroke-width: 1.5; stroke-linejoin: miter"/>
    </g>
    <g id="text_15">
     <!-- leakyrelu -->
     <g transform="translate(95.523438 24.193082)scale(0.1 -0.1)">
      <defs>
       <path id="DejaVuSans-6c" d="M 603 4863 
L 1178 4863 
L 1178 0 
L 603 0 
L 603 4863 
z
" transform="scale(0.015625)"/>
       <path id="DejaVuSans-61" d="M 2194 1759 
Q 1497 1759 1228 1600 
Q 959 1441 959 1056 
Q 959 750 1161 570 
Q 1363 391 1709 391 
Q 2188 391 2477 730 
Q 2766 1069 2766 1631 
L 2766 1759 
L 2194 1759 
z
M 3341 1997 
L 3341 0 
L 2766 0 
L 2766 531 
Q 2569 213 2275 61 
Q 1981 -91 1556 -91 
Q 1019 -91 701 211 
Q 384 513 384 1019 
Q 384 1609 779 1909 
Q 1175 2209 1959 2209 
L 2766 2209 
L 2766 2266 
Q 2766 2663 2505 2880 
Q 2244 3097 1772 3097 
Q 1472 3097 1187 3025 
Q 903 2953 641 2809 
L 641 3341 
Q 956 3463 1253 3523 
Q 1550 3584 1831 3584 
Q 2591 3584 2966 3190 
Q 3341 2797 3341 1997 
z
" transform="scale(0.015625)"/>
       <path id="DejaVuSans-6b" d="M 581 4863 
L 1159 4863 
L 1159 1991 
L 2875 3500 
L 3609 3500 
L 1753 1863 
L 3688 0 
L 2938 0 
L 1159 1709 
L 1159 0 
L 581 0 
L 581 4863 
z
" transform="scale(0.015625)"/>
       <path id="DejaVuSans-79" d="M 2059 -325 
Q 1816 -950 1584 -1140 
Q 1353 -1331 966 -1331 
L 506 -1331 
L 506 -850 
L 844 -850 
Q 1081 -850 1212 -737 
Q 1344 -625 1503 -206 
L 1606 56 
L 191 3500 
L 800 3500 
L 1894 763 
L 2988 3500 
L 3597 3500 
L 2059 -325 
z
" transform="scale(0.015625)"/>
       <path id="DejaVuSans-72" d="M 2631 2963 
Q 2534 3019 2420 3045 
Q 2306 3072 2169 3072 
Q 1681 3072 1420 2755 
Q 1159 2438 1159 1844 
L 1159 0 
L 581 0 
L 581 3500 
L 1159 3500 
L 1159 2956 
Q 1341 3275 1631 3429 
Q 1922 3584 2338 3584 
Q 2397 3584 2469 3576 
Q 2541 3569 2628 3553 
L 2631 2963 
z
" transform="scale(0.015625)"/>
       <path id="DejaVuSans-75" d="M 544 1381 
L 544 3500 
L 1119 3500 
L 1119 1403 
Q 1119 906 1312 657 
Q 1506 409 1894 409 
Q 2359 409 2629 706 
Q 2900 1003 2900 1516 
L 2900 3500 
L 3475 3500 
L 3475 0 
L 2900 0 
L 2900 538 
Q 2691 219 2414 64 
Q 2138 -91 1772 -91 
Q 1169 -91 856 284 
Q 544 659 544 1381 
z
M 1991 3584 
L 1991 3584 
z
" transform="scale(0.015625)"/>
      </defs>
      <use xlink:href="#DejaVuSans-6c"/>
      <use xlink:href="#DejaVuSans-65" x="27.783203"/>
      <use xlink:href="#DejaVuSans-61" x="89.306641"/>
      <use xlink:href="#DejaVuSans-6b" x="150.585938"/>
      <use xlink:href="#DejaVuSans-79" x="204.871094"/>
      <use xlink:href="#DejaVuSans-72" x="264.050781"/>
      <use xlink:href="#DejaVuSans-65" x="302.914062"/>
      <use xlink:href="#DejaVuSans-6c" x="364.4375"/>
      <use xlink:href="#DejaVuSans-75" x="392.220703"/>
     </g>
    </g>
   </g>
  </g>
 </g>
 <defs>
  <clipPath id="pd6d42c8ae5">
   <rect x="58.523438" y="7.594645" width="558" height="163.08"/>
  </clipPath>
 </defs>
</svg>
