<?xml version="1.0" encoding="utf-8" standalone="no"?>
<!DOCTYPE svg PUBLIC "-//W3C//DTD SVG 1.1//EN"
  "http://www.w3.org/Graphics/SVG/1.1/DTD/svg11.dtd">
<svg xmlns:xlink="http://www.w3.org/1999/xlink" width="614.204687pt" height="218.444553pt" viewBox="0 0 614.204687 218.444553" xmlns="http://www.w3.org/2000/svg" version="1.1">
 <metadata>
  <rdf:RDF xmlns:dc="http://purl.org/dc/elements/1.1/" xmlns:cc="http://creativecommons.org/ns#" xmlns:rdf="http://www.w3.org/1999/02/22-rdf-syntax-ns#">
   <cc:Work>
    <dc:type rdf:resource="http://purl.org/dc/dcmitype/StillImage"/>
    <dc:date>2022-07-08T02:25:28.725845</dc:date>
    <dc:format>image/svg+xml</dc:format>
    <dc:creator>
     <cc:Agent>
      <dc:title>Matplotlib v3.5.1, https://matplotlib.org/</dc:title>
     </cc:Agent>
    </dc:creator>
   </cc:Work>
  </rdf:RDF>
 </metadata>
 <defs>
  <style type="text/css">*{stroke-linejoin: round; stroke-linecap: butt}</style>
 </defs>
 <g id="figure_1">
  <g id="patch_1">
   <path d="M 0 218.444553 
L 614.204687 218.444553 
L 614.204687 0 
L 0 0 
L 0 218.444553 
z
" style="fill: none"/>
  </g>
  <g id="axes_1">
   <g id="patch_2">
    <path d="M 49.004687 170.28 
L 607.004688 170.28 
L 607.004688 7.2 
L 49.004687 7.2 
z
" style="fill: #ffffff"/>
   </g>
   <g id="PolyCollection_1">
    <defs>
     <path id="mfd7a8b4577" d="M 83.879691 -55.57728 
L 83.879684 -55.57728 
L 83.879666 -57.074801 
L 83.879687 -58.572322 
L 83.879687 -60.069842 
L 83.879641 -61.567363 
L 83.879503 -63.064884 
L 83.879476 -64.562404 
L 83.879572 -66.059925 
L 83.879418 -67.557445 
L 83.879046 -69.054966 
L 83.878817 -70.552487 
L 83.878513 -72.050007 
L 83.878473 -73.547528 
L 83.877654 -75.045049 
L 83.877446 -76.542569 
L 83.877174 -78.04009 
L 83.87619 -79.537611 
L 83.87468 -81.035131 
L 83.873404 -82.532652 
L 83.871478 -84.030173 
L 83.869379 -85.527693 
L 83.86805 -87.025214 
L 83.864415 -88.522735 
L 83.860718 -90.020255 
L 83.856574 -91.517776 
L 83.85026 -93.015297 
L 83.84472 -94.512817 
L 83.835473 -96.010338 
L 83.826779 -97.507859 
L 83.815167 -99.005379 
L 83.801972 -100.5029 
L 83.785666 -102.000421 
L 83.770202 -103.497941 
L 83.750463 -104.995462 
L 83.729714 -106.492983 
L 83.703067 -107.990503 
L 83.664346 -109.488024 
L 83.612224 -110.985545 
L 83.555512 -112.483065 
L 83.488538 -113.980586 
L 83.410435 -115.478107 
L 83.307635 -116.975627 
L 83.194603 -118.473148 
L 83.059896 -119.970669 
L 82.872599 -121.468189 
L 82.638169 -122.96571 
L 82.274436 -124.463231 
L 81.739214 -125.960751 
L 81.001138 -127.458272 
L 79.951872 -128.955793 
L 78.615889 -130.453313 
L 77.626631 -131.950834 
L 77.847171 -133.448355 
L 79.013823 -134.945875 
L 80.345451 -136.443396 
L 81.359937 -137.940917 
L 82.049436 -139.438437 
L 82.504581 -140.935958 
L 82.817593 -142.433479 
L 83.037048 -143.930999 
L 83.18487 -145.42852 
L 83.286486 -146.926041 
L 83.379153 -148.423561 
L 83.451084 -149.921082 
L 83.517289 -151.418603 
L 83.573799 -152.916123 
L 83.622601 -154.413644 
L 83.662231 -155.911164 
L 83.697997 -157.408685 
L 83.723055 -158.906206 
L 83.75025 -160.403726 
L 83.773762 -161.901247 
L 83.792107 -163.398768 
L 83.809835 -164.896288 
L 83.821975 -166.393809 
L 83.831325 -167.89133 
L 83.838986 -169.38885 
L 83.844959 -170.886371 
L 83.850456 -172.383892 
L 83.852032 -173.881412 
L 83.855131 -175.378933 
L 83.858716 -176.876454 
L 83.859331 -178.373974 
L 83.861532 -179.871495 
L 83.864536 -181.369016 
L 83.866376 -182.866536 
L 83.868461 -184.364057 
L 83.870585 -185.861578 
L 83.873217 -187.359098 
L 83.873999 -188.856619 
L 83.876096 -190.35414 
L 83.877134 -191.85166 
L 83.878332 -193.349181 
L 83.878804 -194.846702 
L 83.879196 -196.344222 
L 83.879388 -197.841743 
L 83.879561 -199.339264 
L 83.879669 -200.836784 
L 83.879666 -202.334305 
L 83.879684 -203.831826 
L 83.879691 -203.831826 
L 83.879691 -203.831826 
L 83.879709 -202.334305 
L 83.879706 -200.836784 
L 83.879814 -199.339264 
L 83.879987 -197.841743 
L 83.880179 -196.344222 
L 83.880571 -194.846702 
L 83.881043 -193.349181 
L 83.882241 -191.85166 
L 83.883279 -190.35414 
L 83.885376 -188.856619 
L 83.886158 -187.359098 
L 83.88879 -185.861578 
L 83.890914 -184.364057 
L 83.892999 -182.866536 
L 83.894839 -181.369016 
L 83.897843 -179.871495 
L 83.900044 -178.373974 
L 83.900659 -176.876454 
L 83.904244 -175.378933 
L 83.907343 -173.881412 
L 83.908919 -172.383892 
L 83.914416 -170.886371 
L 83.920389 -169.38885 
L 83.92805 -167.89133 
L 83.9374 -166.393809 
L 83.94954 -164.896288 
L 83.967268 -163.398768 
L 83.985613 -161.901247 
L 84.009125 -160.403726 
L 84.03632 -158.906206 
L 84.061378 -157.408685 
L 84.097144 -155.911164 
L 84.136774 -154.413644 
L 84.185576 -152.916123 
L 84.242086 -151.418603 
L 84.308291 -149.921082 
L 84.380222 -148.423561 
L 84.472889 -146.926041 
L 84.574505 -145.42852 
L 84.722327 -143.930999 
L 84.941782 -142.433479 
L 85.254794 -140.935958 
L 85.709939 -139.438437 
L 86.399438 -137.940917 
L 87.413924 -136.443396 
L 88.745552 -134.945875 
L 89.912204 -133.448355 
L 90.132744 -131.950834 
L 89.143486 -130.453313 
L 87.807503 -128.955793 
L 86.758237 -127.458272 
L 86.020161 -125.960751 
L 85.484939 -124.463231 
L 85.121206 -122.96571 
L 84.886776 -121.468189 
L 84.699479 -119.970669 
L 84.564772 -118.473148 
L 84.45174 -116.975627 
L 84.34894 -115.478107 
L 84.270837 -113.980586 
L 84.203863 -112.483065 
L 84.147151 -110.985545 
L 84.095029 -109.488024 
L 84.056308 -107.990503 
L 84.029661 -106.492983 
L 84.008912 -104.995462 
L 83.989173 -103.497941 
L 83.973709 -102.000421 
L 83.957403 -100.5029 
L 83.944208 -99.005379 
L 83.932596 -97.507859 
L 83.923902 -96.010338 
L 83.914655 -94.512817 
L 83.909115 -93.015297 
L 83.902801 -91.517776 
L 83.898657 -90.020255 
L 83.89496 -88.522735 
L 83.891325 -87.025214 
L 83.889996 -85.527693 
L 83.887897 -84.030173 
L 83.885971 -82.532652 
L 83.884695 -81.035131 
L 83.883185 -79.537611 
L 83.882201 -78.04009 
L 83.881929 -76.542569 
L 83.881721 -75.045049 
L 83.880902 -73.547528 
L 83.880862 -72.050007 
L 83.880558 -70.552487 
L 83.880329 -69.054966 
L 83.879957 -67.557445 
L 83.879803 -66.059925 
L 83.879899 -64.562404 
L 83.879872 -63.064884 
L 83.879734 -61.567363 
L 83.879688 -60.069842 
L 83.879688 -58.572322 
L 83.879709 -57.074801 
L 83.879691 -55.57728 
z
" style="stroke: #3f3f3f; stroke-width: 1.5"/>
    </defs>
    <g clip-path="url(#pdf5095c097)">
     <use xlink:href="#mfd7a8b4577" x="0" y="218.444553" style="fill: #3274a1; stroke: #3f3f3f; stroke-width: 1.5"/>
    </g>
   </g>
   <g id="PolyCollection_2">
    <defs>
     <path id="mcce6c5fb80" d="M 153.913646 -132.568208 
L 153.345729 -132.568208 
L 152.195007 -132.636831 
L 149.52829 -132.705454 
L 146.495763 -132.774078 
L 145.042942 -132.842701 
L 145.059744 -132.911324 
L 145.390434 -132.979947 
L 145.622966 -133.04857 
L 145.776922 -133.117193 
L 145.863214 -133.185816 
L 145.898626 -133.254439 
L 145.927011 -133.323062 
L 145.963316 -133.391685 
L 145.980367 -133.460309 
L 145.952107 -133.528932 
L 145.874216 -133.597555 
L 145.756017 -133.666178 
L 145.628111 -133.734801 
L 145.50805 -133.803424 
L 145.351395 -133.872047 
L 145.116405 -133.94067 
L 144.822319 -134.009293 
L 144.518985 -134.077916 
L 144.209288 -134.146539 
L 143.833231 -134.215163 
L 143.385511 -134.283786 
L 142.924746 -134.352409 
L 142.468809 -134.421032 
L 141.997133 -134.489655 
L 141.485604 -134.558278 
L 140.916951 -134.626901 
L 140.311028 -134.695524 
L 139.691935 -134.764147 
L 139.03439 -134.83277 
L 138.309327 -134.901393 
L 137.520811 -134.970017 
L 136.689359 -135.03864 
L 135.827541 -135.107263 
L 134.942548 -135.175886 
L 134.041003 -135.244509 
L 133.108059 -135.313132 
L 132.145225 -135.381755 
L 131.185737 -135.450378 
L 130.297894 -135.519001 
L 129.553442 -135.587624 
L 128.953877 -135.656248 
L 128.491403 -135.724871 
L 128.202111 -135.793494 
L 128.096388 -135.862117 
L 128.143574 -135.93074 
L 128.329889 -135.999363 
L 128.669353 -136.067986 
L 129.175746 -136.136609 
L 129.833148 -136.205232 
L 130.583097 -136.273855 
L 131.376959 -136.342478 
L 132.214766 -136.411102 
L 133.113464 -136.479725 
L 134.060359 -136.548348 
L 135.026786 -136.616971 
L 135.985899 -136.685594 
L 136.9092 -136.754217 
L 137.798227 -136.82284 
L 138.666826 -136.891463 
L 139.481692 -136.960086 
L 140.217665 -137.028709 
L 140.902933 -137.097332 
L 141.564052 -137.165956 
L 142.196292 -137.234579 
L 142.792747 -137.303202 
L 143.327408 -137.371825 
L 143.785991 -137.440448 
L 144.217724 -137.509071 
L 144.645977 -137.577694 
L 145.031863 -137.646317 
L 145.35866 -137.71494 
L 145.652167 -137.783563 
L 145.926355 -137.852187 
L 146.183608 -137.92081 
L 146.427968 -137.989433 
L 146.655392 -138.058056 
L 146.845541 -138.126679 
L 146.985427 -138.195302 
L 147.079769 -138.263925 
L 147.139458 -138.332548 
L 147.1712 -138.401171 
L 147.149107 -138.469794 
L 147.065063 -138.538417 
L 146.960625 -138.607041 
L 146.845618 -138.675664 
L 146.68571 -138.744287 
L 146.467718 -138.81291 
L 146.178301 -138.881533 
L 145.764813 -138.950156 
L 145.224225 -139.018779 
L 145.017547 -139.087402 
L 146.291499 -139.156025 
L 149.257557 -139.224648 
L 152.032588 -139.293271 
L 153.298869 -139.361895 
L 153.960506 -139.361895 
L 153.960506 -139.361895 
L 155.226787 -139.293271 
L 158.001818 -139.224648 
L 160.967876 -139.156025 
L 162.241828 -139.087402 
L 162.03515 -139.018779 
L 161.494562 -138.950156 
L 161.081074 -138.881533 
L 160.791657 -138.81291 
L 160.573665 -138.744287 
L 160.413757 -138.675664 
L 160.29875 -138.607041 
L 160.194312 -138.538417 
L 160.110268 -138.469794 
L 160.088175 -138.401171 
L 160.119917 -138.332548 
L 160.179606 -138.263925 
L 160.273948 -138.195302 
L 160.413834 -138.126679 
L 160.603983 -138.058056 
L 160.831407 -137.989433 
L 161.075767 -137.92081 
L 161.33302 -137.852187 
L 161.607208 -137.783563 
L 161.900715 -137.71494 
L 162.227512 -137.646317 
L 162.613398 -137.577694 
L 163.041651 -137.509071 
L 163.473384 -137.440448 
L 163.931967 -137.371825 
L 164.466628 -137.303202 
L 165.063083 -137.234579 
L 165.695323 -137.165956 
L 166.356442 -137.097332 
L 167.04171 -137.028709 
L 167.777683 -136.960086 
L 168.592549 -136.891463 
L 169.461148 -136.82284 
L 170.350175 -136.754217 
L 171.273476 -136.685594 
L 172.232589 -136.616971 
L 173.199016 -136.548348 
L 174.145911 -136.479725 
L 175.044609 -136.411102 
L 175.882416 -136.342478 
L 176.676278 -136.273855 
L 177.426227 -136.205232 
L 178.083629 -136.136609 
L 178.590022 -136.067986 
L 178.929486 -135.999363 
L 179.115801 -135.93074 
L 179.162987 -135.862117 
L 179.057264 -135.793494 
L 178.767972 -135.724871 
L 178.305498 -135.656248 
L 177.705933 -135.587624 
L 176.961481 -135.519001 
L 176.073638 -135.450378 
L 175.11415 -135.381755 
L 174.151316 -135.313132 
L 173.218372 -135.244509 
L 172.316827 -135.175886 
L 171.431834 -135.107263 
L 170.570016 -135.03864 
L 169.738564 -134.970017 
L 168.950048 -134.901393 
L 168.224985 -134.83277 
L 167.56744 -134.764147 
L 166.948347 -134.695524 
L 166.342424 -134.626901 
L 165.773771 -134.558278 
L 165.262242 -134.489655 
L 164.790566 -134.421032 
L 164.334629 -134.352409 
L 163.873864 -134.283786 
L 163.426144 -134.215163 
L 163.050087 -134.146539 
L 162.74039 -134.077916 
L 162.437056 -134.009293 
L 162.14297 -133.94067 
L 161.90798 -133.872047 
L 161.751325 -133.803424 
L 161.631264 -133.734801 
L 161.503358 -133.666178 
L 161.385159 -133.597555 
L 161.307268 -133.528932 
L 161.279008 -133.460309 
L 161.296059 -133.391685 
L 161.332364 -133.323062 
L 161.360749 -133.254439 
L 161.396161 -133.185816 
L 161.482453 -133.117193 
L 161.636409 -133.04857 
L 161.868941 -132.979947 
L 162.199631 -132.911324 
L 162.216433 -132.842701 
L 160.763612 -132.774078 
L 157.731085 -132.705454 
L 155.064368 -132.636831 
L 153.913646 -132.568208 
z
" style="stroke: #3f3f3f; stroke-width: 1.5"/>
    </defs>
    <g clip-path="url(#pdf5095c097)">
     <use xlink:href="#mcce6c5fb80" x="0" y="218.444553" style="fill: #3274a1; stroke: #3f3f3f; stroke-width: 1.5"/>
    </g>
   </g>
   <g id="PolyCollection_3">
    <defs>
     <path id="m6f82bf87f1" d="M 223.379699 -101.719703 
L 223.379676 -101.719703 
L 223.379606 -102.300288 
L 223.379645 -102.880873 
L 223.379686 -103.461459 
L 223.379687 -104.042044 
L 223.379669 -104.622629 
L 223.379558 -105.203214 
L 223.379177 -105.783799 
L 223.378142 -106.364384 
L 223.376705 -106.944969 
L 223.374614 -107.525554 
L 223.371452 -108.106139 
L 223.369205 -108.686725 
L 223.365545 -109.26731 
L 223.358943 -109.847895 
L 223.352312 -110.42848 
L 223.346452 -111.009065 
L 223.339563 -111.58965 
L 223.328524 -112.170235 
L 223.321409 -112.75082 
L 223.307974 -113.331406 
L 223.290399 -113.911991 
L 223.275523 -114.492576 
L 223.259099 -115.073161 
L 223.227025 -115.653746 
L 223.181912 -116.234331 
L 223.138869 -116.814916 
L 223.096578 -117.395501 
L 223.056457 -117.976086 
L 223.012232 -118.556672 
L 222.95624 -119.137257 
L 222.888713 -119.717842 
L 222.799187 -120.298427 
L 222.682386 -120.879012 
L 222.548638 -121.459597 
L 222.415297 -122.040182 
L 222.302378 -122.620767 
L 222.220098 -123.201352 
L 222.099438 -123.781938 
L 221.88558 -124.362523 
L 221.638665 -124.943108 
L 221.36518 -125.523693 
L 221.057214 -126.104278 
L 220.63044 -126.684863 
L 220.068508 -127.265448 
L 219.443667 -127.846033 
L 218.816809 -128.426619 
L 218.274014 -129.007204 
L 217.833817 -129.587789 
L 217.418046 -130.168374 
L 216.942958 -130.748959 
L 216.594888 -131.329544 
L 216.447257 -131.910129 
L 216.422236 -132.490714 
L 216.585787 -133.071299 
L 217.007722 -133.651885 
L 217.490712 -134.23247 
L 217.977876 -134.813055 
L 218.441897 -135.39364 
L 218.88423 -135.974225 
L 219.335758 -136.55481 
L 219.752827 -137.135395 
L 220.104112 -137.71598 
L 220.367418 -138.296566 
L 220.602415 -138.877151 
L 220.875727 -139.457736 
L 221.143172 -140.038321 
L 221.443765 -140.618906 
L 221.699457 -141.199491 
L 221.93044 -141.780076 
L 222.140733 -142.360661 
L 222.333047 -142.941246 
L 222.483835 -143.521832 
L 222.616223 -144.102417 
L 222.738831 -144.683002 
L 222.835568 -145.263587 
L 222.923196 -145.844172 
L 222.99675 -146.424757 
L 223.058419 -147.005342 
L 223.118379 -147.585927 
L 223.164785 -148.166512 
L 223.199026 -148.747098 
L 223.225393 -149.327683 
L 223.256562 -149.908268 
L 223.278716 -150.488853 
L 223.294887 -151.069438 
L 223.311388 -151.650023 
L 223.331165 -152.230608 
L 223.347613 -152.811193 
L 223.359393 -153.391779 
L 223.367916 -153.972364 
L 223.374033 -154.552949 
L 223.377456 -155.133534 
L 223.379023 -155.714119 
L 223.379333 -156.294704 
L 223.379505 -156.875289 
L 223.379673 -157.455874 
L 223.379645 -158.036459 
L 223.379606 -158.617045 
L 223.379676 -159.19763 
L 223.379699 -159.19763 
L 223.379699 -159.19763 
L 223.379769 -158.617045 
L 223.37973 -158.036459 
L 223.379702 -157.455874 
L 223.37987 -156.875289 
L 223.380042 -156.294704 
L 223.380352 -155.714119 
L 223.381919 -155.133534 
L 223.385342 -154.552949 
L 223.391459 -153.972364 
L 223.399982 -153.391779 
L 223.411762 -152.811193 
L 223.42821 -152.230608 
L 223.447987 -151.650023 
L 223.464488 -151.069438 
L 223.480659 -150.488853 
L 223.502813 -149.908268 
L 223.533982 -149.327683 
L 223.560349 -148.747098 
L 223.59459 -148.166512 
L 223.640996 -147.585927 
L 223.700956 -147.005342 
L 223.762625 -146.424757 
L 223.836179 -145.844172 
L 223.923807 -145.263587 
L 224.020544 -144.683002 
L 224.143152 -144.102417 
L 224.27554 -143.521832 
L 224.426328 -142.941246 
L 224.618642 -142.360661 
L 224.828935 -141.780076 
L 225.059918 -141.199491 
L 225.31561 -140.618906 
L 225.616203 -140.038321 
L 225.883648 -139.457736 
L 226.15696 -138.877151 
L 226.391957 -138.296566 
L 226.655263 -137.71598 
L 227.006548 -137.135395 
L 227.423617 -136.55481 
L 227.875145 -135.974225 
L 228.317478 -135.39364 
L 228.781499 -134.813055 
L 229.268663 -134.23247 
L 229.751653 -133.651885 
L 230.173588 -133.071299 
L 230.337139 -132.490714 
L 230.312118 -131.910129 
L 230.164487 -131.329544 
L 229.816417 -130.748959 
L 229.341329 -130.168374 
L 228.925558 -129.587789 
L 228.485361 -129.007204 
L 227.942566 -128.426619 
L 227.315708 -127.846033 
L 226.690867 -127.265448 
L 226.128935 -126.684863 
L 225.702161 -126.104278 
L 225.394195 -125.523693 
L 225.12071 -124.943108 
L 224.873795 -124.362523 
L 224.659937 -123.781938 
L 224.539277 -123.201352 
L 224.456997 -122.620767 
L 224.344078 -122.040182 
L 224.210737 -121.459597 
L 224.076989 -120.879012 
L 223.960188 -120.298427 
L 223.870662 -119.717842 
L 223.803135 -119.137257 
L 223.747143 -118.556672 
L 223.702918 -117.976086 
L 223.662797 -117.395501 
L 223.620506 -116.814916 
L 223.577463 -116.234331 
L 223.53235 -115.653746 
L 223.500276 -115.073161 
L 223.483852 -114.492576 
L 223.468976 -113.911991 
L 223.451401 -113.331406 
L 223.437966 -112.75082 
L 223.430851 -112.170235 
L 223.419812 -111.58965 
L 223.412923 -111.009065 
L 223.407063 -110.42848 
L 223.400432 -109.847895 
L 223.39383 -109.26731 
L 223.39017 -108.686725 
L 223.387923 -108.106139 
L 223.384761 -107.525554 
L 223.38267 -106.944969 
L 223.381233 -106.364384 
L 223.380198 -105.783799 
L 223.379817 -105.203214 
L 223.379706 -104.622629 
L 223.379688 -104.042044 
L 223.379689 -103.461459 
L 223.37973 -102.880873 
L 223.379769 -102.300288 
L 223.379699 -101.719703 
z
" style="stroke: #3f3f3f; stroke-width: 1.5"/>
    </defs>
    <g clip-path="url(#pdf5095c097)">
     <use xlink:href="#m6f82bf87f1" x="0" y="218.444553" style="fill: #3274a1; stroke: #3f3f3f; stroke-width: 1.5"/>
    </g>
   </g>
   <g id="PolyCollection_4">
    <defs>
     <path id="ma859c5bd5d" d="M 293.131042 -132.642956 
L 293.128333 -132.642956 
L 293.115208 -132.709472 
L 293.043811 -132.775989 
L 292.828716 -132.842506 
L 292.44421 -132.909022 
L 291.982091 -132.975539 
L 291.522686 -133.042055 
L 291.043432 -133.108572 
L 290.492002 -133.175088 
L 289.926308 -133.241605 
L 289.460205 -133.308122 
L 289.08656 -133.374638 
L 288.71359 -133.441155 
L 288.271693 -133.507671 
L 287.731125 -133.574188 
L 287.121471 -133.640704 
L 286.526664 -133.707221 
L 286.034137 -133.773738 
L 285.704262 -133.840254 
L 285.521683 -133.906771 
L 285.344344 -133.973287 
L 284.995932 -134.039804 
L 284.447503 -134.10632 
L 283.81716 -134.172837 
L 283.183182 -134.239354 
L 282.539458 -134.30587 
L 281.883331 -134.372387 
L 281.188088 -134.438903 
L 280.335579 -134.50542 
L 279.269466 -134.571937 
L 278.071362 -134.638453 
L 276.817247 -134.70497 
L 275.552493 -134.771486 
L 274.315677 -134.838003 
L 273.142702 -134.904519 
L 272.085018 -134.971036 
L 271.193118 -135.037553 
L 270.453367 -135.104069 
L 269.812063 -135.170586 
L 269.202335 -135.237102 
L 268.610929 -135.303619 
L 267.956409 -135.370135 
L 267.163753 -135.436652 
L 266.386401 -135.503169 
L 265.841353 -135.569685 
L 265.534311 -135.636202 
L 265.329362 -135.702718 
L 265.231855 -135.769235 
L 265.229687 -135.835751 
L 265.236679 -135.902268 
L 265.345646 -135.968785 
L 265.729982 -136.035301 
L 266.389556 -136.101818 
L 267.189227 -136.168334 
L 267.995643 -136.234851 
L 268.796277 -136.301367 
L 269.621957 -136.367884 
L 270.436479 -136.434401 
L 271.197047 -136.500917 
L 271.94052 -136.567434 
L 272.687614 -136.63395 
L 273.39689 -136.700467 
L 274.08517 -136.766983 
L 274.819967 -136.8335 
L 275.594589 -136.900017 
L 276.320234 -136.966533 
L 276.971054 -137.03305 
L 277.571682 -137.099566 
L 278.099686 -137.166083 
L 278.509479 -137.232599 
L 278.820241 -137.299116 
L 279.153188 -137.365633 
L 279.596099 -137.432149 
L 280.090283 -137.498666 
L 280.591168 -137.565182 
L 281.181886 -137.631699 
L 281.877876 -137.698215 
L 282.565695 -137.764732 
L 283.19698 -137.831249 
L 283.831772 -137.897765 
L 284.48984 -137.964282 
L 285.149728 -138.030798 
L 285.786414 -138.097315 
L 286.370989 -138.163831 
L 286.934906 -138.230348 
L 287.500627 -138.296865 
L 288.049464 -138.363381 
L 288.580021 -138.429898 
L 289.102961 -138.496414 
L 289.625541 -138.562931 
L 290.134002 -138.629447 
L 290.602078 -138.695964 
L 291.054546 -138.762481 
L 291.545203 -138.828997 
L 292.095059 -138.895514 
L 292.61411 -138.96203 
L 292.952879 -139.028547 
L 293.09096 -139.095063 
L 293.124488 -139.16158 
L 293.12926 -139.228097 
L 293.130115 -139.228097 
L 293.130115 -139.228097 
L 293.134887 -139.16158 
L 293.168415 -139.095063 
L 293.306496 -139.028547 
L 293.645265 -138.96203 
L 294.164316 -138.895514 
L 294.714172 -138.828997 
L 295.204829 -138.762481 
L 295.657297 -138.695964 
L 296.125373 -138.629447 
L 296.633834 -138.562931 
L 297.156414 -138.496414 
L 297.679354 -138.429898 
L 298.209911 -138.363381 
L 298.758748 -138.296865 
L 299.324469 -138.230348 
L 299.888386 -138.163831 
L 300.472961 -138.097315 
L 301.109647 -138.030798 
L 301.769535 -137.964282 
L 302.427603 -137.897765 
L 303.062395 -137.831249 
L 303.69368 -137.764732 
L 304.381499 -137.698215 
L 305.077489 -137.631699 
L 305.668207 -137.565182 
L 306.169092 -137.498666 
L 306.663276 -137.432149 
L 307.106187 -137.365633 
L 307.439134 -137.299116 
L 307.749896 -137.232599 
L 308.159689 -137.166083 
L 308.687693 -137.099566 
L 309.288321 -137.03305 
L 309.939141 -136.966533 
L 310.664786 -136.900017 
L 311.439408 -136.8335 
L 312.174205 -136.766983 
L 312.862485 -136.700467 
L 313.571761 -136.63395 
L 314.318855 -136.567434 
L 315.062328 -136.500917 
L 315.822896 -136.434401 
L 316.637418 -136.367884 
L 317.463098 -136.301367 
L 318.263732 -136.234851 
L 319.070148 -136.168334 
L 319.869819 -136.101818 
L 320.529393 -136.035301 
L 320.913729 -135.968785 
L 321.022696 -135.902268 
L 321.029688 -135.835751 
L 321.02752 -135.769235 
L 320.930013 -135.702718 
L 320.725064 -135.636202 
L 320.418022 -135.569685 
L 319.872974 -135.503169 
L 319.095622 -135.436652 
L 318.302966 -135.370135 
L 317.648446 -135.303619 
L 317.05704 -135.237102 
L 316.447312 -135.170586 
L 315.806008 -135.104069 
L 315.066257 -135.037553 
L 314.174357 -134.971036 
L 313.116673 -134.904519 
L 311.943698 -134.838003 
L 310.706882 -134.771486 
L 309.442128 -134.70497 
L 308.188013 -134.638453 
L 306.989909 -134.571937 
L 305.923796 -134.50542 
L 305.071287 -134.438903 
L 304.376044 -134.372387 
L 303.719917 -134.30587 
L 303.076193 -134.239354 
L 302.442215 -134.172837 
L 301.811872 -134.10632 
L 301.263443 -134.039804 
L 300.915031 -133.973287 
L 300.737692 -133.906771 
L 300.555113 -133.840254 
L 300.225238 -133.773738 
L 299.732711 -133.707221 
L 299.137904 -133.640704 
L 298.52825 -133.574188 
L 297.987682 -133.507671 
L 297.545785 -133.441155 
L 297.172815 -133.374638 
L 296.79917 -133.308122 
L 296.333067 -133.241605 
L 295.767373 -133.175088 
L 295.215943 -133.108572 
L 294.736689 -133.042055 
L 294.277284 -132.975539 
L 293.815165 -132.909022 
L 293.430659 -132.842506 
L 293.215564 -132.775989 
L 293.144167 -132.709472 
L 293.131042 -132.642956 
z
" style="stroke: #3f3f3f; stroke-width: 1.5"/>
    </defs>
    <g clip-path="url(#pdf5095c097)">
     <use xlink:href="#ma859c5bd5d" x="0" y="218.444553" style="fill: #3274a1; stroke: #3f3f3f; stroke-width: 1.5"/>
    </g>
   </g>
   <g id="PolyCollection_5">
    <defs>
     <path id="m64091f4227" d="M 362.879706 -106.608226 
L 362.879669 -106.608226 
L 362.879412 -107.123698 
L 362.878436 -107.639171 
L 362.877511 -108.154643 
L 362.876808 -108.670116 
L 362.875301 -109.185588 
L 362.874608 -109.701061 
L 362.873737 -110.216533 
L 362.872396 -110.732006 
L 362.871341 -111.247478 
L 362.870374 -111.762951 
L 362.866406 -112.278423 
L 362.860924 -112.793896 
L 362.854846 -113.309368 
L 362.844865 -113.824841 
L 362.829626 -114.340313 
L 362.812364 -114.855786 
L 362.792828 -115.371258 
L 362.765336 -115.886731 
L 362.732024 -116.402203 
L 362.693602 -116.917676 
L 362.647469 -117.433148 
L 362.600515 -117.948621 
L 362.554606 -118.464093 
L 362.49768 -118.979566 
L 362.435575 -119.495038 
L 362.364266 -120.010511 
L 362.279627 -120.525983 
L 362.183439 -121.041456 
L 362.071105 -121.556928 
L 361.955952 -122.072401 
L 361.816851 -122.587873 
L 361.658956 -123.103346 
L 361.486913 -123.618818 
L 361.288598 -124.134291 
L 361.096253 -124.649763 
L 360.87568 -125.165236 
L 360.594927 -125.680708 
L 360.314892 -126.196181 
L 359.984431 -126.711653 
L 359.61862 -127.227126 
L 359.265576 -127.742598 
L 358.867678 -128.258071 
L 358.363752 -128.773543 
L 357.911864 -129.289016 
L 357.606758 -129.804488 
L 357.334884 -130.319961 
L 357.111007 -130.835433 
L 356.97612 -131.350906 
L 356.889641 -131.866378 
L 356.756987 -132.381851 
L 356.660414 -132.897323 
L 356.71629 -133.412796 
L 356.82985 -133.928268 
L 356.969698 -134.443741 
L 357.232704 -134.959213 
L 357.641595 -135.474686 
L 358.066256 -135.990158 
L 358.432009 -136.50563 
L 358.681931 -137.021103 
L 358.891238 -137.536575 
L 359.211657 -138.052048 
L 359.594755 -138.56752 
L 359.958592 -139.082993 
L 360.277015 -139.598465 
L 360.54962 -140.113938 
L 360.795603 -140.62941 
L 361.00607 -141.144883 
L 361.201513 -141.660355 
L 361.370773 -142.175828 
L 361.516279 -142.6913 
L 361.670424 -143.206773 
L 361.823336 -143.722245 
L 361.96461 -144.237718 
L 362.09785 -144.75319 
L 362.212395 -145.268663 
L 362.312986 -145.784135 
L 362.398341 -146.299608 
L 362.462724 -146.81508 
L 362.515565 -147.330553 
L 362.567279 -147.846025 
L 362.623232 -148.361498 
L 362.678003 -148.87697 
L 362.716878 -149.392443 
L 362.744833 -149.907915 
L 362.770856 -150.423388 
L 362.794964 -150.93886 
L 362.812209 -151.454333 
L 362.825689 -151.969805 
L 362.836735 -152.485278 
L 362.847114 -153.00075 
L 362.855212 -153.516223 
L 362.861308 -154.031695 
L 362.865575 -154.547168 
L 362.868191 -155.06264 
L 362.872338 -155.578113 
L 362.875914 -156.093585 
L 362.878354 -156.609058 
L 362.879421 -157.12453 
L 362.879665 -157.640003 
L 362.87971 -157.640003 
L 362.87971 -157.640003 
L 362.879954 -157.12453 
L 362.881021 -156.609058 
L 362.883461 -156.093585 
L 362.887037 -155.578113 
L 362.891184 -155.06264 
L 362.8938 -154.547168 
L 362.898067 -154.031695 
L 362.904163 -153.516223 
L 362.912261 -153.00075 
L 362.92264 -152.485278 
L 362.933686 -151.969805 
L 362.947166 -151.454333 
L 362.964411 -150.93886 
L 362.988519 -150.423388 
L 363.014542 -149.907915 
L 363.042497 -149.392443 
L 363.081372 -148.87697 
L 363.136143 -148.361498 
L 363.192096 -147.846025 
L 363.24381 -147.330553 
L 363.296651 -146.81508 
L 363.361034 -146.299608 
L 363.446389 -145.784135 
L 363.54698 -145.268663 
L 363.661525 -144.75319 
L 363.794765 -144.237718 
L 363.936039 -143.722245 
L 364.088951 -143.206773 
L 364.243096 -142.6913 
L 364.388602 -142.175828 
L 364.557862 -141.660355 
L 364.753305 -141.144883 
L 364.963772 -140.62941 
L 365.209755 -140.113938 
L 365.48236 -139.598465 
L 365.800783 -139.082993 
L 366.16462 -138.56752 
L 366.547718 -138.052048 
L 366.868137 -137.536575 
L 367.077444 -137.021103 
L 367.327366 -136.50563 
L 367.693119 -135.990158 
L 368.11778 -135.474686 
L 368.526671 -134.959213 
L 368.789677 -134.443741 
L 368.929525 -133.928268 
L 369.043085 -133.412796 
L 369.098961 -132.897323 
L 369.002388 -132.381851 
L 368.869734 -131.866378 
L 368.783255 -131.350906 
L 368.648368 -130.835433 
L 368.424491 -130.319961 
L 368.152617 -129.804488 
L 367.847511 -129.289016 
L 367.395623 -128.773543 
L 366.891697 -128.258071 
L 366.493799 -127.742598 
L 366.140755 -127.227126 
L 365.774944 -126.711653 
L 365.444483 -126.196181 
L 365.164448 -125.680708 
L 364.883695 -125.165236 
L 364.663122 -124.649763 
L 364.470777 -124.134291 
L 364.272462 -123.618818 
L 364.100419 -123.103346 
L 363.942524 -122.587873 
L 363.803423 -122.072401 
L 363.68827 -121.556928 
L 363.575936 -121.041456 
L 363.479748 -120.525983 
L 363.395109 -120.010511 
L 363.3238 -119.495038 
L 363.261695 -118.979566 
L 363.204769 -118.464093 
L 363.15886 -117.948621 
L 363.111906 -117.433148 
L 363.065773 -116.917676 
L 363.027351 -116.402203 
L 362.994039 -115.886731 
L 362.966547 -115.371258 
L 362.947011 -114.855786 
L 362.929749 -114.340313 
L 362.91451 -113.824841 
L 362.904529 -113.309368 
L 362.898451 -112.793896 
L 362.892969 -112.278423 
L 362.889001 -111.762951 
L 362.888034 -111.247478 
L 362.886979 -110.732006 
L 362.885638 -110.216533 
L 362.884767 -109.701061 
L 362.884074 -109.185588 
L 362.882567 -108.670116 
L 362.881864 -108.154643 
L 362.880939 -107.639171 
L 362.879963 -107.123698 
L 362.879706 -106.608226 
z
" style="stroke: #3f3f3f; stroke-width: 1.5"/>
    </defs>
    <g clip-path="url(#pdf5095c097)">
     <use xlink:href="#m64091f4227" x="0" y="218.444553" style="fill: #3274a1; stroke: #3f3f3f; stroke-width: 1.5"/>
    </g>
   </g>
   <g id="PolyCollection_6">
    <defs>
     <path id="m7efd87e96b" d="M 432.632541 -132.704939 
L 432.626834 -132.704939 
L 432.61146 -132.770545 
L 432.561281 -132.836152 
L 432.457375 -132.901758 
L 432.279679 -132.967364 
L 431.981394 -133.03297 
L 431.531065 -133.098576 
L 430.955421 -133.164182 
L 430.315075 -133.229788 
L 429.684452 -133.295395 
L 429.116197 -133.361001 
L 428.600385 -133.426607 
L 428.098882 -133.492213 
L 427.585086 -133.557819 
L 427.050276 -133.623425 
L 426.505699 -133.689032 
L 425.9687 -133.754638 
L 425.419984 -133.820244 
L 424.845003 -133.88585 
L 424.263259 -133.951456 
L 423.666236 -134.017062 
L 423.068424 -134.082668 
L 422.524094 -134.148275 
L 421.995065 -134.213881 
L 421.363811 -134.279487 
L 420.659993 -134.345093 
L 419.991626 -134.410699 
L 419.328535 -134.476305 
L 418.58328 -134.541912 
L 417.779301 -134.607518 
L 417.009676 -134.673124 
L 416.30694 -134.73873 
L 415.622165 -134.804336 
L 414.856358 -134.869942 
L 413.929304 -134.935548 
L 412.875437 -135.001155 
L 411.90083 -135.066761 
L 411.19993 -135.132367 
L 410.728796 -135.197973 
L 410.309202 -135.263579 
L 409.881967 -135.329185 
L 409.497574 -135.394792 
L 409.164227 -135.460398 
L 408.895626 -135.526004 
L 408.742369 -135.59161 
L 408.689718 -135.657216 
L 408.623012 -135.722822 
L 408.454081 -135.788428 
L 408.198613 -135.854035 
L 407.91741 -135.919641 
L 407.711358 -135.985247 
L 407.672702 -136.050853 
L 407.824481 -136.116459 
L 408.037912 -136.182065 
L 408.17667 -136.247671 
L 408.306932 -136.313278 
L 408.496522 -136.378884 
L 408.77476 -136.44449 
L 409.261298 -136.510096 
L 409.962725 -136.575702 
L 410.740498 -136.641308 
L 411.515516 -136.706915 
L 412.259078 -136.772521 
L 412.929393 -136.838127 
L 413.4661 -136.903733 
L 413.823002 -136.969339 
L 414.038931 -137.034945 
L 414.293848 -137.100551 
L 414.756821 -137.166158 
L 415.435597 -137.231764 
L 416.228785 -137.29737 
L 417.038434 -137.362976 
L 417.831201 -137.428582 
L 418.576507 -137.494188 
L 419.25181 -137.559795 
L 419.882099 -137.625401 
L 420.488325 -137.691007 
L 421.051327 -137.756613 
L 421.580495 -137.822219 
L 422.099665 -137.887825 
L 422.587292 -137.953431 
L 423.041856 -138.019038 
L 423.535054 -138.084644 
L 424.116948 -138.15025 
L 424.768944 -138.215856 
L 425.465767 -138.281462 
L 426.18142 -138.347068 
L 426.879732 -138.412675 
L 427.525698 -138.478281 
L 428.111178 -138.543887 
L 428.707362 -138.609493 
L 429.385466 -138.675099 
L 430.096172 -138.740705 
L 430.755479 -138.806311 
L 431.339181 -138.871918 
L 431.83989 -138.937524 
L 432.233637 -139.00313 
L 432.484767 -139.068736 
L 432.595402 -139.134342 
L 432.624923 -139.199948 
L 432.634452 -139.199948 
L 432.634452 -139.199948 
L 432.663973 -139.134342 
L 432.774608 -139.068736 
L 433.025738 -139.00313 
L 433.419485 -138.937524 
L 433.920194 -138.871918 
L 434.503896 -138.806311 
L 435.163203 -138.740705 
L 435.873909 -138.675099 
L 436.552013 -138.609493 
L 437.148197 -138.543887 
L 437.733677 -138.478281 
L 438.379643 -138.412675 
L 439.077955 -138.347068 
L 439.793608 -138.281462 
L 440.490431 -138.215856 
L 441.142427 -138.15025 
L 441.724321 -138.084644 
L 442.217519 -138.019038 
L 442.672083 -137.953431 
L 443.15971 -137.887825 
L 443.67888 -137.822219 
L 444.208048 -137.756613 
L 444.77105 -137.691007 
L 445.377276 -137.625401 
L 446.007565 -137.559795 
L 446.682868 -137.494188 
L 447.428174 -137.428582 
L 448.220941 -137.362976 
L 449.03059 -137.29737 
L 449.823778 -137.231764 
L 450.502554 -137.166158 
L 450.965527 -137.100551 
L 451.220444 -137.034945 
L 451.436373 -136.969339 
L 451.793275 -136.903733 
L 452.329982 -136.838127 
L 453.000297 -136.772521 
L 453.743859 -136.706915 
L 454.518877 -136.641308 
L 455.29665 -136.575702 
L 455.998077 -136.510096 
L 456.484615 -136.44449 
L 456.762853 -136.378884 
L 456.952443 -136.313278 
L 457.082705 -136.247671 
L 457.221463 -136.182065 
L 457.434894 -136.116459 
L 457.586673 -136.050853 
L 457.548017 -135.985247 
L 457.341965 -135.919641 
L 457.060762 -135.854035 
L 456.805294 -135.788428 
L 456.636363 -135.722822 
L 456.569657 -135.657216 
L 456.517006 -135.59161 
L 456.363749 -135.526004 
L 456.095148 -135.460398 
L 455.761801 -135.394792 
L 455.377408 -135.329185 
L 454.950173 -135.263579 
L 454.530579 -135.197973 
L 454.059445 -135.132367 
L 453.358545 -135.066761 
L 452.383938 -135.001155 
L 451.330071 -134.935548 
L 450.403017 -134.869942 
L 449.63721 -134.804336 
L 448.952435 -134.73873 
L 448.249699 -134.673124 
L 447.480074 -134.607518 
L 446.676095 -134.541912 
L 445.93084 -134.476305 
L 445.267749 -134.410699 
L 444.599382 -134.345093 
L 443.895564 -134.279487 
L 443.26431 -134.213881 
L 442.735281 -134.148275 
L 442.190951 -134.082668 
L 441.593139 -134.017062 
L 440.996116 -133.951456 
L 440.414372 -133.88585 
L 439.839391 -133.820244 
L 439.290675 -133.754638 
L 438.753676 -133.689032 
L 438.209099 -133.623425 
L 437.674289 -133.557819 
L 437.160493 -133.492213 
L 436.65899 -133.426607 
L 436.143178 -133.361001 
L 435.574923 -133.295395 
L 434.9443 -133.229788 
L 434.303954 -133.164182 
L 433.72831 -133.098576 
L 433.277981 -133.03297 
L 432.979696 -132.967364 
L 432.802 -132.901758 
L 432.698094 -132.836152 
L 432.647915 -132.770545 
L 432.632541 -132.704939 
z
" style="stroke: #3f3f3f; stroke-width: 1.5"/>
    </defs>
    <g clip-path="url(#pdf5095c097)">
     <use xlink:href="#m7efd87e96b" x="0" y="218.444553" style="fill: #3274a1; stroke: #3f3f3f; stroke-width: 1.5"/>
    </g>
   </g>
   <g id="PolyCollection_7">
    <defs>
     <path id="maa6ca44b25" d="M 502.37972 -76.914559 
L 502.379655 -76.914559 
L 502.379346 -78.041142 
L 502.37815 -79.167725 
L 502.376085 -80.294309 
L 502.373952 -81.420892 
L 502.37221 -82.547475 
L 502.370494 -83.674058 
L 502.368037 -84.800641 
L 502.365943 -85.927224 
L 502.36474 -87.053807 
L 502.364226 -88.18039 
L 502.363708 -89.306974 
L 502.361355 -90.433557 
L 502.354933 -91.56014 
L 502.343525 -92.686723 
L 502.323192 -93.813306 
L 502.29465 -94.939889 
L 502.262852 -96.066472 
L 502.234291 -97.193055 
L 502.21164 -98.319639 
L 502.184432 -99.446222 
L 502.152514 -100.572805 
L 502.121279 -101.699388 
L 502.084584 -102.825971 
L 502.039833 -103.952554 
L 501.99284 -105.079137 
L 501.946582 -106.20572 
L 501.894205 -107.332304 
L 501.829262 -108.458887 
L 501.747617 -109.58547 
L 501.664372 -110.712053 
L 501.601014 -111.838636 
L 501.557452 -112.965219 
L 501.518431 -114.091802 
L 501.471019 -115.218385 
L 501.410783 -116.344969 
L 501.335261 -117.471552 
L 501.25852 -118.598135 
L 501.19714 -119.724718 
L 501.115061 -120.851301 
L 500.968653 -121.977884 
L 500.777353 -123.104467 
L 500.580235 -124.23105 
L 500.373462 -125.357634 
L 500.162718 -126.484217 
L 499.954672 -127.6108 
L 499.736397 -128.737383 
L 499.561629 -129.863966 
L 499.482043 -130.990549 
L 499.545815 -132.117132 
L 499.698734 -133.243715 
L 499.790576 -134.370299 
L 499.818322 -135.496882 
L 499.866677 -136.623465 
L 499.948153 -137.750048 
L 500.068486 -138.876631 
L 500.246375 -140.003214 
L 500.435353 -141.129797 
L 500.580622 -142.25638 
L 500.70231 -143.382963 
L 500.849446 -144.509547 
L 501.03862 -145.63613 
L 501.226442 -146.762713 
L 501.346844 -147.889296 
L 501.437284 -149.015879 
L 501.540078 -150.142462 
L 501.631628 -151.269045 
L 501.699806 -152.395628 
L 501.761423 -153.522212 
L 501.813945 -154.648795 
L 501.854112 -155.775378 
L 501.891086 -156.901961 
L 501.926709 -158.028544 
L 501.957906 -159.155127 
L 501.988493 -160.28171 
L 502.018238 -161.408293 
L 502.049631 -162.534877 
L 502.083868 -163.66146 
L 502.114045 -164.788043 
L 502.139935 -165.914626 
L 502.165272 -167.041209 
L 502.191128 -168.167792 
L 502.218817 -169.294375 
L 502.244774 -170.420958 
L 502.264661 -171.547542 
L 502.28213 -172.674125 
L 502.298828 -173.800708 
L 502.313733 -174.927291 
L 502.326508 -176.053874 
L 502.336855 -177.180457 
L 502.345729 -178.30704 
L 502.352963 -179.433623 
L 502.35859 -180.560207 
L 502.364132 -181.68679 
L 502.369551 -182.813373 
L 502.373684 -183.939956 
L 502.376617 -185.066539 
L 502.378544 -186.193122 
L 502.379426 -187.319705 
L 502.379659 -188.446288 
L 502.379716 -188.446288 
L 502.379716 -188.446288 
L 502.379949 -187.319705 
L 502.380831 -186.193122 
L 502.382758 -185.066539 
L 502.385691 -183.939956 
L 502.389824 -182.813373 
L 502.395243 -181.68679 
L 502.400785 -180.560207 
L 502.406412 -179.433623 
L 502.413646 -178.30704 
L 502.42252 -177.180457 
L 502.432867 -176.053874 
L 502.445642 -174.927291 
L 502.460547 -173.800708 
L 502.477245 -172.674125 
L 502.494714 -171.547542 
L 502.514601 -170.420958 
L 502.540558 -169.294375 
L 502.568247 -168.167792 
L 502.594103 -167.041209 
L 502.61944 -165.914626 
L 502.64533 -164.788043 
L 502.675507 -163.66146 
L 502.709744 -162.534877 
L 502.741137 -161.408293 
L 502.770882 -160.28171 
L 502.801469 -159.155127 
L 502.832666 -158.028544 
L 502.868289 -156.901961 
L 502.905263 -155.775378 
L 502.94543 -154.648795 
L 502.997952 -153.522212 
L 503.059569 -152.395628 
L 503.127747 -151.269045 
L 503.219297 -150.142462 
L 503.322091 -149.015879 
L 503.412531 -147.889296 
L 503.532933 -146.762713 
L 503.720755 -145.63613 
L 503.909929 -144.509547 
L 504.057065 -143.382963 
L 504.178753 -142.25638 
L 504.324022 -141.129797 
L 504.513 -140.003214 
L 504.690889 -138.876631 
L 504.811222 -137.750048 
L 504.892698 -136.623465 
L 504.941053 -135.496882 
L 504.968799 -134.370299 
L 505.060641 -133.243715 
L 505.21356 -132.117132 
L 505.277332 -130.990549 
L 505.197746 -129.863966 
L 505.022978 -128.737383 
L 504.804703 -127.6108 
L 504.596657 -126.484217 
L 504.385913 -125.357634 
L 504.17914 -124.23105 
L 503.982022 -123.104467 
L 503.790722 -121.977884 
L 503.644314 -120.851301 
L 503.562235 -119.724718 
L 503.500855 -118.598135 
L 503.424114 -117.471552 
L 503.348592 -116.344969 
L 503.288356 -115.218385 
L 503.240944 -114.091802 
L 503.201923 -112.965219 
L 503.158361 -111.838636 
L 503.095003 -110.712053 
L 503.011758 -109.58547 
L 502.930113 -108.458887 
L 502.86517 -107.332304 
L 502.812793 -106.20572 
L 502.766535 -105.079137 
L 502.719542 -103.952554 
L 502.674791 -102.825971 
L 502.638096 -101.699388 
L 502.606861 -100.572805 
L 502.574943 -99.446222 
L 502.547735 -98.319639 
L 502.525084 -97.193055 
L 502.496523 -96.066472 
L 502.464725 -94.939889 
L 502.436183 -93.813306 
L 502.41585 -92.686723 
L 502.404442 -91.56014 
L 502.39802 -90.433557 
L 502.395667 -89.306974 
L 502.395149 -88.18039 
L 502.394635 -87.053807 
L 502.393432 -85.927224 
L 502.391338 -84.800641 
L 502.388881 -83.674058 
L 502.387165 -82.547475 
L 502.385423 -81.420892 
L 502.38329 -80.294309 
L 502.381225 -79.167725 
L 502.380029 -78.041142 
L 502.37972 -76.914559 
z
" style="stroke: #3f3f3f; stroke-width: 1.5"/>
    </defs>
    <g clip-path="url(#pdf5095c097)">
     <use xlink:href="#maa6ca44b25" x="0" y="218.444553" style="fill: #3274a1; stroke: #3f3f3f; stroke-width: 1.5"/>
    </g>
   </g>
   <g id="PolyCollection_8">
    <defs>
     <path id="mdae9dd2514" d="M 572.752613 -132.442281 
L 571.506762 -132.442281 
L 570.357166 -132.513449 
L 568.019427 -132.584617 
L 564.29252 -132.655784 
L 559.687805 -132.726952 
L 555.398251 -132.798119 
L 552.625716 -132.869287 
L 551.835397 -132.940455 
L 552.626878 -133.011622 
L 554.202724 -133.08279 
L 555.885955 -133.153957 
L 557.329247 -133.225125 
L 558.460907 -133.296292 
L 559.344731 -133.36746 
L 560.061828 -133.438628 
L 560.64995 -133.509795 
L 561.101597 -133.580963 
L 561.39777 -133.65213 
L 561.541172 -133.723298 
L 561.565402 -133.794465 
L 561.521962 -133.865633 
L 561.459729 -133.936801 
L 561.408435 -134.007968 
L 561.371884 -134.079136 
L 561.334428 -134.150303 
L 561.278995 -134.221471 
L 561.20396 -134.292639 
L 561.123612 -134.363806 
L 561.053631 -134.434974 
L 560.999702 -134.506141 
L 560.959223 -134.577309 
L 560.925642 -134.648476 
L 560.885723 -134.719644 
L 560.818827 -134.790812 
L 560.709117 -134.861979 
L 560.562189 -134.933147 
L 560.407875 -135.004314 
L 560.283827 -135.075482 
L 560.212218 -135.146649 
L 560.187473 -135.217817 
L 560.183727 -135.288985 
L 560.174492 -135.360152 
L 560.148967 -135.43132 
L 560.117148 -135.502487 
L 560.106443 -135.573655 
L 560.152104 -135.644823 
L 560.280826 -135.71599 
L 560.493761 -135.787158 
L 560.762065 -135.858325 
L 561.039784 -135.929493 
L 561.284431 -136.00066 
L 561.471855 -136.071828 
L 561.598733 -136.142996 
L 561.674046 -136.214163 
L 561.706515 -136.285331 
L 561.697205 -136.356498 
L 561.64331 -136.427666 
L 561.549295 -136.498833 
L 561.432778 -136.570001 
L 561.317698 -136.641169 
L 561.222424 -136.712336 
L 561.154066 -136.783504 
L 561.108891 -136.854671 
L 561.073075 -136.925839 
L 561.025446 -136.997007 
L 560.947668 -137.068174 
L 560.838183 -137.139342 
L 560.716938 -137.210509 
L 560.613649 -137.281677 
L 560.548838 -137.352844 
L 560.524571 -137.424012 
L 560.530794 -137.49518 
L 560.556428 -137.566347 
L 560.591683 -137.637515 
L 560.621367 -137.708682 
L 560.620697 -137.77985 
L 560.562052 -137.851018 
L 560.429579 -137.922185 
L 560.230845 -137.993353 
L 559.99612 -138.06452 
L 559.765883 -138.135688 
L 559.577621 -138.206855 
L 559.458759 -138.278023 
L 559.41652 -138.349191 
L 559.4184 -138.420358 
L 559.385809 -138.491526 
L 559.225555 -138.562693 
L 558.872618 -138.633861 
L 558.287007 -138.705028 
L 557.407954 -138.776196 
L 556.162646 -138.847364 
L 554.628672 -138.918531 
L 553.286471 -138.989699 
L 553.049075 -139.060866 
L 554.76469 -139.132034 
L 558.445755 -139.203202 
L 563.040112 -139.274369 
L 567.131983 -139.345537 
L 569.882605 -139.416704 
L 571.310206 -139.487872 
L 572.949169 -139.487872 
L 572.949169 -139.487872 
L 574.37677 -139.416704 
L 577.127392 -139.345537 
L 581.219263 -139.274369 
L 585.81362 -139.203202 
L 589.494685 -139.132034 
L 591.2103 -139.060866 
L 590.972904 -138.989699 
L 589.630703 -138.918531 
L 588.096729 -138.847364 
L 586.851421 -138.776196 
L 585.972368 -138.705028 
L 585.386757 -138.633861 
L 585.03382 -138.562693 
L 584.873566 -138.491526 
L 584.840975 -138.420358 
L 584.842855 -138.349191 
L 584.800616 -138.278023 
L 584.681754 -138.206855 
L 584.493492 -138.135688 
L 584.263255 -138.06452 
L 584.02853 -137.993353 
L 583.829796 -137.922185 
L 583.697323 -137.851018 
L 583.638678 -137.77985 
L 583.638008 -137.708682 
L 583.667692 -137.637515 
L 583.702947 -137.566347 
L 583.728581 -137.49518 
L 583.734804 -137.424012 
L 583.710537 -137.352844 
L 583.645726 -137.281677 
L 583.542437 -137.210509 
L 583.421192 -137.139342 
L 583.311707 -137.068174 
L 583.233929 -136.997007 
L 583.1863 -136.925839 
L 583.150484 -136.854671 
L 583.105309 -136.783504 
L 583.036951 -136.712336 
L 582.941677 -136.641169 
L 582.826597 -136.570001 
L 582.71008 -136.498833 
L 582.616065 -136.427666 
L 582.56217 -136.356498 
L 582.55286 -136.285331 
L 582.585329 -136.214163 
L 582.660642 -136.142996 
L 582.78752 -136.071828 
L 582.974944 -136.00066 
L 583.219591 -135.929493 
L 583.49731 -135.858325 
L 583.765614 -135.787158 
L 583.978549 -135.71599 
L 584.107271 -135.644823 
L 584.152932 -135.573655 
L 584.142227 -135.502487 
L 584.110408 -135.43132 
L 584.084883 -135.360152 
L 584.075648 -135.288985 
L 584.071902 -135.217817 
L 584.047157 -135.146649 
L 583.975548 -135.075482 
L 583.8515 -135.004314 
L 583.697186 -134.933147 
L 583.550258 -134.861979 
L 583.440548 -134.790812 
L 583.373652 -134.719644 
L 583.333733 -134.648476 
L 583.300152 -134.577309 
L 583.259673 -134.506141 
L 583.205744 -134.434974 
L 583.135763 -134.363806 
L 583.055415 -134.292639 
L 582.98038 -134.221471 
L 582.924947 -134.150303 
L 582.887491 -134.079136 
L 582.85094 -134.007968 
L 582.799646 -133.936801 
L 582.737413 -133.865633 
L 582.693973 -133.794465 
L 582.718203 -133.723298 
L 582.861605 -133.65213 
L 583.157778 -133.580963 
L 583.609425 -133.509795 
L 584.197547 -133.438628 
L 584.914644 -133.36746 
L 585.798468 -133.296292 
L 586.930128 -133.225125 
L 588.37342 -133.153957 
L 590.056651 -133.08279 
L 591.632497 -133.011622 
L 592.423978 -132.940455 
L 591.633659 -132.869287 
L 588.861124 -132.798119 
L 584.57157 -132.726952 
L 579.966855 -132.655784 
L 576.239948 -132.584617 
L 573.902209 -132.513449 
L 572.752613 -132.442281 
z
" style="stroke: #3f3f3f; stroke-width: 1.5"/>
    </defs>
    <g clip-path="url(#pdf5095c097)">
     <use xlink:href="#mdae9dd2514" x="0" y="218.444553" style="fill: #3274a1; stroke: #3f3f3f; stroke-width: 1.5"/>
    </g>
   </g>
   <g id="matplotlib.axis_1">
    <g id="xtick_1">
     <g id="line2d_1">
      <defs>
       <path id="m0081a6f375" d="M 0 0 
L 0 3.5 
" style="stroke: #000000; stroke-width: 0.8"/>
      </defs>
      <g>
       <use xlink:href="#m0081a6f375" x="83.879687" y="170.28" style="stroke: #000000; stroke-width: 0.8"/>
      </g>
     </g>
     <g id="text_1">
      <!-- dense_1 -->
      <g transform="translate(67.192077 204.642471)rotate(-30)scale(0.1 -0.1)">
       <defs>
        <path id="DejaVuSans-64" d="M 2906 2969 
L 2906 4863 
L 3481 4863 
L 3481 0 
L 2906 0 
L 2906 525 
Q 2725 213 2448 61 
Q 2172 -91 1784 -91 
Q 1150 -91 751 415 
Q 353 922 353 1747 
Q 353 2572 751 3078 
Q 1150 3584 1784 3584 
Q 2172 3584 2448 3432 
Q 2725 3281 2906 2969 
z
M 947 1747 
Q 947 1113 1208 752 
Q 1469 391 1925 391 
Q 2381 391 2643 752 
Q 2906 1113 2906 1747 
Q 2906 2381 2643 2742 
Q 2381 3103 1925 3103 
Q 1469 3103 1208 2742 
Q 947 2381 947 1747 
z
" transform="scale(0.015625)"/>
        <path id="DejaVuSans-65" d="M 3597 1894 
L 3597 1613 
L 953 1613 
Q 991 1019 1311 708 
Q 1631 397 2203 397 
Q 2534 397 2845 478 
Q 3156 559 3463 722 
L 3463 178 
Q 3153 47 2828 -22 
Q 2503 -91 2169 -91 
Q 1331 -91 842 396 
Q 353 884 353 1716 
Q 353 2575 817 3079 
Q 1281 3584 2069 3584 
Q 2775 3584 3186 3129 
Q 3597 2675 3597 1894 
z
M 3022 2063 
Q 3016 2534 2758 2815 
Q 2500 3097 2075 3097 
Q 1594 3097 1305 2825 
Q 1016 2553 972 2059 
L 3022 2063 
z
" transform="scale(0.015625)"/>
        <path id="DejaVuSans-6e" d="M 3513 2113 
L 3513 0 
L 2938 0 
L 2938 2094 
Q 2938 2591 2744 2837 
Q 2550 3084 2163 3084 
Q 1697 3084 1428 2787 
Q 1159 2491 1159 1978 
L 1159 0 
L 581 0 
L 581 3500 
L 1159 3500 
L 1159 2956 
Q 1366 3272 1645 3428 
Q 1925 3584 2291 3584 
Q 2894 3584 3203 3211 
Q 3513 2838 3513 2113 
z
" transform="scale(0.015625)"/>
        <path id="DejaVuSans-73" d="M 2834 3397 
L 2834 2853 
Q 2591 2978 2328 3040 
Q 2066 3103 1784 3103 
Q 1356 3103 1142 2972 
Q 928 2841 928 2578 
Q 928 2378 1081 2264 
Q 1234 2150 1697 2047 
L 1894 2003 
Q 2506 1872 2764 1633 
Q 3022 1394 3022 966 
Q 3022 478 2636 193 
Q 2250 -91 1575 -91 
Q 1294 -91 989 -36 
Q 684 19 347 128 
L 347 722 
Q 666 556 975 473 
Q 1284 391 1588 391 
Q 1994 391 2212 530 
Q 2431 669 2431 922 
Q 2431 1156 2273 1281 
Q 2116 1406 1581 1522 
L 1381 1569 
Q 847 1681 609 1914 
Q 372 2147 372 2553 
Q 372 3047 722 3315 
Q 1072 3584 1716 3584 
Q 2034 3584 2315 3537 
Q 2597 3491 2834 3397 
z
" transform="scale(0.015625)"/>
        <path id="DejaVuSans-5f" d="M 3263 -1063 
L 3263 -1509 
L -63 -1509 
L -63 -1063 
L 3263 -1063 
z
" transform="scale(0.015625)"/>
        <path id="DejaVuSans-31" d="M 794 531 
L 1825 531 
L 1825 4091 
L 703 3866 
L 703 4441 
L 1819 4666 
L 2450 4666 
L 2450 531 
L 3481 531 
L 3481 0 
L 794 0 
L 794 531 
z
" transform="scale(0.015625)"/>
       </defs>
       <use xlink:href="#DejaVuSans-64"/>
       <use xlink:href="#DejaVuSans-65" x="63.476562"/>
       <use xlink:href="#DejaVuSans-6e" x="125"/>
       <use xlink:href="#DejaVuSans-73" x="188.378906"/>
       <use xlink:href="#DejaVuSans-65" x="240.478516"/>
       <use xlink:href="#DejaVuSans-5f" x="302.001953"/>
       <use xlink:href="#DejaVuSans-31" x="352.001953"/>
      </g>
     </g>
    </g>
    <g id="xtick_2">
     <g id="line2d_2">
      <g>
       <use xlink:href="#m0081a6f375" x="153.629687" y="170.28" style="stroke: #000000; stroke-width: 0.8"/>
      </g>
     </g>
     <g id="text_2">
      <!-- sigmoid_2 -->
      <g transform="translate(132.992866 209.202627)rotate(-30)scale(0.1 -0.1)">
       <defs>
        <path id="DejaVuSans-69" d="M 603 3500 
L 1178 3500 
L 1178 0 
L 603 0 
L 603 3500 
z
M 603 4863 
L 1178 4863 
L 1178 4134 
L 603 4134 
L 603 4863 
z
" transform="scale(0.015625)"/>
        <path id="DejaVuSans-67" d="M 2906 1791 
Q 2906 2416 2648 2759 
Q 2391 3103 1925 3103 
Q 1463 3103 1205 2759 
Q 947 2416 947 1791 
Q 947 1169 1205 825 
Q 1463 481 1925 481 
Q 2391 481 2648 825 
Q 2906 1169 2906 1791 
z
M 3481 434 
Q 3481 -459 3084 -895 
Q 2688 -1331 1869 -1331 
Q 1566 -1331 1297 -1286 
Q 1028 -1241 775 -1147 
L 775 -588 
Q 1028 -725 1275 -790 
Q 1522 -856 1778 -856 
Q 2344 -856 2625 -561 
Q 2906 -266 2906 331 
L 2906 616 
Q 2728 306 2450 153 
Q 2172 0 1784 0 
Q 1141 0 747 490 
Q 353 981 353 1791 
Q 353 2603 747 3093 
Q 1141 3584 1784 3584 
Q 2172 3584 2450 3431 
Q 2728 3278 2906 2969 
L 2906 3500 
L 3481 3500 
L 3481 434 
z
" transform="scale(0.015625)"/>
        <path id="DejaVuSans-6d" d="M 3328 2828 
Q 3544 3216 3844 3400 
Q 4144 3584 4550 3584 
Q 5097 3584 5394 3201 
Q 5691 2819 5691 2113 
L 5691 0 
L 5113 0 
L 5113 2094 
Q 5113 2597 4934 2840 
Q 4756 3084 4391 3084 
Q 3944 3084 3684 2787 
Q 3425 2491 3425 1978 
L 3425 0 
L 2847 0 
L 2847 2094 
Q 2847 2600 2669 2842 
Q 2491 3084 2119 3084 
Q 1678 3084 1418 2786 
Q 1159 2488 1159 1978 
L 1159 0 
L 581 0 
L 581 3500 
L 1159 3500 
L 1159 2956 
Q 1356 3278 1631 3431 
Q 1906 3584 2284 3584 
Q 2666 3584 2933 3390 
Q 3200 3197 3328 2828 
z
" transform="scale(0.015625)"/>
        <path id="DejaVuSans-6f" d="M 1959 3097 
Q 1497 3097 1228 2736 
Q 959 2375 959 1747 
Q 959 1119 1226 758 
Q 1494 397 1959 397 
Q 2419 397 2687 759 
Q 2956 1122 2956 1747 
Q 2956 2369 2687 2733 
Q 2419 3097 1959 3097 
z
M 1959 3584 
Q 2709 3584 3137 3096 
Q 3566 2609 3566 1747 
Q 3566 888 3137 398 
Q 2709 -91 1959 -91 
Q 1206 -91 779 398 
Q 353 888 353 1747 
Q 353 2609 779 3096 
Q 1206 3584 1959 3584 
z
" transform="scale(0.015625)"/>
        <path id="DejaVuSans-32" d="M 1228 531 
L 3431 531 
L 3431 0 
L 469 0 
L 469 531 
Q 828 903 1448 1529 
Q 2069 2156 2228 2338 
Q 2531 2678 2651 2914 
Q 2772 3150 2772 3378 
Q 2772 3750 2511 3984 
Q 2250 4219 1831 4219 
Q 1534 4219 1204 4116 
Q 875 4013 500 3803 
L 500 4441 
Q 881 4594 1212 4672 
Q 1544 4750 1819 4750 
Q 2544 4750 2975 4387 
Q 3406 4025 3406 3419 
Q 3406 3131 3298 2873 
Q 3191 2616 2906 2266 
Q 2828 2175 2409 1742 
Q 1991 1309 1228 531 
z
" transform="scale(0.015625)"/>
       </defs>
       <use xlink:href="#DejaVuSans-73"/>
       <use xlink:href="#DejaVuSans-69" x="52.099609"/>
       <use xlink:href="#DejaVuSans-67" x="79.882812"/>
       <use xlink:href="#DejaVuSans-6d" x="143.359375"/>
       <use xlink:href="#DejaVuSans-6f" x="240.771484"/>
       <use xlink:href="#DejaVuSans-69" x="301.953125"/>
       <use xlink:href="#DejaVuSans-64" x="329.736328"/>
       <use xlink:href="#DejaVuSans-5f" x="393.212891"/>
       <use xlink:href="#DejaVuSans-32" x="443.212891"/>
      </g>
     </g>
    </g>
    <g id="xtick_3">
     <g id="line2d_3">
      <g>
       <use xlink:href="#m0081a6f375" x="223.379687" y="170.28" style="stroke: #000000; stroke-width: 0.8"/>
      </g>
     </g>
     <g id="text_3">
      <!-- dense_3 -->
      <g transform="translate(206.692077 204.642471)rotate(-30)scale(0.1 -0.1)">
       <defs>
        <path id="DejaVuSans-33" d="M 2597 2516 
Q 3050 2419 3304 2112 
Q 3559 1806 3559 1356 
Q 3559 666 3084 287 
Q 2609 -91 1734 -91 
Q 1441 -91 1130 -33 
Q 819 25 488 141 
L 488 750 
Q 750 597 1062 519 
Q 1375 441 1716 441 
Q 2309 441 2620 675 
Q 2931 909 2931 1356 
Q 2931 1769 2642 2001 
Q 2353 2234 1838 2234 
L 1294 2234 
L 1294 2753 
L 1863 2753 
Q 2328 2753 2575 2939 
Q 2822 3125 2822 3475 
Q 2822 3834 2567 4026 
Q 2313 4219 1838 4219 
Q 1578 4219 1281 4162 
Q 984 4106 628 3988 
L 628 4550 
Q 988 4650 1302 4700 
Q 1616 4750 1894 4750 
Q 2613 4750 3031 4423 
Q 3450 4097 3450 3541 
Q 3450 3153 3228 2886 
Q 3006 2619 2597 2516 
z
" transform="scale(0.015625)"/>
       </defs>
       <use xlink:href="#DejaVuSans-64"/>
       <use xlink:href="#DejaVuSans-65" x="63.476562"/>
       <use xlink:href="#DejaVuSans-6e" x="125"/>
       <use xlink:href="#DejaVuSans-73" x="188.378906"/>
       <use xlink:href="#DejaVuSans-65" x="240.478516"/>
       <use xlink:href="#DejaVuSans-5f" x="302.001953"/>
       <use xlink:href="#DejaVuSans-33" x="352.001953"/>
      </g>
     </g>
    </g>
    <g id="xtick_4">
     <g id="line2d_4">
      <g>
       <use xlink:href="#m0081a6f375" x="293.129687" y="170.28" style="stroke: #000000; stroke-width: 0.8"/>
      </g>
     </g>
     <g id="text_4">
      <!-- sigmoid_4 -->
      <g transform="translate(272.492866 209.202627)rotate(-30)scale(0.1 -0.1)">
       <defs>
        <path id="DejaVuSans-34" d="M 2419 4116 
L 825 1625 
L 2419 1625 
L 2419 4116 
z
M 2253 4666 
L 3047 4666 
L 3047 1625 
L 3713 1625 
L 3713 1100 
L 3047 1100 
L 3047 0 
L 2419 0 
L 2419 1100 
L 313 1100 
L 313 1709 
L 2253 4666 
z
" transform="scale(0.015625)"/>
       </defs>
       <use xlink:href="#DejaVuSans-73"/>
       <use xlink:href="#DejaVuSans-69" x="52.099609"/>
       <use xlink:href="#DejaVuSans-67" x="79.882812"/>
       <use xlink:href="#DejaVuSans-6d" x="143.359375"/>
       <use xlink:href="#DejaVuSans-6f" x="240.771484"/>
       <use xlink:href="#DejaVuSans-69" x="301.953125"/>
       <use xlink:href="#DejaVuSans-64" x="329.736328"/>
       <use xlink:href="#DejaVuSans-5f" x="393.212891"/>
       <use xlink:href="#DejaVuSans-34" x="443.212891"/>
      </g>
     </g>
    </g>
    <g id="xtick_5">
     <g id="line2d_5">
      <g>
       <use xlink:href="#m0081a6f375" x="362.879687" y="170.28" style="stroke: #000000; stroke-width: 0.8"/>
      </g>
     </g>
     <g id="text_5">
      <!-- dense_5 -->
      <g transform="translate(346.192077 204.642471)rotate(-30)scale(0.1 -0.1)">
       <defs>
        <path id="DejaVuSans-35" d="M 691 4666 
L 3169 4666 
L 3169 4134 
L 1269 4134 
L 1269 2991 
Q 1406 3038 1543 3061 
Q 1681 3084 1819 3084 
Q 2600 3084 3056 2656 
Q 3513 2228 3513 1497 
Q 3513 744 3044 326 
Q 2575 -91 1722 -91 
Q 1428 -91 1123 -41 
Q 819 9 494 109 
L 494 744 
Q 775 591 1075 516 
Q 1375 441 1709 441 
Q 2250 441 2565 725 
Q 2881 1009 2881 1497 
Q 2881 1984 2565 2268 
Q 2250 2553 1709 2553 
Q 1456 2553 1204 2497 
Q 953 2441 691 2322 
L 691 4666 
z
" transform="scale(0.015625)"/>
       </defs>
       <use xlink:href="#DejaVuSans-64"/>
       <use xlink:href="#DejaVuSans-65" x="63.476562"/>
       <use xlink:href="#DejaVuSans-6e" x="125"/>
       <use xlink:href="#DejaVuSans-73" x="188.378906"/>
       <use xlink:href="#DejaVuSans-65" x="240.478516"/>
       <use xlink:href="#DejaVuSans-5f" x="302.001953"/>
       <use xlink:href="#DejaVuSans-35" x="352.001953"/>
      </g>
     </g>
    </g>
    <g id="xtick_6">
     <g id="line2d_6">
      <g>
       <use xlink:href="#m0081a6f375" x="432.629687" y="170.28" style="stroke: #000000; stroke-width: 0.8"/>
      </g>
     </g>
     <g id="text_6">
      <!-- sigmoid_6 -->
      <g transform="translate(411.992866 209.202627)rotate(-30)scale(0.1 -0.1)">
       <defs>
        <path id="DejaVuSans-36" d="M 2113 2584 
Q 1688 2584 1439 2293 
Q 1191 2003 1191 1497 
Q 1191 994 1439 701 
Q 1688 409 2113 409 
Q 2538 409 2786 701 
Q 3034 994 3034 1497 
Q 3034 2003 2786 2293 
Q 2538 2584 2113 2584 
z
M 3366 4563 
L 3366 3988 
Q 3128 4100 2886 4159 
Q 2644 4219 2406 4219 
Q 1781 4219 1451 3797 
Q 1122 3375 1075 2522 
Q 1259 2794 1537 2939 
Q 1816 3084 2150 3084 
Q 2853 3084 3261 2657 
Q 3669 2231 3669 1497 
Q 3669 778 3244 343 
Q 2819 -91 2113 -91 
Q 1303 -91 875 529 
Q 447 1150 447 2328 
Q 447 3434 972 4092 
Q 1497 4750 2381 4750 
Q 2619 4750 2861 4703 
Q 3103 4656 3366 4563 
z
" transform="scale(0.015625)"/>
       </defs>
       <use xlink:href="#DejaVuSans-73"/>
       <use xlink:href="#DejaVuSans-69" x="52.099609"/>
       <use xlink:href="#DejaVuSans-67" x="79.882812"/>
       <use xlink:href="#DejaVuSans-6d" x="143.359375"/>
       <use xlink:href="#DejaVuSans-6f" x="240.771484"/>
       <use xlink:href="#DejaVuSans-69" x="301.953125"/>
       <use xlink:href="#DejaVuSans-64" x="329.736328"/>
       <use xlink:href="#DejaVuSans-5f" x="393.212891"/>
       <use xlink:href="#DejaVuSans-36" x="443.212891"/>
      </g>
     </g>
    </g>
    <g id="xtick_7">
     <g id="line2d_7">
      <g>
       <use xlink:href="#m0081a6f375" x="502.379687" y="170.28" style="stroke: #000000; stroke-width: 0.8"/>
      </g>
     </g>
     <g id="text_7">
      <!-- dense_7 -->
      <g transform="translate(485.692077 204.642471)rotate(-30)scale(0.1 -0.1)">
       <defs>
        <path id="DejaVuSans-37" d="M 525 4666 
L 3525 4666 
L 3525 4397 
L 1831 0 
L 1172 0 
L 2766 4134 
L 525 4134 
L 525 4666 
z
" transform="scale(0.015625)"/>
       </defs>
       <use xlink:href="#DejaVuSans-64"/>
       <use xlink:href="#DejaVuSans-65" x="63.476562"/>
       <use xlink:href="#DejaVuSans-6e" x="125"/>
       <use xlink:href="#DejaVuSans-73" x="188.378906"/>
       <use xlink:href="#DejaVuSans-65" x="240.478516"/>
       <use xlink:href="#DejaVuSans-5f" x="302.001953"/>
       <use xlink:href="#DejaVuSans-37" x="352.001953"/>
      </g>
     </g>
    </g>
    <g id="xtick_8">
     <g id="line2d_8">
      <g>
       <use xlink:href="#m0081a6f375" x="572.129688" y="170.28" style="stroke: #000000; stroke-width: 0.8"/>
      </g>
     </g>
     <g id="text_8">
      <!-- sigmoid_8 -->
      <g transform="translate(551.492866 209.202627)rotate(-30)scale(0.1 -0.1)">
       <defs>
        <path id="DejaVuSans-38" d="M 2034 2216 
Q 1584 2216 1326 1975 
Q 1069 1734 1069 1313 
Q 1069 891 1326 650 
Q 1584 409 2034 409 
Q 2484 409 2743 651 
Q 3003 894 3003 1313 
Q 3003 1734 2745 1975 
Q 2488 2216 2034 2216 
z
M 1403 2484 
Q 997 2584 770 2862 
Q 544 3141 544 3541 
Q 544 4100 942 4425 
Q 1341 4750 2034 4750 
Q 2731 4750 3128 4425 
Q 3525 4100 3525 3541 
Q 3525 3141 3298 2862 
Q 3072 2584 2669 2484 
Q 3125 2378 3379 2068 
Q 3634 1759 3634 1313 
Q 3634 634 3220 271 
Q 2806 -91 2034 -91 
Q 1263 -91 848 271 
Q 434 634 434 1313 
Q 434 1759 690 2068 
Q 947 2378 1403 2484 
z
M 1172 3481 
Q 1172 3119 1398 2916 
Q 1625 2713 2034 2713 
Q 2441 2713 2670 2916 
Q 2900 3119 2900 3481 
Q 2900 3844 2670 4047 
Q 2441 4250 2034 4250 
Q 1625 4250 1398 4047 
Q 1172 3844 1172 3481 
z
" transform="scale(0.015625)"/>
       </defs>
       <use xlink:href="#DejaVuSans-73"/>
       <use xlink:href="#DejaVuSans-69" x="52.099609"/>
       <use xlink:href="#DejaVuSans-67" x="79.882812"/>
       <use xlink:href="#DejaVuSans-6d" x="143.359375"/>
       <use xlink:href="#DejaVuSans-6f" x="240.771484"/>
       <use xlink:href="#DejaVuSans-69" x="301.953125"/>
       <use xlink:href="#DejaVuSans-64" x="329.736328"/>
       <use xlink:href="#DejaVuSans-5f" x="393.212891"/>
       <use xlink:href="#DejaVuSans-38" x="443.212891"/>
      </g>
     </g>
    </g>
   </g>
   <g id="matplotlib.axis_2">
    <g id="ytick_1">
     <g id="line2d_9">
      <defs>
       <path id="mb2f2b13b06" d="M 0 0 
L -3.5 0 
" style="stroke: #000000; stroke-width: 0.8"/>
      </defs>
      <g>
       <use xlink:href="#mb2f2b13b06" x="49.004687" y="150.308298" style="stroke: #000000; stroke-width: 0.8"/>
      </g>
     </g>
     <g id="text_9">
      <!-- 10 -->
      <g transform="translate(20.9 154.107517)scale(0.1 -0.1)">
       <defs>
        <path id="DejaVuSans-2212" d="M 678 2272 
L 4684 2272 
L 4684 1741 
L 678 1741 
L 678 2272 
z
" transform="scale(0.015625)"/>
        <path id="DejaVuSans-30" d="M 2034 4250 
Q 1547 4250 1301 3770 
Q 1056 3291 1056 2328 
Q 1056 1369 1301 889 
Q 1547 409 2034 409 
Q 2525 409 2770 889 
Q 3016 1369 3016 2328 
Q 3016 3291 2770 3770 
Q 2525 4250 2034 4250 
z
M 2034 4750 
Q 2819 4750 3233 4129 
Q 3647 3509 3647 2328 
Q 3647 1150 3233 529 
Q 2819 -91 2034 -91 
Q 1250 -91 836 529 
Q 422 1150 422 2328 
Q 422 3509 836 4129 
Q 1250 4750 2034 4750 
z
" transform="scale(0.015625)"/>
       </defs>
       <use xlink:href="#DejaVuSans-2212"/>
       <use xlink:href="#DejaVuSans-31" x="83.789062"/>
       <use xlink:href="#DejaVuSans-30" x="147.412109"/>
      </g>
     </g>
    </g>
    <g id="ytick_2">
     <g id="line2d_10">
      <g>
       <use xlink:href="#mb2f2b13b06" x="49.004687" y="118.008853" style="stroke: #000000; stroke-width: 0.8"/>
      </g>
     </g>
     <g id="text_10">
      <!-- 5 -->
      <g transform="translate(27.2625 121.808071)scale(0.1 -0.1)">
       <use xlink:href="#DejaVuSans-2212"/>
       <use xlink:href="#DejaVuSans-35" x="83.789062"/>
      </g>
     </g>
    </g>
    <g id="ytick_3">
     <g id="line2d_11">
      <g>
       <use xlink:href="#mb2f2b13b06" x="49.004687" y="85.709407" style="stroke: #000000; stroke-width: 0.8"/>
      </g>
     </g>
     <g id="text_11">
      <!-- 0 -->
      <g transform="translate(35.642187 89.508626)scale(0.1 -0.1)">
       <use xlink:href="#DejaVuSans-30"/>
      </g>
     </g>
    </g>
    <g id="ytick_4">
     <g id="line2d_12">
      <g>
       <use xlink:href="#mb2f2b13b06" x="49.004687" y="53.409962" style="stroke: #000000; stroke-width: 0.8"/>
      </g>
     </g>
     <g id="text_12">
      <!-- 5 -->
      <g transform="translate(35.642187 57.209181)scale(0.1 -0.1)">
       <use xlink:href="#DejaVuSans-35"/>
      </g>
     </g>
    </g>
    <g id="ytick_5">
     <g id="line2d_13">
      <g>
       <use xlink:href="#mb2f2b13b06" x="49.004687" y="21.110517" style="stroke: #000000; stroke-width: 0.8"/>
      </g>
     </g>
     <g id="text_13">
      <!-- 10 -->
      <g transform="translate(29.279687 24.909735)scale(0.1 -0.1)">
       <use xlink:href="#DejaVuSans-31"/>
       <use xlink:href="#DejaVuSans-30" x="63.623047"/>
      </g>
     </g>
    </g>
    <g id="text_14">
     <!-- ${\phi}$ -->
     <g transform="translate(14.8 92.04)rotate(-90)scale(0.1 -0.1)">
      <defs>
       <path id="DejaVuSans-Oblique-3d5" d="M 2991 4863 
L 2738 3572 
Q 3363 3572 3684 3094 
Q 4016 2606 3850 1747 
Q 3681 888 3159 400 
Q 2653 -78 2028 -78 
L 1784 -1331 
L 1213 -1331 
L 1456 -78 
Q 834 -78 509 400 
Q 178 888 347 1747 
Q 513 2606 1034 3094 
Q 1544 3572 2166 3572 
L 2419 4863 
L 2991 4863 
z
M 2128 434 
Q 2481 434 2784 756 
Q 3116 1116 3244 1747 
Q 3369 2372 3169 2738 
Q 2991 3059 2638 3059 
L 2128 434 
z
M 1556 434 
L 2066 3059 
Q 1716 3059 1413 2738 
Q 1072 2372 953 1747 
Q 834 1116 1028 756 
Q 1203 434 1556 434 
z
" transform="scale(0.015625)"/>
      </defs>
      <use xlink:href="#DejaVuSans-Oblique-3d5" transform="translate(0 0.015625)"/>
     </g>
    </g>
   </g>
   <g id="line2d_14">
    <path d="M 83.879687 102.171702 
L 83.879687 70.048737 
" clip-path="url(#pdf5095c097)" style="fill: none; stroke: #3f3f3f; stroke-width: 1.5; stroke-linecap: square"/>
   </g>
   <g id="line2d_15">
    <path d="M 83.879687 90.125592 
L 83.879687 82.094839 
" clip-path="url(#pdf5095c097)" style="fill: none; stroke: #3f3f3f; stroke-width: 4.5; stroke-linecap: square"/>
   </g>
   <g id="line2d_16">
    <path d="M 153.629687 85.709358 
L 153.629687 79.249645 
" clip-path="url(#pdf5095c097)" style="fill: none; stroke: #3f3f3f; stroke-width: 1.5; stroke-linecap: square"/>
   </g>
   <g id="line2d_17">
    <path d="M 153.629687 83.542429 
L 153.629687 81.598681 
" clip-path="url(#pdf5095c097)" style="fill: none; stroke: #3f3f3f; stroke-width: 4.5; stroke-linecap: square"/>
   </g>
   <g id="line2d_18">
    <path d="M 223.379687 99.501994 
L 223.379687 72.176237 
" clip-path="url(#pdf5095c097)" style="fill: none; stroke: #3f3f3f; stroke-width: 1.5; stroke-linecap: square"/>
   </g>
   <g id="line2d_19">
    <path d="M 223.379687 89.254851 
L 223.379687 82.423371 
" clip-path="url(#pdf5095c097)" style="fill: none; stroke: #3f3f3f; stroke-width: 4.5; stroke-linecap: square"/>
   </g>
   <g id="line2d_20">
    <path d="M 293.129687 85.65056 
L 293.129687 79.367494 
" clip-path="url(#pdf5095c097)" style="fill: none; stroke: #3f3f3f; stroke-width: 1.5; stroke-linecap: square"/>
   </g>
   <g id="line2d_21">
    <path d="M 293.129687 83.344224 
L 293.129687 81.675221 
" clip-path="url(#pdf5095c097)" style="fill: none; stroke: #3f3f3f; stroke-width: 4.5; stroke-linecap: square"/>
   </g>
   <g id="line2d_22">
    <path d="M 362.879687 100.223714 
L 362.879687 70.745668 
" clip-path="url(#pdf5095c097)" style="fill: none; stroke: #3f3f3f; stroke-width: 1.5; stroke-linecap: square"/>
   </g>
   <g id="line2d_23">
    <path d="M 362.879687 89.169537 
L 362.879687 81.799963 
" clip-path="url(#pdf5095c097)" style="fill: none; stroke: #3f3f3f; stroke-width: 4.5; stroke-linecap: square"/>
   </g>
   <g id="line2d_24">
    <path d="M 432.629687 85.585078 
L 432.629687 79.399141 
" clip-path="url(#pdf5095c097)" style="fill: none; stroke: #3f3f3f; stroke-width: 1.5; stroke-linecap: square"/>
   </g>
   <g id="line2d_25">
    <path d="M 432.629687 83.32439 
L 432.629687 81.530878 
" clip-path="url(#pdf5095c097)" style="fill: none; stroke: #3f3f3f; stroke-width: 4.5; stroke-linecap: square"/>
   </g>
   <g id="line2d_26">
    <path d="M 502.379687 119.15582 
L 502.379687 51.880854 
" clip-path="url(#pdf5095c097)" style="fill: none; stroke: #3f3f3f; stroke-width: 1.5; stroke-linecap: square"/>
   </g>
   <g id="line2d_27">
    <path d="M 502.379687 93.927406 
L 502.379687 77.10806 
" clip-path="url(#pdf5095c097)" style="fill: none; stroke: #3f3f3f; stroke-width: 4.5; stroke-linecap: square"/>
   </g>
   <g id="line2d_28">
    <path d="M 572.129688 85.707835 
L 572.129688 79.251117 
" clip-path="url(#pdf5095c097)" style="fill: none; stroke: #3f3f3f; stroke-width: 1.5; stroke-linecap: square"/>
   </g>
   <g id="line2d_29">
    <path d="M 572.129688 84.295414 
L 572.129688 80.599061 
" clip-path="url(#pdf5095c097)" style="fill: none; stroke: #3f3f3f; stroke-width: 4.5; stroke-linecap: square"/>
   </g>
   <g id="patch_3">
    <path d="M 49.004687 170.28 
L 49.004687 7.2 
" style="fill: none; stroke: #000000; stroke-width: 0.8; stroke-linejoin: miter; stroke-linecap: square"/>
   </g>
   <g id="patch_4">
    <path d="M 607.004688 170.28 
L 607.004688 7.2 
" style="fill: none; stroke: #000000; stroke-width: 0.8; stroke-linejoin: miter; stroke-linecap: square"/>
   </g>
   <g id="patch_5">
    <path d="M 49.004687 170.28 
L 607.004688 170.28 
" style="fill: none; stroke: #000000; stroke-width: 0.8; stroke-linejoin: miter; stroke-linecap: square"/>
   </g>
   <g id="patch_6">
    <path d="M 49.004687 7.2 
L 607.004688 7.2 
" style="fill: none; stroke: #000000; stroke-width: 0.8; stroke-linejoin: miter; stroke-linecap: square"/>
   </g>
   <g id="PathCollection_1">
    <defs>
     <path id="m251634ebcc" d="M 0 1.5 
C 0.397805 1.5 0.77937 1.341951 1.06066 1.06066 
C 1.341951 0.77937 1.5 0.397805 1.5 0 
C 1.5 -0.397805 1.341951 -0.77937 1.06066 -1.06066 
C 0.77937 -1.341951 0.397805 -1.5 0 -1.5 
C -0.397805 -1.5 -0.77937 -1.341951 -1.06066 -1.06066 
C -1.341951 -0.77937 -1.5 -0.397805 -1.5 0 
C -1.5 0.397805 -1.341951 0.77937 -1.06066 1.06066 
C -0.77937 1.341951 -0.397805 1.5 0 1.5 
z
" style="stroke: #3f3f3f"/>
    </defs>
    <g clip-path="url(#pdf5095c097)">
     <use xlink:href="#m251634ebcc" x="83.879687" y="86.050194" style="fill: #ffffff; stroke: #3f3f3f"/>
    </g>
   </g>
   <g id="PathCollection_2">
    <g clip-path="url(#pdf5095c097)">
     <use xlink:href="#m251634ebcc" x="153.629687" y="82.56464" style="fill: #ffffff; stroke: #3f3f3f"/>
    </g>
   </g>
   <g id="PathCollection_3">
    <g clip-path="url(#pdf5095c097)">
     <use xlink:href="#m251634ebcc" x="223.379687" y="85.976547" style="fill: #ffffff; stroke: #3f3f3f"/>
    </g>
   </g>
   <g id="PathCollection_4">
    <g clip-path="url(#pdf5095c097)">
     <use xlink:href="#m251634ebcc" x="293.129687" y="82.546238" style="fill: #ffffff; stroke: #3f3f3f"/>
    </g>
   </g>
   <g id="PathCollection_5">
    <g clip-path="url(#pdf5095c097)">
     <use xlink:href="#m251634ebcc" x="362.879687" y="85.546553" style="fill: #ffffff; stroke: #3f3f3f"/>
    </g>
   </g>
   <g id="PathCollection_6">
    <g clip-path="url(#pdf5095c097)">
     <use xlink:href="#m251634ebcc" x="432.629687" y="82.438751" style="fill: #ffffff; stroke: #3f3f3f"/>
    </g>
   </g>
   <g id="PathCollection_7">
    <g clip-path="url(#pdf5095c097)">
     <use xlink:href="#m251634ebcc" x="502.379687" y="85.748425" style="fill: #ffffff; stroke: #3f3f3f"/>
    </g>
   </g>
   <g id="PathCollection_8">
    <g clip-path="url(#pdf5095c097)">
     <use xlink:href="#m251634ebcc" x="572.129688" y="82.489217" style="fill: #ffffff; stroke: #3f3f3f"/>
    </g>
   </g>
  </g>
 </g>
 <defs>
  <clipPath id="pdf5095c097">
   <rect x="49.004687" y="7.2" width="558" height="163.08"/>
  </clipPath>
 </defs>
</svg>
