<?xml version="1.0" encoding="utf-8" standalone="no"?>
<!DOCTYPE svg PUBLIC "-//W3C//DTD SVG 1.1//EN"
  "http://www.w3.org/Graphics/SVG/1.1/DTD/svg11.dtd">
<svg xmlns:xlink="http://www.w3.org/1999/xlink" width="623.723438pt" height="194.43625pt" viewBox="0 0 623.723438 194.43625" xmlns="http://www.w3.org/2000/svg" version="1.1">
 <metadata>
  <rdf:RDF xmlns:dc="http://purl.org/dc/elements/1.1/" xmlns:cc="http://creativecommons.org/ns#" xmlns:rdf="http://www.w3.org/1999/02/22-rdf-syntax-ns#">
   <cc:Work>
    <dc:type rdf:resource="http://purl.org/dc/dcmitype/StillImage"/>
    <dc:date>2022-07-08T02:20:49.400893</dc:date>
    <dc:format>image/svg+xml</dc:format>
    <dc:creator>
     <cc:Agent>
      <dc:title>Matplotlib v3.5.1, https://matplotlib.org/</dc:title>
     </cc:Agent>
    </dc:creator>
   </cc:Work>
  </rdf:RDF>
 </metadata>
 <defs>
  <style type="text/css">*{stroke-linejoin: round; stroke-linecap: butt}</style>
 </defs>
 <g id="figure_1">
  <g id="patch_1">
   <path d="M -0 194.43625 
L 623.723438 194.43625 
L 623.723438 0 
L -0 0 
L -0 194.43625 
z
" style="fill: none"/>
  </g>
  <g id="axes_1">
   <g id="patch_2">
    <path d="M 58.523438 170.28 
L 616.523438 170.28 
L 616.523438 7.2 
L 58.523438 7.2 
z
" style="fill: #ffffff"/>
   </g>
   <g id="PolyCollection_1">
    <defs>
     <path id="m2320437916" d="M 114.323686 -83.490033 
L 114.323189 -83.490033 
L 114.320234 -83.864997 
L 114.315633 -84.239961 
L 114.313653 -84.614925 
L 114.312958 -84.989889 
L 114.3131 -85.364853 
L 114.309855 -85.739817 
L 114.307226 -86.114781 
L 114.299493 -86.489745 
L 114.287566 -86.864709 
L 114.288887 -87.239673 
L 114.282634 -87.614637 
L 114.273653 -87.989601 
L 114.267412 -88.364565 
L 114.252983 -88.739528 
L 114.229553 -89.114492 
L 114.205854 -89.489456 
L 114.16721 -89.86442 
L 114.112085 -90.239384 
L 114.049869 -90.614348 
L 113.984586 -90.989312 
L 113.927617 -91.364276 
L 113.88473 -91.73924 
L 113.796102 -92.114204 
L 113.663217 -92.489168 
L 113.517641 -92.864132 
L 113.328539 -93.239096 
L 113.1213 -93.61406 
L 112.866373 -93.989024 
L 112.608158 -94.363987 
L 112.354997 -94.738951 
L 112.016794 -95.113915 
L 111.674554 -95.488879 
L 111.207508 -95.863843 
L 110.705971 -96.238807 
L 110.159446 -96.613771 
L 109.543759 -96.988735 
L 108.82818 -97.363699 
L 107.762958 -97.738663 
L 106.594574 -98.113627 
L 105.373237 -98.488591 
L 103.894351 -98.863555 
L 102.007741 -99.238519 
L 99.398354 -99.613483 
L 95.108094 -99.988446 
L 80.943031 -100.36341 
L 69.683437 -100.738374 
L 89.653766 -101.113338 
L 97.712149 -101.488302 
L 100.669057 -101.863266 
L 102.654141 -102.23823 
L 104.173854 -102.613194 
L 105.535902 -102.988158 
L 106.673792 -103.363122 
L 107.64954 -103.738086 
L 108.590552 -104.11305 
L 109.45009 -104.488014 
L 110.210414 -104.862978 
L 110.864352 -105.237942 
L 111.388691 -105.612905 
L 111.883612 -105.987869 
L 112.294145 -106.362833 
L 112.595739 -106.737797 
L 112.792921 -107.112761 
L 113.015163 -107.487725 
L 113.240362 -107.862689 
L 113.468575 -108.237653 
L 113.628361 -108.612617 
L 113.756748 -108.987581 
L 113.846429 -109.362545 
L 113.908807 -109.737509 
L 113.958137 -110.112473 
L 114.026449 -110.487437 
L 114.067797 -110.862401 
L 114.068528 -111.237364 
L 114.072373 -111.612328 
L 114.122565 -111.987292 
L 114.172397 -112.362256 
L 114.202038 -112.73722 
L 114.199884 -113.112184 
L 114.211966 -113.487148 
L 114.223018 -113.862112 
L 114.230454 -114.237076 
L 114.245679 -114.61204 
L 114.262335 -114.987004 
L 114.27744 -115.361968 
L 114.282508 -115.736932 
L 114.292001 -116.111896 
L 114.302963 -116.48686 
L 114.304621 -116.861823 
L 114.306928 -117.236787 
L 114.311024 -117.611751 
L 114.315718 -117.986715 
L 114.319125 -118.361679 
L 114.320582 -118.736643 
L 114.322408 -119.111607 
L 114.321625 -119.486571 
L 114.321233 -119.861535 
L 114.322466 -120.236499 
L 114.323354 -120.611463 
L 114.323521 -120.611463 
L 114.323521 -120.611463 
L 114.324409 -120.236499 
L 114.325642 -119.861535 
L 114.32525 -119.486571 
L 114.324467 -119.111607 
L 114.326293 -118.736643 
L 114.32775 -118.361679 
L 114.331157 -117.986715 
L 114.335851 -117.611751 
L 114.339947 -117.236787 
L 114.342254 -116.861823 
L 114.343912 -116.48686 
L 114.354874 -116.111896 
L 114.364367 -115.736932 
L 114.369435 -115.361968 
L 114.38454 -114.987004 
L 114.401196 -114.61204 
L 114.416421 -114.237076 
L 114.423857 -113.862112 
L 114.434909 -113.487148 
L 114.446991 -113.112184 
L 114.444837 -112.73722 
L 114.474478 -112.362256 
L 114.52431 -111.987292 
L 114.574502 -111.612328 
L 114.578347 -111.237364 
L 114.579078 -110.862401 
L 114.620426 -110.487437 
L 114.688738 -110.112473 
L 114.738068 -109.737509 
L 114.800446 -109.362545 
L 114.890127 -108.987581 
L 115.018514 -108.612617 
L 115.1783 -108.237653 
L 115.406513 -107.862689 
L 115.631712 -107.487725 
L 115.853954 -107.112761 
L 116.051136 -106.737797 
L 116.35273 -106.362833 
L 116.763263 -105.987869 
L 117.258184 -105.612905 
L 117.782523 -105.237942 
L 118.436461 -104.862978 
L 119.196785 -104.488014 
L 120.056323 -104.11305 
L 120.997335 -103.738086 
L 121.973083 -103.363122 
L 123.110973 -102.988158 
L 124.473021 -102.613194 
L 125.992734 -102.23823 
L 127.977818 -101.863266 
L 130.934726 -101.488302 
L 138.993109 -101.113338 
L 158.963438 -100.738374 
L 147.703844 -100.36341 
L 133.538781 -99.988446 
L 129.248521 -99.613483 
L 126.639134 -99.238519 
L 124.752524 -98.863555 
L 123.273638 -98.488591 
L 122.052301 -98.113627 
L 120.883917 -97.738663 
L 119.818695 -97.363699 
L 119.103116 -96.988735 
L 118.487429 -96.613771 
L 117.940904 -96.238807 
L 117.439367 -95.863843 
L 116.972321 -95.488879 
L 116.630081 -95.113915 
L 116.291878 -94.738951 
L 116.038717 -94.363987 
L 115.780502 -93.989024 
L 115.525575 -93.61406 
L 115.318336 -93.239096 
L 115.129234 -92.864132 
L 114.983658 -92.489168 
L 114.850773 -92.114204 
L 114.762145 -91.73924 
L 114.719258 -91.364276 
L 114.662289 -90.989312 
L 114.597006 -90.614348 
L 114.53479 -90.239384 
L 114.479665 -89.86442 
L 114.441021 -89.489456 
L 114.417322 -89.114492 
L 114.393892 -88.739528 
L 114.379463 -88.364565 
L 114.373222 -87.989601 
L 114.364241 -87.614637 
L 114.357988 -87.239673 
L 114.359309 -86.864709 
L 114.347382 -86.489745 
L 114.339649 -86.114781 
L 114.33702 -85.739817 
L 114.333775 -85.364853 
L 114.333917 -84.989889 
L 114.333222 -84.614925 
L 114.331242 -84.239961 
L 114.326641 -83.864997 
L 114.323686 -83.490033 
z
" style="stroke: #585858; stroke-width: 1.5"/>
    </defs>
    <g clip-path="url(#pa8e45c9fc3)">
     <use xlink:href="#m2320437916" x="0" y="194.43625" style="fill: #9372b2; stroke: #585858; stroke-width: 1.5"/>
    </g>
   </g>
   <g id="PolyCollection_2">
    <defs>
     <path id="m3a3580b13e" d="M 225.923604 -75.210392 
L 225.923271 -75.210392 
L 225.921487 -75.840057 
L 225.919452 -76.469721 
L 225.918539 -77.099385 
L 225.918897 -77.729049 
L 225.914738 -78.358713 
L 225.912309 -78.988378 
L 225.908823 -79.618042 
L 225.908168 -80.247706 
L 225.898796 -80.87737 
L 225.901761 -81.507035 
L 225.892159 -82.136699 
L 225.876544 -82.766363 
L 225.87197 -83.396027 
L 225.857818 -84.025692 
L 225.842608 -84.655356 
L 225.828815 -85.28502 
L 225.818464 -85.914684 
L 225.779958 -86.544349 
L 225.732989 -87.174013 
L 225.692836 -87.803677 
L 225.641513 -88.433341 
L 225.611361 -89.063005 
L 225.531404 -89.69267 
L 225.406136 -90.322334 
L 225.306024 -90.951998 
L 225.151337 -91.581662 
L 224.880505 -92.211327 
L 224.584491 -92.840991 
L 224.196044 -93.470655 
L 223.725756 -94.100319 
L 223.156633 -94.729984 
L 222.433306 -95.359648 
L 221.504484 -95.989312 
L 220.301089 -96.618976 
L 218.732923 -97.24864 
L 216.94385 -97.878305 
L 214.850536 -98.507969 
L 212.466306 -99.137633 
L 210.054444 -99.767297 
L 208.490245 -100.396962 
L 208.702998 -101.026626 
L 210.42988 -101.65629 
L 212.81746 -102.285954 
L 215.230228 -102.915619 
L 217.40403 -103.545283 
L 219.107988 -104.174947 
L 220.601379 -104.804611 
L 221.726348 -105.434276 
L 222.576551 -106.06394 
L 223.29528 -106.693604 
L 223.788149 -107.323268 
L 224.21708 -107.952932 
L 224.603981 -108.582597 
L 224.857122 -109.212261 
L 225.067758 -109.841925 
L 225.253858 -110.471589 
L 225.41411 -111.101254 
L 225.546113 -111.730918 
L 225.623611 -112.360582 
L 225.671077 -112.990246 
L 225.739575 -113.619911 
L 225.768145 -114.249575 
L 225.802735 -114.879239 
L 225.831108 -115.508903 
L 225.84853 -116.138567 
L 225.862063 -116.768232 
L 225.875695 -117.397896 
L 225.889988 -118.02756 
L 225.886401 -118.657224 
L 225.892981 -119.286889 
L 225.893235 -119.916553 
L 225.904835 -120.546217 
L 225.907785 -121.175881 
L 225.912894 -121.805546 
L 225.915604 -122.43521 
L 225.915938 -123.064874 
L 225.915139 -123.694538 
L 225.91596 -124.324203 
L 225.916901 -124.953867 
L 225.918203 -125.583531 
L 225.918192 -126.213195 
L 225.920131 -126.842859 
L 225.921648 -127.472524 
L 225.922376 -128.102188 
L 225.921673 -128.731852 
L 225.923024 -129.361516 
L 225.922626 -129.991181 
L 225.920302 -130.620845 
L 225.920468 -131.250509 
L 225.921004 -131.880173 
L 225.92188 -132.509838 
L 225.922366 -133.139502 
L 225.922692 -133.769166 
L 225.922544 -134.39883 
L 225.922402 -135.028494 
L 225.921989 -135.658159 
L 225.922526 -136.287823 
L 225.922459 -136.917487 
L 225.9233 -137.547151 
L 225.923575 -137.547151 
L 225.923575 -137.547151 
L 225.924416 -136.917487 
L 225.924349 -136.287823 
L 225.924886 -135.658159 
L 225.924473 -135.028494 
L 225.924331 -134.39883 
L 225.924183 -133.769166 
L 225.924509 -133.139502 
L 225.924995 -132.509838 
L 225.925871 -131.880173 
L 225.926407 -131.250509 
L 225.926573 -130.620845 
L 225.924249 -129.991181 
L 225.923851 -129.361516 
L 225.925202 -128.731852 
L 225.924499 -128.102188 
L 225.925227 -127.472524 
L 225.926744 -126.842859 
L 225.928683 -126.213195 
L 225.928672 -125.583531 
L 225.929974 -124.953867 
L 225.930915 -124.324203 
L 225.931736 -123.694538 
L 225.930937 -123.064874 
L 225.931271 -122.43521 
L 225.933981 -121.805546 
L 225.93909 -121.175881 
L 225.94204 -120.546217 
L 225.95364 -119.916553 
L 225.953894 -119.286889 
L 225.960474 -118.657224 
L 225.956887 -118.02756 
L 225.97118 -117.397896 
L 225.984812 -116.768232 
L 225.998345 -116.138567 
L 226.015767 -115.508903 
L 226.04414 -114.879239 
L 226.07873 -114.249575 
L 226.1073 -113.619911 
L 226.175798 -112.990246 
L 226.223264 -112.360582 
L 226.300762 -111.730918 
L 226.432765 -111.101254 
L 226.593017 -110.471589 
L 226.779117 -109.841925 
L 226.989753 -109.212261 
L 227.242894 -108.582597 
L 227.629795 -107.952932 
L 228.058726 -107.323268 
L 228.551595 -106.693604 
L 229.270324 -106.06394 
L 230.120527 -105.434276 
L 231.245496 -104.804611 
L 232.738887 -104.174947 
L 234.442845 -103.545283 
L 236.616647 -102.915619 
L 239.029415 -102.285954 
L 241.416995 -101.65629 
L 243.143877 -101.026626 
L 243.35663 -100.396962 
L 241.792431 -99.767297 
L 239.380569 -99.137633 
L 236.996339 -98.507969 
L 234.903025 -97.878305 
L 233.113952 -97.24864 
L 231.545786 -96.618976 
L 230.342391 -95.989312 
L 229.413569 -95.359648 
L 228.690242 -94.729984 
L 228.121119 -94.100319 
L 227.650831 -93.470655 
L 227.262384 -92.840991 
L 226.96637 -92.211327 
L 226.695538 -91.581662 
L 226.540851 -90.951998 
L 226.440739 -90.322334 
L 226.315471 -89.69267 
L 226.235514 -89.063005 
L 226.205362 -88.433341 
L 226.154039 -87.803677 
L 226.113886 -87.174013 
L 226.066917 -86.544349 
L 226.028411 -85.914684 
L 226.01806 -85.28502 
L 226.004267 -84.655356 
L 225.989057 -84.025692 
L 225.974905 -83.396027 
L 225.970331 -82.766363 
L 225.954716 -82.136699 
L 225.945114 -81.507035 
L 225.948079 -80.87737 
L 225.938707 -80.247706 
L 225.938052 -79.618042 
L 225.934566 -78.988378 
L 225.932137 -78.358713 
L 225.927978 -77.729049 
L 225.928336 -77.099385 
L 225.927423 -76.469721 
L 225.925388 -75.840057 
L 225.923604 -75.210392 
z
" style="stroke: #585858; stroke-width: 1.5"/>
    </defs>
    <g clip-path="url(#pa8e45c9fc3)">
     <use xlink:href="#m3a3580b13e" x="0" y="194.43625" style="fill: #9372b2; stroke: #585858; stroke-width: 1.5"/>
    </g>
   </g>
   <g id="PolyCollection_3">
    <defs>
     <path id="m13e705e00c" d="M 337.523664 -58.123404 
L 337.523211 -58.123404 
L 337.521767 -59.037712 
L 337.523221 -59.952021 
L 337.523437 -60.86633 
L 337.523437 -61.780638 
L 337.523438 -62.694947 
L 337.523438 -63.609256 
L 337.523438 -64.523565 
L 337.523438 -65.437873 
L 337.523438 -66.352182 
L 337.523438 -67.266491 
L 337.523438 -68.1808 
L 337.523437 -69.095108 
L 337.523421 -70.009417 
L 337.522366 -70.923726 
L 337.519449 -71.838035 
L 337.518917 -72.752343 
L 337.521258 -73.666652 
L 337.519984 -74.580961 
L 337.516372 -75.495269 
L 337.514839 -76.409578 
L 337.51771 -77.323887 
L 337.512994 -78.238196 
L 337.501401 -79.152504 
L 337.496181 -80.066813 
L 337.49113 -80.981122 
L 337.485802 -81.895431 
L 337.465127 -82.809739 
L 337.453059 -83.724048 
L 337.426428 -84.638357 
L 337.395188 -85.552666 
L 337.37904 -86.466974 
L 337.319251 -87.381283 
L 337.234832 -88.295592 
L 337.14503 -89.2099 
L 336.955639 -90.124209 
L 336.773438 -91.038518 
L 336.469958 -91.952827 
L 336.063703 -92.867135 
L 335.539046 -93.781444 
L 334.625607 -94.695753 
L 333.476854 -95.610062 
L 331.906318 -96.52437 
L 329.493075 -97.438679 
L 326.684206 -98.352988 
L 323.967808 -99.267297 
L 321.77131 -100.181605 
L 321.645522 -101.095914 
L 324.004287 -102.010223 
L 326.722474 -102.924531 
L 329.287012 -103.83884 
L 331.719022 -104.753149 
L 333.419318 -105.667458 
L 334.665943 -106.581766 
L 335.594495 -107.496075 
L 336.10814 -108.410384 
L 336.500419 -109.324693 
L 336.807168 -110.239001 
L 337.015585 -111.15331 
L 337.14737 -112.067619 
L 337.263752 -112.981928 
L 337.311774 -113.896236 
L 337.362199 -114.810545 
L 337.379829 -115.724854 
L 337.424349 -116.639162 
L 337.440035 -117.553471 
L 337.464448 -118.46778 
L 337.487102 -119.382089 
L 337.489658 -120.296397 
L 337.50279 -121.210706 
L 337.506938 -122.125015 
L 337.503993 -123.039324 
L 337.506877 -123.953632 
L 337.509884 -124.867941 
L 337.517655 -125.78225 
L 337.520938 -126.696559 
L 337.518017 -127.610867 
L 337.518017 -128.525176 
L 337.521037 -129.439485 
L 337.51855 -130.353793 
L 337.520788 -131.268102 
L 337.522226 -132.182411 
L 337.523125 -133.09672 
L 337.521049 -134.011028 
L 337.521395 -134.925337 
L 337.521963 -135.839646 
L 337.523375 -136.753955 
L 337.523437 -137.668263 
L 337.523437 -138.582572 
L 337.523428 -139.496881 
L 337.522377 -140.41119 
L 337.520539 -141.325498 
L 337.523236 -142.239807 
L 337.523437 -143.154116 
L 337.523437 -144.068424 
L 337.523437 -144.982733 
L 337.523437 -145.897042 
L 337.523221 -146.811351 
L 337.521767 -147.725659 
L 337.523211 -148.639968 
L 337.523664 -148.639968 
L 337.523664 -148.639968 
L 337.525108 -147.725659 
L 337.523654 -146.811351 
L 337.523438 -145.897042 
L 337.523438 -144.982733 
L 337.523438 -144.068424 
L 337.523438 -143.154116 
L 337.523639 -142.239807 
L 337.526336 -141.325498 
L 337.524498 -140.41119 
L 337.523447 -139.496881 
L 337.523438 -138.582572 
L 337.523438 -137.668263 
L 337.5235 -136.753955 
L 337.524912 -135.839646 
L 337.52548 -134.925337 
L 337.525826 -134.011028 
L 337.52375 -133.09672 
L 337.524649 -132.182411 
L 337.526087 -131.268102 
L 337.528325 -130.353793 
L 337.525838 -129.439485 
L 337.528858 -128.525176 
L 337.528858 -127.610867 
L 337.525937 -126.696559 
L 337.52922 -125.78225 
L 337.536991 -124.867941 
L 337.539998 -123.953632 
L 337.542882 -123.039324 
L 337.539937 -122.125015 
L 337.544085 -121.210706 
L 337.557217 -120.296397 
L 337.559773 -119.382089 
L 337.582427 -118.46778 
L 337.60684 -117.553471 
L 337.622526 -116.639162 
L 337.667046 -115.724854 
L 337.684676 -114.810545 
L 337.735101 -113.896236 
L 337.783123 -112.981928 
L 337.899505 -112.067619 
L 338.03129 -111.15331 
L 338.239707 -110.239001 
L 338.546456 -109.324693 
L 338.938735 -108.410384 
L 339.45238 -107.496075 
L 340.380932 -106.581766 
L 341.627557 -105.667458 
L 343.327853 -104.753149 
L 345.759863 -103.83884 
L 348.324401 -102.924531 
L 351.042588 -102.010223 
L 353.401353 -101.095914 
L 353.275565 -100.181605 
L 351.079067 -99.267297 
L 348.362669 -98.352988 
L 345.5538 -97.438679 
L 343.140557 -96.52437 
L 341.570021 -95.610062 
L 340.421268 -94.695753 
L 339.507829 -93.781444 
L 338.983172 -92.867135 
L 338.576917 -91.952827 
L 338.273437 -91.038518 
L 338.091236 -90.124209 
L 337.901845 -89.2099 
L 337.812043 -88.295592 
L 337.727624 -87.381283 
L 337.667835 -86.466974 
L 337.651687 -85.552666 
L 337.620447 -84.638357 
L 337.593816 -83.724048 
L 337.581748 -82.809739 
L 337.561073 -81.895431 
L 337.555745 -80.981122 
L 337.550694 -80.066813 
L 337.545474 -79.152504 
L 337.533881 -78.238196 
L 337.529165 -77.323887 
L 337.532036 -76.409578 
L 337.530503 -75.495269 
L 337.526891 -74.580961 
L 337.525617 -73.666652 
L 337.527958 -72.752343 
L 337.527426 -71.838035 
L 337.524509 -70.923726 
L 337.523454 -70.009417 
L 337.523438 -69.095108 
L 337.523438 -68.1808 
L 337.523438 -67.266491 
L 337.523438 -66.352182 
L 337.523438 -65.437873 
L 337.523438 -64.523565 
L 337.523438 -63.609256 
L 337.523438 -62.694947 
L 337.523438 -61.780638 
L 337.523438 -60.86633 
L 337.523654 -59.952021 
L 337.525108 -59.037712 
L 337.523664 -58.123404 
z
" style="stroke: #585858; stroke-width: 1.5"/>
    </defs>
    <g clip-path="url(#pa8e45c9fc3)">
     <use xlink:href="#m13e705e00c" x="0" y="194.43625" style="fill: #9372b2; stroke: #585858; stroke-width: 1.5"/>
    </g>
   </g>
   <g id="PolyCollection_4">
    <defs>
     <path id="mee0ba439bd" d="M 449.123975 -51.68046 
L 449.1229 -51.68046 
L 449.120242 -52.609762 
L 449.119811 -53.539063 
L 449.122652 -54.468365 
L 449.123405 -55.397667 
L 449.123437 -56.326969 
L 449.123437 -57.256271 
L 449.123437 -58.185573 
L 449.123438 -59.114874 
L 449.123437 -60.044176 
L 449.123437 -60.973478 
L 449.123435 -61.90278 
L 449.123297 -62.832082 
L 449.122022 -63.761383 
L 449.119096 -64.690685 
L 449.116795 -65.619987 
L 449.118204 -66.549289 
L 449.117652 -67.478591 
L 449.115676 -68.407892 
L 449.113002 -69.337194 
L 449.112531 -70.266496 
L 449.112279 -71.195798 
L 449.113683 -72.1251 
L 449.110566 -73.054401 
L 449.111115 -73.983703 
L 449.111354 -74.913005 
L 449.106536 -75.842307 
L 449.102844 -76.771609 
L 449.080681 -77.700911 
L 449.065439 -78.630212 
L 449.062678 -79.559514 
L 449.036881 -80.488816 
L 449.016713 -81.418118 
L 448.994106 -82.34742 
L 448.958394 -83.276721 
L 448.918549 -84.206023 
L 448.860238 -85.135325 
L 448.789262 -86.064627 
L 448.655796 -86.993929 
L 448.484467 -87.92323 
L 448.31353 -88.852532 
L 448.08939 -89.781834 
L 447.766831 -90.711136 
L 447.348261 -91.640438 
L 446.844768 -92.56974 
L 446.241411 -93.499041 
L 445.478787 -94.428343 
L 444.448383 -95.357645 
L 443.110223 -96.286947 
L 441.522425 -97.216249 
L 440.00188 -98.14555 
L 438.848561 -99.074852 
L 438.07367 -100.004154 
L 437.993732 -100.933456 
L 438.600354 -101.862758 
L 439.655464 -102.792059 
L 441.189893 -103.721361 
L 442.766731 -104.650663 
L 444.077766 -105.579965 
L 445.163886 -106.509267 
L 446.037765 -107.438568 
L 446.724813 -108.36787 
L 447.258077 -109.297172 
L 447.675921 -110.226474 
L 447.961216 -111.155776 
L 448.174539 -112.085078 
L 448.403974 -113.014379 
L 448.595163 -113.943681 
L 448.703542 -114.872983 
L 448.770996 -115.802285 
L 448.82029 -116.731587 
L 448.853358 -117.660888 
L 448.900629 -118.59019 
L 448.950042 -119.519492 
L 448.986911 -120.448794 
L 449.016335 -121.378096 
L 449.036784 -122.307397 
L 449.055141 -123.236699 
L 449.060938 -124.166001 
L 449.069197 -125.095303 
L 449.084031 -126.024605 
L 449.095872 -126.953906 
L 449.107733 -127.883208 
L 449.112616 -128.81251 
L 449.111308 -129.741812 
L 449.107671 -130.671114 
L 449.108976 -131.600416 
L 449.111682 -132.529717 
L 449.109614 -133.459019 
L 449.112798 -134.388321 
L 449.11632 -135.317623 
L 449.117493 -136.246925 
L 449.117517 -137.176226 
L 449.116899 -138.105528 
L 449.119706 -139.03483 
L 449.122345 -139.964132 
L 449.120698 -140.893434 
L 449.117831 -141.822735 
L 449.120257 -142.752037 
L 449.123008 -143.681339 
L 449.123867 -143.681339 
L 449.123867 -143.681339 
L 449.126618 -142.752037 
L 449.129044 -141.822735 
L 449.126177 -140.893434 
L 449.12453 -139.964132 
L 449.127169 -139.03483 
L 449.129976 -138.105528 
L 449.129358 -137.176226 
L 449.129382 -136.246925 
L 449.130555 -135.317623 
L 449.134077 -134.388321 
L 449.137261 -133.459019 
L 449.135193 -132.529717 
L 449.137899 -131.600416 
L 449.139204 -130.671114 
L 449.135567 -129.741812 
L 449.134259 -128.81251 
L 449.139142 -127.883208 
L 449.151003 -126.953906 
L 449.162844 -126.024605 
L 449.177678 -125.095303 
L 449.185937 -124.166001 
L 449.191734 -123.236699 
L 449.210091 -122.307397 
L 449.23054 -121.378096 
L 449.259964 -120.448794 
L 449.296833 -119.519492 
L 449.346246 -118.59019 
L 449.393517 -117.660888 
L 449.426585 -116.731587 
L 449.475879 -115.802285 
L 449.543333 -114.872983 
L 449.651712 -113.943681 
L 449.842901 -113.014379 
L 450.072336 -112.085078 
L 450.285659 -111.155776 
L 450.570954 -110.226474 
L 450.988798 -109.297172 
L 451.522062 -108.36787 
L 452.20911 -107.438568 
L 453.082989 -106.509267 
L 454.169109 -105.579965 
L 455.480144 -104.650663 
L 457.056982 -103.721361 
L 458.591411 -102.792059 
L 459.646521 -101.862758 
L 460.253143 -100.933456 
L 460.173205 -100.004154 
L 459.398314 -99.074852 
L 458.244995 -98.14555 
L 456.72445 -97.216249 
L 455.136652 -96.286947 
L 453.798492 -95.357645 
L 452.768088 -94.428343 
L 452.005464 -93.499041 
L 451.402107 -92.56974 
L 450.898614 -91.640438 
L 450.480044 -90.711136 
L 450.157485 -89.781834 
L 449.933345 -88.852532 
L 449.762408 -87.92323 
L 449.591079 -86.993929 
L 449.457613 -86.064627 
L 449.386637 -85.135325 
L 449.328326 -84.206023 
L 449.288481 -83.276721 
L 449.252769 -82.34742 
L 449.230162 -81.418118 
L 449.209994 -80.488816 
L 449.184197 -79.559514 
L 449.181436 -78.630212 
L 449.166194 -77.700911 
L 449.144031 -76.771609 
L 449.140339 -75.842307 
L 449.135521 -74.913005 
L 449.13576 -73.983703 
L 449.136309 -73.054401 
L 449.133192 -72.1251 
L 449.134596 -71.195798 
L 449.134344 -70.266496 
L 449.133873 -69.337194 
L 449.131199 -68.407892 
L 449.129223 -67.478591 
L 449.128671 -66.549289 
L 449.13008 -65.619987 
L 449.127779 -64.690685 
L 449.124853 -63.761383 
L 449.123578 -62.832082 
L 449.12344 -61.90278 
L 449.123438 -60.973478 
L 449.123438 -60.044176 
L 449.123438 -59.114874 
L 449.123438 -58.185573 
L 449.123438 -57.256271 
L 449.123438 -56.326969 
L 449.12347 -55.397667 
L 449.124223 -54.468365 
L 449.127064 -53.539063 
L 449.126633 -52.609762 
L 449.123975 -51.68046 
z
" style="stroke: #585858; stroke-width: 1.5"/>
    </defs>
    <g clip-path="url(#pa8e45c9fc3)">
     <use xlink:href="#mee0ba439bd" x="0" y="194.43625" style="fill: #9372b2; stroke: #585858; stroke-width: 1.5"/>
    </g>
   </g>
   <g id="PolyCollection_5">
    <defs>
     <path id="m3ae7a22941" d="M 560.725862 -31.568977 
L 560.721013 -31.568977 
L 560.718335 -33.066498 
L 560.714232 -34.564019 
L 560.709143 -36.061539 
L 560.70417 -37.55906 
L 560.700471 -39.056581 
L 560.698328 -40.554101 
L 560.69672 -42.051622 
L 560.693961 -43.549143 
L 560.688905 -45.046663 
L 560.681689 -46.544184 
L 560.673469 -48.041705 
L 560.665573 -49.539225 
L 560.658817 -51.036746 
L 560.653324 -52.534267 
L 560.648643 -54.031787 
L 560.643737 -55.529308 
L 560.636671 -57.026829 
L 560.624507 -58.524349 
L 560.604172 -60.02187 
L 560.57423 -61.51939 
L 560.536119 -63.016911 
L 560.493334 -64.514432 
L 560.448687 -66.011952 
L 560.401602 -67.509473 
L 560.347576 -69.006994 
L 560.280413 -70.504514 
L 560.19589 -72.002035 
L 560.094476 -73.499556 
L 559.981212 -74.997076 
L 559.862723 -76.494597 
L 559.743343 -77.992118 
L 559.622843 -79.489638 
L 559.496921 -80.987159 
L 559.359624 -82.48468 
L 559.205892 -83.9822 
L 559.032733 -85.479721 
L 558.838899 -86.977242 
L 558.624222 -88.474762 
L 558.389817 -89.972283 
L 558.13931 -91.469804 
L 557.88018 -92.967324 
L 557.624094 -94.464845 
L 557.385933 -95.962366 
L 557.182279 -97.459886 
L 557.030264 -98.957407 
L 556.945989 -100.454928 
L 556.941063 -101.952448 
L 557.018097 -103.449969 
L 557.168719 -104.94749 
L 557.376043 -106.44501 
L 557.619539 -107.942531 
L 557.879457 -109.440052 
L 558.140508 -110.937572 
L 558.394961 -112.435093 
L 558.642979 -113.932614 
L 558.888102 -115.430134 
L 559.130354 -116.927655 
L 559.362704 -118.425176 
L 559.573828 -119.922696 
L 559.754273 -121.420217 
L 559.900703 -122.917738 
L 560.015876 -124.415258 
L 560.106231 -125.912779 
L 560.179793 -127.4103 
L 560.244621 -128.90782 
L 560.306587 -130.405341 
L 560.36711 -131.902862 
L 560.423324 -133.400382 
L 560.471311 -134.897903 
L 560.509631 -136.395424 
L 560.539966 -137.892944 
L 560.565005 -139.390465 
L 560.586329 -140.887986 
L 560.6043 -142.385506 
L 560.619193 -143.883027 
L 560.631695 -145.380548 
L 560.642207 -146.878068 
L 560.650132 -148.375589 
L 560.654335 -149.87311 
L 560.654565 -151.37063 
L 560.652466 -152.868151 
L 560.651112 -154.365671 
L 560.653283 -155.863192 
L 560.659825 -157.360713 
L 560.669418 -158.858233 
L 560.679816 -160.355754 
L 560.689325 -161.853275 
L 560.697308 -163.350795 
L 560.703674 -164.848316 
L 560.708283 -166.345837 
L 560.710955 -167.843357 
L 560.711914 -169.340878 
L 560.712015 -170.838399 
L 560.712368 -172.335919 
L 560.713684 -173.83344 
L 560.715907 -175.330961 
L 560.718422 -176.828481 
L 560.720574 -178.326002 
L 560.72204 -179.823523 
L 560.724835 -179.823523 
L 560.724835 -179.823523 
L 560.726301 -178.326002 
L 560.728453 -176.828481 
L 560.730968 -175.330961 
L 560.733191 -173.83344 
L 560.734507 -172.335919 
L 560.73486 -170.838399 
L 560.734961 -169.340878 
L 560.73592 -167.843357 
L 560.738592 -166.345837 
L 560.743201 -164.848316 
L 560.749567 -163.350795 
L 560.75755 -161.853275 
L 560.767059 -160.355754 
L 560.777457 -158.858233 
L 560.78705 -157.360713 
L 560.793592 -155.863192 
L 560.795763 -154.365671 
L 560.794409 -152.868151 
L 560.79231 -151.37063 
L 560.79254 -149.87311 
L 560.796743 -148.375589 
L 560.804668 -146.878068 
L 560.81518 -145.380548 
L 560.827682 -143.883027 
L 560.842575 -142.385506 
L 560.860546 -140.887986 
L 560.88187 -139.390465 
L 560.906909 -137.892944 
L 560.937244 -136.395424 
L 560.975564 -134.897903 
L 561.023551 -133.400382 
L 561.079765 -131.902862 
L 561.140288 -130.405341 
L 561.202254 -128.90782 
L 561.267082 -127.4103 
L 561.340644 -125.912779 
L 561.430999 -124.415258 
L 561.546172 -122.917738 
L 561.692602 -121.420217 
L 561.873047 -119.922696 
L 562.084171 -118.425176 
L 562.316521 -116.927655 
L 562.558773 -115.430134 
L 562.803896 -113.932614 
L 563.051914 -112.435093 
L 563.306367 -110.937572 
L 563.567418 -109.440052 
L 563.827336 -107.942531 
L 564.070832 -106.44501 
L 564.278156 -104.94749 
L 564.428778 -103.449969 
L 564.505812 -101.952448 
L 564.500886 -100.454928 
L 564.416611 -98.957407 
L 564.264596 -97.459886 
L 564.060942 -95.962366 
L 563.822781 -94.464845 
L 563.566695 -92.967324 
L 563.307565 -91.469804 
L 563.057058 -89.972283 
L 562.822653 -88.474762 
L 562.607976 -86.977242 
L 562.414142 -85.479721 
L 562.240983 -83.9822 
L 562.087251 -82.48468 
L 561.949954 -80.987159 
L 561.824032 -79.489638 
L 561.703532 -77.992118 
L 561.584152 -76.494597 
L 561.465663 -74.997076 
L 561.352399 -73.499556 
L 561.250985 -72.002035 
L 561.166462 -70.504514 
L 561.099299 -69.006994 
L 561.045273 -67.509473 
L 560.998188 -66.011952 
L 560.953541 -64.514432 
L 560.910756 -63.016911 
L 560.872645 -61.51939 
L 560.842703 -60.02187 
L 560.822368 -58.524349 
L 560.810204 -57.026829 
L 560.803138 -55.529308 
L 560.798232 -54.031787 
L 560.793551 -52.534267 
L 560.788058 -51.036746 
L 560.781302 -49.539225 
L 560.773406 -48.041705 
L 560.765186 -46.544184 
L 560.75797 -45.046663 
L 560.752914 -43.549143 
L 560.750155 -42.051622 
L 560.748547 -40.554101 
L 560.746404 -39.056581 
L 560.742705 -37.55906 
L 560.737732 -36.061539 
L 560.732643 -34.564019 
L 560.72854 -33.066498 
L 560.725862 -31.568977 
z
" style="stroke: #585858; stroke-width: 1.5"/>
    </defs>
    <g clip-path="url(#pa8e45c9fc3)">
     <use xlink:href="#m3ae7a22941" x="0" y="194.43625" style="fill: #9372b2; stroke: #585858; stroke-width: 1.5"/>
    </g>
   </g>
   <g id="matplotlib.axis_1">
    <g id="xtick_1">
     <g id="line2d_1">
      <defs>
       <path id="m71297c7ea8" d="M 0 0 
L 0 3.5 
" style="stroke: #000000; stroke-width: 0.8"/>
      </defs>
      <g>
       <use xlink:href="#m71297c7ea8" x="114.323438" y="170.28" style="stroke: #000000; stroke-width: 0.8"/>
      </g>
     </g>
     <g id="text_1">
      <!-- dense_1 -->
      <g transform="translate(93.541406 184.878438)scale(0.1 -0.1)">
       <defs>
        <path id="DejaVuSans-64" d="M 2906 2969 
L 2906 4863 
L 3481 4863 
L 3481 0 
L 2906 0 
L 2906 525 
Q 2725 213 2448 61 
Q 2172 -91 1784 -91 
Q 1150 -91 751 415 
Q 353 922 353 1747 
Q 353 2572 751 3078 
Q 1150 3584 1784 3584 
Q 2172 3584 2448 3432 
Q 2725 3281 2906 2969 
z
M 947 1747 
Q 947 1113 1208 752 
Q 1469 391 1925 391 
Q 2381 391 2643 752 
Q 2906 1113 2906 1747 
Q 2906 2381 2643 2742 
Q 2381 3103 1925 3103 
Q 1469 3103 1208 2742 
Q 947 2381 947 1747 
z
" transform="scale(0.015625)"/>
        <path id="DejaVuSans-65" d="M 3597 1894 
L 3597 1613 
L 953 1613 
Q 991 1019 1311 708 
Q 1631 397 2203 397 
Q 2534 397 2845 478 
Q 3156 559 3463 722 
L 3463 178 
Q 3153 47 2828 -22 
Q 2503 -91 2169 -91 
Q 1331 -91 842 396 
Q 353 884 353 1716 
Q 353 2575 817 3079 
Q 1281 3584 2069 3584 
Q 2775 3584 3186 3129 
Q 3597 2675 3597 1894 
z
M 3022 2063 
Q 3016 2534 2758 2815 
Q 2500 3097 2075 3097 
Q 1594 3097 1305 2825 
Q 1016 2553 972 2059 
L 3022 2063 
z
" transform="scale(0.015625)"/>
        <path id="DejaVuSans-6e" d="M 3513 2113 
L 3513 0 
L 2938 0 
L 2938 2094 
Q 2938 2591 2744 2837 
Q 2550 3084 2163 3084 
Q 1697 3084 1428 2787 
Q 1159 2491 1159 1978 
L 1159 0 
L 581 0 
L 581 3500 
L 1159 3500 
L 1159 2956 
Q 1366 3272 1645 3428 
Q 1925 3584 2291 3584 
Q 2894 3584 3203 3211 
Q 3513 2838 3513 2113 
z
" transform="scale(0.015625)"/>
        <path id="DejaVuSans-73" d="M 2834 3397 
L 2834 2853 
Q 2591 2978 2328 3040 
Q 2066 3103 1784 3103 
Q 1356 3103 1142 2972 
Q 928 2841 928 2578 
Q 928 2378 1081 2264 
Q 1234 2150 1697 2047 
L 1894 2003 
Q 2506 1872 2764 1633 
Q 3022 1394 3022 966 
Q 3022 478 2636 193 
Q 2250 -91 1575 -91 
Q 1294 -91 989 -36 
Q 684 19 347 128 
L 347 722 
Q 666 556 975 473 
Q 1284 391 1588 391 
Q 1994 391 2212 530 
Q 2431 669 2431 922 
Q 2431 1156 2273 1281 
Q 2116 1406 1581 1522 
L 1381 1569 
Q 847 1681 609 1914 
Q 372 2147 372 2553 
Q 372 3047 722 3315 
Q 1072 3584 1716 3584 
Q 2034 3584 2315 3537 
Q 2597 3491 2834 3397 
z
" transform="scale(0.015625)"/>
        <path id="DejaVuSans-5f" d="M 3263 -1063 
L 3263 -1509 
L -63 -1509 
L -63 -1063 
L 3263 -1063 
z
" transform="scale(0.015625)"/>
        <path id="DejaVuSans-31" d="M 794 531 
L 1825 531 
L 1825 4091 
L 703 3866 
L 703 4441 
L 1819 4666 
L 2450 4666 
L 2450 531 
L 3481 531 
L 3481 0 
L 794 0 
L 794 531 
z
" transform="scale(0.015625)"/>
       </defs>
       <use xlink:href="#DejaVuSans-64"/>
       <use xlink:href="#DejaVuSans-65" x="63.476562"/>
       <use xlink:href="#DejaVuSans-6e" x="125"/>
       <use xlink:href="#DejaVuSans-73" x="188.378906"/>
       <use xlink:href="#DejaVuSans-65" x="240.478516"/>
       <use xlink:href="#DejaVuSans-5f" x="302.001953"/>
       <use xlink:href="#DejaVuSans-31" x="352.001953"/>
      </g>
     </g>
    </g>
    <g id="xtick_2">
     <g id="line2d_2">
      <g>
       <use xlink:href="#m71297c7ea8" x="225.923438" y="170.28" style="stroke: #000000; stroke-width: 0.8"/>
      </g>
     </g>
     <g id="text_2">
      <!-- dense_3 -->
      <g transform="translate(205.141406 184.878438)scale(0.1 -0.1)">
       <defs>
        <path id="DejaVuSans-33" d="M 2597 2516 
Q 3050 2419 3304 2112 
Q 3559 1806 3559 1356 
Q 3559 666 3084 287 
Q 2609 -91 1734 -91 
Q 1441 -91 1130 -33 
Q 819 25 488 141 
L 488 750 
Q 750 597 1062 519 
Q 1375 441 1716 441 
Q 2309 441 2620 675 
Q 2931 909 2931 1356 
Q 2931 1769 2642 2001 
Q 2353 2234 1838 2234 
L 1294 2234 
L 1294 2753 
L 1863 2753 
Q 2328 2753 2575 2939 
Q 2822 3125 2822 3475 
Q 2822 3834 2567 4026 
Q 2313 4219 1838 4219 
Q 1578 4219 1281 4162 
Q 984 4106 628 3988 
L 628 4550 
Q 988 4650 1302 4700 
Q 1616 4750 1894 4750 
Q 2613 4750 3031 4423 
Q 3450 4097 3450 3541 
Q 3450 3153 3228 2886 
Q 3006 2619 2597 2516 
z
" transform="scale(0.015625)"/>
       </defs>
       <use xlink:href="#DejaVuSans-64"/>
       <use xlink:href="#DejaVuSans-65" x="63.476562"/>
       <use xlink:href="#DejaVuSans-6e" x="125"/>
       <use xlink:href="#DejaVuSans-73" x="188.378906"/>
       <use xlink:href="#DejaVuSans-65" x="240.478516"/>
       <use xlink:href="#DejaVuSans-5f" x="302.001953"/>
       <use xlink:href="#DejaVuSans-33" x="352.001953"/>
      </g>
     </g>
    </g>
    <g id="xtick_3">
     <g id="line2d_3">
      <g>
       <use xlink:href="#m71297c7ea8" x="337.523438" y="170.28" style="stroke: #000000; stroke-width: 0.8"/>
      </g>
     </g>
     <g id="text_3">
      <!-- dense_5 -->
      <g transform="translate(316.741406 184.878438)scale(0.1 -0.1)">
       <defs>
        <path id="DejaVuSans-35" d="M 691 4666 
L 3169 4666 
L 3169 4134 
L 1269 4134 
L 1269 2991 
Q 1406 3038 1543 3061 
Q 1681 3084 1819 3084 
Q 2600 3084 3056 2656 
Q 3513 2228 3513 1497 
Q 3513 744 3044 326 
Q 2575 -91 1722 -91 
Q 1428 -91 1123 -41 
Q 819 9 494 109 
L 494 744 
Q 775 591 1075 516 
Q 1375 441 1709 441 
Q 2250 441 2565 725 
Q 2881 1009 2881 1497 
Q 2881 1984 2565 2268 
Q 2250 2553 1709 2553 
Q 1456 2553 1204 2497 
Q 953 2441 691 2322 
L 691 4666 
z
" transform="scale(0.015625)"/>
       </defs>
       <use xlink:href="#DejaVuSans-64"/>
       <use xlink:href="#DejaVuSans-65" x="63.476562"/>
       <use xlink:href="#DejaVuSans-6e" x="125"/>
       <use xlink:href="#DejaVuSans-73" x="188.378906"/>
       <use xlink:href="#DejaVuSans-65" x="240.478516"/>
       <use xlink:href="#DejaVuSans-5f" x="302.001953"/>
       <use xlink:href="#DejaVuSans-35" x="352.001953"/>
      </g>
     </g>
    </g>
    <g id="xtick_4">
     <g id="line2d_4">
      <g>
       <use xlink:href="#m71297c7ea8" x="449.123438" y="170.28" style="stroke: #000000; stroke-width: 0.8"/>
      </g>
     </g>
     <g id="text_4">
      <!-- dense_7 -->
      <g transform="translate(428.341406 184.878438)scale(0.1 -0.1)">
       <defs>
        <path id="DejaVuSans-37" d="M 525 4666 
L 3525 4666 
L 3525 4397 
L 1831 0 
L 1172 0 
L 2766 4134 
L 525 4134 
L 525 4666 
z
" transform="scale(0.015625)"/>
       </defs>
       <use xlink:href="#DejaVuSans-64"/>
       <use xlink:href="#DejaVuSans-65" x="63.476562"/>
       <use xlink:href="#DejaVuSans-6e" x="125"/>
       <use xlink:href="#DejaVuSans-73" x="188.378906"/>
       <use xlink:href="#DejaVuSans-65" x="240.478516"/>
       <use xlink:href="#DejaVuSans-5f" x="302.001953"/>
       <use xlink:href="#DejaVuSans-37" x="352.001953"/>
      </g>
     </g>
    </g>
    <g id="xtick_5">
     <g id="line2d_5">
      <g>
       <use xlink:href="#m71297c7ea8" x="560.723438" y="170.28" style="stroke: #000000; stroke-width: 0.8"/>
      </g>
     </g>
     <g id="text_5">
      <!-- dense_9 -->
      <g transform="translate(539.941406 184.878438)scale(0.1 -0.1)">
       <defs>
        <path id="DejaVuSans-39" d="M 703 97 
L 703 672 
Q 941 559 1184 500 
Q 1428 441 1663 441 
Q 2288 441 2617 861 
Q 2947 1281 2994 2138 
Q 2813 1869 2534 1725 
Q 2256 1581 1919 1581 
Q 1219 1581 811 2004 
Q 403 2428 403 3163 
Q 403 3881 828 4315 
Q 1253 4750 1959 4750 
Q 2769 4750 3195 4129 
Q 3622 3509 3622 2328 
Q 3622 1225 3098 567 
Q 2575 -91 1691 -91 
Q 1453 -91 1209 -44 
Q 966 3 703 97 
z
M 1959 2075 
Q 2384 2075 2632 2365 
Q 2881 2656 2881 3163 
Q 2881 3666 2632 3958 
Q 2384 4250 1959 4250 
Q 1534 4250 1286 3958 
Q 1038 3666 1038 3163 
Q 1038 2656 1286 2365 
Q 1534 2075 1959 2075 
z
" transform="scale(0.015625)"/>
       </defs>
       <use xlink:href="#DejaVuSans-64"/>
       <use xlink:href="#DejaVuSans-65" x="63.476562"/>
       <use xlink:href="#DejaVuSans-6e" x="125"/>
       <use xlink:href="#DejaVuSans-73" x="188.378906"/>
       <use xlink:href="#DejaVuSans-65" x="240.478516"/>
       <use xlink:href="#DejaVuSans-5f" x="302.001953"/>
       <use xlink:href="#DejaVuSans-39" x="352.001953"/>
      </g>
     </g>
    </g>
   </g>
   <g id="matplotlib.axis_2">
    <g id="ytick_1">
     <g id="line2d_6">
      <defs>
       <path id="ma74d8884c3" d="M 0 0 
L -3.5 0 
" style="stroke: #000000; stroke-width: 0.8"/>
      </defs>
      <g>
       <use xlink:href="#ma74d8884c3" x="58.523438" y="165.48994" style="stroke: #000000; stroke-width: 0.8"/>
      </g>
     </g>
     <g id="text_6">
      <!-- −0.10 -->
      <g transform="translate(20.878125 169.289158)scale(0.1 -0.1)">
       <defs>
        <path id="DejaVuSans-2212" d="M 678 2272 
L 4684 2272 
L 4684 1741 
L 678 1741 
L 678 2272 
z
" transform="scale(0.015625)"/>
        <path id="DejaVuSans-30" d="M 2034 4250 
Q 1547 4250 1301 3770 
Q 1056 3291 1056 2328 
Q 1056 1369 1301 889 
Q 1547 409 2034 409 
Q 2525 409 2770 889 
Q 3016 1369 3016 2328 
Q 3016 3291 2770 3770 
Q 2525 4250 2034 4250 
z
M 2034 4750 
Q 2819 4750 3233 4129 
Q 3647 3509 3647 2328 
Q 3647 1150 3233 529 
Q 2819 -91 2034 -91 
Q 1250 -91 836 529 
Q 422 1150 422 2328 
Q 422 3509 836 4129 
Q 1250 4750 2034 4750 
z
" transform="scale(0.015625)"/>
        <path id="DejaVuSans-2e" d="M 684 794 
L 1344 794 
L 1344 0 
L 684 0 
L 684 794 
z
" transform="scale(0.015625)"/>
       </defs>
       <use xlink:href="#DejaVuSans-2212"/>
       <use xlink:href="#DejaVuSans-30" x="83.789062"/>
       <use xlink:href="#DejaVuSans-2e" x="147.412109"/>
       <use xlink:href="#DejaVuSans-31" x="179.199219"/>
       <use xlink:href="#DejaVuSans-30" x="242.822266"/>
      </g>
     </g>
    </g>
    <g id="ytick_2">
     <g id="line2d_7">
      <g>
       <use xlink:href="#ma74d8884c3" x="58.523438" y="129.632671" style="stroke: #000000; stroke-width: 0.8"/>
      </g>
     </g>
     <g id="text_7">
      <!-- −0.05 -->
      <g transform="translate(20.878125 133.43189)scale(0.1 -0.1)">
       <use xlink:href="#DejaVuSans-2212"/>
       <use xlink:href="#DejaVuSans-30" x="83.789062"/>
       <use xlink:href="#DejaVuSans-2e" x="147.412109"/>
       <use xlink:href="#DejaVuSans-30" x="179.199219"/>
       <use xlink:href="#DejaVuSans-35" x="242.822266"/>
      </g>
     </g>
    </g>
    <g id="ytick_3">
     <g id="line2d_8">
      <g>
       <use xlink:href="#ma74d8884c3" x="58.523438" y="93.775403" style="stroke: #000000; stroke-width: 0.8"/>
      </g>
     </g>
     <g id="text_8">
      <!-- 0.00 -->
      <g transform="translate(29.257812 97.574621)scale(0.1 -0.1)">
       <use xlink:href="#DejaVuSans-30"/>
       <use xlink:href="#DejaVuSans-2e" x="63.623047"/>
       <use xlink:href="#DejaVuSans-30" x="95.410156"/>
       <use xlink:href="#DejaVuSans-30" x="159.033203"/>
      </g>
     </g>
    </g>
    <g id="ytick_4">
     <g id="line2d_9">
      <g>
       <use xlink:href="#ma74d8884c3" x="58.523438" y="57.918134" style="stroke: #000000; stroke-width: 0.8"/>
      </g>
     </g>
     <g id="text_9">
      <!-- 0.05 -->
      <g transform="translate(29.257812 61.717353)scale(0.1 -0.1)">
       <use xlink:href="#DejaVuSans-30"/>
       <use xlink:href="#DejaVuSans-2e" x="63.623047"/>
       <use xlink:href="#DejaVuSans-30" x="95.410156"/>
       <use xlink:href="#DejaVuSans-35" x="159.033203"/>
      </g>
     </g>
    </g>
    <g id="ytick_5">
     <g id="line2d_10">
      <g>
       <use xlink:href="#ma74d8884c3" x="58.523438" y="22.060866" style="stroke: #000000; stroke-width: 0.8"/>
      </g>
     </g>
     <g id="text_10">
      <!-- 0.10 -->
      <g transform="translate(29.257812 25.860085)scale(0.1 -0.1)">
       <use xlink:href="#DejaVuSans-30"/>
       <use xlink:href="#DejaVuSans-2e" x="63.623047"/>
       <use xlink:href="#DejaVuSans-31" x="95.410156"/>
       <use xlink:href="#DejaVuSans-30" x="159.033203"/>
      </g>
     </g>
    </g>
    <g id="text_11">
     <!-- ${\nabla}_w L$ -->
     <g transform="translate(14.798437 97.94)rotate(-90)scale(0.1 -0.1)">
      <defs>
       <path id="DejaVuSans-2207" d="M 2138 659 
L 3444 4047 
L 831 4047 
L 2138 659 
z
M 1791 0 
L -19 4603 
L 4300 4603 
L 2491 0 
L 1791 0 
z
" transform="scale(0.015625)"/>
       <path id="DejaVuSans-Oblique-77" d="M 544 3500 
L 1113 3500 
L 1259 684 
L 2566 3500 
L 3231 3500 
L 3425 684 
L 4666 3500 
L 5241 3500 
L 3641 0 
L 2969 0 
L 2797 2900 
L 1459 0 
L 781 0 
L 544 3500 
z
" transform="scale(0.015625)"/>
       <path id="DejaVuSans-Oblique-4c" d="M 1075 4666 
L 1709 4666 
L 909 525 
L 3181 525 
L 3078 0 
L 172 0 
L 1075 4666 
z
" transform="scale(0.015625)"/>
      </defs>
      <use xlink:href="#DejaVuSans-2207" transform="translate(0 0.09375)"/>
      <use xlink:href="#DejaVuSans-Oblique-77" transform="translate(67.851562 -16.3125)scale(0.7)"/>
      <use xlink:href="#DejaVuSans-Oblique-4c" transform="translate(127.836914 0.09375)"/>
     </g>
    </g>
   </g>
   <g id="line2d_11">
    <path d="M 114.323438 98.89018 
L 114.323438 88.563613 
" clip-path="url(#pa8e45c9fc3)" style="fill: none; stroke: #585858; stroke-width: 1.5; stroke-linecap: square"/>
   </g>
   <g id="line2d_12">
    <path d="M 114.323438 95.01778 
L 114.323438 92.436097 
" clip-path="url(#pa8e45c9fc3)" style="fill: none; stroke: #585858; stroke-width: 4.5; stroke-linecap: square"/>
   </g>
   <g id="line2d_13">
    <path d="M 225.923438 101.961407 
L 225.923438 85.609202 
" clip-path="url(#pa8e45c9fc3)" style="fill: none; stroke: #585858; stroke-width: 1.5; stroke-linecap: square"/>
   </g>
   <g id="line2d_14">
    <path d="M 225.923438 95.828066 
L 225.923438 91.739077 
" clip-path="url(#pa8e45c9fc3)" style="fill: none; stroke: #585858; stroke-width: 4.5; stroke-linecap: square"/>
   </g>
   <g id="line2d_15">
    <path d="M 337.523438 102.5222 
L 337.523438 85.05547 
" clip-path="url(#pa8e45c9fc3)" style="fill: none; stroke: #585858; stroke-width: 1.5; stroke-linecap: square"/>
   </g>
   <g id="line2d_16">
    <path d="M 337.523438 95.971932 
L 337.523438 91.604636 
" clip-path="url(#pa8e45c9fc3)" style="fill: none; stroke: #585858; stroke-width: 4.5; stroke-linecap: square"/>
   </g>
   <g id="line2d_17">
    <path d="M 449.123438 105.986067 
L 449.123438 81.607407 
" clip-path="url(#pa8e45c9fc3)" style="fill: none; stroke: #585858; stroke-width: 1.5; stroke-linecap: square"/>
   </g>
   <g id="line2d_18">
    <path d="M 449.123438 96.844306 
L 449.123438 90.748922 
" clip-path="url(#pa8e45c9fc3)" style="fill: none; stroke: #585858; stroke-width: 4.5; stroke-linecap: square"/>
   </g>
   <g id="line2d_19">
    <path d="M 560.723438 129.117437 
L 560.723438 59.545708 
" clip-path="url(#pa8e45c9fc3)" style="fill: none; stroke: #585858; stroke-width: 1.5; stroke-linecap: square"/>
   </g>
   <g id="line2d_20">
    <path d="M 560.723438 102.795855 
L 560.723438 85.015628 
" clip-path="url(#pa8e45c9fc3)" style="fill: none; stroke: #585858; stroke-width: 4.5; stroke-linecap: square"/>
   </g>
   <g id="patch_3">
    <path d="M 58.523438 170.28 
L 58.523438 7.2 
" style="fill: none; stroke: #000000; stroke-width: 0.8; stroke-linejoin: miter; stroke-linecap: square"/>
   </g>
   <g id="patch_4">
    <path d="M 616.523438 170.28 
L 616.523438 7.2 
" style="fill: none; stroke: #000000; stroke-width: 0.8; stroke-linejoin: miter; stroke-linecap: square"/>
   </g>
   <g id="patch_5">
    <path d="M 58.523438 170.28 
L 616.523438 170.28 
" style="fill: none; stroke: #000000; stroke-width: 0.8; stroke-linejoin: miter; stroke-linecap: square"/>
   </g>
   <g id="patch_6">
    <path d="M 58.523438 7.2 
L 616.523438 7.2 
" style="fill: none; stroke: #000000; stroke-width: 0.8; stroke-linejoin: miter; stroke-linecap: square"/>
   </g>
   <g id="PathCollection_1">
    <defs>
     <path id="m90029fd088" d="M 0 1.5 
C 0.397805 1.5 0.77937 1.341951 1.06066 1.06066 
C 1.341951 0.77937 1.5 0.397805 1.5 0 
C 1.5 -0.397805 1.341951 -0.77937 1.06066 -1.06066 
C 0.77937 -1.341951 0.397805 -1.5 0 -1.5 
C -0.397805 -1.5 -0.77937 -1.341951 -1.06066 -1.06066 
C -1.341951 -0.77937 -1.5 -0.397805 -1.5 0 
C -1.5 0.397805 -1.341951 0.77937 -1.06066 1.06066 
C -0.77937 1.341951 -0.397805 1.5 0 1.5 
z
" style="stroke: #585858"/>
    </defs>
    <g clip-path="url(#pa8e45c9fc3)">
     <use xlink:href="#m90029fd088" x="114.323438" y="93.775326" style="fill: #ffffff; stroke: #585858"/>
    </g>
   </g>
   <g id="PathCollection_2">
    <g clip-path="url(#pa8e45c9fc3)">
     <use xlink:href="#m90029fd088" x="225.923438" y="93.781145" style="fill: #ffffff; stroke: #585858"/>
    </g>
   </g>
   <g id="PathCollection_3">
    <g clip-path="url(#pa8e45c9fc3)">
     <use xlink:href="#m90029fd088" x="337.523438" y="93.791953" style="fill: #ffffff; stroke: #585858"/>
    </g>
   </g>
   <g id="PathCollection_4">
    <g clip-path="url(#pa8e45c9fc3)">
     <use xlink:href="#m90029fd088" x="449.123438" y="93.813613" style="fill: #ffffff; stroke: #585858"/>
    </g>
   </g>
   <g id="PathCollection_5">
    <g clip-path="url(#pa8e45c9fc3)">
     <use xlink:href="#m90029fd088" x="560.723438" y="93.415396" style="fill: #ffffff; stroke: #585858"/>
    </g>
   </g>
   <g id="legend_1">
    <g id="patch_7">
     <path d="M 65.523438 29.878125 
L 112.792187 29.878125 
Q 114.792187 29.878125 114.792187 27.878125 
L 114.792187 14.2 
Q 114.792187 12.2 112.792187 12.2 
L 65.523438 12.2 
Q 63.523438 12.2 63.523438 14.2 
L 63.523438 27.878125 
Q 63.523438 29.878125 65.523438 29.878125 
z
" style="fill: #ffffff; opacity: 0.8; stroke: #cccccc; stroke-linejoin: miter"/>
    </g>
    <g id="patch_8">
     <path d="M 67.523438 23.798438 
L 87.523438 23.798438 
L 87.523438 16.798438 
L 67.523438 16.798438 
z
" style="fill: #9372b2; stroke: #585858; stroke-width: 1.5; stroke-linejoin: miter"/>
    </g>
    <g id="text_12">
     <!-- elu -->
     <g transform="translate(95.523438 23.798438)scale(0.1 -0.1)">
      <defs>
       <path id="DejaVuSans-6c" d="M 603 4863 
L 1178 4863 
L 1178 0 
L 603 0 
L 603 4863 
z
" transform="scale(0.015625)"/>
       <path id="DejaVuSans-75" d="M 544 1381 
L 544 3500 
L 1119 3500 
L 1119 1403 
Q 1119 906 1312 657 
Q 1506 409 1894 409 
Q 2359 409 2629 706 
Q 2900 1003 2900 1516 
L 2900 3500 
L 3475 3500 
L 3475 0 
L 2900 0 
L 2900 538 
Q 2691 219 2414 64 
Q 2138 -91 1772 -91 
Q 1169 -91 856 284 
Q 544 659 544 1381 
z
M 1991 3584 
L 1991 3584 
z
" transform="scale(0.015625)"/>
      </defs>
      <use xlink:href="#DejaVuSans-65"/>
      <use xlink:href="#DejaVuSans-6c" x="61.523438"/>
      <use xlink:href="#DejaVuSans-75" x="89.306641"/>
     </g>
    </g>
   </g>
  </g>
 </g>
 <defs>
  <clipPath id="pa8e45c9fc3">
   <rect x="58.523438" y="7.2" width="558" height="163.08"/>
  </clipPath>
 </defs>
</svg>
