<?xml version="1.0" encoding="utf-8" standalone="no"?>
<!DOCTYPE svg PUBLIC "-//W3C//DTD SVG 1.1//EN"
  "http://www.w3.org/Graphics/SVG/1.1/DTD/svg11.dtd">
<svg xmlns:xlink="http://www.w3.org/1999/xlink" width="614.204687pt" height="213.884397pt" viewBox="0 0 614.204687 213.884397" xmlns="http://www.w3.org/2000/svg" version="1.1">
 <metadata>
  <rdf:RDF xmlns:dc="http://purl.org/dc/elements/1.1/" xmlns:cc="http://creativecommons.org/ns#" xmlns:rdf="http://www.w3.org/1999/02/22-rdf-syntax-ns#">
   <cc:Work>
    <dc:type rdf:resource="http://purl.org/dc/dcmitype/StillImage"/>
    <dc:date>2022-07-08T02:25:29.074335</dc:date>
    <dc:format>image/svg+xml</dc:format>
    <dc:creator>
     <cc:Agent>
      <dc:title>Matplotlib v3.5.1, https://matplotlib.org/</dc:title>
     </cc:Agent>
    </dc:creator>
   </cc:Work>
  </rdf:RDF>
 </metadata>
 <defs>
  <style type="text/css">*{stroke-linejoin: round; stroke-linecap: butt}</style>
 </defs>
 <g id="figure_1">
  <g id="patch_1">
   <path d="M 0 213.884397 
L 614.204687 213.884397 
L 614.204687 0 
L 0 0 
L 0 213.884397 
z
" style="fill: none"/>
  </g>
  <g id="axes_1">
   <g id="patch_2">
    <path d="M 49.004687 170.28 
L 607.004688 170.28 
L 607.004688 7.2 
L 49.004687 7.2 
z
" style="fill: #ffffff"/>
   </g>
   <g id="PolyCollection_1">
    <defs>
     <path id="m81eb61d45d" d="M 83.879701 -107.782401 
L 83.879674 -107.782401 
L 83.879443 -108.413577 
L 83.879342 -109.044754 
L 83.879054 -109.675931 
L 83.878591 -110.307107 
L 83.877054 -110.938284 
L 83.875296 -111.56946 
L 83.871817 -112.200637 
L 83.867152 -112.831813 
L 83.859848 -113.46299 
L 83.847334 -114.094167 
L 83.835528 -114.725343 
L 83.820379 -115.35652 
L 83.806862 -115.987696 
L 83.786083 -116.618873 
L 83.76459 -117.250049 
L 83.73995 -117.881226 
L 83.710019 -118.512403 
L 83.674405 -119.143579 
L 83.631019 -119.774756 
L 83.586193 -120.405932 
L 83.531957 -121.037109 
L 83.467876 -121.668285 
L 83.394051 -122.299462 
L 83.310691 -122.930639 
L 83.199627 -123.561815 
L 83.081407 -124.192992 
L 82.924985 -124.824168 
L 82.756597 -125.455345 
L 82.555992 -126.086521 
L 82.32462 -126.717698 
L 82.052466 -127.348875 
L 81.736834 -127.980051 
L 81.344835 -128.611228 
L 80.884455 -129.242404 
L 80.269265 -129.873581 
L 79.552717 -130.504757 
L 78.768837 -131.135934 
L 77.852315 -131.767111 
L 76.933745 -132.398287 
L 76.17427 -133.029464 
L 75.677371 -133.66064 
L 75.564066 -134.291817 
L 75.922201 -134.922993 
L 76.542715 -135.55417 
L 77.314397 -136.185347 
L 78.084376 -136.816523 
L 78.860119 -137.4477 
L 79.597563 -138.078876 
L 80.291466 -138.710053 
L 80.882166 -139.341229 
L 81.396233 -139.972406 
L 81.851011 -140.603583 
L 82.211632 -141.234759 
L 82.546852 -141.865936 
L 82.804043 -142.497112 
L 83.014142 -143.128289 
L 83.186587 -143.759465 
L 83.320368 -144.390642 
L 83.424786 -145.021819 
L 83.522005 -145.652995 
L 83.588994 -146.284172 
L 83.645644 -146.915348 
L 83.695423 -147.546525 
L 83.732789 -148.177701 
L 83.762979 -148.808878 
L 83.792019 -149.440055 
L 83.811411 -150.071231 
L 83.826958 -150.702408 
L 83.839213 -151.333584 
L 83.847697 -151.964761 
L 83.854129 -152.595937 
L 83.860406 -153.227114 
L 83.863357 -153.858291 
L 83.866069 -154.489467 
L 83.867693 -155.120644 
L 83.86924 -155.75182 
L 83.87098 -156.382997 
L 83.872063 -157.014173 
L 83.872026 -157.64535 
L 83.872665 -158.276527 
L 83.871907 -158.907703 
L 83.874199 -159.53888 
L 83.873662 -160.170056 
L 83.874256 -160.801233 
L 83.875006 -161.432409 
L 83.875401 -162.063586 
L 83.87593 -162.694763 
L 83.876336 -163.325939 
L 83.876831 -163.957116 
L 83.878047 -164.588292 
L 83.878306 -165.219469 
L 83.878597 -165.850645 
L 83.879 -166.481822 
L 83.87943 -167.112999 
L 83.879452 -167.744175 
L 83.879609 -168.375352 
L 83.879631 -169.006528 
L 83.879634 -169.637705 
L 83.87968 -170.268881 
L 83.879695 -170.268881 
L 83.879695 -170.268881 
L 83.879741 -169.637705 
L 83.879744 -169.006528 
L 83.879766 -168.375352 
L 83.879923 -167.744175 
L 83.879945 -167.112999 
L 83.880375 -166.481822 
L 83.880778 -165.850645 
L 83.881069 -165.219469 
L 83.881328 -164.588292 
L 83.882544 -163.957116 
L 83.883039 -163.325939 
L 83.883445 -162.694763 
L 83.883974 -162.063586 
L 83.884369 -161.432409 
L 83.885119 -160.801233 
L 83.885713 -160.170056 
L 83.885176 -159.53888 
L 83.887468 -158.907703 
L 83.88671 -158.276527 
L 83.887349 -157.64535 
L 83.887312 -157.014173 
L 83.888395 -156.382997 
L 83.890135 -155.75182 
L 83.891682 -155.120644 
L 83.893306 -154.489467 
L 83.896018 -153.858291 
L 83.898969 -153.227114 
L 83.905246 -152.595937 
L 83.911678 -151.964761 
L 83.920162 -151.333584 
L 83.932417 -150.702408 
L 83.947964 -150.071231 
L 83.967356 -149.440055 
L 83.996396 -148.808878 
L 84.026586 -148.177701 
L 84.063952 -147.546525 
L 84.113731 -146.915348 
L 84.170381 -146.284172 
L 84.23737 -145.652995 
L 84.334589 -145.021819 
L 84.439007 -144.390642 
L 84.572788 -143.759465 
L 84.745233 -143.128289 
L 84.955332 -142.497112 
L 85.212523 -141.865936 
L 85.547743 -141.234759 
L 85.908364 -140.603583 
L 86.363142 -139.972406 
L 86.877209 -139.341229 
L 87.467909 -138.710053 
L 88.161812 -138.078876 
L 88.899256 -137.4477 
L 89.674999 -136.816523 
L 90.444978 -136.185347 
L 91.21666 -135.55417 
L 91.837174 -134.922993 
L 92.195309 -134.291817 
L 92.082004 -133.66064 
L 91.585105 -133.029464 
L 90.82563 -132.398287 
L 89.90706 -131.767111 
L 88.990538 -131.135934 
L 88.206658 -130.504757 
L 87.49011 -129.873581 
L 86.87492 -129.242404 
L 86.41454 -128.611228 
L 86.022541 -127.980051 
L 85.706909 -127.348875 
L 85.434755 -126.717698 
L 85.203383 -126.086521 
L 85.002778 -125.455345 
L 84.83439 -124.824168 
L 84.677968 -124.192992 
L 84.559748 -123.561815 
L 84.448684 -122.930639 
L 84.365324 -122.299462 
L 84.291499 -121.668285 
L 84.227418 -121.037109 
L 84.173182 -120.405932 
L 84.128356 -119.774756 
L 84.08497 -119.143579 
L 84.049356 -118.512403 
L 84.019425 -117.881226 
L 83.994785 -117.250049 
L 83.973292 -116.618873 
L 83.952513 -115.987696 
L 83.938996 -115.35652 
L 83.923847 -114.725343 
L 83.912041 -114.094167 
L 83.899527 -113.46299 
L 83.892223 -112.831813 
L 83.887558 -112.200637 
L 83.884079 -111.56946 
L 83.882321 -110.938284 
L 83.880784 -110.307107 
L 83.880321 -109.675931 
L 83.880033 -109.044754 
L 83.879932 -108.413577 
L 83.879701 -107.782401 
z
" style="stroke: #414141; stroke-width: 1.5"/>
    </defs>
    <g clip-path="url(#p609299bffd)">
     <use xlink:href="#m81eb61d45d" x="0" y="213.884397" style="fill: #845b53; stroke: #414141; stroke-width: 1.5"/>
    </g>
   </g>
   <g id="PolyCollection_2">
    <defs>
     <path id="m4fdd77f25b" d="M 154.964964 -130.85443 
L 152.294411 -130.85443 
L 132.169804 -131.250048 
L 136.347897 -131.645666 
L 138.638436 -132.041284 
L 138.921928 -132.436902 
L 139.01186 -132.83252 
L 139.60793 -133.228138 
L 140.659444 -133.623756 
L 142.091926 -134.019374 
L 143.508739 -134.414992 
L 144.844541 -134.81061 
L 145.995745 -135.206228 
L 146.979214 -135.601847 
L 147.851241 -135.997465 
L 148.606309 -136.393083 
L 149.256677 -136.788701 
L 149.847726 -137.184319 
L 150.326115 -137.579937 
L 150.747594 -137.975555 
L 151.10712 -138.371173 
L 151.432221 -138.766791 
L 151.713231 -139.162409 
L 151.939789 -139.558027 
L 152.144634 -139.953645 
L 152.3531 -140.349263 
L 152.519076 -140.744882 
L 152.646789 -141.1405 
L 152.76284 -141.536118 
L 152.880031 -141.931736 
L 152.972634 -142.327354 
L 153.045842 -142.722972 
L 153.121214 -143.11859 
L 153.164576 -143.514208 
L 153.228208 -143.909826 
L 153.274626 -144.305444 
L 153.327296 -144.701062 
L 153.356526 -145.09668 
L 153.384508 -145.492298 
L 153.415563 -145.887916 
L 153.440296 -146.283535 
L 153.467085 -146.679153 
L 153.483595 -147.074771 
L 153.503423 -147.470389 
L 153.516386 -147.866007 
L 153.534258 -148.261625 
L 153.549323 -148.657243 
L 153.559514 -149.052861 
L 153.5682 -149.448479 
L 153.57651 -149.844097 
L 153.584247 -150.239715 
L 153.591252 -150.635333 
L 153.596154 -151.030951 
L 153.600274 -151.42657 
L 153.601555 -151.822188 
L 153.608426 -152.217806 
L 153.611604 -152.613424 
L 153.611664 -153.009042 
L 153.614754 -153.40466 
L 153.615558 -153.800278 
L 153.617234 -154.195896 
L 153.617579 -154.591514 
L 153.619237 -154.987132 
L 153.619536 -155.38275 
L 153.620272 -155.778368 
L 153.621751 -156.173986 
L 153.622773 -156.569605 
L 153.622137 -156.965223 
L 153.621794 -157.360841 
L 153.623813 -157.756459 
L 153.622439 -158.152077 
L 153.62126 -158.547695 
L 153.623263 -158.943313 
L 153.624704 -159.338931 
L 153.624126 -159.734549 
L 153.623675 -160.130167 
L 153.624404 -160.525785 
L 153.624539 -160.921403 
L 153.625134 -161.317021 
L 153.625453 -161.712639 
L 153.62541 -162.108258 
L 153.625766 -162.503876 
L 153.626865 -162.899494 
L 153.626132 -163.295112 
L 153.626224 -163.69073 
L 153.627792 -164.086348 
L 153.628212 -164.481966 
L 153.62795 -164.877584 
L 153.628413 -165.273202 
L 153.628643 -165.66882 
L 153.628554 -166.064438 
L 153.629127 -166.460056 
L 153.629446 -166.855674 
L 153.629435 -167.251293 
L 153.629407 -167.646911 
L 153.629622 -168.042529 
L 153.629592 -168.438147 
L 153.629598 -168.833765 
L 153.629685 -169.229383 
L 153.629603 -169.625001 
L 153.629675 -170.020619 
L 153.6297 -170.020619 
L 153.6297 -170.020619 
L 153.629772 -169.625001 
L 153.62969 -169.229383 
L 153.629777 -168.833765 
L 153.629783 -168.438147 
L 153.629753 -168.042529 
L 153.629968 -167.646911 
L 153.62994 -167.251293 
L 153.629929 -166.855674 
L 153.630248 -166.460056 
L 153.630821 -166.064438 
L 153.630732 -165.66882 
L 153.630962 -165.273202 
L 153.631425 -164.877584 
L 153.631163 -164.481966 
L 153.631583 -164.086348 
L 153.633151 -163.69073 
L 153.633243 -163.295112 
L 153.63251 -162.899494 
L 153.633609 -162.503876 
L 153.633965 -162.108258 
L 153.633922 -161.712639 
L 153.634241 -161.317021 
L 153.634836 -160.921403 
L 153.634971 -160.525785 
L 153.6357 -160.130167 
L 153.635249 -159.734549 
L 153.634671 -159.338931 
L 153.636112 -158.943313 
L 153.638115 -158.547695 
L 153.636936 -158.152077 
L 153.635562 -157.756459 
L 153.637581 -157.360841 
L 153.637238 -156.965223 
L 153.636602 -156.569605 
L 153.637624 -156.173986 
L 153.639103 -155.778368 
L 153.639839 -155.38275 
L 153.640138 -154.987132 
L 153.641796 -154.591514 
L 153.642141 -154.195896 
L 153.643817 -153.800278 
L 153.644621 -153.40466 
L 153.647711 -153.009042 
L 153.647771 -152.613424 
L 153.650949 -152.217806 
L 153.65782 -151.822188 
L 153.659101 -151.42657 
L 153.663221 -151.030951 
L 153.668123 -150.635333 
L 153.675128 -150.239715 
L 153.682865 -149.844097 
L 153.691175 -149.448479 
L 153.699861 -149.052861 
L 153.710052 -148.657243 
L 153.725117 -148.261625 
L 153.742989 -147.866007 
L 153.755952 -147.470389 
L 153.77578 -147.074771 
L 153.79229 -146.679153 
L 153.819079 -146.283535 
L 153.843812 -145.887916 
L 153.874867 -145.492298 
L 153.902849 -145.09668 
L 153.932079 -144.701062 
L 153.984749 -144.305444 
L 154.031167 -143.909826 
L 154.094799 -143.514208 
L 154.138161 -143.11859 
L 154.213533 -142.722972 
L 154.286741 -142.327354 
L 154.379344 -141.931736 
L 154.496535 -141.536118 
L 154.612586 -141.1405 
L 154.740299 -140.744882 
L 154.906275 -140.349263 
L 155.114741 -139.953645 
L 155.319586 -139.558027 
L 155.546144 -139.162409 
L 155.827154 -138.766791 
L 156.152255 -138.371173 
L 156.511781 -137.975555 
L 156.93326 -137.579937 
L 157.411649 -137.184319 
L 158.002698 -136.788701 
L 158.653066 -136.393083 
L 159.408134 -135.997465 
L 160.280161 -135.601847 
L 161.26363 -135.206228 
L 162.414834 -134.81061 
L 163.750636 -134.414992 
L 165.167449 -134.019374 
L 166.599931 -133.623756 
L 167.651445 -133.228138 
L 168.247515 -132.83252 
L 168.337447 -132.436902 
L 168.620939 -132.041284 
L 170.911478 -131.645666 
L 175.089571 -131.250048 
L 154.964964 -130.85443 
z
" style="stroke: #414141; stroke-width: 1.5"/>
    </defs>
    <g clip-path="url(#p609299bffd)">
     <use xlink:href="#m4fdd77f25b" x="0" y="213.884397" style="fill: #845b53; stroke: #414141; stroke-width: 1.5"/>
    </g>
   </g>
   <g id="PolyCollection_3">
    <defs>
     <path id="m78c9f1508d" d="M 223.379708 -97.415302 
L 223.379667 -97.415302 
L 223.379335 -98.263864 
L 223.37909 -99.112426 
L 223.379028 -99.960988 
L 223.377977 -100.80955 
L 223.377341 -101.658112 
L 223.375899 -102.506674 
L 223.374351 -103.355236 
L 223.372018 -104.203798 
L 223.369482 -105.05236 
L 223.366969 -105.900922 
L 223.363881 -106.749484 
L 223.358135 -107.598046 
L 223.350255 -108.446608 
L 223.340587 -109.29517 
L 223.330402 -110.143732 
L 223.318121 -110.992294 
L 223.300522 -111.840856 
L 223.274811 -112.689418 
L 223.248081 -113.53798 
L 223.214171 -114.386542 
L 223.167084 -115.235104 
L 223.120846 -116.083666 
L 223.06468 -116.932228 
L 223.000838 -117.78079 
L 222.9262 -118.629352 
L 222.836383 -119.477914 
L 222.730357 -120.326476 
L 222.612972 -121.175038 
L 222.490962 -122.0236 
L 222.361769 -122.872162 
L 222.206198 -123.720724 
L 222.034998 -124.569286 
L 221.870804 -125.417848 
L 221.668777 -126.26641 
L 221.408626 -127.114972 
L 221.11092 -127.963534 
L 220.760933 -128.812096 
L 220.40178 -129.660658 
L 219.985236 -130.50922 
L 219.506556 -131.357782 
L 218.962223 -132.206344 
L 218.395379 -133.054906 
L 218.002389 -133.903468 
L 217.92132 -134.75203 
L 218.132274 -135.600592 
L 218.496534 -136.449154 
L 218.911238 -137.297716 
L 219.353526 -138.146278 
L 219.80194 -138.99484 
L 220.208515 -139.843402 
L 220.597693 -140.691964 
L 220.981586 -141.540526 
L 221.320173 -142.389088 
L 221.608609 -143.23765 
L 221.859096 -144.086213 
L 222.070328 -144.934775 
L 222.250542 -145.783337 
L 222.412013 -146.631899 
L 222.557097 -147.480461 
L 222.678254 -148.329023 
L 222.783993 -149.177585 
L 222.882626 -150.026147 
L 222.958163 -150.874709 
L 223.020123 -151.723271 
L 223.083437 -152.571833 
L 223.136292 -153.420395 
L 223.173166 -154.268957 
L 223.210985 -155.117519 
L 223.236735 -155.966081 
L 223.260873 -156.814643 
L 223.283258 -157.663205 
L 223.299894 -158.511767 
L 223.312837 -159.360329 
L 223.324162 -160.208891 
L 223.334284 -161.057453 
L 223.342434 -161.906015 
L 223.347815 -162.754577 
L 223.352683 -163.603139 
L 223.356487 -164.451701 
L 223.360557 -165.300263 
L 223.364267 -166.148825 
L 223.368747 -166.997387 
L 223.37152 -167.845949 
L 223.373503 -168.694511 
L 223.375763 -169.543073 
L 223.377462 -170.391635 
L 223.378153 -171.240197 
L 223.378352 -172.088759 
L 223.378701 -172.937321 
L 223.378728 -173.785883 
L 223.378894 -174.634445 
L 223.379282 -175.483007 
L 223.379088 -176.331569 
L 223.37927 -177.180131 
L 223.379532 -178.028693 
L 223.379626 -178.877255 
L 223.379665 -179.725817 
L 223.379625 -180.574379 
L 223.379679 -181.422941 
L 223.379696 -181.422941 
L 223.379696 -181.422941 
L 223.37975 -180.574379 
L 223.37971 -179.725817 
L 223.379749 -178.877255 
L 223.379843 -178.028693 
L 223.380105 -177.180131 
L 223.380287 -176.331569 
L 223.380093 -175.483007 
L 223.380481 -174.634445 
L 223.380647 -173.785883 
L 223.380674 -172.937321 
L 223.381023 -172.088759 
L 223.381222 -171.240197 
L 223.381913 -170.391635 
L 223.383612 -169.543073 
L 223.385872 -168.694511 
L 223.387855 -167.845949 
L 223.390628 -166.997387 
L 223.395108 -166.148825 
L 223.398818 -165.300263 
L 223.402888 -164.451701 
L 223.406692 -163.603139 
L 223.41156 -162.754577 
L 223.416941 -161.906015 
L 223.425091 -161.057453 
L 223.435213 -160.208891 
L 223.446538 -159.360329 
L 223.459481 -158.511767 
L 223.476117 -157.663205 
L 223.498502 -156.814643 
L 223.52264 -155.966081 
L 223.54839 -155.117519 
L 223.586209 -154.268957 
L 223.623083 -153.420395 
L 223.675938 -152.571833 
L 223.739252 -151.723271 
L 223.801212 -150.874709 
L 223.876749 -150.026147 
L 223.975382 -149.177585 
L 224.081121 -148.329023 
L 224.202278 -147.480461 
L 224.347362 -146.631899 
L 224.508833 -145.783337 
L 224.689047 -144.934775 
L 224.900279 -144.086213 
L 225.150766 -143.23765 
L 225.439202 -142.389088 
L 225.777789 -141.540526 
L 226.161682 -140.691964 
L 226.55086 -139.843402 
L 226.957435 -138.99484 
L 227.405849 -138.146278 
L 227.848137 -137.297716 
L 228.262841 -136.449154 
L 228.627101 -135.600592 
L 228.838055 -134.75203 
L 228.756986 -133.903468 
L 228.363996 -133.054906 
L 227.797152 -132.206344 
L 227.252819 -131.357782 
L 226.774139 -130.50922 
L 226.357595 -129.660658 
L 225.998442 -128.812096 
L 225.648455 -127.963534 
L 225.350749 -127.114972 
L 225.090598 -126.26641 
L 224.888571 -125.417848 
L 224.724377 -124.569286 
L 224.553177 -123.720724 
L 224.397606 -122.872162 
L 224.268413 -122.0236 
L 224.146403 -121.175038 
L 224.029018 -120.326476 
L 223.922992 -119.477914 
L 223.833175 -118.629352 
L 223.758537 -117.78079 
L 223.694695 -116.932228 
L 223.638529 -116.083666 
L 223.592291 -115.235104 
L 223.545204 -114.386542 
L 223.511294 -113.53798 
L 223.484564 -112.689418 
L 223.458853 -111.840856 
L 223.441254 -110.992294 
L 223.428973 -110.143732 
L 223.418788 -109.29517 
L 223.40912 -108.446608 
L 223.40124 -107.598046 
L 223.395494 -106.749484 
L 223.392406 -105.900922 
L 223.389893 -105.05236 
L 223.387357 -104.203798 
L 223.385024 -103.355236 
L 223.383476 -102.506674 
L 223.382034 -101.658112 
L 223.381398 -100.80955 
L 223.380347 -99.960988 
L 223.380285 -99.112426 
L 223.38004 -98.263864 
L 223.379708 -97.415302 
z
" style="stroke: #414141; stroke-width: 1.5"/>
    </defs>
    <g clip-path="url(#p609299bffd)">
     <use xlink:href="#m78c9f1508d" x="0" y="213.884397" style="fill: #845b53; stroke: #414141; stroke-width: 1.5"/>
    </g>
   </g>
   <g id="PolyCollection_4">
    <defs>
     <path id="m853ee52bd6" d="M 294.389429 -130.540718 
L 291.869946 -130.540718 
L 279.911841 -131.051531 
L 272.923206 -131.562343 
L 279.63994 -132.073155 
L 282.813997 -132.583967 
L 283.877608 -133.094779 
L 284.562827 -133.605592 
L 285.398305 -134.116404 
L 286.259895 -134.627216 
L 287.032901 -135.138028 
L 287.699584 -135.648841 
L 288.256605 -136.159653 
L 288.761293 -136.670465 
L 289.19222 -137.181277 
L 289.591012 -137.69209 
L 289.905685 -138.202902 
L 290.180556 -138.713714 
L 290.458793 -139.224526 
L 290.715548 -139.735338 
L 290.934957 -140.246151 
L 291.13623 -140.756963 
L 291.316569 -141.267775 
L 291.466368 -141.778587 
L 291.613082 -142.2894 
L 291.7385 -142.800212 
L 291.852989 -143.311024 
L 291.955233 -143.821836 
L 292.044189 -144.332649 
L 292.132475 -144.843461 
L 292.210977 -145.354273 
L 292.28779 -145.865085 
L 292.360332 -146.375897 
L 292.423587 -146.88671 
L 292.480832 -147.397522 
L 292.534908 -147.908334 
L 292.583889 -148.419146 
L 292.63553 -148.929959 
L 292.683499 -149.440771 
L 292.724576 -149.951583 
L 292.750703 -150.462395 
L 292.782562 -150.973208 
L 292.81623 -151.48402 
L 292.848411 -151.994832 
L 292.880348 -152.505644 
L 292.90495 -153.016457 
L 292.921322 -153.527269 
L 292.940439 -154.038081 
L 292.962824 -154.548893 
L 292.981303 -155.059705 
L 292.989978 -155.570518 
L 293.004834 -156.08133 
L 293.017926 -156.592142 
L 293.028486 -157.102954 
L 293.043318 -157.613767 
L 293.049355 -158.124579 
L 293.05873 -158.635391 
L 293.065098 -159.146203 
L 293.069686 -159.657016 
L 293.078187 -160.167828 
L 293.083604 -160.67864 
L 293.087725 -161.189452 
L 293.093087 -161.700264 
L 293.096678 -162.211077 
L 293.098555 -162.721889 
L 293.101929 -163.232701 
L 293.104454 -163.743513 
L 293.1061 -164.254326 
L 293.10896 -164.765138 
L 293.111236 -165.27595 
L 293.112591 -165.786762 
L 293.115848 -166.297575 
L 293.118352 -166.808387 
L 293.120636 -167.319199 
L 293.121577 -167.830011 
L 293.123051 -168.340823 
L 293.123827 -168.851636 
L 293.125535 -169.362448 
L 293.12677 -169.87326 
L 293.12759 -170.384072 
L 293.12809 -170.894885 
L 293.128245 -171.405697 
L 293.128286 -171.916509 
L 293.12848 -172.427321 
L 293.128768 -172.938134 
L 293.128805 -173.448946 
L 293.128672 -173.959758 
L 293.128753 -174.47057 
L 293.129158 -174.981382 
L 293.129372 -175.492195 
L 293.12919 -176.003007 
L 293.128969 -176.513819 
L 293.129206 -177.024631 
L 293.129437 -177.535444 
L 293.129562 -178.046256 
L 293.12959 -178.557068 
L 293.129654 -179.06788 
L 293.129684 -179.578693 
L 293.12964 -180.089505 
L 293.129602 -180.600317 
L 293.129675 -181.111129 
L 293.1297 -181.111129 
L 293.1297 -181.111129 
L 293.129773 -180.600317 
L 293.129735 -180.089505 
L 293.129691 -179.578693 
L 293.129721 -179.06788 
L 293.129785 -178.557068 
L 293.129813 -178.046256 
L 293.129938 -177.535444 
L 293.130169 -177.024631 
L 293.130406 -176.513819 
L 293.130185 -176.003007 
L 293.130003 -175.492195 
L 293.130217 -174.981382 
L 293.130622 -174.47057 
L 293.130703 -173.959758 
L 293.13057 -173.448946 
L 293.130607 -172.938134 
L 293.130895 -172.427321 
L 293.131089 -171.916509 
L 293.13113 -171.405697 
L 293.131285 -170.894885 
L 293.131785 -170.384072 
L 293.132605 -169.87326 
L 293.13384 -169.362448 
L 293.135548 -168.851636 
L 293.136324 -168.340823 
L 293.137798 -167.830011 
L 293.138739 -167.319199 
L 293.141023 -166.808387 
L 293.143527 -166.297575 
L 293.146784 -165.786762 
L 293.148139 -165.27595 
L 293.150415 -164.765138 
L 293.153275 -164.254326 
L 293.154921 -163.743513 
L 293.157446 -163.232701 
L 293.16082 -162.721889 
L 293.162697 -162.211077 
L 293.166288 -161.700264 
L 293.17165 -161.189452 
L 293.175771 -160.67864 
L 293.181188 -160.167828 
L 293.189689 -159.657016 
L 293.194277 -159.146203 
L 293.200645 -158.635391 
L 293.21002 -158.124579 
L 293.216057 -157.613767 
L 293.230889 -157.102954 
L 293.241449 -156.592142 
L 293.254541 -156.08133 
L 293.269397 -155.570518 
L 293.278072 -155.059705 
L 293.296551 -154.548893 
L 293.318936 -154.038081 
L 293.338053 -153.527269 
L 293.354425 -153.016457 
L 293.379027 -152.505644 
L 293.410964 -151.994832 
L 293.443145 -151.48402 
L 293.476813 -150.973208 
L 293.508672 -150.462395 
L 293.534799 -149.951583 
L 293.575876 -149.440771 
L 293.623845 -148.929959 
L 293.675486 -148.419146 
L 293.724467 -147.908334 
L 293.778543 -147.397522 
L 293.835788 -146.88671 
L 293.899043 -146.375897 
L 293.971585 -145.865085 
L 294.048398 -145.354273 
L 294.1269 -144.843461 
L 294.215186 -144.332649 
L 294.304142 -143.821836 
L 294.406386 -143.311024 
L 294.520875 -142.800212 
L 294.646293 -142.2894 
L 294.793007 -141.778587 
L 294.942806 -141.267775 
L 295.123145 -140.756963 
L 295.324418 -140.246151 
L 295.543827 -139.735338 
L 295.800582 -139.224526 
L 296.078819 -138.713714 
L 296.35369 -138.202902 
L 296.668363 -137.69209 
L 297.067155 -137.181277 
L 297.498082 -136.670465 
L 298.00277 -136.159653 
L 298.559791 -135.648841 
L 299.226474 -135.138028 
L 299.99948 -134.627216 
L 300.86107 -134.116404 
L 301.696548 -133.605592 
L 302.381767 -133.094779 
L 303.445378 -132.583967 
L 306.619435 -132.073155 
L 313.336169 -131.562343 
L 306.347534 -131.051531 
L 294.389429 -130.540718 
z
" style="stroke: #414141; stroke-width: 1.5"/>
    </defs>
    <g clip-path="url(#p609299bffd)">
     <use xlink:href="#m853ee52bd6" x="0" y="213.884397" style="fill: #845b53; stroke: #414141; stroke-width: 1.5"/>
    </g>
   </g>
   <g id="PolyCollection_5">
    <defs>
     <path id="m9c507aa7f5" d="M 362.879695 -81.899205 
L 362.87968 -81.899205 
L 362.879634 -82.968462 
L 362.879677 -84.03772 
L 362.879671 -85.106978 
L 362.879616 -86.176235 
L 362.87953 -87.245493 
L 362.879371 -88.31475 
L 362.879228 -89.384008 
L 362.879163 -90.453265 
L 362.878531 -91.522523 
L 362.878618 -92.59178 
L 362.878446 -93.661038 
L 362.878013 -94.730295 
L 362.876641 -95.799553 
L 362.874704 -96.868811 
L 362.872711 -97.938068 
L 362.868399 -99.007326 
L 362.862933 -100.076583 
L 362.856396 -101.145841 
L 362.849789 -102.215098 
L 362.839384 -103.284356 
L 362.824322 -104.353613 
L 362.805751 -105.422871 
L 362.781309 -106.492128 
L 362.758234 -107.561386 
L 362.726202 -108.630644 
L 362.685515 -109.699901 
L 362.643449 -110.769159 
L 362.586409 -111.838416 
L 362.51897 -112.907674 
L 362.457456 -113.976931 
L 362.383291 -115.046189 
L 362.288972 -116.115446 
L 362.176917 -117.184704 
L 362.038795 -118.253961 
L 361.890063 -119.323219 
L 361.709744 -120.392477 
L 361.498025 -121.461734 
L 361.269178 -122.530992 
L 361.005943 -123.600249 
L 360.715045 -124.669507 
L 360.402181 -125.738764 
L 360.062723 -126.808022 
L 359.6938 -127.877279 
L 359.330452 -128.946537 
L 358.956276 -130.015794 
L 358.535372 -131.085052 
L 358.182843 -132.15431 
L 358.235571 -133.223567 
L 358.607682 -134.292825 
L 359.093856 -135.362082 
L 359.570984 -136.43134 
L 360.016218 -137.500597 
L 360.399145 -138.569855 
L 360.727959 -139.639112 
L 361.035097 -140.70837 
L 361.287779 -141.777627 
L 361.525066 -142.846885 
L 361.743286 -143.916143 
L 361.917141 -144.9854 
L 362.071381 -146.054658 
L 362.204348 -147.123915 
L 362.314899 -148.193173 
L 362.406159 -149.26243 
L 362.484101 -150.331688 
L 362.548425 -151.400945 
L 362.607246 -152.470203 
L 362.643721 -153.53946 
L 362.674246 -154.608718 
L 362.710064 -155.677976 
L 362.732716 -156.747233 
L 362.755939 -157.816491 
L 362.77178 -158.885748 
L 362.789269 -159.955006 
L 362.802651 -161.024263 
L 362.81573 -162.093521 
L 362.825734 -163.162778 
L 362.834609 -164.232036 
L 362.843096 -165.301293 
L 362.850321 -166.370551 
L 362.855427 -167.439809 
L 362.859393 -168.509066 
L 362.864474 -169.578324 
L 362.866974 -170.647581 
L 362.869218 -171.716839 
L 362.871224 -172.786096 
L 362.873079 -173.855354 
L 362.874577 -174.924611 
L 362.876176 -175.993869 
L 362.87686 -177.063127 
L 362.877678 -178.132384 
L 362.878822 -179.201642 
L 362.879383 -180.270899 
L 362.879509 -181.340157 
L 362.879562 -182.409414 
L 362.87959 -183.478672 
L 362.879619 -184.547929 
L 362.879625 -185.617187 
L 362.87963 -186.686444 
L 362.87968 -187.755702 
L 362.879695 -187.755702 
L 362.879695 -187.755702 
L 362.879745 -186.686444 
L 362.87975 -185.617187 
L 362.879756 -184.547929 
L 362.879785 -183.478672 
L 362.879813 -182.409414 
L 362.879866 -181.340157 
L 362.879992 -180.270899 
L 362.880553 -179.201642 
L 362.881697 -178.132384 
L 362.882515 -177.063127 
L 362.883199 -175.993869 
L 362.884798 -174.924611 
L 362.886296 -173.855354 
L 362.888151 -172.786096 
L 362.890157 -171.716839 
L 362.892401 -170.647581 
L 362.894901 -169.578324 
L 362.899982 -168.509066 
L 362.903948 -167.439809 
L 362.909054 -166.370551 
L 362.916279 -165.301293 
L 362.924766 -164.232036 
L 362.933641 -163.162778 
L 362.943645 -162.093521 
L 362.956724 -161.024263 
L 362.970106 -159.955006 
L 362.987595 -158.885748 
L 363.003436 -157.816491 
L 363.026659 -156.747233 
L 363.049311 -155.677976 
L 363.085129 -154.608718 
L 363.115654 -153.53946 
L 363.152129 -152.470203 
L 363.21095 -151.400945 
L 363.275274 -150.331688 
L 363.353216 -149.26243 
L 363.444476 -148.193173 
L 363.555027 -147.123915 
L 363.687994 -146.054658 
L 363.842234 -144.9854 
L 364.016089 -143.916143 
L 364.234309 -142.846885 
L 364.471596 -141.777627 
L 364.724278 -140.70837 
L 365.031416 -139.639112 
L 365.36023 -138.569855 
L 365.743157 -137.500597 
L 366.188391 -136.43134 
L 366.665519 -135.362082 
L 367.151693 -134.292825 
L 367.523804 -133.223567 
L 367.576532 -132.15431 
L 367.224003 -131.085052 
L 366.803099 -130.015794 
L 366.428923 -128.946537 
L 366.065575 -127.877279 
L 365.696652 -126.808022 
L 365.357194 -125.738764 
L 365.04433 -124.669507 
L 364.753432 -123.600249 
L 364.490197 -122.530992 
L 364.26135 -121.461734 
L 364.049631 -120.392477 
L 363.869312 -119.323219 
L 363.72058 -118.253961 
L 363.582458 -117.184704 
L 363.470403 -116.115446 
L 363.376084 -115.046189 
L 363.301919 -113.976931 
L 363.240405 -112.907674 
L 363.172966 -111.838416 
L 363.115926 -110.769159 
L 363.07386 -109.699901 
L 363.033173 -108.630644 
L 363.001141 -107.561386 
L 362.978066 -106.492128 
L 362.953624 -105.422871 
L 362.935053 -104.353613 
L 362.919991 -103.284356 
L 362.909586 -102.215098 
L 362.902979 -101.145841 
L 362.896442 -100.076583 
L 362.890976 -99.007326 
L 362.886664 -97.938068 
L 362.884671 -96.868811 
L 362.882734 -95.799553 
L 362.881362 -94.730295 
L 362.880929 -93.661038 
L 362.880757 -92.59178 
L 362.880844 -91.522523 
L 362.880212 -90.453265 
L 362.880147 -89.384008 
L 362.880004 -88.31475 
L 362.879845 -87.245493 
L 362.879759 -86.176235 
L 362.879704 -85.106978 
L 362.879698 -84.03772 
L 362.879741 -82.968462 
L 362.879695 -81.899205 
z
" style="stroke: #414141; stroke-width: 1.5"/>
    </defs>
    <g clip-path="url(#p609299bffd)">
     <use xlink:href="#m9c507aa7f5" x="0" y="213.884397" style="fill: #845b53; stroke: #414141; stroke-width: 1.5"/>
    </g>
   </g>
   <g id="PolyCollection_6">
    <defs>
     <path id="mcdfc86c7d7" d="M 434.520946 -130.507253 
L 430.738429 -130.507253 
L 411.361132 -131.080965 
L 404.729687 -131.654676 
L 415.823573 -132.228388 
L 422.178714 -132.8021 
L 425.177172 -133.375811 
L 426.644186 -133.949523 
L 427.687714 -134.523234 
L 428.449076 -135.096946 
L 429.042836 -135.670658 
L 429.506825 -136.244369 
L 429.869724 -136.818081 
L 430.168732 -137.391793 
L 430.408679 -137.965504 
L 430.625856 -138.539216 
L 430.820901 -139.112927 
L 430.993968 -139.686639 
L 431.114914 -140.260351 
L 431.236387 -140.834062 
L 431.365179 -141.407774 
L 431.48383 -141.981486 
L 431.584054 -142.555197 
L 431.663143 -143.128909 
L 431.742418 -143.70262 
L 431.814645 -144.276332 
L 431.878887 -144.850044 
L 431.94933 -145.423755 
L 432.000692 -145.997467 
L 432.053771 -146.571179 
L 432.099164 -147.14489 
L 432.146145 -147.718602 
L 432.183801 -148.292313 
L 432.215945 -148.866025 
L 432.255849 -149.439737 
L 432.282406 -150.013448 
L 432.312145 -150.58716 
L 432.33731 -151.160872 
L 432.368209 -151.734583 
L 432.390717 -152.308295 
L 432.403376 -152.882006 
L 432.414469 -153.455718 
L 432.427406 -154.02943 
L 432.446876 -154.603141 
L 432.466157 -155.176853 
L 432.477614 -155.750565 
L 432.485278 -156.324276 
L 432.496598 -156.897988 
L 432.511062 -157.471699 
L 432.517322 -158.045411 
L 432.523186 -158.619123 
L 432.533425 -159.192834 
L 432.542969 -159.766546 
L 432.547975 -160.340258 
L 432.555581 -160.913969 
L 432.560791 -161.487681 
L 432.568601 -162.061392 
L 432.575424 -162.635104 
L 432.577047 -163.208816 
L 432.580875 -163.782527 
L 432.588775 -164.356239 
L 432.590831 -164.929951 
L 432.596132 -165.503662 
L 432.599677 -166.077374 
L 432.602411 -166.651085 
L 432.605603 -167.224797 
L 432.606856 -167.798509 
L 432.608324 -168.37222 
L 432.612929 -168.945932 
L 432.614825 -169.519643 
L 432.615785 -170.093355 
L 432.617194 -170.667067 
L 432.618585 -171.240778 
L 432.619345 -171.81449 
L 432.620869 -172.388202 
L 432.621543 -172.961913 
L 432.622239 -173.535625 
L 432.623974 -174.109336 
L 432.624398 -174.683048 
L 432.624815 -175.25676 
L 432.625996 -175.830471 
L 432.626979 -176.404183 
L 432.626809 -176.977895 
L 432.62689 -177.551606 
L 432.627682 -178.125318 
L 432.628441 -178.699029 
L 432.628959 -179.272741 
L 432.629209 -179.846453 
L 432.629495 -180.420164 
L 432.629551 -180.993876 
L 432.629465 -181.567588 
L 432.629549 -182.141299 
L 432.629593 -182.715011 
L 432.629599 -183.288722 
L 432.629572 -183.862434 
L 432.629623 -184.436146 
L 432.62964 -185.009857 
L 432.629609 -185.583569 
L 432.629645 -186.157281 
L 432.629603 -186.730992 
L 432.629675 -187.304704 
L 432.6297 -187.304704 
L 432.6297 -187.304704 
L 432.629772 -186.730992 
L 432.62973 -186.157281 
L 432.629766 -185.583569 
L 432.629735 -185.009857 
L 432.629752 -184.436146 
L 432.629803 -183.862434 
L 432.629776 -183.288722 
L 432.629782 -182.715011 
L 432.629826 -182.141299 
L 432.62991 -181.567588 
L 432.629824 -180.993876 
L 432.62988 -180.420164 
L 432.630166 -179.846453 
L 432.630416 -179.272741 
L 432.630934 -178.699029 
L 432.631693 -178.125318 
L 432.632485 -177.551606 
L 432.632566 -176.977895 
L 432.632396 -176.404183 
L 432.633379 -175.830471 
L 432.63456 -175.25676 
L 432.634977 -174.683048 
L 432.635401 -174.109336 
L 432.637136 -173.535625 
L 432.637832 -172.961913 
L 432.638506 -172.388202 
L 432.64003 -171.81449 
L 432.64079 -171.240778 
L 432.642181 -170.667067 
L 432.64359 -170.093355 
L 432.64455 -169.519643 
L 432.646446 -168.945932 
L 432.651051 -168.37222 
L 432.652519 -167.798509 
L 432.653772 -167.224797 
L 432.656964 -166.651085 
L 432.659698 -166.077374 
L 432.663243 -165.503662 
L 432.668544 -164.929951 
L 432.6706 -164.356239 
L 432.6785 -163.782527 
L 432.682328 -163.208816 
L 432.683951 -162.635104 
L 432.690774 -162.061392 
L 432.698584 -161.487681 
L 432.703794 -160.913969 
L 432.7114 -160.340258 
L 432.716406 -159.766546 
L 432.72595 -159.192834 
L 432.736189 -158.619123 
L 432.742053 -158.045411 
L 432.748313 -157.471699 
L 432.762777 -156.897988 
L 432.774097 -156.324276 
L 432.781761 -155.750565 
L 432.793218 -155.176853 
L 432.812499 -154.603141 
L 432.831969 -154.02943 
L 432.844906 -153.455718 
L 432.855999 -152.882006 
L 432.868658 -152.308295 
L 432.891166 -151.734583 
L 432.922065 -151.160872 
L 432.94723 -150.58716 
L 432.976969 -150.013448 
L 433.003526 -149.439737 
L 433.04343 -148.866025 
L 433.075574 -148.292313 
L 433.11323 -147.718602 
L 433.160211 -147.14489 
L 433.205604 -146.571179 
L 433.258683 -145.997467 
L 433.310045 -145.423755 
L 433.380488 -144.850044 
L 433.44473 -144.276332 
L 433.516957 -143.70262 
L 433.596232 -143.128909 
L 433.675321 -142.555197 
L 433.775545 -141.981486 
L 433.894196 -141.407774 
L 434.022988 -140.834062 
L 434.144461 -140.260351 
L 434.265407 -139.686639 
L 434.438474 -139.112927 
L 434.633519 -138.539216 
L 434.850696 -137.965504 
L 435.090643 -137.391793 
L 435.389651 -136.818081 
L 435.75255 -136.244369 
L 436.216539 -135.670658 
L 436.810299 -135.096946 
L 437.571661 -134.523234 
L 438.615189 -133.949523 
L 440.082203 -133.375811 
L 443.080661 -132.8021 
L 449.435802 -132.228388 
L 460.529688 -131.654676 
L 453.898243 -131.080965 
L 434.520946 -130.507253 
z
" style="stroke: #414141; stroke-width: 1.5"/>
    </defs>
    <g clip-path="url(#p609299bffd)">
     <use xlink:href="#mcdfc86c7d7" x="0" y="213.884397" style="fill: #845b53; stroke: #414141; stroke-width: 1.5"/>
    </g>
   </g>
   <g id="PolyCollection_7">
    <defs>
     <path id="mfa028bda56" d="M 502.379697 -51.017124 
L 502.379678 -51.017124 
L 502.379614 -52.514645 
L 502.379569 -54.012165 
L 502.379414 -55.509686 
L 502.379532 -57.007207 
L 502.379442 -58.504727 
L 502.379524 -60.002248 
L 502.379285 -61.499769 
L 502.379132 -62.997289 
L 502.379144 -64.49481 
L 502.378935 -65.992331 
L 502.378795 -67.489851 
L 502.378765 -68.987372 
L 502.37822 -70.484893 
L 502.377717 -71.982413 
L 502.376624 -73.479934 
L 502.376053 -74.977455 
L 502.375909 -76.474975 
L 502.373671 -77.972496 
L 502.37208 -79.470017 
L 502.371781 -80.967537 
L 502.370542 -82.465058 
L 502.36829 -83.962578 
L 502.366191 -85.460099 
L 502.36429 -86.95762 
L 502.361545 -88.45514 
L 502.357628 -89.952661 
L 502.353093 -91.450182 
L 502.348234 -92.947702 
L 502.337 -94.445223 
L 502.326684 -95.942744 
L 502.313183 -97.440264 
L 502.292126 -98.937785 
L 502.26052 -100.435306 
L 502.227155 -101.932826 
L 502.184887 -103.430347 
L 502.137462 -104.927868 
L 502.08555 -106.425388 
L 502.028897 -107.922909 
L 501.953172 -109.42043 
L 501.876097 -110.91795 
L 501.770261 -112.415471 
L 501.652818 -113.912992 
L 501.524359 -115.410512 
L 501.339539 -116.908033 
L 501.16202 -118.405554 
L 500.937857 -119.903074 
L 500.678804 -121.400595 
L 500.391957 -122.898116 
L 500.101035 -124.395636 
L 499.793579 -125.893157 
L 499.445977 -127.390678 
L 499.08916 -128.888198 
L 498.77613 -130.385719 
L 498.569242 -131.88324 
L 498.746288 -133.38076 
L 499.255764 -134.878281 
L 499.742736 -136.375802 
L 500.199997 -137.873322 
L 500.577955 -139.370843 
L 500.866339 -140.868364 
L 501.111964 -142.365884 
L 501.337305 -143.863405 
L 501.522188 -145.360926 
L 501.655694 -146.858446 
L 501.758933 -148.355967 
L 501.849525 -149.853488 
L 501.92656 -151.351008 
L 502.001003 -152.848529 
L 502.072407 -154.34605 
L 502.144148 -155.84357 
L 502.196547 -157.341091 
L 502.225837 -158.838612 
L 502.255804 -160.336132 
L 502.278394 -161.833653 
L 502.297099 -163.331174 
L 502.31251 -164.828694 
L 502.324747 -166.326215 
L 502.330657 -167.823736 
L 502.340724 -169.321256 
L 502.348532 -170.818777 
L 502.352151 -172.316298 
L 502.359129 -173.813818 
L 502.362461 -175.311339 
L 502.366425 -176.808859 
L 502.369626 -178.30638 
L 502.372694 -179.803901 
L 502.374187 -181.301421 
L 502.375224 -182.798942 
L 502.376922 -184.296463 
L 502.377851 -185.793983 
L 502.378236 -187.291504 
L 502.378599 -188.789025 
L 502.378917 -190.286545 
L 502.379292 -191.784066 
L 502.379545 -193.281587 
L 502.379604 -194.779107 
L 502.37963 -196.276628 
L 502.37955 -197.774149 
L 502.379672 -199.271669 
L 502.379703 -199.271669 
L 502.379703 -199.271669 
L 502.379825 -197.774149 
L 502.379745 -196.276628 
L 502.379771 -194.779107 
L 502.37983 -193.281587 
L 502.380083 -191.784066 
L 502.380458 -190.286545 
L 502.380776 -188.789025 
L 502.381139 -187.291504 
L 502.381524 -185.793983 
L 502.382453 -184.296463 
L 502.384151 -182.798942 
L 502.385188 -181.301421 
L 502.386681 -179.803901 
L 502.389749 -178.30638 
L 502.39295 -176.808859 
L 502.396914 -175.311339 
L 502.400246 -173.813818 
L 502.407224 -172.316298 
L 502.410843 -170.818777 
L 502.418651 -169.321256 
L 502.428718 -167.823736 
L 502.434628 -166.326215 
L 502.446865 -164.828694 
L 502.462276 -163.331174 
L 502.480981 -161.833653 
L 502.503571 -160.336132 
L 502.533538 -158.838612 
L 502.562828 -157.341091 
L 502.615227 -155.84357 
L 502.686968 -154.34605 
L 502.758372 -152.848529 
L 502.832815 -151.351008 
L 502.90985 -149.853488 
L 503.000442 -148.355967 
L 503.103681 -146.858446 
L 503.237187 -145.360926 
L 503.42207 -143.863405 
L 503.647411 -142.365884 
L 503.893036 -140.868364 
L 504.18142 -139.370843 
L 504.559378 -137.873322 
L 505.016639 -136.375802 
L 505.503611 -134.878281 
L 506.013087 -133.38076 
L 506.190133 -131.88324 
L 505.983245 -130.385719 
L 505.670215 -128.888198 
L 505.313398 -127.390678 
L 504.965796 -125.893157 
L 504.65834 -124.395636 
L 504.367418 -122.898116 
L 504.080571 -121.400595 
L 503.821518 -119.903074 
L 503.597355 -118.405554 
L 503.419836 -116.908033 
L 503.235016 -115.410512 
L 503.106557 -113.912992 
L 502.989114 -112.415471 
L 502.883278 -110.91795 
L 502.806203 -109.42043 
L 502.730478 -107.922909 
L 502.673825 -106.425388 
L 502.621913 -104.927868 
L 502.574488 -103.430347 
L 502.53222 -101.932826 
L 502.498855 -100.435306 
L 502.467249 -98.937785 
L 502.446192 -97.440264 
L 502.432691 -95.942744 
L 502.422375 -94.445223 
L 502.411141 -92.947702 
L 502.406282 -91.450182 
L 502.401747 -89.952661 
L 502.39783 -88.45514 
L 502.395085 -86.95762 
L 502.393184 -85.460099 
L 502.391085 -83.962578 
L 502.388833 -82.465058 
L 502.387594 -80.967537 
L 502.387295 -79.470017 
L 502.385704 -77.972496 
L 502.383466 -76.474975 
L 502.383322 -74.977455 
L 502.382751 -73.479934 
L 502.381658 -71.982413 
L 502.381155 -70.484893 
L 502.38061 -68.987372 
L 502.38058 -67.489851 
L 502.38044 -65.992331 
L 502.380231 -64.49481 
L 502.380243 -62.997289 
L 502.38009 -61.499769 
L 502.379851 -60.002248 
L 502.379933 -58.504727 
L 502.379843 -57.007207 
L 502.379961 -55.509686 
L 502.379806 -54.012165 
L 502.379761 -52.514645 
L 502.379697 -51.017124 
z
" style="stroke: #414141; stroke-width: 1.5"/>
    </defs>
    <g clip-path="url(#p609299bffd)">
     <use xlink:href="#mfa028bda56" x="0" y="213.884397" style="fill: #845b53; stroke: #414141; stroke-width: 1.5"/>
    </g>
   </g>
   <g id="PolyCollection_8">
    <defs>
     <path id="m9fc6a0712c" d="M 573.836594 -130.277015 
L 570.422781 -130.277015 
L 555.218679 -130.966435 
L 544.458467 -131.655856 
L 554.102722 -132.345277 
L 563.029735 -133.034698 
L 566.893166 -133.724119 
L 568.102234 -134.413539 
L 568.813918 -135.10296 
L 569.339078 -135.792381 
L 569.755135 -136.481802 
L 570.083332 -137.171222 
L 570.306099 -137.860643 
L 570.489045 -138.550064 
L 570.647134 -139.239485 
L 570.787907 -139.928905 
L 570.900674 -140.618326 
L 570.995995 -141.307747 
L 571.10146 -141.997168 
L 571.196822 -142.686589 
L 571.272784 -143.376009 
L 571.343116 -144.06543 
L 571.399206 -144.754851 
L 571.4451 -145.444272 
L 571.492297 -146.133692 
L 571.525961 -146.823113 
L 571.563992 -147.512534 
L 571.596404 -148.201955 
L 571.631184 -148.891376 
L 571.664121 -149.580796 
L 571.686706 -150.270217 
L 571.717835 -150.959638 
L 571.743139 -151.649059 
L 571.77491 -152.338479 
L 571.803034 -153.0279 
L 571.826937 -153.717321 
L 571.858702 -154.406742 
L 571.88903 -155.096163 
L 571.917704 -155.785583 
L 571.942734 -156.475004 
L 571.958737 -157.164425 
L 571.967841 -157.853846 
L 571.978141 -158.543266 
L 571.991067 -159.232687 
L 572.0066 -159.922108 
L 572.017766 -160.611529 
L 572.02506 -161.30095 
L 572.034611 -161.99037 
L 572.043385 -162.679791 
L 572.050453 -163.369212 
L 572.056724 -164.058633 
L 572.064192 -164.748053 
L 572.06962 -165.437474 
L 572.075998 -166.126895 
L 572.079043 -166.816316 
L 572.078872 -167.505737 
L 572.082433 -168.195157 
L 572.087212 -168.884578 
L 572.094154 -169.573999 
L 572.099144 -170.26342 
L 572.099138 -170.95284 
L 572.099321 -171.642261 
L 572.101531 -172.331682 
L 572.106052 -173.021103 
L 572.110091 -173.710523 
L 572.111176 -174.399944 
L 572.111088 -175.089365 
L 572.114039 -175.778786 
L 572.115978 -176.468207 
L 572.117373 -177.157627 
L 572.118187 -177.847048 
L 572.120489 -178.536469 
L 572.121744 -179.22589 
L 572.123264 -179.91531 
L 572.123681 -180.604731 
L 572.124154 -181.294152 
L 572.12487 -181.983573 
L 572.12472 -182.672994 
L 572.125896 -183.362414 
L 572.126635 -184.051835 
L 572.127665 -184.741256 
L 572.127704 -185.430677 
L 572.127948 -186.120097 
L 572.128252 -186.809518 
L 572.128225 -187.498939 
L 572.128366 -188.18836 
L 572.128577 -188.877781 
L 572.129012 -189.567201 
L 572.128905 -190.256622 
L 572.128816 -190.946043 
L 572.129347 -191.635464 
L 572.129505 -192.324884 
L 572.129528 -193.014305 
L 572.129592 -193.703726 
L 572.129558 -194.393147 
L 572.12962 -195.082568 
L 572.129684 -195.771988 
L 572.129665 -196.461409 
L 572.129493 -197.15083 
L 572.129488 -197.840251 
L 572.129664 -198.529671 
L 572.129711 -198.529671 
L 572.129711 -198.529671 
L 572.129887 -197.840251 
L 572.129882 -197.15083 
L 572.12971 -196.461409 
L 572.129691 -195.771988 
L 572.129755 -195.082568 
L 572.129817 -194.393147 
L 572.129783 -193.703726 
L 572.129847 -193.014305 
L 572.12987 -192.324884 
L 572.130028 -191.635464 
L 572.130559 -190.946043 
L 572.13047 -190.256622 
L 572.130363 -189.567201 
L 572.130798 -188.877781 
L 572.131009 -188.18836 
L 572.13115 -187.498939 
L 572.131123 -186.809518 
L 572.131427 -186.120097 
L 572.131671 -185.430677 
L 572.13171 -184.741256 
L 572.13274 -184.051835 
L 572.133479 -183.362414 
L 572.134655 -182.672994 
L 572.134505 -181.983573 
L 572.135221 -181.294152 
L 572.135694 -180.604731 
L 572.136111 -179.91531 
L 572.137631 -179.22589 
L 572.138886 -178.536469 
L 572.141188 -177.847048 
L 572.142002 -177.157627 
L 572.143397 -176.468207 
L 572.145336 -175.778786 
L 572.148287 -175.089365 
L 572.148199 -174.399944 
L 572.149284 -173.710523 
L 572.153323 -173.021103 
L 572.157844 -172.331682 
L 572.160054 -171.642261 
L 572.160237 -170.95284 
L 572.160231 -170.26342 
L 572.165221 -169.573999 
L 572.172163 -168.884578 
L 572.176942 -168.195157 
L 572.180503 -167.505737 
L 572.180332 -166.816316 
L 572.183377 -166.126895 
L 572.189755 -165.437474 
L 572.195183 -164.748053 
L 572.202651 -164.058633 
L 572.208922 -163.369212 
L 572.21599 -162.679791 
L 572.224764 -161.99037 
L 572.234315 -161.30095 
L 572.241609 -160.611529 
L 572.252775 -159.922108 
L 572.268308 -159.232687 
L 572.281234 -158.543266 
L 572.291534 -157.853846 
L 572.300638 -157.164425 
L 572.316641 -156.475004 
L 572.341671 -155.785583 
L 572.370345 -155.096163 
L 572.400673 -154.406742 
L 572.432438 -153.717321 
L 572.456341 -153.0279 
L 572.484465 -152.338479 
L 572.516236 -151.649059 
L 572.54154 -150.959638 
L 572.572669 -150.270217 
L 572.595254 -149.580796 
L 572.628191 -148.891376 
L 572.662971 -148.201955 
L 572.695383 -147.512534 
L 572.733414 -146.823113 
L 572.767078 -146.133692 
L 572.814275 -145.444272 
L 572.860169 -144.754851 
L 572.916259 -144.06543 
L 572.986591 -143.376009 
L 573.062553 -142.686589 
L 573.157915 -141.997168 
L 573.26338 -141.307747 
L 573.358701 -140.618326 
L 573.471468 -139.928905 
L 573.612241 -139.239485 
L 573.77033 -138.550064 
L 573.953276 -137.860643 
L 574.176043 -137.171222 
L 574.50424 -136.481802 
L 574.920297 -135.792381 
L 575.445457 -135.10296 
L 576.157141 -134.413539 
L 577.366209 -133.724119 
L 581.22964 -133.034698 
L 590.156653 -132.345277 
L 599.800908 -131.655856 
L 589.040696 -130.966435 
L 573.836594 -130.277015 
z
" style="stroke: #414141; stroke-width: 1.5"/>
    </defs>
    <g clip-path="url(#p609299bffd)">
     <use xlink:href="#m9fc6a0712c" x="0" y="213.884397" style="fill: #845b53; stroke: #414141; stroke-width: 1.5"/>
    </g>
   </g>
   <g id="matplotlib.axis_1">
    <g id="xtick_1">
     <g id="line2d_1">
      <defs>
       <path id="m45dbad2702" d="M 0 0 
L 0 3.5 
" style="stroke: #000000; stroke-width: 0.8"/>
      </defs>
      <g>
       <use xlink:href="#m45dbad2702" x="83.879687" y="170.28" style="stroke: #000000; stroke-width: 0.8"/>
      </g>
     </g>
     <g id="text_1">
      <!-- dense_1 -->
      <g transform="translate(67.192077 204.642471)rotate(-30)scale(0.1 -0.1)">
       <defs>
        <path id="DejaVuSans-64" d="M 2906 2969 
L 2906 4863 
L 3481 4863 
L 3481 0 
L 2906 0 
L 2906 525 
Q 2725 213 2448 61 
Q 2172 -91 1784 -91 
Q 1150 -91 751 415 
Q 353 922 353 1747 
Q 353 2572 751 3078 
Q 1150 3584 1784 3584 
Q 2172 3584 2448 3432 
Q 2725 3281 2906 2969 
z
M 947 1747 
Q 947 1113 1208 752 
Q 1469 391 1925 391 
Q 2381 391 2643 752 
Q 2906 1113 2906 1747 
Q 2906 2381 2643 2742 
Q 2381 3103 1925 3103 
Q 1469 3103 1208 2742 
Q 947 2381 947 1747 
z
" transform="scale(0.015625)"/>
        <path id="DejaVuSans-65" d="M 3597 1894 
L 3597 1613 
L 953 1613 
Q 991 1019 1311 708 
Q 1631 397 2203 397 
Q 2534 397 2845 478 
Q 3156 559 3463 722 
L 3463 178 
Q 3153 47 2828 -22 
Q 2503 -91 2169 -91 
Q 1331 -91 842 396 
Q 353 884 353 1716 
Q 353 2575 817 3079 
Q 1281 3584 2069 3584 
Q 2775 3584 3186 3129 
Q 3597 2675 3597 1894 
z
M 3022 2063 
Q 3016 2534 2758 2815 
Q 2500 3097 2075 3097 
Q 1594 3097 1305 2825 
Q 1016 2553 972 2059 
L 3022 2063 
z
" transform="scale(0.015625)"/>
        <path id="DejaVuSans-6e" d="M 3513 2113 
L 3513 0 
L 2938 0 
L 2938 2094 
Q 2938 2591 2744 2837 
Q 2550 3084 2163 3084 
Q 1697 3084 1428 2787 
Q 1159 2491 1159 1978 
L 1159 0 
L 581 0 
L 581 3500 
L 1159 3500 
L 1159 2956 
Q 1366 3272 1645 3428 
Q 1925 3584 2291 3584 
Q 2894 3584 3203 3211 
Q 3513 2838 3513 2113 
z
" transform="scale(0.015625)"/>
        <path id="DejaVuSans-73" d="M 2834 3397 
L 2834 2853 
Q 2591 2978 2328 3040 
Q 2066 3103 1784 3103 
Q 1356 3103 1142 2972 
Q 928 2841 928 2578 
Q 928 2378 1081 2264 
Q 1234 2150 1697 2047 
L 1894 2003 
Q 2506 1872 2764 1633 
Q 3022 1394 3022 966 
Q 3022 478 2636 193 
Q 2250 -91 1575 -91 
Q 1294 -91 989 -36 
Q 684 19 347 128 
L 347 722 
Q 666 556 975 473 
Q 1284 391 1588 391 
Q 1994 391 2212 530 
Q 2431 669 2431 922 
Q 2431 1156 2273 1281 
Q 2116 1406 1581 1522 
L 1381 1569 
Q 847 1681 609 1914 
Q 372 2147 372 2553 
Q 372 3047 722 3315 
Q 1072 3584 1716 3584 
Q 2034 3584 2315 3537 
Q 2597 3491 2834 3397 
z
" transform="scale(0.015625)"/>
        <path id="DejaVuSans-5f" d="M 3263 -1063 
L 3263 -1509 
L -63 -1509 
L -63 -1063 
L 3263 -1063 
z
" transform="scale(0.015625)"/>
        <path id="DejaVuSans-31" d="M 794 531 
L 1825 531 
L 1825 4091 
L 703 3866 
L 703 4441 
L 1819 4666 
L 2450 4666 
L 2450 531 
L 3481 531 
L 3481 0 
L 794 0 
L 794 531 
z
" transform="scale(0.015625)"/>
       </defs>
       <use xlink:href="#DejaVuSans-64"/>
       <use xlink:href="#DejaVuSans-65" x="63.476562"/>
       <use xlink:href="#DejaVuSans-6e" x="125"/>
       <use xlink:href="#DejaVuSans-73" x="188.378906"/>
       <use xlink:href="#DejaVuSans-65" x="240.478516"/>
       <use xlink:href="#DejaVuSans-5f" x="302.001953"/>
       <use xlink:href="#DejaVuSans-31" x="352.001953"/>
      </g>
     </g>
    </g>
    <g id="xtick_2">
     <g id="line2d_2">
      <g>
       <use xlink:href="#m45dbad2702" x="153.629687" y="170.28" style="stroke: #000000; stroke-width: 0.8"/>
      </g>
     </g>
     <g id="text_2">
      <!-- swish_2 -->
      <g transform="translate(138.019872 203.39794)rotate(-30)scale(0.1 -0.1)">
       <defs>
        <path id="DejaVuSans-77" d="M 269 3500 
L 844 3500 
L 1563 769 
L 2278 3500 
L 2956 3500 
L 3675 769 
L 4391 3500 
L 4966 3500 
L 4050 0 
L 3372 0 
L 2619 2869 
L 1863 0 
L 1184 0 
L 269 3500 
z
" transform="scale(0.015625)"/>
        <path id="DejaVuSans-69" d="M 603 3500 
L 1178 3500 
L 1178 0 
L 603 0 
L 603 3500 
z
M 603 4863 
L 1178 4863 
L 1178 4134 
L 603 4134 
L 603 4863 
z
" transform="scale(0.015625)"/>
        <path id="DejaVuSans-68" d="M 3513 2113 
L 3513 0 
L 2938 0 
L 2938 2094 
Q 2938 2591 2744 2837 
Q 2550 3084 2163 3084 
Q 1697 3084 1428 2787 
Q 1159 2491 1159 1978 
L 1159 0 
L 581 0 
L 581 4863 
L 1159 4863 
L 1159 2956 
Q 1366 3272 1645 3428 
Q 1925 3584 2291 3584 
Q 2894 3584 3203 3211 
Q 3513 2838 3513 2113 
z
" transform="scale(0.015625)"/>
        <path id="DejaVuSans-32" d="M 1228 531 
L 3431 531 
L 3431 0 
L 469 0 
L 469 531 
Q 828 903 1448 1529 
Q 2069 2156 2228 2338 
Q 2531 2678 2651 2914 
Q 2772 3150 2772 3378 
Q 2772 3750 2511 3984 
Q 2250 4219 1831 4219 
Q 1534 4219 1204 4116 
Q 875 4013 500 3803 
L 500 4441 
Q 881 4594 1212 4672 
Q 1544 4750 1819 4750 
Q 2544 4750 2975 4387 
Q 3406 4025 3406 3419 
Q 3406 3131 3298 2873 
Q 3191 2616 2906 2266 
Q 2828 2175 2409 1742 
Q 1991 1309 1228 531 
z
" transform="scale(0.015625)"/>
       </defs>
       <use xlink:href="#DejaVuSans-73"/>
       <use xlink:href="#DejaVuSans-77" x="52.099609"/>
       <use xlink:href="#DejaVuSans-69" x="133.886719"/>
       <use xlink:href="#DejaVuSans-73" x="161.669922"/>
       <use xlink:href="#DejaVuSans-68" x="213.769531"/>
       <use xlink:href="#DejaVuSans-5f" x="277.148438"/>
       <use xlink:href="#DejaVuSans-32" x="327.148438"/>
      </g>
     </g>
    </g>
    <g id="xtick_3">
     <g id="line2d_3">
      <g>
       <use xlink:href="#m45dbad2702" x="223.379687" y="170.28" style="stroke: #000000; stroke-width: 0.8"/>
      </g>
     </g>
     <g id="text_3">
      <!-- dense_3 -->
      <g transform="translate(206.692077 204.642471)rotate(-30)scale(0.1 -0.1)">
       <defs>
        <path id="DejaVuSans-33" d="M 2597 2516 
Q 3050 2419 3304 2112 
Q 3559 1806 3559 1356 
Q 3559 666 3084 287 
Q 2609 -91 1734 -91 
Q 1441 -91 1130 -33 
Q 819 25 488 141 
L 488 750 
Q 750 597 1062 519 
Q 1375 441 1716 441 
Q 2309 441 2620 675 
Q 2931 909 2931 1356 
Q 2931 1769 2642 2001 
Q 2353 2234 1838 2234 
L 1294 2234 
L 1294 2753 
L 1863 2753 
Q 2328 2753 2575 2939 
Q 2822 3125 2822 3475 
Q 2822 3834 2567 4026 
Q 2313 4219 1838 4219 
Q 1578 4219 1281 4162 
Q 984 4106 628 3988 
L 628 4550 
Q 988 4650 1302 4700 
Q 1616 4750 1894 4750 
Q 2613 4750 3031 4423 
Q 3450 4097 3450 3541 
Q 3450 3153 3228 2886 
Q 3006 2619 2597 2516 
z
" transform="scale(0.015625)"/>
       </defs>
       <use xlink:href="#DejaVuSans-64"/>
       <use xlink:href="#DejaVuSans-65" x="63.476562"/>
       <use xlink:href="#DejaVuSans-6e" x="125"/>
       <use xlink:href="#DejaVuSans-73" x="188.378906"/>
       <use xlink:href="#DejaVuSans-65" x="240.478516"/>
       <use xlink:href="#DejaVuSans-5f" x="302.001953"/>
       <use xlink:href="#DejaVuSans-33" x="352.001953"/>
      </g>
     </g>
    </g>
    <g id="xtick_4">
     <g id="line2d_4">
      <g>
       <use xlink:href="#m45dbad2702" x="293.129687" y="170.28" style="stroke: #000000; stroke-width: 0.8"/>
      </g>
     </g>
     <g id="text_4">
      <!-- swish_4 -->
      <g transform="translate(277.519872 203.39794)rotate(-30)scale(0.1 -0.1)">
       <defs>
        <path id="DejaVuSans-34" d="M 2419 4116 
L 825 1625 
L 2419 1625 
L 2419 4116 
z
M 2253 4666 
L 3047 4666 
L 3047 1625 
L 3713 1625 
L 3713 1100 
L 3047 1100 
L 3047 0 
L 2419 0 
L 2419 1100 
L 313 1100 
L 313 1709 
L 2253 4666 
z
" transform="scale(0.015625)"/>
       </defs>
       <use xlink:href="#DejaVuSans-73"/>
       <use xlink:href="#DejaVuSans-77" x="52.099609"/>
       <use xlink:href="#DejaVuSans-69" x="133.886719"/>
       <use xlink:href="#DejaVuSans-73" x="161.669922"/>
       <use xlink:href="#DejaVuSans-68" x="213.769531"/>
       <use xlink:href="#DejaVuSans-5f" x="277.148438"/>
       <use xlink:href="#DejaVuSans-34" x="327.148438"/>
      </g>
     </g>
    </g>
    <g id="xtick_5">
     <g id="line2d_5">
      <g>
       <use xlink:href="#m45dbad2702" x="362.879687" y="170.28" style="stroke: #000000; stroke-width: 0.8"/>
      </g>
     </g>
     <g id="text_5">
      <!-- dense_5 -->
      <g transform="translate(346.192077 204.642471)rotate(-30)scale(0.1 -0.1)">
       <defs>
        <path id="DejaVuSans-35" d="M 691 4666 
L 3169 4666 
L 3169 4134 
L 1269 4134 
L 1269 2991 
Q 1406 3038 1543 3061 
Q 1681 3084 1819 3084 
Q 2600 3084 3056 2656 
Q 3513 2228 3513 1497 
Q 3513 744 3044 326 
Q 2575 -91 1722 -91 
Q 1428 -91 1123 -41 
Q 819 9 494 109 
L 494 744 
Q 775 591 1075 516 
Q 1375 441 1709 441 
Q 2250 441 2565 725 
Q 2881 1009 2881 1497 
Q 2881 1984 2565 2268 
Q 2250 2553 1709 2553 
Q 1456 2553 1204 2497 
Q 953 2441 691 2322 
L 691 4666 
z
" transform="scale(0.015625)"/>
       </defs>
       <use xlink:href="#DejaVuSans-64"/>
       <use xlink:href="#DejaVuSans-65" x="63.476562"/>
       <use xlink:href="#DejaVuSans-6e" x="125"/>
       <use xlink:href="#DejaVuSans-73" x="188.378906"/>
       <use xlink:href="#DejaVuSans-65" x="240.478516"/>
       <use xlink:href="#DejaVuSans-5f" x="302.001953"/>
       <use xlink:href="#DejaVuSans-35" x="352.001953"/>
      </g>
     </g>
    </g>
    <g id="xtick_6">
     <g id="line2d_6">
      <g>
       <use xlink:href="#m45dbad2702" x="432.629687" y="170.28" style="stroke: #000000; stroke-width: 0.8"/>
      </g>
     </g>
     <g id="text_6">
      <!-- swish_6 -->
      <g transform="translate(417.019872 203.39794)rotate(-30)scale(0.1 -0.1)">
       <defs>
        <path id="DejaVuSans-36" d="M 2113 2584 
Q 1688 2584 1439 2293 
Q 1191 2003 1191 1497 
Q 1191 994 1439 701 
Q 1688 409 2113 409 
Q 2538 409 2786 701 
Q 3034 994 3034 1497 
Q 3034 2003 2786 2293 
Q 2538 2584 2113 2584 
z
M 3366 4563 
L 3366 3988 
Q 3128 4100 2886 4159 
Q 2644 4219 2406 4219 
Q 1781 4219 1451 3797 
Q 1122 3375 1075 2522 
Q 1259 2794 1537 2939 
Q 1816 3084 2150 3084 
Q 2853 3084 3261 2657 
Q 3669 2231 3669 1497 
Q 3669 778 3244 343 
Q 2819 -91 2113 -91 
Q 1303 -91 875 529 
Q 447 1150 447 2328 
Q 447 3434 972 4092 
Q 1497 4750 2381 4750 
Q 2619 4750 2861 4703 
Q 3103 4656 3366 4563 
z
" transform="scale(0.015625)"/>
       </defs>
       <use xlink:href="#DejaVuSans-73"/>
       <use xlink:href="#DejaVuSans-77" x="52.099609"/>
       <use xlink:href="#DejaVuSans-69" x="133.886719"/>
       <use xlink:href="#DejaVuSans-73" x="161.669922"/>
       <use xlink:href="#DejaVuSans-68" x="213.769531"/>
       <use xlink:href="#DejaVuSans-5f" x="277.148438"/>
       <use xlink:href="#DejaVuSans-36" x="327.148438"/>
      </g>
     </g>
    </g>
    <g id="xtick_7">
     <g id="line2d_7">
      <g>
       <use xlink:href="#m45dbad2702" x="502.379687" y="170.28" style="stroke: #000000; stroke-width: 0.8"/>
      </g>
     </g>
     <g id="text_7">
      <!-- dense_7 -->
      <g transform="translate(485.692077 204.642471)rotate(-30)scale(0.1 -0.1)">
       <defs>
        <path id="DejaVuSans-37" d="M 525 4666 
L 3525 4666 
L 3525 4397 
L 1831 0 
L 1172 0 
L 2766 4134 
L 525 4134 
L 525 4666 
z
" transform="scale(0.015625)"/>
       </defs>
       <use xlink:href="#DejaVuSans-64"/>
       <use xlink:href="#DejaVuSans-65" x="63.476562"/>
       <use xlink:href="#DejaVuSans-6e" x="125"/>
       <use xlink:href="#DejaVuSans-73" x="188.378906"/>
       <use xlink:href="#DejaVuSans-65" x="240.478516"/>
       <use xlink:href="#DejaVuSans-5f" x="302.001953"/>
       <use xlink:href="#DejaVuSans-37" x="352.001953"/>
      </g>
     </g>
    </g>
    <g id="xtick_8">
     <g id="line2d_8">
      <g>
       <use xlink:href="#m45dbad2702" x="572.129688" y="170.28" style="stroke: #000000; stroke-width: 0.8"/>
      </g>
     </g>
     <g id="text_8">
      <!-- swish_8 -->
      <g transform="translate(556.519872 203.39794)rotate(-30)scale(0.1 -0.1)">
       <defs>
        <path id="DejaVuSans-38" d="M 2034 2216 
Q 1584 2216 1326 1975 
Q 1069 1734 1069 1313 
Q 1069 891 1326 650 
Q 1584 409 2034 409 
Q 2484 409 2743 651 
Q 3003 894 3003 1313 
Q 3003 1734 2745 1975 
Q 2488 2216 2034 2216 
z
M 1403 2484 
Q 997 2584 770 2862 
Q 544 3141 544 3541 
Q 544 4100 942 4425 
Q 1341 4750 2034 4750 
Q 2731 4750 3128 4425 
Q 3525 4100 3525 3541 
Q 3525 3141 3298 2862 
Q 3072 2584 2669 2484 
Q 3125 2378 3379 2068 
Q 3634 1759 3634 1313 
Q 3634 634 3220 271 
Q 2806 -91 2034 -91 
Q 1263 -91 848 271 
Q 434 634 434 1313 
Q 434 1759 690 2068 
Q 947 2378 1403 2484 
z
M 1172 3481 
Q 1172 3119 1398 2916 
Q 1625 2713 2034 2713 
Q 2441 2713 2670 2916 
Q 2900 3119 2900 3481 
Q 2900 3844 2670 4047 
Q 2441 4250 2034 4250 
Q 1625 4250 1398 4047 
Q 1172 3844 1172 3481 
z
" transform="scale(0.015625)"/>
       </defs>
       <use xlink:href="#DejaVuSans-73"/>
       <use xlink:href="#DejaVuSans-77" x="52.099609"/>
       <use xlink:href="#DejaVuSans-69" x="133.886719"/>
       <use xlink:href="#DejaVuSans-73" x="161.669922"/>
       <use xlink:href="#DejaVuSans-68" x="213.769531"/>
       <use xlink:href="#DejaVuSans-5f" x="277.148438"/>
       <use xlink:href="#DejaVuSans-38" x="327.148438"/>
      </g>
     </g>
    </g>
   </g>
   <g id="matplotlib.axis_2">
    <g id="ytick_1">
     <g id="line2d_9">
      <defs>
       <path id="m03633a9cb9" d="M 0 0 
L -3.5 0 
" style="stroke: #000000; stroke-width: 0.8"/>
      </defs>
      <g>
       <use xlink:href="#m03633a9cb9" x="49.004687" y="163.428539" style="stroke: #000000; stroke-width: 0.8"/>
      </g>
     </g>
     <g id="text_9">
      <!-- 15 -->
      <g transform="translate(20.9 167.227758)scale(0.1 -0.1)">
       <defs>
        <path id="DejaVuSans-2212" d="M 678 2272 
L 4684 2272 
L 4684 1741 
L 678 1741 
L 678 2272 
z
" transform="scale(0.015625)"/>
       </defs>
       <use xlink:href="#DejaVuSans-2212"/>
       <use xlink:href="#DejaVuSans-31" x="83.789062"/>
       <use xlink:href="#DejaVuSans-35" x="147.412109"/>
      </g>
     </g>
    </g>
    <g id="ytick_2">
     <g id="line2d_10">
      <g>
       <use xlink:href="#m03633a9cb9" x="49.004687" y="136.008738" style="stroke: #000000; stroke-width: 0.8"/>
      </g>
     </g>
     <g id="text_10">
      <!-- 10 -->
      <g transform="translate(20.9 139.807957)scale(0.1 -0.1)">
       <defs>
        <path id="DejaVuSans-30" d="M 2034 4250 
Q 1547 4250 1301 3770 
Q 1056 3291 1056 2328 
Q 1056 1369 1301 889 
Q 1547 409 2034 409 
Q 2525 409 2770 889 
Q 3016 1369 3016 2328 
Q 3016 3291 2770 3770 
Q 2525 4250 2034 4250 
z
M 2034 4750 
Q 2819 4750 3233 4129 
Q 3647 3509 3647 2328 
Q 3647 1150 3233 529 
Q 2819 -91 2034 -91 
Q 1250 -91 836 529 
Q 422 1150 422 2328 
Q 422 3509 836 4129 
Q 1250 4750 2034 4750 
z
" transform="scale(0.015625)"/>
       </defs>
       <use xlink:href="#DejaVuSans-2212"/>
       <use xlink:href="#DejaVuSans-31" x="83.789062"/>
       <use xlink:href="#DejaVuSans-30" x="147.412109"/>
      </g>
     </g>
    </g>
    <g id="ytick_3">
     <g id="line2d_11">
      <g>
       <use xlink:href="#m03633a9cb9" x="49.004687" y="108.588936" style="stroke: #000000; stroke-width: 0.8"/>
      </g>
     </g>
     <g id="text_11">
      <!-- 5 -->
      <g transform="translate(27.2625 112.388155)scale(0.1 -0.1)">
       <use xlink:href="#DejaVuSans-2212"/>
       <use xlink:href="#DejaVuSans-35" x="83.789062"/>
      </g>
     </g>
    </g>
    <g id="ytick_4">
     <g id="line2d_12">
      <g>
       <use xlink:href="#m03633a9cb9" x="49.004687" y="81.169135" style="stroke: #000000; stroke-width: 0.8"/>
      </g>
     </g>
     <g id="text_12">
      <!-- 0 -->
      <g transform="translate(35.642187 84.968354)scale(0.1 -0.1)">
       <use xlink:href="#DejaVuSans-30"/>
      </g>
     </g>
    </g>
    <g id="ytick_5">
     <g id="line2d_13">
      <g>
       <use xlink:href="#m03633a9cb9" x="49.004687" y="53.749333" style="stroke: #000000; stroke-width: 0.8"/>
      </g>
     </g>
     <g id="text_13">
      <!-- 5 -->
      <g transform="translate(35.642187 57.548552)scale(0.1 -0.1)">
       <use xlink:href="#DejaVuSans-35"/>
      </g>
     </g>
    </g>
    <g id="ytick_6">
     <g id="line2d_14">
      <g>
       <use xlink:href="#m03633a9cb9" x="49.004687" y="26.329532" style="stroke: #000000; stroke-width: 0.8"/>
      </g>
     </g>
     <g id="text_14">
      <!-- 10 -->
      <g transform="translate(29.279687 30.12875)scale(0.1 -0.1)">
       <use xlink:href="#DejaVuSans-31"/>
       <use xlink:href="#DejaVuSans-30" x="63.623047"/>
      </g>
     </g>
    </g>
    <g id="text_15">
     <!-- ${\phi}$ -->
     <g transform="translate(14.8 92.04)rotate(-90)scale(0.1 -0.1)">
      <defs>
       <path id="DejaVuSans-Oblique-3d5" d="M 2991 4863 
L 2738 3572 
Q 3363 3572 3684 3094 
Q 4016 2606 3850 1747 
Q 3681 888 3159 400 
Q 2653 -78 2028 -78 
L 1784 -1331 
L 1213 -1331 
L 1456 -78 
Q 834 -78 509 400 
Q 178 888 347 1747 
Q 513 2606 1034 3094 
Q 1544 3572 2166 3572 
L 2419 4863 
L 2991 4863 
z
M 2128 434 
Q 2481 434 2784 756 
Q 3116 1116 3244 1747 
Q 3369 2372 3169 2738 
Q 2991 3059 2638 3059 
L 2128 434 
z
M 1556 434 
L 2066 3059 
Q 1716 3059 1413 2738 
Q 1072 2372 953 1747 
Q 834 1116 1028 756 
Q 1203 434 1556 434 
z
" transform="scale(0.015625)"/>
      </defs>
      <use xlink:href="#DejaVuSans-Oblique-3d5" transform="translate(0 0.015625)"/>
     </g>
    </g>
   </g>
   <g id="line2d_15">
    <path d="M 83.879687 90.717361 
L 83.879687 68.862826 
" clip-path="url(#p609299bffd)" style="fill: none; stroke: #414141; stroke-width: 1.5; stroke-linecap: square"/>
   </g>
   <g id="line2d_16">
    <path d="M 83.879687 82.52194 
L 83.879687 77.058274 
" clip-path="url(#p609299bffd)" style="fill: none; stroke: #414141; stroke-width: 4.5; stroke-linecap: square"/>
   </g>
   <g id="line2d_17">
    <path d="M 153.629687 82.696224 
L 153.629687 73.303579 
" clip-path="url(#p609299bffd)" style="fill: none; stroke: #414141; stroke-width: 1.5; stroke-linecap: square"/>
   </g>
   <g id="line2d_18">
    <path d="M 153.629687 81.760068 
L 153.629687 78.37747 
" clip-path="url(#p609299bffd)" style="fill: none; stroke: #414141; stroke-width: 4.5; stroke-linecap: square"/>
   </g>
   <g id="line2d_19">
    <path d="M 223.379687 96.244845 
L 223.379687 61.89765 
" clip-path="url(#p609299bffd)" style="fill: none; stroke: #414141; stroke-width: 1.5; stroke-linecap: square"/>
   </g>
   <g id="line2d_20">
    <path d="M 223.379687 83.364959 
L 223.379687 74.778019 
" clip-path="url(#p609299bffd)" style="fill: none; stroke: #414141; stroke-width: 4.5; stroke-linecap: square"/>
   </g>
   <g id="line2d_21">
    <path d="M 293.129687 82.696223 
L 293.129687 67.802634 
" clip-path="url(#p609299bffd)" style="fill: none; stroke: #414141; stroke-width: 1.5; stroke-linecap: square"/>
   </g>
   <g id="line2d_22">
    <path d="M 293.129687 81.960115 
L 293.129687 76.297084 
" clip-path="url(#p609299bffd)" style="fill: none; stroke: #414141; stroke-width: 4.5; stroke-linecap: square"/>
   </g>
   <g id="line2d_23">
    <path d="M 362.879687 101.968418 
L 362.879687 61.455096 
" clip-path="url(#p609299bffd)" style="fill: none; stroke: #414141; stroke-width: 1.5; stroke-linecap: square"/>
   </g>
   <g id="line2d_24">
    <path d="M 362.879687 86.775965 
L 362.879687 76.647608 
" clip-path="url(#p609299bffd)" style="fill: none; stroke: #414141; stroke-width: 4.5; stroke-linecap: square"/>
   </g>
   <g id="line2d_25">
    <path d="M 432.629687 82.696224 
L 432.629687 71.50687 
" clip-path="url(#p609299bffd)" style="fill: none; stroke: #414141; stroke-width: 1.5; stroke-linecap: square"/>
   </g>
   <g id="line2d_26">
    <path d="M 432.629687 82.371787 
L 432.629687 78.02581 
" clip-path="url(#p609299bffd)" style="fill: none; stroke: #414141; stroke-width: 4.5; stroke-linecap: square"/>
   </g>
   <g id="line2d_27">
    <path d="M 502.379687 108.33789 
L 502.379687 58.231368 
" clip-path="url(#p609299bffd)" style="fill: none; stroke: #414141; stroke-width: 1.5; stroke-linecap: square"/>
   </g>
   <g id="line2d_28">
    <path d="M 502.379687 89.547846 
L 502.379687 77.020883 
" clip-path="url(#p609299bffd)" style="fill: none; stroke: #414141; stroke-width: 4.5; stroke-linecap: square"/>
   </g>
   <g id="line2d_29">
    <path d="M 572.129688 82.696224 
L 572.129688 72.265696 
" clip-path="url(#p609299bffd)" style="fill: none; stroke: #414141; stroke-width: 1.5; stroke-linecap: square"/>
   </g>
   <g id="line2d_30">
    <path d="M 572.129688 82.399473 
L 572.129688 78.345922 
" clip-path="url(#p609299bffd)" style="fill: none; stroke: #414141; stroke-width: 4.5; stroke-linecap: square"/>
   </g>
   <g id="patch_3">
    <path d="M 49.004687 170.28 
L 49.004687 7.2 
" style="fill: none; stroke: #000000; stroke-width: 0.8; stroke-linejoin: miter; stroke-linecap: square"/>
   </g>
   <g id="patch_4">
    <path d="M 607.004688 170.28 
L 607.004688 7.2 
" style="fill: none; stroke: #000000; stroke-width: 0.8; stroke-linejoin: miter; stroke-linecap: square"/>
   </g>
   <g id="patch_5">
    <path d="M 49.004687 170.28 
L 607.004688 170.28 
" style="fill: none; stroke: #000000; stroke-width: 0.8; stroke-linejoin: miter; stroke-linecap: square"/>
   </g>
   <g id="patch_6">
    <path d="M 49.004687 7.2 
L 607.004688 7.2 
" style="fill: none; stroke: #000000; stroke-width: 0.8; stroke-linejoin: miter; stroke-linecap: square"/>
   </g>
   <g id="PathCollection_1">
    <defs>
     <path id="m3ba10c2ade" d="M 0 1.5 
C 0.397805 1.5 0.77937 1.341951 1.06066 1.06066 
C 1.341951 0.77937 1.5 0.397805 1.5 0 
C 1.5 -0.397805 1.341951 -0.77937 1.06066 -1.06066 
C 0.77937 -1.341951 0.397805 -1.5 0 -1.5 
C -0.397805 -1.5 -0.77937 -1.341951 -1.06066 -1.06066 
C -1.341951 -0.77937 -1.5 -0.397805 -1.5 0 
C -1.5 0.397805 -1.341951 0.77937 -1.06066 1.06066 
C -0.77937 1.341951 -0.397805 1.5 0 1.5 
z
" style="stroke: #414141"/>
    </defs>
    <g clip-path="url(#p609299bffd)">
     <use xlink:href="#m3ba10c2ade" x="83.879687" y="79.771046" style="fill: #ffffff; stroke: #414141"/>
    </g>
   </g>
   <g id="PathCollection_2">
    <g clip-path="url(#p609299bffd)">
     <use xlink:href="#m3ba10c2ade" x="153.629687" y="80.381462" style="fill: #ffffff; stroke: #414141"/>
    </g>
   </g>
   <g id="PathCollection_3">
    <g clip-path="url(#p609299bffd)">
     <use xlink:href="#m3ba10c2ade" x="223.379687" y="79.0926" style="fill: #ffffff; stroke: #414141"/>
    </g>
   </g>
   <g id="PathCollection_4">
    <g clip-path="url(#p609299bffd)">
     <use xlink:href="#m3ba10c2ade" x="293.129687" y="79.93661" style="fill: #ffffff; stroke: #414141"/>
    </g>
   </g>
   <g id="PathCollection_5">
    <g clip-path="url(#p609299bffd)">
     <use xlink:href="#m3ba10c2ade" x="362.879687" y="81.592969" style="fill: #ffffff; stroke: #414141"/>
    </g>
   </g>
   <g id="PathCollection_6">
    <g clip-path="url(#p609299bffd)">
     <use xlink:href="#m3ba10c2ade" x="432.629687" y="81.349937" style="fill: #ffffff; stroke: #414141"/>
    </g>
   </g>
   <g id="PathCollection_7">
    <g clip-path="url(#p609299bffd)">
     <use xlink:href="#m3ba10c2ade" x="502.379687" y="82.914337" style="fill: #ffffff; stroke: #414141"/>
    </g>
   </g>
   <g id="PathCollection_8">
    <g clip-path="url(#p609299bffd)">
     <use xlink:href="#m3ba10c2ade" x="572.129688" y="81.551984" style="fill: #ffffff; stroke: #414141"/>
    </g>
   </g>
  </g>
 </g>
 <defs>
  <clipPath id="p609299bffd">
   <rect x="49.004687" y="7.2" width="558" height="163.08"/>
  </clipPath>
 </defs>
</svg>
