<?xml version="1.0" encoding="utf-8" standalone="no"?>
<!DOCTYPE svg PUBLIC "-//W3C//DTD SVG 1.1//EN"
  "http://www.w3.org/Graphics/SVG/1.1/DTD/svg11.dtd">
<svg xmlns:xlink="http://www.w3.org/1999/xlink" width="607.842188pt" height="213.884397pt" viewBox="0 0 607.842188 213.884397" xmlns="http://www.w3.org/2000/svg" version="1.1">
 <metadata>
  <rdf:RDF xmlns:dc="http://purl.org/dc/elements/1.1/" xmlns:cc="http://creativecommons.org/ns#" xmlns:rdf="http://www.w3.org/1999/02/22-rdf-syntax-ns#">
   <cc:Work>
    <dc:type rdf:resource="http://purl.org/dc/dcmitype/StillImage"/>
    <dc:date>2022-07-08T02:25:28.875006</dc:date>
    <dc:format>image/svg+xml</dc:format>
    <dc:creator>
     <cc:Agent>
      <dc:title>Matplotlib v3.5.1, https://matplotlib.org/</dc:title>
     </cc:Agent>
    </dc:creator>
   </cc:Work>
  </rdf:RDF>
 </metadata>
 <defs>
  <style type="text/css">*{stroke-linejoin: round; stroke-linecap: butt}</style>
 </defs>
 <g id="figure_1">
  <g id="patch_1">
   <path d="M 0 213.884397 
L 607.842188 213.884397 
L 607.842188 0 
L 0 0 
L 0 213.884397 
z
" style="fill: none"/>
  </g>
  <g id="axes_1">
   <g id="patch_2">
    <path d="M 42.642188 170.28 
L 600.642187 170.28 
L 600.642187 7.2 
L 42.642188 7.2 
z
" style="fill: #ffffff"/>
   </g>
   <g id="PolyCollection_1">
    <defs>
     <path id="m4b4de102ff" d="M 77.517191 -53.374631 
L 77.517184 -53.374631 
L 77.517162 -54.37981 
L 77.517186 -55.384989 
L 77.517171 -56.390168 
L 77.517131 -57.395347 
L 77.517089 -58.400526 
L 77.517071 -59.405705 
L 77.516976 -60.410884 
L 77.516864 -61.416063 
L 77.516666 -62.421242 
L 77.516511 -63.426421 
L 77.516247 -64.4316 
L 77.516171 -65.436779 
L 77.515662 -66.441958 
L 77.515159 -67.447137 
L 77.514714 -68.452316 
L 77.513653 -69.457495 
L 77.512733 -70.462674 
L 77.511376 -71.467853 
L 77.51004 -72.473032 
L 77.507635 -73.478211 
L 77.505219 -74.48339 
L 77.501678 -75.488569 
L 77.497373 -76.493748 
L 77.49259 -77.498927 
L 77.486104 -78.504106 
L 77.475654 -79.509285 
L 77.465589 -80.514464 
L 77.451813 -81.519643 
L 77.435689 -82.524822 
L 77.413355 -83.530001 
L 77.388211 -84.53518 
L 77.357554 -85.540359 
L 77.318065 -86.545538 
L 77.274505 -87.550717 
L 77.227361 -88.555896 
L 77.16298 -89.561075 
L 77.096454 -90.566254 
L 77.018036 -91.571433 
L 76.930867 -92.576612 
L 76.835272 -93.581791 
L 76.732414 -94.58697 
L 76.613484 -95.592149 
L 76.495365 -96.597328 
L 76.364707 -97.602507 
L 76.232537 -98.607686 
L 76.098704 -99.612865 
L 75.970352 -100.618044 
L 75.859872 -101.623223 
L 75.796594 -102.628402 
L 75.774969 -103.633581 
L 75.804762 -104.63876 
L 75.88406 -105.643939 
L 76.003037 -106.649118 
L 76.143778 -107.654297 
L 76.300953 -108.659476 
L 76.453418 -109.664655 
L 76.601839 -110.669834 
L 76.740691 -111.675013 
L 76.865781 -112.680192 
L 76.976523 -113.685371 
L 77.071856 -114.69055 
L 77.14915 -115.695729 
L 77.221709 -116.700908 
L 77.281541 -117.706087 
L 77.328162 -118.711266 
L 77.364453 -119.716445 
L 77.393799 -120.721624 
L 77.419985 -121.726803 
L 77.441333 -122.731982 
L 77.457968 -123.737161 
L 77.468949 -124.74234 
L 77.480046 -125.747519 
L 77.488666 -126.752698 
L 77.49574 -127.757877 
L 77.500036 -128.763056 
L 77.504326 -129.768235 
L 77.508353 -130.773414 
L 77.510496 -131.778593 
L 77.511961 -132.783772 
L 77.513313 -133.788951 
L 77.514363 -134.79413 
L 77.515215 -135.799309 
L 77.515807 -136.804488 
L 77.516302 -137.809667 
L 77.516457 -138.814846 
L 77.516751 -139.820025 
L 77.516952 -140.825204 
L 77.516999 -141.830383 
L 77.517062 -142.835562 
L 77.517119 -143.840741 
L 77.517107 -144.84592 
L 77.517144 -145.851099 
L 77.517175 -146.856278 
L 77.517177 -147.861457 
L 77.517183 -148.866636 
L 77.517187 -149.871815 
L 77.517187 -150.876994 
L 77.517175 -151.882173 
L 77.517186 -152.887352 
L 77.517189 -152.887352 
L 77.517189 -152.887352 
L 77.5172 -151.882173 
L 77.517188 -150.876994 
L 77.517188 -149.871815 
L 77.517192 -148.866636 
L 77.517198 -147.861457 
L 77.5172 -146.856278 
L 77.517231 -145.851099 
L 77.517268 -144.84592 
L 77.517256 -143.840741 
L 77.517313 -142.835562 
L 77.517376 -141.830383 
L 77.517423 -140.825204 
L 77.517624 -139.820025 
L 77.517918 -138.814846 
L 77.518073 -137.809667 
L 77.518568 -136.804488 
L 77.51916 -135.799309 
L 77.520012 -134.79413 
L 77.521062 -133.788951 
L 77.522414 -132.783772 
L 77.523879 -131.778593 
L 77.526022 -130.773414 
L 77.530049 -129.768235 
L 77.534339 -128.763056 
L 77.538635 -127.757877 
L 77.545709 -126.752698 
L 77.554329 -125.747519 
L 77.565426 -124.74234 
L 77.576407 -123.737161 
L 77.593042 -122.731982 
L 77.61439 -121.726803 
L 77.640576 -120.721624 
L 77.669922 -119.716445 
L 77.706213 -118.711266 
L 77.752834 -117.706087 
L 77.812666 -116.700908 
L 77.885225 -115.695729 
L 77.962519 -114.69055 
L 78.057852 -113.685371 
L 78.168594 -112.680192 
L 78.293684 -111.675013 
L 78.432536 -110.669834 
L 78.580957 -109.664655 
L 78.733422 -108.659476 
L 78.890597 -107.654297 
L 79.031338 -106.649118 
L 79.150315 -105.643939 
L 79.229613 -104.63876 
L 79.259406 -103.633581 
L 79.237781 -102.628402 
L 79.174503 -101.623223 
L 79.064023 -100.618044 
L 78.935671 -99.612865 
L 78.801838 -98.607686 
L 78.669668 -97.602507 
L 78.53901 -96.597328 
L 78.420891 -95.592149 
L 78.301961 -94.58697 
L 78.199103 -93.581791 
L 78.103508 -92.576612 
L 78.016339 -91.571433 
L 77.937921 -90.566254 
L 77.871395 -89.561075 
L 77.807014 -88.555896 
L 77.75987 -87.550717 
L 77.71631 -86.545538 
L 77.676821 -85.540359 
L 77.646164 -84.53518 
L 77.62102 -83.530001 
L 77.598686 -82.524822 
L 77.582562 -81.519643 
L 77.568786 -80.514464 
L 77.558721 -79.509285 
L 77.548271 -78.504106 
L 77.541785 -77.498927 
L 77.537002 -76.493748 
L 77.532697 -75.488569 
L 77.529156 -74.48339 
L 77.52674 -73.478211 
L 77.524335 -72.473032 
L 77.522999 -71.467853 
L 77.521642 -70.462674 
L 77.520722 -69.457495 
L 77.519661 -68.452316 
L 77.519216 -67.447137 
L 77.518713 -66.441958 
L 77.518204 -65.436779 
L 77.518128 -64.4316 
L 77.517864 -63.426421 
L 77.517709 -62.421242 
L 77.517511 -61.416063 
L 77.517399 -60.410884 
L 77.517304 -59.405705 
L 77.517286 -58.400526 
L 77.517244 -57.395347 
L 77.517204 -56.390168 
L 77.517189 -55.384989 
L 77.517213 -54.37981 
L 77.517191 -53.374631 
z
" style="stroke: #3d3d3d; stroke-width: 1.5"/>
    </defs>
    <g clip-path="url(#pe6b41b486d)">
     <use xlink:href="#m4b4de102ff" x="0" y="213.884397" style="fill: #3a923a; stroke: #3d3d3d; stroke-width: 1.5"/>
    </g>
   </g>
   <g id="PolyCollection_2">
    <defs>
     <path id="mebd814c209" d="M 150.965715 -103.091511 
L 143.56866 -103.091511 
L 119.367188 -103.590478 
L 142.726974 -104.089444 
L 145.545263 -104.588411 
L 145.582863 -105.087377 
L 145.623874 -105.586344 
L 145.682685 -106.085311 
L 145.741856 -106.584277 
L 145.811779 -107.083244 
L 145.880483 -107.58221 
L 145.960053 -108.081177 
L 146.036996 -108.580143 
L 146.119224 -109.07911 
L 146.18782 -109.578076 
L 146.26759 -110.077043 
L 146.339658 -110.57601 
L 146.407525 -111.074976 
L 146.479627 -111.573943 
L 146.542366 -112.072909 
L 146.604939 -112.571876 
L 146.660122 -113.070842 
L 146.716623 -113.569809 
L 146.764968 -114.068776 
L 146.812831 -114.567742 
L 146.854157 -115.066709 
L 146.88993 -115.565675 
L 146.9257 -116.064642 
L 146.965047 -116.563608 
L 146.994314 -117.062575 
L 147.024922 -117.561542 
L 147.05038 -118.060508 
L 147.07308 -118.559475 
L 147.091556 -119.058441 
L 147.110006 -119.557408 
L 147.125219 -120.056374 
L 147.138463 -120.555341 
L 147.153957 -121.054307 
L 147.165622 -121.553274 
L 147.178201 -122.052241 
L 147.187984 -122.551207 
L 147.197449 -123.050174 
L 147.20529 -123.54914 
L 147.212833 -124.048107 
L 147.217322 -124.547073 
L 147.221392 -125.04604 
L 147.227597 -125.545007 
L 147.234074 -126.043973 
L 147.236977 -126.54294 
L 147.24076 -127.041906 
L 147.244879 -127.540873 
L 147.247275 -128.039839 
L 147.248827 -128.538806 
L 147.251438 -129.037773 
L 147.253235 -129.536739 
L 147.255474 -130.035706 
L 147.25795 -130.534672 
L 147.259007 -131.033639 
L 147.259827 -131.532605 
L 147.261316 -132.031572 
L 147.261639 -132.530538 
L 147.262211 -133.029505 
L 147.262952 -133.528472 
L 147.263663 -134.027438 
L 147.264158 -134.526405 
L 147.264533 -135.025371 
L 147.264954 -135.524338 
L 147.265451 -136.023304 
L 147.265761 -136.522271 
L 147.265809 -137.021238 
L 147.266244 -137.520204 
L 147.266401 -138.019171 
L 147.266375 -138.518137 
L 147.266477 -139.017104 
L 147.266684 -139.51607 
L 147.266776 -140.015037 
L 147.266975 -140.514004 
L 147.266949 -141.01297 
L 147.266971 -141.511937 
L 147.267018 -142.010903 
L 147.267053 -142.50987 
L 147.267062 -143.008836 
L 147.267111 -143.507803 
L 147.267133 -144.006769 
L 147.267093 -144.505736 
L 147.267108 -145.004703 
L 147.267129 -145.503669 
L 147.267152 -146.002636 
L 147.26716 -146.501602 
L 147.267185 -147.000569 
L 147.267187 -147.499535 
L 147.26717 -147.998502 
L 147.267176 -148.497469 
L 147.267187 -148.996435 
L 147.267187 -149.495402 
L 147.267188 -149.994368 
L 147.267187 -150.493335 
L 147.267187 -150.992301 
L 147.267185 -151.491268 
L 147.267163 -151.990235 
L 147.267184 -152.489201 
L 147.267191 -152.489201 
L 147.267191 -152.489201 
L 147.267212 -151.990235 
L 147.26719 -151.491268 
L 147.267188 -150.992301 
L 147.267188 -150.493335 
L 147.267188 -149.994368 
L 147.267188 -149.495402 
L 147.267188 -148.996435 
L 147.267199 -148.497469 
L 147.267205 -147.998502 
L 147.267188 -147.499535 
L 147.26719 -147.000569 
L 147.267215 -146.501602 
L 147.267223 -146.002636 
L 147.267246 -145.503669 
L 147.267267 -145.004703 
L 147.267282 -144.505736 
L 147.267242 -144.006769 
L 147.267264 -143.507803 
L 147.267313 -143.008836 
L 147.267322 -142.50987 
L 147.267357 -142.010903 
L 147.267404 -141.511937 
L 147.267426 -141.01297 
L 147.2674 -140.514004 
L 147.267599 -140.015037 
L 147.267691 -139.51607 
L 147.267898 -139.017104 
L 147.268 -138.518137 
L 147.267974 -138.019171 
L 147.268131 -137.520204 
L 147.268566 -137.021238 
L 147.268614 -136.522271 
L 147.268924 -136.023304 
L 147.269421 -135.524338 
L 147.269842 -135.025371 
L 147.270217 -134.526405 
L 147.270712 -134.027438 
L 147.271423 -133.528472 
L 147.272164 -133.029505 
L 147.272736 -132.530538 
L 147.273059 -132.031572 
L 147.274548 -131.532605 
L 147.275368 -131.033639 
L 147.276425 -130.534672 
L 147.278901 -130.035706 
L 147.28114 -129.536739 
L 147.282937 -129.037773 
L 147.285548 -128.538806 
L 147.2871 -128.039839 
L 147.289496 -127.540873 
L 147.293615 -127.041906 
L 147.297398 -126.54294 
L 147.300301 -126.043973 
L 147.306778 -125.545007 
L 147.312983 -125.04604 
L 147.317053 -124.547073 
L 147.321542 -124.048107 
L 147.329085 -123.54914 
L 147.336926 -123.050174 
L 147.346391 -122.551207 
L 147.356174 -122.052241 
L 147.368753 -121.553274 
L 147.380418 -121.054307 
L 147.395912 -120.555341 
L 147.409156 -120.056374 
L 147.424369 -119.557408 
L 147.442819 -119.058441 
L 147.461295 -118.559475 
L 147.483995 -118.060508 
L 147.509453 -117.561542 
L 147.540061 -117.062575 
L 147.569328 -116.563608 
L 147.608675 -116.064642 
L 147.644445 -115.565675 
L 147.680218 -115.066709 
L 147.721544 -114.567742 
L 147.769407 -114.068776 
L 147.817752 -113.569809 
L 147.874253 -113.070842 
L 147.929436 -112.571876 
L 147.992009 -112.072909 
L 148.054748 -111.573943 
L 148.12685 -111.074976 
L 148.194717 -110.57601 
L 148.266785 -110.077043 
L 148.346555 -109.578076 
L 148.415151 -109.07911 
L 148.497379 -108.580143 
L 148.574322 -108.081177 
L 148.653892 -107.58221 
L 148.722596 -107.083244 
L 148.792519 -106.584277 
L 148.85169 -106.085311 
L 148.910501 -105.586344 
L 148.951512 -105.087377 
L 148.989112 -104.588411 
L 151.807401 -104.089444 
L 175.167188 -103.590478 
L 150.965715 -103.091511 
z
" style="stroke: #3d3d3d; stroke-width: 1.5"/>
    </defs>
    <g clip-path="url(#pe6b41b486d)">
     <use xlink:href="#mebd814c209" x="0" y="213.884397" style="fill: #3a923a; stroke: #3d3d3d; stroke-width: 1.5"/>
    </g>
   </g>
   <g id="PolyCollection_3">
    <defs>
     <path id="m0113012cc9" d="M 217.017191 -66.168144 
L 217.017184 -66.168144 
L 217.017163 -67.069553 
L 217.017142 -67.970961 
L 217.017107 -68.872369 
L 217.017135 -69.773778 
L 217.017019 -70.675186 
L 217.016901 -71.576594 
L 217.016821 -72.478003 
L 217.016524 -73.379411 
L 217.016119 -74.28082 
L 217.015477 -75.182228 
L 217.014058 -76.083636 
L 217.01281 -76.985045 
L 217.011554 -77.886453 
L 217.009903 -78.787862 
L 217.00616 -79.68927 
L 217.00072 -80.590678 
L 216.994057 -81.492087 
L 216.986932 -82.393495 
L 216.975896 -83.294904 
L 216.963192 -84.196312 
L 216.948817 -85.09772 
L 216.930893 -85.999129 
L 216.902927 -86.900537 
L 216.869791 -87.801946 
L 216.830202 -88.703354 
L 216.778721 -89.604762 
L 216.722482 -90.506171 
L 216.655661 -91.407579 
L 216.577205 -92.308988 
L 216.483454 -93.210396 
L 216.385255 -94.111804 
L 216.281078 -95.013213 
L 216.1661 -95.914621 
L 216.02867 -96.81603 
L 215.894206 -97.717438 
L 215.754443 -98.618846 
L 215.619029 -99.520255 
L 215.511142 -100.421663 
L 215.422629 -101.323072 
L 215.371713 -102.22448 
L 215.339046 -103.125888 
L 215.362874 -104.027297 
L 215.419604 -104.928705 
L 215.488093 -105.830114 
L 215.570558 -106.731522 
L 215.66674 -107.63293 
L 215.778419 -108.534339 
L 215.885368 -109.435747 
L 215.986107 -110.337156 
L 216.084465 -111.238564 
L 216.176567 -112.139972 
L 216.268527 -113.041381 
L 216.353003 -113.942789 
L 216.430607 -114.844198 
L 216.506718 -115.745606 
L 216.575471 -116.647014 
L 216.631788 -117.548423 
L 216.679437 -118.449831 
L 216.725064 -119.35124 
L 216.767252 -120.252648 
L 216.800942 -121.154056 
L 216.82982 -122.055465 
L 216.857171 -122.956873 
L 216.880074 -123.858282 
L 216.899595 -124.75969 
L 216.914613 -125.661098 
L 216.930044 -126.562507 
L 216.943728 -127.463915 
L 216.955249 -128.365324 
L 216.966142 -129.266732 
L 216.977025 -130.16814 
L 216.983921 -131.069549 
L 216.990719 -131.970957 
L 216.995236 -132.872366 
L 216.998496 -133.773774 
L 217.001997 -134.675182 
L 217.004066 -135.576591 
L 217.00644 -136.477999 
L 217.008356 -137.379407 
L 217.009717 -138.280816 
L 217.010939 -139.182224 
L 217.011994 -140.083633 
L 217.012683 -140.985041 
L 217.013422 -141.886449 
L 217.014612 -142.787858 
L 217.01516 -143.689266 
L 217.01525 -144.590675 
L 217.015592 -145.492083 
L 217.015972 -146.393491 
L 217.016345 -147.2949 
L 217.016635 -148.196308 
L 217.016756 -149.097717 
L 217.016929 -149.999125 
L 217.01705 -150.900533 
L 217.017109 -151.801942 
L 217.017113 -152.70335 
L 217.017132 -153.604759 
L 217.017157 -154.506167 
L 217.017184 -155.407575 
L 217.017191 -155.407575 
L 217.017191 -155.407575 
L 217.017218 -154.506167 
L 217.017243 -153.604759 
L 217.017262 -152.70335 
L 217.017266 -151.801942 
L 217.017325 -150.900533 
L 217.017446 -149.999125 
L 217.017619 -149.097717 
L 217.01774 -148.196308 
L 217.01803 -147.2949 
L 217.018403 -146.393491 
L 217.018783 -145.492083 
L 217.019125 -144.590675 
L 217.019215 -143.689266 
L 217.019763 -142.787858 
L 217.020953 -141.886449 
L 217.021692 -140.985041 
L 217.022381 -140.083633 
L 217.023436 -139.182224 
L 217.024658 -138.280816 
L 217.026019 -137.379407 
L 217.027935 -136.477999 
L 217.030309 -135.576591 
L 217.032378 -134.675182 
L 217.035879 -133.773774 
L 217.039139 -132.872366 
L 217.043656 -131.970957 
L 217.050454 -131.069549 
L 217.05735 -130.16814 
L 217.068233 -129.266732 
L 217.079126 -128.365324 
L 217.090647 -127.463915 
L 217.104331 -126.562507 
L 217.119762 -125.661098 
L 217.13478 -124.75969 
L 217.154301 -123.858282 
L 217.177204 -122.956873 
L 217.204555 -122.055465 
L 217.233433 -121.154056 
L 217.267123 -120.252648 
L 217.309311 -119.35124 
L 217.354938 -118.449831 
L 217.402587 -117.548423 
L 217.458904 -116.647014 
L 217.527657 -115.745606 
L 217.603768 -114.844198 
L 217.681372 -113.942789 
L 217.765848 -113.041381 
L 217.857808 -112.139972 
L 217.94991 -111.238564 
L 218.048268 -110.337156 
L 218.149007 -109.435747 
L 218.255956 -108.534339 
L 218.367635 -107.63293 
L 218.463817 -106.731522 
L 218.546282 -105.830114 
L 218.614771 -104.928705 
L 218.671501 -104.027297 
L 218.695329 -103.125888 
L 218.662662 -102.22448 
L 218.611746 -101.323072 
L 218.523233 -100.421663 
L 218.415346 -99.520255 
L 218.279932 -98.618846 
L 218.140169 -97.717438 
L 218.005705 -96.81603 
L 217.868275 -95.914621 
L 217.753297 -95.013213 
L 217.64912 -94.111804 
L 217.550921 -93.210396 
L 217.45717 -92.308988 
L 217.378714 -91.407579 
L 217.311893 -90.506171 
L 217.255654 -89.604762 
L 217.204173 -88.703354 
L 217.164584 -87.801946 
L 217.131448 -86.900537 
L 217.103482 -85.999129 
L 217.085558 -85.09772 
L 217.071183 -84.196312 
L 217.058479 -83.294904 
L 217.047443 -82.393495 
L 217.040318 -81.492087 
L 217.033655 -80.590678 
L 217.028215 -79.68927 
L 217.024472 -78.787862 
L 217.022821 -77.886453 
L 217.021565 -76.985045 
L 217.020317 -76.083636 
L 217.018898 -75.182228 
L 217.018256 -74.28082 
L 217.017851 -73.379411 
L 217.017554 -72.478003 
L 217.017474 -71.576594 
L 217.017356 -70.675186 
L 217.01724 -69.773778 
L 217.017268 -68.872369 
L 217.017233 -67.970961 
L 217.017212 -67.069553 
L 217.017191 -66.168144 
z
" style="stroke: #3d3d3d; stroke-width: 1.5"/>
    </defs>
    <g clip-path="url(#pe6b41b486d)">
     <use xlink:href="#m0113012cc9" x="0" y="213.884397" style="fill: #3a923a; stroke: #3d3d3d; stroke-width: 1.5"/>
    </g>
   </g>
   <g id="PolyCollection_4">
    <defs>
     <path id="mfaf0bcd40f" d="M 288.982098 -102.855843 
L 284.552277 -102.855843 
L 272.322585 -103.383303 
L 274.987471 -103.910764 
L 284.241787 -104.438224 
L 285.162731 -104.965685 
L 285.211417 -105.493145 
L 285.251122 -106.020606 
L 285.303708 -106.548067 
L 285.352008 -107.075527 
L 285.409993 -107.602988 
L 285.480705 -108.130448 
L 285.543533 -108.657909 
L 285.605498 -109.185369 
L 285.668933 -109.71283 
L 285.726021 -110.240291 
L 285.781886 -110.767751 
L 285.842581 -111.295212 
L 285.894474 -111.822672 
L 285.947642 -112.350133 
L 286.001553 -112.877593 
L 286.056899 -113.405054 
L 286.1027 -113.932514 
L 286.14635 -114.459975 
L 286.193674 -114.987436 
L 286.238257 -115.514896 
L 286.281227 -116.042357 
L 286.321142 -116.569817 
L 286.356737 -117.097278 
L 286.386476 -117.624738 
L 286.414683 -118.152199 
L 286.440953 -118.679659 
L 286.468061 -119.20712 
L 286.494356 -119.734581 
L 286.518065 -120.262041 
L 286.540473 -120.789502 
L 286.555765 -121.316962 
L 286.57233 -121.844423 
L 286.591011 -122.371883 
L 286.606099 -122.899344 
L 286.619282 -123.426805 
L 286.632463 -123.954265 
L 286.64595 -124.481726 
L 286.653368 -125.009186 
L 286.662299 -125.536647 
L 286.671782 -126.064107 
L 286.680682 -126.591568 
L 286.689022 -127.119028 
L 286.696418 -127.646489 
L 286.70303 -128.17395 
L 286.709263 -128.70141 
L 286.715463 -129.228871 
L 286.722527 -129.756331 
L 286.728958 -130.283792 
L 286.731974 -130.811252 
L 286.735778 -131.338713 
L 286.740289 -131.866174 
L 286.743578 -132.393634 
L 286.745581 -132.921095 
L 286.746836 -133.448555 
L 286.749522 -133.976016 
L 286.751521 -134.503476 
L 286.753235 -135.030937 
L 286.753843 -135.558397 
L 286.755243 -136.085858 
L 286.756919 -136.613319 
L 286.758127 -137.140779 
L 286.758692 -137.66824 
L 286.75967 -138.1957 
L 286.760302 -138.723161 
L 286.761046 -139.250621 
L 286.761737 -139.778082 
L 286.762204 -140.305543 
L 286.762677 -140.833003 
L 286.762807 -141.360464 
L 286.763377 -141.887924 
L 286.764126 -142.415385 
L 286.764899 -142.942845 
L 286.765154 -143.470306 
L 286.765219 -143.997766 
L 286.76522 -144.525227 
L 286.765303 -145.052688 
L 286.765686 -145.580148 
L 286.765845 -146.107609 
L 286.766074 -146.635069 
L 286.766319 -147.16253 
L 286.766472 -147.68999 
L 286.766703 -148.217451 
L 286.76666 -148.744911 
L 286.766799 -149.272372 
L 286.766902 -149.799833 
L 286.766982 -150.327293 
L 286.767043 -150.854754 
L 286.767117 -151.382214 
L 286.767108 -151.909675 
L 286.767106 -152.437135 
L 286.767116 -152.964596 
L 286.767131 -153.492057 
L 286.76714 -154.019517 
L 286.767156 -154.546978 
L 286.767183 -155.074438 
L 286.767192 -155.074438 
L 286.767192 -155.074438 
L 286.767219 -154.546978 
L 286.767235 -154.019517 
L 286.767244 -153.492057 
L 286.767259 -152.964596 
L 286.767269 -152.437135 
L 286.767267 -151.909675 
L 286.767258 -151.382214 
L 286.767332 -150.854754 
L 286.767393 -150.327293 
L 286.767473 -149.799833 
L 286.767576 -149.272372 
L 286.767715 -148.744911 
L 286.767672 -148.217451 
L 286.767903 -147.68999 
L 286.768056 -147.16253 
L 286.768301 -146.635069 
L 286.76853 -146.107609 
L 286.768689 -145.580148 
L 286.769072 -145.052688 
L 286.769155 -144.525227 
L 286.769156 -143.997766 
L 286.769221 -143.470306 
L 286.769476 -142.942845 
L 286.770249 -142.415385 
L 286.770998 -141.887924 
L 286.771568 -141.360464 
L 286.771698 -140.833003 
L 286.772171 -140.305543 
L 286.772638 -139.778082 
L 286.773329 -139.250621 
L 286.774073 -138.723161 
L 286.774705 -138.1957 
L 286.775683 -137.66824 
L 286.776248 -137.140779 
L 286.777456 -136.613319 
L 286.779132 -136.085858 
L 286.780532 -135.558397 
L 286.78114 -135.030937 
L 286.782854 -134.503476 
L 286.784853 -133.976016 
L 286.787539 -133.448555 
L 286.788794 -132.921095 
L 286.790797 -132.393634 
L 286.794086 -131.866174 
L 286.798597 -131.338713 
L 286.802401 -130.811252 
L 286.805417 -130.283792 
L 286.811848 -129.756331 
L 286.818912 -129.228871 
L 286.825112 -128.70141 
L 286.831345 -128.17395 
L 286.837957 -127.646489 
L 286.845353 -127.119028 
L 286.853693 -126.591568 
L 286.862593 -126.064107 
L 286.872076 -125.536647 
L 286.881007 -125.009186 
L 286.888425 -124.481726 
L 286.901912 -123.954265 
L 286.915093 -123.426805 
L 286.928276 -122.899344 
L 286.943364 -122.371883 
L 286.962045 -121.844423 
L 286.97861 -121.316962 
L 286.993902 -120.789502 
L 287.01631 -120.262041 
L 287.040019 -119.734581 
L 287.066314 -119.20712 
L 287.093422 -118.679659 
L 287.119692 -118.152199 
L 287.147899 -117.624738 
L 287.177638 -117.097278 
L 287.213233 -116.569817 
L 287.253148 -116.042357 
L 287.296118 -115.514896 
L 287.340701 -114.987436 
L 287.388025 -114.459975 
L 287.431675 -113.932514 
L 287.477476 -113.405054 
L 287.532822 -112.877593 
L 287.586733 -112.350133 
L 287.639901 -111.822672 
L 287.691794 -111.295212 
L 287.752489 -110.767751 
L 287.808354 -110.240291 
L 287.865442 -109.71283 
L 287.928877 -109.185369 
L 287.990842 -108.657909 
L 288.05367 -108.130448 
L 288.124382 -107.602988 
L 288.182367 -107.075527 
L 288.230667 -106.548067 
L 288.283253 -106.020606 
L 288.322958 -105.493145 
L 288.371644 -104.965685 
L 289.292588 -104.438224 
L 298.546904 -103.910764 
L 301.21179 -103.383303 
L 288.982098 -102.855843 
z
" style="stroke: #3d3d3d; stroke-width: 1.5"/>
    </defs>
    <g clip-path="url(#pe6b41b486d)">
     <use xlink:href="#mfaf0bcd40f" x="0" y="213.884397" style="fill: #3a923a; stroke: #3d3d3d; stroke-width: 1.5"/>
    </g>
   </g>
   <g id="PolyCollection_5">
    <defs>
     <path id="m97bbf90156" d="M 356.51719 -62.000483 
L 356.517185 -62.000483 
L 356.517168 -63.064008 
L 356.517182 -64.127533 
L 356.517187 -65.191058 
L 356.517167 -66.254583 
L 356.517109 -67.318108 
L 356.517066 -68.381633 
L 356.516959 -69.445158 
L 356.51683 -70.508682 
L 356.516427 -71.572207 
L 356.515841 -72.635732 
L 356.514999 -73.699257 
L 356.513655 -74.762782 
L 356.511914 -75.826307 
L 356.509925 -76.889832 
L 356.506716 -77.953357 
L 356.502999 -79.016882 
L 356.496749 -80.080407 
L 356.489501 -81.143932 
L 356.480218 -82.207457 
L 356.46785 -83.270982 
L 356.452333 -84.334507 
L 356.431934 -85.398032 
L 356.409754 -86.461557 
L 356.380853 -87.525082 
L 356.345281 -88.588606 
L 356.303365 -89.652131 
L 356.241614 -90.715656 
L 356.168764 -91.779181 
L 356.08047 -92.842706 
L 355.975838 -93.906231 
L 355.860753 -94.969756 
L 355.729641 -96.033281 
L 355.584352 -97.096806 
L 355.446529 -98.160331 
L 355.327357 -99.223856 
L 355.238517 -100.287381 
L 355.161241 -101.350906 
L 355.102118 -102.414431 
L 355.066844 -103.477956 
L 355.068405 -104.541481 
L 355.097693 -105.605006 
L 355.156139 -106.66853 
L 355.229895 -107.732055 
L 355.306504 -108.79558 
L 355.393737 -109.859105 
L 355.481055 -110.92263 
L 355.573521 -111.986155 
L 355.661479 -113.04968 
L 355.738089 -114.113205 
L 355.817856 -115.17673 
L 355.891287 -116.240255 
L 355.965045 -117.30378 
L 356.038633 -118.367305 
L 356.102284 -119.43083 
L 356.154072 -120.494355 
L 356.209031 -121.55788 
L 356.258066 -122.621405 
L 356.299903 -123.68493 
L 356.334411 -124.748454 
L 356.364682 -125.811979 
L 356.387612 -126.875504 
L 356.408016 -127.939029 
L 356.424648 -129.002554 
L 356.43799 -130.066079 
L 356.448588 -131.129604 
L 356.457243 -132.193129 
L 356.466834 -133.256654 
L 356.475413 -134.320179 
L 356.483369 -135.383704 
L 356.489762 -136.447229 
L 356.494246 -137.510754 
L 356.497786 -138.574279 
L 356.50138 -139.637804 
L 356.504507 -140.701329 
L 356.507445 -141.764854 
L 356.509803 -142.828378 
L 356.511289 -143.891903 
L 356.51278 -144.955428 
L 356.513681 -146.018953 
L 356.514626 -147.082478 
L 356.515327 -148.146003 
L 356.51581 -149.209528 
L 356.516053 -150.273053 
L 356.516168 -151.336578 
L 356.516268 -152.400103 
L 356.516513 -153.463628 
L 356.516715 -154.527153 
L 356.516763 -155.590678 
L 356.516851 -156.654203 
L 356.51693 -157.717728 
L 356.517033 -158.781253 
L 356.516979 -159.844778 
L 356.517009 -160.908302 
L 356.517115 -161.971827 
L 356.517145 -163.035352 
L 356.517184 -164.098877 
L 356.517182 -165.162402 
L 356.517168 -166.225927 
L 356.517185 -167.289452 
L 356.51719 -167.289452 
L 356.51719 -167.289452 
L 356.517207 -166.225927 
L 356.517193 -165.162402 
L 356.517191 -164.098877 
L 356.51723 -163.035352 
L 356.51726 -161.971827 
L 356.517366 -160.908302 
L 356.517396 -159.844778 
L 356.517342 -158.781253 
L 356.517445 -157.717728 
L 356.517524 -156.654203 
L 356.517612 -155.590678 
L 356.51766 -154.527153 
L 356.517862 -153.463628 
L 356.518107 -152.400103 
L 356.518207 -151.336578 
L 356.518322 -150.273053 
L 356.518565 -149.209528 
L 356.519048 -148.146003 
L 356.519749 -147.082478 
L 356.520694 -146.018953 
L 356.521595 -144.955428 
L 356.523086 -143.891903 
L 356.524572 -142.828378 
L 356.52693 -141.764854 
L 356.529868 -140.701329 
L 356.532995 -139.637804 
L 356.536589 -138.574279 
L 356.540129 -137.510754 
L 356.544613 -136.447229 
L 356.551006 -135.383704 
L 356.558962 -134.320179 
L 356.567541 -133.256654 
L 356.577132 -132.193129 
L 356.585787 -131.129604 
L 356.596385 -130.066079 
L 356.609727 -129.002554 
L 356.626359 -127.939029 
L 356.646763 -126.875504 
L 356.669693 -125.811979 
L 356.699964 -124.748454 
L 356.734472 -123.68493 
L 356.776309 -122.621405 
L 356.825344 -121.55788 
L 356.880303 -120.494355 
L 356.932091 -119.43083 
L 356.995742 -118.367305 
L 357.06933 -117.30378 
L 357.143088 -116.240255 
L 357.216519 -115.17673 
L 357.296286 -114.113205 
L 357.372896 -113.04968 
L 357.460854 -111.986155 
L 357.55332 -110.92263 
L 357.640638 -109.859105 
L 357.727871 -108.79558 
L 357.80448 -107.732055 
L 357.878236 -106.66853 
L 357.936682 -105.605006 
L 357.96597 -104.541481 
L 357.967531 -103.477956 
L 357.932257 -102.414431 
L 357.873134 -101.350906 
L 357.795858 -100.287381 
L 357.707018 -99.223856 
L 357.587846 -98.160331 
L 357.450023 -97.096806 
L 357.304734 -96.033281 
L 357.173622 -94.969756 
L 357.058537 -93.906231 
L 356.953905 -92.842706 
L 356.865611 -91.779181 
L 356.792761 -90.715656 
L 356.73101 -89.652131 
L 356.689094 -88.588606 
L 356.653522 -87.525082 
L 356.624621 -86.461557 
L 356.602441 -85.398032 
L 356.582042 -84.334507 
L 356.566525 -83.270982 
L 356.554157 -82.207457 
L 356.544874 -81.143932 
L 356.537626 -80.080407 
L 356.531376 -79.016882 
L 356.527659 -77.953357 
L 356.52445 -76.889832 
L 356.522461 -75.826307 
L 356.52072 -74.762782 
L 356.519376 -73.699257 
L 356.518534 -72.635732 
L 356.517948 -71.572207 
L 356.517545 -70.508682 
L 356.517416 -69.445158 
L 356.517309 -68.381633 
L 356.517266 -67.318108 
L 356.517208 -66.254583 
L 356.517188 -65.191058 
L 356.517193 -64.127533 
L 356.517207 -63.064008 
L 356.51719 -62.000483 
z
" style="stroke: #3d3d3d; stroke-width: 1.5"/>
    </defs>
    <g clip-path="url(#pe6b41b486d)">
     <use xlink:href="#m97bbf90156" x="0" y="213.884397" style="fill: #3a923a; stroke: #3d3d3d; stroke-width: 1.5"/>
    </g>
   </g>
   <g id="PolyCollection_6">
    <defs>
     <path id="m35a98ec744" d="M 427.923606 -102.718946 
L 424.610769 -102.718946 
L 415.143223 -103.36789 
L 417.98274 -104.016833 
L 424.358906 -104.665777 
L 424.832572 -105.314721 
L 424.860421 -105.963665 
L 424.899454 -106.612609 
L 424.952321 -107.261552 
L 424.989148 -107.910496 
L 425.036362 -108.55944 
L 425.090291 -109.208384 
L 425.143447 -109.857327 
L 425.19733 -110.506271 
L 425.249498 -111.155215 
L 425.306738 -111.804159 
L 425.36639 -112.453103 
L 425.416759 -113.102046 
L 425.45933 -113.75099 
L 425.510769 -114.399934 
L 425.559225 -115.048878 
L 425.604939 -115.697822 
L 425.648177 -116.346765 
L 425.692623 -116.995709 
L 425.739677 -117.644653 
L 425.78416 -118.293597 
L 425.826576 -118.94254 
L 425.861535 -119.591484 
L 425.890634 -120.240428 
L 425.924224 -120.889372 
L 425.95853 -121.538316 
L 425.990467 -122.187259 
L 426.016937 -122.836203 
L 426.042225 -123.485147 
L 426.067255 -124.134091 
L 426.085069 -124.783034 
L 426.104685 -125.431978 
L 426.122322 -126.080922 
L 426.134487 -126.729866 
L 426.147879 -127.37881 
L 426.159873 -128.027753 
L 426.170082 -128.676697 
L 426.179403 -129.325641 
L 426.187321 -129.974585 
L 426.193638 -130.623528 
L 426.200268 -131.272472 
L 426.204673 -131.921416 
L 426.210744 -132.57036 
L 426.216729 -133.219304 
L 426.221624 -133.868247 
L 426.22718 -134.517191 
L 426.231554 -135.166135 
L 426.236862 -135.815079 
L 426.239987 -136.464023 
L 426.242307 -137.112966 
L 426.245612 -137.76191 
L 426.247232 -138.410854 
L 426.249249 -139.059798 
L 426.251667 -139.708741 
L 426.253841 -140.357685 
L 426.25512 -141.006629 
L 426.257193 -141.655573 
L 426.258974 -142.304517 
L 426.260053 -142.95346 
L 426.260737 -143.602404 
L 426.261936 -144.251348 
L 426.262739 -144.900292 
L 426.263413 -145.549235 
L 426.263765 -146.198179 
L 426.264337 -146.847123 
L 426.265111 -147.496067 
L 426.265279 -148.145011 
L 426.265699 -148.793954 
L 426.265865 -149.442898 
L 426.26601 -150.091842 
L 426.266165 -150.740786 
L 426.266159 -151.38973 
L 426.266207 -152.038673 
L 426.26631 -152.687617 
L 426.266481 -153.336561 
L 426.266648 -153.985505 
L 426.266739 -154.634448 
L 426.266754 -155.283392 
L 426.266774 -155.932336 
L 426.266848 -156.58128 
L 426.266892 -157.230224 
L 426.266932 -157.879167 
L 426.267069 -158.528111 
L 426.267003 -159.177055 
L 426.266966 -159.825999 
L 426.266996 -160.474942 
L 426.267007 -161.123886 
L 426.267125 -161.77283 
L 426.267122 -162.421774 
L 426.267144 -163.070718 
L 426.267183 -163.719661 
L 426.267187 -164.368605 
L 426.267186 -165.017549 
L 426.267171 -165.666493 
L 426.267163 -166.315437 
L 426.267184 -166.96438 
L 426.267191 -166.96438 
L 426.267191 -166.96438 
L 426.267212 -166.315437 
L 426.267204 -165.666493 
L 426.267189 -165.017549 
L 426.267188 -164.368605 
L 426.267192 -163.719661 
L 426.267231 -163.070718 
L 426.267253 -162.421774 
L 426.26725 -161.77283 
L 426.267368 -161.123886 
L 426.267379 -160.474942 
L 426.267409 -159.825999 
L 426.267372 -159.177055 
L 426.267306 -158.528111 
L 426.267443 -157.879167 
L 426.267483 -157.230224 
L 426.267527 -156.58128 
L 426.267601 -155.932336 
L 426.267621 -155.283392 
L 426.267636 -154.634448 
L 426.267727 -153.985505 
L 426.267894 -153.336561 
L 426.268065 -152.687617 
L 426.268168 -152.038673 
L 426.268216 -151.38973 
L 426.26821 -150.740786 
L 426.268365 -150.091842 
L 426.26851 -149.442898 
L 426.268676 -148.793954 
L 426.269096 -148.145011 
L 426.269264 -147.496067 
L 426.270038 -146.847123 
L 426.27061 -146.198179 
L 426.270962 -145.549235 
L 426.271636 -144.900292 
L 426.272439 -144.251348 
L 426.273638 -143.602404 
L 426.274322 -142.95346 
L 426.275401 -142.304517 
L 426.277182 -141.655573 
L 426.279255 -141.006629 
L 426.280534 -140.357685 
L 426.282708 -139.708741 
L 426.285126 -139.059798 
L 426.287143 -138.410854 
L 426.288763 -137.76191 
L 426.292068 -137.112966 
L 426.294388 -136.464023 
L 426.297513 -135.815079 
L 426.302821 -135.166135 
L 426.307195 -134.517191 
L 426.312751 -133.868247 
L 426.317646 -133.219304 
L 426.323631 -132.57036 
L 426.329702 -131.921416 
L 426.334107 -131.272472 
L 426.340737 -130.623528 
L 426.347054 -129.974585 
L 426.354972 -129.325641 
L 426.364293 -128.676697 
L 426.374502 -128.027753 
L 426.386496 -127.37881 
L 426.399888 -126.729866 
L 426.412053 -126.080922 
L 426.42969 -125.431978 
L 426.449306 -124.783034 
L 426.46712 -124.134091 
L 426.49215 -123.485147 
L 426.517438 -122.836203 
L 426.543908 -122.187259 
L 426.575845 -121.538316 
L 426.610151 -120.889372 
L 426.643741 -120.240428 
L 426.67284 -119.591484 
L 426.707799 -118.94254 
L 426.750215 -118.293597 
L 426.794698 -117.644653 
L 426.841752 -116.995709 
L 426.886198 -116.346765 
L 426.929436 -115.697822 
L 426.97515 -115.048878 
L 427.023606 -114.399934 
L 427.075045 -113.75099 
L 427.117616 -113.102046 
L 427.167985 -112.453103 
L 427.227637 -111.804159 
L 427.284877 -111.155215 
L 427.337045 -110.506271 
L 427.390928 -109.857327 
L 427.444084 -109.208384 
L 427.498013 -108.55944 
L 427.545227 -107.910496 
L 427.582054 -107.261552 
L 427.634921 -106.612609 
L 427.673954 -105.963665 
L 427.701803 -105.314721 
L 428.175469 -104.665777 
L 434.551635 -104.016833 
L 437.391152 -103.36789 
L 427.923606 -102.718946 
z
" style="stroke: #3d3d3d; stroke-width: 1.5"/>
    </defs>
    <g clip-path="url(#pe6b41b486d)">
     <use xlink:href="#m35a98ec744" x="0" y="213.884397" style="fill: #3a923a; stroke: #3d3d3d; stroke-width: 1.5"/>
    </g>
   </g>
   <g id="PolyCollection_7">
    <defs>
     <path id="m43899179e0" d="M 496.01719 -51.017124 
L 496.017185 -51.017124 
L 496.017165 -52.514645 
L 496.017105 -54.012165 
L 496.016969 -55.509686 
L 496.016835 -57.007207 
L 496.016702 -58.504727 
L 496.016213 -60.002248 
L 496.015438 -61.499769 
L 496.014542 -62.997289 
L 496.013087 -64.49481 
L 496.011108 -65.992331 
L 496.008879 -67.489851 
L 496.006034 -68.987372 
L 496.00227 -70.484893 
L 495.996938 -71.982413 
L 495.989633 -73.479934 
L 495.977767 -74.977455 
L 495.961222 -76.474975 
L 495.941043 -77.972496 
L 495.914603 -79.470017 
L 495.882641 -80.967537 
L 495.843851 -82.465058 
L 495.793216 -83.962578 
L 495.730787 -85.460099 
L 495.660405 -86.95762 
L 495.582358 -88.45514 
L 495.494774 -89.952661 
L 495.397533 -91.450182 
L 495.303787 -92.947702 
L 495.224358 -94.445223 
L 495.16651 -95.942744 
L 495.125454 -97.440264 
L 495.094142 -98.937785 
L 495.082593 -100.435306 
L 495.103417 -101.932826 
L 495.157278 -103.430347 
L 495.223639 -104.927868 
L 495.291234 -106.425388 
L 495.355745 -107.922909 
L 495.407069 -109.42043 
L 495.44658 -110.91795 
L 495.473901 -112.415471 
L 495.492179 -113.912992 
L 495.507812 -115.410512 
L 495.524116 -116.908033 
L 495.543522 -118.405554 
L 495.56389 -119.903074 
L 495.588539 -121.400595 
L 495.619929 -122.898116 
L 495.650254 -124.395636 
L 495.68029 -125.893157 
L 495.711245 -127.390678 
L 495.739054 -128.888198 
L 495.761853 -130.385719 
L 495.785445 -131.88324 
L 495.808728 -133.38076 
L 495.827258 -134.878281 
L 495.843341 -136.375802 
L 495.861125 -137.873322 
L 495.878264 -139.370843 
L 495.892135 -140.868364 
L 495.906557 -142.365884 
L 495.921629 -143.863405 
L 495.933477 -145.360926 
L 495.943611 -146.858446 
L 495.952824 -148.355967 
L 495.962235 -149.853488 
L 495.971498 -151.351008 
L 495.978546 -152.848529 
L 495.983686 -154.34605 
L 495.987587 -155.84357 
L 495.991037 -157.341091 
L 495.995013 -158.838612 
L 495.99846 -160.336132 
L 496.001215 -161.833653 
L 496.003712 -163.331174 
L 496.005506 -164.828694 
L 496.007305 -166.326215 
L 496.009022 -167.823736 
L 496.010295 -169.321256 
L 496.011339 -170.818777 
L 496.011925 -172.316298 
L 496.012388 -173.813818 
L 496.013093 -175.311339 
L 496.013942 -176.808859 
L 496.014724 -178.30638 
L 496.015117 -179.803901 
L 496.015446 -181.301421 
L 496.015808 -182.798942 
L 496.016125 -184.296463 
L 496.016352 -185.793983 
L 496.016619 -187.291504 
L 496.016906 -188.789025 
L 496.01705 -190.286545 
L 496.017096 -191.784066 
L 496.017105 -193.281587 
L 496.017133 -194.779107 
L 496.017141 -196.276628 
L 496.017161 -197.774149 
L 496.017184 -199.271669 
L 496.017191 -199.271669 
L 496.017191 -199.271669 
L 496.017214 -197.774149 
L 496.017234 -196.276628 
L 496.017242 -194.779107 
L 496.01727 -193.281587 
L 496.017279 -191.784066 
L 496.017325 -190.286545 
L 496.017469 -188.789025 
L 496.017756 -187.291504 
L 496.018023 -185.793983 
L 496.01825 -184.296463 
L 496.018567 -182.798942 
L 496.018929 -181.301421 
L 496.019258 -179.803901 
L 496.019651 -178.30638 
L 496.020433 -176.808859 
L 496.021282 -175.311339 
L 496.021987 -173.813818 
L 496.02245 -172.316298 
L 496.023036 -170.818777 
L 496.02408 -169.321256 
L 496.025353 -167.823736 
L 496.02707 -166.326215 
L 496.028869 -164.828694 
L 496.030663 -163.331174 
L 496.03316 -161.833653 
L 496.035915 -160.336132 
L 496.039362 -158.838612 
L 496.043338 -157.341091 
L 496.046788 -155.84357 
L 496.050689 -154.34605 
L 496.055829 -152.848529 
L 496.062877 -151.351008 
L 496.07214 -149.853488 
L 496.081551 -148.355967 
L 496.090764 -146.858446 
L 496.100898 -145.360926 
L 496.112746 -143.863405 
L 496.127818 -142.365884 
L 496.14224 -140.868364 
L 496.156111 -139.370843 
L 496.17325 -137.873322 
L 496.191034 -136.375802 
L 496.207117 -134.878281 
L 496.225647 -133.38076 
L 496.24893 -131.88324 
L 496.272522 -130.385719 
L 496.295321 -128.888198 
L 496.32313 -127.390678 
L 496.354085 -125.893157 
L 496.384121 -124.395636 
L 496.414446 -122.898116 
L 496.445836 -121.400595 
L 496.470485 -119.903074 
L 496.490853 -118.405554 
L 496.510259 -116.908033 
L 496.526563 -115.410512 
L 496.542196 -113.912992 
L 496.560474 -112.415471 
L 496.587795 -110.91795 
L 496.627306 -109.42043 
L 496.67863 -107.922909 
L 496.743141 -106.425388 
L 496.810736 -104.927868 
L 496.877097 -103.430347 
L 496.930958 -101.932826 
L 496.951782 -100.435306 
L 496.940233 -98.937785 
L 496.908921 -97.440264 
L 496.867865 -95.942744 
L 496.810017 -94.445223 
L 496.730588 -92.947702 
L 496.636842 -91.450182 
L 496.539601 -89.952661 
L 496.452017 -88.45514 
L 496.37397 -86.95762 
L 496.303588 -85.460099 
L 496.241159 -83.962578 
L 496.190524 -82.465058 
L 496.151734 -80.967537 
L 496.119772 -79.470017 
L 496.093332 -77.972496 
L 496.073153 -76.474975 
L 496.056608 -74.977455 
L 496.044742 -73.479934 
L 496.037437 -71.982413 
L 496.032105 -70.484893 
L 496.028341 -68.987372 
L 496.025496 -67.489851 
L 496.023267 -65.992331 
L 496.021288 -64.49481 
L 496.019833 -62.997289 
L 496.018937 -61.499769 
L 496.018162 -60.002248 
L 496.017673 -58.504727 
L 496.01754 -57.007207 
L 496.017406 -55.509686 
L 496.01727 -54.012165 
L 496.01721 -52.514645 
L 496.01719 -51.017124 
z
" style="stroke: #3d3d3d; stroke-width: 1.5"/>
    </defs>
    <g clip-path="url(#pe6b41b486d)">
     <use xlink:href="#m43899179e0" x="0" y="213.884397" style="fill: #3a923a; stroke: #3d3d3d; stroke-width: 1.5"/>
    </g>
   </g>
   <g id="PolyCollection_8">
    <defs>
     <path id="maeee43dd72" d="M 566.656373 -101.775256 
L 564.878002 -101.775256 
L 561.376233 -102.754266 
L 558.970689 -103.733277 
L 562.159952 -104.712287 
L 564.610496 -105.691297 
L 565.035305 -106.670307 
L 565.096852 -107.649318 
L 565.133677 -108.628328 
L 565.163618 -109.607338 
L 565.190896 -110.586348 
L 565.211283 -111.565359 
L 565.226915 -112.544369 
L 565.238935 -113.523379 
L 565.247683 -114.502389 
L 565.258883 -115.4814 
L 565.268623 -116.46041 
L 565.279821 -117.43942 
L 565.293984 -118.418431 
L 565.306834 -119.397441 
L 565.319787 -120.376451 
L 565.33643 -121.355461 
L 565.357306 -122.334472 
L 565.379794 -123.313482 
L 565.398087 -124.292492 
L 565.417163 -125.271502 
L 565.437683 -126.250513 
L 565.45825 -127.229523 
L 565.478039 -128.208533 
L 565.494842 -129.187543 
L 565.50817 -130.166554 
L 565.523216 -131.145564 
L 565.539446 -132.124574 
L 565.555463 -133.103584 
L 565.568898 -134.082595 
L 565.579427 -135.061605 
L 565.589455 -136.040615 
L 565.600215 -137.019625 
L 565.612819 -137.998636 
L 565.624945 -138.977646 
L 565.634188 -139.956656 
L 565.642607 -140.935667 
L 565.651448 -141.914677 
L 565.662231 -142.893687 
L 565.672441 -143.872697 
L 565.680067 -144.851708 
L 565.686797 -145.830718 
L 565.693503 -146.809728 
L 565.699469 -147.788738 
L 565.705186 -148.767749 
L 565.711464 -149.746759 
L 565.71806 -150.725769 
L 565.723816 -151.704779 
L 565.728145 -152.68379 
L 565.731663 -153.6628 
L 565.734743 -154.64181 
L 565.737127 -155.62082 
L 565.739329 -156.599831 
L 565.741434 -157.578841 
L 565.74425 -158.557851 
L 565.747075 -159.536861 
L 565.748831 -160.515872 
L 565.750528 -161.494882 
L 565.752493 -162.473892 
L 565.753995 -163.452903 
L 565.755119 -164.431913 
L 565.75606 -165.410923 
L 565.7574 -166.389933 
L 565.758702 -167.368944 
L 565.759495 -168.347954 
L 565.760311 -169.326964 
L 565.761103 -170.305974 
L 565.761643 -171.284985 
L 565.761915 -172.263995 
L 565.762184 -173.243005 
L 565.762489 -174.222015 
L 565.763002 -175.201026 
L 565.763617 -176.180036 
L 565.764106 -177.159046 
L 565.764751 -178.138056 
L 565.765028 -179.117067 
L 565.76514 -180.096077 
L 565.76539 -181.075087 
L 565.765635 -182.054097 
L 565.765866 -183.033108 
L 565.766085 -184.012118 
L 565.76626 -184.991128 
L 565.766358 -185.970139 
L 565.766531 -186.949149 
L 565.766769 -187.928159 
L 565.766951 -188.907169 
L 565.767037 -189.88618 
L 565.767086 -190.86519 
L 565.767106 -191.8442 
L 565.767093 -192.82321 
L 565.76711 -193.802221 
L 565.767141 -194.781231 
L 565.767143 -195.760241 
L 565.767135 -196.739251 
L 565.767161 -197.718262 
L 565.767183 -198.697272 
L 565.767192 -198.697272 
L 565.767192 -198.697272 
L 565.767214 -197.718262 
L 565.76724 -196.739251 
L 565.767232 -195.760241 
L 565.767234 -194.781231 
L 565.767265 -193.802221 
L 565.767282 -192.82321 
L 565.767269 -191.8442 
L 565.767289 -190.86519 
L 565.767338 -189.88618 
L 565.767424 -188.907169 
L 565.767606 -187.928159 
L 565.767844 -186.949149 
L 565.768017 -185.970139 
L 565.768115 -184.991128 
L 565.76829 -184.012118 
L 565.768509 -183.033108 
L 565.76874 -182.054097 
L 565.768985 -181.075087 
L 565.769235 -180.096077 
L 565.769347 -179.117067 
L 565.769624 -178.138056 
L 565.770269 -177.159046 
L 565.770758 -176.180036 
L 565.771373 -175.201026 
L 565.771886 -174.222015 
L 565.772191 -173.243005 
L 565.77246 -172.263995 
L 565.772732 -171.284985 
L 565.773272 -170.305974 
L 565.774064 -169.326964 
L 565.77488 -168.347954 
L 565.775673 -167.368944 
L 565.776975 -166.389933 
L 565.778315 -165.410923 
L 565.779256 -164.431913 
L 565.78038 -163.452903 
L 565.781882 -162.473892 
L 565.783847 -161.494882 
L 565.785544 -160.515872 
L 565.7873 -159.536861 
L 565.790125 -158.557851 
L 565.792941 -157.578841 
L 565.795046 -156.599831 
L 565.797248 -155.62082 
L 565.799632 -154.64181 
L 565.802712 -153.6628 
L 565.80623 -152.68379 
L 565.810559 -151.704779 
L 565.816315 -150.725769 
L 565.822911 -149.746759 
L 565.829189 -148.767749 
L 565.834906 -147.788738 
L 565.840872 -146.809728 
L 565.847578 -145.830718 
L 565.854308 -144.851708 
L 565.861934 -143.872697 
L 565.872144 -142.893687 
L 565.882927 -141.914677 
L 565.891768 -140.935667 
L 565.900187 -139.956656 
L 565.90943 -138.977646 
L 565.921556 -137.998636 
L 565.93416 -137.019625 
L 565.94492 -136.040615 
L 565.954948 -135.061605 
L 565.965477 -134.082595 
L 565.978912 -133.103584 
L 565.994929 -132.124574 
L 566.011159 -131.145564 
L 566.026205 -130.166554 
L 566.039533 -129.187543 
L 566.056336 -128.208533 
L 566.076125 -127.229523 
L 566.096692 -126.250513 
L 566.117212 -125.271502 
L 566.136288 -124.292492 
L 566.154581 -123.313482 
L 566.177069 -122.334472 
L 566.197945 -121.355461 
L 566.214588 -120.376451 
L 566.227541 -119.397441 
L 566.240391 -118.418431 
L 566.254554 -117.43942 
L 566.265752 -116.46041 
L 566.275492 -115.4814 
L 566.286692 -114.502389 
L 566.29544 -113.523379 
L 566.30746 -112.544369 
L 566.323092 -111.565359 
L 566.343479 -110.586348 
L 566.370757 -109.607338 
L 566.400698 -108.628328 
L 566.437523 -107.649318 
L 566.49907 -106.670307 
L 566.923879 -105.691297 
L 569.374423 -104.712287 
L 572.563686 -103.733277 
L 570.158142 -102.754266 
L 566.656373 -101.775256 
z
" style="stroke: #3d3d3d; stroke-width: 1.5"/>
    </defs>
    <g clip-path="url(#pe6b41b486d)">
     <use xlink:href="#maeee43dd72" x="0" y="213.884397" style="fill: #3a923a; stroke: #3d3d3d; stroke-width: 1.5"/>
    </g>
   </g>
   <g id="matplotlib.axis_1">
    <g id="xtick_1">
     <g id="line2d_1">
      <defs>
       <path id="mcfdf852743" d="M 0 0 
L 0 3.5 
" style="stroke: #000000; stroke-width: 0.8"/>
      </defs>
      <g>
       <use xlink:href="#mcfdf852743" x="77.517188" y="170.28" style="stroke: #000000; stroke-width: 0.8"/>
      </g>
     </g>
     <g id="text_1">
      <!-- dense_1 -->
      <g transform="translate(60.829577 204.642471)rotate(-30)scale(0.1 -0.1)">
       <defs>
        <path id="DejaVuSans-64" d="M 2906 2969 
L 2906 4863 
L 3481 4863 
L 3481 0 
L 2906 0 
L 2906 525 
Q 2725 213 2448 61 
Q 2172 -91 1784 -91 
Q 1150 -91 751 415 
Q 353 922 353 1747 
Q 353 2572 751 3078 
Q 1150 3584 1784 3584 
Q 2172 3584 2448 3432 
Q 2725 3281 2906 2969 
z
M 947 1747 
Q 947 1113 1208 752 
Q 1469 391 1925 391 
Q 2381 391 2643 752 
Q 2906 1113 2906 1747 
Q 2906 2381 2643 2742 
Q 2381 3103 1925 3103 
Q 1469 3103 1208 2742 
Q 947 2381 947 1747 
z
" transform="scale(0.015625)"/>
        <path id="DejaVuSans-65" d="M 3597 1894 
L 3597 1613 
L 953 1613 
Q 991 1019 1311 708 
Q 1631 397 2203 397 
Q 2534 397 2845 478 
Q 3156 559 3463 722 
L 3463 178 
Q 3153 47 2828 -22 
Q 2503 -91 2169 -91 
Q 1331 -91 842 396 
Q 353 884 353 1716 
Q 353 2575 817 3079 
Q 1281 3584 2069 3584 
Q 2775 3584 3186 3129 
Q 3597 2675 3597 1894 
z
M 3022 2063 
Q 3016 2534 2758 2815 
Q 2500 3097 2075 3097 
Q 1594 3097 1305 2825 
Q 1016 2553 972 2059 
L 3022 2063 
z
" transform="scale(0.015625)"/>
        <path id="DejaVuSans-6e" d="M 3513 2113 
L 3513 0 
L 2938 0 
L 2938 2094 
Q 2938 2591 2744 2837 
Q 2550 3084 2163 3084 
Q 1697 3084 1428 2787 
Q 1159 2491 1159 1978 
L 1159 0 
L 581 0 
L 581 3500 
L 1159 3500 
L 1159 2956 
Q 1366 3272 1645 3428 
Q 1925 3584 2291 3584 
Q 2894 3584 3203 3211 
Q 3513 2838 3513 2113 
z
" transform="scale(0.015625)"/>
        <path id="DejaVuSans-73" d="M 2834 3397 
L 2834 2853 
Q 2591 2978 2328 3040 
Q 2066 3103 1784 3103 
Q 1356 3103 1142 2972 
Q 928 2841 928 2578 
Q 928 2378 1081 2264 
Q 1234 2150 1697 2047 
L 1894 2003 
Q 2506 1872 2764 1633 
Q 3022 1394 3022 966 
Q 3022 478 2636 193 
Q 2250 -91 1575 -91 
Q 1294 -91 989 -36 
Q 684 19 347 128 
L 347 722 
Q 666 556 975 473 
Q 1284 391 1588 391 
Q 1994 391 2212 530 
Q 2431 669 2431 922 
Q 2431 1156 2273 1281 
Q 2116 1406 1581 1522 
L 1381 1569 
Q 847 1681 609 1914 
Q 372 2147 372 2553 
Q 372 3047 722 3315 
Q 1072 3584 1716 3584 
Q 2034 3584 2315 3537 
Q 2597 3491 2834 3397 
z
" transform="scale(0.015625)"/>
        <path id="DejaVuSans-5f" d="M 3263 -1063 
L 3263 -1509 
L -63 -1509 
L -63 -1063 
L 3263 -1063 
z
" transform="scale(0.015625)"/>
        <path id="DejaVuSans-31" d="M 794 531 
L 1825 531 
L 1825 4091 
L 703 3866 
L 703 4441 
L 1819 4666 
L 2450 4666 
L 2450 531 
L 3481 531 
L 3481 0 
L 794 0 
L 794 531 
z
" transform="scale(0.015625)"/>
       </defs>
       <use xlink:href="#DejaVuSans-64"/>
       <use xlink:href="#DejaVuSans-65" x="63.476562"/>
       <use xlink:href="#DejaVuSans-6e" x="125"/>
       <use xlink:href="#DejaVuSans-73" x="188.378906"/>
       <use xlink:href="#DejaVuSans-65" x="240.478516"/>
       <use xlink:href="#DejaVuSans-5f" x="302.001953"/>
       <use xlink:href="#DejaVuSans-31" x="352.001953"/>
      </g>
     </g>
    </g>
    <g id="xtick_2">
     <g id="line2d_2">
      <g>
       <use xlink:href="#mcfdf852743" x="147.267188" y="170.28" style="stroke: #000000; stroke-width: 0.8"/>
      </g>
     </g>
     <g id="text_2">
      <!-- relu_2 -->
      <g transform="translate(135.363014 199.119034)rotate(-30)scale(0.1 -0.1)">
       <defs>
        <path id="DejaVuSans-72" d="M 2631 2963 
Q 2534 3019 2420 3045 
Q 2306 3072 2169 3072 
Q 1681 3072 1420 2755 
Q 1159 2438 1159 1844 
L 1159 0 
L 581 0 
L 581 3500 
L 1159 3500 
L 1159 2956 
Q 1341 3275 1631 3429 
Q 1922 3584 2338 3584 
Q 2397 3584 2469 3576 
Q 2541 3569 2628 3553 
L 2631 2963 
z
" transform="scale(0.015625)"/>
        <path id="DejaVuSans-6c" d="M 603 4863 
L 1178 4863 
L 1178 0 
L 603 0 
L 603 4863 
z
" transform="scale(0.015625)"/>
        <path id="DejaVuSans-75" d="M 544 1381 
L 544 3500 
L 1119 3500 
L 1119 1403 
Q 1119 906 1312 657 
Q 1506 409 1894 409 
Q 2359 409 2629 706 
Q 2900 1003 2900 1516 
L 2900 3500 
L 3475 3500 
L 3475 0 
L 2900 0 
L 2900 538 
Q 2691 219 2414 64 
Q 2138 -91 1772 -91 
Q 1169 -91 856 284 
Q 544 659 544 1381 
z
M 1991 3584 
L 1991 3584 
z
" transform="scale(0.015625)"/>
        <path id="DejaVuSans-32" d="M 1228 531 
L 3431 531 
L 3431 0 
L 469 0 
L 469 531 
Q 828 903 1448 1529 
Q 2069 2156 2228 2338 
Q 2531 2678 2651 2914 
Q 2772 3150 2772 3378 
Q 2772 3750 2511 3984 
Q 2250 4219 1831 4219 
Q 1534 4219 1204 4116 
Q 875 4013 500 3803 
L 500 4441 
Q 881 4594 1212 4672 
Q 1544 4750 1819 4750 
Q 2544 4750 2975 4387 
Q 3406 4025 3406 3419 
Q 3406 3131 3298 2873 
Q 3191 2616 2906 2266 
Q 2828 2175 2409 1742 
Q 1991 1309 1228 531 
z
" transform="scale(0.015625)"/>
       </defs>
       <use xlink:href="#DejaVuSans-72"/>
       <use xlink:href="#DejaVuSans-65" x="38.863281"/>
       <use xlink:href="#DejaVuSans-6c" x="100.386719"/>
       <use xlink:href="#DejaVuSans-75" x="128.169922"/>
       <use xlink:href="#DejaVuSans-5f" x="191.548828"/>
       <use xlink:href="#DejaVuSans-32" x="241.548828"/>
      </g>
     </g>
    </g>
    <g id="xtick_3">
     <g id="line2d_3">
      <g>
       <use xlink:href="#mcfdf852743" x="217.017188" y="170.28" style="stroke: #000000; stroke-width: 0.8"/>
      </g>
     </g>
     <g id="text_3">
      <!-- dense_3 -->
      <g transform="translate(200.329577 204.642471)rotate(-30)scale(0.1 -0.1)">
       <defs>
        <path id="DejaVuSans-33" d="M 2597 2516 
Q 3050 2419 3304 2112 
Q 3559 1806 3559 1356 
Q 3559 666 3084 287 
Q 2609 -91 1734 -91 
Q 1441 -91 1130 -33 
Q 819 25 488 141 
L 488 750 
Q 750 597 1062 519 
Q 1375 441 1716 441 
Q 2309 441 2620 675 
Q 2931 909 2931 1356 
Q 2931 1769 2642 2001 
Q 2353 2234 1838 2234 
L 1294 2234 
L 1294 2753 
L 1863 2753 
Q 2328 2753 2575 2939 
Q 2822 3125 2822 3475 
Q 2822 3834 2567 4026 
Q 2313 4219 1838 4219 
Q 1578 4219 1281 4162 
Q 984 4106 628 3988 
L 628 4550 
Q 988 4650 1302 4700 
Q 1616 4750 1894 4750 
Q 2613 4750 3031 4423 
Q 3450 4097 3450 3541 
Q 3450 3153 3228 2886 
Q 3006 2619 2597 2516 
z
" transform="scale(0.015625)"/>
       </defs>
       <use xlink:href="#DejaVuSans-64"/>
       <use xlink:href="#DejaVuSans-65" x="63.476562"/>
       <use xlink:href="#DejaVuSans-6e" x="125"/>
       <use xlink:href="#DejaVuSans-73" x="188.378906"/>
       <use xlink:href="#DejaVuSans-65" x="240.478516"/>
       <use xlink:href="#DejaVuSans-5f" x="302.001953"/>
       <use xlink:href="#DejaVuSans-33" x="352.001953"/>
      </g>
     </g>
    </g>
    <g id="xtick_4">
     <g id="line2d_4">
      <g>
       <use xlink:href="#mcfdf852743" x="286.767187" y="170.28" style="stroke: #000000; stroke-width: 0.8"/>
      </g>
     </g>
     <g id="text_4">
      <!-- relu_4 -->
      <g transform="translate(274.863014 199.119034)rotate(-30)scale(0.1 -0.1)">
       <defs>
        <path id="DejaVuSans-34" d="M 2419 4116 
L 825 1625 
L 2419 1625 
L 2419 4116 
z
M 2253 4666 
L 3047 4666 
L 3047 1625 
L 3713 1625 
L 3713 1100 
L 3047 1100 
L 3047 0 
L 2419 0 
L 2419 1100 
L 313 1100 
L 313 1709 
L 2253 4666 
z
" transform="scale(0.015625)"/>
       </defs>
       <use xlink:href="#DejaVuSans-72"/>
       <use xlink:href="#DejaVuSans-65" x="38.863281"/>
       <use xlink:href="#DejaVuSans-6c" x="100.386719"/>
       <use xlink:href="#DejaVuSans-75" x="128.169922"/>
       <use xlink:href="#DejaVuSans-5f" x="191.548828"/>
       <use xlink:href="#DejaVuSans-34" x="241.548828"/>
      </g>
     </g>
    </g>
    <g id="xtick_5">
     <g id="line2d_5">
      <g>
       <use xlink:href="#mcfdf852743" x="356.517187" y="170.28" style="stroke: #000000; stroke-width: 0.8"/>
      </g>
     </g>
     <g id="text_5">
      <!-- dense_5 -->
      <g transform="translate(339.829577 204.642471)rotate(-30)scale(0.1 -0.1)">
       <defs>
        <path id="DejaVuSans-35" d="M 691 4666 
L 3169 4666 
L 3169 4134 
L 1269 4134 
L 1269 2991 
Q 1406 3038 1543 3061 
Q 1681 3084 1819 3084 
Q 2600 3084 3056 2656 
Q 3513 2228 3513 1497 
Q 3513 744 3044 326 
Q 2575 -91 1722 -91 
Q 1428 -91 1123 -41 
Q 819 9 494 109 
L 494 744 
Q 775 591 1075 516 
Q 1375 441 1709 441 
Q 2250 441 2565 725 
Q 2881 1009 2881 1497 
Q 2881 1984 2565 2268 
Q 2250 2553 1709 2553 
Q 1456 2553 1204 2497 
Q 953 2441 691 2322 
L 691 4666 
z
" transform="scale(0.015625)"/>
       </defs>
       <use xlink:href="#DejaVuSans-64"/>
       <use xlink:href="#DejaVuSans-65" x="63.476562"/>
       <use xlink:href="#DejaVuSans-6e" x="125"/>
       <use xlink:href="#DejaVuSans-73" x="188.378906"/>
       <use xlink:href="#DejaVuSans-65" x="240.478516"/>
       <use xlink:href="#DejaVuSans-5f" x="302.001953"/>
       <use xlink:href="#DejaVuSans-35" x="352.001953"/>
      </g>
     </g>
    </g>
    <g id="xtick_6">
     <g id="line2d_6">
      <g>
       <use xlink:href="#mcfdf852743" x="426.267187" y="170.28" style="stroke: #000000; stroke-width: 0.8"/>
      </g>
     </g>
     <g id="text_6">
      <!-- relu_6 -->
      <g transform="translate(414.363014 199.119034)rotate(-30)scale(0.1 -0.1)">
       <defs>
        <path id="DejaVuSans-36" d="M 2113 2584 
Q 1688 2584 1439 2293 
Q 1191 2003 1191 1497 
Q 1191 994 1439 701 
Q 1688 409 2113 409 
Q 2538 409 2786 701 
Q 3034 994 3034 1497 
Q 3034 2003 2786 2293 
Q 2538 2584 2113 2584 
z
M 3366 4563 
L 3366 3988 
Q 3128 4100 2886 4159 
Q 2644 4219 2406 4219 
Q 1781 4219 1451 3797 
Q 1122 3375 1075 2522 
Q 1259 2794 1537 2939 
Q 1816 3084 2150 3084 
Q 2853 3084 3261 2657 
Q 3669 2231 3669 1497 
Q 3669 778 3244 343 
Q 2819 -91 2113 -91 
Q 1303 -91 875 529 
Q 447 1150 447 2328 
Q 447 3434 972 4092 
Q 1497 4750 2381 4750 
Q 2619 4750 2861 4703 
Q 3103 4656 3366 4563 
z
" transform="scale(0.015625)"/>
       </defs>
       <use xlink:href="#DejaVuSans-72"/>
       <use xlink:href="#DejaVuSans-65" x="38.863281"/>
       <use xlink:href="#DejaVuSans-6c" x="100.386719"/>
       <use xlink:href="#DejaVuSans-75" x="128.169922"/>
       <use xlink:href="#DejaVuSans-5f" x="191.548828"/>
       <use xlink:href="#DejaVuSans-36" x="241.548828"/>
      </g>
     </g>
    </g>
    <g id="xtick_7">
     <g id="line2d_7">
      <g>
       <use xlink:href="#mcfdf852743" x="496.017187" y="170.28" style="stroke: #000000; stroke-width: 0.8"/>
      </g>
     </g>
     <g id="text_7">
      <!-- dense_7 -->
      <g transform="translate(479.329577 204.642471)rotate(-30)scale(0.1 -0.1)">
       <defs>
        <path id="DejaVuSans-37" d="M 525 4666 
L 3525 4666 
L 3525 4397 
L 1831 0 
L 1172 0 
L 2766 4134 
L 525 4134 
L 525 4666 
z
" transform="scale(0.015625)"/>
       </defs>
       <use xlink:href="#DejaVuSans-64"/>
       <use xlink:href="#DejaVuSans-65" x="63.476562"/>
       <use xlink:href="#DejaVuSans-6e" x="125"/>
       <use xlink:href="#DejaVuSans-73" x="188.378906"/>
       <use xlink:href="#DejaVuSans-65" x="240.478516"/>
       <use xlink:href="#DejaVuSans-5f" x="302.001953"/>
       <use xlink:href="#DejaVuSans-37" x="352.001953"/>
      </g>
     </g>
    </g>
    <g id="xtick_8">
     <g id="line2d_8">
      <g>
       <use xlink:href="#mcfdf852743" x="565.767187" y="170.28" style="stroke: #000000; stroke-width: 0.8"/>
      </g>
     </g>
     <g id="text_8">
      <!-- relu_8 -->
      <g transform="translate(553.863014 199.119034)rotate(-30)scale(0.1 -0.1)">
       <defs>
        <path id="DejaVuSans-38" d="M 2034 2216 
Q 1584 2216 1326 1975 
Q 1069 1734 1069 1313 
Q 1069 891 1326 650 
Q 1584 409 2034 409 
Q 2484 409 2743 651 
Q 3003 894 3003 1313 
Q 3003 1734 2745 1975 
Q 2488 2216 2034 2216 
z
M 1403 2484 
Q 997 2584 770 2862 
Q 544 3141 544 3541 
Q 544 4100 942 4425 
Q 1341 4750 2034 4750 
Q 2731 4750 3128 4425 
Q 3525 4100 3525 3541 
Q 3525 3141 3298 2862 
Q 3072 2584 2669 2484 
Q 3125 2378 3379 2068 
Q 3634 1759 3634 1313 
Q 3634 634 3220 271 
Q 2806 -91 2034 -91 
Q 1263 -91 848 271 
Q 434 634 434 1313 
Q 434 1759 690 2068 
Q 947 2378 1403 2484 
z
M 1172 3481 
Q 1172 3119 1398 2916 
Q 1625 2713 2034 2713 
Q 2441 2713 2670 2916 
Q 2900 3119 2900 3481 
Q 2900 3844 2670 4047 
Q 2441 4250 2034 4250 
Q 1625 4250 1398 4047 
Q 1172 3844 1172 3481 
z
" transform="scale(0.015625)"/>
       </defs>
       <use xlink:href="#DejaVuSans-72"/>
       <use xlink:href="#DejaVuSans-65" x="38.863281"/>
       <use xlink:href="#DejaVuSans-6c" x="100.386719"/>
       <use xlink:href="#DejaVuSans-75" x="128.169922"/>
       <use xlink:href="#DejaVuSans-5f" x="191.548828"/>
       <use xlink:href="#DejaVuSans-38" x="241.548828"/>
      </g>
     </g>
    </g>
   </g>
   <g id="matplotlib.axis_2">
    <g id="ytick_1">
     <g id="line2d_9">
      <defs>
       <path id="m6739cef37a" d="M 0 0 
L -3.5 0 
" style="stroke: #000000; stroke-width: 0.8"/>
      </defs>
      <g>
       <use xlink:href="#m6739cef37a" x="42.642188" y="140.696386" style="stroke: #000000; stroke-width: 0.8"/>
      </g>
     </g>
     <g id="text_9">
      <!-- 2 -->
      <g transform="translate(20.9 144.495605)scale(0.1 -0.1)">
       <defs>
        <path id="DejaVuSans-2212" d="M 678 2272 
L 4684 2272 
L 4684 1741 
L 678 1741 
L 678 2272 
z
" transform="scale(0.015625)"/>
       </defs>
       <use xlink:href="#DejaVuSans-2212"/>
       <use xlink:href="#DejaVuSans-32" x="83.789062"/>
      </g>
     </g>
    </g>
    <g id="ytick_2">
     <g id="line2d_10">
      <g>
       <use xlink:href="#m6739cef37a" x="42.642188" y="110.309066" style="stroke: #000000; stroke-width: 0.8"/>
      </g>
     </g>
     <g id="text_10">
      <!-- 0 -->
      <g transform="translate(29.279688 114.108285)scale(0.1 -0.1)">
       <defs>
        <path id="DejaVuSans-30" d="M 2034 4250 
Q 1547 4250 1301 3770 
Q 1056 3291 1056 2328 
Q 1056 1369 1301 889 
Q 1547 409 2034 409 
Q 2525 409 2770 889 
Q 3016 1369 3016 2328 
Q 3016 3291 2770 3770 
Q 2525 4250 2034 4250 
z
M 2034 4750 
Q 2819 4750 3233 4129 
Q 3647 3509 3647 2328 
Q 3647 1150 3233 529 
Q 2819 -91 2034 -91 
Q 1250 -91 836 529 
Q 422 1150 422 2328 
Q 422 3509 836 4129 
Q 1250 4750 2034 4750 
z
" transform="scale(0.015625)"/>
       </defs>
       <use xlink:href="#DejaVuSans-30"/>
      </g>
     </g>
    </g>
    <g id="ytick_3">
     <g id="line2d_11">
      <g>
       <use xlink:href="#m6739cef37a" x="42.642188" y="79.921747" style="stroke: #000000; stroke-width: 0.8"/>
      </g>
     </g>
     <g id="text_11">
      <!-- 2 -->
      <g transform="translate(29.279688 83.720965)scale(0.1 -0.1)">
       <use xlink:href="#DejaVuSans-32"/>
      </g>
     </g>
    </g>
    <g id="ytick_4">
     <g id="line2d_12">
      <g>
       <use xlink:href="#m6739cef37a" x="42.642188" y="49.534427" style="stroke: #000000; stroke-width: 0.8"/>
      </g>
     </g>
     <g id="text_12">
      <!-- 4 -->
      <g transform="translate(29.279688 53.333646)scale(0.1 -0.1)">
       <use xlink:href="#DejaVuSans-34"/>
      </g>
     </g>
    </g>
    <g id="ytick_5">
     <g id="line2d_13">
      <g>
       <use xlink:href="#m6739cef37a" x="42.642188" y="19.147107" style="stroke: #000000; stroke-width: 0.8"/>
      </g>
     </g>
     <g id="text_13">
      <!-- 6 -->
      <g transform="translate(29.279688 22.946326)scale(0.1 -0.1)">
       <use xlink:href="#DejaVuSans-36"/>
      </g>
     </g>
    </g>
    <g id="text_14">
     <!-- ${\phi}$ -->
     <g transform="translate(14.8 92.04)rotate(-90)scale(0.1 -0.1)">
      <defs>
       <path id="DejaVuSans-Oblique-3d5" d="M 2991 4863 
L 2738 3572 
Q 3363 3572 3684 3094 
Q 4016 2606 3850 1747 
Q 3681 888 3159 400 
Q 2653 -78 2028 -78 
L 1784 -1331 
L 1213 -1331 
L 1456 -78 
Q 834 -78 509 400 
Q 178 888 347 1747 
Q 513 2606 1034 3094 
Q 1544 3572 2166 3572 
L 2419 4863 
L 2991 4863 
z
M 2128 434 
Q 2481 434 2784 756 
Q 3116 1116 3244 1747 
Q 3369 2372 3169 2738 
Q 2991 3059 2638 3059 
L 2128 434 
z
M 1556 434 
L 2066 3059 
Q 1716 3059 1413 2738 
Q 1072 2372 953 1747 
Q 834 1116 1028 756 
Q 1203 434 1556 434 
z
" transform="scale(0.015625)"/>
      </defs>
      <use xlink:href="#DejaVuSans-Oblique-3d5" transform="translate(0 0.015625)"/>
     </g>
    </g>
   </g>
   <g id="line2d_14">
    <path d="M 77.517188 130.837868 
L 77.517188 91.069975 
" clip-path="url(#pe6b41b486d)" style="fill: none; stroke: #3d3d3d; stroke-width: 1.5; stroke-linecap: square"/>
   </g>
   <g id="line2d_15">
    <path d="M 77.517188 115.924932 
L 77.517188 105.982934 
" clip-path="url(#pe6b41b486d)" style="fill: none; stroke: #3d3d3d; stroke-width: 4.5; stroke-linecap: square"/>
   </g>
   <g id="line2d_16">
    <path d="M 147.267188 110.309066 
L 147.267188 99.493742 
" clip-path="url(#pe6b41b486d)" style="fill: none; stroke: #3d3d3d; stroke-width: 1.5; stroke-linecap: square"/>
   </g>
   <g id="line2d_17">
    <path d="M 147.267188 110.309066 
L 147.267188 105.982934 
" clip-path="url(#pe6b41b486d)" style="fill: none; stroke: #3d3d3d; stroke-width: 4.5; stroke-linecap: square"/>
   </g>
   <g id="line2d_18">
    <path d="M 217.017188 130.193429 
L 217.017188 88.530811 
" clip-path="url(#pe6b41b486d)" style="fill: none; stroke: #3d3d3d; stroke-width: 1.5; stroke-linecap: square"/>
   </g>
   <g id="line2d_19">
    <path d="M 217.017188 114.57039 
L 217.017188 104.154402 
" clip-path="url(#pe6b41b486d)" style="fill: none; stroke: #3d3d3d; stroke-width: 4.5; stroke-linecap: square"/>
   </g>
   <g id="line2d_20">
    <path d="M 286.767187 110.309066 
L 286.767187 94.922435 
" clip-path="url(#pe6b41b486d)" style="fill: none; stroke: #3d3d3d; stroke-width: 1.5; stroke-linecap: square"/>
   </g>
   <g id="line2d_21">
    <path d="M 286.767187 110.309066 
L 286.767187 104.154402 
" clip-path="url(#pe6b41b486d)" style="fill: none; stroke: #3d3d3d; stroke-width: 4.5; stroke-linecap: square"/>
   </g>
   <g id="line2d_22">
    <path d="M 356.517187 131.958376 
L 356.517187 84.151748 
" clip-path="url(#pe6b41b486d)" style="fill: none; stroke: #3d3d3d; stroke-width: 1.5; stroke-linecap: square"/>
   </g>
   <g id="line2d_23">
    <path d="M 356.517187 114.030932 
L 356.517187 102.079124 
" clip-path="url(#pe6b41b486d)" style="fill: none; stroke: #3d3d3d; stroke-width: 4.5; stroke-linecap: square"/>
   </g>
   <g id="line2d_24">
    <path d="M 426.267187 110.309066 
L 426.267187 89.734285 
" clip-path="url(#pe6b41b486d)" style="fill: none; stroke: #3d3d3d; stroke-width: 1.5; stroke-linecap: square"/>
   </g>
   <g id="line2d_25">
    <path d="M 426.267187 110.309066 
L 426.267187 102.079124 
" clip-path="url(#pe6b41b486d)" style="fill: none; stroke: #3d3d3d; stroke-width: 4.5; stroke-linecap: square"/>
   </g>
   <g id="line2d_26">
    <path d="M 496.017187 150.44071 
L 496.017187 63.086026 
" clip-path="url(#pe6b41b486d)" style="fill: none; stroke: #3d3d3d; stroke-width: 1.5; stroke-linecap: square"/>
   </g>
   <g id="line2d_27">
    <path d="M 496.017187 117.684692 
L 496.017187 95.844266 
" clip-path="url(#pe6b41b486d)" style="fill: none; stroke: #3d3d3d; stroke-width: 4.5; stroke-linecap: square"/>
   </g>
   <g id="line2d_28">
    <path d="M 565.767187 110.309066 
L 565.767187 74.147093 
" clip-path="url(#pe6b41b486d)" style="fill: none; stroke: #3d3d3d; stroke-width: 1.5; stroke-linecap: square"/>
   </g>
   <g id="line2d_29">
    <path d="M 565.767187 110.309066 
L 565.767187 95.844266 
" clip-path="url(#pe6b41b486d)" style="fill: none; stroke: #3d3d3d; stroke-width: 4.5; stroke-linecap: square"/>
   </g>
   <g id="patch_3">
    <path d="M 42.642188 170.28 
L 42.642188 7.2 
" style="fill: none; stroke: #000000; stroke-width: 0.8; stroke-linejoin: miter; stroke-linecap: square"/>
   </g>
   <g id="patch_4">
    <path d="M 600.642187 170.28 
L 600.642187 7.2 
" style="fill: none; stroke: #000000; stroke-width: 0.8; stroke-linejoin: miter; stroke-linecap: square"/>
   </g>
   <g id="patch_5">
    <path d="M 42.642188 170.28 
L 600.642187 170.28 
" style="fill: none; stroke: #000000; stroke-width: 0.8; stroke-linejoin: miter; stroke-linecap: square"/>
   </g>
   <g id="patch_6">
    <path d="M 42.642188 7.2 
L 600.642187 7.2 
" style="fill: none; stroke: #000000; stroke-width: 0.8; stroke-linejoin: miter; stroke-linecap: square"/>
   </g>
   <g id="PathCollection_1">
    <defs>
     <path id="me53e5ee60d" d="M 0 1.5 
C 0.397805 1.5 0.77937 1.341951 1.06066 1.06066 
C 1.341951 0.77937 1.5 0.397805 1.5 0 
C 1.5 -0.397805 1.341951 -0.77937 1.06066 -1.06066 
C 0.77937 -1.341951 0.397805 -1.5 0 -1.5 
C -0.397805 -1.5 -0.77937 -1.341951 -1.06066 -1.06066 
C -1.341951 -0.77937 -1.5 -0.397805 -1.5 0 
C -1.5 0.397805 -1.341951 0.77937 -1.06066 1.06066 
C -0.77937 1.341951 -0.397805 1.5 0 1.5 
z
" style="stroke: #3d3d3d"/>
    </defs>
    <g clip-path="url(#pe6b41b486d)">
     <use xlink:href="#me53e5ee60d" x="77.517188" y="110.800223" style="fill: #ffffff; stroke: #3d3d3d"/>
    </g>
   </g>
   <g id="PathCollection_2">
    <g clip-path="url(#pe6b41b486d)">
     <use xlink:href="#me53e5ee60d" x="147.267188" y="110.309066" style="fill: #ffffff; stroke: #3d3d3d"/>
    </g>
   </g>
   <g id="PathCollection_3">
    <g clip-path="url(#pe6b41b486d)">
     <use xlink:href="#me53e5ee60d" x="217.017188" y="109.685225" style="fill: #ffffff; stroke: #3d3d3d"/>
    </g>
   </g>
   <g id="PathCollection_4">
    <g clip-path="url(#pe6b41b486d)">
     <use xlink:href="#me53e5ee60d" x="286.767187" y="109.685225" style="fill: #ffffff; stroke: #3d3d3d"/>
    </g>
   </g>
   <g id="PathCollection_5">
    <g clip-path="url(#pe6b41b486d)">
     <use xlink:href="#me53e5ee60d" x="356.517187" y="108.471881" style="fill: #ffffff; stroke: #3d3d3d"/>
    </g>
   </g>
   <g id="PathCollection_6">
    <g clip-path="url(#pe6b41b486d)">
     <use xlink:href="#me53e5ee60d" x="426.267187" y="108.471881" style="fill: #ffffff; stroke: #3d3d3d"/>
    </g>
   </g>
   <g id="PathCollection_7">
    <g clip-path="url(#pe6b41b486d)">
     <use xlink:href="#me53e5ee60d" x="496.017187" y="109.046123" style="fill: #ffffff; stroke: #3d3d3d"/>
    </g>
   </g>
   <g id="PathCollection_8">
    <g clip-path="url(#pe6b41b486d)">
     <use xlink:href="#me53e5ee60d" x="565.767187" y="109.046123" style="fill: #ffffff; stroke: #3d3d3d"/>
    </g>
   </g>
  </g>
 </g>
 <defs>
  <clipPath id="pe6b41b486d">
   <rect x="42.642188" y="7.2" width="558" height="163.08"/>
  </clipPath>
 </defs>
</svg>
