<?xml version="1.0" encoding="utf-8" standalone="no"?>
<!DOCTYPE svg PUBLIC "-//W3C//DTD SVG 1.1//EN"
  "http://www.w3.org/Graphics/SVG/1.1/DTD/svg11.dtd">
<svg xmlns:xlink="http://www.w3.org/1999/xlink" width="630.085938pt" height="194.43625pt" viewBox="0 0 630.085938 194.43625" xmlns="http://www.w3.org/2000/svg" version="1.1">
 <metadata>
  <rdf:RDF xmlns:dc="http://purl.org/dc/elements/1.1/" xmlns:cc="http://creativecommons.org/ns#" xmlns:rdf="http://www.w3.org/1999/02/22-rdf-syntax-ns#">
   <cc:Work>
    <dc:type rdf:resource="http://purl.org/dc/dcmitype/StillImage"/>
    <dc:date>2022-07-08T02:20:49.448250</dc:date>
    <dc:format>image/svg+xml</dc:format>
    <dc:creator>
     <cc:Agent>
      <dc:title>Matplotlib v3.5.1, https://matplotlib.org/</dc:title>
     </cc:Agent>
    </dc:creator>
   </cc:Work>
  </rdf:RDF>
 </metadata>
 <defs>
  <style type="text/css">*{stroke-linejoin: round; stroke-linecap: butt}</style>
 </defs>
 <g id="figure_1">
  <g id="patch_1">
   <path d="M 0 194.43625 
L 630.085938 194.43625 
L 630.085938 0 
L 0 0 
L 0 194.43625 
z
" style="fill: none"/>
  </g>
  <g id="axes_1">
   <g id="patch_2">
    <path d="M 64.885938 170.28 
L 622.885937 170.28 
L 622.885937 7.2 
L 64.885938 7.2 
z
" style="fill: #ffffff"/>
   </g>
   <g id="PolyCollection_1">
    <defs>
     <path id="m54f3f71dc9" d="M 120.686109 -78.417955 
L 120.685766 -78.417955 
L 120.682672 -79.120748 
L 120.684274 -79.823542 
L 120.684125 -80.526335 
L 120.684757 -81.229128 
L 120.682367 -81.931922 
L 120.679088 -82.634715 
L 120.679123 -83.337508 
L 120.677494 -84.040302 
L 120.677905 -84.743095 
L 120.676399 -85.445889 
L 120.673386 -86.148682 
L 120.670673 -86.851475 
L 120.658626 -87.554269 
L 120.652915 -88.257062 
L 120.645975 -88.959855 
L 120.630941 -89.662649 
L 120.614081 -90.365442 
L 120.583785 -91.068235 
L 120.573983 -91.771029 
L 120.547397 -92.473822 
L 120.51268 -93.176616 
L 120.448603 -93.879409 
L 120.359629 -94.582202 
L 120.267503 -95.284996 
L 120.176954 -95.987789 
L 119.978768 -96.690582 
L 119.744713 -97.393376 
L 119.496495 -98.096169 
L 119.161167 -98.798962 
L 118.723721 -99.501756 
L 118.132777 -100.204549 
L 117.375047 -100.907343 
L 116.361513 -101.610136 
L 115.328725 -102.312929 
L 114.019294 -103.015723 
L 112.294577 -103.718516 
L 109.936199 -104.421309 
L 106.877498 -105.124103 
L 103.469996 -105.826896 
L 97.786879 -106.529689 
L 76.045938 -107.232483 
L 80.028405 -107.935276 
L 99.114364 -108.63807 
L 104.70042 -109.340863 
L 108.180987 -110.043656 
L 110.868997 -110.74645 
L 113.013193 -111.449243 
L 114.594889 -112.152036 
L 115.952176 -112.85483 
L 116.943177 -113.557623 
L 117.744463 -114.260416 
L 118.48404 -114.96321 
L 119.01358 -115.666003 
L 119.400472 -116.368797 
L 119.722484 -117.07159 
L 119.966767 -117.774383 
L 120.178536 -118.477177 
L 120.311736 -119.17997 
L 120.380978 -119.882763 
L 120.467283 -120.585557 
L 120.521112 -121.28835 
L 120.543238 -121.991143 
L 120.5626 -122.693937 
L 120.573285 -123.39673 
L 120.606014 -124.099524 
L 120.6342 -124.802317 
L 120.640767 -125.50511 
L 120.646873 -126.207904 
L 120.65665 -126.910697 
L 120.671642 -127.61349 
L 120.675509 -128.316284 
L 120.676455 -129.019077 
L 120.680389 -129.72187 
L 120.678821 -130.424664 
L 120.677121 -131.127457 
L 120.679745 -131.830251 
L 120.681462 -132.533044 
L 120.682249 -133.235837 
L 120.681003 -133.938631 
L 120.682612 -134.641424 
L 120.682353 -135.344217 
L 120.682473 -136.047011 
L 120.682765 -136.749804 
L 120.679218 -137.452597 
L 120.679649 -138.155391 
L 120.680209 -138.858184 
L 120.682192 -139.560978 
L 120.683554 -140.263771 
L 120.682827 -140.966564 
L 120.680968 -141.669358 
L 120.683347 -142.372151 
L 120.682823 -143.074944 
L 120.684678 -143.777738 
L 120.685542 -144.480531 
L 120.685619 -145.183324 
L 120.684799 -145.886118 
L 120.683943 -146.588911 
L 120.685142 -147.291705 
L 120.685842 -147.994498 
L 120.686033 -147.994498 
L 120.686033 -147.994498 
L 120.686733 -147.291705 
L 120.687932 -146.588911 
L 120.687076 -145.886118 
L 120.686256 -145.183324 
L 120.686333 -144.480531 
L 120.687197 -143.777738 
L 120.689052 -143.074944 
L 120.688528 -142.372151 
L 120.690907 -141.669358 
L 120.689048 -140.966564 
L 120.688321 -140.263771 
L 120.689683 -139.560978 
L 120.691666 -138.858184 
L 120.692226 -138.155391 
L 120.692657 -137.452597 
L 120.68911 -136.749804 
L 120.689402 -136.047011 
L 120.689522 -135.344217 
L 120.689263 -134.641424 
L 120.690872 -133.938631 
L 120.689626 -133.235837 
L 120.690413 -132.533044 
L 120.69213 -131.830251 
L 120.694754 -131.127457 
L 120.693054 -130.424664 
L 120.691486 -129.72187 
L 120.69542 -129.019077 
L 120.696366 -128.316284 
L 120.700233 -127.61349 
L 120.715225 -126.910697 
L 120.725002 -126.207904 
L 120.731108 -125.50511 
L 120.737675 -124.802317 
L 120.765861 -124.099524 
L 120.79859 -123.39673 
L 120.809275 -122.693937 
L 120.828637 -121.991143 
L 120.850763 -121.28835 
L 120.904592 -120.585557 
L 120.990897 -119.882763 
L 121.060139 -119.17997 
L 121.193339 -118.477177 
L 121.405108 -117.774383 
L 121.649391 -117.07159 
L 121.971403 -116.368797 
L 122.358295 -115.666003 
L 122.887835 -114.96321 
L 123.627412 -114.260416 
L 124.428698 -113.557623 
L 125.419699 -112.85483 
L 126.776986 -112.152036 
L 128.358682 -111.449243 
L 130.502878 -110.74645 
L 133.190888 -110.043656 
L 136.671455 -109.340863 
L 142.257511 -108.63807 
L 161.34347 -107.935276 
L 165.325938 -107.232483 
L 143.584996 -106.529689 
L 137.901879 -105.826896 
L 134.494377 -105.124103 
L 131.435676 -104.421309 
L 129.077298 -103.718516 
L 127.352581 -103.015723 
L 126.04315 -102.312929 
L 125.010362 -101.610136 
L 123.996828 -100.907343 
L 123.239098 -100.204549 
L 122.648154 -99.501756 
L 122.210708 -98.798962 
L 121.87538 -98.096169 
L 121.627162 -97.393376 
L 121.393107 -96.690582 
L 121.194921 -95.987789 
L 121.104372 -95.284996 
L 121.012246 -94.582202 
L 120.923272 -93.879409 
L 120.859195 -93.176616 
L 120.824478 -92.473822 
L 120.797892 -91.771029 
L 120.78809 -91.068235 
L 120.757794 -90.365442 
L 120.740934 -89.662649 
L 120.7259 -88.959855 
L 120.71896 -88.257062 
L 120.713249 -87.554269 
L 120.701202 -86.851475 
L 120.698489 -86.148682 
L 120.695476 -85.445889 
L 120.69397 -84.743095 
L 120.694381 -84.040302 
L 120.692752 -83.337508 
L 120.692787 -82.634715 
L 120.689508 -81.931922 
L 120.687118 -81.229128 
L 120.68775 -80.526335 
L 120.687601 -79.823542 
L 120.689203 -79.120748 
L 120.686109 -78.417955 
z
" style="stroke: #414141; stroke-width: 1.5"/>
    </defs>
    <g clip-path="url(#p51ef43e7a1)">
     <use xlink:href="#m54f3f71dc9" x="0" y="194.43625" style="fill: #845b53; stroke: #414141; stroke-width: 1.5"/>
    </g>
   </g>
   <g id="PolyCollection_2">
    <defs>
     <path id="m9a10271f24" d="M 232.286123 -38.708327 
L 232.285752 -38.708327 
L 232.285251 -40.119573 
L 232.285937 -41.530819 
L 232.285095 -42.942066 
L 232.28521 -44.353312 
L 232.285937 -45.764559 
L 232.285938 -47.175805 
L 232.285938 -48.587051 
L 232.285938 -49.998298 
L 232.285937 -51.409544 
L 232.285883 -52.820791 
L 232.284818 -54.232037 
L 232.285916 -55.643283 
L 232.284182 -57.05453 
L 232.285591 -58.465776 
L 232.285933 -59.877023 
L 232.283061 -61.288269 
L 232.284547 -62.699515 
L 232.284548 -64.110762 
L 232.283187 -65.522008 
L 232.285141 -66.933255 
L 232.279597 -68.344501 
L 232.279203 -69.755747 
L 232.276586 -71.166994 
L 232.279112 -72.57824 
L 232.276268 -73.989487 
L 232.27827 -75.400733 
L 232.277176 -76.81198 
L 232.268288 -78.223226 
L 232.260129 -79.634472 
L 232.257892 -81.045719 
L 232.256897 -82.456965 
L 232.243491 -83.868212 
L 232.209621 -85.279458 
L 232.197814 -86.690704 
L 232.154022 -88.101951 
L 232.126525 -89.513197 
L 232.070352 -90.924444 
L 231.965633 -92.33569 
L 231.819864 -93.746936 
L 231.678773 -95.158183 
L 231.415919 -96.569429 
L 230.992021 -97.980676 
L 230.254016 -99.391922 
L 229.204149 -100.803168 
L 227.103734 -102.214415 
L 223.61336 -103.625661 
L 216.93058 -105.036908 
L 208.140799 -106.448154 
L 204.661731 -107.8594 
L 212.254388 -109.270647 
L 220.004777 -110.681893 
L 225.071979 -112.09314 
L 227.984031 -113.504386 
L 229.710519 -114.915633 
L 230.701447 -116.326879 
L 231.335899 -117.738125 
L 231.663836 -119.149372 
L 231.867913 -120.560618 
L 231.968509 -121.971865 
L 232.04472 -123.383111 
L 232.116472 -124.794357 
L 232.141889 -126.205604 
L 232.198249 -127.61685 
L 232.212224 -129.028097 
L 232.237773 -130.439343 
L 232.244867 -131.850589 
L 232.258448 -133.261836 
L 232.255902 -134.673082 
L 232.257229 -136.084329 
L 232.270736 -137.495575 
L 232.27575 -138.906821 
L 232.271738 -140.318068 
L 232.274682 -141.729314 
L 232.274538 -143.140561 
L 232.282378 -144.551807 
L 232.281612 -145.963053 
L 232.280197 -147.3743 
L 232.284933 -148.785546 
L 232.285274 -150.196793 
L 232.282908 -151.608039 
L 232.284608 -153.019285 
L 232.285892 -154.430532 
L 232.284913 -155.841778 
L 232.285007 -157.253025 
L 232.285356 -158.664271 
L 232.285937 -160.075518 
L 232.285938 -161.486764 
L 232.285937 -162.89801 
L 232.285874 -164.309257 
L 232.283968 -165.720503 
L 232.285828 -167.13175 
L 232.285937 -168.542996 
L 232.285937 -169.954242 
L 232.285928 -171.365489 
L 232.284509 -172.776735 
L 232.284827 -174.187982 
L 232.28585 -175.599228 
L 232.284277 -177.010474 
L 232.285752 -178.421721 
L 232.286123 -178.421721 
L 232.286123 -178.421721 
L 232.287598 -177.010474 
L 232.286025 -175.599228 
L 232.287048 -174.187982 
L 232.287366 -172.776735 
L 232.285947 -171.365489 
L 232.285938 -169.954242 
L 232.285938 -168.542996 
L 232.286047 -167.13175 
L 232.287907 -165.720503 
L 232.286001 -164.309257 
L 232.285938 -162.89801 
L 232.285938 -161.486764 
L 232.285938 -160.075518 
L 232.286519 -158.664271 
L 232.286868 -157.253025 
L 232.286962 -155.841778 
L 232.285983 -154.430532 
L 232.287267 -153.019285 
L 232.288967 -151.608039 
L 232.286601 -150.196793 
L 232.286942 -148.785546 
L 232.291678 -147.3743 
L 232.290263 -145.963053 
L 232.289497 -144.551807 
L 232.297337 -143.140561 
L 232.297193 -141.729314 
L 232.300137 -140.318068 
L 232.296125 -138.906821 
L 232.301139 -137.495575 
L 232.314646 -136.084329 
L 232.315973 -134.673082 
L 232.313427 -133.261836 
L 232.327008 -131.850589 
L 232.334102 -130.439343 
L 232.359651 -129.028097 
L 232.373626 -127.61685 
L 232.429986 -126.205604 
L 232.455403 -124.794357 
L 232.527155 -123.383111 
L 232.603366 -121.971865 
L 232.703962 -120.560618 
L 232.908039 -119.149372 
L 233.235976 -117.738125 
L 233.870428 -116.326879 
L 234.861356 -114.915633 
L 236.587844 -113.504386 
L 239.499896 -112.09314 
L 244.567098 -110.681893 
L 252.317487 -109.270647 
L 259.910144 -107.8594 
L 256.431076 -106.448154 
L 247.641295 -105.036908 
L 240.958515 -103.625661 
L 237.468141 -102.214415 
L 235.367726 -100.803168 
L 234.317859 -99.391922 
L 233.579854 -97.980676 
L 233.155956 -96.569429 
L 232.893102 -95.158183 
L 232.752011 -93.746936 
L 232.606242 -92.33569 
L 232.501523 -90.924444 
L 232.44535 -89.513197 
L 232.417853 -88.101951 
L 232.374061 -86.690704 
L 232.362254 -85.279458 
L 232.328384 -83.868212 
L 232.314978 -82.456965 
L 232.313983 -81.045719 
L 232.311746 -79.634472 
L 232.303587 -78.223226 
L 232.294699 -76.81198 
L 232.293605 -75.400733 
L 232.295607 -73.989487 
L 232.292763 -72.57824 
L 232.295289 -71.166994 
L 232.292672 -69.755747 
L 232.292278 -68.344501 
L 232.286734 -66.933255 
L 232.288688 -65.522008 
L 232.287327 -64.110762 
L 232.287328 -62.699515 
L 232.288814 -61.288269 
L 232.285942 -59.877023 
L 232.286284 -58.465776 
L 232.287693 -57.05453 
L 232.285959 -55.643283 
L 232.287057 -54.232037 
L 232.285992 -52.820791 
L 232.285938 -51.409544 
L 232.285938 -49.998298 
L 232.285938 -48.587051 
L 232.285938 -47.175805 
L 232.285938 -45.764559 
L 232.286665 -44.353312 
L 232.28678 -42.942066 
L 232.285938 -41.530819 
L 232.286624 -40.119573 
L 232.286123 -38.708327 
z
" style="stroke: #414141; stroke-width: 1.5"/>
    </defs>
    <g clip-path="url(#p51ef43e7a1)">
     <use xlink:href="#m9a10271f24" x="0" y="194.43625" style="fill: #845b53; stroke: #414141; stroke-width: 1.5"/>
    </g>
   </g>
   <g id="PolyCollection_3">
    <defs>
     <path id="m9d271b6c73" d="M 343.886236 -56.833523 
L 343.885639 -56.833523 
L 343.883776 -57.825057 
L 343.885034 -58.816591 
L 343.883021 -59.808125 
L 343.883188 -60.799658 
L 343.885707 -61.791192 
L 343.885937 -62.782726 
L 343.885937 -63.77426 
L 343.885938 -64.765793 
L 343.885938 -65.757327 
L 343.885938 -66.748861 
L 343.885937 -67.740395 
L 343.885937 -68.731929 
L 343.885808 -69.723462 
L 343.882487 -70.714996 
L 343.879856 -71.70653 
L 343.877543 -72.698064 
L 343.871047 -73.689597 
L 343.875102 -74.681131 
L 343.870631 -75.672665 
L 343.877239 -76.664199 
L 343.874369 -77.655733 
L 343.867998 -78.647266 
L 343.865397 -79.6388 
L 343.860786 -80.630334 
L 343.857701 -81.621868 
L 343.845105 -82.613401 
L 343.840197 -83.604935 
L 343.839318 -84.596469 
L 343.816013 -85.588003 
L 343.806097 -86.579537 
L 343.774439 -87.57107 
L 343.742517 -88.562604 
L 343.703081 -89.554138 
L 343.673835 -90.545672 
L 343.621185 -91.537205 
L 343.476792 -92.528739 
L 343.356796 -93.520273 
L 343.171269 -94.511807 
L 342.941203 -95.503341 
L 342.687015 -96.494874 
L 342.313287 -97.486408 
L 341.711912 -98.477942 
L 340.997373 -99.469476 
L 339.937362 -100.461009 
L 338.500739 -101.452543 
L 336.654846 -102.444077 
L 334.232673 -103.435611 
L 331.128916 -104.427145 
L 327.407392 -105.418678 
L 324.285868 -106.410212 
L 322.52225 -107.401746 
L 323.123123 -108.39328 
L 326.251525 -109.384813 
L 329.872661 -110.376347 
L 333.046724 -111.367881 
L 335.73844 -112.359415 
L 338.042492 -113.350949 
L 339.678535 -114.342482 
L 340.82729 -115.334016 
L 341.635363 -116.32555 
L 342.212841 -117.317084 
L 342.648524 -118.308617 
L 342.901906 -119.300151 
L 343.189986 -120.291685 
L 343.406016 -121.283219 
L 343.505006 -122.274753 
L 343.592077 -123.266286 
L 343.653264 -124.25782 
L 343.697151 -125.249354 
L 343.726228 -126.240888 
L 343.777217 -127.232421 
L 343.803985 -128.223955 
L 343.790029 -129.215489 
L 343.824325 -130.207023 
L 343.848577 -131.198557 
L 343.851671 -132.19009 
L 343.867385 -133.181624 
L 343.87801 -134.173158 
L 343.876709 -135.164692 
L 343.878639 -136.156225 
L 343.877682 -137.147759 
L 343.877087 -138.139293 
L 343.878168 -139.130827 
L 343.873862 -140.122361 
L 343.880113 -141.113894 
L 343.881387 -142.105428 
L 343.885484 -143.096962 
L 343.885801 -144.088496 
L 343.884061 -145.080029 
L 343.884898 -146.071563 
L 343.885915 -147.063097 
L 343.885937 -148.054631 
L 343.885937 -149.046165 
L 343.885937 -150.037698 
L 343.885772 -151.029232 
L 343.883965 -152.020766 
L 343.884386 -153.0123 
L 343.88376 -154.003833 
L 343.885639 -154.995367 
L 343.886236 -154.995367 
L 343.886236 -154.995367 
L 343.888115 -154.003833 
L 343.887489 -153.0123 
L 343.88791 -152.020766 
L 343.886103 -151.029232 
L 343.885938 -150.037698 
L 343.885938 -149.046165 
L 343.885938 -148.054631 
L 343.88596 -147.063097 
L 343.886977 -146.071563 
L 343.887814 -145.080029 
L 343.886074 -144.088496 
L 343.886391 -143.096962 
L 343.890488 -142.105428 
L 343.891762 -141.113894 
L 343.898013 -140.122361 
L 343.893707 -139.130827 
L 343.894788 -138.139293 
L 343.894193 -137.147759 
L 343.893236 -136.156225 
L 343.895166 -135.164692 
L 343.893865 -134.173158 
L 343.90449 -133.181624 
L 343.920204 -132.19009 
L 343.923298 -131.198557 
L 343.94755 -130.207023 
L 343.981846 -129.215489 
L 343.96789 -128.223955 
L 343.994658 -127.232421 
L 344.045647 -126.240888 
L 344.074724 -125.249354 
L 344.118611 -124.25782 
L 344.179798 -123.266286 
L 344.266869 -122.274753 
L 344.365859 -121.283219 
L 344.581889 -120.291685 
L 344.869969 -119.300151 
L 345.123351 -118.308617 
L 345.559034 -117.317084 
L 346.136512 -116.32555 
L 346.944585 -115.334016 
L 348.09334 -114.342482 
L 349.729383 -113.350949 
L 352.033435 -112.359415 
L 354.725151 -111.367881 
L 357.899214 -110.376347 
L 361.52035 -109.384813 
L 364.648752 -108.39328 
L 365.249625 -107.401746 
L 363.486007 -106.410212 
L 360.364483 -105.418678 
L 356.642959 -104.427145 
L 353.539202 -103.435611 
L 351.117029 -102.444077 
L 349.271136 -101.452543 
L 347.834513 -100.461009 
L 346.774502 -99.469476 
L 346.059963 -98.477942 
L 345.458588 -97.486408 
L 345.08486 -96.494874 
L 344.830672 -95.503341 
L 344.600606 -94.511807 
L 344.415079 -93.520273 
L 344.295083 -92.528739 
L 344.15069 -91.537205 
L 344.09804 -90.545672 
L 344.068794 -89.554138 
L 344.029358 -88.562604 
L 343.997436 -87.57107 
L 343.965778 -86.579537 
L 343.955862 -85.588003 
L 343.932557 -84.596469 
L 343.931678 -83.604935 
L 343.92677 -82.613401 
L 343.914174 -81.621868 
L 343.911089 -80.630334 
L 343.906478 -79.6388 
L 343.903877 -78.647266 
L 343.897506 -77.655733 
L 343.894636 -76.664199 
L 343.901244 -75.672665 
L 343.896773 -74.681131 
L 343.900828 -73.689597 
L 343.894332 -72.698064 
L 343.892019 -71.70653 
L 343.889388 -70.714996 
L 343.886067 -69.723462 
L 343.885938 -68.731929 
L 343.885938 -67.740395 
L 343.885938 -66.748861 
L 343.885938 -65.757327 
L 343.885938 -64.765793 
L 343.885938 -63.77426 
L 343.885938 -62.782726 
L 343.886168 -61.791192 
L 343.888687 -60.799658 
L 343.888854 -59.808125 
L 343.886841 -58.816591 
L 343.888099 -57.825057 
L 343.886236 -56.833523 
z
" style="stroke: #414141; stroke-width: 1.5"/>
    </defs>
    <g clip-path="url(#p51ef43e7a1)">
     <use xlink:href="#m9d271b6c73" x="0" y="194.43625" style="fill: #845b53; stroke: #414141; stroke-width: 1.5"/>
    </g>
   </g>
   <g id="PolyCollection_4">
    <defs>
     <path id="m5df610d5b6" d="M 455.486378 -70.35447 
L 455.485497 -70.35447 
L 455.483831 -71.117527 
L 455.481511 -71.880584 
L 455.480405 -72.643641 
L 455.479005 -73.406699 
L 455.47601 -74.169756 
L 455.476166 -74.932813 
L 455.47699 -75.69587 
L 455.474998 -76.458927 
L 455.473703 -77.221984 
L 455.472242 -77.985041 
L 455.47002 -78.748098 
L 455.465912 -79.511155 
L 455.458546 -80.274212 
L 455.451229 -81.037269 
L 455.448776 -81.800326 
L 455.445383 -82.563383 
L 455.434368 -83.32644 
L 455.412505 -84.089497 
L 455.387228 -84.852554 
L 455.366671 -85.615612 
L 455.340103 -86.378669 
L 455.308325 -87.141726 
L 455.283644 -87.904783 
L 455.246405 -88.66784 
L 455.18757 -89.430897 
L 455.118521 -90.193954 
L 455.048064 -90.957011 
L 454.948794 -91.720068 
L 454.780882 -92.483125 
L 454.621226 -93.246182 
L 454.493267 -94.009239 
L 454.294578 -94.772296 
L 454.02392 -95.535353 
L 453.709317 -96.29841 
L 453.296745 -97.061467 
L 452.71795 -97.824524 
L 451.930513 -98.587582 
L 451.088601 -99.350639 
L 450.259781 -100.113696 
L 449.266804 -100.876753 
L 448.094328 -101.63981 
L 446.887531 -102.402867 
L 445.663672 -103.165924 
L 444.433105 -103.928981 
L 443.158833 -104.692038 
L 441.830305 -105.455095 
L 440.72379 -106.218152 
L 440.082817 -106.981209 
L 439.94119 -107.744266 
L 440.406993 -108.507323 
L 441.317116 -109.27038 
L 442.555926 -110.033437 
L 443.927305 -110.796494 
L 445.145657 -111.559552 
L 446.397831 -112.322609 
L 447.795018 -113.085666 
L 449.025473 -113.848723 
L 449.926855 -114.61178 
L 450.720245 -115.374837 
L 451.544314 -116.137894 
L 452.240717 -116.900951 
L 452.749521 -117.664008 
L 453.1902 -118.427065 
L 453.613382 -119.190122 
L 453.999863 -119.953179 
L 454.328522 -120.716236 
L 454.562037 -121.479293 
L 454.734696 -122.24235 
L 454.879496 -123.005407 
L 454.978167 -123.768465 
L 455.050838 -124.531522 
L 455.144353 -125.294579 
L 455.227869 -126.057636 
L 455.273985 -126.820693 
L 455.306991 -127.58375 
L 455.335271 -128.346807 
L 455.367123 -129.109864 
L 455.395494 -129.872921 
L 455.408913 -130.635978 
L 455.411311 -131.399035 
L 455.413729 -132.162092 
L 455.436469 -132.925149 
L 455.462886 -133.688206 
L 455.473694 -134.451263 
L 455.475406 -135.21432 
L 455.476831 -135.977377 
L 455.477317 -136.740435 
L 455.476678 -137.503492 
L 455.476328 -138.266549 
L 455.4761 -139.029606 
L 455.478048 -139.792663 
L 455.479117 -140.55572 
L 455.48021 -141.318777 
L 455.483343 -142.081834 
L 455.485007 -142.844891 
L 455.48395 -143.607948 
L 455.482755 -144.371005 
L 455.484015 -145.134062 
L 455.485507 -145.897119 
L 455.486368 -145.897119 
L 455.486368 -145.897119 
L 455.48786 -145.134062 
L 455.48912 -144.371005 
L 455.487925 -143.607948 
L 455.486868 -142.844891 
L 455.488532 -142.081834 
L 455.491665 -141.318777 
L 455.492758 -140.55572 
L 455.493827 -139.792663 
L 455.495775 -139.029606 
L 455.495547 -138.266549 
L 455.495197 -137.503492 
L 455.494558 -136.740435 
L 455.495044 -135.977377 
L 455.496469 -135.21432 
L 455.498181 -134.451263 
L 455.508989 -133.688206 
L 455.535406 -132.925149 
L 455.558146 -132.162092 
L 455.560564 -131.399035 
L 455.562962 -130.635978 
L 455.576381 -129.872921 
L 455.604752 -129.109864 
L 455.636604 -128.346807 
L 455.664884 -127.58375 
L 455.69789 -126.820693 
L 455.744006 -126.057636 
L 455.827522 -125.294579 
L 455.921037 -124.531522 
L 455.993708 -123.768465 
L 456.092379 -123.005407 
L 456.237179 -122.24235 
L 456.409838 -121.479293 
L 456.643353 -120.716236 
L 456.972012 -119.953179 
L 457.358493 -119.190122 
L 457.781675 -118.427065 
L 458.222354 -117.664008 
L 458.731158 -116.900951 
L 459.427561 -116.137894 
L 460.25163 -115.374837 
L 461.04502 -114.61178 
L 461.946402 -113.848723 
L 463.176857 -113.085666 
L 464.574044 -112.322609 
L 465.826218 -111.559552 
L 467.04457 -110.796494 
L 468.415949 -110.033437 
L 469.654759 -109.27038 
L 470.564882 -108.507323 
L 471.030685 -107.744266 
L 470.889058 -106.981209 
L 470.248085 -106.218152 
L 469.14157 -105.455095 
L 467.813042 -104.692038 
L 466.53877 -103.928981 
L 465.308203 -103.165924 
L 464.084344 -102.402867 
L 462.877547 -101.63981 
L 461.705071 -100.876753 
L 460.712094 -100.113696 
L 459.883274 -99.350639 
L 459.041362 -98.587582 
L 458.253925 -97.824524 
L 457.67513 -97.061467 
L 457.262558 -96.29841 
L 456.947955 -95.535353 
L 456.677297 -94.772296 
L 456.478608 -94.009239 
L 456.350649 -93.246182 
L 456.190993 -92.483125 
L 456.023081 -91.720068 
L 455.923811 -90.957011 
L 455.853354 -90.193954 
L 455.784305 -89.430897 
L 455.72547 -88.66784 
L 455.688231 -87.904783 
L 455.66355 -87.141726 
L 455.631772 -86.378669 
L 455.605204 -85.615612 
L 455.584647 -84.852554 
L 455.55937 -84.089497 
L 455.537507 -83.32644 
L 455.526492 -82.563383 
L 455.523099 -81.800326 
L 455.520646 -81.037269 
L 455.513329 -80.274212 
L 455.505963 -79.511155 
L 455.501855 -78.748098 
L 455.499633 -77.985041 
L 455.498172 -77.221984 
L 455.496877 -76.458927 
L 455.494885 -75.69587 
L 455.495709 -74.932813 
L 455.495865 -74.169756 
L 455.49287 -73.406699 
L 455.49147 -72.643641 
L 455.490364 -71.880584 
L 455.488044 -71.117527 
L 455.486378 -70.35447 
z
" style="stroke: #414141; stroke-width: 1.5"/>
    </defs>
    <g clip-path="url(#p51ef43e7a1)">
     <use xlink:href="#m5df610d5b6" x="0" y="194.43625" style="fill: #845b53; stroke: #414141; stroke-width: 1.5"/>
    </g>
   </g>
   <g id="PolyCollection_5">
    <defs>
     <path id="m9c91d00e06" d="M 567.089177 -31.568977 
L 567.082698 -31.568977 
L 567.079921 -33.066498 
L 567.075765 -34.564019 
L 567.070206 -36.061539 
L 567.063542 -37.55906 
L 567.05631 -39.056581 
L 567.049033 -40.554101 
L 567.041921 -42.051622 
L 567.034709 -43.549143 
L 567.026686 -45.046663 
L 567.016908 -46.544184 
L 567.004466 -48.041705 
L 566.98878 -49.539225 
L 566.969875 -51.036746 
L 566.948459 -52.534267 
L 566.925587 -54.031787 
L 566.901911 -55.529308 
L 566.87696 -57.026829 
L 566.849095 -58.524349 
L 566.816294 -60.02187 
L 566.777228 -61.51939 
L 566.731702 -63.016911 
L 566.680087 -64.514432 
L 566.622284 -66.011952 
L 566.557234 -67.509473 
L 566.483502 -69.006994 
L 566.400525 -70.504514 
L 566.309488 -72.002035 
L 566.213002 -73.499556 
L 566.113622 -74.997076 
L 566.011987 -76.494597 
L 565.905679 -77.992118 
L 565.789493 -79.489638 
L 565.657107 -80.987159 
L 565.503452 -82.48468 
L 565.326748 -83.9822 
L 565.129309 -85.479721 
L 564.916701 -86.977242 
L 564.695648 -88.474762 
L 564.47177 -89.972283 
L 564.248494 -91.469804 
L 564.027802 -92.967324 
L 563.812208 -94.464845 
L 563.606414 -95.962366 
L 563.417184 -97.459886 
L 563.251367 -98.957407 
L 563.113409 -100.454928 
L 563.004156 -101.952448 
L 562.921788 -103.449969 
L 562.864231 -104.94749 
L 562.831451 -106.44501 
L 562.826213 -107.942531 
L 562.852955 -109.440052 
L 562.915549 -110.937572 
L 563.015303 -112.435093 
L 563.150277 -113.932614 
L 563.315952 -115.430134 
L 563.506315 -116.927655 
L 563.714304 -118.425176 
L 563.931467 -119.922696 
L 564.147862 -121.420217 
L 564.353296 -122.917738 
L 564.539902 -124.415258 
L 564.704717 -125.912779 
L 564.850621 -127.4103 
L 564.984955 -128.90782 
L 565.11647 -130.405341 
L 565.252029 -131.902862 
L 565.394414 -133.400382 
L 565.54195 -134.897903 
L 565.689846 -136.395424 
L 565.832524 -137.892944 
L 565.965894 -139.390465 
L 566.088627 -140.887986 
L 566.201956 -142.385506 
L 566.308253 -143.883027 
L 566.4092 -145.380548 
L 566.504551 -146.878068 
L 566.592106 -148.375589 
L 566.668832 -149.87311 
L 566.732449 -151.37063 
L 566.782604 -152.868151 
L 566.821101 -154.365671 
L 566.851173 -155.863192 
L 566.876286 -157.360713 
L 566.899104 -158.858233 
L 566.921044 -160.355754 
L 566.942453 -161.853275 
L 566.963116 -163.350795 
L 566.982713 -164.848316 
L 567.001017 -166.345837 
L 567.01786 -167.843357 
L 567.033055 -169.340878 
L 567.046375 -170.838399 
L 567.057614 -172.335919 
L 567.066662 -173.83344 
L 567.073554 -175.330961 
L 567.07848 -176.828481 
L 567.081757 -178.326002 
L 567.08377 -179.823523 
L 567.088105 -179.823523 
L 567.088105 -179.823523 
L 567.090118 -178.326002 
L 567.093395 -176.828481 
L 567.098321 -175.330961 
L 567.105213 -173.83344 
L 567.114261 -172.335919 
L 567.1255 -170.838399 
L 567.13882 -169.340878 
L 567.154015 -167.843357 
L 567.170858 -166.345837 
L 567.189162 -164.848316 
L 567.208759 -163.350795 
L 567.229422 -161.853275 
L 567.250831 -160.355754 
L 567.272771 -158.858233 
L 567.295589 -157.360713 
L 567.320702 -155.863192 
L 567.350774 -154.365671 
L 567.389271 -152.868151 
L 567.439426 -151.37063 
L 567.503043 -149.87311 
L 567.579769 -148.375589 
L 567.667324 -146.878068 
L 567.762675 -145.380548 
L 567.863622 -143.883027 
L 567.969919 -142.385506 
L 568.083248 -140.887986 
L 568.205981 -139.390465 
L 568.339351 -137.892944 
L 568.482029 -136.395424 
L 568.629925 -134.897903 
L 568.777461 -133.400382 
L 568.919846 -131.902862 
L 569.055405 -130.405341 
L 569.18692 -128.90782 
L 569.321254 -127.4103 
L 569.467158 -125.912779 
L 569.631973 -124.415258 
L 569.818579 -122.917738 
L 570.024013 -121.420217 
L 570.240408 -119.922696 
L 570.457571 -118.425176 
L 570.66556 -116.927655 
L 570.855923 -115.430134 
L 571.021598 -113.932614 
L 571.156572 -112.435093 
L 571.256326 -110.937572 
L 571.31892 -109.440052 
L 571.345662 -107.942531 
L 571.340424 -106.44501 
L 571.307644 -104.94749 
L 571.250087 -103.449969 
L 571.167719 -101.952448 
L 571.058466 -100.454928 
L 570.920508 -98.957407 
L 570.754691 -97.459886 
L 570.565461 -95.962366 
L 570.359667 -94.464845 
L 570.144073 -92.967324 
L 569.923381 -91.469804 
L 569.700105 -89.972283 
L 569.476227 -88.474762 
L 569.255174 -86.977242 
L 569.042566 -85.479721 
L 568.845127 -83.9822 
L 568.668423 -82.48468 
L 568.514768 -80.987159 
L 568.382382 -79.489638 
L 568.266196 -77.992118 
L 568.159888 -76.494597 
L 568.058253 -74.997076 
L 567.958873 -73.499556 
L 567.862387 -72.002035 
L 567.77135 -70.504514 
L 567.688373 -69.006994 
L 567.614641 -67.509473 
L 567.549591 -66.011952 
L 567.491788 -64.514432 
L 567.440173 -63.016911 
L 567.394647 -61.51939 
L 567.355581 -60.02187 
L 567.32278 -58.524349 
L 567.294915 -57.026829 
L 567.269964 -55.529308 
L 567.246288 -54.031787 
L 567.223416 -52.534267 
L 567.202 -51.036746 
L 567.183095 -49.539225 
L 567.167409 -48.041705 
L 567.154967 -46.544184 
L 567.145189 -45.046663 
L 567.137166 -43.549143 
L 567.129954 -42.051622 
L 567.122842 -40.554101 
L 567.115565 -39.056581 
L 567.108333 -37.55906 
L 567.101669 -36.061539 
L 567.09611 -34.564019 
L 567.091954 -33.066498 
L 567.089177 -31.568977 
z
" style="stroke: #414141; stroke-width: 1.5"/>
    </defs>
    <g clip-path="url(#p51ef43e7a1)">
     <use xlink:href="#m9c91d00e06" x="0" y="194.43625" style="fill: #845b53; stroke: #414141; stroke-width: 1.5"/>
    </g>
   </g>
   <g id="matplotlib.axis_1">
    <g id="xtick_1">
     <g id="line2d_1">
      <defs>
       <path id="m2c200e10d7" d="M 0 0 
L 0 3.5 
" style="stroke: #000000; stroke-width: 0.8"/>
      </defs>
      <g>
       <use xlink:href="#m2c200e10d7" x="120.685938" y="170.28" style="stroke: #000000; stroke-width: 0.8"/>
      </g>
     </g>
     <g id="text_1">
      <!-- dense_1 -->
      <g transform="translate(99.903906 184.878438)scale(0.1 -0.1)">
       <defs>
        <path id="DejaVuSans-64" d="M 2906 2969 
L 2906 4863 
L 3481 4863 
L 3481 0 
L 2906 0 
L 2906 525 
Q 2725 213 2448 61 
Q 2172 -91 1784 -91 
Q 1150 -91 751 415 
Q 353 922 353 1747 
Q 353 2572 751 3078 
Q 1150 3584 1784 3584 
Q 2172 3584 2448 3432 
Q 2725 3281 2906 2969 
z
M 947 1747 
Q 947 1113 1208 752 
Q 1469 391 1925 391 
Q 2381 391 2643 752 
Q 2906 1113 2906 1747 
Q 2906 2381 2643 2742 
Q 2381 3103 1925 3103 
Q 1469 3103 1208 2742 
Q 947 2381 947 1747 
z
" transform="scale(0.015625)"/>
        <path id="DejaVuSans-65" d="M 3597 1894 
L 3597 1613 
L 953 1613 
Q 991 1019 1311 708 
Q 1631 397 2203 397 
Q 2534 397 2845 478 
Q 3156 559 3463 722 
L 3463 178 
Q 3153 47 2828 -22 
Q 2503 -91 2169 -91 
Q 1331 -91 842 396 
Q 353 884 353 1716 
Q 353 2575 817 3079 
Q 1281 3584 2069 3584 
Q 2775 3584 3186 3129 
Q 3597 2675 3597 1894 
z
M 3022 2063 
Q 3016 2534 2758 2815 
Q 2500 3097 2075 3097 
Q 1594 3097 1305 2825 
Q 1016 2553 972 2059 
L 3022 2063 
z
" transform="scale(0.015625)"/>
        <path id="DejaVuSans-6e" d="M 3513 2113 
L 3513 0 
L 2938 0 
L 2938 2094 
Q 2938 2591 2744 2837 
Q 2550 3084 2163 3084 
Q 1697 3084 1428 2787 
Q 1159 2491 1159 1978 
L 1159 0 
L 581 0 
L 581 3500 
L 1159 3500 
L 1159 2956 
Q 1366 3272 1645 3428 
Q 1925 3584 2291 3584 
Q 2894 3584 3203 3211 
Q 3513 2838 3513 2113 
z
" transform="scale(0.015625)"/>
        <path id="DejaVuSans-73" d="M 2834 3397 
L 2834 2853 
Q 2591 2978 2328 3040 
Q 2066 3103 1784 3103 
Q 1356 3103 1142 2972 
Q 928 2841 928 2578 
Q 928 2378 1081 2264 
Q 1234 2150 1697 2047 
L 1894 2003 
Q 2506 1872 2764 1633 
Q 3022 1394 3022 966 
Q 3022 478 2636 193 
Q 2250 -91 1575 -91 
Q 1294 -91 989 -36 
Q 684 19 347 128 
L 347 722 
Q 666 556 975 473 
Q 1284 391 1588 391 
Q 1994 391 2212 530 
Q 2431 669 2431 922 
Q 2431 1156 2273 1281 
Q 2116 1406 1581 1522 
L 1381 1569 
Q 847 1681 609 1914 
Q 372 2147 372 2553 
Q 372 3047 722 3315 
Q 1072 3584 1716 3584 
Q 2034 3584 2315 3537 
Q 2597 3491 2834 3397 
z
" transform="scale(0.015625)"/>
        <path id="DejaVuSans-5f" d="M 3263 -1063 
L 3263 -1509 
L -63 -1509 
L -63 -1063 
L 3263 -1063 
z
" transform="scale(0.015625)"/>
        <path id="DejaVuSans-31" d="M 794 531 
L 1825 531 
L 1825 4091 
L 703 3866 
L 703 4441 
L 1819 4666 
L 2450 4666 
L 2450 531 
L 3481 531 
L 3481 0 
L 794 0 
L 794 531 
z
" transform="scale(0.015625)"/>
       </defs>
       <use xlink:href="#DejaVuSans-64"/>
       <use xlink:href="#DejaVuSans-65" x="63.476562"/>
       <use xlink:href="#DejaVuSans-6e" x="125"/>
       <use xlink:href="#DejaVuSans-73" x="188.378906"/>
       <use xlink:href="#DejaVuSans-65" x="240.478516"/>
       <use xlink:href="#DejaVuSans-5f" x="302.001953"/>
       <use xlink:href="#DejaVuSans-31" x="352.001953"/>
      </g>
     </g>
    </g>
    <g id="xtick_2">
     <g id="line2d_2">
      <g>
       <use xlink:href="#m2c200e10d7" x="232.285938" y="170.28" style="stroke: #000000; stroke-width: 0.8"/>
      </g>
     </g>
     <g id="text_2">
      <!-- dense_3 -->
      <g transform="translate(211.503906 184.878438)scale(0.1 -0.1)">
       <defs>
        <path id="DejaVuSans-33" d="M 2597 2516 
Q 3050 2419 3304 2112 
Q 3559 1806 3559 1356 
Q 3559 666 3084 287 
Q 2609 -91 1734 -91 
Q 1441 -91 1130 -33 
Q 819 25 488 141 
L 488 750 
Q 750 597 1062 519 
Q 1375 441 1716 441 
Q 2309 441 2620 675 
Q 2931 909 2931 1356 
Q 2931 1769 2642 2001 
Q 2353 2234 1838 2234 
L 1294 2234 
L 1294 2753 
L 1863 2753 
Q 2328 2753 2575 2939 
Q 2822 3125 2822 3475 
Q 2822 3834 2567 4026 
Q 2313 4219 1838 4219 
Q 1578 4219 1281 4162 
Q 984 4106 628 3988 
L 628 4550 
Q 988 4650 1302 4700 
Q 1616 4750 1894 4750 
Q 2613 4750 3031 4423 
Q 3450 4097 3450 3541 
Q 3450 3153 3228 2886 
Q 3006 2619 2597 2516 
z
" transform="scale(0.015625)"/>
       </defs>
       <use xlink:href="#DejaVuSans-64"/>
       <use xlink:href="#DejaVuSans-65" x="63.476562"/>
       <use xlink:href="#DejaVuSans-6e" x="125"/>
       <use xlink:href="#DejaVuSans-73" x="188.378906"/>
       <use xlink:href="#DejaVuSans-65" x="240.478516"/>
       <use xlink:href="#DejaVuSans-5f" x="302.001953"/>
       <use xlink:href="#DejaVuSans-33" x="352.001953"/>
      </g>
     </g>
    </g>
    <g id="xtick_3">
     <g id="line2d_3">
      <g>
       <use xlink:href="#m2c200e10d7" x="343.885938" y="170.28" style="stroke: #000000; stroke-width: 0.8"/>
      </g>
     </g>
     <g id="text_3">
      <!-- dense_5 -->
      <g transform="translate(323.103906 184.878438)scale(0.1 -0.1)">
       <defs>
        <path id="DejaVuSans-35" d="M 691 4666 
L 3169 4666 
L 3169 4134 
L 1269 4134 
L 1269 2991 
Q 1406 3038 1543 3061 
Q 1681 3084 1819 3084 
Q 2600 3084 3056 2656 
Q 3513 2228 3513 1497 
Q 3513 744 3044 326 
Q 2575 -91 1722 -91 
Q 1428 -91 1123 -41 
Q 819 9 494 109 
L 494 744 
Q 775 591 1075 516 
Q 1375 441 1709 441 
Q 2250 441 2565 725 
Q 2881 1009 2881 1497 
Q 2881 1984 2565 2268 
Q 2250 2553 1709 2553 
Q 1456 2553 1204 2497 
Q 953 2441 691 2322 
L 691 4666 
z
" transform="scale(0.015625)"/>
       </defs>
       <use xlink:href="#DejaVuSans-64"/>
       <use xlink:href="#DejaVuSans-65" x="63.476562"/>
       <use xlink:href="#DejaVuSans-6e" x="125"/>
       <use xlink:href="#DejaVuSans-73" x="188.378906"/>
       <use xlink:href="#DejaVuSans-65" x="240.478516"/>
       <use xlink:href="#DejaVuSans-5f" x="302.001953"/>
       <use xlink:href="#DejaVuSans-35" x="352.001953"/>
      </g>
     </g>
    </g>
    <g id="xtick_4">
     <g id="line2d_4">
      <g>
       <use xlink:href="#m2c200e10d7" x="455.485938" y="170.28" style="stroke: #000000; stroke-width: 0.8"/>
      </g>
     </g>
     <g id="text_4">
      <!-- dense_7 -->
      <g transform="translate(434.703906 184.878438)scale(0.1 -0.1)">
       <defs>
        <path id="DejaVuSans-37" d="M 525 4666 
L 3525 4666 
L 3525 4397 
L 1831 0 
L 1172 0 
L 2766 4134 
L 525 4134 
L 525 4666 
z
" transform="scale(0.015625)"/>
       </defs>
       <use xlink:href="#DejaVuSans-64"/>
       <use xlink:href="#DejaVuSans-65" x="63.476562"/>
       <use xlink:href="#DejaVuSans-6e" x="125"/>
       <use xlink:href="#DejaVuSans-73" x="188.378906"/>
       <use xlink:href="#DejaVuSans-65" x="240.478516"/>
       <use xlink:href="#DejaVuSans-5f" x="302.001953"/>
       <use xlink:href="#DejaVuSans-37" x="352.001953"/>
      </g>
     </g>
    </g>
    <g id="xtick_5">
     <g id="line2d_5">
      <g>
       <use xlink:href="#m2c200e10d7" x="567.085938" y="170.28" style="stroke: #000000; stroke-width: 0.8"/>
      </g>
     </g>
     <g id="text_5">
      <!-- dense_9 -->
      <g transform="translate(546.303906 184.878438)scale(0.1 -0.1)">
       <defs>
        <path id="DejaVuSans-39" d="M 703 97 
L 703 672 
Q 941 559 1184 500 
Q 1428 441 1663 441 
Q 2288 441 2617 861 
Q 2947 1281 2994 2138 
Q 2813 1869 2534 1725 
Q 2256 1581 1919 1581 
Q 1219 1581 811 2004 
Q 403 2428 403 3163 
Q 403 3881 828 4315 
Q 1253 4750 1959 4750 
Q 2769 4750 3195 4129 
Q 3622 3509 3622 2328 
Q 3622 1225 3098 567 
Q 2575 -91 1691 -91 
Q 1453 -91 1209 -44 
Q 966 3 703 97 
z
M 1959 2075 
Q 2384 2075 2632 2365 
Q 2881 2656 2881 3163 
Q 2881 3666 2632 3958 
Q 2384 4250 1959 4250 
Q 1534 4250 1286 3958 
Q 1038 3666 1038 3163 
Q 1038 2656 1286 2365 
Q 1534 2075 1959 2075 
z
" transform="scale(0.015625)"/>
       </defs>
       <use xlink:href="#DejaVuSans-64"/>
       <use xlink:href="#DejaVuSans-65" x="63.476562"/>
       <use xlink:href="#DejaVuSans-6e" x="125"/>
       <use xlink:href="#DejaVuSans-73" x="188.378906"/>
       <use xlink:href="#DejaVuSans-65" x="240.478516"/>
       <use xlink:href="#DejaVuSans-5f" x="302.001953"/>
       <use xlink:href="#DejaVuSans-39" x="352.001953"/>
      </g>
     </g>
    </g>
   </g>
   <g id="matplotlib.axis_2">
    <g id="ytick_1">
     <g id="line2d_6">
      <defs>
       <path id="m4993c51794" d="M 0 0 
L -3.5 0 
" style="stroke: #000000; stroke-width: 0.8"/>
      </defs>
      <g>
       <use xlink:href="#m4993c51794" x="64.885938" y="149.696457" style="stroke: #000000; stroke-width: 0.8"/>
      </g>
     </g>
     <g id="text_6">
      <!-- −0.006 -->
      <g transform="translate(20.878125 153.495676)scale(0.1 -0.1)">
       <defs>
        <path id="DejaVuSans-2212" d="M 678 2272 
L 4684 2272 
L 4684 1741 
L 678 1741 
L 678 2272 
z
" transform="scale(0.015625)"/>
        <path id="DejaVuSans-30" d="M 2034 4250 
Q 1547 4250 1301 3770 
Q 1056 3291 1056 2328 
Q 1056 1369 1301 889 
Q 1547 409 2034 409 
Q 2525 409 2770 889 
Q 3016 1369 3016 2328 
Q 3016 3291 2770 3770 
Q 2525 4250 2034 4250 
z
M 2034 4750 
Q 2819 4750 3233 4129 
Q 3647 3509 3647 2328 
Q 3647 1150 3233 529 
Q 2819 -91 2034 -91 
Q 1250 -91 836 529 
Q 422 1150 422 2328 
Q 422 3509 836 4129 
Q 1250 4750 2034 4750 
z
" transform="scale(0.015625)"/>
        <path id="DejaVuSans-2e" d="M 684 794 
L 1344 794 
L 1344 0 
L 684 0 
L 684 794 
z
" transform="scale(0.015625)"/>
        <path id="DejaVuSans-36" d="M 2113 2584 
Q 1688 2584 1439 2293 
Q 1191 2003 1191 1497 
Q 1191 994 1439 701 
Q 1688 409 2113 409 
Q 2538 409 2786 701 
Q 3034 994 3034 1497 
Q 3034 2003 2786 2293 
Q 2538 2584 2113 2584 
z
M 3366 4563 
L 3366 3988 
Q 3128 4100 2886 4159 
Q 2644 4219 2406 4219 
Q 1781 4219 1451 3797 
Q 1122 3375 1075 2522 
Q 1259 2794 1537 2939 
Q 1816 3084 2150 3084 
Q 2853 3084 3261 2657 
Q 3669 2231 3669 1497 
Q 3669 778 3244 343 
Q 2819 -91 2113 -91 
Q 1303 -91 875 529 
Q 447 1150 447 2328 
Q 447 3434 972 4092 
Q 1497 4750 2381 4750 
Q 2619 4750 2861 4703 
Q 3103 4656 3366 4563 
z
" transform="scale(0.015625)"/>
       </defs>
       <use xlink:href="#DejaVuSans-2212"/>
       <use xlink:href="#DejaVuSans-30" x="83.789062"/>
       <use xlink:href="#DejaVuSans-2e" x="147.412109"/>
       <use xlink:href="#DejaVuSans-30" x="179.199219"/>
       <use xlink:href="#DejaVuSans-30" x="242.822266"/>
       <use xlink:href="#DejaVuSans-36" x="306.445312"/>
      </g>
     </g>
    </g>
    <g id="ytick_2">
     <g id="line2d_7">
      <g>
       <use xlink:href="#m4993c51794" x="64.885938" y="128.758495" style="stroke: #000000; stroke-width: 0.8"/>
      </g>
     </g>
     <g id="text_7">
      <!-- −0.004 -->
      <g transform="translate(20.878125 132.557714)scale(0.1 -0.1)">
       <defs>
        <path id="DejaVuSans-34" d="M 2419 4116 
L 825 1625 
L 2419 1625 
L 2419 4116 
z
M 2253 4666 
L 3047 4666 
L 3047 1625 
L 3713 1625 
L 3713 1100 
L 3047 1100 
L 3047 0 
L 2419 0 
L 2419 1100 
L 313 1100 
L 313 1709 
L 2253 4666 
z
" transform="scale(0.015625)"/>
       </defs>
       <use xlink:href="#DejaVuSans-2212"/>
       <use xlink:href="#DejaVuSans-30" x="83.789062"/>
       <use xlink:href="#DejaVuSans-2e" x="147.412109"/>
       <use xlink:href="#DejaVuSans-30" x="179.199219"/>
       <use xlink:href="#DejaVuSans-30" x="242.822266"/>
       <use xlink:href="#DejaVuSans-34" x="306.445312"/>
      </g>
     </g>
    </g>
    <g id="ytick_3">
     <g id="line2d_8">
      <g>
       <use xlink:href="#m4993c51794" x="64.885938" y="107.820534" style="stroke: #000000; stroke-width: 0.8"/>
      </g>
     </g>
     <g id="text_8">
      <!-- −0.002 -->
      <g transform="translate(20.878125 111.619752)scale(0.1 -0.1)">
       <defs>
        <path id="DejaVuSans-32" d="M 1228 531 
L 3431 531 
L 3431 0 
L 469 0 
L 469 531 
Q 828 903 1448 1529 
Q 2069 2156 2228 2338 
Q 2531 2678 2651 2914 
Q 2772 3150 2772 3378 
Q 2772 3750 2511 3984 
Q 2250 4219 1831 4219 
Q 1534 4219 1204 4116 
Q 875 4013 500 3803 
L 500 4441 
Q 881 4594 1212 4672 
Q 1544 4750 1819 4750 
Q 2544 4750 2975 4387 
Q 3406 4025 3406 3419 
Q 3406 3131 3298 2873 
Q 3191 2616 2906 2266 
Q 2828 2175 2409 1742 
Q 1991 1309 1228 531 
z
" transform="scale(0.015625)"/>
       </defs>
       <use xlink:href="#DejaVuSans-2212"/>
       <use xlink:href="#DejaVuSans-30" x="83.789062"/>
       <use xlink:href="#DejaVuSans-2e" x="147.412109"/>
       <use xlink:href="#DejaVuSans-30" x="179.199219"/>
       <use xlink:href="#DejaVuSans-30" x="242.822266"/>
       <use xlink:href="#DejaVuSans-32" x="306.445312"/>
      </g>
     </g>
    </g>
    <g id="ytick_4">
     <g id="line2d_9">
      <g>
       <use xlink:href="#m4993c51794" x="64.885938" y="86.882572" style="stroke: #000000; stroke-width: 0.8"/>
      </g>
     </g>
     <g id="text_9">
      <!-- 0.000 -->
      <g transform="translate(29.257813 90.68179)scale(0.1 -0.1)">
       <use xlink:href="#DejaVuSans-30"/>
       <use xlink:href="#DejaVuSans-2e" x="63.623047"/>
       <use xlink:href="#DejaVuSans-30" x="95.410156"/>
       <use xlink:href="#DejaVuSans-30" x="159.033203"/>
       <use xlink:href="#DejaVuSans-30" x="222.65625"/>
      </g>
     </g>
    </g>
    <g id="ytick_5">
     <g id="line2d_10">
      <g>
       <use xlink:href="#m4993c51794" x="64.885938" y="65.94461" style="stroke: #000000; stroke-width: 0.8"/>
      </g>
     </g>
     <g id="text_10">
      <!-- 0.002 -->
      <g transform="translate(29.257813 69.743829)scale(0.1 -0.1)">
       <use xlink:href="#DejaVuSans-30"/>
       <use xlink:href="#DejaVuSans-2e" x="63.623047"/>
       <use xlink:href="#DejaVuSans-30" x="95.410156"/>
       <use xlink:href="#DejaVuSans-30" x="159.033203"/>
       <use xlink:href="#DejaVuSans-32" x="222.65625"/>
      </g>
     </g>
    </g>
    <g id="ytick_6">
     <g id="line2d_11">
      <g>
       <use xlink:href="#m4993c51794" x="64.885938" y="45.006648" style="stroke: #000000; stroke-width: 0.8"/>
      </g>
     </g>
     <g id="text_11">
      <!-- 0.004 -->
      <g transform="translate(29.257813 48.805867)scale(0.1 -0.1)">
       <use xlink:href="#DejaVuSans-30"/>
       <use xlink:href="#DejaVuSans-2e" x="63.623047"/>
       <use xlink:href="#DejaVuSans-30" x="95.410156"/>
       <use xlink:href="#DejaVuSans-30" x="159.033203"/>
       <use xlink:href="#DejaVuSans-34" x="222.65625"/>
      </g>
     </g>
    </g>
    <g id="ytick_7">
     <g id="line2d_12">
      <g>
       <use xlink:href="#m4993c51794" x="64.885938" y="24.068686" style="stroke: #000000; stroke-width: 0.8"/>
      </g>
     </g>
     <g id="text_12">
      <!-- 0.006 -->
      <g transform="translate(29.257813 27.867905)scale(0.1 -0.1)">
       <use xlink:href="#DejaVuSans-30"/>
       <use xlink:href="#DejaVuSans-2e" x="63.623047"/>
       <use xlink:href="#DejaVuSans-30" x="95.410156"/>
       <use xlink:href="#DejaVuSans-30" x="159.033203"/>
       <use xlink:href="#DejaVuSans-36" x="222.65625"/>
      </g>
     </g>
    </g>
    <g id="text_13">
     <!-- ${\nabla}_w L$ -->
     <g transform="translate(14.798438 97.94)rotate(-90)scale(0.1 -0.1)">
      <defs>
       <path id="DejaVuSans-2207" d="M 2138 659 
L 3444 4047 
L 831 4047 
L 2138 659 
z
M 1791 0 
L -19 4603 
L 4300 4603 
L 2491 0 
L 1791 0 
z
" transform="scale(0.015625)"/>
       <path id="DejaVuSans-Oblique-77" d="M 544 3500 
L 1113 3500 
L 1259 684 
L 2566 3500 
L 3231 3500 
L 3425 684 
L 4666 3500 
L 5241 3500 
L 3641 0 
L 2969 0 
L 2797 2900 
L 1459 0 
L 781 0 
L 544 3500 
z
" transform="scale(0.015625)"/>
       <path id="DejaVuSans-Oblique-4c" d="M 1075 4666 
L 1709 4666 
L 909 525 
L 3181 525 
L 3078 0 
L 172 0 
L 1075 4666 
z
" transform="scale(0.015625)"/>
      </defs>
      <use xlink:href="#DejaVuSans-2207" transform="translate(0 0.09375)"/>
      <use xlink:href="#DejaVuSans-Oblique-77" transform="translate(67.851562 -16.3125)scale(0.7)"/>
      <use xlink:href="#DejaVuSans-Oblique-4c" transform="translate(127.836914 0.09375)"/>
     </g>
    </g>
   </g>
   <g id="line2d_13">
    <path d="M 120.685938 93.478909 
L 120.685938 80.545816 
" clip-path="url(#p51ef43e7a1)" style="fill: none; stroke: #414141; stroke-width: 1.5; stroke-linecap: square"/>
   </g>
   <g id="line2d_14">
    <path d="M 120.685938 88.629219 
L 120.685938 85.395817 
" clip-path="url(#p51ef43e7a1)" style="fill: none; stroke: #414141; stroke-width: 4.5; stroke-linecap: square"/>
   </g>
   <g id="line2d_15">
    <path d="M 232.285938 95.11387 
L 232.285938 78.64389 
" clip-path="url(#p51ef43e7a1)" style="fill: none; stroke: #414141; stroke-width: 1.5; stroke-linecap: square"/>
   </g>
   <g id="line2d_16">
    <path d="M 232.285938 88.938001 
L 232.285938 84.82026 
" clip-path="url(#p51ef43e7a1)" style="fill: none; stroke: #414141; stroke-width: 4.5; stroke-linecap: square"/>
   </g>
   <g id="line2d_17">
    <path d="M 343.885938 97.34407 
L 343.885938 76.427133 
" clip-path="url(#p51ef43e7a1)" style="fill: none; stroke: #414141; stroke-width: 1.5; stroke-linecap: square"/>
   </g>
   <g id="line2d_18">
    <path d="M 343.885938 89.500161 
L 343.885938 84.270549 
" clip-path="url(#p51ef43e7a1)" style="fill: none; stroke: #414141; stroke-width: 4.5; stroke-linecap: square"/>
   </g>
   <g id="line2d_19">
    <path d="M 455.485938 101.246069 
L 455.485938 72.514913 
" clip-path="url(#p51ef43e7a1)" style="fill: none; stroke: #414141; stroke-width: 1.5; stroke-linecap: square"/>
   </g>
   <g id="line2d_20">
    <path d="M 455.485938 90.473177 
L 455.485938 83.289689 
" clip-path="url(#p51ef43e7a1)" style="fill: none; stroke: #414141; stroke-width: 4.5; stroke-linecap: square"/>
   </g>
   <g id="line2d_21">
    <path d="M 567.085938 135.498257 
L 567.085938 38.396025 
" clip-path="url(#p51ef43e7a1)" style="fill: none; stroke: #414141; stroke-width: 1.5; stroke-linecap: square"/>
   </g>
   <g id="line2d_22">
    <path d="M 567.085938 99.117069 
L 567.085938 74.455392 
" clip-path="url(#p51ef43e7a1)" style="fill: none; stroke: #414141; stroke-width: 4.5; stroke-linecap: square"/>
   </g>
   <g id="patch_3">
    <path d="M 64.885938 170.28 
L 64.885938 7.2 
" style="fill: none; stroke: #000000; stroke-width: 0.8; stroke-linejoin: miter; stroke-linecap: square"/>
   </g>
   <g id="patch_4">
    <path d="M 622.885937 170.28 
L 622.885937 7.2 
" style="fill: none; stroke: #000000; stroke-width: 0.8; stroke-linejoin: miter; stroke-linecap: square"/>
   </g>
   <g id="patch_5">
    <path d="M 64.885938 170.28 
L 622.885938 170.28 
" style="fill: none; stroke: #000000; stroke-width: 0.8; stroke-linejoin: miter; stroke-linecap: square"/>
   </g>
   <g id="patch_6">
    <path d="M 64.885938 7.2 
L 622.885938 7.2 
" style="fill: none; stroke: #000000; stroke-width: 0.8; stroke-linejoin: miter; stroke-linecap: square"/>
   </g>
   <g id="PathCollection_1">
    <defs>
     <path id="m7c9a99e4c6" d="M 0 1.5 
C 0.397805 1.5 0.77937 1.341951 1.06066 1.06066 
C 1.341951 0.77937 1.5 0.397805 1.5 0 
C 1.5 -0.397805 1.341951 -0.77937 1.06066 -1.06066 
C 0.77937 -1.341951 0.397805 -1.5 0 -1.5 
C -0.397805 -1.5 -0.77937 -1.341951 -1.06066 -1.06066 
C -1.341951 -0.77937 -1.5 -0.397805 -1.5 0 
C -1.5 0.397805 -1.341951 0.77937 -1.06066 1.06066 
C -0.77937 1.341951 -0.397805 1.5 0 1.5 
z
" style="stroke: #414141"/>
    </defs>
    <g clip-path="url(#p51ef43e7a1)">
     <use xlink:href="#m7c9a99e4c6" x="120.685938" y="86.892079" style="fill: #ffffff; stroke: #414141"/>
    </g>
   </g>
   <g id="PathCollection_2">
    <g clip-path="url(#p51ef43e7a1)">
     <use xlink:href="#m7c9a99e4c6" x="232.285938" y="86.882764" style="fill: #ffffff; stroke: #414141"/>
    </g>
   </g>
   <g id="PathCollection_3">
    <g clip-path="url(#p51ef43e7a1)">
     <use xlink:href="#m7c9a99e4c6" x="343.885938" y="86.871186" style="fill: #ffffff; stroke: #414141"/>
    </g>
   </g>
   <g id="PathCollection_4">
    <g clip-path="url(#p51ef43e7a1)">
     <use xlink:href="#m7c9a99e4c6" x="455.485938" y="86.883758" style="fill: #ffffff; stroke: #414141"/>
    </g>
   </g>
   <g id="PathCollection_5">
    <g clip-path="url(#p51ef43e7a1)">
     <use xlink:href="#m7c9a99e4c6" x="567.085938" y="86.963976" style="fill: #ffffff; stroke: #414141"/>
    </g>
   </g>
   <g id="legend_1">
    <g id="patch_7">
     <path d="M 71.885938 29.878125 
L 131.598438 29.878125 
Q 133.598438 29.878125 133.598438 27.878125 
L 133.598438 14.2 
Q 133.598438 12.2 131.598438 12.2 
L 71.885938 12.2 
Q 69.885938 12.2 69.885938 14.2 
L 69.885938 27.878125 
Q 69.885938 29.878125 71.885938 29.878125 
z
" style="fill: #ffffff; opacity: 0.8; stroke: #cccccc; stroke-linejoin: miter"/>
    </g>
    <g id="patch_8">
     <path d="M 73.885938 23.798438 
L 93.885938 23.798438 
L 93.885938 16.798438 
L 73.885938 16.798438 
z
" style="fill: #845b53; stroke: #414141; stroke-width: 1.5; stroke-linejoin: miter"/>
    </g>
    <g id="text_14">
     <!-- swish -->
     <g transform="translate(101.885938 23.798438)scale(0.1 -0.1)">
      <defs>
       <path id="DejaVuSans-77" d="M 269 3500 
L 844 3500 
L 1563 769 
L 2278 3500 
L 2956 3500 
L 3675 769 
L 4391 3500 
L 4966 3500 
L 4050 0 
L 3372 0 
L 2619 2869 
L 1863 0 
L 1184 0 
L 269 3500 
z
" transform="scale(0.015625)"/>
       <path id="DejaVuSans-69" d="M 603 3500 
L 1178 3500 
L 1178 0 
L 603 0 
L 603 3500 
z
M 603 4863 
L 1178 4863 
L 1178 4134 
L 603 4134 
L 603 4863 
z
" transform="scale(0.015625)"/>
       <path id="DejaVuSans-68" d="M 3513 2113 
L 3513 0 
L 2938 0 
L 2938 2094 
Q 2938 2591 2744 2837 
Q 2550 3084 2163 3084 
Q 1697 3084 1428 2787 
Q 1159 2491 1159 1978 
L 1159 0 
L 581 0 
L 581 4863 
L 1159 4863 
L 1159 2956 
Q 1366 3272 1645 3428 
Q 1925 3584 2291 3584 
Q 2894 3584 3203 3211 
Q 3513 2838 3513 2113 
z
" transform="scale(0.015625)"/>
      </defs>
      <use xlink:href="#DejaVuSans-73"/>
      <use xlink:href="#DejaVuSans-77" x="52.099609"/>
      <use xlink:href="#DejaVuSans-69" x="133.886719"/>
      <use xlink:href="#DejaVuSans-73" x="161.669922"/>
      <use xlink:href="#DejaVuSans-68" x="213.769531"/>
     </g>
    </g>
   </g>
  </g>
 </g>
 <defs>
  <clipPath id="p51ef43e7a1">
   <rect x="64.885938" y="7.2" width="558" height="163.08"/>
  </clipPath>
 </defs>
</svg>
