<?xml version="1.0" encoding="utf-8" standalone="no"?>
<!DOCTYPE svg PUBLIC "-//W3C//DTD SVG 1.1//EN"
  "http://www.w3.org/Graphics/SVG/1.1/DTD/svg11.dtd">
<svg xmlns:xlink="http://www.w3.org/1999/xlink" width="623.723438pt" height="194.43625pt" viewBox="0 0 623.723438 194.43625" xmlns="http://www.w3.org/2000/svg" version="1.1">
 <metadata>
  <rdf:RDF xmlns:dc="http://purl.org/dc/elements/1.1/" xmlns:cc="http://creativecommons.org/ns#" xmlns:rdf="http://www.w3.org/1999/02/22-rdf-syntax-ns#">
   <cc:Work>
    <dc:type rdf:resource="http://purl.org/dc/dcmitype/StillImage"/>
    <dc:date>2022-07-08T02:20:49.191810</dc:date>
    <dc:format>image/svg+xml</dc:format>
    <dc:creator>
     <cc:Agent>
      <dc:title>Matplotlib v3.5.1, https://matplotlib.org/</dc:title>
     </cc:Agent>
    </dc:creator>
   </cc:Work>
  </rdf:RDF>
 </metadata>
 <defs>
  <style type="text/css">*{stroke-linejoin: round; stroke-linecap: butt}</style>
 </defs>
 <g id="figure_1">
  <g id="patch_1">
   <path d="M -0 194.43625 
L 623.723438 194.43625 
L 623.723438 0 
L -0 0 
L -0 194.43625 
z
" style="fill: none"/>
  </g>
  <g id="axes_1">
   <g id="patch_2">
    <path d="M 58.523438 170.28 
L 616.523438 170.28 
L 616.523438 7.2 
L 58.523438 7.2 
z
" style="fill: #ffffff"/>
   </g>
   <g id="PolyCollection_1">
    <defs>
     <path id="m60bfa9ab39" d="M 114.32361 -92.131919 
L 114.323265 -92.131919 
L 114.321447 -92.133566 
L 114.317411 -92.135212 
L 114.314376 -92.136859 
L 114.315087 -92.138505 
L 114.313468 -92.140152 
L 114.304448 -92.141799 
L 114.28675 -92.143445 
L 114.272875 -92.145092 
L 114.26199 -92.146738 
L 114.245003 -92.148385 
L 114.234212 -92.150032 
L 114.219376 -92.151678 
L 114.201238 -92.153325 
L 114.181735 -92.154971 
L 114.148923 -92.156618 
L 114.118819 -92.158265 
L 114.078822 -92.159911 
L 114.005343 -92.161558 
L 113.938485 -92.163205 
L 113.874199 -92.164851 
L 113.791883 -92.166498 
L 113.706358 -92.168144 
L 113.579001 -92.169791 
L 113.412199 -92.171438 
L 113.240628 -92.173084 
L 112.998766 -92.174731 
L 112.651071 -92.176377 
L 112.284395 -92.178024 
L 111.870559 -92.179671 
L 111.44622 -92.181317 
L 110.939607 -92.182964 
L 110.419419 -92.18461 
L 109.764242 -92.186257 
L 109.191405 -92.187904 
L 108.537997 -92.18955 
L 107.669146 -92.191197 
L 106.839569 -92.192843 
L 105.858803 -92.19449 
L 104.664375 -92.196137 
L 103.238322 -92.197783 
L 101.53125 -92.19943 
L 99.182801 -92.201076 
L 94.927318 -92.202723 
L 81.355616 -92.20437 
L 69.683437 -92.206016 
L 87.60048 -92.207663 
L 96.478623 -92.209309 
L 99.53939 -92.210956 
L 101.651177 -92.212603 
L 103.110334 -92.214249 
L 104.222828 -92.215896 
L 105.330937 -92.217543 
L 106.23468 -92.219189 
L 107.244101 -92.220836 
L 108.176531 -92.222482 
L 108.943956 -92.224129 
L 109.6846 -92.225776 
L 110.419948 -92.227422 
L 111.026693 -92.229069 
L 111.49776 -92.230715 
L 111.821919 -92.232362 
L 112.179977 -92.234009 
L 112.451227 -92.235655 
L 112.686211 -92.237302 
L 112.919649 -92.238948 
L 113.144663 -92.240595 
L 113.352339 -92.242242 
L 113.5036 -92.243888 
L 113.649566 -92.245535 
L 113.776318 -92.247181 
L 113.883636 -92.248828 
L 113.940898 -92.250475 
L 114.010783 -92.252121 
L 114.093945 -92.253768 
L 114.141476 -92.255414 
L 114.184256 -92.257061 
L 114.207389 -92.258708 
L 114.229623 -92.260354 
L 114.248871 -92.262001 
L 114.2461 -92.263648 
L 114.243746 -92.265294 
L 114.253282 -92.266941 
L 114.266332 -92.268587 
L 114.273215 -92.270234 
L 114.277896 -92.271881 
L 114.280449 -92.273527 
L 114.286547 -92.275174 
L 114.297943 -92.27682 
L 114.302773 -92.278467 
L 114.30688 -92.280114 
L 114.310405 -92.28176 
L 114.315818 -92.283407 
L 114.318325 -92.285053 
L 114.317241 -92.2867 
L 114.319773 -92.288347 
L 114.321841 -92.289993 
L 114.322666 -92.29164 
L 114.322895 -92.293286 
L 114.32336 -92.294933 
L 114.323515 -92.294933 
L 114.323515 -92.294933 
L 114.32398 -92.293286 
L 114.324209 -92.29164 
L 114.325034 -92.289993 
L 114.327102 -92.288347 
L 114.329634 -92.2867 
L 114.32855 -92.285053 
L 114.331057 -92.283407 
L 114.33647 -92.28176 
L 114.339995 -92.280114 
L 114.344102 -92.278467 
L 114.348932 -92.27682 
L 114.360328 -92.275174 
L 114.366426 -92.273527 
L 114.368979 -92.271881 
L 114.37366 -92.270234 
L 114.380543 -92.268587 
L 114.393593 -92.266941 
L 114.403129 -92.265294 
L 114.400775 -92.263648 
L 114.398004 -92.262001 
L 114.417252 -92.260354 
L 114.439486 -92.258708 
L 114.462619 -92.257061 
L 114.505399 -92.255414 
L 114.55293 -92.253768 
L 114.636092 -92.252121 
L 114.705977 -92.250475 
L 114.763239 -92.248828 
L 114.870557 -92.247181 
L 114.997309 -92.245535 
L 115.143275 -92.243888 
L 115.294536 -92.242242 
L 115.502212 -92.240595 
L 115.727226 -92.238948 
L 115.960664 -92.237302 
L 116.195648 -92.235655 
L 116.466898 -92.234009 
L 116.824956 -92.232362 
L 117.149115 -92.230715 
L 117.620182 -92.229069 
L 118.226927 -92.227422 
L 118.962275 -92.225776 
L 119.702919 -92.224129 
L 120.470344 -92.222482 
L 121.402774 -92.220836 
L 122.412195 -92.219189 
L 123.315938 -92.217543 
L 124.424047 -92.215896 
L 125.536541 -92.214249 
L 126.995698 -92.212603 
L 129.107485 -92.210956 
L 132.168252 -92.209309 
L 141.046395 -92.207663 
L 158.963438 -92.206016 
L 147.291259 -92.20437 
L 133.719557 -92.202723 
L 129.464074 -92.201076 
L 127.115625 -92.19943 
L 125.408553 -92.197783 
L 123.9825 -92.196137 
L 122.788072 -92.19449 
L 121.807306 -92.192843 
L 120.977729 -92.191197 
L 120.108878 -92.18955 
L 119.45547 -92.187904 
L 118.882633 -92.186257 
L 118.227456 -92.18461 
L 117.707268 -92.182964 
L 117.200655 -92.181317 
L 116.776316 -92.179671 
L 116.36248 -92.178024 
L 115.995804 -92.176377 
L 115.648109 -92.174731 
L 115.406247 -92.173084 
L 115.234676 -92.171438 
L 115.067874 -92.169791 
L 114.940517 -92.168144 
L 114.854992 -92.166498 
L 114.772676 -92.164851 
L 114.70839 -92.163205 
L 114.641532 -92.161558 
L 114.568053 -92.159911 
L 114.528056 -92.158265 
L 114.497952 -92.156618 
L 114.46514 -92.154971 
L 114.445637 -92.153325 
L 114.427499 -92.151678 
L 114.412663 -92.150032 
L 114.401872 -92.148385 
L 114.384885 -92.146738 
L 114.374 -92.145092 
L 114.360125 -92.143445 
L 114.342427 -92.141799 
L 114.333407 -92.140152 
L 114.331788 -92.138505 
L 114.332499 -92.136859 
L 114.329464 -92.135212 
L 114.325428 -92.133566 
L 114.32361 -92.131919 
z
" style="stroke: #3f3f3f; stroke-width: 1.5"/>
    </defs>
    <g clip-path="url(#p72e366f76f)">
     <use xlink:href="#m60bfa9ab39" x="0" y="194.43625" style="fill: #3274a1; stroke: #3f3f3f; stroke-width: 1.5"/>
    </g>
   </g>
   <g id="PolyCollection_2">
    <defs>
     <path id="ma7946c3846" d="M 225.923472 -91.820412 
L 225.923403 -91.820412 
L 225.923221 -91.829005 
L 225.922742 -91.837597 
L 225.921547 -91.84619 
L 225.919894 -91.854783 
L 225.918946 -91.863375 
L 225.917547 -91.871968 
L 225.915017 -91.880561 
L 225.914506 -91.889154 
L 225.914601 -91.897746 
L 225.911522 -91.906339 
L 225.90665 -91.914932 
L 225.902511 -91.923524 
L 225.900264 -91.932117 
L 225.899063 -91.94071 
L 225.896534 -91.949303 
L 225.890932 -91.957895 
L 225.881201 -91.966488 
L 225.862063 -91.975081 
L 225.833635 -91.983673 
L 225.797219 -91.992266 
L 225.752463 -92.000859 
L 225.702019 -92.009452 
L 225.66087 -92.018044 
L 225.614548 -92.026637 
L 225.562049 -92.03523 
L 225.515664 -92.043822 
L 225.469087 -92.052415 
L 225.418003 -92.061008 
L 225.349592 -92.069601 
L 225.274991 -92.078193 
L 225.197698 -92.086786 
L 225.080552 -92.095379 
L 224.891191 -92.103971 
L 224.654378 -92.112564 
L 224.377968 -92.121157 
L 224.080685 -92.12975 
L 223.783784 -92.138342 
L 223.529582 -92.146935 
L 223.346733 -92.155528 
L 223.200972 -92.16412 
L 223.023762 -92.172713 
L 222.784486 -92.181306 
L 222.518935 -92.189898 
L 222.256631 -92.198491 
L 222.139459 -92.207084 
L 222.348522 -92.215677 
L 222.717262 -92.224269 
L 223.009671 -92.232862 
L 223.239121 -92.241455 
L 223.402541 -92.250047 
L 223.560549 -92.25864 
L 223.80363 -92.267233 
L 224.085869 -92.275826 
L 224.327218 -92.284418 
L 224.490842 -92.293011 
L 224.619821 -92.301604 
L 224.761984 -92.310196 
L 224.923788 -92.318789 
L 225.082984 -92.327382 
L 225.228137 -92.335975 
L 225.361979 -92.344567 
L 225.473542 -92.35316 
L 225.561492 -92.361753 
L 225.623569 -92.370345 
L 225.669509 -92.378938 
L 225.717899 -92.387531 
L 225.771229 -92.396124 
L 225.815725 -92.404716 
L 225.849892 -92.413309 
L 225.87568 -92.421902 
L 225.895685 -92.430494 
L 225.907338 -92.439087 
L 225.912398 -92.44768 
L 225.912597 -92.456273 
L 225.911025 -92.464865 
L 225.910209 -92.473458 
L 225.90995 -92.482051 
L 225.910569 -92.490643 
L 225.90989 -92.499236 
L 225.908717 -92.507829 
L 225.909549 -92.516422 
L 225.911186 -92.525014 
L 225.910594 -92.533607 
L 225.908623 -92.5422 
L 225.906298 -92.550792 
L 225.907153 -92.559385 
L 225.910627 -92.567978 
L 225.913517 -92.576571 
L 225.914966 -92.585163 
L 225.914887 -92.593756 
L 225.915462 -92.602349 
L 225.917909 -92.610941 
L 225.92068 -92.619534 
L 225.921704 -92.628127 
L 225.921963 -92.63672 
L 225.922359 -92.645312 
L 225.922509 -92.653905 
L 225.92306 -92.662498 
L 225.923386 -92.67109 
L 225.923489 -92.67109 
L 225.923489 -92.67109 
L 225.923815 -92.662498 
L 225.924366 -92.653905 
L 225.924516 -92.645312 
L 225.924912 -92.63672 
L 225.925171 -92.628127 
L 225.926195 -92.619534 
L 225.928966 -92.610941 
L 225.931413 -92.602349 
L 225.931988 -92.593756 
L 225.931909 -92.585163 
L 225.933358 -92.576571 
L 225.936248 -92.567978 
L 225.939722 -92.559385 
L 225.940577 -92.550792 
L 225.938252 -92.5422 
L 225.936281 -92.533607 
L 225.935689 -92.525014 
L 225.937326 -92.516422 
L 225.938158 -92.507829 
L 225.936985 -92.499236 
L 225.936306 -92.490643 
L 225.936925 -92.482051 
L 225.936666 -92.473458 
L 225.93585 -92.464865 
L 225.934278 -92.456273 
L 225.934477 -92.44768 
L 225.939537 -92.439087 
L 225.95119 -92.430494 
L 225.971195 -92.421902 
L 225.996983 -92.413309 
L 226.03115 -92.404716 
L 226.075646 -92.396124 
L 226.128976 -92.387531 
L 226.177366 -92.378938 
L 226.223306 -92.370345 
L 226.285383 -92.361753 
L 226.373333 -92.35316 
L 226.484896 -92.344567 
L 226.618738 -92.335975 
L 226.763891 -92.327382 
L 226.923087 -92.318789 
L 227.084891 -92.310196 
L 227.227054 -92.301604 
L 227.356033 -92.293011 
L 227.519657 -92.284418 
L 227.761006 -92.275826 
L 228.043245 -92.267233 
L 228.286326 -92.25864 
L 228.444334 -92.250047 
L 228.607754 -92.241455 
L 228.837204 -92.232862 
L 229.129613 -92.224269 
L 229.498353 -92.215677 
L 229.707416 -92.207084 
L 229.590244 -92.198491 
L 229.32794 -92.189898 
L 229.062389 -92.181306 
L 228.823113 -92.172713 
L 228.645903 -92.16412 
L 228.500142 -92.155528 
L 228.317293 -92.146935 
L 228.063091 -92.138342 
L 227.76619 -92.12975 
L 227.468907 -92.121157 
L 227.192497 -92.112564 
L 226.955684 -92.103971 
L 226.766323 -92.095379 
L 226.649177 -92.086786 
L 226.571884 -92.078193 
L 226.497283 -92.069601 
L 226.428872 -92.061008 
L 226.377788 -92.052415 
L 226.331211 -92.043822 
L 226.284826 -92.03523 
L 226.232327 -92.026637 
L 226.186005 -92.018044 
L 226.144856 -92.009452 
L 226.094412 -92.000859 
L 226.049656 -91.992266 
L 226.01324 -91.983673 
L 225.984812 -91.975081 
L 225.965674 -91.966488 
L 225.955943 -91.957895 
L 225.950341 -91.949303 
L 225.947812 -91.94071 
L 225.946611 -91.932117 
L 225.944364 -91.923524 
L 225.940225 -91.914932 
L 225.935353 -91.906339 
L 225.932274 -91.897746 
L 225.932369 -91.889154 
L 225.931858 -91.880561 
L 225.929328 -91.871968 
L 225.927929 -91.863375 
L 225.926981 -91.854783 
L 225.925328 -91.84619 
L 225.924133 -91.837597 
L 225.923654 -91.829005 
L 225.923472 -91.820412 
z
" style="stroke: #3f3f3f; stroke-width: 1.5"/>
    </defs>
    <g clip-path="url(#p72e366f76f)">
     <use xlink:href="#ma7946c3846" x="0" y="194.43625" style="fill: #3274a1; stroke: #3f3f3f; stroke-width: 1.5"/>
    </g>
   </g>
   <g id="PolyCollection_3">
    <defs>
     <path id="m1385ffeeb4" d="M 337.523452 -90.517452 
L 337.523423 -90.517452 
L 337.523371 -90.550931 
L 337.523277 -90.58441 
L 337.523197 -90.617889 
L 337.523174 -90.651368 
L 337.523169 -90.684847 
L 337.523052 -90.718327 
L 337.522715 -90.751806 
L 337.522294 -90.785285 
L 337.521885 -90.818764 
L 337.521398 -90.852243 
L 337.520985 -90.885722 
L 337.520754 -90.919201 
L 337.520301 -90.95268 
L 337.519379 -90.986159 
L 337.518278 -91.019638 
L 337.516893 -91.053117 
L 337.515212 -91.086596 
L 337.513542 -91.120075 
L 337.511692 -91.153554 
L 337.509106 -91.187033 
L 337.505337 -91.220512 
L 337.500745 -91.253991 
L 337.495831 -91.28747 
L 337.489608 -91.320949 
L 337.481059 -91.354428 
L 337.471614 -91.387907 
L 337.461417 -91.421386 
L 337.447218 -91.454865 
L 337.428118 -91.488344 
L 337.406695 -91.521823 
L 337.38429 -91.555302 
L 337.360795 -91.588781 
L 337.335586 -91.62226 
L 337.307474 -91.655739 
L 337.275551 -91.689218 
L 337.24095 -91.722697 
L 337.207244 -91.756176 
L 337.178097 -91.789655 
L 337.151186 -91.823134 
L 337.121797 -91.856613 
L 337.08972 -91.890092 
L 337.055282 -91.923571 
L 337.020098 -91.95705 
L 336.986763 -91.990529 
L 336.948574 -92.024008 
L 336.903636 -92.057487 
L 336.870479 -92.090966 
L 336.867954 -92.124445 
L 336.890876 -92.157924 
L 336.904645 -92.191403 
L 336.863483 -92.224882 
L 336.77922 -92.258361 
L 336.743872 -92.29184 
L 336.79231 -92.325319 
L 336.863303 -92.358798 
L 336.914787 -92.392277 
L 336.955334 -92.425756 
L 336.995216 -92.459235 
L 337.033314 -92.492714 
L 337.074968 -92.526193 
L 337.122786 -92.559672 
L 337.169134 -92.593151 
L 337.210523 -92.62663 
L 337.249639 -92.660109 
L 337.287581 -92.693588 
L 337.323708 -92.727067 
L 337.356092 -92.760546 
L 337.382529 -92.794025 
L 337.402836 -92.827504 
L 337.419535 -92.860983 
L 337.434765 -92.894462 
L 337.448197 -92.927941 
L 337.458929 -92.96142 
L 337.467642 -92.994899 
L 337.475872 -93.028378 
L 337.483444 -93.061857 
L 337.48998 -93.095336 
L 337.495666 -93.128815 
L 337.500162 -93.162294 
L 337.503594 -93.195773 
L 337.506214 -93.229252 
L 337.508319 -93.262731 
L 337.510617 -93.29621 
L 337.512902 -93.329689 
L 337.51459 -93.363168 
L 337.515949 -93.396647 
L 337.517368 -93.430126 
L 337.518729 -93.463605 
L 337.519884 -93.497084 
L 337.520828 -93.530563 
L 337.521527 -93.564042 
L 337.522102 -93.597521 
L 337.522611 -93.631 
L 337.522938 -93.664479 
L 337.523095 -93.697958 
L 337.523173 -93.731437 
L 337.523264 -93.764916 
L 337.523365 -93.798395 
L 337.523421 -93.831874 
L 337.523454 -93.831874 
L 337.523454 -93.831874 
L 337.52351 -93.798395 
L 337.523611 -93.764916 
L 337.523702 -93.731437 
L 337.52378 -93.697958 
L 337.523937 -93.664479 
L 337.524264 -93.631 
L 337.524773 -93.597521 
L 337.525348 -93.564042 
L 337.526047 -93.530563 
L 337.526991 -93.497084 
L 337.528146 -93.463605 
L 337.529507 -93.430126 
L 337.530926 -93.396647 
L 337.532285 -93.363168 
L 337.533973 -93.329689 
L 337.536258 -93.29621 
L 337.538556 -93.262731 
L 337.540661 -93.229252 
L 337.543281 -93.195773 
L 337.546713 -93.162294 
L 337.551209 -93.128815 
L 337.556895 -93.095336 
L 337.563431 -93.061857 
L 337.571003 -93.028378 
L 337.579233 -92.994899 
L 337.587946 -92.96142 
L 337.598678 -92.927941 
L 337.61211 -92.894462 
L 337.62734 -92.860983 
L 337.644039 -92.827504 
L 337.664346 -92.794025 
L 337.690783 -92.760546 
L 337.723167 -92.727067 
L 337.759294 -92.693588 
L 337.797236 -92.660109 
L 337.836352 -92.62663 
L 337.877741 -92.593151 
L 337.924089 -92.559672 
L 337.971907 -92.526193 
L 338.013561 -92.492714 
L 338.051659 -92.459235 
L 338.091541 -92.425756 
L 338.132088 -92.392277 
L 338.183572 -92.358798 
L 338.254565 -92.325319 
L 338.303003 -92.29184 
L 338.267655 -92.258361 
L 338.183392 -92.224882 
L 338.14223 -92.191403 
L 338.155999 -92.157924 
L 338.178921 -92.124445 
L 338.176396 -92.090966 
L 338.143239 -92.057487 
L 338.098301 -92.024008 
L 338.060112 -91.990529 
L 338.026777 -91.95705 
L 337.991593 -91.923571 
L 337.957155 -91.890092 
L 337.925078 -91.856613 
L 337.895689 -91.823134 
L 337.868778 -91.789655 
L 337.839631 -91.756176 
L 337.805925 -91.722697 
L 337.771324 -91.689218 
L 337.739401 -91.655739 
L 337.711289 -91.62226 
L 337.68608 -91.588781 
L 337.662585 -91.555302 
L 337.64018 -91.521823 
L 337.618757 -91.488344 
L 337.599657 -91.454865 
L 337.585458 -91.421386 
L 337.575261 -91.387907 
L 337.565816 -91.354428 
L 337.557267 -91.320949 
L 337.551044 -91.28747 
L 337.54613 -91.253991 
L 337.541538 -91.220512 
L 337.537769 -91.187033 
L 337.535183 -91.153554 
L 337.533333 -91.120075 
L 337.531663 -91.086596 
L 337.529982 -91.053117 
L 337.528597 -91.019638 
L 337.527496 -90.986159 
L 337.526574 -90.95268 
L 337.526121 -90.919201 
L 337.52589 -90.885722 
L 337.525477 -90.852243 
L 337.52499 -90.818764 
L 337.524581 -90.785285 
L 337.52416 -90.751806 
L 337.523823 -90.718327 
L 337.523706 -90.684847 
L 337.523701 -90.651368 
L 337.523678 -90.617889 
L 337.523598 -90.58441 
L 337.523504 -90.550931 
L 337.523452 -90.517452 
z
" style="stroke: #3f3f3f; stroke-width: 1.5"/>
    </defs>
    <g clip-path="url(#p72e366f76f)">
     <use xlink:href="#m1385ffeeb4" x="0" y="194.43625" style="fill: #3274a1; stroke: #3f3f3f; stroke-width: 1.5"/>
    </g>
   </g>
   <g id="PolyCollection_4">
    <defs>
     <path id="m75b88c1351" d="M 449.123447 -83.538376 
L 449.123428 -83.538376 
L 449.1234 -83.70887 
L 449.123343 -83.879364 
L 449.123282 -84.049858 
L 449.123248 -84.220352 
L 449.123223 -84.390846 
L 449.123157 -84.561341 
L 449.123043 -84.731835 
L 449.12292 -84.902329 
L 449.122806 -85.072823 
L 449.122664 -85.243317 
L 449.122466 -85.413811 
L 449.122231 -85.584305 
L 449.122023 -85.754799 
L 449.121935 -85.925294 
L 449.121974 -86.095788 
L 449.121949 -86.266282 
L 449.121691 -86.436776 
L 449.121302 -86.60727 
L 449.120959 -86.777764 
L 449.120682 -86.948258 
L 449.120446 -87.118753 
L 449.120305 -87.289247 
L 449.120269 -87.459741 
L 449.12014 -87.630235 
L 449.119699 -87.800729 
L 449.11898 -87.971223 
L 449.118202 -88.141717 
L 449.117431 -88.312212 
L 449.116382 -88.482706 
L 449.114707 -88.6532 
L 449.112517 -88.823694 
L 449.110343 -88.994188 
L 449.108411 -89.164682 
L 449.106288 -89.335176 
L 449.103501 -89.505671 
L 449.100046 -89.676165 
L 449.095699 -89.846659 
L 449.089652 -90.017153 
L 449.081494 -90.187647 
L 449.071881 -90.358141 
L 449.06211 -90.528635 
L 449.053504 -90.69913 
L 449.046456 -90.869624 
L 449.040053 -91.040118 
L 449.033042 -91.210612 
L 449.023424 -91.381106 
L 449.008943 -91.5516 
L 448.993338 -91.722094 
L 448.98681 -91.892589 
L 448.993836 -92.063083 
L 449.006397 -92.233577 
L 449.011794 -92.404071 
L 449.006941 -92.574565 
L 448.999854 -92.745059 
L 448.995785 -92.915553 
L 448.994203 -93.086047 
L 448.995188 -93.256542 
L 448.999235 -93.427036 
L 449.005239 -93.59753 
L 449.011252 -93.768024 
L 449.015727 -93.938518 
L 449.018778 -94.109012 
L 449.022005 -94.279506 
L 449.026309 -94.450001 
L 449.031866 -94.620495 
L 449.039325 -94.790989 
L 449.048652 -94.961483 
L 449.058987 -95.131977 
L 449.069629 -95.302471 
L 449.079705 -95.472965 
L 449.088522 -95.64346 
L 449.095799 -95.813954 
L 449.10133 -95.984448 
L 449.105296 -96.154942 
L 449.108319 -96.325436 
L 449.110872 -96.49593 
L 449.113008 -96.666424 
L 449.114559 -96.836919 
L 449.115508 -97.007413 
L 449.116182 -97.177907 
L 449.117005 -97.348401 
L 449.117991 -97.518895 
L 449.118801 -97.689389 
L 449.119287 -97.859883 
L 449.119625 -98.030378 
L 449.120036 -98.200872 
L 449.120571 -98.371366 
L 449.121137 -98.54186 
L 449.12165 -98.712354 
L 449.122097 -98.882848 
L 449.122462 -99.053342 
L 449.122726 -99.223836 
L 449.122908 -99.394331 
L 449.123041 -99.564825 
L 449.123147 -99.735319 
L 449.123241 -99.905813 
L 449.12333 -100.076307 
L 449.123396 -100.246801 
L 449.123427 -100.417295 
L 449.123448 -100.417295 
L 449.123448 -100.417295 
L 449.123479 -100.246801 
L 449.123545 -100.076307 
L 449.123634 -99.905813 
L 449.123728 -99.735319 
L 449.123834 -99.564825 
L 449.123967 -99.394331 
L 449.124149 -99.223836 
L 449.124413 -99.053342 
L 449.124778 -98.882848 
L 449.125225 -98.712354 
L 449.125738 -98.54186 
L 449.126304 -98.371366 
L 449.126839 -98.200872 
L 449.12725 -98.030378 
L 449.127588 -97.859883 
L 449.128074 -97.689389 
L 449.128884 -97.518895 
L 449.12987 -97.348401 
L 449.130693 -97.177907 
L 449.131367 -97.007413 
L 449.132316 -96.836919 
L 449.133867 -96.666424 
L 449.136003 -96.49593 
L 449.138556 -96.325436 
L 449.141579 -96.154942 
L 449.145545 -95.984448 
L 449.151076 -95.813954 
L 449.158353 -95.64346 
L 449.16717 -95.472965 
L 449.177246 -95.302471 
L 449.187888 -95.131977 
L 449.198223 -94.961483 
L 449.20755 -94.790989 
L 449.215009 -94.620495 
L 449.220566 -94.450001 
L 449.22487 -94.279506 
L 449.228097 -94.109012 
L 449.231148 -93.938518 
L 449.235623 -93.768024 
L 449.241636 -93.59753 
L 449.24764 -93.427036 
L 449.251687 -93.256542 
L 449.252672 -93.086047 
L 449.25109 -92.915553 
L 449.247021 -92.745059 
L 449.239934 -92.574565 
L 449.235081 -92.404071 
L 449.240478 -92.233577 
L 449.253039 -92.063083 
L 449.260065 -91.892589 
L 449.253537 -91.722094 
L 449.237932 -91.5516 
L 449.223451 -91.381106 
L 449.213833 -91.210612 
L 449.206822 -91.040118 
L 449.200419 -90.869624 
L 449.193371 -90.69913 
L 449.184765 -90.528635 
L 449.174994 -90.358141 
L 449.165381 -90.187647 
L 449.157223 -90.017153 
L 449.151176 -89.846659 
L 449.146829 -89.676165 
L 449.143374 -89.505671 
L 449.140587 -89.335176 
L 449.138464 -89.164682 
L 449.136532 -88.994188 
L 449.134358 -88.823694 
L 449.132168 -88.6532 
L 449.130493 -88.482706 
L 449.129444 -88.312212 
L 449.128673 -88.141717 
L 449.127895 -87.971223 
L 449.127176 -87.800729 
L 449.126735 -87.630235 
L 449.126606 -87.459741 
L 449.12657 -87.289247 
L 449.126429 -87.118753 
L 449.126193 -86.948258 
L 449.125916 -86.777764 
L 449.125573 -86.60727 
L 449.125184 -86.436776 
L 449.124926 -86.266282 
L 449.124901 -86.095788 
L 449.12494 -85.925294 
L 449.124852 -85.754799 
L 449.124644 -85.584305 
L 449.124409 -85.413811 
L 449.124211 -85.243317 
L 449.124069 -85.072823 
L 449.123955 -84.902329 
L 449.123832 -84.731835 
L 449.123718 -84.561341 
L 449.123652 -84.390846 
L 449.123627 -84.220352 
L 449.123593 -84.049858 
L 449.123532 -83.879364 
L 449.123475 -83.70887 
L 449.123447 -83.538376 
z
" style="stroke: #3f3f3f; stroke-width: 1.5"/>
    </defs>
    <g clip-path="url(#p72e366f76f)">
     <use xlink:href="#m75b88c1351" x="0" y="194.43625" style="fill: #3274a1; stroke: #3f3f3f; stroke-width: 1.5"/>
    </g>
   </g>
   <g id="PolyCollection_5">
    <defs>
     <path id="m44a0d3829f" d="M 560.723446 -31.568977 
L 560.723429 -31.568977 
L 560.723422 -33.066498 
L 560.72341 -34.564019 
L 560.723392 -36.061539 
L 560.723366 -37.55906 
L 560.72333 -39.056581 
L 560.723281 -40.554101 
L 560.723215 -42.051622 
L 560.723129 -43.549143 
L 560.723021 -45.046663 
L 560.722886 -46.544184 
L 560.722723 -48.041705 
L 560.72253 -49.539225 
L 560.722306 -51.036746 
L 560.722051 -52.534267 
L 560.721764 -54.031787 
L 560.721442 -55.529308 
L 560.721079 -57.026829 
L 560.720668 -58.524349 
L 560.7202 -60.02187 
L 560.719663 -61.51939 
L 560.719046 -63.016911 
L 560.718336 -64.514432 
L 560.717522 -66.011952 
L 560.716596 -67.509473 
L 560.715554 -69.006994 
L 560.714402 -70.504514 
L 560.713162 -72.002035 
L 560.711869 -73.499556 
L 560.710578 -74.997076 
L 560.709356 -76.494597 
L 560.708278 -77.992118 
L 560.707419 -79.489638 
L 560.706847 -80.987159 
L 560.706622 -82.48468 
L 560.706786 -83.9822 
L 560.707363 -85.479721 
L 560.708347 -86.977242 
L 560.709696 -88.474762 
L 560.711319 -89.972283 
L 560.713086 -91.469804 
L 560.714834 -92.967324 
L 560.716404 -94.464845 
L 560.717669 -95.962366 
L 560.71856 -97.459886 
L 560.719079 -98.957407 
L 560.719291 -100.454928 
L 560.719302 -101.952448 
L 560.719228 -103.449969 
L 560.719173 -104.94749 
L 560.719202 -106.44501 
L 560.71934 -107.942531 
L 560.719575 -109.440052 
L 560.719865 -110.937572 
L 560.72016 -112.435093 
L 560.720409 -113.932614 
L 560.720579 -115.430134 
L 560.720652 -116.927655 
L 560.720631 -118.425176 
L 560.720531 -119.922696 
L 560.720378 -121.420217 
L 560.720202 -122.917738 
L 560.720029 -124.415258 
L 560.719879 -125.912779 
L 560.719769 -127.4103 
L 560.719706 -128.90782 
L 560.719693 -130.405341 
L 560.71973 -131.902862 
L 560.719816 -133.400382 
L 560.719947 -134.897903 
L 560.720116 -136.395424 
L 560.720318 -137.892944 
L 560.720542 -139.390465 
L 560.72078 -140.887986 
L 560.721021 -142.385506 
L 560.721258 -143.883027 
L 560.721485 -145.380548 
L 560.721698 -146.878068 
L 560.721897 -148.375589 
L 560.722084 -149.87311 
L 560.722259 -151.37063 
L 560.722423 -152.868151 
L 560.722574 -154.365671 
L 560.722713 -155.863192 
L 560.722837 -157.360713 
L 560.722945 -158.858233 
L 560.723037 -160.355754 
L 560.723115 -161.853275 
L 560.723178 -163.350795 
L 560.723229 -164.848316 
L 560.723271 -166.345837 
L 560.723306 -167.843357 
L 560.723335 -169.340878 
L 560.723359 -170.838399 
L 560.723379 -172.335919 
L 560.723396 -173.83344 
L 560.723409 -175.330961 
L 560.723419 -176.828481 
L 560.723427 -178.326002 
L 560.723431 -179.823523 
L 560.723444 -179.823523 
L 560.723444 -179.823523 
L 560.723448 -178.326002 
L 560.723456 -176.828481 
L 560.723466 -175.330961 
L 560.723479 -173.83344 
L 560.723496 -172.335919 
L 560.723516 -170.838399 
L 560.72354 -169.340878 
L 560.723569 -167.843357 
L 560.723604 -166.345837 
L 560.723646 -164.848316 
L 560.723697 -163.350795 
L 560.72376 -161.853275 
L 560.723838 -160.355754 
L 560.72393 -158.858233 
L 560.724038 -157.360713 
L 560.724162 -155.863192 
L 560.724301 -154.365671 
L 560.724452 -152.868151 
L 560.724616 -151.37063 
L 560.724791 -149.87311 
L 560.724978 -148.375589 
L 560.725177 -146.878068 
L 560.72539 -145.380548 
L 560.725617 -143.883027 
L 560.725854 -142.385506 
L 560.726095 -140.887986 
L 560.726333 -139.390465 
L 560.726557 -137.892944 
L 560.726759 -136.395424 
L 560.726928 -134.897903 
L 560.727059 -133.400382 
L 560.727145 -131.902862 
L 560.727182 -130.405341 
L 560.727169 -128.90782 
L 560.727106 -127.4103 
L 560.726996 -125.912779 
L 560.726846 -124.415258 
L 560.726673 -122.917738 
L 560.726497 -121.420217 
L 560.726344 -119.922696 
L 560.726244 -118.425176 
L 560.726223 -116.927655 
L 560.726296 -115.430134 
L 560.726466 -113.932614 
L 560.726715 -112.435093 
L 560.72701 -110.937572 
L 560.7273 -109.440052 
L 560.727535 -107.942531 
L 560.727673 -106.44501 
L 560.727702 -104.94749 
L 560.727647 -103.449969 
L 560.727573 -101.952448 
L 560.727584 -100.454928 
L 560.727796 -98.957407 
L 560.728315 -97.459886 
L 560.729206 -95.962366 
L 560.730471 -94.464845 
L 560.732041 -92.967324 
L 560.733789 -91.469804 
L 560.735556 -89.972283 
L 560.737179 -88.474762 
L 560.738528 -86.977242 
L 560.739512 -85.479721 
L 560.740089 -83.9822 
L 560.740253 -82.48468 
L 560.740028 -80.987159 
L 560.739456 -79.489638 
L 560.738597 -77.992118 
L 560.737519 -76.494597 
L 560.736297 -74.997076 
L 560.735006 -73.499556 
L 560.733713 -72.002035 
L 560.732473 -70.504514 
L 560.731321 -69.006994 
L 560.730279 -67.509473 
L 560.729353 -66.011952 
L 560.728539 -64.514432 
L 560.727829 -63.016911 
L 560.727212 -61.51939 
L 560.726675 -60.02187 
L 560.726207 -58.524349 
L 560.725796 -57.026829 
L 560.725433 -55.529308 
L 560.725111 -54.031787 
L 560.724824 -52.534267 
L 560.724569 -51.036746 
L 560.724345 -49.539225 
L 560.724152 -48.041705 
L 560.723989 -46.544184 
L 560.723854 -45.046663 
L 560.723746 -43.549143 
L 560.72366 -42.051622 
L 560.723594 -40.554101 
L 560.723545 -39.056581 
L 560.723509 -37.55906 
L 560.723483 -36.061539 
L 560.723465 -34.564019 
L 560.723453 -33.066498 
L 560.723446 -31.568977 
z
" style="stroke: #3f3f3f; stroke-width: 1.5"/>
    </defs>
    <g clip-path="url(#p72e366f76f)">
     <use xlink:href="#m44a0d3829f" x="0" y="194.43625" style="fill: #3274a1; stroke: #3f3f3f; stroke-width: 1.5"/>
    </g>
   </g>
   <g id="matplotlib.axis_1">
    <g id="xtick_1">
     <g id="line2d_1">
      <defs>
       <path id="m6edaabe4e4" d="M 0 0 
L 0 3.5 
" style="stroke: #000000; stroke-width: 0.8"/>
      </defs>
      <g>
       <use xlink:href="#m6edaabe4e4" x="114.323438" y="170.28" style="stroke: #000000; stroke-width: 0.8"/>
      </g>
     </g>
     <g id="text_1">
      <!-- dense_1 -->
      <g transform="translate(93.541406 184.878438)scale(0.1 -0.1)">
       <defs>
        <path id="DejaVuSans-64" d="M 2906 2969 
L 2906 4863 
L 3481 4863 
L 3481 0 
L 2906 0 
L 2906 525 
Q 2725 213 2448 61 
Q 2172 -91 1784 -91 
Q 1150 -91 751 415 
Q 353 922 353 1747 
Q 353 2572 751 3078 
Q 1150 3584 1784 3584 
Q 2172 3584 2448 3432 
Q 2725 3281 2906 2969 
z
M 947 1747 
Q 947 1113 1208 752 
Q 1469 391 1925 391 
Q 2381 391 2643 752 
Q 2906 1113 2906 1747 
Q 2906 2381 2643 2742 
Q 2381 3103 1925 3103 
Q 1469 3103 1208 2742 
Q 947 2381 947 1747 
z
" transform="scale(0.015625)"/>
        <path id="DejaVuSans-65" d="M 3597 1894 
L 3597 1613 
L 953 1613 
Q 991 1019 1311 708 
Q 1631 397 2203 397 
Q 2534 397 2845 478 
Q 3156 559 3463 722 
L 3463 178 
Q 3153 47 2828 -22 
Q 2503 -91 2169 -91 
Q 1331 -91 842 396 
Q 353 884 353 1716 
Q 353 2575 817 3079 
Q 1281 3584 2069 3584 
Q 2775 3584 3186 3129 
Q 3597 2675 3597 1894 
z
M 3022 2063 
Q 3016 2534 2758 2815 
Q 2500 3097 2075 3097 
Q 1594 3097 1305 2825 
Q 1016 2553 972 2059 
L 3022 2063 
z
" transform="scale(0.015625)"/>
        <path id="DejaVuSans-6e" d="M 3513 2113 
L 3513 0 
L 2938 0 
L 2938 2094 
Q 2938 2591 2744 2837 
Q 2550 3084 2163 3084 
Q 1697 3084 1428 2787 
Q 1159 2491 1159 1978 
L 1159 0 
L 581 0 
L 581 3500 
L 1159 3500 
L 1159 2956 
Q 1366 3272 1645 3428 
Q 1925 3584 2291 3584 
Q 2894 3584 3203 3211 
Q 3513 2838 3513 2113 
z
" transform="scale(0.015625)"/>
        <path id="DejaVuSans-73" d="M 2834 3397 
L 2834 2853 
Q 2591 2978 2328 3040 
Q 2066 3103 1784 3103 
Q 1356 3103 1142 2972 
Q 928 2841 928 2578 
Q 928 2378 1081 2264 
Q 1234 2150 1697 2047 
L 1894 2003 
Q 2506 1872 2764 1633 
Q 3022 1394 3022 966 
Q 3022 478 2636 193 
Q 2250 -91 1575 -91 
Q 1294 -91 989 -36 
Q 684 19 347 128 
L 347 722 
Q 666 556 975 473 
Q 1284 391 1588 391 
Q 1994 391 2212 530 
Q 2431 669 2431 922 
Q 2431 1156 2273 1281 
Q 2116 1406 1581 1522 
L 1381 1569 
Q 847 1681 609 1914 
Q 372 2147 372 2553 
Q 372 3047 722 3315 
Q 1072 3584 1716 3584 
Q 2034 3584 2315 3537 
Q 2597 3491 2834 3397 
z
" transform="scale(0.015625)"/>
        <path id="DejaVuSans-5f" d="M 3263 -1063 
L 3263 -1509 
L -63 -1509 
L -63 -1063 
L 3263 -1063 
z
" transform="scale(0.015625)"/>
        <path id="DejaVuSans-31" d="M 794 531 
L 1825 531 
L 1825 4091 
L 703 3866 
L 703 4441 
L 1819 4666 
L 2450 4666 
L 2450 531 
L 3481 531 
L 3481 0 
L 794 0 
L 794 531 
z
" transform="scale(0.015625)"/>
       </defs>
       <use xlink:href="#DejaVuSans-64"/>
       <use xlink:href="#DejaVuSans-65" x="63.476562"/>
       <use xlink:href="#DejaVuSans-6e" x="125"/>
       <use xlink:href="#DejaVuSans-73" x="188.378906"/>
       <use xlink:href="#DejaVuSans-65" x="240.478516"/>
       <use xlink:href="#DejaVuSans-5f" x="302.001953"/>
       <use xlink:href="#DejaVuSans-31" x="352.001953"/>
      </g>
     </g>
    </g>
    <g id="xtick_2">
     <g id="line2d_2">
      <g>
       <use xlink:href="#m6edaabe4e4" x="225.923438" y="170.28" style="stroke: #000000; stroke-width: 0.8"/>
      </g>
     </g>
     <g id="text_2">
      <!-- dense_3 -->
      <g transform="translate(205.141406 184.878438)scale(0.1 -0.1)">
       <defs>
        <path id="DejaVuSans-33" d="M 2597 2516 
Q 3050 2419 3304 2112 
Q 3559 1806 3559 1356 
Q 3559 666 3084 287 
Q 2609 -91 1734 -91 
Q 1441 -91 1130 -33 
Q 819 25 488 141 
L 488 750 
Q 750 597 1062 519 
Q 1375 441 1716 441 
Q 2309 441 2620 675 
Q 2931 909 2931 1356 
Q 2931 1769 2642 2001 
Q 2353 2234 1838 2234 
L 1294 2234 
L 1294 2753 
L 1863 2753 
Q 2328 2753 2575 2939 
Q 2822 3125 2822 3475 
Q 2822 3834 2567 4026 
Q 2313 4219 1838 4219 
Q 1578 4219 1281 4162 
Q 984 4106 628 3988 
L 628 4550 
Q 988 4650 1302 4700 
Q 1616 4750 1894 4750 
Q 2613 4750 3031 4423 
Q 3450 4097 3450 3541 
Q 3450 3153 3228 2886 
Q 3006 2619 2597 2516 
z
" transform="scale(0.015625)"/>
       </defs>
       <use xlink:href="#DejaVuSans-64"/>
       <use xlink:href="#DejaVuSans-65" x="63.476562"/>
       <use xlink:href="#DejaVuSans-6e" x="125"/>
       <use xlink:href="#DejaVuSans-73" x="188.378906"/>
       <use xlink:href="#DejaVuSans-65" x="240.478516"/>
       <use xlink:href="#DejaVuSans-5f" x="302.001953"/>
       <use xlink:href="#DejaVuSans-33" x="352.001953"/>
      </g>
     </g>
    </g>
    <g id="xtick_3">
     <g id="line2d_3">
      <g>
       <use xlink:href="#m6edaabe4e4" x="337.523438" y="170.28" style="stroke: #000000; stroke-width: 0.8"/>
      </g>
     </g>
     <g id="text_3">
      <!-- dense_5 -->
      <g transform="translate(316.741406 184.878438)scale(0.1 -0.1)">
       <defs>
        <path id="DejaVuSans-35" d="M 691 4666 
L 3169 4666 
L 3169 4134 
L 1269 4134 
L 1269 2991 
Q 1406 3038 1543 3061 
Q 1681 3084 1819 3084 
Q 2600 3084 3056 2656 
Q 3513 2228 3513 1497 
Q 3513 744 3044 326 
Q 2575 -91 1722 -91 
Q 1428 -91 1123 -41 
Q 819 9 494 109 
L 494 744 
Q 775 591 1075 516 
Q 1375 441 1709 441 
Q 2250 441 2565 725 
Q 2881 1009 2881 1497 
Q 2881 1984 2565 2268 
Q 2250 2553 1709 2553 
Q 1456 2553 1204 2497 
Q 953 2441 691 2322 
L 691 4666 
z
" transform="scale(0.015625)"/>
       </defs>
       <use xlink:href="#DejaVuSans-64"/>
       <use xlink:href="#DejaVuSans-65" x="63.476562"/>
       <use xlink:href="#DejaVuSans-6e" x="125"/>
       <use xlink:href="#DejaVuSans-73" x="188.378906"/>
       <use xlink:href="#DejaVuSans-65" x="240.478516"/>
       <use xlink:href="#DejaVuSans-5f" x="302.001953"/>
       <use xlink:href="#DejaVuSans-35" x="352.001953"/>
      </g>
     </g>
    </g>
    <g id="xtick_4">
     <g id="line2d_4">
      <g>
       <use xlink:href="#m6edaabe4e4" x="449.123438" y="170.28" style="stroke: #000000; stroke-width: 0.8"/>
      </g>
     </g>
     <g id="text_4">
      <!-- dense_7 -->
      <g transform="translate(428.341406 184.878438)scale(0.1 -0.1)">
       <defs>
        <path id="DejaVuSans-37" d="M 525 4666 
L 3525 4666 
L 3525 4397 
L 1831 0 
L 1172 0 
L 2766 4134 
L 525 4134 
L 525 4666 
z
" transform="scale(0.015625)"/>
       </defs>
       <use xlink:href="#DejaVuSans-64"/>
       <use xlink:href="#DejaVuSans-65" x="63.476562"/>
       <use xlink:href="#DejaVuSans-6e" x="125"/>
       <use xlink:href="#DejaVuSans-73" x="188.378906"/>
       <use xlink:href="#DejaVuSans-65" x="240.478516"/>
       <use xlink:href="#DejaVuSans-5f" x="302.001953"/>
       <use xlink:href="#DejaVuSans-37" x="352.001953"/>
      </g>
     </g>
    </g>
    <g id="xtick_5">
     <g id="line2d_5">
      <g>
       <use xlink:href="#m6edaabe4e4" x="560.723438" y="170.28" style="stroke: #000000; stroke-width: 0.8"/>
      </g>
     </g>
     <g id="text_5">
      <!-- dense_9 -->
      <g transform="translate(539.941406 184.878438)scale(0.1 -0.1)">
       <defs>
        <path id="DejaVuSans-39" d="M 703 97 
L 703 672 
Q 941 559 1184 500 
Q 1428 441 1663 441 
Q 2288 441 2617 861 
Q 2947 1281 2994 2138 
Q 2813 1869 2534 1725 
Q 2256 1581 1919 1581 
Q 1219 1581 811 2004 
Q 403 2428 403 3163 
Q 403 3881 828 4315 
Q 1253 4750 1959 4750 
Q 2769 4750 3195 4129 
Q 3622 3509 3622 2328 
Q 3622 1225 3098 567 
Q 2575 -91 1691 -91 
Q 1453 -91 1209 -44 
Q 966 3 703 97 
z
M 1959 2075 
Q 2384 2075 2632 2365 
Q 2881 2656 2881 3163 
Q 2881 3666 2632 3958 
Q 2384 4250 1959 4250 
Q 1534 4250 1286 3958 
Q 1038 3666 1038 3163 
Q 1038 2656 1286 2365 
Q 1534 2075 1959 2075 
z
" transform="scale(0.015625)"/>
       </defs>
       <use xlink:href="#DejaVuSans-64"/>
       <use xlink:href="#DejaVuSans-65" x="63.476562"/>
       <use xlink:href="#DejaVuSans-6e" x="125"/>
       <use xlink:href="#DejaVuSans-73" x="188.378906"/>
       <use xlink:href="#DejaVuSans-65" x="240.478516"/>
       <use xlink:href="#DejaVuSans-5f" x="302.001953"/>
       <use xlink:href="#DejaVuSans-39" x="352.001953"/>
      </g>
     </g>
    </g>
   </g>
   <g id="matplotlib.axis_2">
    <g id="ytick_1">
     <g id="line2d_6">
      <defs>
       <path id="mf8e03de285" d="M 0 0 
L -3.5 0 
" style="stroke: #000000; stroke-width: 0.8"/>
      </defs>
      <g>
       <use xlink:href="#mf8e03de285" x="58.523438" y="166.424275" style="stroke: #000000; stroke-width: 0.8"/>
      </g>
     </g>
     <g id="text_6">
      <!-- −0.10 -->
      <g transform="translate(20.878125 170.223494)scale(0.1 -0.1)">
       <defs>
        <path id="DejaVuSans-2212" d="M 678 2272 
L 4684 2272 
L 4684 1741 
L 678 1741 
L 678 2272 
z
" transform="scale(0.015625)"/>
        <path id="DejaVuSans-30" d="M 2034 4250 
Q 1547 4250 1301 3770 
Q 1056 3291 1056 2328 
Q 1056 1369 1301 889 
Q 1547 409 2034 409 
Q 2525 409 2770 889 
Q 3016 1369 3016 2328 
Q 3016 3291 2770 3770 
Q 2525 4250 2034 4250 
z
M 2034 4750 
Q 2819 4750 3233 4129 
Q 3647 3509 3647 2328 
Q 3647 1150 3233 529 
Q 2819 -91 2034 -91 
Q 1250 -91 836 529 
Q 422 1150 422 2328 
Q 422 3509 836 4129 
Q 1250 4750 2034 4750 
z
" transform="scale(0.015625)"/>
        <path id="DejaVuSans-2e" d="M 684 794 
L 1344 794 
L 1344 0 
L 684 0 
L 684 794 
z
" transform="scale(0.015625)"/>
       </defs>
       <use xlink:href="#DejaVuSans-2212"/>
       <use xlink:href="#DejaVuSans-30" x="83.789062"/>
       <use xlink:href="#DejaVuSans-2e" x="147.412109"/>
       <use xlink:href="#DejaVuSans-31" x="179.199219"/>
       <use xlink:href="#DejaVuSans-30" x="242.822266"/>
      </g>
     </g>
    </g>
    <g id="ytick_2">
     <g id="line2d_7">
      <g>
       <use xlink:href="#mf8e03de285" x="58.523438" y="134.327405" style="stroke: #000000; stroke-width: 0.8"/>
      </g>
     </g>
     <g id="text_7">
      <!-- −0.05 -->
      <g transform="translate(20.878125 138.126623)scale(0.1 -0.1)">
       <use xlink:href="#DejaVuSans-2212"/>
       <use xlink:href="#DejaVuSans-30" x="83.789062"/>
       <use xlink:href="#DejaVuSans-2e" x="147.412109"/>
       <use xlink:href="#DejaVuSans-30" x="179.199219"/>
       <use xlink:href="#DejaVuSans-35" x="242.822266"/>
      </g>
     </g>
    </g>
    <g id="ytick_3">
     <g id="line2d_8">
      <g>
       <use xlink:href="#mf8e03de285" x="58.523438" y="102.230534" style="stroke: #000000; stroke-width: 0.8"/>
      </g>
     </g>
     <g id="text_8">
      <!-- 0.00 -->
      <g transform="translate(29.257812 106.029753)scale(0.1 -0.1)">
       <use xlink:href="#DejaVuSans-30"/>
       <use xlink:href="#DejaVuSans-2e" x="63.623047"/>
       <use xlink:href="#DejaVuSans-30" x="95.410156"/>
       <use xlink:href="#DejaVuSans-30" x="159.033203"/>
      </g>
     </g>
    </g>
    <g id="ytick_4">
     <g id="line2d_9">
      <g>
       <use xlink:href="#mf8e03de285" x="58.523438" y="70.133664" style="stroke: #000000; stroke-width: 0.8"/>
      </g>
     </g>
     <g id="text_9">
      <!-- 0.05 -->
      <g transform="translate(29.257812 73.932883)scale(0.1 -0.1)">
       <use xlink:href="#DejaVuSans-30"/>
       <use xlink:href="#DejaVuSans-2e" x="63.623047"/>
       <use xlink:href="#DejaVuSans-30" x="95.410156"/>
       <use xlink:href="#DejaVuSans-35" x="159.033203"/>
      </g>
     </g>
    </g>
    <g id="ytick_5">
     <g id="line2d_10">
      <g>
       <use xlink:href="#mf8e03de285" x="58.523438" y="38.036794" style="stroke: #000000; stroke-width: 0.8"/>
      </g>
     </g>
     <g id="text_10">
      <!-- 0.10 -->
      <g transform="translate(29.257812 41.836013)scale(0.1 -0.1)">
       <use xlink:href="#DejaVuSans-30"/>
       <use xlink:href="#DejaVuSans-2e" x="63.623047"/>
       <use xlink:href="#DejaVuSans-31" x="95.410156"/>
       <use xlink:href="#DejaVuSans-30" x="159.033203"/>
      </g>
     </g>
    </g>
    <g id="text_11">
     <!-- ${\nabla}_w L$ -->
     <g transform="translate(14.798437 97.94)rotate(-90)scale(0.1 -0.1)">
      <defs>
       <path id="DejaVuSans-2207" d="M 2138 659 
L 3444 4047 
L 831 4047 
L 2138 659 
z
M 1791 0 
L -19 4603 
L 4300 4603 
L 2491 0 
L 1791 0 
z
" transform="scale(0.015625)"/>
       <path id="DejaVuSans-Oblique-77" d="M 544 3500 
L 1113 3500 
L 1259 684 
L 2566 3500 
L 3231 3500 
L 3425 684 
L 4666 3500 
L 5241 3500 
L 3641 0 
L 2969 0 
L 2797 2900 
L 1459 0 
L 781 0 
L 544 3500 
z
" transform="scale(0.015625)"/>
       <path id="DejaVuSans-Oblique-4c" d="M 1075 4666 
L 1709 4666 
L 909 525 
L 3181 525 
L 3078 0 
L 172 0 
L 1075 4666 
z
" transform="scale(0.015625)"/>
      </defs>
      <use xlink:href="#DejaVuSans-2207" transform="translate(0 0.09375)"/>
      <use xlink:href="#DejaVuSans-Oblique-77" transform="translate(67.851562 -16.3125)scale(0.7)"/>
      <use xlink:href="#DejaVuSans-Oblique-4c" transform="translate(127.836914 0.09375)"/>
     </g>
    </g>
   </g>
   <g id="line2d_11">
    <path d="M 114.323438 102.255918 
L 114.323438 102.203899 
" clip-path="url(#p72e366f76f)" style="fill: none; stroke: #3f3f3f; stroke-width: 1.5; stroke-linecap: square"/>
   </g>
   <g id="line2d_12">
    <path d="M 114.323438 102.236411 
L 114.323438 102.223406 
" clip-path="url(#p72e366f76f)" style="fill: none; stroke: #3f3f3f; stroke-width: 4.5; stroke-linecap: square"/>
   </g>
   <g id="line2d_13">
    <path d="M 225.923438 102.424989 
L 225.923438 102.038703 
" clip-path="url(#p72e366f76f)" style="fill: none; stroke: #3f3f3f; stroke-width: 1.5; stroke-linecap: square"/>
   </g>
   <g id="line2d_14">
    <path d="M 225.923438 102.280148 
L 225.923438 102.183569 
" clip-path="url(#p72e366f76f)" style="fill: none; stroke: #3f3f3f; stroke-width: 4.5; stroke-linecap: square"/>
   </g>
   <g id="line2d_15">
    <path d="M 337.523438 103.170353 
L 337.523438 101.308093 
" clip-path="url(#p72e366f76f)" style="fill: none; stroke: #3f3f3f; stroke-width: 1.5; stroke-linecap: square"/>
   </g>
   <g id="line2d_16">
    <path d="M 337.523438 102.472223 
L 337.523438 102.006567 
" clip-path="url(#p72e366f76f)" style="fill: none; stroke: #3f3f3f; stroke-width: 4.5; stroke-linecap: square"/>
   </g>
   <g id="line2d_17">
    <path d="M 449.123438 106.451858 
L 449.123438 96.706204 
" clip-path="url(#p72e366f76f)" style="fill: none; stroke: #3f3f3f; stroke-width: 1.5; stroke-linecap: square"/>
   </g>
   <g id="line2d_18">
    <path d="M 449.123438 102.800152 
L 449.123438 100.361855 
" clip-path="url(#p72e366f76f)" style="fill: none; stroke: #3f3f3f; stroke-width: 4.5; stroke-linecap: square"/>
   </g>
   <g id="line2d_19">
    <path d="M 560.723438 151.737296 
L 560.723438 48.135865 
" clip-path="url(#p72e366f76f)" style="fill: none; stroke: #3f3f3f; stroke-width: 1.5; stroke-linecap: square"/>
   </g>
   <g id="line2d_20">
    <path d="M 560.723438 117.033074 
L 560.723438 89.370506 
" clip-path="url(#p72e366f76f)" style="fill: none; stroke: #3f3f3f; stroke-width: 4.5; stroke-linecap: square"/>
   </g>
   <g id="patch_3">
    <path d="M 58.523438 170.28 
L 58.523438 7.2 
" style="fill: none; stroke: #000000; stroke-width: 0.8; stroke-linejoin: miter; stroke-linecap: square"/>
   </g>
   <g id="patch_4">
    <path d="M 616.523438 170.28 
L 616.523438 7.2 
" style="fill: none; stroke: #000000; stroke-width: 0.8; stroke-linejoin: miter; stroke-linecap: square"/>
   </g>
   <g id="patch_5">
    <path d="M 58.523438 170.28 
L 616.523438 170.28 
" style="fill: none; stroke: #000000; stroke-width: 0.8; stroke-linejoin: miter; stroke-linecap: square"/>
   </g>
   <g id="patch_6">
    <path d="M 58.523438 7.2 
L 616.523438 7.2 
" style="fill: none; stroke: #000000; stroke-width: 0.8; stroke-linejoin: miter; stroke-linecap: square"/>
   </g>
   <g id="PathCollection_1">
    <defs>
     <path id="m9c3a29916e" d="M 0 1.5 
C 0.397805 1.5 0.77937 1.341951 1.06066 1.06066 
C 1.341951 0.77937 1.5 0.397805 1.5 0 
C 1.5 -0.397805 1.341951 -0.77937 1.06066 -1.06066 
C 0.77937 -1.341951 0.397805 -1.5 0 -1.5 
C -0.397805 -1.5 -0.77937 -1.341951 -1.06066 -1.06066 
C -1.341951 -0.77937 -1.5 -0.397805 -1.5 0 
C -1.5 0.397805 -1.341951 0.77937 -1.06066 1.06066 
C -0.77937 1.341951 -0.397805 1.5 0 1.5 
z
" style="stroke: #3f3f3f"/>
    </defs>
    <g clip-path="url(#p72e366f76f)">
     <use xlink:href="#m9c3a29916e" x="114.323438" y="102.23049" style="fill: #ffffff; stroke: #3f3f3f"/>
    </g>
   </g>
   <g id="PathCollection_2">
    <g clip-path="url(#p72e366f76f)">
     <use xlink:href="#m9c3a29916e" x="225.923438" y="102.231971" style="fill: #ffffff; stroke: #3f3f3f"/>
    </g>
   </g>
   <g id="PathCollection_3">
    <g clip-path="url(#p72e366f76f)">
     <use xlink:href="#m9c3a29916e" x="337.523438" y="102.225349" style="fill: #ffffff; stroke: #3f3f3f"/>
    </g>
   </g>
   <g id="PathCollection_4">
    <g clip-path="url(#p72e366f76f)">
     <use xlink:href="#m9c3a29916e" x="449.123438" y="101.615179" style="fill: #ffffff; stroke: #3f3f3f"/>
    </g>
   </g>
   <g id="PathCollection_5">
    <g clip-path="url(#p72e366f76f)">
     <use xlink:href="#m9c3a29916e" x="560.723438" y="109.130764" style="fill: #ffffff; stroke: #3f3f3f"/>
    </g>
   </g>
   <g id="legend_1">
    <g id="patch_7">
     <path d="M 65.523438 29.878125 
L 136.845313 29.878125 
Q 138.845313 29.878125 138.845313 27.878125 
L 138.845313 14.2 
Q 138.845313 12.2 136.845313 12.2 
L 65.523438 12.2 
Q 63.523438 12.2 63.523438 14.2 
L 63.523438 27.878125 
Q 63.523438 29.878125 65.523438 29.878125 
z
" style="fill: #ffffff; opacity: 0.8; stroke: #cccccc; stroke-linejoin: miter"/>
    </g>
    <g id="patch_8">
     <path d="M 67.523438 23.798438 
L 87.523438 23.798438 
L 87.523438 16.798438 
L 67.523438 16.798438 
z
" style="fill: #3274a1; stroke: #3f3f3f; stroke-width: 1.5; stroke-linejoin: miter"/>
    </g>
    <g id="text_12">
     <!-- sigmoid -->
     <g transform="translate(95.523438 23.798438)scale(0.1 -0.1)">
      <defs>
       <path id="DejaVuSans-69" d="M 603 3500 
L 1178 3500 
L 1178 0 
L 603 0 
L 603 3500 
z
M 603 4863 
L 1178 4863 
L 1178 4134 
L 603 4134 
L 603 4863 
z
" transform="scale(0.015625)"/>
       <path id="DejaVuSans-67" d="M 2906 1791 
Q 2906 2416 2648 2759 
Q 2391 3103 1925 3103 
Q 1463 3103 1205 2759 
Q 947 2416 947 1791 
Q 947 1169 1205 825 
Q 1463 481 1925 481 
Q 2391 481 2648 825 
Q 2906 1169 2906 1791 
z
M 3481 434 
Q 3481 -459 3084 -895 
Q 2688 -1331 1869 -1331 
Q 1566 -1331 1297 -1286 
Q 1028 -1241 775 -1147 
L 775 -588 
Q 1028 -725 1275 -790 
Q 1522 -856 1778 -856 
Q 2344 -856 2625 -561 
Q 2906 -266 2906 331 
L 2906 616 
Q 2728 306 2450 153 
Q 2172 0 1784 0 
Q 1141 0 747 490 
Q 353 981 353 1791 
Q 353 2603 747 3093 
Q 1141 3584 1784 3584 
Q 2172 3584 2450 3431 
Q 2728 3278 2906 2969 
L 2906 3500 
L 3481 3500 
L 3481 434 
z
" transform="scale(0.015625)"/>
       <path id="DejaVuSans-6d" d="M 3328 2828 
Q 3544 3216 3844 3400 
Q 4144 3584 4550 3584 
Q 5097 3584 5394 3201 
Q 5691 2819 5691 2113 
L 5691 0 
L 5113 0 
L 5113 2094 
Q 5113 2597 4934 2840 
Q 4756 3084 4391 3084 
Q 3944 3084 3684 2787 
Q 3425 2491 3425 1978 
L 3425 0 
L 2847 0 
L 2847 2094 
Q 2847 2600 2669 2842 
Q 2491 3084 2119 3084 
Q 1678 3084 1418 2786 
Q 1159 2488 1159 1978 
L 1159 0 
L 581 0 
L 581 3500 
L 1159 3500 
L 1159 2956 
Q 1356 3278 1631 3431 
Q 1906 3584 2284 3584 
Q 2666 3584 2933 3390 
Q 3200 3197 3328 2828 
z
" transform="scale(0.015625)"/>
       <path id="DejaVuSans-6f" d="M 1959 3097 
Q 1497 3097 1228 2736 
Q 959 2375 959 1747 
Q 959 1119 1226 758 
Q 1494 397 1959 397 
Q 2419 397 2687 759 
Q 2956 1122 2956 1747 
Q 2956 2369 2687 2733 
Q 2419 3097 1959 3097 
z
M 1959 3584 
Q 2709 3584 3137 3096 
Q 3566 2609 3566 1747 
Q 3566 888 3137 398 
Q 2709 -91 1959 -91 
Q 1206 -91 779 398 
Q 353 888 353 1747 
Q 353 2609 779 3096 
Q 1206 3584 1959 3584 
z
" transform="scale(0.015625)"/>
      </defs>
      <use xlink:href="#DejaVuSans-73"/>
      <use xlink:href="#DejaVuSans-69" x="52.099609"/>
      <use xlink:href="#DejaVuSans-67" x="79.882812"/>
      <use xlink:href="#DejaVuSans-6d" x="143.359375"/>
      <use xlink:href="#DejaVuSans-6f" x="240.771484"/>
      <use xlink:href="#DejaVuSans-69" x="301.953125"/>
      <use xlink:href="#DejaVuSans-64" x="329.736328"/>
     </g>
    </g>
   </g>
  </g>
 </g>
 <defs>
  <clipPath id="p72e366f76f">
   <rect x="58.523438" y="7.2" width="558" height="163.08"/>
  </clipPath>
 </defs>
</svg>
