<?xml version="1.0" encoding="utf-8" standalone="no"?>
<!DOCTYPE svg PUBLIC "-//W3C//DTD SVG 1.1//EN"
  "http://www.w3.org/Graphics/SVG/1.1/DTD/svg11.dtd">
<svg xmlns:xlink="http://www.w3.org/1999/xlink" width="607.842188pt" height="221.564084pt" viewBox="0 0 607.842188 221.564084" xmlns="http://www.w3.org/2000/svg" version="1.1">
 <metadata>
  <rdf:RDF xmlns:dc="http://purl.org/dc/elements/1.1/" xmlns:cc="http://creativecommons.org/ns#" xmlns:rdf="http://www.w3.org/1999/02/22-rdf-syntax-ns#">
   <cc:Work>
    <dc:type rdf:resource="http://purl.org/dc/dcmitype/StillImage"/>
    <dc:date>2022-07-08T02:25:28.938932</dc:date>
    <dc:format>image/svg+xml</dc:format>
    <dc:creator>
     <cc:Agent>
      <dc:title>Matplotlib v3.5.1, https://matplotlib.org/</dc:title>
     </cc:Agent>
    </dc:creator>
   </cc:Work>
  </rdf:RDF>
 </metadata>
 <defs>
  <style type="text/css">*{stroke-linejoin: round; stroke-linecap: butt}</style>
 </defs>
 <g id="figure_1">
  <g id="patch_1">
   <path d="M 0 221.564084 
L 607.842188 221.564084 
L 607.842188 0 
L 0 0 
L 0 221.564084 
z
" style="fill: none"/>
  </g>
  <g id="axes_1">
   <g id="patch_2">
    <path d="M 42.642188 170.28 
L 600.642187 170.28 
L 600.642187 7.2 
L 42.642188 7.2 
z
" style="fill: #ffffff"/>
   </g>
   <g id="PolyCollection_1">
    <defs>
     <path id="m9fe0b54cbf" d="M 77.517192 -64.103599 
L 77.517183 -64.103599 
L 77.51716 -64.915077 
L 77.517187 -65.726555 
L 77.517176 -66.538033 
L 77.517169 -67.34951 
L 77.517157 -68.160988 
L 77.517154 -68.972466 
L 77.517157 -69.783944 
L 77.517109 -70.595422 
L 77.517137 -71.4069 
L 77.517082 -72.218377 
L 77.517019 -73.029855 
L 77.516835 -73.841333 
L 77.516815 -74.652811 
L 77.516584 -75.464289 
L 77.516171 -76.275767 
L 77.51596 -77.087244 
L 77.515054 -77.898722 
L 77.513611 -78.7102 
L 77.512431 -79.521678 
L 77.510409 -80.333156 
L 77.507848 -81.144634 
L 77.505039 -81.956111 
L 77.502447 -82.767589 
L 77.497225 -83.579067 
L 77.491157 -84.390545 
L 77.485393 -85.202023 
L 77.475053 -86.013501 
L 77.467123 -86.824978 
L 77.451366 -87.636456 
L 77.431591 -88.447934 
L 77.402852 -89.259412 
L 77.372023 -90.07089 
L 77.330693 -90.882367 
L 77.284416 -91.693845 
L 77.22812 -92.505323 
L 77.15935 -93.316801 
L 77.077951 -94.128279 
L 76.984012 -94.939757 
L 76.869039 -95.751234 
L 76.744393 -96.562712 
L 76.589997 -97.37419 
L 76.425476 -98.185668 
L 76.22626 -98.997146 
L 76.008462 -99.808624 
L 75.757097 -100.620101 
L 75.480085 -101.431579 
L 75.180831 -102.243057 
L 74.884386 -103.054535 
L 74.599779 -103.866013 
L 74.291548 -104.677491 
L 74.032216 -105.488968 
L 73.822019 -106.300446 
L 73.678915 -107.111924 
L 73.659332 -107.923402 
L 73.776643 -108.73488 
L 73.982237 -109.546358 
L 74.274475 -110.357835 
L 74.621619 -111.169313 
L 75.01594 -111.980791 
L 75.39191 -112.792269 
L 75.742118 -113.603747 
L 76.074386 -114.415225 
L 76.349758 -115.226702 
L 76.578259 -116.03818 
L 76.788556 -116.849658 
L 76.938591 -117.661136 
L 77.075462 -118.472614 
L 77.181338 -119.284092 
L 77.258704 -120.095569 
L 77.324978 -120.907047 
L 77.374745 -121.718525 
L 77.412068 -122.530003 
L 77.440009 -123.341481 
L 77.458882 -124.152959 
L 77.475799 -124.964436 
L 77.486572 -125.775914 
L 77.495925 -126.587392 
L 77.501742 -127.39887 
L 77.5053 -128.210348 
L 77.50872 -129.021826 
L 77.510837 -129.833303 
L 77.512438 -130.644781 
L 77.512916 -131.456259 
L 77.51398 -132.267737 
L 77.515152 -133.079215 
L 77.515695 -133.890693 
L 77.515958 -134.70217 
L 77.516109 -135.513648 
L 77.51642 -136.325126 
L 77.51679 -137.136604 
L 77.517017 -137.948082 
L 77.516985 -138.75956 
L 77.516956 -139.571037 
L 77.517028 -140.382515 
L 77.517059 -141.193993 
L 77.517075 -142.005471 
L 77.517158 -142.816949 
L 77.51716 -143.628427 
L 77.517183 -144.439904 
L 77.517192 -144.439904 
L 77.517192 -144.439904 
L 77.517215 -143.628427 
L 77.517217 -142.816949 
L 77.5173 -142.005471 
L 77.517316 -141.193993 
L 77.517347 -140.382515 
L 77.517419 -139.571037 
L 77.51739 -138.75956 
L 77.517358 -137.948082 
L 77.517585 -137.136604 
L 77.517955 -136.325126 
L 77.518266 -135.513648 
L 77.518417 -134.70217 
L 77.51868 -133.890693 
L 77.519223 -133.079215 
L 77.520395 -132.267737 
L 77.521459 -131.456259 
L 77.521937 -130.644781 
L 77.523538 -129.833303 
L 77.525655 -129.021826 
L 77.529075 -128.210348 
L 77.532633 -127.39887 
L 77.53845 -126.587392 
L 77.547803 -125.775914 
L 77.558576 -124.964436 
L 77.575493 -124.152959 
L 77.594366 -123.341481 
L 77.622307 -122.530003 
L 77.65963 -121.718525 
L 77.709397 -120.907047 
L 77.775671 -120.095569 
L 77.853037 -119.284092 
L 77.958913 -118.472614 
L 78.095784 -117.661136 
L 78.245819 -116.849658 
L 78.456116 -116.03818 
L 78.684617 -115.226702 
L 78.959989 -114.415225 
L 79.292257 -113.603747 
L 79.642465 -112.792269 
L 80.018435 -111.980791 
L 80.412756 -111.169313 
L 80.7599 -110.357835 
L 81.052138 -109.546358 
L 81.257732 -108.73488 
L 81.375043 -107.923402 
L 81.35546 -107.111924 
L 81.212356 -106.300446 
L 81.002159 -105.488968 
L 80.742827 -104.677491 
L 80.434596 -103.866013 
L 80.149989 -103.054535 
L 79.853544 -102.243057 
L 79.55429 -101.431579 
L 79.277278 -100.620101 
L 79.025913 -99.808624 
L 78.808115 -98.997146 
L 78.608899 -98.185668 
L 78.444378 -97.37419 
L 78.289982 -96.562712 
L 78.165336 -95.751234 
L 78.050363 -94.939757 
L 77.956424 -94.128279 
L 77.875025 -93.316801 
L 77.806255 -92.505323 
L 77.749959 -91.693845 
L 77.703682 -90.882367 
L 77.662352 -90.07089 
L 77.631523 -89.259412 
L 77.602784 -88.447934 
L 77.583009 -87.636456 
L 77.567252 -86.824978 
L 77.559322 -86.013501 
L 77.548982 -85.202023 
L 77.543218 -84.390545 
L 77.53715 -83.579067 
L 77.531928 -82.767589 
L 77.529336 -81.956111 
L 77.526527 -81.144634 
L 77.523966 -80.333156 
L 77.521944 -79.521678 
L 77.520764 -78.7102 
L 77.519321 -77.898722 
L 77.518415 -77.087244 
L 77.518204 -76.275767 
L 77.517791 -75.464289 
L 77.51756 -74.652811 
L 77.51754 -73.841333 
L 77.517356 -73.029855 
L 77.517293 -72.218377 
L 77.517238 -71.4069 
L 77.517266 -70.595422 
L 77.517218 -69.783944 
L 77.517221 -68.972466 
L 77.517218 -68.160988 
L 77.517206 -67.34951 
L 77.517199 -66.538033 
L 77.517188 -65.726555 
L 77.517215 -64.915077 
L 77.517192 -64.103599 
z
" style="stroke: #4c4c4c; stroke-width: 1.5"/>
    </defs>
    <g clip-path="url(#pb004e5bb4c)">
     <use xlink:href="#m9fe0b54cbf" x="0" y="221.564084" style="fill: #c03d3e; stroke: #4c4c4c; stroke-width: 1.5"/>
    </g>
   </g>
   <g id="PolyCollection_2">
    <defs>
     <path id="m191e68128d" d="M 147.267196 -103.248507 
L 147.267179 -103.248507 
L 147.26707 -103.661392 
L 147.266695 -104.074277 
L 147.26354 -104.487162 
L 147.239401 -104.900047 
L 147.134027 -105.312932 
L 146.796204 -105.725817 
L 145.60746 -106.138702 
L 142.375779 -106.551587 
L 135.264738 -106.964472 
L 122.845147 -107.377357 
L 119.367188 -107.790242 
L 141.655942 -108.203127 
L 143.489246 -108.616012 
L 143.600226 -109.028897 
L 143.699091 -109.441782 
L 143.818031 -109.854667 
L 143.986335 -110.267552 
L 144.161057 -110.680437 
L 144.332122 -111.093322 
L 144.525379 -111.506207 
L 144.747658 -111.919092 
L 144.921916 -112.331977 
L 145.123636 -112.744862 
L 145.309821 -113.157747 
L 145.474139 -113.570632 
L 145.657182 -113.983517 
L 145.821385 -114.396402 
L 145.968633 -114.809287 
L 146.102382 -115.222172 
L 146.215968 -115.635057 
L 146.331419 -116.047942 
L 146.445242 -116.460827 
L 146.550632 -116.873712 
L 146.627011 -117.286597 
L 146.693097 -117.699482 
L 146.767174 -118.112367 
L 146.838987 -118.525252 
L 146.886551 -118.938137 
L 146.943827 -119.351022 
L 146.979852 -119.763907 
L 147.014741 -120.176792 
L 147.05101 -120.589677 
L 147.084236 -121.002562 
L 147.105612 -121.415447 
L 147.133521 -121.828332 
L 147.151816 -122.241217 
L 147.165799 -122.654102 
L 147.18315 -123.066987 
L 147.194267 -123.479872 
L 147.203323 -123.892757 
L 147.211846 -124.305642 
L 147.221807 -124.718527 
L 147.228962 -125.131412 
L 147.23337 -125.544297 
L 147.23916 -125.957182 
L 147.243542 -126.370067 
L 147.248415 -126.782952 
L 147.250463 -127.195837 
L 147.253085 -127.608722 
L 147.254852 -128.021607 
L 147.25577 -128.434492 
L 147.2579 -128.847377 
L 147.259926 -129.260262 
L 147.260829 -129.673147 
L 147.260906 -130.086032 
L 147.262545 -130.498917 
L 147.262686 -130.911802 
L 147.262773 -131.324687 
L 147.263053 -131.737572 
L 147.264027 -132.150457 
L 147.26422 -132.563342 
L 147.265168 -132.976227 
L 147.265504 -133.389112 
L 147.265714 -133.801997 
L 147.265784 -134.214882 
L 147.266066 -134.627767 
L 147.265824 -135.040652 
L 147.266228 -135.453537 
L 147.266096 -135.866422 
L 147.266351 -136.279307 
L 147.266715 -136.692192 
L 147.266716 -137.105077 
L 147.267026 -137.517962 
L 147.267002 -137.930847 
L 147.267036 -138.343732 
L 147.266961 -138.756617 
L 147.267009 -139.169502 
L 147.266938 -139.582387 
L 147.266924 -139.995272 
L 147.267045 -140.408157 
L 147.267127 -140.821042 
L 147.267042 -141.233927 
L 147.26701 -141.646812 
L 147.267087 -142.059697 
L 147.267157 -142.472582 
L 147.26716 -142.885467 
L 147.267186 -143.298352 
L 147.267134 -143.711237 
L 147.26718 -144.124122 
L 147.267195 -144.124122 
L 147.267195 -144.124122 
L 147.267241 -143.711237 
L 147.267189 -143.298352 
L 147.267215 -142.885467 
L 147.267218 -142.472582 
L 147.267288 -142.059697 
L 147.267365 -141.646812 
L 147.267333 -141.233927 
L 147.267248 -140.821042 
L 147.26733 -140.408157 
L 147.267451 -139.995272 
L 147.267437 -139.582387 
L 147.267366 -139.169502 
L 147.267414 -138.756617 
L 147.267339 -138.343732 
L 147.267373 -137.930847 
L 147.267349 -137.517962 
L 147.267659 -137.105077 
L 147.26766 -136.692192 
L 147.268024 -136.279307 
L 147.268279 -135.866422 
L 147.268147 -135.453537 
L 147.268551 -135.040652 
L 147.268309 -134.627767 
L 147.268591 -134.214882 
L 147.268661 -133.801997 
L 147.268871 -133.389112 
L 147.269207 -132.976227 
L 147.270155 -132.563342 
L 147.270348 -132.150457 
L 147.271322 -131.737572 
L 147.271602 -131.324687 
L 147.271689 -130.911802 
L 147.27183 -130.498917 
L 147.273469 -130.086032 
L 147.273546 -129.673147 
L 147.274449 -129.260262 
L 147.276475 -128.847377 
L 147.278605 -128.434492 
L 147.279523 -128.021607 
L 147.28129 -127.608722 
L 147.283912 -127.195837 
L 147.28596 -126.782952 
L 147.290833 -126.370067 
L 147.295215 -125.957182 
L 147.301005 -125.544297 
L 147.305413 -125.131412 
L 147.312568 -124.718527 
L 147.322529 -124.305642 
L 147.331052 -123.892757 
L 147.340108 -123.479872 
L 147.351225 -123.066987 
L 147.368576 -122.654102 
L 147.382559 -122.241217 
L 147.400854 -121.828332 
L 147.428763 -121.415447 
L 147.450139 -121.002562 
L 147.483365 -120.589677 
L 147.519634 -120.176792 
L 147.554523 -119.763907 
L 147.590548 -119.351022 
L 147.647824 -118.938137 
L 147.695388 -118.525252 
L 147.767201 -118.112367 
L 147.841278 -117.699482 
L 147.907364 -117.286597 
L 147.983743 -116.873712 
L 148.089133 -116.460827 
L 148.202956 -116.047942 
L 148.318407 -115.635057 
L 148.431993 -115.222172 
L 148.565742 -114.809287 
L 148.71299 -114.396402 
L 148.877193 -113.983517 
L 149.060236 -113.570632 
L 149.224554 -113.157747 
L 149.410739 -112.744862 
L 149.612459 -112.331977 
L 149.786717 -111.919092 
L 150.008996 -111.506207 
L 150.202253 -111.093322 
L 150.373318 -110.680437 
L 150.54804 -110.267552 
L 150.716344 -109.854667 
L 150.835284 -109.441782 
L 150.934149 -109.028897 
L 151.045129 -108.616012 
L 152.878433 -108.203127 
L 175.167188 -107.790242 
L 171.689228 -107.377357 
L 159.269637 -106.964472 
L 152.158596 -106.551587 
L 148.926915 -106.138702 
L 147.738171 -105.725817 
L 147.400348 -105.312932 
L 147.294974 -104.900047 
L 147.270835 -104.487162 
L 147.26768 -104.074277 
L 147.267305 -103.661392 
L 147.267196 -103.248507 
z
" style="stroke: #4c4c4c; stroke-width: 1.5"/>
    </defs>
    <g clip-path="url(#pb004e5bb4c)">
     <use xlink:href="#m191e68128d" x="0" y="221.564084" style="fill: #c03d3e; stroke: #4c4c4c; stroke-width: 1.5"/>
    </g>
   </g>
   <g id="PolyCollection_3">
    <defs>
     <path id="ma205c4e065" d="M 217.017198 -72.165248 
L 217.017177 -72.165248 
L 217.017081 -73.031611 
L 217.017183 -73.897974 
L 217.017187 -74.764337 
L 217.017186 -75.6307 
L 217.017077 -76.497063 
L 217.017084 -77.363426 
L 217.016965 -78.229789 
L 217.016907 -79.096153 
L 217.016841 -79.962516 
L 217.016321 -80.828879 
L 217.016449 -81.695242 
L 217.015815 -82.561605 
L 217.015475 -83.427968 
L 217.014941 -84.294331 
L 217.013618 -85.160694 
L 217.012355 -86.027058 
L 217.010463 -86.893421 
L 217.008134 -87.759784 
L 217.00339 -88.626147 
L 216.997572 -89.49251 
L 216.990742 -90.358873 
L 216.977926 -91.225236 
L 216.960347 -92.0916 
L 216.935434 -92.957963 
L 216.899123 -93.824326 
L 216.853472 -94.690689 
L 216.783884 -95.557052 
L 216.696736 -96.423415 
L 216.583318 -97.289778 
L 216.43395 -98.156141 
L 216.240201 -99.022505 
L 215.99292 -99.888868 
L 215.684726 -100.755231 
L 215.309699 -101.621594 
L 214.885681 -102.487957 
L 214.469239 -103.35432 
L 214.028172 -104.220683 
L 213.633704 -105.087046 
L 213.326941 -105.95341 
L 213.144017 -106.819773 
L 213.116429 -107.686136 
L 213.225065 -108.552499 
L 213.396943 -109.418862 
L 213.638315 -110.285225 
L 213.890257 -111.151588 
L 214.186906 -112.017951 
L 214.4728 -112.884315 
L 214.767314 -113.750678 
L 215.096203 -114.617041 
L 215.412738 -115.483404 
L 215.689905 -116.349767 
L 215.949146 -117.21613 
L 216.154573 -118.082493 
L 216.324822 -118.948857 
L 216.468277 -119.81522 
L 216.58191 -120.681583 
L 216.675464 -121.547946 
L 216.747051 -122.414309 
L 216.80825 -123.280672 
L 216.858804 -124.147035 
L 216.89116 -125.013398 
L 216.918262 -125.879762 
L 216.941187 -126.746125 
L 216.954762 -127.612488 
L 216.967015 -128.478851 
L 216.97925 -129.345214 
L 216.988388 -130.211577 
L 216.995281 -131.07794 
L 217.001328 -131.944303 
L 217.004527 -132.810667 
L 217.008965 -133.67703 
L 217.01056 -134.543393 
L 217.013078 -135.409756 
L 217.014008 -136.276119 
L 217.01539 -137.142482 
L 217.015899 -138.008845 
L 217.015955 -138.875208 
L 217.016597 -139.741572 
L 217.01684 -140.607935 
L 217.016969 -141.474298 
L 217.01707 -142.340661 
L 217.017159 -143.207024 
L 217.017125 -144.073387 
L 217.01712 -144.93975 
L 217.017176 -145.806114 
L 217.017187 -146.672477 
L 217.017187 -147.53884 
L 217.017188 -148.405203 
L 217.017188 -149.271566 
L 217.017188 -150.137929 
L 217.017188 -151.004292 
L 217.017188 -151.870655 
L 217.017188 -152.737019 
L 217.017188 -153.603382 
L 217.017188 -154.469745 
L 217.017187 -155.336108 
L 217.017186 -156.202471 
L 217.017136 -157.068834 
L 217.01718 -157.935197 
L 217.017195 -157.935197 
L 217.017195 -157.935197 
L 217.017239 -157.068834 
L 217.017189 -156.202471 
L 217.017188 -155.336108 
L 217.017188 -154.469745 
L 217.017188 -153.603382 
L 217.017188 -152.737019 
L 217.017188 -151.870655 
L 217.017188 -151.004292 
L 217.017188 -150.137929 
L 217.017188 -149.271566 
L 217.017188 -148.405203 
L 217.017188 -147.53884 
L 217.017188 -146.672477 
L 217.017199 -145.806114 
L 217.017255 -144.93975 
L 217.01725 -144.073387 
L 217.017216 -143.207024 
L 217.017305 -142.340661 
L 217.017406 -141.474298 
L 217.017535 -140.607935 
L 217.017778 -139.741572 
L 217.01842 -138.875208 
L 217.018476 -138.008845 
L 217.018985 -137.142482 
L 217.020367 -136.276119 
L 217.021297 -135.409756 
L 217.023815 -134.543393 
L 217.02541 -133.67703 
L 217.029848 -132.810667 
L 217.033047 -131.944303 
L 217.039094 -131.07794 
L 217.045987 -130.211577 
L 217.055125 -129.345214 
L 217.06736 -128.478851 
L 217.079613 -127.612488 
L 217.093188 -126.746125 
L 217.116113 -125.879762 
L 217.143215 -125.013398 
L 217.175571 -124.147035 
L 217.226125 -123.280672 
L 217.287324 -122.414309 
L 217.358911 -121.547946 
L 217.452465 -120.681583 
L 217.566098 -119.81522 
L 217.709553 -118.948857 
L 217.879802 -118.082493 
L 218.085229 -117.21613 
L 218.34447 -116.349767 
L 218.621637 -115.483404 
L 218.938172 -114.617041 
L 219.267061 -113.750678 
L 219.561575 -112.884315 
L 219.847469 -112.017951 
L 220.144118 -111.151588 
L 220.39606 -110.285225 
L 220.637432 -109.418862 
L 220.80931 -108.552499 
L 220.917946 -107.686136 
L 220.890358 -106.819773 
L 220.707434 -105.95341 
L 220.400671 -105.087046 
L 220.006203 -104.220683 
L 219.565136 -103.35432 
L 219.148694 -102.487957 
L 218.724676 -101.621594 
L 218.349649 -100.755231 
L 218.041455 -99.888868 
L 217.794174 -99.022505 
L 217.600425 -98.156141 
L 217.451057 -97.289778 
L 217.337639 -96.423415 
L 217.250491 -95.557052 
L 217.180903 -94.690689 
L 217.135252 -93.824326 
L 217.098941 -92.957963 
L 217.074028 -92.0916 
L 217.056449 -91.225236 
L 217.043633 -90.358873 
L 217.036803 -89.49251 
L 217.030985 -88.626147 
L 217.026241 -87.759784 
L 217.023912 -86.893421 
L 217.02202 -86.027058 
L 217.020757 -85.160694 
L 217.019434 -84.294331 
L 217.0189 -83.427968 
L 217.01856 -82.561605 
L 217.017926 -81.695242 
L 217.018054 -80.828879 
L 217.017534 -79.962516 
L 217.017468 -79.096153 
L 217.01741 -78.229789 
L 217.017291 -77.363426 
L 217.017298 -76.497063 
L 217.017189 -75.6307 
L 217.017188 -74.764337 
L 217.017192 -73.897974 
L 217.017294 -73.031611 
L 217.017198 -72.165248 
z
" style="stroke: #4c4c4c; stroke-width: 1.5"/>
    </defs>
    <g clip-path="url(#pb004e5bb4c)">
     <use xlink:href="#ma205c4e065" x="0" y="221.564084" style="fill: #c03d3e; stroke: #4c4c4c; stroke-width: 1.5"/>
    </g>
   </g>
   <g id="PolyCollection_4">
    <defs>
     <path id="m1a0a8d03da" d="M 286.767208 -103.90836 
L 286.767167 -103.90836 
L 286.766823 -104.451772 
L 286.762931 -104.995184 
L 286.729785 -105.538596 
L 286.427538 -106.082009 
L 284.025621 -106.625421 
L 272.742683 -107.168833 
L 260.788719 -107.712246 
L 279.896445 -108.255658 
L 283.014946 -108.79907 
L 283.126895 -109.342483 
L 283.258315 -109.885895 
L 283.43984 -110.429307 
L 283.576456 -110.97272 
L 283.760675 -111.516132 
L 283.955234 -112.059544 
L 284.129615 -112.602956 
L 284.309376 -113.146369 
L 284.48977 -113.689781 
L 284.702494 -114.233193 
L 284.906567 -114.776606 
L 285.102797 -115.320018 
L 285.295587 -115.86343 
L 285.455816 -116.406843 
L 285.623186 -116.950255 
L 285.780528 -117.493667 
L 285.896415 -118.03708 
L 286.001364 -118.580492 
L 286.109513 -119.123904 
L 286.197158 -119.667316 
L 286.27362 -120.210729 
L 286.342158 -120.754141 
L 286.40159 -121.297553 
L 286.453444 -121.840966 
L 286.494682 -122.384378 
L 286.534616 -122.92779 
L 286.571757 -123.471203 
L 286.603756 -124.014615 
L 286.626335 -124.558027 
L 286.643779 -125.10144 
L 286.661035 -125.644852 
L 286.677888 -126.188264 
L 286.691766 -126.731676 
L 286.700189 -127.275089 
L 286.707121 -127.818501 
L 286.716115 -128.361913 
L 286.721896 -128.905326 
L 286.731233 -129.448738 
L 286.736854 -129.99215 
L 286.740825 -130.535563 
L 286.745616 -131.078975 
L 286.748473 -131.622387 
L 286.753211 -132.1658 
L 286.753957 -132.709212 
L 286.756875 -133.252624 
L 286.759494 -133.796036 
L 286.760239 -134.339449 
L 286.761281 -134.882861 
L 286.763384 -135.426273 
L 286.763572 -135.969686 
L 286.764401 -136.513098 
L 286.765507 -137.05651 
L 286.765444 -137.599923 
L 286.766075 -138.143335 
L 286.766017 -138.686747 
L 286.765914 -139.23016 
L 286.766721 -139.773572 
L 286.766835 -140.316984 
L 286.766864 -140.860397 
L 286.766995 -141.403809 
L 286.76695 -141.947221 
L 286.767136 -142.490633 
L 286.767183 -143.034046 
L 286.76711 -143.577458 
L 286.767137 -144.12087 
L 286.767123 -144.664283 
L 286.767109 -145.207695 
L 286.767183 -145.751107 
L 286.767187 -146.29452 
L 286.767187 -146.837932 
L 286.767187 -147.381344 
L 286.767187 -147.924757 
L 286.767187 -148.468169 
L 286.767187 -149.011581 
L 286.767187 -149.554993 
L 286.767187 -150.098406 
L 286.767187 -150.641818 
L 286.767187 -151.18523 
L 286.767187 -151.728643 
L 286.767187 -152.272055 
L 286.767187 -152.815467 
L 286.767187 -153.35888 
L 286.767187 -153.902292 
L 286.767187 -154.445704 
L 286.767187 -154.989117 
L 286.767187 -155.532529 
L 286.767187 -156.075941 
L 286.767182 -156.619353 
L 286.767109 -157.162766 
L 286.767177 -157.706178 
L 286.767198 -157.706178 
L 286.767198 -157.706178 
L 286.767266 -157.162766 
L 286.767193 -156.619353 
L 286.767188 -156.075941 
L 286.767188 -155.532529 
L 286.767187 -154.989117 
L 286.767187 -154.445704 
L 286.767187 -153.902292 
L 286.767187 -153.35888 
L 286.767187 -152.815467 
L 286.767187 -152.272055 
L 286.767187 -151.728643 
L 286.767187 -151.18523 
L 286.767187 -150.641818 
L 286.767187 -150.098406 
L 286.767187 -149.554993 
L 286.767187 -149.011581 
L 286.767187 -148.468169 
L 286.767187 -147.924757 
L 286.767187 -147.381344 
L 286.767188 -146.837932 
L 286.767188 -146.29452 
L 286.767192 -145.751107 
L 286.767266 -145.207695 
L 286.767252 -144.664283 
L 286.767238 -144.12087 
L 286.767265 -143.577458 
L 286.767192 -143.034046 
L 286.767239 -142.490633 
L 286.767425 -141.947221 
L 286.76738 -141.403809 
L 286.767511 -140.860397 
L 286.76754 -140.316984 
L 286.767654 -139.773572 
L 286.768461 -139.23016 
L 286.768358 -138.686747 
L 286.7683 -138.143335 
L 286.768931 -137.599923 
L 286.768868 -137.05651 
L 286.769974 -136.513098 
L 286.770803 -135.969686 
L 286.770991 -135.426273 
L 286.773094 -134.882861 
L 286.774136 -134.339449 
L 286.774881 -133.796036 
L 286.7775 -133.252624 
L 286.780418 -132.709212 
L 286.781164 -132.1658 
L 286.785902 -131.622387 
L 286.788759 -131.078975 
L 286.79355 -130.535563 
L 286.797521 -129.99215 
L 286.803142 -129.448738 
L 286.812479 -128.905326 
L 286.81826 -128.361913 
L 286.827254 -127.818501 
L 286.834186 -127.275089 
L 286.842609 -126.731676 
L 286.856487 -126.188264 
L 286.87334 -125.644852 
L 286.890596 -125.10144 
L 286.90804 -124.558027 
L 286.930619 -124.014615 
L 286.962618 -123.471203 
L 286.999759 -122.92779 
L 287.039693 -122.384378 
L 287.080931 -121.840966 
L 287.132785 -121.297553 
L 287.192217 -120.754141 
L 287.260755 -120.210729 
L 287.337217 -119.667316 
L 287.424862 -119.123904 
L 287.533011 -118.580492 
L 287.63796 -118.03708 
L 287.753847 -117.493667 
L 287.911189 -116.950255 
L 288.078559 -116.406843 
L 288.238788 -115.86343 
L 288.431578 -115.320018 
L 288.627808 -114.776606 
L 288.831881 -114.233193 
L 289.044605 -113.689781 
L 289.224999 -113.146369 
L 289.40476 -112.602956 
L 289.579141 -112.059544 
L 289.7737 -111.516132 
L 289.957919 -110.97272 
L 290.094535 -110.429307 
L 290.27606 -109.885895 
L 290.40748 -109.342483 
L 290.519429 -108.79907 
L 293.63793 -108.255658 
L 312.745656 -107.712246 
L 300.791692 -107.168833 
L 289.508754 -106.625421 
L 287.106837 -106.082009 
L 286.80459 -105.538596 
L 286.771444 -104.995184 
L 286.767552 -104.451772 
L 286.767208 -103.90836 
z
" style="stroke: #4c4c4c; stroke-width: 1.5"/>
    </defs>
    <g clip-path="url(#pb004e5bb4c)">
     <use xlink:href="#m1a0a8d03da" x="0" y="221.564084" style="fill: #c03d3e; stroke: #4c4c4c; stroke-width: 1.5"/>
    </g>
   </g>
   <g id="PolyCollection_5">
    <defs>
     <path id="m970327c252" d="M 356.517194 -76.246338 
L 356.517181 -76.246338 
L 356.517141 -77.137109 
L 356.517169 -78.02788 
L 356.517145 -78.91865 
L 356.517086 -79.809421 
L 356.516999 -80.700192 
L 356.516683 -81.590963 
L 356.516512 -82.481734 
L 356.515979 -83.372505 
L 356.515048 -84.263276 
L 356.513269 -85.154047 
L 356.510861 -86.044817 
L 356.508336 -86.935588 
L 356.503401 -87.826359 
L 356.495807 -88.71713 
L 356.487831 -89.607901 
L 356.475813 -90.498672 
L 356.461793 -91.389443 
L 356.439588 -92.280213 
L 356.4117 -93.170984 
L 356.373667 -94.061755 
L 356.322006 -94.952526 
L 356.256396 -95.843297 
L 356.165889 -96.734068 
L 356.034653 -97.624839 
L 355.87123 -98.515609 
L 355.659978 -99.40638 
L 355.402731 -100.297151 
L 355.078247 -101.187922 
L 354.732089 -102.078693 
L 354.35523 -102.969464 
L 353.981522 -103.860235 
L 353.662793 -104.751005 
L 353.395594 -105.641776 
L 353.213541 -106.532547 
L 353.171694 -107.423318 
L 353.206818 -108.314089 
L 353.302895 -109.20486 
L 353.382376 -110.095631 
L 353.522566 -110.986401 
L 353.720873 -111.877172 
L 353.941688 -112.767943 
L 354.140909 -113.658714 
L 354.393768 -114.549485 
L 354.645624 -115.440256 
L 354.886009 -116.331027 
L 355.123484 -117.221798 
L 355.330534 -118.112568 
L 355.505824 -119.003339 
L 355.663307 -119.89411 
L 355.805098 -120.784881 
L 355.935946 -121.675652 
L 356.04845 -122.566423 
L 356.12957 -123.457194 
L 356.193925 -124.347964 
L 356.253607 -125.238735 
L 356.30053 -126.129506 
L 356.338394 -127.020277 
L 356.371316 -127.911048 
L 356.399124 -128.801819 
L 356.422998 -129.69259 
L 356.440675 -130.58336 
L 356.454099 -131.474131 
L 356.464856 -132.364902 
L 356.474193 -133.255673 
L 356.481593 -134.146444 
L 356.488618 -135.037215 
L 356.494345 -135.927986 
L 356.498873 -136.818756 
L 356.50172 -137.709527 
L 356.504597 -138.600298 
L 356.506215 -139.491069 
L 356.509027 -140.38184 
L 356.511064 -141.272611 
L 356.511828 -142.163382 
L 356.51378 -143.054152 
L 356.514449 -143.944923 
L 356.514791 -144.835694 
L 356.515382 -145.726465 
L 356.515699 -146.617236 
L 356.515903 -147.508007 
L 356.516307 -148.398778 
L 356.516526 -149.289548 
L 356.516636 -150.180319 
L 356.516868 -151.07109 
L 356.516862 -151.961861 
L 356.517089 -152.852632 
L 356.517083 -153.743403 
L 356.517143 -154.634174 
L 356.517185 -155.524945 
L 356.517165 -156.415715 
L 356.517147 -157.306486 
L 356.517114 -158.197257 
L 356.517156 -159.088028 
L 356.517181 -159.978799 
L 356.51714 -160.86957 
L 356.517183 -161.760341 
L 356.517183 -162.651111 
L 356.517141 -163.541882 
L 356.517181 -164.432653 
L 356.517194 -164.432653 
L 356.517194 -164.432653 
L 356.517234 -163.541882 
L 356.517192 -162.651111 
L 356.517192 -161.760341 
L 356.517235 -160.86957 
L 356.517194 -159.978799 
L 356.517219 -159.088028 
L 356.517261 -158.197257 
L 356.517228 -157.306486 
L 356.51721 -156.415715 
L 356.51719 -155.524945 
L 356.517232 -154.634174 
L 356.517292 -153.743403 
L 356.517286 -152.852632 
L 356.517513 -151.961861 
L 356.517507 -151.07109 
L 356.517739 -150.180319 
L 356.517849 -149.289548 
L 356.518068 -148.398778 
L 356.518472 -147.508007 
L 356.518676 -146.617236 
L 356.518993 -145.726465 
L 356.519584 -144.835694 
L 356.519926 -143.944923 
L 356.520595 -143.054152 
L 356.522547 -142.163382 
L 356.523311 -141.272611 
L 356.525348 -140.38184 
L 356.52816 -139.491069 
L 356.529778 -138.600298 
L 356.532655 -137.709527 
L 356.535502 -136.818756 
L 356.54003 -135.927986 
L 356.545757 -135.037215 
L 356.552782 -134.146444 
L 356.560182 -133.255673 
L 356.569519 -132.364902 
L 356.580276 -131.474131 
L 356.5937 -130.58336 
L 356.611377 -129.69259 
L 356.635251 -128.801819 
L 356.663059 -127.911048 
L 356.695981 -127.020277 
L 356.733845 -126.129506 
L 356.780768 -125.238735 
L 356.84045 -124.347964 
L 356.904805 -123.457194 
L 356.985925 -122.566423 
L 357.098429 -121.675652 
L 357.229277 -120.784881 
L 357.371068 -119.89411 
L 357.528551 -119.003339 
L 357.703841 -118.112568 
L 357.910891 -117.221798 
L 358.148366 -116.331027 
L 358.388751 -115.440256 
L 358.640607 -114.549485 
L 358.893466 -113.658714 
L 359.092687 -112.767943 
L 359.313502 -111.877172 
L 359.511809 -110.986401 
L 359.651999 -110.095631 
L 359.73148 -109.20486 
L 359.827557 -108.314089 
L 359.862681 -107.423318 
L 359.820834 -106.532547 
L 359.638781 -105.641776 
L 359.371582 -104.751005 
L 359.052853 -103.860235 
L 358.679145 -102.969464 
L 358.302286 -102.078693 
L 357.956128 -101.187922 
L 357.631644 -100.297151 
L 357.374397 -99.40638 
L 357.163145 -98.515609 
L 356.999722 -97.624839 
L 356.868486 -96.734068 
L 356.777979 -95.843297 
L 356.712369 -94.952526 
L 356.660708 -94.061755 
L 356.622675 -93.170984 
L 356.594787 -92.280213 
L 356.572582 -91.389443 
L 356.558562 -90.498672 
L 356.546544 -89.607901 
L 356.538568 -88.71713 
L 356.530974 -87.826359 
L 356.526039 -86.935588 
L 356.523514 -86.044817 
L 356.521106 -85.154047 
L 356.519327 -84.263276 
L 356.518396 -83.372505 
L 356.517863 -82.481734 
L 356.517692 -81.590963 
L 356.517376 -80.700192 
L 356.517289 -79.809421 
L 356.51723 -78.91865 
L 356.517206 -78.02788 
L 356.517234 -77.137109 
L 356.517194 -76.246338 
z
" style="stroke: #4c4c4c; stroke-width: 1.5"/>
    </defs>
    <g clip-path="url(#pb004e5bb4c)">
     <use xlink:href="#m970327c252" x="0" y="221.564084" style="fill: #c03d3e; stroke: #4c4c4c; stroke-width: 1.5"/>
    </g>
   </g>
   <g id="PolyCollection_6">
    <defs>
     <path id="mb107b7d569" d="M 426.267205 -104.199449 
L 426.26717 -104.199449 
L 426.265914 -104.805646 
L 426.23164 -105.411843 
L 425.844556 -106.018041 
L 423.006157 -106.624238 
L 411.390314 -107.230435 
L 408.045958 -107.836633 
L 421.574606 -108.44283 
L 423.032 -109.049027 
L 423.094593 -109.655225 
L 423.145298 -110.261422 
L 423.245553 -110.867619 
L 423.376391 -111.473817 
L 423.517505 -112.080014 
L 423.678798 -112.686211 
L 423.800466 -113.292409 
L 423.949672 -113.898606 
L 424.133038 -114.504803 
L 424.306793 -115.111001 
L 424.466591 -115.717198 
L 424.632243 -116.323395 
L 424.807519 -116.929592 
L 424.946545 -117.53579 
L 425.088369 -118.141987 
L 425.214668 -118.748184 
L 425.315352 -119.354382 
L 425.42659 -119.960579 
L 425.52292 -120.566776 
L 425.613172 -121.172974 
L 425.700966 -121.779171 
L 425.782858 -122.385368 
L 425.83704 -122.991566 
L 425.893751 -123.597763 
L 425.934661 -124.20396 
L 425.974923 -124.810158 
L 426.015274 -125.416355 
L 426.046528 -126.022552 
L 426.07157 -126.62875 
L 426.097458 -127.234947 
L 426.119615 -127.841144 
L 426.137566 -128.447342 
L 426.157214 -129.053539 
L 426.172302 -129.659736 
L 426.185815 -130.265934 
L 426.194903 -130.872131 
L 426.204594 -131.478328 
L 426.211335 -132.084526 
L 426.219099 -132.690723 
L 426.224502 -133.29692 
L 426.229473 -133.903117 
L 426.234911 -134.509315 
L 426.23913 -135.115512 
L 426.243231 -135.721709 
L 426.246526 -136.327907 
L 426.249518 -136.934104 
L 426.251027 -137.540301 
L 426.253276 -138.146499 
L 426.255082 -138.752696 
L 426.255827 -139.358893 
L 426.257481 -139.965091 
L 426.259828 -140.571288 
L 426.260938 -141.177485 
L 426.261527 -141.783683 
L 426.262136 -142.38988 
L 426.263759 -142.996077 
L 426.264504 -143.602275 
L 426.264428 -144.208472 
L 426.264775 -144.814669 
L 426.265162 -145.420867 
L 426.265542 -146.027064 
L 426.265728 -146.633261 
L 426.2658 -147.239459 
L 426.266069 -147.845656 
L 426.266317 -148.451853 
L 426.2666 -149.05805 
L 426.266443 -149.664248 
L 426.266696 -150.270445 
L 426.266883 -150.876642 
L 426.266805 -151.48284 
L 426.266889 -152.089037 
L 426.267141 -152.695234 
L 426.267003 -153.301432 
L 426.267131 -153.907629 
L 426.267125 -154.513826 
L 426.267181 -155.120024 
L 426.267187 -155.726221 
L 426.267177 -156.332418 
L 426.267124 -156.938616 
L 426.267164 -157.544813 
L 426.267107 -158.15101 
L 426.26712 -158.757208 
L 426.267182 -159.363405 
L 426.267186 -159.969602 
L 426.267144 -160.5758 
L 426.267151 -161.181997 
L 426.267187 -161.788194 
L 426.267187 -162.394392 
L 426.267175 -163.000589 
L 426.267124 -163.606786 
L 426.267179 -164.212983 
L 426.267196 -164.212983 
L 426.267196 -164.212983 
L 426.267251 -163.606786 
L 426.2672 -163.000589 
L 426.267188 -162.394392 
L 426.267188 -161.788194 
L 426.267224 -161.181997 
L 426.267231 -160.5758 
L 426.267189 -159.969602 
L 426.267193 -159.363405 
L 426.267255 -158.757208 
L 426.267268 -158.15101 
L 426.267211 -157.544813 
L 426.267251 -156.938616 
L 426.267198 -156.332418 
L 426.267188 -155.726221 
L 426.267194 -155.120024 
L 426.26725 -154.513826 
L 426.267244 -153.907629 
L 426.267372 -153.301432 
L 426.267234 -152.695234 
L 426.267486 -152.089037 
L 426.26757 -151.48284 
L 426.267492 -150.876642 
L 426.267679 -150.270445 
L 426.267932 -149.664248 
L 426.267775 -149.05805 
L 426.268058 -148.451853 
L 426.268306 -147.845656 
L 426.268575 -147.239459 
L 426.268647 -146.633261 
L 426.268833 -146.027064 
L 426.269213 -145.420867 
L 426.2696 -144.814669 
L 426.269947 -144.208472 
L 426.269871 -143.602275 
L 426.270616 -142.996077 
L 426.272239 -142.38988 
L 426.272848 -141.783683 
L 426.273437 -141.177485 
L 426.274547 -140.571288 
L 426.276894 -139.965091 
L 426.278548 -139.358893 
L 426.279293 -138.752696 
L 426.281099 -138.146499 
L 426.283348 -137.540301 
L 426.284857 -136.934104 
L 426.287849 -136.327907 
L 426.291144 -135.721709 
L 426.295245 -135.115512 
L 426.299464 -134.509315 
L 426.304902 -133.903117 
L 426.309873 -133.29692 
L 426.315276 -132.690723 
L 426.32304 -132.084526 
L 426.329781 -131.478328 
L 426.339472 -130.872131 
L 426.34856 -130.265934 
L 426.362073 -129.659736 
L 426.377161 -129.053539 
L 426.396809 -128.447342 
L 426.41476 -127.841144 
L 426.436917 -127.234947 
L 426.462805 -126.62875 
L 426.487847 -126.022552 
L 426.519101 -125.416355 
L 426.559452 -124.810158 
L 426.599714 -124.20396 
L 426.640624 -123.597763 
L 426.697335 -122.991566 
L 426.751517 -122.385368 
L 426.833409 -121.779171 
L 426.921203 -121.172974 
L 427.011455 -120.566776 
L 427.107785 -119.960579 
L 427.219023 -119.354382 
L 427.319707 -118.748184 
L 427.446006 -118.141987 
L 427.58783 -117.53579 
L 427.726856 -116.929592 
L 427.902132 -116.323395 
L 428.067784 -115.717198 
L 428.227582 -115.111001 
L 428.401337 -114.504803 
L 428.584703 -113.898606 
L 428.733909 -113.292409 
L 428.855577 -112.686211 
L 429.01687 -112.080014 
L 429.157984 -111.473817 
L 429.288822 -110.867619 
L 429.389077 -110.261422 
L 429.439782 -109.655225 
L 429.502375 -109.049027 
L 430.959769 -108.44283 
L 444.488417 -107.836633 
L 441.144061 -107.230435 
L 429.528218 -106.624238 
L 426.689819 -106.018041 
L 426.302735 -105.411843 
L 426.268461 -104.805646 
L 426.267205 -104.199449 
z
" style="stroke: #4c4c4c; stroke-width: 1.5"/>
    </defs>
    <g clip-path="url(#pb004e5bb4c)">
     <use xlink:href="#mb107b7d569" x="0" y="221.564084" style="fill: #c03d3e; stroke: #4c4c4c; stroke-width: 1.5"/>
    </g>
   </g>
   <g id="PolyCollection_7">
    <defs>
     <path id="md191c62305" d="M 496.017196 -58.696811 
L 496.017179 -58.696811 
L 496.017112 -60.194332 
L 496.017137 -61.691853 
L 496.017132 -63.189373 
L 496.016987 -64.686894 
L 496.016651 -66.184415 
L 496.016253 -67.681935 
L 496.015958 -69.179456 
L 496.015387 -70.676977 
L 496.014293 -72.174497 
L 496.013304 -73.672018 
L 496.012396 -75.169539 
L 496.010411 -76.667059 
L 496.007298 -78.16458 
L 496.002201 -79.662101 
L 495.996244 -81.159621 
L 495.987371 -82.657142 
L 495.975024 -84.154663 
L 495.953944 -85.652183 
L 495.924654 -87.149704 
L 495.88471 -88.647225 
L 495.82842 -90.144745 
L 495.752791 -91.642266 
L 495.650665 -93.139787 
L 495.517912 -94.637307 
L 495.353337 -96.134828 
L 495.154216 -97.632349 
L 494.920759 -99.129869 
L 494.644121 -100.62739 
L 494.362402 -102.124911 
L 494.134559 -103.622431 
L 494.00988 -105.119952 
L 494.008701 -106.617473 
L 494.091963 -108.114993 
L 494.207443 -109.612514 
L 494.334029 -111.110035 
L 494.447488 -112.607555 
L 494.542827 -114.105076 
L 494.633835 -115.602597 
L 494.718182 -117.100117 
L 494.808211 -118.597638 
L 494.892697 -120.095159 
L 494.972102 -121.592679 
L 495.045498 -123.0902 
L 495.129669 -124.587721 
L 495.223122 -126.085241 
L 495.310029 -127.582762 
L 495.3982 -129.080283 
L 495.490207 -130.577803 
L 495.562099 -132.075324 
L 495.626012 -133.572845 
L 495.683809 -135.070365 
L 495.735767 -136.567886 
L 495.775783 -138.065406 
L 495.810478 -139.562927 
L 495.846876 -141.060448 
L 495.873425 -142.557968 
L 495.89283 -144.055489 
L 495.912345 -145.55301 
L 495.928728 -147.05053 
L 495.93879 -148.548051 
L 495.950898 -150.045572 
L 495.961539 -151.543092 
L 495.970626 -153.040613 
L 495.979262 -154.538134 
L 495.986401 -156.035654 
L 495.991749 -157.533175 
L 495.996551 -159.030696 
L 495.999813 -160.528216 
L 496.003735 -162.025737 
L 496.006797 -163.523258 
L 496.009729 -165.020778 
L 496.011635 -166.518299 
L 496.012271 -168.01582 
L 496.013836 -169.51334 
L 496.014556 -171.010861 
L 496.015259 -172.508382 
L 496.01599 -174.005902 
L 496.016422 -175.503423 
L 496.016398 -177.000944 
L 496.016472 -178.498464 
L 496.016662 -179.995985 
L 496.016726 -181.493506 
L 496.016948 -182.991026 
L 496.016986 -184.488547 
L 496.017069 -185.986068 
L 496.01715 -187.483588 
L 496.017072 -188.981109 
L 496.0171 -190.47863 
L 496.017151 -191.97615 
L 496.017185 -193.473671 
L 496.017187 -194.971192 
L 496.017187 -196.468712 
L 496.017187 -197.966233 
L 496.017187 -199.463754 
L 496.017187 -200.961274 
L 496.017187 -202.458795 
L 496.017169 -203.956316 
L 496.017146 -205.453836 
L 496.017181 -206.951357 
L 496.017194 -206.951357 
L 496.017194 -206.951357 
L 496.017229 -205.453836 
L 496.017206 -203.956316 
L 496.017188 -202.458795 
L 496.017188 -200.961274 
L 496.017188 -199.463754 
L 496.017187 -197.966233 
L 496.017188 -196.468712 
L 496.017188 -194.971192 
L 496.01719 -193.473671 
L 496.017224 -191.97615 
L 496.017275 -190.47863 
L 496.017303 -188.981109 
L 496.017225 -187.483588 
L 496.017306 -185.986068 
L 496.017389 -184.488547 
L 496.017427 -182.991026 
L 496.017649 -181.493506 
L 496.017713 -179.995985 
L 496.017903 -178.498464 
L 496.017977 -177.000944 
L 496.017953 -175.503423 
L 496.018385 -174.005902 
L 496.019116 -172.508382 
L 496.019819 -171.010861 
L 496.020539 -169.51334 
L 496.022104 -168.01582 
L 496.02274 -166.518299 
L 496.024646 -165.020778 
L 496.027578 -163.523258 
L 496.03064 -162.025737 
L 496.034562 -160.528216 
L 496.037824 -159.030696 
L 496.042626 -157.533175 
L 496.047974 -156.035654 
L 496.055113 -154.538134 
L 496.063749 -153.040613 
L 496.072836 -151.543092 
L 496.083477 -150.045572 
L 496.095585 -148.548051 
L 496.105647 -147.05053 
L 496.12203 -145.55301 
L 496.141545 -144.055489 
L 496.16095 -142.557968 
L 496.187499 -141.060448 
L 496.223897 -139.562927 
L 496.258592 -138.065406 
L 496.298608 -136.567886 
L 496.350566 -135.070365 
L 496.408363 -133.572845 
L 496.472276 -132.075324 
L 496.544168 -130.577803 
L 496.636175 -129.080283 
L 496.724346 -127.582762 
L 496.811253 -126.085241 
L 496.904706 -124.587721 
L 496.988877 -123.0902 
L 497.062273 -121.592679 
L 497.141678 -120.095159 
L 497.226164 -118.597638 
L 497.316193 -117.100117 
L 497.40054 -115.602597 
L 497.491548 -114.105076 
L 497.586887 -112.607555 
L 497.700346 -111.110035 
L 497.826932 -109.612514 
L 497.942412 -108.114993 
L 498.025674 -106.617473 
L 498.024495 -105.119952 
L 497.899816 -103.622431 
L 497.671973 -102.124911 
L 497.390254 -100.62739 
L 497.113616 -99.129869 
L 496.880159 -97.632349 
L 496.681038 -96.134828 
L 496.516463 -94.637307 
L 496.38371 -93.139787 
L 496.281584 -91.642266 
L 496.205955 -90.144745 
L 496.149665 -88.647225 
L 496.109721 -87.149704 
L 496.080431 -85.652183 
L 496.059351 -84.154663 
L 496.047004 -82.657142 
L 496.038131 -81.159621 
L 496.032174 -79.662101 
L 496.027077 -78.16458 
L 496.023964 -76.667059 
L 496.021979 -75.169539 
L 496.021071 -73.672018 
L 496.020082 -72.174497 
L 496.018988 -70.676977 
L 496.018417 -69.179456 
L 496.018122 -67.681935 
L 496.017724 -66.184415 
L 496.017388 -64.686894 
L 496.017243 -63.189373 
L 496.017238 -61.691853 
L 496.017263 -60.194332 
L 496.017196 -58.696811 
z
" style="stroke: #4c4c4c; stroke-width: 1.5"/>
    </defs>
    <g clip-path="url(#pb004e5bb4c)">
     <use xlink:href="#md191c62305" x="0" y="221.564084" style="fill: #c03d3e; stroke: #4c4c4c; stroke-width: 1.5"/>
    </g>
   </g>
   <g id="PolyCollection_8">
    <defs>
     <path id="m84cf3c8c3c" d="M 565.767246 -101.710336 
L 565.767129 -101.710336 
L 565.765122 -102.769855 
L 565.734719 -103.829374 
L 565.385116 -104.888893 
L 562.848976 -105.948413 
L 556.708798 -107.007932 
L 557.946898 -108.067451 
L 563.0989 -109.12697 
L 563.986419 -110.18649 
L 564.09757 -111.246009 
L 564.178544 -112.305528 
L 564.246759 -113.365047 
L 564.312747 -114.424567 
L 564.377485 -115.484086 
L 564.437576 -116.543605 
L 564.495787 -117.603124 
L 564.56339 -118.662643 
L 564.622833 -119.722163 
L 564.680134 -120.781682 
L 564.734973 -121.841201 
L 564.785358 -122.90072 
L 564.841031 -123.96024 
L 564.906342 -125.019759 
L 564.973645 -126.079278 
L 565.034818 -127.138797 
L 565.094798 -128.198317 
L 565.158553 -129.257836 
L 565.227604 -130.317355 
L 565.281595 -131.376874 
L 565.327725 -132.436393 
L 565.373345 -133.495913 
L 565.41507 -134.555432 
L 565.453868 -135.614951 
L 565.490048 -136.67447 
L 565.518706 -137.73399 
L 565.542098 -138.793509 
L 565.567295 -139.853028 
L 565.59441 -140.912547 
L 565.615292 -141.972067 
L 565.629927 -143.031586 
L 565.64321 -144.091105 
L 565.657189 -145.150624 
L 565.670726 -146.210143 
L 565.681097 -147.269663 
L 565.686983 -148.329182 
L 565.69529 -149.388701 
L 565.704275 -150.44822 
L 565.711314 -151.50774 
L 565.718147 -152.567259 
L 565.72371 -153.626778 
L 565.730317 -154.686297 
L 565.735568 -155.745817 
L 565.738934 -156.805336 
L 565.743105 -157.864855 
L 565.746541 -158.924374 
L 565.748344 -159.983893 
L 565.751223 -161.043413 
L 565.754016 -162.102932 
L 565.756049 -163.162451 
L 565.758246 -164.22197 
L 565.76023 -165.28149 
L 565.761656 -166.341009 
L 565.761944 -167.400528 
L 565.762546 -168.460047 
L 565.763985 -169.519567 
L 565.764418 -170.579086 
L 565.76479 -171.638605 
L 565.765366 -172.698124 
L 565.765882 -173.757644 
L 565.766344 -174.817163 
L 565.766459 -175.876682 
L 565.766392 -176.936201 
L 565.766391 -177.99572 
L 565.766563 -179.05524 
L 565.766692 -180.114759 
L 565.766661 -181.174278 
L 565.766854 -182.233797 
L 565.766988 -183.293317 
L 565.766984 -184.352836 
L 565.767001 -185.412355 
L 565.767128 -186.471874 
L 565.767164 -187.531394 
L 565.767086 -188.590913 
L 565.767054 -189.650432 
L 565.767115 -190.709951 
L 565.767141 -191.76947 
L 565.767181 -192.82899 
L 565.767187 -193.888509 
L 565.767187 -194.948028 
L 565.767187 -196.007547 
L 565.767187 -197.067067 
L 565.767187 -198.126586 
L 565.767187 -199.186105 
L 565.767187 -200.245624 
L 565.767187 -201.305144 
L 565.767187 -202.364663 
L 565.767184 -203.424182 
L 565.767151 -204.483701 
L 565.76714 -205.54322 
L 565.76718 -206.60274 
L 565.767195 -206.60274 
L 565.767195 -206.60274 
L 565.767235 -205.54322 
L 565.767224 -204.483701 
L 565.767191 -203.424182 
L 565.767188 -202.364663 
L 565.767188 -201.305144 
L 565.767187 -200.245624 
L 565.767187 -199.186105 
L 565.767187 -198.126586 
L 565.767187 -197.067067 
L 565.767188 -196.007547 
L 565.767188 -194.948028 
L 565.767188 -193.888509 
L 565.767194 -192.82899 
L 565.767234 -191.76947 
L 565.76726 -190.709951 
L 565.767321 -189.650432 
L 565.767289 -188.590913 
L 565.767211 -187.531394 
L 565.767247 -186.471874 
L 565.767374 -185.412355 
L 565.767391 -184.352836 
L 565.767387 -183.293317 
L 565.767521 -182.233797 
L 565.767714 -181.174278 
L 565.767683 -180.114759 
L 565.767812 -179.05524 
L 565.767984 -177.99572 
L 565.767983 -176.936201 
L 565.767916 -175.876682 
L 565.768031 -174.817163 
L 565.768493 -173.757644 
L 565.769009 -172.698124 
L 565.769585 -171.638605 
L 565.769957 -170.579086 
L 565.77039 -169.519567 
L 565.771829 -168.460047 
L 565.772431 -167.400528 
L 565.772719 -166.341009 
L 565.774145 -165.28149 
L 565.776129 -164.22197 
L 565.778326 -163.162451 
L 565.780359 -162.102932 
L 565.783152 -161.043413 
L 565.786031 -159.983893 
L 565.787834 -158.924374 
L 565.79127 -157.864855 
L 565.795441 -156.805336 
L 565.798807 -155.745817 
L 565.804058 -154.686297 
L 565.810665 -153.626778 
L 565.816228 -152.567259 
L 565.823061 -151.50774 
L 565.8301 -150.44822 
L 565.839085 -149.388701 
L 565.847392 -148.329182 
L 565.853278 -147.269663 
L 565.863649 -146.210143 
L 565.877186 -145.150624 
L 565.891165 -144.091105 
L 565.904448 -143.031586 
L 565.919083 -141.972067 
L 565.939965 -140.912547 
L 565.96708 -139.853028 
L 565.992277 -138.793509 
L 566.015669 -137.73399 
L 566.044327 -136.67447 
L 566.080507 -135.614951 
L 566.119305 -134.555432 
L 566.16103 -133.495913 
L 566.20665 -132.436393 
L 566.25278 -131.376874 
L 566.306771 -130.317355 
L 566.375822 -129.257836 
L 566.439577 -128.198317 
L 566.499557 -127.138797 
L 566.56073 -126.079278 
L 566.628033 -125.019759 
L 566.693344 -123.96024 
L 566.749017 -122.90072 
L 566.799402 -121.841201 
L 566.854241 -120.781682 
L 566.911542 -119.722163 
L 566.970985 -118.662643 
L 567.038588 -117.603124 
L 567.096799 -116.543605 
L 567.15689 -115.484086 
L 567.221628 -114.424567 
L 567.287616 -113.365047 
L 567.355831 -112.305528 
L 567.436805 -111.246009 
L 567.547956 -110.18649 
L 568.435475 -109.12697 
L 573.587477 -108.067451 
L 574.825577 -107.007932 
L 568.685399 -105.948413 
L 566.149259 -104.888893 
L 565.799656 -103.829374 
L 565.769253 -102.769855 
L 565.767246 -101.710336 
z
" style="stroke: #4c4c4c; stroke-width: 1.5"/>
    </defs>
    <g clip-path="url(#pb004e5bb4c)">
     <use xlink:href="#m84cf3c8c3c" x="0" y="221.564084" style="fill: #c03d3e; stroke: #4c4c4c; stroke-width: 1.5"/>
    </g>
   </g>
   <g id="matplotlib.axis_1">
    <g id="xtick_1">
     <g id="line2d_1">
      <defs>
       <path id="m1c83fb8ba2" d="M 0 0 
L 0 3.5 
" style="stroke: #000000; stroke-width: 0.8"/>
      </defs>
      <g>
       <use xlink:href="#m1c83fb8ba2" x="77.517188" y="170.28" style="stroke: #000000; stroke-width: 0.8"/>
      </g>
     </g>
     <g id="text_1">
      <!-- dense_1 -->
      <g transform="translate(60.829577 204.642471)rotate(-30)scale(0.1 -0.1)">
       <defs>
        <path id="DejaVuSans-64" d="M 2906 2969 
L 2906 4863 
L 3481 4863 
L 3481 0 
L 2906 0 
L 2906 525 
Q 2725 213 2448 61 
Q 2172 -91 1784 -91 
Q 1150 -91 751 415 
Q 353 922 353 1747 
Q 353 2572 751 3078 
Q 1150 3584 1784 3584 
Q 2172 3584 2448 3432 
Q 2725 3281 2906 2969 
z
M 947 1747 
Q 947 1113 1208 752 
Q 1469 391 1925 391 
Q 2381 391 2643 752 
Q 2906 1113 2906 1747 
Q 2906 2381 2643 2742 
Q 2381 3103 1925 3103 
Q 1469 3103 1208 2742 
Q 947 2381 947 1747 
z
" transform="scale(0.015625)"/>
        <path id="DejaVuSans-65" d="M 3597 1894 
L 3597 1613 
L 953 1613 
Q 991 1019 1311 708 
Q 1631 397 2203 397 
Q 2534 397 2845 478 
Q 3156 559 3463 722 
L 3463 178 
Q 3153 47 2828 -22 
Q 2503 -91 2169 -91 
Q 1331 -91 842 396 
Q 353 884 353 1716 
Q 353 2575 817 3079 
Q 1281 3584 2069 3584 
Q 2775 3584 3186 3129 
Q 3597 2675 3597 1894 
z
M 3022 2063 
Q 3016 2534 2758 2815 
Q 2500 3097 2075 3097 
Q 1594 3097 1305 2825 
Q 1016 2553 972 2059 
L 3022 2063 
z
" transform="scale(0.015625)"/>
        <path id="DejaVuSans-6e" d="M 3513 2113 
L 3513 0 
L 2938 0 
L 2938 2094 
Q 2938 2591 2744 2837 
Q 2550 3084 2163 3084 
Q 1697 3084 1428 2787 
Q 1159 2491 1159 1978 
L 1159 0 
L 581 0 
L 581 3500 
L 1159 3500 
L 1159 2956 
Q 1366 3272 1645 3428 
Q 1925 3584 2291 3584 
Q 2894 3584 3203 3211 
Q 3513 2838 3513 2113 
z
" transform="scale(0.015625)"/>
        <path id="DejaVuSans-73" d="M 2834 3397 
L 2834 2853 
Q 2591 2978 2328 3040 
Q 2066 3103 1784 3103 
Q 1356 3103 1142 2972 
Q 928 2841 928 2578 
Q 928 2378 1081 2264 
Q 1234 2150 1697 2047 
L 1894 2003 
Q 2506 1872 2764 1633 
Q 3022 1394 3022 966 
Q 3022 478 2636 193 
Q 2250 -91 1575 -91 
Q 1294 -91 989 -36 
Q 684 19 347 128 
L 347 722 
Q 666 556 975 473 
Q 1284 391 1588 391 
Q 1994 391 2212 530 
Q 2431 669 2431 922 
Q 2431 1156 2273 1281 
Q 2116 1406 1581 1522 
L 1381 1569 
Q 847 1681 609 1914 
Q 372 2147 372 2553 
Q 372 3047 722 3315 
Q 1072 3584 1716 3584 
Q 2034 3584 2315 3537 
Q 2597 3491 2834 3397 
z
" transform="scale(0.015625)"/>
        <path id="DejaVuSans-5f" d="M 3263 -1063 
L 3263 -1509 
L -63 -1509 
L -63 -1063 
L 3263 -1063 
z
" transform="scale(0.015625)"/>
        <path id="DejaVuSans-31" d="M 794 531 
L 1825 531 
L 1825 4091 
L 703 3866 
L 703 4441 
L 1819 4666 
L 2450 4666 
L 2450 531 
L 3481 531 
L 3481 0 
L 794 0 
L 794 531 
z
" transform="scale(0.015625)"/>
       </defs>
       <use xlink:href="#DejaVuSans-64"/>
       <use xlink:href="#DejaVuSans-65" x="63.476562"/>
       <use xlink:href="#DejaVuSans-6e" x="125"/>
       <use xlink:href="#DejaVuSans-73" x="188.378906"/>
       <use xlink:href="#DejaVuSans-65" x="240.478516"/>
       <use xlink:href="#DejaVuSans-5f" x="302.001953"/>
       <use xlink:href="#DejaVuSans-31" x="352.001953"/>
      </g>
     </g>
    </g>
    <g id="xtick_2">
     <g id="line2d_2">
      <g>
       <use xlink:href="#m1c83fb8ba2" x="147.267188" y="170.28" style="stroke: #000000; stroke-width: 0.8"/>
      </g>
     </g>
     <g id="text_2">
      <!-- leakyrelu_2 -->
      <g transform="translate(123.928772 212.322159)rotate(-30)scale(0.1 -0.1)">
       <defs>
        <path id="DejaVuSans-6c" d="M 603 4863 
L 1178 4863 
L 1178 0 
L 603 0 
L 603 4863 
z
" transform="scale(0.015625)"/>
        <path id="DejaVuSans-61" d="M 2194 1759 
Q 1497 1759 1228 1600 
Q 959 1441 959 1056 
Q 959 750 1161 570 
Q 1363 391 1709 391 
Q 2188 391 2477 730 
Q 2766 1069 2766 1631 
L 2766 1759 
L 2194 1759 
z
M 3341 1997 
L 3341 0 
L 2766 0 
L 2766 531 
Q 2569 213 2275 61 
Q 1981 -91 1556 -91 
Q 1019 -91 701 211 
Q 384 513 384 1019 
Q 384 1609 779 1909 
Q 1175 2209 1959 2209 
L 2766 2209 
L 2766 2266 
Q 2766 2663 2505 2880 
Q 2244 3097 1772 3097 
Q 1472 3097 1187 3025 
Q 903 2953 641 2809 
L 641 3341 
Q 956 3463 1253 3523 
Q 1550 3584 1831 3584 
Q 2591 3584 2966 3190 
Q 3341 2797 3341 1997 
z
" transform="scale(0.015625)"/>
        <path id="DejaVuSans-6b" d="M 581 4863 
L 1159 4863 
L 1159 1991 
L 2875 3500 
L 3609 3500 
L 1753 1863 
L 3688 0 
L 2938 0 
L 1159 1709 
L 1159 0 
L 581 0 
L 581 4863 
z
" transform="scale(0.015625)"/>
        <path id="DejaVuSans-79" d="M 2059 -325 
Q 1816 -950 1584 -1140 
Q 1353 -1331 966 -1331 
L 506 -1331 
L 506 -850 
L 844 -850 
Q 1081 -850 1212 -737 
Q 1344 -625 1503 -206 
L 1606 56 
L 191 3500 
L 800 3500 
L 1894 763 
L 2988 3500 
L 3597 3500 
L 2059 -325 
z
" transform="scale(0.015625)"/>
        <path id="DejaVuSans-72" d="M 2631 2963 
Q 2534 3019 2420 3045 
Q 2306 3072 2169 3072 
Q 1681 3072 1420 2755 
Q 1159 2438 1159 1844 
L 1159 0 
L 581 0 
L 581 3500 
L 1159 3500 
L 1159 2956 
Q 1341 3275 1631 3429 
Q 1922 3584 2338 3584 
Q 2397 3584 2469 3576 
Q 2541 3569 2628 3553 
L 2631 2963 
z
" transform="scale(0.015625)"/>
        <path id="DejaVuSans-75" d="M 544 1381 
L 544 3500 
L 1119 3500 
L 1119 1403 
Q 1119 906 1312 657 
Q 1506 409 1894 409 
Q 2359 409 2629 706 
Q 2900 1003 2900 1516 
L 2900 3500 
L 3475 3500 
L 3475 0 
L 2900 0 
L 2900 538 
Q 2691 219 2414 64 
Q 2138 -91 1772 -91 
Q 1169 -91 856 284 
Q 544 659 544 1381 
z
M 1991 3584 
L 1991 3584 
z
" transform="scale(0.015625)"/>
        <path id="DejaVuSans-32" d="M 1228 531 
L 3431 531 
L 3431 0 
L 469 0 
L 469 531 
Q 828 903 1448 1529 
Q 2069 2156 2228 2338 
Q 2531 2678 2651 2914 
Q 2772 3150 2772 3378 
Q 2772 3750 2511 3984 
Q 2250 4219 1831 4219 
Q 1534 4219 1204 4116 
Q 875 4013 500 3803 
L 500 4441 
Q 881 4594 1212 4672 
Q 1544 4750 1819 4750 
Q 2544 4750 2975 4387 
Q 3406 4025 3406 3419 
Q 3406 3131 3298 2873 
Q 3191 2616 2906 2266 
Q 2828 2175 2409 1742 
Q 1991 1309 1228 531 
z
" transform="scale(0.015625)"/>
       </defs>
       <use xlink:href="#DejaVuSans-6c"/>
       <use xlink:href="#DejaVuSans-65" x="27.783203"/>
       <use xlink:href="#DejaVuSans-61" x="89.306641"/>
       <use xlink:href="#DejaVuSans-6b" x="150.585938"/>
       <use xlink:href="#DejaVuSans-79" x="204.871094"/>
       <use xlink:href="#DejaVuSans-72" x="264.050781"/>
       <use xlink:href="#DejaVuSans-65" x="302.914062"/>
       <use xlink:href="#DejaVuSans-6c" x="364.4375"/>
       <use xlink:href="#DejaVuSans-75" x="392.220703"/>
       <use xlink:href="#DejaVuSans-5f" x="455.599609"/>
       <use xlink:href="#DejaVuSans-32" x="505.599609"/>
      </g>
     </g>
    </g>
    <g id="xtick_3">
     <g id="line2d_3">
      <g>
       <use xlink:href="#m1c83fb8ba2" x="217.017188" y="170.28" style="stroke: #000000; stroke-width: 0.8"/>
      </g>
     </g>
     <g id="text_3">
      <!-- dense_3 -->
      <g transform="translate(200.329577 204.642471)rotate(-30)scale(0.1 -0.1)">
       <defs>
        <path id="DejaVuSans-33" d="M 2597 2516 
Q 3050 2419 3304 2112 
Q 3559 1806 3559 1356 
Q 3559 666 3084 287 
Q 2609 -91 1734 -91 
Q 1441 -91 1130 -33 
Q 819 25 488 141 
L 488 750 
Q 750 597 1062 519 
Q 1375 441 1716 441 
Q 2309 441 2620 675 
Q 2931 909 2931 1356 
Q 2931 1769 2642 2001 
Q 2353 2234 1838 2234 
L 1294 2234 
L 1294 2753 
L 1863 2753 
Q 2328 2753 2575 2939 
Q 2822 3125 2822 3475 
Q 2822 3834 2567 4026 
Q 2313 4219 1838 4219 
Q 1578 4219 1281 4162 
Q 984 4106 628 3988 
L 628 4550 
Q 988 4650 1302 4700 
Q 1616 4750 1894 4750 
Q 2613 4750 3031 4423 
Q 3450 4097 3450 3541 
Q 3450 3153 3228 2886 
Q 3006 2619 2597 2516 
z
" transform="scale(0.015625)"/>
       </defs>
       <use xlink:href="#DejaVuSans-64"/>
       <use xlink:href="#DejaVuSans-65" x="63.476562"/>
       <use xlink:href="#DejaVuSans-6e" x="125"/>
       <use xlink:href="#DejaVuSans-73" x="188.378906"/>
       <use xlink:href="#DejaVuSans-65" x="240.478516"/>
       <use xlink:href="#DejaVuSans-5f" x="302.001953"/>
       <use xlink:href="#DejaVuSans-33" x="352.001953"/>
      </g>
     </g>
    </g>
    <g id="xtick_4">
     <g id="line2d_4">
      <g>
       <use xlink:href="#m1c83fb8ba2" x="286.767187" y="170.28" style="stroke: #000000; stroke-width: 0.8"/>
      </g>
     </g>
     <g id="text_4">
      <!-- leakyrelu_4 -->
      <g transform="translate(263.428772 212.322159)rotate(-30)scale(0.1 -0.1)">
       <defs>
        <path id="DejaVuSans-34" d="M 2419 4116 
L 825 1625 
L 2419 1625 
L 2419 4116 
z
M 2253 4666 
L 3047 4666 
L 3047 1625 
L 3713 1625 
L 3713 1100 
L 3047 1100 
L 3047 0 
L 2419 0 
L 2419 1100 
L 313 1100 
L 313 1709 
L 2253 4666 
z
" transform="scale(0.015625)"/>
       </defs>
       <use xlink:href="#DejaVuSans-6c"/>
       <use xlink:href="#DejaVuSans-65" x="27.783203"/>
       <use xlink:href="#DejaVuSans-61" x="89.306641"/>
       <use xlink:href="#DejaVuSans-6b" x="150.585938"/>
       <use xlink:href="#DejaVuSans-79" x="204.871094"/>
       <use xlink:href="#DejaVuSans-72" x="264.050781"/>
       <use xlink:href="#DejaVuSans-65" x="302.914062"/>
       <use xlink:href="#DejaVuSans-6c" x="364.4375"/>
       <use xlink:href="#DejaVuSans-75" x="392.220703"/>
       <use xlink:href="#DejaVuSans-5f" x="455.599609"/>
       <use xlink:href="#DejaVuSans-34" x="505.599609"/>
      </g>
     </g>
    </g>
    <g id="xtick_5">
     <g id="line2d_5">
      <g>
       <use xlink:href="#m1c83fb8ba2" x="356.517187" y="170.28" style="stroke: #000000; stroke-width: 0.8"/>
      </g>
     </g>
     <g id="text_5">
      <!-- dense_5 -->
      <g transform="translate(339.829577 204.642471)rotate(-30)scale(0.1 -0.1)">
       <defs>
        <path id="DejaVuSans-35" d="M 691 4666 
L 3169 4666 
L 3169 4134 
L 1269 4134 
L 1269 2991 
Q 1406 3038 1543 3061 
Q 1681 3084 1819 3084 
Q 2600 3084 3056 2656 
Q 3513 2228 3513 1497 
Q 3513 744 3044 326 
Q 2575 -91 1722 -91 
Q 1428 -91 1123 -41 
Q 819 9 494 109 
L 494 744 
Q 775 591 1075 516 
Q 1375 441 1709 441 
Q 2250 441 2565 725 
Q 2881 1009 2881 1497 
Q 2881 1984 2565 2268 
Q 2250 2553 1709 2553 
Q 1456 2553 1204 2497 
Q 953 2441 691 2322 
L 691 4666 
z
" transform="scale(0.015625)"/>
       </defs>
       <use xlink:href="#DejaVuSans-64"/>
       <use xlink:href="#DejaVuSans-65" x="63.476562"/>
       <use xlink:href="#DejaVuSans-6e" x="125"/>
       <use xlink:href="#DejaVuSans-73" x="188.378906"/>
       <use xlink:href="#DejaVuSans-65" x="240.478516"/>
       <use xlink:href="#DejaVuSans-5f" x="302.001953"/>
       <use xlink:href="#DejaVuSans-35" x="352.001953"/>
      </g>
     </g>
    </g>
    <g id="xtick_6">
     <g id="line2d_6">
      <g>
       <use xlink:href="#m1c83fb8ba2" x="426.267187" y="170.28" style="stroke: #000000; stroke-width: 0.8"/>
      </g>
     </g>
     <g id="text_6">
      <!-- leakyrelu_6 -->
      <g transform="translate(402.928772 212.322159)rotate(-30)scale(0.1 -0.1)">
       <defs>
        <path id="DejaVuSans-36" d="M 2113 2584 
Q 1688 2584 1439 2293 
Q 1191 2003 1191 1497 
Q 1191 994 1439 701 
Q 1688 409 2113 409 
Q 2538 409 2786 701 
Q 3034 994 3034 1497 
Q 3034 2003 2786 2293 
Q 2538 2584 2113 2584 
z
M 3366 4563 
L 3366 3988 
Q 3128 4100 2886 4159 
Q 2644 4219 2406 4219 
Q 1781 4219 1451 3797 
Q 1122 3375 1075 2522 
Q 1259 2794 1537 2939 
Q 1816 3084 2150 3084 
Q 2853 3084 3261 2657 
Q 3669 2231 3669 1497 
Q 3669 778 3244 343 
Q 2819 -91 2113 -91 
Q 1303 -91 875 529 
Q 447 1150 447 2328 
Q 447 3434 972 4092 
Q 1497 4750 2381 4750 
Q 2619 4750 2861 4703 
Q 3103 4656 3366 4563 
z
" transform="scale(0.015625)"/>
       </defs>
       <use xlink:href="#DejaVuSans-6c"/>
       <use xlink:href="#DejaVuSans-65" x="27.783203"/>
       <use xlink:href="#DejaVuSans-61" x="89.306641"/>
       <use xlink:href="#DejaVuSans-6b" x="150.585938"/>
       <use xlink:href="#DejaVuSans-79" x="204.871094"/>
       <use xlink:href="#DejaVuSans-72" x="264.050781"/>
       <use xlink:href="#DejaVuSans-65" x="302.914062"/>
       <use xlink:href="#DejaVuSans-6c" x="364.4375"/>
       <use xlink:href="#DejaVuSans-75" x="392.220703"/>
       <use xlink:href="#DejaVuSans-5f" x="455.599609"/>
       <use xlink:href="#DejaVuSans-36" x="505.599609"/>
      </g>
     </g>
    </g>
    <g id="xtick_7">
     <g id="line2d_7">
      <g>
       <use xlink:href="#m1c83fb8ba2" x="496.017187" y="170.28" style="stroke: #000000; stroke-width: 0.8"/>
      </g>
     </g>
     <g id="text_7">
      <!-- dense_7 -->
      <g transform="translate(479.329577 204.642471)rotate(-30)scale(0.1 -0.1)">
       <defs>
        <path id="DejaVuSans-37" d="M 525 4666 
L 3525 4666 
L 3525 4397 
L 1831 0 
L 1172 0 
L 2766 4134 
L 525 4134 
L 525 4666 
z
" transform="scale(0.015625)"/>
       </defs>
       <use xlink:href="#DejaVuSans-64"/>
       <use xlink:href="#DejaVuSans-65" x="63.476562"/>
       <use xlink:href="#DejaVuSans-6e" x="125"/>
       <use xlink:href="#DejaVuSans-73" x="188.378906"/>
       <use xlink:href="#DejaVuSans-65" x="240.478516"/>
       <use xlink:href="#DejaVuSans-5f" x="302.001953"/>
       <use xlink:href="#DejaVuSans-37" x="352.001953"/>
      </g>
     </g>
    </g>
    <g id="xtick_8">
     <g id="line2d_8">
      <g>
       <use xlink:href="#m1c83fb8ba2" x="565.767187" y="170.28" style="stroke: #000000; stroke-width: 0.8"/>
      </g>
     </g>
     <g id="text_8">
      <!-- leakyrelu_8 -->
      <g transform="translate(542.428772 212.322159)rotate(-30)scale(0.1 -0.1)">
       <defs>
        <path id="DejaVuSans-38" d="M 2034 2216 
Q 1584 2216 1326 1975 
Q 1069 1734 1069 1313 
Q 1069 891 1326 650 
Q 1584 409 2034 409 
Q 2484 409 2743 651 
Q 3003 894 3003 1313 
Q 3003 1734 2745 1975 
Q 2488 2216 2034 2216 
z
M 1403 2484 
Q 997 2584 770 2862 
Q 544 3141 544 3541 
Q 544 4100 942 4425 
Q 1341 4750 2034 4750 
Q 2731 4750 3128 4425 
Q 3525 4100 3525 3541 
Q 3525 3141 3298 2862 
Q 3072 2584 2669 2484 
Q 3125 2378 3379 2068 
Q 3634 1759 3634 1313 
Q 3634 634 3220 271 
Q 2806 -91 2034 -91 
Q 1263 -91 848 271 
Q 434 634 434 1313 
Q 434 1759 690 2068 
Q 947 2378 1403 2484 
z
M 1172 3481 
Q 1172 3119 1398 2916 
Q 1625 2713 2034 2713 
Q 2441 2713 2670 2916 
Q 2900 3119 2900 3481 
Q 2900 3844 2670 4047 
Q 2441 4250 2034 4250 
Q 1625 4250 1398 4047 
Q 1172 3844 1172 3481 
z
" transform="scale(0.015625)"/>
       </defs>
       <use xlink:href="#DejaVuSans-6c"/>
       <use xlink:href="#DejaVuSans-65" x="27.783203"/>
       <use xlink:href="#DejaVuSans-61" x="89.306641"/>
       <use xlink:href="#DejaVuSans-6b" x="150.585938"/>
       <use xlink:href="#DejaVuSans-79" x="204.871094"/>
       <use xlink:href="#DejaVuSans-72" x="264.050781"/>
       <use xlink:href="#DejaVuSans-65" x="302.914062"/>
       <use xlink:href="#DejaVuSans-6c" x="364.4375"/>
       <use xlink:href="#DejaVuSans-75" x="392.220703"/>
       <use xlink:href="#DejaVuSans-5f" x="455.599609"/>
       <use xlink:href="#DejaVuSans-38" x="505.599609"/>
      </g>
     </g>
    </g>
   </g>
   <g id="matplotlib.axis_2">
    <g id="ytick_1">
     <g id="line2d_9">
      <defs>
       <path id="m5510f73a70" d="M 0 0 
L -3.5 0 
" style="stroke: #000000; stroke-width: 0.8"/>
      </defs>
      <g>
       <use xlink:href="#m5510f73a70" x="42.642188" y="161.273316" style="stroke: #000000; stroke-width: 0.8"/>
      </g>
     </g>
     <g id="text_9">
      <!-- 4 -->
      <g transform="translate(20.9 165.072534)scale(0.1 -0.1)">
       <defs>
        <path id="DejaVuSans-2212" d="M 678 2272 
L 4684 2272 
L 4684 1741 
L 678 1741 
L 678 2272 
z
" transform="scale(0.015625)"/>
       </defs>
       <use xlink:href="#DejaVuSans-2212"/>
       <use xlink:href="#DejaVuSans-34" x="83.789062"/>
      </g>
     </g>
    </g>
    <g id="ytick_2">
     <g id="line2d_10">
      <g>
       <use xlink:href="#m5510f73a70" x="42.642188" y="137.461015" style="stroke: #000000; stroke-width: 0.8"/>
      </g>
     </g>
     <g id="text_10">
      <!-- 2 -->
      <g transform="translate(20.9 141.260234)scale(0.1 -0.1)">
       <use xlink:href="#DejaVuSans-2212"/>
       <use xlink:href="#DejaVuSans-32" x="83.789062"/>
      </g>
     </g>
    </g>
    <g id="ytick_3">
     <g id="line2d_11">
      <g>
       <use xlink:href="#m5510f73a70" x="42.642188" y="113.648714" style="stroke: #000000; stroke-width: 0.8"/>
      </g>
     </g>
     <g id="text_11">
      <!-- 0 -->
      <g transform="translate(29.279688 117.447933)scale(0.1 -0.1)">
       <defs>
        <path id="DejaVuSans-30" d="M 2034 4250 
Q 1547 4250 1301 3770 
Q 1056 3291 1056 2328 
Q 1056 1369 1301 889 
Q 1547 409 2034 409 
Q 2525 409 2770 889 
Q 3016 1369 3016 2328 
Q 3016 3291 2770 3770 
Q 2525 4250 2034 4250 
z
M 2034 4750 
Q 2819 4750 3233 4129 
Q 3647 3509 3647 2328 
Q 3647 1150 3233 529 
Q 2819 -91 2034 -91 
Q 1250 -91 836 529 
Q 422 1150 422 2328 
Q 422 3509 836 4129 
Q 1250 4750 2034 4750 
z
" transform="scale(0.015625)"/>
       </defs>
       <use xlink:href="#DejaVuSans-30"/>
      </g>
     </g>
    </g>
    <g id="ytick_4">
     <g id="line2d_12">
      <g>
       <use xlink:href="#m5510f73a70" x="42.642188" y="89.836413" style="stroke: #000000; stroke-width: 0.8"/>
      </g>
     </g>
     <g id="text_12">
      <!-- 2 -->
      <g transform="translate(29.279688 93.635632)scale(0.1 -0.1)">
       <use xlink:href="#DejaVuSans-32"/>
      </g>
     </g>
    </g>
    <g id="ytick_5">
     <g id="line2d_13">
      <g>
       <use xlink:href="#m5510f73a70" x="42.642188" y="66.024113" style="stroke: #000000; stroke-width: 0.8"/>
      </g>
     </g>
     <g id="text_13">
      <!-- 4 -->
      <g transform="translate(29.279688 69.823331)scale(0.1 -0.1)">
       <use xlink:href="#DejaVuSans-34"/>
      </g>
     </g>
    </g>
    <g id="ytick_6">
     <g id="line2d_14">
      <g>
       <use xlink:href="#m5510f73a70" x="42.642188" y="42.211812" style="stroke: #000000; stroke-width: 0.8"/>
      </g>
     </g>
     <g id="text_14">
      <!-- 6 -->
      <g transform="translate(29.279688 46.011031)scale(0.1 -0.1)">
       <use xlink:href="#DejaVuSans-36"/>
      </g>
     </g>
    </g>
    <g id="ytick_7">
     <g id="line2d_15">
      <g>
       <use xlink:href="#m5510f73a70" x="42.642188" y="18.399511" style="stroke: #000000; stroke-width: 0.8"/>
      </g>
     </g>
     <g id="text_15">
      <!-- 8 -->
      <g transform="translate(29.279688 22.19873)scale(0.1 -0.1)">
       <use xlink:href="#DejaVuSans-38"/>
      </g>
     </g>
    </g>
    <g id="text_16">
     <!-- ${\phi}$ -->
     <g transform="translate(14.8 92.04)rotate(-90)scale(0.1 -0.1)">
      <defs>
       <path id="DejaVuSans-Oblique-3d5" d="M 2991 4863 
L 2738 3572 
Q 3363 3572 3684 3094 
Q 4016 2606 3850 1747 
Q 3681 888 3159 400 
Q 2653 -78 2028 -78 
L 1784 -1331 
L 1213 -1331 
L 1456 -78 
Q 834 -78 509 400 
Q 178 888 347 1747 
Q 513 2606 1034 3094 
Q 1544 3572 2166 3572 
L 2419 4863 
L 2991 4863 
z
M 2128 434 
Q 2481 434 2784 756 
Q 3116 1116 3244 1747 
Q 3369 2372 3169 2738 
Q 2991 3059 2638 3059 
L 2128 434 
z
M 1556 434 
L 2066 3059 
Q 1716 3059 1413 2738 
Q 1072 2372 953 1747 
Q 834 1116 1028 756 
Q 1203 434 1556 434 
z
" transform="scale(0.015625)"/>
      </defs>
      <use xlink:href="#DejaVuSans-Oblique-3d5" transform="translate(0 0.015625)"/>
     </g>
    </g>
   </g>
   <g id="line2d_16">
    <path d="M 77.517188 129.949708 
L 77.517188 99.469534 
" clip-path="url(#pb004e5bb4c)" style="fill: none; stroke: #4c4c4c; stroke-width: 1.5; stroke-linecap: square"/>
   </g>
   <g id="line2d_17">
    <path d="M 77.517188 118.519633 
L 77.517188 110.899565 
" clip-path="url(#pb004e5bb4c)" style="fill: none; stroke: #4c4c4c; stroke-width: 4.5; stroke-linecap: square"/>
   </g>
   <g id="line2d_18">
    <path d="M 147.267188 117.963062 
L 147.267188 106.045212 
" clip-path="url(#pb004e5bb4c)" style="fill: none; stroke: #4c4c4c; stroke-width: 1.5; stroke-linecap: square"/>
   </g>
   <g id="line2d_19">
    <path d="M 147.267188 114.135806 
L 147.267188 110.899565 
" clip-path="url(#pb004e5bb4c)" style="fill: none; stroke: #4c4c4c; stroke-width: 4.5; stroke-linecap: square"/>
   </g>
   <g id="line2d_20">
    <path d="M 217.017188 127.949982 
L 217.017188 98.053683 
" clip-path="url(#pb004e5bb4c)" style="fill: none; stroke: #4c4c4c; stroke-width: 1.5; stroke-linecap: square"/>
   </g>
   <g id="line2d_21">
    <path d="M 217.017188 116.739174 
L 217.017188 109.26461 
" clip-path="url(#pb004e5bb4c)" style="fill: none; stroke: #4c4c4c; stroke-width: 4.5; stroke-linecap: square"/>
   </g>
   <g id="line2d_22">
    <path d="M 286.767187 117.15028 
L 286.767187 102.224891 
" clip-path="url(#pb004e5bb4c)" style="fill: none; stroke: #4c4c4c; stroke-width: 1.5; stroke-linecap: square"/>
   </g>
   <g id="line2d_23">
    <path d="M 286.767187 113.95776 
L 286.767187 109.26461 
" clip-path="url(#pb004e5bb4c)" style="fill: none; stroke: #4c4c4c; stroke-width: 4.5; stroke-linecap: square"/>
   </g>
   <g id="line2d_24">
    <path d="M 356.517187 129.470063 
L 356.517187 94.794939 
" clip-path="url(#pb004e5bb4c)" style="fill: none; stroke: #4c4c4c; stroke-width: 1.5; stroke-linecap: square"/>
   </g>
   <g id="line2d_25">
    <path d="M 356.517187 116.467923 
L 356.517187 107.798682 
" clip-path="url(#pb004e5bb4c)" style="fill: none; stroke: #4c4c4c; stroke-width: 4.5; stroke-linecap: square"/>
   </g>
   <g id="line2d_26">
    <path d="M 426.267187 116.730208 
L 426.267187 98.600902 
" clip-path="url(#pb004e5bb4c)" style="fill: none; stroke: #4c4c4c; stroke-width: 1.5; stroke-linecap: square"/>
   </g>
   <g id="line2d_27">
    <path d="M 426.267187 113.930635 
L 426.267187 107.798682 
" clip-path="url(#pb004e5bb4c)" style="fill: none; stroke: #4c4c4c; stroke-width: 4.5; stroke-linecap: square"/>
   </g>
   <g id="line2d_28">
    <path d="M 496.017187 142.095195 
L 496.017187 76.579126 
" clip-path="url(#pb004e5bb4c)" style="fill: none; stroke: #4c4c4c; stroke-width: 1.5; stroke-linecap: square"/>
   </g>
   <g id="line2d_29">
    <path d="M 496.017187 117.527954 
L 496.017187 101.148251 
" clip-path="url(#pb004e5bb4c)" style="fill: none; stroke: #4c4c4c; stroke-width: 4.5; stroke-linecap: square"/>
   </g>
   <g id="line2d_30">
    <path d="M 565.767187 118.389259 
L 565.767187 81.815798 
" clip-path="url(#pb004e5bb4c)" style="fill: none; stroke: #4c4c4c; stroke-width: 1.5; stroke-linecap: square"/>
   </g>
   <g id="line2d_31">
    <path d="M 565.767187 114.036638 
L 565.767187 101.148251 
" clip-path="url(#pb004e5bb4c)" style="fill: none; stroke: #4c4c4c; stroke-width: 4.5; stroke-linecap: square"/>
   </g>
   <g id="patch_3">
    <path d="M 42.642188 170.28 
L 42.642188 7.2 
" style="fill: none; stroke: #000000; stroke-width: 0.8; stroke-linejoin: miter; stroke-linecap: square"/>
   </g>
   <g id="patch_4">
    <path d="M 600.642187 170.28 
L 600.642187 7.2 
" style="fill: none; stroke: #000000; stroke-width: 0.8; stroke-linejoin: miter; stroke-linecap: square"/>
   </g>
   <g id="patch_5">
    <path d="M 42.642188 170.28 
L 600.642187 170.28 
" style="fill: none; stroke: #000000; stroke-width: 0.8; stroke-linejoin: miter; stroke-linecap: square"/>
   </g>
   <g id="patch_6">
    <path d="M 42.642188 7.2 
L 600.642187 7.2 
" style="fill: none; stroke: #000000; stroke-width: 0.8; stroke-linejoin: miter; stroke-linecap: square"/>
   </g>
   <g id="PathCollection_1">
    <defs>
     <path id="ma30050ee64" d="M 0 1.5 
C 0.397805 1.5 0.77937 1.341951 1.06066 1.06066 
C 1.341951 0.77937 1.5 0.397805 1.5 0 
C 1.5 -0.397805 1.341951 -0.77937 1.06066 -1.06066 
C 0.77937 -1.341951 0.397805 -1.5 0 -1.5 
C -0.397805 -1.5 -0.77937 -1.341951 -1.06066 -1.06066 
C -1.341951 -0.77937 -1.5 -0.397805 -1.5 0 
C -1.5 0.397805 -1.341951 0.77937 -1.06066 1.06066 
C -0.77937 1.341951 -0.397805 1.5 0 1.5 
z
" style="stroke: #4c4c4c"/>
    </defs>
    <g clip-path="url(#pb004e5bb4c)">
     <use xlink:href="#ma30050ee64" x="77.517188" y="114.524553" style="fill: #ffffff; stroke: #4c4c4c"/>
    </g>
   </g>
   <g id="PathCollection_2">
    <g clip-path="url(#pb004e5bb4c)">
     <use xlink:href="#ma30050ee64" x="147.267188" y="113.736298" style="fill: #ffffff; stroke: #4c4c4c"/>
    </g>
   </g>
   <g id="PathCollection_3">
    <g clip-path="url(#pb004e5bb4c)">
     <use xlink:href="#ma30050ee64" x="217.017188" y="113.214313" style="fill: #ffffff; stroke: #4c4c4c"/>
    </g>
   </g>
   <g id="PathCollection_4">
    <g clip-path="url(#pb004e5bb4c)">
     <use xlink:href="#ma30050ee64" x="286.767187" y="113.214313" style="fill: #ffffff; stroke: #4c4c4c"/>
    </g>
   </g>
   <g id="PathCollection_5">
    <g clip-path="url(#pb004e5bb4c)">
     <use xlink:href="#ma30050ee64" x="356.517187" y="112.425951" style="fill: #ffffff; stroke: #4c4c4c"/>
    </g>
   </g>
   <g id="PathCollection_6">
    <g clip-path="url(#pb004e5bb4c)">
     <use xlink:href="#ma30050ee64" x="426.267187" y="112.425951" style="fill: #ffffff; stroke: #4c4c4c"/>
    </g>
   </g>
   <g id="PathCollection_7">
    <g clip-path="url(#pb004e5bb4c)">
     <use xlink:href="#ma30050ee64" x="496.017187" y="110.690099" style="fill: #ffffff; stroke: #4c4c4c"/>
    </g>
   </g>
   <g id="PathCollection_8">
    <g clip-path="url(#pb004e5bb4c)">
     <use xlink:href="#ma30050ee64" x="565.767187" y="110.690099" style="fill: #ffffff; stroke: #4c4c4c"/>
    </g>
   </g>
  </g>
 </g>
 <defs>
  <clipPath id="pb004e5bb4c">
   <rect x="42.642188" y="7.2" width="558" height="163.08"/>
  </clipPath>
 </defs>
</svg>
