<?xml version="1.0" encoding="utf-8" standalone="no"?>
<!DOCTYPE svg PUBLIC "-//W3C//DTD SVG 1.1//EN"
  "http://www.w3.org/Graphics/SVG/1.1/DTD/svg11.dtd">
<svg xmlns:xlink="http://www.w3.org/1999/xlink" width="614.204687pt" height="194.158125pt" viewBox="0 0 614.204687 194.158125" xmlns="http://www.w3.org/2000/svg" version="1.1">
 <metadata>
  <rdf:RDF xmlns:dc="http://purl.org/dc/elements/1.1/" xmlns:cc="http://creativecommons.org/ns#" xmlns:rdf="http://www.w3.org/1999/02/22-rdf-syntax-ns#">
   <cc:Work>
    <dc:type rdf:resource="http://purl.org/dc/dcmitype/StillImage"/>
    <dc:date>2022-07-08T21:38:04.724283</dc:date>
    <dc:format>image/svg+xml</dc:format>
    <dc:creator>
     <cc:Agent>
      <dc:title>Matplotlib v3.5.1, https://matplotlib.org/</dc:title>
     </cc:Agent>
    </dc:creator>
   </cc:Work>
  </rdf:RDF>
 </metadata>
 <defs>
  <style type="text/css">*{stroke-linejoin: round; stroke-linecap: butt}</style>
 </defs>
 <g id="figure_1">
  <g id="patch_1">
   <path d="M 0 194.158125 
L 614.204687 194.158125 
L 614.204687 0 
L 0 0 
L 0 194.158125 
z
" style="fill: none"/>
  </g>
  <g id="axes_1">
   <g id="patch_2">
    <path d="M 49.004687 170.28 
L 607.004688 170.28 
L 607.004688 7.2 
L 49.004687 7.2 
z
" style="fill: #ffffff"/>
   </g>
   <g id="PolyCollection_1">
    <defs>
     <path id="m8e3449e6a5" d="M 104.804735 -32.187525 
L 104.80464 -32.187525 
L 104.804687 -33.675988 
L 104.804688 -35.164452 
L 104.804688 -36.652915 
L 104.804688 -38.141378 
L 104.804688 -39.629842 
L 104.804688 -41.118305 
L 104.804688 -42.606768 
L 104.804688 -44.095232 
L 104.804688 -45.583695 
L 104.804687 -47.072158 
L 104.804338 -48.560622 
L 104.804603 -50.049085 
L 104.804605 -51.537549 
L 104.80468 -53.026012 
L 104.804672 -54.514475 
L 104.804502 -56.002939 
L 104.804004 -57.491402 
L 104.804101 -58.979865 
L 104.804545 -60.468329 
L 104.804251 -61.956792 
L 104.803007 -63.445255 
L 104.80282 -64.933719 
L 104.803042 -66.422182 
L 104.802423 -67.910646 
L 104.802571 -69.399109 
L 104.801799 -70.887572 
L 104.801148 -72.376036 
L 104.799767 -73.864499 
L 104.797363 -75.352962 
L 104.793666 -76.841426 
L 104.792911 -78.329889 
L 104.788418 -79.818352 
L 104.780385 -81.306816 
L 104.759901 -82.795279 
L 104.738781 -84.283743 
L 104.700635 -85.772206 
L 104.630826 -87.260669 
L 104.51424 -88.749133 
L 104.277227 -90.237596 
L 103.855713 -91.726059 
L 103.08096 -93.214523 
L 101.683537 -94.702986 
L 98.990858 -96.191449 
L 94.644547 -97.679913 
L 88.177352 -99.168376 
L 79.367116 -100.65684 
L 69.756152 -102.145303 
L 62.279218 -103.633766 
L 60.164687 -105.12223 
L 64.408348 -106.610693 
L 72.838669 -108.099156 
L 82.603011 -109.58762 
L 90.698155 -111.076083 
L 96.482649 -112.564546 
L 100.132217 -114.05301 
L 102.376067 -115.541473 
L 103.550509 -117.029937 
L 104.125781 -118.5184 
L 104.435089 -120.006863 
L 104.582605 -121.495327 
L 104.670597 -122.98379 
L 104.72174 -124.472253 
L 104.749463 -125.960717 
L 104.771746 -127.44918 
L 104.786118 -128.937643 
L 104.786821 -130.426107 
L 104.790876 -131.91457 
L 104.797357 -133.403033 
L 104.797229 -134.891497 
L 104.800696 -136.37996 
L 104.800341 -137.868424 
L 104.800085 -139.356887 
L 104.802121 -140.84535 
L 104.804002 -142.333814 
L 104.803123 -143.822277 
L 104.803813 -145.31074 
L 104.803863 -146.799204 
L 104.803714 -148.287667 
L 104.804398 -149.77613 
L 104.804181 -151.264594 
L 104.803644 -152.753057 
L 104.804481 -154.241521 
L 104.804687 -155.729984 
L 104.804612 -157.218447 
L 104.804573 -158.706911 
L 104.804687 -160.195374 
L 104.804688 -161.683837 
L 104.804688 -163.172301 
L 104.804687 -164.660764 
L 104.804343 -166.149227 
L 104.804435 -167.637691 
L 104.804687 -169.126154 
L 104.804688 -170.614618 
L 104.804688 -172.103081 
L 104.804688 -173.591544 
L 104.804687 -175.080008 
L 104.804669 -176.568471 
L 104.804687 -178.056934 
L 104.80464 -179.545398 
L 104.804735 -179.545398 
L 104.804735 -179.545398 
L 104.804688 -178.056934 
L 104.804706 -176.568471 
L 104.804688 -175.080008 
L 104.804688 -173.591544 
L 104.804688 -172.103081 
L 104.804688 -170.614618 
L 104.804688 -169.126154 
L 104.80494 -167.637691 
L 104.805032 -166.149227 
L 104.804688 -164.660764 
L 104.804688 -163.172301 
L 104.804688 -161.683837 
L 104.804688 -160.195374 
L 104.804802 -158.706911 
L 104.804763 -157.218447 
L 104.804688 -155.729984 
L 104.804894 -154.241521 
L 104.805731 -152.753057 
L 104.805194 -151.264594 
L 104.804977 -149.77613 
L 104.805661 -148.287667 
L 104.805512 -146.799204 
L 104.805562 -145.31074 
L 104.806252 -143.822277 
L 104.805373 -142.333814 
L 104.807254 -140.84535 
L 104.80929 -139.356887 
L 104.809034 -137.868424 
L 104.808679 -136.37996 
L 104.812146 -134.891497 
L 104.812018 -133.403033 
L 104.818499 -131.91457 
L 104.822554 -130.426107 
L 104.823257 -128.937643 
L 104.837629 -127.44918 
L 104.859912 -125.960717 
L 104.887635 -124.472253 
L 104.938778 -122.98379 
L 105.02677 -121.495327 
L 105.174286 -120.006863 
L 105.483594 -118.5184 
L 106.058866 -117.029937 
L 107.233308 -115.541473 
L 109.477158 -114.05301 
L 113.126726 -112.564546 
L 118.91122 -111.076083 
L 127.006364 -109.58762 
L 136.770706 -108.099156 
L 145.201027 -106.610693 
L 149.444688 -105.12223 
L 147.330157 -103.633766 
L 139.853223 -102.145303 
L 130.242259 -100.65684 
L 121.432023 -99.168376 
L 114.964828 -97.679913 
L 110.618517 -96.191449 
L 107.925838 -94.702986 
L 106.528415 -93.214523 
L 105.753662 -91.726059 
L 105.332148 -90.237596 
L 105.095135 -88.749133 
L 104.978549 -87.260669 
L 104.90874 -85.772206 
L 104.870594 -84.283743 
L 104.849474 -82.795279 
L 104.82899 -81.306816 
L 104.820957 -79.818352 
L 104.816464 -78.329889 
L 104.815709 -76.841426 
L 104.812012 -75.352962 
L 104.809608 -73.864499 
L 104.808227 -72.376036 
L 104.807576 -70.887572 
L 104.806804 -69.399109 
L 104.806952 -67.910646 
L 104.806333 -66.422182 
L 104.806555 -64.933719 
L 104.806368 -63.445255 
L 104.805124 -61.956792 
L 104.80483 -60.468329 
L 104.805274 -58.979865 
L 104.805371 -57.491402 
L 104.804873 -56.002939 
L 104.804703 -54.514475 
L 104.804695 -53.026012 
L 104.80477 -51.537549 
L 104.804772 -50.049085 
L 104.805037 -48.560622 
L 104.804688 -47.072158 
L 104.804688 -45.583695 
L 104.804688 -44.095232 
L 104.804688 -42.606768 
L 104.804688 -41.118305 
L 104.804688 -39.629842 
L 104.804688 -38.141378 
L 104.804688 -36.652915 
L 104.804688 -35.164452 
L 104.804688 -33.675988 
L 104.804735 -32.187525 
z
" style="stroke: #3f3f3f; stroke-width: 1.5"/>
    </defs>
    <g clip-path="url(#p1417ce0517)">
     <use xlink:href="#m8e3449e6a5" x="0" y="194.158125" style="fill: #3274a1; stroke: #3f3f3f; stroke-width: 1.5"/>
    </g>
   </g>
   <g id="PolyCollection_2">
    <defs>
     <path id="m3c76cbffec" d="M 216.40476 -36.156931 
L 216.404615 -36.156931 
L 216.404579 -37.412919 
L 216.404687 -38.668908 
L 216.404688 -39.924897 
L 216.404688 -41.180886 
L 216.404687 -42.436874 
L 216.404217 -43.692863 
L 216.403376 -44.948852 
L 216.40468 -46.20484 
L 216.404687 -47.460829 
L 216.404687 -48.716818 
L 216.403916 -49.972806 
L 216.404561 -51.228795 
L 216.404563 -52.484784 
L 216.404538 -53.740772 
L 216.404687 -54.996761 
L 216.403655 -56.25275 
L 216.403967 -57.508738 
L 216.403561 -58.764727 
L 216.404405 -60.020716 
L 216.402766 -61.276704 
L 216.402355 -62.532693 
L 216.401378 -63.788682 
L 216.40207 -65.04467 
L 216.400581 -66.300659 
L 216.398035 -67.556648 
L 216.398193 -68.812636 
L 216.401362 -70.068625 
L 216.398939 -71.324614 
L 216.396956 -72.580602 
L 216.390552 -73.836591 
L 216.390296 -75.09258 
L 216.384793 -76.348568 
L 216.373579 -77.604557 
L 216.363151 -78.860546 
L 216.349153 -80.116534 
L 216.33796 -81.372523 
L 216.312196 -82.628512 
L 216.270974 -83.8845 
L 216.213193 -85.140489 
L 216.13644 -86.396478 
L 216.026869 -87.652466 
L 215.823747 -88.908455 
L 215.543646 -90.164444 
L 215.060395 -91.420432 
L 214.26145 -92.676421 
L 212.985092 -93.93241 
L 211.062122 -95.188398 
L 208.246021 -96.444387 
L 204.48993 -97.700376 
L 199.462853 -98.956364 
L 193.203707 -100.212353 
L 186.568005 -101.468342 
L 180.964873 -102.72433 
L 177.381744 -103.980319 
L 177.355285 -105.236308 
L 179.974224 -106.492296 
L 185.154207 -107.748285 
L 191.505889 -109.004274 
L 197.519207 -110.260262 
L 202.670157 -111.516251 
L 206.927495 -112.77224 
L 209.957434 -114.028228 
L 212.145417 -115.284217 
L 213.660467 -116.540206 
L 214.621104 -117.796194 
L 215.247327 -119.052183 
L 215.634669 -120.308172 
L 215.898588 -121.564161 
L 216.099457 -122.820149 
L 216.204903 -124.076138 
L 216.281027 -125.332127 
L 216.314381 -126.588115 
L 216.334246 -127.844104 
L 216.354286 -129.100093 
L 216.371455 -130.356081 
L 216.378898 -131.61207 
L 216.387797 -132.868059 
L 216.38751 -134.124047 
L 216.393725 -135.380036 
L 216.394668 -136.636025 
L 216.394663 -137.892013 
L 216.396461 -139.148002 
L 216.398455 -140.403991 
L 216.399751 -141.659979 
L 216.401062 -142.915968 
L 216.401736 -144.171957 
L 216.40262 -145.427945 
L 216.403154 -146.683934 
L 216.403825 -147.939923 
L 216.403292 -149.195911 
L 216.404637 -150.4519 
L 216.40343 -151.707889 
L 216.40425 -152.963877 
L 216.403998 -154.219866 
L 216.404263 -155.475855 
L 216.404687 -156.731843 
L 216.404474 -157.987832 
L 216.404551 -159.243821 
L 216.404615 -160.499809 
L 216.40476 -160.499809 
L 216.40476 -160.499809 
L 216.404824 -159.243821 
L 216.404901 -157.987832 
L 216.404688 -156.731843 
L 216.405112 -155.475855 
L 216.405377 -154.219866 
L 216.405125 -152.963877 
L 216.405945 -151.707889 
L 216.404738 -150.4519 
L 216.406083 -149.195911 
L 216.40555 -147.939923 
L 216.406221 -146.683934 
L 216.406755 -145.427945 
L 216.407639 -144.171957 
L 216.408313 -142.915968 
L 216.409624 -141.659979 
L 216.41092 -140.403991 
L 216.412914 -139.148002 
L 216.414712 -137.892013 
L 216.414707 -136.636025 
L 216.41565 -135.380036 
L 216.421865 -134.124047 
L 216.421578 -132.868059 
L 216.430477 -131.61207 
L 216.43792 -130.356081 
L 216.455089 -129.100093 
L 216.475129 -127.844104 
L 216.494994 -126.588115 
L 216.528348 -125.332127 
L 216.604472 -124.076138 
L 216.709918 -122.820149 
L 216.910787 -121.564161 
L 217.174706 -120.308172 
L 217.562048 -119.052183 
L 218.188271 -117.796194 
L 219.148908 -116.540206 
L 220.663958 -115.284217 
L 222.851941 -114.028228 
L 225.88188 -112.77224 
L 230.139218 -111.516251 
L 235.290168 -110.260262 
L 241.303486 -109.004274 
L 247.655168 -107.748285 
L 252.835151 -106.492296 
L 255.45409 -105.236308 
L 255.427631 -103.980319 
L 251.844502 -102.72433 
L 246.24137 -101.468342 
L 239.605668 -100.212353 
L 233.346522 -98.956364 
L 228.319445 -97.700376 
L 224.563354 -96.444387 
L 221.747253 -95.188398 
L 219.824283 -93.93241 
L 218.547925 -92.676421 
L 217.74898 -91.420432 
L 217.265729 -90.164444 
L 216.985628 -88.908455 
L 216.782506 -87.652466 
L 216.672935 -86.396478 
L 216.596182 -85.140489 
L 216.538401 -83.8845 
L 216.497179 -82.628512 
L 216.471415 -81.372523 
L 216.460222 -80.116534 
L 216.446224 -78.860546 
L 216.435796 -77.604557 
L 216.424582 -76.348568 
L 216.419079 -75.09258 
L 216.418823 -73.836591 
L 216.412419 -72.580602 
L 216.410436 -71.324614 
L 216.408013 -70.068625 
L 216.411182 -68.812636 
L 216.41134 -67.556648 
L 216.408794 -66.300659 
L 216.407305 -65.04467 
L 216.407997 -63.788682 
L 216.40702 -62.532693 
L 216.406609 -61.276704 
L 216.40497 -60.020716 
L 216.405814 -58.764727 
L 216.405408 -57.508738 
L 216.40572 -56.25275 
L 216.404688 -54.996761 
L 216.404837 -53.740772 
L 216.404812 -52.484784 
L 216.404814 -51.228795 
L 216.405459 -49.972806 
L 216.404688 -48.716818 
L 216.404688 -47.460829 
L 216.404695 -46.20484 
L 216.405999 -44.948852 
L 216.405158 -43.692863 
L 216.404688 -42.436874 
L 216.404688 -41.180886 
L 216.404688 -39.924897 
L 216.404688 -38.668908 
L 216.404796 -37.412919 
L 216.40476 -36.156931 
z
" style="stroke: #3f3f3f; stroke-width: 1.5"/>
    </defs>
    <g clip-path="url(#p1417ce0517)">
     <use xlink:href="#m3c76cbffec" x="0" y="194.158125" style="fill: #3274a1; stroke: #3f3f3f; stroke-width: 1.5"/>
    </g>
   </g>
   <g id="PolyCollection_3">
    <defs>
     <path id="m50ae02c362" d="M 328.00476 -38.501688 
L 328.004615 -38.501688 
L 328.004575 -39.744934 
L 328.004687 -40.98818 
L 328.004688 -42.231425 
L 328.004688 -43.474671 
L 328.004688 -44.717917 
L 328.004687 -45.961162 
L 328.004642 -47.204408 
L 328.004525 -48.447653 
L 328.004687 -49.690899 
L 328.004281 -50.934145 
L 328.004682 -52.17739 
L 328.004687 -53.420636 
L 328.004669 -54.663881 
L 328.004419 -55.907127 
L 328.004531 -57.150373 
L 328.003652 -58.393618 
L 328.004377 -59.636864 
L 328.003934 -60.880109 
L 328.002906 -62.123355 
L 328.001992 -63.366601 
L 328.002811 -64.609846 
L 328.002956 -65.853092 
L 328.002228 -67.096338 
L 327.999048 -68.339583 
L 328.000271 -69.582829 
L 328.000693 -70.826074 
L 327.999555 -72.06932 
L 327.996501 -73.312566 
L 327.992595 -74.555811 
L 327.989409 -75.799057 
L 327.981742 -77.042302 
L 327.976819 -78.285548 
L 327.968228 -79.528794 
L 327.953986 -80.772039 
L 327.927075 -82.015285 
L 327.903683 -83.258531 
L 327.853997 -84.501776 
L 327.79851 -85.745022 
L 327.698526 -86.988267 
L 327.525883 -88.231513 
L 327.288398 -89.474759 
L 326.965575 -90.718004 
L 326.423226 -91.96125 
L 325.438737 -93.204495 
L 323.908598 -94.447741 
L 321.640379 -95.690987 
L 318.323255 -96.934232 
L 314.026229 -98.177478 
L 308.505461 -99.420723 
L 302.503927 -100.663969 
L 296.771967 -101.907215 
L 291.620939 -103.15046 
L 288.981606 -104.393706 
L 289.182854 -105.636952 
L 292.608805 -106.880197 
L 298.04918 -108.123443 
L 304.544514 -109.366688 
L 310.474395 -110.609934 
L 315.546599 -111.85318 
L 319.392459 -113.096425 
L 322.309019 -114.339671 
L 324.289449 -115.582916 
L 325.616983 -116.826162 
L 326.52306 -118.069408 
L 327.018606 -119.312653 
L 327.393685 -120.555899 
L 327.594031 -121.799144 
L 327.729103 -123.04239 
L 327.801637 -124.285636 
L 327.856646 -125.528881 
L 327.903263 -126.772127 
L 327.935357 -128.015373 
L 327.949846 -129.258618 
L 327.964483 -130.501864 
L 327.975163 -131.745109 
L 327.983386 -132.988355 
L 327.988909 -134.231601 
L 327.991288 -135.474846 
L 327.996492 -136.718092 
L 327.996443 -137.961337 
L 328.000314 -139.204583 
L 328.0008 -140.447829 
L 328.001546 -141.691074 
L 328.000902 -142.93432 
L 328.002458 -144.177566 
L 328.003275 -145.420811 
L 328.003037 -146.664057 
L 328.003625 -147.907302 
L 328.002825 -149.150548 
L 328.00379 -150.393794 
L 328.00468 -151.637039 
L 328.003295 -152.880285 
L 328.004274 -154.12353 
L 328.004479 -155.366776 
L 328.003962 -156.610022 
L 328.004321 -157.853267 
L 328.004202 -159.096513 
L 328.004575 -160.339758 
L 328.004615 -161.583004 
L 328.00476 -161.583004 
L 328.00476 -161.583004 
L 328.0048 -160.339758 
L 328.005173 -159.096513 
L 328.005054 -157.853267 
L 328.005413 -156.610022 
L 328.004896 -155.366776 
L 328.005101 -154.12353 
L 328.00608 -152.880285 
L 328.004695 -151.637039 
L 328.005585 -150.393794 
L 328.00655 -149.150548 
L 328.00575 -147.907302 
L 328.006338 -146.664057 
L 328.0061 -145.420811 
L 328.006917 -144.177566 
L 328.008473 -142.93432 
L 328.007829 -141.691074 
L 328.008575 -140.447829 
L 328.009061 -139.204583 
L 328.012932 -137.961337 
L 328.012883 -136.718092 
L 328.018087 -135.474846 
L 328.020466 -134.231601 
L 328.025989 -132.988355 
L 328.034212 -131.745109 
L 328.044892 -130.501864 
L 328.059529 -129.258618 
L 328.074018 -128.015373 
L 328.106112 -126.772127 
L 328.152729 -125.528881 
L 328.207738 -124.285636 
L 328.280272 -123.04239 
L 328.415344 -121.799144 
L 328.61569 -120.555899 
L 328.990769 -119.312653 
L 329.486315 -118.069408 
L 330.392392 -116.826162 
L 331.719926 -115.582916 
L 333.700356 -114.339671 
L 336.616916 -113.096425 
L 340.462776 -111.85318 
L 345.53498 -110.609934 
L 351.464861 -109.366688 
L 357.960195 -108.123443 
L 363.40057 -106.880197 
L 366.826521 -105.636952 
L 367.027769 -104.393706 
L 364.388436 -103.15046 
L 359.237408 -101.907215 
L 353.505448 -100.663969 
L 347.503914 -99.420723 
L 341.983146 -98.177478 
L 337.68612 -96.934232 
L 334.368996 -95.690987 
L 332.100777 -94.447741 
L 330.570638 -93.204495 
L 329.586149 -91.96125 
L 329.0438 -90.718004 
L 328.720977 -89.474759 
L 328.483492 -88.231513 
L 328.310849 -86.988267 
L 328.210865 -85.745022 
L 328.155378 -84.501776 
L 328.105692 -83.258531 
L 328.0823 -82.015285 
L 328.055389 -80.772039 
L 328.041147 -79.528794 
L 328.032556 -78.285548 
L 328.027633 -77.042302 
L 328.019966 -75.799057 
L 328.01678 -74.555811 
L 328.012874 -73.312566 
L 328.00982 -72.06932 
L 328.008682 -70.826074 
L 328.009104 -69.582829 
L 328.010327 -68.339583 
L 328.007147 -67.096338 
L 328.006419 -65.853092 
L 328.006564 -64.609846 
L 328.007383 -63.366601 
L 328.006469 -62.123355 
L 328.005441 -60.880109 
L 328.004998 -59.636864 
L 328.005723 -58.393618 
L 328.004844 -57.150373 
L 328.004956 -55.907127 
L 328.004706 -54.663881 
L 328.004688 -53.420636 
L 328.004693 -52.17739 
L 328.005094 -50.934145 
L 328.004688 -49.690899 
L 328.00485 -48.447653 
L 328.004733 -47.204408 
L 328.004688 -45.961162 
L 328.004688 -44.717917 
L 328.004688 -43.474671 
L 328.004688 -42.231425 
L 328.004688 -40.98818 
L 328.0048 -39.744934 
L 328.00476 -38.501688 
z
" style="stroke: #3f3f3f; stroke-width: 1.5"/>
    </defs>
    <g clip-path="url(#p1417ce0517)">
     <use xlink:href="#m50ae02c362" x="0" y="194.158125" style="fill: #3274a1; stroke: #3f3f3f; stroke-width: 1.5"/>
    </g>
   </g>
   <g id="PolyCollection_4">
    <defs>
     <path id="m03ab872b2d" d="M 439.604797 -41.453069 
L 439.604578 -41.453069 
L 439.604194 -42.771023 
L 439.604686 -44.088977 
L 439.603989 -45.406931 
L 439.604528 -46.724885 
L 439.602995 -48.042839 
L 439.603746 -49.360793 
L 439.604217 -50.678747 
L 439.604503 -51.996701 
L 439.603997 -53.314655 
L 439.604097 -54.632609 
L 439.603817 -55.950563 
L 439.603772 -57.268517 
L 439.600927 -58.586471 
L 439.602188 -59.904425 
L 439.600037 -61.222379 
L 439.602708 -62.540333 
L 439.602269 -63.858287 
L 439.599905 -65.176241 
L 439.596503 -66.494195 
L 439.595338 -67.812149 
L 439.592573 -69.130103 
L 439.590318 -70.448057 
L 439.586927 -71.766011 
L 439.584495 -73.083965 
L 439.586178 -74.401919 
L 439.566555 -75.719873 
L 439.545964 -77.037827 
L 439.545342 -78.355781 
L 439.534972 -79.673735 
L 439.484244 -80.991689 
L 439.435683 -82.309643 
L 439.368166 -83.627597 
L 439.256953 -84.945551 
L 439.074387 -86.263505 
L 438.819957 -87.581459 
L 438.457143 -88.899413 
L 437.932138 -90.217367 
L 437.081905 -91.535321 
L 435.828289 -92.853275 
L 434.179248 -94.171229 
L 432.00192 -95.489183 
L 428.961842 -96.807137 
L 424.768207 -98.125091 
L 419.890005 -99.443045 
L 414.70784 -100.760999 
L 409.917516 -102.078953 
L 406.91546 -103.396907 
L 405.929024 -104.714861 
L 406.770731 -106.032815 
L 409.641516 -107.350769 
L 413.775083 -108.668723 
L 418.631003 -109.986677 
L 423.426852 -111.304631 
L 427.800712 -112.622585 
L 431.197513 -113.940539 
L 433.811123 -115.258493 
L 435.621927 -116.576447 
L 436.976704 -117.894401 
L 437.910152 -119.212355 
L 438.502953 -120.530309 
L 438.872705 -121.848263 
L 439.105579 -123.166217 
L 439.250835 -124.484171 
L 439.363399 -125.802125 
L 439.442931 -127.120079 
L 439.479849 -128.438033 
L 439.524694 -129.755987 
L 439.540287 -131.073941 
L 439.548619 -132.391895 
L 439.557776 -133.709849 
L 439.577991 -135.027803 
L 439.581192 -136.345757 
L 439.590634 -137.663711 
L 439.585966 -138.981665 
L 439.589259 -140.299619 
L 439.59567 -141.617573 
L 439.590041 -142.935527 
L 439.599073 -144.253481 
L 439.599008 -145.571435 
L 439.598392 -146.889389 
L 439.599945 -148.207343 
L 439.600691 -149.525297 
L 439.604193 -150.843251 
L 439.600816 -152.161205 
L 439.599058 -153.479159 
L 439.601608 -154.797113 
L 439.602113 -156.115067 
L 439.603196 -157.433021 
L 439.604091 -158.750975 
L 439.604179 -160.068929 
L 439.604687 -161.386883 
L 439.604687 -162.704837 
L 439.604687 -164.022791 
L 439.604423 -165.340745 
L 439.604425 -166.658699 
L 439.604687 -167.976653 
L 439.60427 -169.294607 
L 439.604047 -170.612561 
L 439.604578 -171.930515 
L 439.604797 -171.930515 
L 439.604797 -171.930515 
L 439.605328 -170.612561 
L 439.605105 -169.294607 
L 439.604688 -167.976653 
L 439.60495 -166.658699 
L 439.604952 -165.340745 
L 439.604688 -164.022791 
L 439.604688 -162.704837 
L 439.604688 -161.386883 
L 439.605196 -160.068929 
L 439.605284 -158.750975 
L 439.606179 -157.433021 
L 439.607262 -156.115067 
L 439.607767 -154.797113 
L 439.610317 -153.479159 
L 439.608559 -152.161205 
L 439.605182 -150.843251 
L 439.608684 -149.525297 
L 439.60943 -148.207343 
L 439.610983 -146.889389 
L 439.610367 -145.571435 
L 439.610302 -144.253481 
L 439.619334 -142.935527 
L 439.613705 -141.617573 
L 439.620116 -140.299619 
L 439.623409 -138.981665 
L 439.618741 -137.663711 
L 439.628183 -136.345757 
L 439.631384 -135.027803 
L 439.651599 -133.709849 
L 439.660756 -132.391895 
L 439.669088 -131.073941 
L 439.684681 -129.755987 
L 439.729526 -128.438033 
L 439.766444 -127.120079 
L 439.845976 -125.802125 
L 439.95854 -124.484171 
L 440.103796 -123.166217 
L 440.33667 -121.848263 
L 440.706422 -120.530309 
L 441.299223 -119.212355 
L 442.232671 -117.894401 
L 443.587448 -116.576447 
L 445.398252 -115.258493 
L 448.011862 -113.940539 
L 451.408663 -112.622585 
L 455.782523 -111.304631 
L 460.578372 -109.986677 
L 465.434292 -108.668723 
L 469.567859 -107.350769 
L 472.438644 -106.032815 
L 473.280351 -104.714861 
L 472.293915 -103.396907 
L 469.291859 -102.078953 
L 464.501535 -100.760999 
L 459.31937 -99.443045 
L 454.441168 -98.125091 
L 450.247533 -96.807137 
L 447.207455 -95.489183 
L 445.030127 -94.171229 
L 443.381086 -92.853275 
L 442.12747 -91.535321 
L 441.277237 -90.217367 
L 440.752232 -88.899413 
L 440.389418 -87.581459 
L 440.134988 -86.263505 
L 439.952422 -84.945551 
L 439.841209 -83.627597 
L 439.773692 -82.309643 
L 439.725131 -80.991689 
L 439.674403 -79.673735 
L 439.664033 -78.355781 
L 439.663411 -77.037827 
L 439.64282 -75.719873 
L 439.623197 -74.401919 
L 439.62488 -73.083965 
L 439.622448 -71.766011 
L 439.619057 -70.448057 
L 439.616802 -69.130103 
L 439.614037 -67.812149 
L 439.612872 -66.494195 
L 439.60947 -65.176241 
L 439.607106 -63.858287 
L 439.606667 -62.540333 
L 439.609338 -61.222379 
L 439.607187 -59.904425 
L 439.608448 -58.586471 
L 439.605603 -57.268517 
L 439.605558 -55.950563 
L 439.605278 -54.632609 
L 439.605378 -53.314655 
L 439.604872 -51.996701 
L 439.605158 -50.678747 
L 439.605629 -49.360793 
L 439.60638 -48.042839 
L 439.604847 -46.724885 
L 439.605386 -45.406931 
L 439.604689 -44.088977 
L 439.605181 -42.771023 
L 439.604797 -41.453069 
z
" style="stroke: #3f3f3f; stroke-width: 1.5"/>
    </defs>
    <g clip-path="url(#p1417ce0517)">
     <use xlink:href="#m03ab872b2d" x="0" y="194.158125" style="fill: #3274a1; stroke: #3f3f3f; stroke-width: 1.5"/>
    </g>
   </g>
   <g id="PolyCollection_5">
    <defs>
     <path id="me0a9fc8bde" d="M 551.20533 -31.290852 
L 551.204045 -31.290852 
L 551.201061 -32.49116 
L 551.199638 -33.691468 
L 551.199686 -34.891777 
L 551.20082 -36.092085 
L 551.203924 -37.292393 
L 551.204656 -38.492701 
L 551.204686 -39.693009 
L 551.204602 -40.893317 
L 551.202886 -42.093625 
L 551.196671 -43.293933 
L 551.197077 -44.494241 
L 551.201926 -45.694549 
L 551.19919 -46.894857 
L 551.196086 -48.095166 
L 551.192914 -49.295474 
L 551.18899 -50.495782 
L 551.193506 -51.69609 
L 551.201021 -52.896398 
L 551.197798 -54.096706 
L 551.187916 -55.297014 
L 551.184002 -56.497322 
L 551.177495 -57.69763 
L 551.169959 -58.897938 
L 551.186806 -60.098247 
L 551.195273 -61.298555 
L 551.189255 -62.498863 
L 551.175926 -63.699171 
L 551.172847 -64.899479 
L 551.164133 -66.099787 
L 551.135827 -67.300095 
L 551.12895 -68.500403 
L 551.125723 -69.700711 
L 551.118048 -70.901019 
L 551.087066 -72.101327 
L 551.030983 -73.301636 
L 551.00147 -74.501944 
L 550.952162 -75.702252 
L 550.894658 -76.90256 
L 550.818924 -78.102868 
L 550.718131 -79.303176 
L 550.615245 -80.503484 
L 550.495711 -81.703792 
L 550.274045 -82.9041 
L 550.02039 -84.104408 
L 549.800557 -85.304716 
L 549.516125 -86.505025 
L 549.083891 -87.705333 
L 548.487797 -88.905641 
L 547.781525 -90.105949 
L 546.859746 -91.306257 
L 545.747738 -92.506565 
L 544.553058 -93.706873 
L 543.100379 -94.907181 
L 541.451085 -96.107489 
L 539.267933 -97.307797 
L 536.284241 -98.508106 
L 532.977423 -99.708414 
L 529.734984 -100.908722 
L 526.360741 -102.10903 
L 523.844818 -103.309338 
L 523.261612 -104.509646 
L 523.941366 -105.709954 
L 525.427736 -106.910262 
L 527.593716 -108.11057 
L 530.15957 -109.310878 
L 532.985135 -110.511186 
L 536.038743 -111.711495 
L 538.674279 -112.911803 
L 540.82986 -114.112111 
L 542.599509 -115.312419 
L 544.346121 -116.512727 
L 545.787865 -117.713035 
L 546.886642 -118.913343 
L 547.91365 -120.113651 
L 548.754402 -121.313959 
L 549.473208 -122.514267 
L 549.992649 -123.714575 
L 550.324221 -124.914884 
L 550.574201 -126.115192 
L 550.725551 -127.3155 
L 550.849118 -128.515808 
L 550.971983 -129.716116 
L 551.069059 -130.916424 
L 551.107584 -132.116732 
L 551.140277 -133.31704 
L 551.168175 -134.517348 
L 551.184467 -135.717656 
L 551.181596 -136.917965 
L 551.184274 -138.118273 
L 551.195734 -139.318581 
L 551.199953 -140.518889 
L 551.192098 -141.719197 
L 551.189361 -142.919505 
L 551.198685 -144.119813 
L 551.203998 -145.320121 
L 551.203654 -146.520429 
L 551.200507 -147.720737 
L 551.201101 -148.921045 
L 551.204045 -150.121354 
L 551.20533 -150.121354 
L 551.20533 -150.121354 
L 551.208274 -148.921045 
L 551.208868 -147.720737 
L 551.205721 -146.520429 
L 551.205377 -145.320121 
L 551.21069 -144.119813 
L 551.220014 -142.919505 
L 551.217277 -141.719197 
L 551.209422 -140.518889 
L 551.213641 -139.318581 
L 551.225101 -138.118273 
L 551.227779 -136.917965 
L 551.224908 -135.717656 
L 551.2412 -134.517348 
L 551.269098 -133.31704 
L 551.301791 -132.116732 
L 551.340316 -130.916424 
L 551.437392 -129.716116 
L 551.560257 -128.515808 
L 551.683824 -127.3155 
L 551.835174 -126.115192 
L 552.085154 -124.914884 
L 552.416726 -123.714575 
L 552.936167 -122.514267 
L 553.654973 -121.313959 
L 554.495725 -120.113651 
L 555.522733 -118.913343 
L 556.62151 -117.713035 
L 558.063254 -116.512727 
L 559.809866 -115.312419 
L 561.579515 -114.112111 
L 563.735096 -112.911803 
L 566.370632 -111.711495 
L 569.42424 -110.511186 
L 572.249805 -109.310878 
L 574.815659 -108.11057 
L 576.981639 -106.910262 
L 578.468009 -105.709954 
L 579.147763 -104.509646 
L 578.564557 -103.309338 
L 576.048634 -102.10903 
L 572.674391 -100.908722 
L 569.431952 -99.708414 
L 566.125134 -98.508106 
L 563.141442 -97.307797 
L 560.95829 -96.107489 
L 559.308996 -94.907181 
L 557.856317 -93.706873 
L 556.661637 -92.506565 
L 555.549629 -91.306257 
L 554.62785 -90.105949 
L 553.921578 -88.905641 
L 553.325484 -87.705333 
L 552.89325 -86.505025 
L 552.608818 -85.304716 
L 552.388985 -84.104408 
L 552.13533 -82.9041 
L 551.913664 -81.703792 
L 551.79413 -80.503484 
L 551.691244 -79.303176 
L 551.590451 -78.102868 
L 551.514717 -76.90256 
L 551.457213 -75.702252 
L 551.407905 -74.501944 
L 551.378392 -73.301636 
L 551.322309 -72.101327 
L 551.291327 -70.901019 
L 551.283652 -69.700711 
L 551.280425 -68.500403 
L 551.273548 -67.300095 
L 551.245242 -66.099787 
L 551.236528 -64.899479 
L 551.233449 -63.699171 
L 551.22012 -62.498863 
L 551.214102 -61.298555 
L 551.222569 -60.098247 
L 551.239416 -58.897938 
L 551.23188 -57.69763 
L 551.225373 -56.497322 
L 551.221459 -55.297014 
L 551.211577 -54.096706 
L 551.208354 -52.896398 
L 551.215869 -51.69609 
L 551.220385 -50.495782 
L 551.216461 -49.295474 
L 551.213289 -48.095166 
L 551.210185 -46.894857 
L 551.207449 -45.694549 
L 551.212298 -44.494241 
L 551.212704 -43.293933 
L 551.206489 -42.093625 
L 551.204773 -40.893317 
L 551.204689 -39.693009 
L 551.204719 -38.492701 
L 551.205451 -37.292393 
L 551.208555 -36.092085 
L 551.209689 -34.891777 
L 551.209737 -33.691468 
L 551.208314 -32.49116 
L 551.20533 -31.290852 
z
" style="stroke: #3f3f3f; stroke-width: 1.5"/>
    </defs>
    <g clip-path="url(#p1417ce0517)">
     <use xlink:href="#me0a9fc8bde" x="0" y="194.158125" style="fill: #3274a1; stroke: #3f3f3f; stroke-width: 1.5"/>
    </g>
   </g>
   <g id="matplotlib.axis_1">
    <g id="xtick_1">
     <g id="line2d_1">
      <defs>
       <path id="mfa9125c84e" d="M 0 0 
L 0 3.5 
" style="stroke: #000000; stroke-width: 0.8"/>
      </defs>
      <g>
       <use xlink:href="#mfa9125c84e" x="104.804688" y="170.28" style="stroke: #000000; stroke-width: 0.8"/>
      </g>
     </g>
     <g id="text_1">
      <!-- (1, id) -->
      <g transform="translate(89.980469 184.878438)scale(0.1 -0.1)">
       <defs>
        <path id="DejaVuSans-28" d="M 1984 4856 
Q 1566 4138 1362 3434 
Q 1159 2731 1159 2009 
Q 1159 1288 1364 580 
Q 1569 -128 1984 -844 
L 1484 -844 
Q 1016 -109 783 600 
Q 550 1309 550 2009 
Q 550 2706 781 3412 
Q 1013 4119 1484 4856 
L 1984 4856 
z
" transform="scale(0.015625)"/>
        <path id="DejaVuSans-31" d="M 794 531 
L 1825 531 
L 1825 4091 
L 703 3866 
L 703 4441 
L 1819 4666 
L 2450 4666 
L 2450 531 
L 3481 531 
L 3481 0 
L 794 0 
L 794 531 
z
" transform="scale(0.015625)"/>
        <path id="DejaVuSans-2c" d="M 750 794 
L 1409 794 
L 1409 256 
L 897 -744 
L 494 -744 
L 750 256 
L 750 794 
z
" transform="scale(0.015625)"/>
        <path id="DejaVuSans-20" transform="scale(0.015625)"/>
        <path id="DejaVuSans-69" d="M 603 3500 
L 1178 3500 
L 1178 0 
L 603 0 
L 603 3500 
z
M 603 4863 
L 1178 4863 
L 1178 4134 
L 603 4134 
L 603 4863 
z
" transform="scale(0.015625)"/>
        <path id="DejaVuSans-64" d="M 2906 2969 
L 2906 4863 
L 3481 4863 
L 3481 0 
L 2906 0 
L 2906 525 
Q 2725 213 2448 61 
Q 2172 -91 1784 -91 
Q 1150 -91 751 415 
Q 353 922 353 1747 
Q 353 2572 751 3078 
Q 1150 3584 1784 3584 
Q 2172 3584 2448 3432 
Q 2725 3281 2906 2969 
z
M 947 1747 
Q 947 1113 1208 752 
Q 1469 391 1925 391 
Q 2381 391 2643 752 
Q 2906 1113 2906 1747 
Q 2906 2381 2643 2742 
Q 2381 3103 1925 3103 
Q 1469 3103 1208 2742 
Q 947 2381 947 1747 
z
" transform="scale(0.015625)"/>
        <path id="DejaVuSans-29" d="M 513 4856 
L 1013 4856 
Q 1481 4119 1714 3412 
Q 1947 2706 1947 2009 
Q 1947 1309 1714 600 
Q 1481 -109 1013 -844 
L 513 -844 
Q 928 -128 1133 580 
Q 1338 1288 1338 2009 
Q 1338 2731 1133 3434 
Q 928 4138 513 4856 
z
" transform="scale(0.015625)"/>
       </defs>
       <use xlink:href="#DejaVuSans-28"/>
       <use xlink:href="#DejaVuSans-31" x="39.013672"/>
       <use xlink:href="#DejaVuSans-2c" x="102.636719"/>
       <use xlink:href="#DejaVuSans-20" x="134.423828"/>
       <use xlink:href="#DejaVuSans-69" x="166.210938"/>
       <use xlink:href="#DejaVuSans-64" x="193.994141"/>
       <use xlink:href="#DejaVuSans-29" x="257.470703"/>
      </g>
     </g>
    </g>
    <g id="xtick_2">
     <g id="line2d_2">
      <g>
       <use xlink:href="#mfa9125c84e" x="216.404688" y="170.28" style="stroke: #000000; stroke-width: 0.8"/>
      </g>
     </g>
     <g id="text_2">
      <!-- (2, id) -->
      <g transform="translate(201.580469 184.878438)scale(0.1 -0.1)">
       <defs>
        <path id="DejaVuSans-32" d="M 1228 531 
L 3431 531 
L 3431 0 
L 469 0 
L 469 531 
Q 828 903 1448 1529 
Q 2069 2156 2228 2338 
Q 2531 2678 2651 2914 
Q 2772 3150 2772 3378 
Q 2772 3750 2511 3984 
Q 2250 4219 1831 4219 
Q 1534 4219 1204 4116 
Q 875 4013 500 3803 
L 500 4441 
Q 881 4594 1212 4672 
Q 1544 4750 1819 4750 
Q 2544 4750 2975 4387 
Q 3406 4025 3406 3419 
Q 3406 3131 3298 2873 
Q 3191 2616 2906 2266 
Q 2828 2175 2409 1742 
Q 1991 1309 1228 531 
z
" transform="scale(0.015625)"/>
       </defs>
       <use xlink:href="#DejaVuSans-28"/>
       <use xlink:href="#DejaVuSans-32" x="39.013672"/>
       <use xlink:href="#DejaVuSans-2c" x="102.636719"/>
       <use xlink:href="#DejaVuSans-20" x="134.423828"/>
       <use xlink:href="#DejaVuSans-69" x="166.210938"/>
       <use xlink:href="#DejaVuSans-64" x="193.994141"/>
       <use xlink:href="#DejaVuSans-29" x="257.470703"/>
      </g>
     </g>
    </g>
    <g id="xtick_3">
     <g id="line2d_3">
      <g>
       <use xlink:href="#mfa9125c84e" x="328.004688" y="170.28" style="stroke: #000000; stroke-width: 0.8"/>
      </g>
     </g>
     <g id="text_3">
      <!-- (3, id) -->
      <g transform="translate(313.180469 184.878438)scale(0.1 -0.1)">
       <defs>
        <path id="DejaVuSans-33" d="M 2597 2516 
Q 3050 2419 3304 2112 
Q 3559 1806 3559 1356 
Q 3559 666 3084 287 
Q 2609 -91 1734 -91 
Q 1441 -91 1130 -33 
Q 819 25 488 141 
L 488 750 
Q 750 597 1062 519 
Q 1375 441 1716 441 
Q 2309 441 2620 675 
Q 2931 909 2931 1356 
Q 2931 1769 2642 2001 
Q 2353 2234 1838 2234 
L 1294 2234 
L 1294 2753 
L 1863 2753 
Q 2328 2753 2575 2939 
Q 2822 3125 2822 3475 
Q 2822 3834 2567 4026 
Q 2313 4219 1838 4219 
Q 1578 4219 1281 4162 
Q 984 4106 628 3988 
L 628 4550 
Q 988 4650 1302 4700 
Q 1616 4750 1894 4750 
Q 2613 4750 3031 4423 
Q 3450 4097 3450 3541 
Q 3450 3153 3228 2886 
Q 3006 2619 2597 2516 
z
" transform="scale(0.015625)"/>
       </defs>
       <use xlink:href="#DejaVuSans-28"/>
       <use xlink:href="#DejaVuSans-33" x="39.013672"/>
       <use xlink:href="#DejaVuSans-2c" x="102.636719"/>
       <use xlink:href="#DejaVuSans-20" x="134.423828"/>
       <use xlink:href="#DejaVuSans-69" x="166.210938"/>
       <use xlink:href="#DejaVuSans-64" x="193.994141"/>
       <use xlink:href="#DejaVuSans-29" x="257.470703"/>
      </g>
     </g>
    </g>
    <g id="xtick_4">
     <g id="line2d_4">
      <g>
       <use xlink:href="#mfa9125c84e" x="439.604688" y="170.28" style="stroke: #000000; stroke-width: 0.8"/>
      </g>
     </g>
     <g id="text_4">
      <!-- (4, id) -->
      <g transform="translate(424.780469 184.878438)scale(0.1 -0.1)">
       <defs>
        <path id="DejaVuSans-34" d="M 2419 4116 
L 825 1625 
L 2419 1625 
L 2419 4116 
z
M 2253 4666 
L 3047 4666 
L 3047 1625 
L 3713 1625 
L 3713 1100 
L 3047 1100 
L 3047 0 
L 2419 0 
L 2419 1100 
L 313 1100 
L 313 1709 
L 2253 4666 
z
" transform="scale(0.015625)"/>
       </defs>
       <use xlink:href="#DejaVuSans-28"/>
       <use xlink:href="#DejaVuSans-34" x="39.013672"/>
       <use xlink:href="#DejaVuSans-2c" x="102.636719"/>
       <use xlink:href="#DejaVuSans-20" x="134.423828"/>
       <use xlink:href="#DejaVuSans-69" x="166.210938"/>
       <use xlink:href="#DejaVuSans-64" x="193.994141"/>
       <use xlink:href="#DejaVuSans-29" x="257.470703"/>
      </g>
     </g>
    </g>
    <g id="xtick_5">
     <g id="line2d_5">
      <g>
       <use xlink:href="#mfa9125c84e" x="551.204688" y="170.28" style="stroke: #000000; stroke-width: 0.8"/>
      </g>
     </g>
     <g id="text_5">
      <!-- logits -->
      <g transform="translate(537.628125 184.878438)scale(0.1 -0.1)">
       <defs>
        <path id="DejaVuSans-6c" d="M 603 4863 
L 1178 4863 
L 1178 0 
L 603 0 
L 603 4863 
z
" transform="scale(0.015625)"/>
        <path id="DejaVuSans-6f" d="M 1959 3097 
Q 1497 3097 1228 2736 
Q 959 2375 959 1747 
Q 959 1119 1226 758 
Q 1494 397 1959 397 
Q 2419 397 2687 759 
Q 2956 1122 2956 1747 
Q 2956 2369 2687 2733 
Q 2419 3097 1959 3097 
z
M 1959 3584 
Q 2709 3584 3137 3096 
Q 3566 2609 3566 1747 
Q 3566 888 3137 398 
Q 2709 -91 1959 -91 
Q 1206 -91 779 398 
Q 353 888 353 1747 
Q 353 2609 779 3096 
Q 1206 3584 1959 3584 
z
" transform="scale(0.015625)"/>
        <path id="DejaVuSans-67" d="M 2906 1791 
Q 2906 2416 2648 2759 
Q 2391 3103 1925 3103 
Q 1463 3103 1205 2759 
Q 947 2416 947 1791 
Q 947 1169 1205 825 
Q 1463 481 1925 481 
Q 2391 481 2648 825 
Q 2906 1169 2906 1791 
z
M 3481 434 
Q 3481 -459 3084 -895 
Q 2688 -1331 1869 -1331 
Q 1566 -1331 1297 -1286 
Q 1028 -1241 775 -1147 
L 775 -588 
Q 1028 -725 1275 -790 
Q 1522 -856 1778 -856 
Q 2344 -856 2625 -561 
Q 2906 -266 2906 331 
L 2906 616 
Q 2728 306 2450 153 
Q 2172 0 1784 0 
Q 1141 0 747 490 
Q 353 981 353 1791 
Q 353 2603 747 3093 
Q 1141 3584 1784 3584 
Q 2172 3584 2450 3431 
Q 2728 3278 2906 2969 
L 2906 3500 
L 3481 3500 
L 3481 434 
z
" transform="scale(0.015625)"/>
        <path id="DejaVuSans-74" d="M 1172 4494 
L 1172 3500 
L 2356 3500 
L 2356 3053 
L 1172 3053 
L 1172 1153 
Q 1172 725 1289 603 
Q 1406 481 1766 481 
L 2356 481 
L 2356 0 
L 1766 0 
Q 1100 0 847 248 
Q 594 497 594 1153 
L 594 3053 
L 172 3053 
L 172 3500 
L 594 3500 
L 594 4494 
L 1172 4494 
z
" transform="scale(0.015625)"/>
        <path id="DejaVuSans-73" d="M 2834 3397 
L 2834 2853 
Q 2591 2978 2328 3040 
Q 2066 3103 1784 3103 
Q 1356 3103 1142 2972 
Q 928 2841 928 2578 
Q 928 2378 1081 2264 
Q 1234 2150 1697 2047 
L 1894 2003 
Q 2506 1872 2764 1633 
Q 3022 1394 3022 966 
Q 3022 478 2636 193 
Q 2250 -91 1575 -91 
Q 1294 -91 989 -36 
Q 684 19 347 128 
L 347 722 
Q 666 556 975 473 
Q 1284 391 1588 391 
Q 1994 391 2212 530 
Q 2431 669 2431 922 
Q 2431 1156 2273 1281 
Q 2116 1406 1581 1522 
L 1381 1569 
Q 847 1681 609 1914 
Q 372 2147 372 2553 
Q 372 3047 722 3315 
Q 1072 3584 1716 3584 
Q 2034 3584 2315 3537 
Q 2597 3491 2834 3397 
z
" transform="scale(0.015625)"/>
       </defs>
       <use xlink:href="#DejaVuSans-6c"/>
       <use xlink:href="#DejaVuSans-6f" x="27.783203"/>
       <use xlink:href="#DejaVuSans-67" x="88.964844"/>
       <use xlink:href="#DejaVuSans-69" x="152.441406"/>
       <use xlink:href="#DejaVuSans-74" x="180.224609"/>
       <use xlink:href="#DejaVuSans-73" x="219.433594"/>
      </g>
     </g>
    </g>
   </g>
   <g id="matplotlib.axis_2">
    <g id="ytick_1">
     <g id="line2d_6">
      <defs>
       <path id="m07525c7daa" d="M 0 0 
L -3.5 0 
" style="stroke: #000000; stroke-width: 0.8"/>
      </defs>
      <g>
       <use xlink:href="#m07525c7daa" x="49.004687" y="152.35642" style="stroke: #000000; stroke-width: 0.8"/>
      </g>
     </g>
     <g id="text_6">
      <!-- −15 -->
      <g transform="translate(20.9 156.155638)scale(0.1 -0.1)">
       <defs>
        <path id="DejaVuSans-2212" d="M 678 2272 
L 4684 2272 
L 4684 1741 
L 678 1741 
L 678 2272 
z
" transform="scale(0.015625)"/>
        <path id="DejaVuSans-35" d="M 691 4666 
L 3169 4666 
L 3169 4134 
L 1269 4134 
L 1269 2991 
Q 1406 3038 1543 3061 
Q 1681 3084 1819 3084 
Q 2600 3084 3056 2656 
Q 3513 2228 3513 1497 
Q 3513 744 3044 326 
Q 2575 -91 1722 -91 
Q 1428 -91 1123 -41 
Q 819 9 494 109 
L 494 744 
Q 775 591 1075 516 
Q 1375 441 1709 441 
Q 2250 441 2565 725 
Q 2881 1009 2881 1497 
Q 2881 1984 2565 2268 
Q 2250 2553 1709 2553 
Q 1456 2553 1204 2497 
Q 953 2441 691 2322 
L 691 4666 
z
" transform="scale(0.015625)"/>
       </defs>
       <use xlink:href="#DejaVuSans-2212"/>
       <use xlink:href="#DejaVuSans-31" x="83.789062"/>
       <use xlink:href="#DejaVuSans-35" x="147.412109"/>
      </g>
     </g>
    </g>
    <g id="ytick_2">
     <g id="line2d_7">
      <g>
       <use xlink:href="#m07525c7daa" x="49.004687" y="131.33997" style="stroke: #000000; stroke-width: 0.8"/>
      </g>
     </g>
     <g id="text_7">
      <!-- −10 -->
      <g transform="translate(20.9 135.139189)scale(0.1 -0.1)">
       <defs>
        <path id="DejaVuSans-30" d="M 2034 4250 
Q 1547 4250 1301 3770 
Q 1056 3291 1056 2328 
Q 1056 1369 1301 889 
Q 1547 409 2034 409 
Q 2525 409 2770 889 
Q 3016 1369 3016 2328 
Q 3016 3291 2770 3770 
Q 2525 4250 2034 4250 
z
M 2034 4750 
Q 2819 4750 3233 4129 
Q 3647 3509 3647 2328 
Q 3647 1150 3233 529 
Q 2819 -91 2034 -91 
Q 1250 -91 836 529 
Q 422 1150 422 2328 
Q 422 3509 836 4129 
Q 1250 4750 2034 4750 
z
" transform="scale(0.015625)"/>
       </defs>
       <use xlink:href="#DejaVuSans-2212"/>
       <use xlink:href="#DejaVuSans-31" x="83.789062"/>
       <use xlink:href="#DejaVuSans-30" x="147.412109"/>
      </g>
     </g>
    </g>
    <g id="ytick_3">
     <g id="line2d_8">
      <g>
       <use xlink:href="#m07525c7daa" x="49.004687" y="110.32352" style="stroke: #000000; stroke-width: 0.8"/>
      </g>
     </g>
     <g id="text_8">
      <!-- −5 -->
      <g transform="translate(27.2625 114.122739)scale(0.1 -0.1)">
       <use xlink:href="#DejaVuSans-2212"/>
       <use xlink:href="#DejaVuSans-35" x="83.789062"/>
      </g>
     </g>
    </g>
    <g id="ytick_4">
     <g id="line2d_9">
      <g>
       <use xlink:href="#m07525c7daa" x="49.004687" y="89.30707" style="stroke: #000000; stroke-width: 0.8"/>
      </g>
     </g>
     <g id="text_9">
      <!-- 0 -->
      <g transform="translate(35.642187 93.106289)scale(0.1 -0.1)">
       <use xlink:href="#DejaVuSans-30"/>
      </g>
     </g>
    </g>
    <g id="ytick_5">
     <g id="line2d_10">
      <g>
       <use xlink:href="#m07525c7daa" x="49.004687" y="68.290621" style="stroke: #000000; stroke-width: 0.8"/>
      </g>
     </g>
     <g id="text_10">
      <!-- 5 -->
      <g transform="translate(35.642187 72.08984)scale(0.1 -0.1)">
       <use xlink:href="#DejaVuSans-35"/>
      </g>
     </g>
    </g>
    <g id="ytick_6">
     <g id="line2d_11">
      <g>
       <use xlink:href="#m07525c7daa" x="49.004687" y="47.274171" style="stroke: #000000; stroke-width: 0.8"/>
      </g>
     </g>
     <g id="text_11">
      <!-- 10 -->
      <g transform="translate(29.279687 51.07339)scale(0.1 -0.1)">
       <use xlink:href="#DejaVuSans-31"/>
       <use xlink:href="#DejaVuSans-30" x="63.623047"/>
      </g>
     </g>
    </g>
    <g id="ytick_7">
     <g id="line2d_12">
      <g>
       <use xlink:href="#m07525c7daa" x="49.004687" y="26.257721" style="stroke: #000000; stroke-width: 0.8"/>
      </g>
     </g>
     <g id="text_12">
      <!-- 15 -->
      <g transform="translate(29.279687 30.05694)scale(0.1 -0.1)">
       <use xlink:href="#DejaVuSans-31"/>
       <use xlink:href="#DejaVuSans-35" x="63.623047"/>
      </g>
     </g>
    </g>
    <g id="text_13">
     <!-- ${\phi}$ -->
     <g transform="translate(14.8 92.04)rotate(-90)scale(0.1 -0.1)">
      <defs>
       <path id="DejaVuSans-Oblique-3d5" d="M 2991 4863 
L 2738 3572 
Q 3363 3572 3684 3094 
Q 4016 2606 3850 1747 
Q 3681 888 3159 400 
Q 2653 -78 2028 -78 
L 1784 -1331 
L 1213 -1331 
L 1456 -78 
Q 834 -78 509 400 
Q 178 888 347 1747 
Q 513 2606 1034 3094 
Q 1544 3572 2166 3572 
L 2419 4863 
L 2991 4863 
z
M 2128 434 
Q 2481 434 2784 756 
Q 3116 1116 3244 1747 
Q 3369 2372 3169 2738 
Q 2991 3059 2638 3059 
L 2128 434 
z
M 1556 434 
L 2066 3059 
Q 1716 3059 1413 2738 
Q 1072 2372 953 1747 
Q 834 1116 1028 756 
Q 1203 434 1556 434 
z
" transform="scale(0.015625)"/>
      </defs>
      <use xlink:href="#DejaVuSans-Oblique-3d5" transform="translate(0 0.015625)"/>
     </g>
    </g>
   </g>
   <g id="line2d_13">
    <path d="M 104.804688 100.677068 
L 104.804688 77.912092 
" clip-path="url(#p1417ce0517)" style="fill: none; stroke: #3f3f3f; stroke-width: 1.5; stroke-linecap: square"/>
   </g>
   <g id="line2d_14">
    <path d="M 104.804688 92.140418 
L 104.804688 86.449069 
" clip-path="url(#p1417ce0517)" style="fill: none; stroke: #3f3f3f; stroke-width: 4.5; stroke-linecap: square"/>
   </g>
   <g id="line2d_15">
    <path d="M 216.404688 102.220308 
L 216.404688 76.424441 
" clip-path="url(#p1417ce0517)" style="fill: none; stroke: #3f3f3f; stroke-width: 1.5; stroke-linecap: square"/>
   </g>
   <g id="line2d_16">
    <path d="M 216.404688 92.546877 
L 216.404688 86.097854 
" clip-path="url(#p1417ce0517)" style="fill: none; stroke: #3f3f3f; stroke-width: 4.5; stroke-linecap: square"/>
   </g>
   <g id="line2d_17">
    <path d="M 328.004688 102.268163 
L 328.004688 76.381956 
" clip-path="url(#p1417ce0517)" style="fill: none; stroke: #3f3f3f; stroke-width: 1.5; stroke-linecap: square"/>
   </g>
   <g id="line2d_18">
    <path d="M 328.004688 92.560727 
L 328.004688 86.088938 
" clip-path="url(#p1417ce0517)" style="fill: none; stroke: #3f3f3f; stroke-width: 4.5; stroke-linecap: square"/>
   </g>
   <g id="line2d_19">
    <path d="M 439.604688 104.258791 
L 439.604688 74.324819 
" clip-path="url(#p1417ce0517)" style="fill: none; stroke: #3f3f3f; stroke-width: 1.5; stroke-linecap: square"/>
   </g>
   <g id="line2d_20">
    <path d="M 439.604688 93.035156 
L 439.604688 85.550838 
" clip-path="url(#p1417ce0517)" style="fill: none; stroke: #3f3f3f; stroke-width: 4.5; stroke-linecap: square"/>
   </g>
   <g id="line2d_21">
    <path d="M 551.204688 107.603257 
L 551.204688 70.704461 
" clip-path="url(#p1417ce0517)" style="fill: none; stroke: #3f3f3f; stroke-width: 1.5; stroke-linecap: square"/>
   </g>
   <g id="line2d_22">
    <path d="M 551.204688 93.768929 
L 551.204688 84.541539 
" clip-path="url(#p1417ce0517)" style="fill: none; stroke: #3f3f3f; stroke-width: 4.5; stroke-linecap: square"/>
   </g>
   <g id="patch_3">
    <path d="M 49.004687 170.28 
L 49.004687 7.2 
" style="fill: none; stroke: #000000; stroke-width: 0.8; stroke-linejoin: miter; stroke-linecap: square"/>
   </g>
   <g id="patch_4">
    <path d="M 607.004688 170.28 
L 607.004688 7.2 
" style="fill: none; stroke: #000000; stroke-width: 0.8; stroke-linejoin: miter; stroke-linecap: square"/>
   </g>
   <g id="patch_5">
    <path d="M 49.004687 170.28 
L 607.004688 170.28 
" style="fill: none; stroke: #000000; stroke-width: 0.8; stroke-linejoin: miter; stroke-linecap: square"/>
   </g>
   <g id="patch_6">
    <path d="M 49.004687 7.2 
L 607.004688 7.2 
" style="fill: none; stroke: #000000; stroke-width: 0.8; stroke-linejoin: miter; stroke-linecap: square"/>
   </g>
   <g id="PathCollection_1">
    <defs>
     <path id="m6cb36716f4" d="M 0 1.5 
C 0.397805 1.5 0.77937 1.341951 1.06066 1.06066 
C 1.341951 0.77937 1.5 0.397805 1.5 0 
C 1.5 -0.397805 1.341951 -0.77937 1.06066 -1.06066 
C 0.77937 -1.341951 0.397805 -1.5 0 -1.5 
C -0.397805 -1.5 -0.77937 -1.341951 -1.06066 -1.06066 
C -1.341951 -0.77937 -1.5 -0.397805 -1.5 0 
C -1.5 0.397805 -1.341951 0.77937 -1.06066 1.06066 
C -0.77937 1.341951 -0.397805 1.5 0 1.5 
z
" style="stroke: #3f3f3f"/>
    </defs>
    <g clip-path="url(#p1417ce0517)">
     <use xlink:href="#m6cb36716f4" x="104.804688" y="89.297019" style="fill: #ffffff; stroke: #3f3f3f"/>
    </g>
   </g>
   <g id="PathCollection_2">
    <g clip-path="url(#p1417ce0517)">
     <use xlink:href="#m6cb36716f4" x="216.404688" y="89.349648" style="fill: #ffffff; stroke: #3f3f3f"/>
    </g>
   </g>
   <g id="PathCollection_3">
    <g clip-path="url(#p1417ce0517)">
     <use xlink:href="#m6cb36716f4" x="328.004688" y="89.31297" style="fill: #ffffff; stroke: #3f3f3f"/>
    </g>
   </g>
   <g id="PathCollection_4">
    <g clip-path="url(#p1417ce0517)">
     <use xlink:href="#m6cb36716f4" x="439.604688" y="89.312968" style="fill: #ffffff; stroke: #3f3f3f"/>
    </g>
   </g>
   <g id="PathCollection_5">
    <g clip-path="url(#p1417ce0517)">
     <use xlink:href="#m6cb36716f4" x="551.204688" y="89.208399" style="fill: #ffffff; stroke: #3f3f3f"/>
    </g>
   </g>
  </g>
 </g>
 <defs>
  <clipPath id="p1417ce0517">
   <rect x="49.004687" y="7.2" width="558" height="163.08"/>
  </clipPath>
 </defs>
</svg>
