<?xml version="1.0" encoding="utf-8" standalone="no"?>
<!DOCTYPE svg PUBLIC "-//W3C//DTD SVG 1.1//EN"
  "http://www.w3.org/Graphics/SVG/1.1/DTD/svg11.dtd">
<svg xmlns:xlink="http://www.w3.org/1999/xlink" width="607.842188pt" height="194.158125pt" viewBox="0 0 607.842188 194.158125" xmlns="http://www.w3.org/2000/svg" version="1.1">
 <metadata>
  <rdf:RDF xmlns:dc="http://purl.org/dc/elements/1.1/" xmlns:cc="http://creativecommons.org/ns#" xmlns:rdf="http://www.w3.org/1999/02/22-rdf-syntax-ns#">
   <cc:Work>
    <dc:type rdf:resource="http://purl.org/dc/dcmitype/StillImage"/>
    <dc:date>2022-07-08T21:38:22.103283</dc:date>
    <dc:format>image/svg+xml</dc:format>
    <dc:creator>
     <cc:Agent>
      <dc:title>Matplotlib v3.5.1, https://matplotlib.org/</dc:title>
     </cc:Agent>
    </dc:creator>
   </cc:Work>
  </rdf:RDF>
 </metadata>
 <defs>
  <style type="text/css">*{stroke-linejoin: round; stroke-linecap: butt}</style>
 </defs>
 <g id="figure_1">
  <g id="patch_1">
   <path d="M 0 194.158125 
L 607.842188 194.158125 
L 607.842188 0 
L 0 0 
L 0 194.158125 
z
" style="fill: none"/>
  </g>
  <g id="axes_1">
   <g id="patch_2">
    <path d="M 42.642188 170.28 
L 600.642187 170.28 
L 600.642187 7.2 
L 42.642188 7.2 
z
" style="fill: #ffffff"/>
   </g>
   <g id="PolyCollection_1">
    <defs>
     <path id="m2b04267c73" d="M 106.985098 -71.273042 
L 89.899277 -71.273042 
L 89.92705 -72.366703 
L 94.104202 -73.460363 
L 94.331515 -74.554023 
L 94.663495 -75.647683 
L 95.069026 -76.741343 
L 95.469679 -77.835003 
L 95.892611 -78.928664 
L 96.306614 -80.022324 
L 96.682808 -81.115984 
L 96.995898 -82.209644 
L 97.294844 -83.303304 
L 97.537946 -84.396964 
L 97.739128 -85.490624 
L 97.896402 -86.584285 
L 98.013843 -87.677945 
L 98.1135 -88.771605 
L 98.190888 -89.865265 
L 98.250583 -90.958925 
L 98.299257 -92.052585 
L 98.328773 -93.146246 
L 98.356942 -94.239906 
L 98.37588 -95.333566 
L 98.390048 -96.427226 
L 98.403079 -97.520886 
L 98.413568 -98.614546 
L 98.419255 -99.708206 
L 98.423715 -100.801867 
L 98.427011 -101.895527 
L 98.430725 -102.989187 
L 98.432917 -104.082847 
L 98.43374 -105.176507 
L 98.435751 -106.270167 
L 98.437058 -107.363828 
L 98.437499 -108.457488 
L 98.438566 -109.551148 
L 98.439465 -110.644808 
L 98.439093 -111.738468 
L 98.440256 -112.832128 
L 98.439722 -113.925788 
L 98.439996 -115.019449 
L 98.440607 -116.113109 
L 98.441144 -117.206769 
L 98.441271 -118.300429 
L 98.441009 -119.394089 
L 98.441093 -120.487749 
L 98.44157 -121.58141 
L 98.441607 -122.67507 
L 98.441696 -123.76873 
L 98.441652 -124.86239 
L 98.441759 -125.95605 
L 98.441879 -127.04971 
L 98.441833 -128.14337 
L 98.441948 -129.237031 
L 98.441935 -130.330691 
L 98.442098 -131.424351 
L 98.442062 -132.518011 
L 98.44191 -133.611671 
L 98.442003 -134.705331 
L 98.442096 -135.798992 
L 98.442155 -136.892652 
L 98.442131 -137.986312 
L 98.442187 -139.079972 
L 98.442032 -140.173632 
L 98.44205 -141.267292 
L 98.442141 -142.360952 
L 98.442171 -143.454613 
L 98.442141 -144.548273 
L 98.442128 -145.641933 
L 98.442137 -146.735593 
L 98.442187 -147.829253 
L 98.442183 -148.922913 
L 98.442116 -150.016574 
L 98.442136 -151.110234 
L 98.442187 -152.203894 
L 98.442188 -153.297554 
L 98.442188 -154.391214 
L 98.442188 -155.484874 
L 98.442187 -156.578534 
L 98.442158 -157.672195 
L 98.442187 -158.765855 
L 98.442187 -159.859515 
L 98.442166 -160.953175 
L 98.442187 -162.046835 
L 98.442188 -163.140495 
L 98.442188 -164.234156 
L 98.442188 -165.327816 
L 98.442188 -166.421476 
L 98.442188 -167.515136 
L 98.442188 -168.608796 
L 98.442188 -169.702456 
L 98.442188 -170.796116 
L 98.442188 -171.889777 
L 98.442188 -172.983437 
L 98.442188 -174.077097 
L 98.442188 -175.170757 
L 98.442188 -176.264417 
L 98.442188 -177.358077 
L 98.442184 -178.451738 
L 98.442179 -179.545398 
L 98.442196 -179.545398 
L 98.442196 -179.545398 
L 98.442191 -178.451738 
L 98.442188 -177.358077 
L 98.442188 -176.264417 
L 98.442188 -175.170757 
L 98.442188 -174.077097 
L 98.442188 -172.983437 
L 98.442188 -171.889777 
L 98.442188 -170.796116 
L 98.442188 -169.702456 
L 98.442188 -168.608796 
L 98.442188 -167.515136 
L 98.442188 -166.421476 
L 98.442188 -165.327816 
L 98.442188 -164.234156 
L 98.442188 -163.140495 
L 98.442188 -162.046835 
L 98.442209 -160.953175 
L 98.442188 -159.859515 
L 98.442188 -158.765855 
L 98.442217 -157.672195 
L 98.442188 -156.578534 
L 98.442188 -155.484874 
L 98.442188 -154.391214 
L 98.442188 -153.297554 
L 98.442188 -152.203894 
L 98.442239 -151.110234 
L 98.442259 -150.016574 
L 98.442192 -148.922913 
L 98.442188 -147.829253 
L 98.442238 -146.735593 
L 98.442247 -145.641933 
L 98.442234 -144.548273 
L 98.442204 -143.454613 
L 98.442234 -142.360952 
L 98.442325 -141.267292 
L 98.442343 -140.173632 
L 98.442188 -139.079972 
L 98.442244 -137.986312 
L 98.44222 -136.892652 
L 98.442279 -135.798992 
L 98.442372 -134.705331 
L 98.442465 -133.611671 
L 98.442313 -132.518011 
L 98.442277 -131.424351 
L 98.44244 -130.330691 
L 98.442427 -129.237031 
L 98.442542 -128.14337 
L 98.442496 -127.04971 
L 98.442616 -125.95605 
L 98.442723 -124.86239 
L 98.442679 -123.76873 
L 98.442768 -122.67507 
L 98.442805 -121.58141 
L 98.443282 -120.487749 
L 98.443366 -119.394089 
L 98.443104 -118.300429 
L 98.443231 -117.206769 
L 98.443768 -116.113109 
L 98.444379 -115.019449 
L 98.444653 -113.925788 
L 98.444119 -112.832128 
L 98.445282 -111.738468 
L 98.44491 -110.644808 
L 98.445809 -109.551148 
L 98.446876 -108.457488 
L 98.447317 -107.363828 
L 98.448624 -106.270167 
L 98.450635 -105.176507 
L 98.451458 -104.082847 
L 98.45365 -102.989187 
L 98.457364 -101.895527 
L 98.46066 -100.801867 
L 98.46512 -99.708206 
L 98.470807 -98.614546 
L 98.481296 -97.520886 
L 98.494327 -96.427226 
L 98.508495 -95.333566 
L 98.527433 -94.239906 
L 98.555602 -93.146246 
L 98.585118 -92.052585 
L 98.633792 -90.958925 
L 98.693487 -89.865265 
L 98.770875 -88.771605 
L 98.870532 -87.677945 
L 98.987973 -86.584285 
L 99.145247 -85.490624 
L 99.346429 -84.396964 
L 99.589531 -83.303304 
L 99.888477 -82.209644 
L 100.201567 -81.115984 
L 100.577761 -80.022324 
L 100.991764 -78.928664 
L 101.414696 -77.835003 
L 101.815349 -76.741343 
L 102.22088 -75.647683 
L 102.55286 -74.554023 
L 102.780173 -73.460363 
L 106.957325 -72.366703 
L 106.985098 -71.273042 
z
" style="stroke: #3f3f3f; stroke-width: 1.5"/>
    </defs>
    <g clip-path="url(#p3933103de1)">
     <use xlink:href="#m2b04267c73" x="0" y="194.158125" style="fill: #3274a1; stroke: #3f3f3f; stroke-width: 1.5"/>
    </g>
   </g>
   <g id="PolyCollection_2">
    <defs>
     <path id="m0274c796e6" d="M 216.893239 -71.166093 
L 203.191136 -71.166093 
L 187.986 -72.21459 
L 205.732171 -73.263086 
L 205.883066 -74.311583 
L 206.146519 -75.36008 
L 206.518949 -76.408576 
L 206.924032 -77.457073 
L 207.285782 -78.50557 
L 207.655271 -79.554066 
L 208.001311 -80.602563 
L 208.341455 -81.65106 
L 208.639237 -82.699556 
L 208.894228 -83.748053 
L 209.106899 -84.79655 
L 209.288889 -85.845046 
L 209.445665 -86.893543 
L 209.573002 -87.94204 
L 209.670132 -88.990536 
L 209.749507 -90.039033 
L 209.819238 -91.08753 
L 209.862743 -92.136026 
L 209.897261 -93.184523 
L 209.9294 -94.23302 
L 209.95832 -95.281516 
L 209.976394 -96.330013 
L 209.992398 -97.37851 
L 210.004347 -98.427006 
L 210.013392 -99.475503 
L 210.01598 -100.524 
L 210.02234 -101.572497 
L 210.026518 -102.620993 
L 210.02911 -103.66949 
L 210.032496 -104.717987 
L 210.034786 -105.766483 
L 210.036172 -106.81498 
L 210.035321 -107.863477 
L 210.037379 -108.911973 
L 210.037446 -109.96047 
L 210.038126 -111.008967 
L 210.038415 -112.057463 
L 210.039121 -113.10596 
L 210.040539 -114.154457 
L 210.0398 -115.202953 
L 210.040485 -116.25145 
L 210.040615 -117.299947 
L 210.040519 -118.348443 
L 210.041057 -119.39694 
L 210.041393 -120.445437 
L 210.041299 -121.493933 
L 210.041708 -122.54243 
L 210.041263 -123.590927 
L 210.041502 -124.639423 
L 210.04179 -125.68792 
L 210.041942 -126.736417 
L 210.041863 -127.784913 
L 210.041722 -128.83341 
L 210.041535 -129.881907 
L 210.041465 -130.930403 
L 210.041843 -131.9789 
L 210.0418 -133.027397 
L 210.042087 -134.075893 
L 210.042084 -135.12439 
L 210.041918 -136.172887 
L 210.041955 -137.221384 
L 210.042146 -138.26988 
L 210.041837 -139.318377 
L 210.041949 -140.366874 
L 210.042185 -141.41537 
L 210.042186 -142.463867 
L 210.041996 -143.512364 
L 210.042137 -144.56086 
L 210.042106 -145.609357 
L 210.042182 -146.657854 
L 210.042028 -147.70635 
L 210.042125 -148.754847 
L 210.042182 -149.803344 
L 210.042094 -150.85184 
L 210.042183 -151.900337 
L 210.042125 -152.948834 
L 210.042187 -153.99733 
L 210.042188 -155.045827 
L 210.042188 -156.094324 
L 210.042188 -157.14282 
L 210.042188 -158.191317 
L 210.042188 -159.239814 
L 210.042188 -160.28831 
L 210.042188 -161.336807 
L 210.042188 -162.385304 
L 210.042188 -163.4338 
L 210.042188 -164.482297 
L 210.042188 -165.530794 
L 210.042188 -166.57929 
L 210.042188 -167.627787 
L 210.042188 -168.676284 
L 210.042188 -169.72478 
L 210.042188 -170.773277 
L 210.042188 -171.821774 
L 210.042187 -172.87027 
L 210.042152 -173.918767 
L 210.042174 -174.967264 
L 210.042201 -174.967264 
L 210.042201 -174.967264 
L 210.042223 -173.918767 
L 210.042188 -172.87027 
L 210.042188 -171.821774 
L 210.042188 -170.773277 
L 210.042188 -169.72478 
L 210.042188 -168.676284 
L 210.042188 -167.627787 
L 210.042188 -166.57929 
L 210.042188 -165.530794 
L 210.042188 -164.482297 
L 210.042188 -163.4338 
L 210.042188 -162.385304 
L 210.042188 -161.336807 
L 210.042188 -160.28831 
L 210.042188 -159.239814 
L 210.042188 -158.191317 
L 210.042188 -157.14282 
L 210.042188 -156.094324 
L 210.042188 -155.045827 
L 210.042188 -153.99733 
L 210.04225 -152.948834 
L 210.042192 -151.900337 
L 210.042281 -150.85184 
L 210.042193 -149.803344 
L 210.04225 -148.754847 
L 210.042347 -147.70635 
L 210.042193 -146.657854 
L 210.042269 -145.609357 
L 210.042238 -144.56086 
L 210.042379 -143.512364 
L 210.042189 -142.463867 
L 210.04219 -141.41537 
L 210.042426 -140.366874 
L 210.042538 -139.318377 
L 210.042229 -138.26988 
L 210.04242 -137.221384 
L 210.042457 -136.172887 
L 210.042291 -135.12439 
L 210.042288 -134.075893 
L 210.042575 -133.027397 
L 210.042532 -131.9789 
L 210.04291 -130.930403 
L 210.04284 -129.881907 
L 210.042653 -128.83341 
L 210.042512 -127.784913 
L 210.042433 -126.736417 
L 210.042585 -125.68792 
L 210.042873 -124.639423 
L 210.043112 -123.590927 
L 210.042667 -122.54243 
L 210.043076 -121.493933 
L 210.042982 -120.445437 
L 210.043318 -119.39694 
L 210.043856 -118.348443 
L 210.04376 -117.299947 
L 210.04389 -116.25145 
L 210.044575 -115.202953 
L 210.043836 -114.154457 
L 210.045254 -113.10596 
L 210.04596 -112.057463 
L 210.046249 -111.008967 
L 210.046929 -109.96047 
L 210.046996 -108.911973 
L 210.049054 -107.863477 
L 210.048203 -106.81498 
L 210.049589 -105.766483 
L 210.051879 -104.717987 
L 210.055265 -103.66949 
L 210.057857 -102.620993 
L 210.062035 -101.572497 
L 210.068395 -100.524 
L 210.070983 -99.475503 
L 210.080028 -98.427006 
L 210.091977 -97.37851 
L 210.107981 -96.330013 
L 210.126055 -95.281516 
L 210.154975 -94.23302 
L 210.187114 -93.184523 
L 210.221632 -92.136026 
L 210.265137 -91.08753 
L 210.334868 -90.039033 
L 210.414243 -88.990536 
L 210.511373 -87.94204 
L 210.63871 -86.893543 
L 210.795486 -85.845046 
L 210.977476 -84.79655 
L 211.190147 -83.748053 
L 211.445138 -82.699556 
L 211.74292 -81.65106 
L 212.083064 -80.602563 
L 212.429104 -79.554066 
L 212.798593 -78.50557 
L 213.160343 -77.457073 
L 213.565426 -76.408576 
L 213.937856 -75.36008 
L 214.201309 -74.311583 
L 214.352204 -73.263086 
L 232.098375 -72.21459 
L 216.893239 -71.166093 
z
" style="stroke: #3f3f3f; stroke-width: 1.5"/>
    </defs>
    <g clip-path="url(#p3933103de1)">
     <use xlink:href="#m0274c796e6" x="0" y="194.158125" style="fill: #3274a1; stroke: #3f3f3f; stroke-width: 1.5"/>
    </g>
   </g>
   <g id="PolyCollection_3">
    <defs>
     <path id="m1c45523f65" d="M 328.992163 -71.18845 
L 314.292212 -71.18845 
L 284.97013 -72.067808 
L 317.265947 -72.947167 
L 317.407284 -73.826526 
L 317.622348 -74.705884 
L 317.890105 -75.585243 
L 318.191115 -76.464601 
L 318.47038 -77.34396 
L 318.83132 -78.223318 
L 319.159458 -79.102677 
L 319.485077 -79.982036 
L 319.769814 -80.861394 
L 320.07834 -81.740753 
L 320.311073 -82.620111 
L 320.536269 -83.49947 
L 320.73697 -84.378828 
L 320.887734 -85.258187 
L 321.041405 -86.137545 
L 321.141181 -87.016904 
L 321.247445 -87.896263 
L 321.307666 -88.775621 
L 321.370031 -89.65498 
L 321.416902 -90.534338 
L 321.461116 -91.413697 
L 321.49609 -92.293055 
L 321.518927 -93.172414 
L 321.548542 -94.051773 
L 321.562181 -94.931131 
L 321.574782 -95.81049 
L 321.592938 -96.689848 
L 321.599704 -97.569207 
L 321.60804 -98.448565 
L 321.611601 -99.327924 
L 321.617652 -100.207283 
L 321.620322 -101.086641 
L 321.623152 -101.966 
L 321.627804 -102.845358 
L 321.631189 -103.724717 
L 321.631044 -104.604075 
L 321.633622 -105.483434 
L 321.635617 -106.362793 
L 321.636381 -107.242151 
L 321.637088 -108.12151 
L 321.638399 -109.000868 
L 321.638285 -109.880227 
L 321.638845 -110.759585 
L 321.638429 -111.638944 
L 321.640103 -112.518302 
L 321.639439 -113.397661 
L 321.640675 -114.27702 
L 321.6405 -115.156378 
L 321.640463 -116.035737 
L 321.640556 -116.915095 
L 321.640984 -117.794454 
L 321.640557 -118.673812 
L 321.641169 -119.553171 
L 321.640908 -120.43253 
L 321.641315 -121.311888 
L 321.641253 -122.191247 
L 321.641392 -123.070605 
L 321.64137 -123.949964 
L 321.641604 -124.829322 
L 321.641694 -125.708681 
L 321.641782 -126.58804 
L 321.641388 -127.467398 
L 321.641814 -128.346757 
L 321.641591 -129.226115 
L 321.641804 -130.105474 
L 321.641859 -130.984832 
L 321.642161 -131.864191 
L 321.64171 -132.743549 
L 321.641865 -133.622908 
L 321.641854 -134.502267 
L 321.641332 -135.381625 
L 321.642132 -136.260984 
L 321.641847 -137.140342 
L 321.642175 -138.019701 
L 321.64217 -138.899059 
L 321.642131 -139.778418 
L 321.642086 -140.657777 
L 321.642067 -141.537135 
L 321.642012 -142.416494 
L 321.642032 -143.295852 
L 321.642143 -144.175211 
L 321.642161 -145.054569 
L 321.642179 -145.933928 
L 321.642005 -146.813287 
L 321.642187 -147.692645 
L 321.642115 -148.572004 
L 321.642177 -149.451362 
L 321.642187 -150.330721 
L 321.642188 -151.210079 
L 321.642187 -152.089438 
L 321.642187 -152.968797 
L 321.642086 -153.848155 
L 321.642186 -154.727514 
L 321.642187 -155.606872 
L 321.642187 -156.486231 
L 321.642125 -157.365589 
L 321.642174 -158.244948 
L 321.642201 -158.244948 
L 321.642201 -158.244948 
L 321.64225 -157.365589 
L 321.642188 -156.486231 
L 321.642188 -155.606872 
L 321.642189 -154.727514 
L 321.642289 -153.848155 
L 321.642188 -152.968797 
L 321.642188 -152.089438 
L 321.642188 -151.210079 
L 321.642188 -150.330721 
L 321.642198 -149.451362 
L 321.64226 -148.572004 
L 321.642188 -147.692645 
L 321.64237 -146.813287 
L 321.642196 -145.933928 
L 321.642214 -145.054569 
L 321.642232 -144.175211 
L 321.642343 -143.295852 
L 321.642363 -142.416494 
L 321.642308 -141.537135 
L 321.642289 -140.657777 
L 321.642244 -139.778418 
L 321.642205 -138.899059 
L 321.6422 -138.019701 
L 321.642528 -137.140342 
L 321.642243 -136.260984 
L 321.643043 -135.381625 
L 321.642521 -134.502267 
L 321.64251 -133.622908 
L 321.642665 -132.743549 
L 321.642214 -131.864191 
L 321.642516 -130.984832 
L 321.642571 -130.105474 
L 321.642784 -129.226115 
L 321.642561 -128.346757 
L 321.642987 -127.467398 
L 321.642593 -126.58804 
L 321.642681 -125.708681 
L 321.642771 -124.829322 
L 321.643005 -123.949964 
L 321.642983 -123.070605 
L 321.643122 -122.191247 
L 321.64306 -121.311888 
L 321.643467 -120.43253 
L 321.643206 -119.553171 
L 321.643818 -118.673812 
L 321.643391 -117.794454 
L 321.643819 -116.915095 
L 321.643912 -116.035737 
L 321.643875 -115.156378 
L 321.6437 -114.27702 
L 321.644936 -113.397661 
L 321.644272 -112.518302 
L 321.645946 -111.638944 
L 321.64553 -110.759585 
L 321.64609 -109.880227 
L 321.645976 -109.000868 
L 321.647287 -108.12151 
L 321.647994 -107.242151 
L 321.648758 -106.362793 
L 321.650753 -105.483434 
L 321.653331 -104.604075 
L 321.653186 -103.724717 
L 321.656571 -102.845358 
L 321.661223 -101.966 
L 321.664053 -101.086641 
L 321.666723 -100.207283 
L 321.672774 -99.327924 
L 321.676335 -98.448565 
L 321.684671 -97.569207 
L 321.691437 -96.689848 
L 321.709593 -95.81049 
L 321.722194 -94.931131 
L 321.735833 -94.051773 
L 321.765448 -93.172414 
L 321.788285 -92.293055 
L 321.823259 -91.413697 
L 321.867473 -90.534338 
L 321.914344 -89.65498 
L 321.976709 -88.775621 
L 322.03693 -87.896263 
L 322.143194 -87.016904 
L 322.24297 -86.137545 
L 322.396641 -85.258187 
L 322.547405 -84.378828 
L 322.748106 -83.49947 
L 322.973302 -82.620111 
L 323.206035 -81.740753 
L 323.514561 -80.861394 
L 323.799298 -79.982036 
L 324.124917 -79.102677 
L 324.453055 -78.223318 
L 324.813995 -77.34396 
L 325.09326 -76.464601 
L 325.39427 -75.585243 
L 325.662027 -74.705884 
L 325.877091 -73.826526 
L 326.018428 -72.947167 
L 358.314245 -72.067808 
L 328.992163 -71.18845 
z
" style="stroke: #3f3f3f; stroke-width: 1.5"/>
    </defs>
    <g clip-path="url(#p3933103de1)">
     <use xlink:href="#m1c45523f65" x="0" y="194.158125" style="fill: #3274a1; stroke: #3f3f3f; stroke-width: 1.5"/>
    </g>
   </g>
   <g id="PolyCollection_4">
    <defs>
     <path id="m8f666b784c" d="M 439.114916 -71.017345 
L 427.369459 -71.017345 
L 388.602188 -71.811183 
L 425.525176 -72.605021 
L 429.633502 -73.398859 
L 429.748325 -74.192697 
L 429.901161 -74.986535 
L 430.060528 -75.780373 
L 430.261909 -76.574211 
L 430.428972 -77.368049 
L 430.607061 -78.161887 
L 430.840066 -78.955725 
L 431.01368 -79.749564 
L 431.182239 -80.543402 
L 431.386155 -81.33724 
L 431.582742 -82.131078 
L 431.768641 -82.924916 
L 431.952272 -83.718754 
L 432.129343 -84.512592 
L 432.286339 -85.30643 
L 432.397263 -86.100268 
L 432.540176 -86.894106 
L 432.642807 -87.687944 
L 432.740347 -88.481782 
L 432.817679 -89.27562 
L 432.881401 -90.069458 
L 432.933706 -90.863297 
L 432.976921 -91.657135 
L 433.020733 -92.450973 
L 433.060224 -93.244811 
L 433.093216 -94.038649 
L 433.110682 -94.832487 
L 433.130119 -95.626325 
L 433.152416 -96.420163 
L 433.169755 -97.214001 
L 433.183132 -98.007839 
L 433.19026 -98.801677 
L 433.199225 -99.595515 
L 433.20409 -100.389353 
L 433.210228 -101.183191 
L 433.215184 -101.97703 
L 433.221354 -102.770868 
L 433.223368 -103.564706 
L 433.224195 -104.358544 
L 433.22589 -105.152382 
L 433.229843 -105.94622 
L 433.229662 -106.740058 
L 433.230497 -107.533896 
L 433.231966 -108.327734 
L 433.234454 -109.121572 
L 433.236237 -109.91541 
L 433.23611 -110.709248 
L 433.237395 -111.503086 
L 433.23741 -112.296924 
L 433.237835 -113.090763 
L 433.238278 -113.884601 
L 433.239764 -114.678439 
L 433.239437 -115.472277 
L 433.239261 -116.266115 
L 433.240548 -117.059953 
L 433.240501 -117.853791 
L 433.240352 -118.647629 
L 433.240816 -119.441467 
L 433.240507 -120.235305 
L 433.240504 -121.029143 
L 433.240876 -121.822981 
L 433.240353 -122.616819 
L 433.240222 -123.410657 
L 433.241341 -124.204496 
L 433.241236 -124.998334 
L 433.241381 -125.792172 
L 433.241118 -126.58601 
L 433.241259 -127.379848 
L 433.241759 -128.173686 
L 433.241717 -128.967524 
L 433.242116 -129.761362 
L 433.242037 -130.5552 
L 433.241475 -131.349038 
L 433.24184 -132.142876 
L 433.241903 -132.936714 
L 433.241779 -133.730552 
L 433.24188 -134.52439 
L 433.241811 -135.318229 
L 433.241999 -136.112067 
L 433.242033 -136.905905 
L 433.241941 -137.699743 
L 433.241973 -138.493581 
L 433.242176 -139.287419 
L 433.242026 -140.081257 
L 433.241987 -140.875095 
L 433.242049 -141.668933 
L 433.241929 -142.462771 
L 433.241984 -143.256609 
L 433.242013 -144.050447 
L 433.242006 -144.844285 
L 433.241991 -145.638123 
L 433.242055 -146.431962 
L 433.241965 -147.2258 
L 433.242145 -148.019638 
L 433.24203 -148.813476 
L 433.242166 -149.607314 
L 433.242209 -149.607314 
L 433.242209 -149.607314 
L 433.242345 -148.813476 
L 433.24223 -148.019638 
L 433.24241 -147.2258 
L 433.24232 -146.431962 
L 433.242384 -145.638123 
L 433.242369 -144.844285 
L 433.242362 -144.050447 
L 433.242391 -143.256609 
L 433.242446 -142.462771 
L 433.242326 -141.668933 
L 433.242388 -140.875095 
L 433.242349 -140.081257 
L 433.242199 -139.287419 
L 433.242402 -138.493581 
L 433.242434 -137.699743 
L 433.242342 -136.905905 
L 433.242376 -136.112067 
L 433.242564 -135.318229 
L 433.242495 -134.52439 
L 433.242596 -133.730552 
L 433.242472 -132.936714 
L 433.242535 -132.142876 
L 433.2429 -131.349038 
L 433.242338 -130.5552 
L 433.242259 -129.761362 
L 433.242658 -128.967524 
L 433.242616 -128.173686 
L 433.243116 -127.379848 
L 433.243257 -126.58601 
L 433.242994 -125.792172 
L 433.243139 -124.998334 
L 433.243034 -124.204496 
L 433.244153 -123.410657 
L 433.244022 -122.616819 
L 433.243499 -121.822981 
L 433.243871 -121.029143 
L 433.243868 -120.235305 
L 433.243559 -119.441467 
L 433.244023 -118.647629 
L 433.243874 -117.853791 
L 433.243827 -117.059953 
L 433.245114 -116.266115 
L 433.244938 -115.472277 
L 433.244611 -114.678439 
L 433.246097 -113.884601 
L 433.24654 -113.090763 
L 433.246965 -112.296924 
L 433.24698 -111.503086 
L 433.248265 -110.709248 
L 433.248138 -109.91541 
L 433.249921 -109.121572 
L 433.252409 -108.327734 
L 433.253878 -107.533896 
L 433.254713 -106.740058 
L 433.254532 -105.94622 
L 433.258485 -105.152382 
L 433.26018 -104.358544 
L 433.261007 -103.564706 
L 433.263021 -102.770868 
L 433.269191 -101.97703 
L 433.274147 -101.183191 
L 433.280285 -100.389353 
L 433.28515 -99.595515 
L 433.294115 -98.801677 
L 433.301243 -98.007839 
L 433.31462 -97.214001 
L 433.331959 -96.420163 
L 433.354256 -95.626325 
L 433.373693 -94.832487 
L 433.391159 -94.038649 
L 433.424151 -93.244811 
L 433.463642 -92.450973 
L 433.507454 -91.657135 
L 433.550669 -90.863297 
L 433.602974 -90.069458 
L 433.666696 -89.27562 
L 433.744028 -88.481782 
L 433.841568 -87.687944 
L 433.944199 -86.894106 
L 434.087112 -86.100268 
L 434.198036 -85.30643 
L 434.355032 -84.512592 
L 434.532103 -83.718754 
L 434.715734 -82.924916 
L 434.901633 -82.131078 
L 435.09822 -81.33724 
L 435.302136 -80.543402 
L 435.470695 -79.749564 
L 435.644309 -78.955725 
L 435.877314 -78.161887 
L 436.055403 -77.368049 
L 436.222466 -76.574211 
L 436.423847 -75.780373 
L 436.583214 -74.986535 
L 436.73605 -74.192697 
L 436.850873 -73.398859 
L 440.959199 -72.605021 
L 477.882187 -71.811183 
L 439.114916 -71.017345 
z
" style="stroke: #3f3f3f; stroke-width: 1.5"/>
    </defs>
    <g clip-path="url(#p3933103de1)">
     <use xlink:href="#m8f666b784c" x="0" y="194.158125" style="fill: #3274a1; stroke: #3f3f3f; stroke-width: 1.5"/>
    </g>
   </g>
   <g id="PolyCollection_5">
    <defs>
     <path id="m9779376608" d="M 544.84231 -31.290852 
L 544.842065 -31.290852 
L 544.841446 -32.450524 
L 544.84149 -33.610195 
L 544.841948 -34.769867 
L 544.841012 -35.929538 
L 544.840557 -37.08921 
L 544.841815 -38.248881 
L 544.842131 -39.408553 
L 544.841536 -40.568224 
L 544.83972 -41.727896 
L 544.838556 -42.887567 
L 544.838122 -44.047238 
L 544.837179 -45.20691 
L 544.834503 -46.366581 
L 544.825846 -47.526253 
L 544.816353 -48.685924 
L 544.809108 -49.845596 
L 544.788185 -51.005267 
L 544.760398 -52.164939 
L 544.724156 -53.32461 
L 544.660541 -54.484282 
L 544.583407 -55.643953 
L 544.500929 -56.803625 
L 544.374531 -57.963296 
L 544.227381 -59.122968 
L 544.060629 -60.282639 
L 543.764013 -61.442311 
L 543.343544 -62.601982 
L 542.937809 -63.761654 
L 542.537232 -64.921325 
L 542.105134 -66.080997 
L 541.573835 -67.240668 
L 541.042395 -68.400339 
L 540.562912 -69.560011 
L 540.166292 -70.719682 
L 540.030718 -71.879354 
L 540.089671 -73.039025 
L 540.330905 -74.198697 
L 540.648187 -75.358368 
L 541.00896 -76.51804 
L 541.472736 -77.677711 
L 541.951669 -78.837383 
L 542.398559 -79.997054 
L 542.773931 -81.156726 
L 543.138529 -82.316397 
L 543.505601 -83.476069 
L 543.826765 -84.63574 
L 544.107408 -85.795412 
L 544.308399 -86.955083 
L 544.443947 -88.114755 
L 544.564139 -89.274426 
L 544.635164 -90.434097 
L 544.685936 -91.593769 
L 544.73082 -92.75344 
L 544.760602 -93.913112 
L 544.780629 -95.072783 
L 544.802572 -96.232455 
L 544.819496 -97.392126 
L 544.824934 -98.551798 
L 544.82235 -99.711469 
L 544.823839 -100.871141 
L 544.831188 -102.030812 
L 544.834543 -103.190484 
L 544.836048 -104.350155 
L 544.837507 -105.509827 
L 544.836182 -106.669498 
L 544.836947 -107.82917 
L 544.840616 -108.988841 
L 544.840382 -110.148513 
L 544.839104 -111.308184 
L 544.840389 -112.467856 
L 544.839767 -113.627527 
L 544.839075 -114.787198 
L 544.841086 -115.94687 
L 544.841299 -117.106541 
L 544.841602 -118.266213 
L 544.842123 -119.425884 
L 544.842186 -120.585556 
L 544.842182 -121.745227 
L 544.84201 -122.904899 
L 544.841363 -124.06457 
L 544.84154 -125.224242 
L 544.84157 -126.383913 
L 544.841338 -127.543585 
L 544.841985 -128.703256 
L 544.842157 -129.862928 
L 544.841819 -131.022599 
L 544.84128 -132.182271 
L 544.841842 -133.341942 
L 544.842167 -134.501614 
L 544.842187 -135.661285 
L 544.842187 -136.820956 
L 544.842188 -137.980628 
L 544.842187 -139.140299 
L 544.842187 -140.299971 
L 544.842185 -141.459642 
L 544.842087 -142.619314 
L 544.841493 -143.778985 
L 544.841446 -144.938657 
L 544.842065 -146.098328 
L 544.84231 -146.098328 
L 544.84231 -146.098328 
L 544.842929 -144.938657 
L 544.842882 -143.778985 
L 544.842288 -142.619314 
L 544.84219 -141.459642 
L 544.842188 -140.299971 
L 544.842188 -139.140299 
L 544.842188 -137.980628 
L 544.842188 -136.820956 
L 544.842188 -135.661285 
L 544.842208 -134.501614 
L 544.842533 -133.341942 
L 544.843095 -132.182271 
L 544.842556 -131.022599 
L 544.842218 -129.862928 
L 544.84239 -128.703256 
L 544.843037 -127.543585 
L 544.842805 -126.383913 
L 544.842835 -125.224242 
L 544.843012 -124.06457 
L 544.842365 -122.904899 
L 544.842193 -121.745227 
L 544.842189 -120.585556 
L 544.842252 -119.425884 
L 544.842773 -118.266213 
L 544.843076 -117.106541 
L 544.843289 -115.94687 
L 544.8453 -114.787198 
L 544.844608 -113.627527 
L 544.843986 -112.467856 
L 544.845271 -111.308184 
L 544.843993 -110.148513 
L 544.843759 -108.988841 
L 544.847428 -107.82917 
L 544.848193 -106.669498 
L 544.846868 -105.509827 
L 544.848327 -104.350155 
L 544.849832 -103.190484 
L 544.853187 -102.030812 
L 544.860536 -100.871141 
L 544.862025 -99.711469 
L 544.859441 -98.551798 
L 544.864879 -97.392126 
L 544.881803 -96.232455 
L 544.903746 -95.072783 
L 544.923773 -93.913112 
L 544.953555 -92.75344 
L 544.998439 -91.593769 
L 545.049211 -90.434097 
L 545.120236 -89.274426 
L 545.240428 -88.114755 
L 545.375976 -86.955083 
L 545.576967 -85.795412 
L 545.85761 -84.63574 
L 546.178774 -83.476069 
L 546.545846 -82.316397 
L 546.910444 -81.156726 
L 547.285816 -79.997054 
L 547.732706 -78.837383 
L 548.211639 -77.677711 
L 548.675415 -76.51804 
L 549.036188 -75.358368 
L 549.35347 -74.198697 
L 549.594704 -73.039025 
L 549.653657 -71.879354 
L 549.518083 -70.719682 
L 549.121463 -69.560011 
L 548.64198 -68.400339 
L 548.11054 -67.240668 
L 547.579241 -66.080997 
L 547.147143 -64.921325 
L 546.746566 -63.761654 
L 546.340831 -62.601982 
L 545.920362 -61.442311 
L 545.623746 -60.282639 
L 545.456994 -59.122968 
L 545.309844 -57.963296 
L 545.183446 -56.803625 
L 545.100968 -55.643953 
L 545.023834 -54.484282 
L 544.960219 -53.32461 
L 544.923977 -52.164939 
L 544.89619 -51.005267 
L 544.875267 -49.845596 
L 544.868022 -48.685924 
L 544.858529 -47.526253 
L 544.849872 -46.366581 
L 544.847196 -45.20691 
L 544.846253 -44.047238 
L 544.845819 -42.887567 
L 544.844655 -41.727896 
L 544.842839 -40.568224 
L 544.842244 -39.408553 
L 544.84256 -38.248881 
L 544.843818 -37.08921 
L 544.843363 -35.929538 
L 544.842427 -34.769867 
L 544.842885 -33.610195 
L 544.842929 -32.450524 
L 544.84231 -31.290852 
z
" style="stroke: #3f3f3f; stroke-width: 1.5"/>
    </defs>
    <g clip-path="url(#p3933103de1)">
     <use xlink:href="#m9779376608" x="0" y="194.158125" style="fill: #3274a1; stroke: #3f3f3f; stroke-width: 1.5"/>
    </g>
   </g>
   <g id="matplotlib.axis_1">
    <g id="xtick_1">
     <g id="line2d_1">
      <defs>
       <path id="mea5a67050d" d="M 0 0 
L 0 3.5 
" style="stroke: #000000; stroke-width: 0.8"/>
      </defs>
      <g>
       <use xlink:href="#mea5a67050d" x="98.442188" y="170.28" style="stroke: #000000; stroke-width: 0.8"/>
      </g>
     </g>
     <g id="text_1">
      <!-- (1, relu) -->
      <g transform="translate(78.603906 184.878438)scale(0.1 -0.1)">
       <defs>
        <path id="DejaVuSans-28" d="M 1984 4856 
Q 1566 4138 1362 3434 
Q 1159 2731 1159 2009 
Q 1159 1288 1364 580 
Q 1569 -128 1984 -844 
L 1484 -844 
Q 1016 -109 783 600 
Q 550 1309 550 2009 
Q 550 2706 781 3412 
Q 1013 4119 1484 4856 
L 1984 4856 
z
" transform="scale(0.015625)"/>
        <path id="DejaVuSans-31" d="M 794 531 
L 1825 531 
L 1825 4091 
L 703 3866 
L 703 4441 
L 1819 4666 
L 2450 4666 
L 2450 531 
L 3481 531 
L 3481 0 
L 794 0 
L 794 531 
z
" transform="scale(0.015625)"/>
        <path id="DejaVuSans-2c" d="M 750 794 
L 1409 794 
L 1409 256 
L 897 -744 
L 494 -744 
L 750 256 
L 750 794 
z
" transform="scale(0.015625)"/>
        <path id="DejaVuSans-20" transform="scale(0.015625)"/>
        <path id="DejaVuSans-72" d="M 2631 2963 
Q 2534 3019 2420 3045 
Q 2306 3072 2169 3072 
Q 1681 3072 1420 2755 
Q 1159 2438 1159 1844 
L 1159 0 
L 581 0 
L 581 3500 
L 1159 3500 
L 1159 2956 
Q 1341 3275 1631 3429 
Q 1922 3584 2338 3584 
Q 2397 3584 2469 3576 
Q 2541 3569 2628 3553 
L 2631 2963 
z
" transform="scale(0.015625)"/>
        <path id="DejaVuSans-65" d="M 3597 1894 
L 3597 1613 
L 953 1613 
Q 991 1019 1311 708 
Q 1631 397 2203 397 
Q 2534 397 2845 478 
Q 3156 559 3463 722 
L 3463 178 
Q 3153 47 2828 -22 
Q 2503 -91 2169 -91 
Q 1331 -91 842 396 
Q 353 884 353 1716 
Q 353 2575 817 3079 
Q 1281 3584 2069 3584 
Q 2775 3584 3186 3129 
Q 3597 2675 3597 1894 
z
M 3022 2063 
Q 3016 2534 2758 2815 
Q 2500 3097 2075 3097 
Q 1594 3097 1305 2825 
Q 1016 2553 972 2059 
L 3022 2063 
z
" transform="scale(0.015625)"/>
        <path id="DejaVuSans-6c" d="M 603 4863 
L 1178 4863 
L 1178 0 
L 603 0 
L 603 4863 
z
" transform="scale(0.015625)"/>
        <path id="DejaVuSans-75" d="M 544 1381 
L 544 3500 
L 1119 3500 
L 1119 1403 
Q 1119 906 1312 657 
Q 1506 409 1894 409 
Q 2359 409 2629 706 
Q 2900 1003 2900 1516 
L 2900 3500 
L 3475 3500 
L 3475 0 
L 2900 0 
L 2900 538 
Q 2691 219 2414 64 
Q 2138 -91 1772 -91 
Q 1169 -91 856 284 
Q 544 659 544 1381 
z
M 1991 3584 
L 1991 3584 
z
" transform="scale(0.015625)"/>
        <path id="DejaVuSans-29" d="M 513 4856 
L 1013 4856 
Q 1481 4119 1714 3412 
Q 1947 2706 1947 2009 
Q 1947 1309 1714 600 
Q 1481 -109 1013 -844 
L 513 -844 
Q 928 -128 1133 580 
Q 1338 1288 1338 2009 
Q 1338 2731 1133 3434 
Q 928 4138 513 4856 
z
" transform="scale(0.015625)"/>
       </defs>
       <use xlink:href="#DejaVuSans-28"/>
       <use xlink:href="#DejaVuSans-31" x="39.013672"/>
       <use xlink:href="#DejaVuSans-2c" x="102.636719"/>
       <use xlink:href="#DejaVuSans-20" x="134.423828"/>
       <use xlink:href="#DejaVuSans-72" x="166.210938"/>
       <use xlink:href="#DejaVuSans-65" x="205.074219"/>
       <use xlink:href="#DejaVuSans-6c" x="266.597656"/>
       <use xlink:href="#DejaVuSans-75" x="294.380859"/>
       <use xlink:href="#DejaVuSans-29" x="357.759766"/>
      </g>
     </g>
    </g>
    <g id="xtick_2">
     <g id="line2d_2">
      <g>
       <use xlink:href="#mea5a67050d" x="210.042188" y="170.28" style="stroke: #000000; stroke-width: 0.8"/>
      </g>
     </g>
     <g id="text_2">
      <!-- (2, relu) -->
      <g transform="translate(190.203906 184.878438)scale(0.1 -0.1)">
       <defs>
        <path id="DejaVuSans-32" d="M 1228 531 
L 3431 531 
L 3431 0 
L 469 0 
L 469 531 
Q 828 903 1448 1529 
Q 2069 2156 2228 2338 
Q 2531 2678 2651 2914 
Q 2772 3150 2772 3378 
Q 2772 3750 2511 3984 
Q 2250 4219 1831 4219 
Q 1534 4219 1204 4116 
Q 875 4013 500 3803 
L 500 4441 
Q 881 4594 1212 4672 
Q 1544 4750 1819 4750 
Q 2544 4750 2975 4387 
Q 3406 4025 3406 3419 
Q 3406 3131 3298 2873 
Q 3191 2616 2906 2266 
Q 2828 2175 2409 1742 
Q 1991 1309 1228 531 
z
" transform="scale(0.015625)"/>
       </defs>
       <use xlink:href="#DejaVuSans-28"/>
       <use xlink:href="#DejaVuSans-32" x="39.013672"/>
       <use xlink:href="#DejaVuSans-2c" x="102.636719"/>
       <use xlink:href="#DejaVuSans-20" x="134.423828"/>
       <use xlink:href="#DejaVuSans-72" x="166.210938"/>
       <use xlink:href="#DejaVuSans-65" x="205.074219"/>
       <use xlink:href="#DejaVuSans-6c" x="266.597656"/>
       <use xlink:href="#DejaVuSans-75" x="294.380859"/>
       <use xlink:href="#DejaVuSans-29" x="357.759766"/>
      </g>
     </g>
    </g>
    <g id="xtick_3">
     <g id="line2d_3">
      <g>
       <use xlink:href="#mea5a67050d" x="321.642188" y="170.28" style="stroke: #000000; stroke-width: 0.8"/>
      </g>
     </g>
     <g id="text_3">
      <!-- (3, relu) -->
      <g transform="translate(301.803906 184.878438)scale(0.1 -0.1)">
       <defs>
        <path id="DejaVuSans-33" d="M 2597 2516 
Q 3050 2419 3304 2112 
Q 3559 1806 3559 1356 
Q 3559 666 3084 287 
Q 2609 -91 1734 -91 
Q 1441 -91 1130 -33 
Q 819 25 488 141 
L 488 750 
Q 750 597 1062 519 
Q 1375 441 1716 441 
Q 2309 441 2620 675 
Q 2931 909 2931 1356 
Q 2931 1769 2642 2001 
Q 2353 2234 1838 2234 
L 1294 2234 
L 1294 2753 
L 1863 2753 
Q 2328 2753 2575 2939 
Q 2822 3125 2822 3475 
Q 2822 3834 2567 4026 
Q 2313 4219 1838 4219 
Q 1578 4219 1281 4162 
Q 984 4106 628 3988 
L 628 4550 
Q 988 4650 1302 4700 
Q 1616 4750 1894 4750 
Q 2613 4750 3031 4423 
Q 3450 4097 3450 3541 
Q 3450 3153 3228 2886 
Q 3006 2619 2597 2516 
z
" transform="scale(0.015625)"/>
       </defs>
       <use xlink:href="#DejaVuSans-28"/>
       <use xlink:href="#DejaVuSans-33" x="39.013672"/>
       <use xlink:href="#DejaVuSans-2c" x="102.636719"/>
       <use xlink:href="#DejaVuSans-20" x="134.423828"/>
       <use xlink:href="#DejaVuSans-72" x="166.210938"/>
       <use xlink:href="#DejaVuSans-65" x="205.074219"/>
       <use xlink:href="#DejaVuSans-6c" x="266.597656"/>
       <use xlink:href="#DejaVuSans-75" x="294.380859"/>
       <use xlink:href="#DejaVuSans-29" x="357.759766"/>
      </g>
     </g>
    </g>
    <g id="xtick_4">
     <g id="line2d_4">
      <g>
       <use xlink:href="#mea5a67050d" x="433.242188" y="170.28" style="stroke: #000000; stroke-width: 0.8"/>
      </g>
     </g>
     <g id="text_4">
      <!-- (4, relu) -->
      <g transform="translate(413.403906 184.878438)scale(0.1 -0.1)">
       <defs>
        <path id="DejaVuSans-34" d="M 2419 4116 
L 825 1625 
L 2419 1625 
L 2419 4116 
z
M 2253 4666 
L 3047 4666 
L 3047 1625 
L 3713 1625 
L 3713 1100 
L 3047 1100 
L 3047 0 
L 2419 0 
L 2419 1100 
L 313 1100 
L 313 1709 
L 2253 4666 
z
" transform="scale(0.015625)"/>
       </defs>
       <use xlink:href="#DejaVuSans-28"/>
       <use xlink:href="#DejaVuSans-34" x="39.013672"/>
       <use xlink:href="#DejaVuSans-2c" x="102.636719"/>
       <use xlink:href="#DejaVuSans-20" x="134.423828"/>
       <use xlink:href="#DejaVuSans-72" x="166.210938"/>
       <use xlink:href="#DejaVuSans-65" x="205.074219"/>
       <use xlink:href="#DejaVuSans-6c" x="266.597656"/>
       <use xlink:href="#DejaVuSans-75" x="294.380859"/>
       <use xlink:href="#DejaVuSans-29" x="357.759766"/>
      </g>
     </g>
    </g>
    <g id="xtick_5">
     <g id="line2d_5">
      <g>
       <use xlink:href="#mea5a67050d" x="544.842188" y="170.28" style="stroke: #000000; stroke-width: 0.8"/>
      </g>
     </g>
     <g id="text_5">
      <!-- logits -->
      <g transform="translate(531.265625 184.878438)scale(0.1 -0.1)">
       <defs>
        <path id="DejaVuSans-6f" d="M 1959 3097 
Q 1497 3097 1228 2736 
Q 959 2375 959 1747 
Q 959 1119 1226 758 
Q 1494 397 1959 397 
Q 2419 397 2687 759 
Q 2956 1122 2956 1747 
Q 2956 2369 2687 2733 
Q 2419 3097 1959 3097 
z
M 1959 3584 
Q 2709 3584 3137 3096 
Q 3566 2609 3566 1747 
Q 3566 888 3137 398 
Q 2709 -91 1959 -91 
Q 1206 -91 779 398 
Q 353 888 353 1747 
Q 353 2609 779 3096 
Q 1206 3584 1959 3584 
z
" transform="scale(0.015625)"/>
        <path id="DejaVuSans-67" d="M 2906 1791 
Q 2906 2416 2648 2759 
Q 2391 3103 1925 3103 
Q 1463 3103 1205 2759 
Q 947 2416 947 1791 
Q 947 1169 1205 825 
Q 1463 481 1925 481 
Q 2391 481 2648 825 
Q 2906 1169 2906 1791 
z
M 3481 434 
Q 3481 -459 3084 -895 
Q 2688 -1331 1869 -1331 
Q 1566 -1331 1297 -1286 
Q 1028 -1241 775 -1147 
L 775 -588 
Q 1028 -725 1275 -790 
Q 1522 -856 1778 -856 
Q 2344 -856 2625 -561 
Q 2906 -266 2906 331 
L 2906 616 
Q 2728 306 2450 153 
Q 2172 0 1784 0 
Q 1141 0 747 490 
Q 353 981 353 1791 
Q 353 2603 747 3093 
Q 1141 3584 1784 3584 
Q 2172 3584 2450 3431 
Q 2728 3278 2906 2969 
L 2906 3500 
L 3481 3500 
L 3481 434 
z
" transform="scale(0.015625)"/>
        <path id="DejaVuSans-69" d="M 603 3500 
L 1178 3500 
L 1178 0 
L 603 0 
L 603 3500 
z
M 603 4863 
L 1178 4863 
L 1178 4134 
L 603 4134 
L 603 4863 
z
" transform="scale(0.015625)"/>
        <path id="DejaVuSans-74" d="M 1172 4494 
L 1172 3500 
L 2356 3500 
L 2356 3053 
L 1172 3053 
L 1172 1153 
Q 1172 725 1289 603 
Q 1406 481 1766 481 
L 2356 481 
L 2356 0 
L 1766 0 
Q 1100 0 847 248 
Q 594 497 594 1153 
L 594 3053 
L 172 3053 
L 172 3500 
L 594 3500 
L 594 4494 
L 1172 4494 
z
" transform="scale(0.015625)"/>
        <path id="DejaVuSans-73" d="M 2834 3397 
L 2834 2853 
Q 2591 2978 2328 3040 
Q 2066 3103 1784 3103 
Q 1356 3103 1142 2972 
Q 928 2841 928 2578 
Q 928 2378 1081 2264 
Q 1234 2150 1697 2047 
L 1894 2003 
Q 2506 1872 2764 1633 
Q 3022 1394 3022 966 
Q 3022 478 2636 193 
Q 2250 -91 1575 -91 
Q 1294 -91 989 -36 
Q 684 19 347 128 
L 347 722 
Q 666 556 975 473 
Q 1284 391 1588 391 
Q 1994 391 2212 530 
Q 2431 669 2431 922 
Q 2431 1156 2273 1281 
Q 2116 1406 1581 1522 
L 1381 1569 
Q 847 1681 609 1914 
Q 372 2147 372 2553 
Q 372 3047 722 3315 
Q 1072 3584 1716 3584 
Q 2034 3584 2315 3537 
Q 2597 3491 2834 3397 
z
" transform="scale(0.015625)"/>
       </defs>
       <use xlink:href="#DejaVuSans-6c"/>
       <use xlink:href="#DejaVuSans-6f" x="27.783203"/>
       <use xlink:href="#DejaVuSans-67" x="88.964844"/>
       <use xlink:href="#DejaVuSans-69" x="152.441406"/>
       <use xlink:href="#DejaVuSans-74" x="180.224609"/>
       <use xlink:href="#DejaVuSans-73" x="219.433594"/>
      </g>
     </g>
    </g>
   </g>
   <g id="matplotlib.axis_2">
    <g id="ytick_1">
     <g id="line2d_6">
      <defs>
       <path id="m8b7f2a4dad" d="M 0 0 
L -3.5 0 
" style="stroke: #000000; stroke-width: 0.8"/>
      </defs>
      <g>
       <use xlink:href="#m8b7f2a4dad" x="42.642188" y="150.114494" style="stroke: #000000; stroke-width: 0.8"/>
      </g>
     </g>
     <g id="text_6">
      <!-- −5 -->
      <g transform="translate(20.9 153.913712)scale(0.1 -0.1)">
       <defs>
        <path id="DejaVuSans-2212" d="M 678 2272 
L 4684 2272 
L 4684 1741 
L 678 1741 
L 678 2272 
z
" transform="scale(0.015625)"/>
        <path id="DejaVuSans-35" d="M 691 4666 
L 3169 4666 
L 3169 4134 
L 1269 4134 
L 1269 2991 
Q 1406 3038 1543 3061 
Q 1681 3084 1819 3084 
Q 2600 3084 3056 2656 
Q 3513 2228 3513 1497 
Q 3513 744 3044 326 
Q 2575 -91 1722 -91 
Q 1428 -91 1123 -41 
Q 819 9 494 109 
L 494 744 
Q 775 591 1075 516 
Q 1375 441 1709 441 
Q 2250 441 2565 725 
Q 2881 1009 2881 1497 
Q 2881 1984 2565 2268 
Q 2250 2553 1709 2553 
Q 1456 2553 1204 2497 
Q 953 2441 691 2322 
L 691 4666 
z
" transform="scale(0.015625)"/>
       </defs>
       <use xlink:href="#DejaVuSans-2212"/>
       <use xlink:href="#DejaVuSans-35" x="83.789062"/>
      </g>
     </g>
    </g>
    <g id="ytick_2">
     <g id="line2d_7">
      <g>
       <use xlink:href="#m8b7f2a4dad" x="42.642188" y="122.38044" style="stroke: #000000; stroke-width: 0.8"/>
      </g>
     </g>
     <g id="text_7">
      <!-- 0 -->
      <g transform="translate(29.279688 126.179659)scale(0.1 -0.1)">
       <defs>
        <path id="DejaVuSans-30" d="M 2034 4250 
Q 1547 4250 1301 3770 
Q 1056 3291 1056 2328 
Q 1056 1369 1301 889 
Q 1547 409 2034 409 
Q 2525 409 2770 889 
Q 3016 1369 3016 2328 
Q 3016 3291 2770 3770 
Q 2525 4250 2034 4250 
z
M 2034 4750 
Q 2819 4750 3233 4129 
Q 3647 3509 3647 2328 
Q 3647 1150 3233 529 
Q 2819 -91 2034 -91 
Q 1250 -91 836 529 
Q 422 1150 422 2328 
Q 422 3509 836 4129 
Q 1250 4750 2034 4750 
z
" transform="scale(0.015625)"/>
       </defs>
       <use xlink:href="#DejaVuSans-30"/>
      </g>
     </g>
    </g>
    <g id="ytick_3">
     <g id="line2d_8">
      <g>
       <use xlink:href="#m8b7f2a4dad" x="42.642188" y="94.646386" style="stroke: #000000; stroke-width: 0.8"/>
      </g>
     </g>
     <g id="text_8">
      <!-- 5 -->
      <g transform="translate(29.279688 98.445605)scale(0.1 -0.1)">
       <use xlink:href="#DejaVuSans-35"/>
      </g>
     </g>
    </g>
    <g id="ytick_4">
     <g id="line2d_9">
      <g>
       <use xlink:href="#m8b7f2a4dad" x="42.642188" y="66.912332" style="stroke: #000000; stroke-width: 0.8"/>
      </g>
     </g>
     <g id="text_9">
      <!-- 10 -->
      <g transform="translate(22.917188 70.711551)scale(0.1 -0.1)">
       <use xlink:href="#DejaVuSans-31"/>
       <use xlink:href="#DejaVuSans-30" x="63.623047"/>
      </g>
     </g>
    </g>
    <g id="ytick_5">
     <g id="line2d_10">
      <g>
       <use xlink:href="#m8b7f2a4dad" x="42.642188" y="39.178278" style="stroke: #000000; stroke-width: 0.8"/>
      </g>
     </g>
     <g id="text_10">
      <!-- 15 -->
      <g transform="translate(22.917188 42.977497)scale(0.1 -0.1)">
       <use xlink:href="#DejaVuSans-31"/>
       <use xlink:href="#DejaVuSans-35" x="63.623047"/>
      </g>
     </g>
    </g>
    <g id="ytick_6">
     <g id="line2d_11">
      <g>
       <use xlink:href="#m8b7f2a4dad" x="42.642188" y="11.444224" style="stroke: #000000; stroke-width: 0.8"/>
      </g>
     </g>
     <g id="text_11">
      <!-- 20 -->
      <g transform="translate(22.917188 15.243443)scale(0.1 -0.1)">
       <use xlink:href="#DejaVuSans-32"/>
       <use xlink:href="#DejaVuSans-30" x="63.623047"/>
      </g>
     </g>
    </g>
    <g id="text_12">
     <!-- ${\phi}$ -->
     <g transform="translate(14.8 92.04)rotate(-90)scale(0.1 -0.1)">
      <defs>
       <path id="DejaVuSans-Oblique-3d5" d="M 2991 4863 
L 2738 3572 
Q 3363 3572 3684 3094 
Q 4016 2606 3850 1747 
Q 3681 888 3159 400 
Q 2653 -78 2028 -78 
L 1784 -1331 
L 1213 -1331 
L 1456 -78 
Q 834 -78 509 400 
Q 178 888 347 1747 
Q 513 2606 1034 3094 
Q 1544 3572 2166 3572 
L 2419 4863 
L 2991 4863 
z
M 2128 434 
Q 2481 434 2784 756 
Q 3116 1116 3244 1747 
Q 3369 2372 3169 2738 
Q 2991 3059 2638 3059 
L 2128 434 
z
M 1556 434 
L 2066 3059 
Q 1716 3059 1413 2738 
Q 1072 2372 953 1747 
Q 834 1116 1028 756 
Q 1203 434 1556 434 
z
" transform="scale(0.015625)"/>
      </defs>
      <use xlink:href="#DejaVuSans-Oblique-3d5" transform="translate(0 0.015625)"/>
     </g>
    </g>
   </g>
   <g id="line2d_12">
    <path d="M 98.442188 122.38044 
L 98.442188 110.31331 
" clip-path="url(#p3933103de1)" style="fill: none; stroke: #3f3f3f; stroke-width: 1.5; stroke-linecap: square"/>
   </g>
   <g id="line2d_13">
    <path d="M 98.442188 122.38044 
L 98.442188 117.553556 
" clip-path="url(#p3933103de1)" style="fill: none; stroke: #3f3f3f; stroke-width: 4.5; stroke-linecap: square"/>
   </g>
   <g id="line2d_14">
    <path d="M 210.042188 122.38044 
L 210.042188 109.342251 
" clip-path="url(#p3933103de1)" style="fill: none; stroke: #3f3f3f; stroke-width: 1.5; stroke-linecap: square"/>
   </g>
   <g id="line2d_15">
    <path d="M 210.042188 122.38044 
L 210.042188 117.165147 
" clip-path="url(#p3933103de1)" style="fill: none; stroke: #3f3f3f; stroke-width: 4.5; stroke-linecap: square"/>
   </g>
   <g id="line2d_16">
    <path d="M 321.642188 122.38044 
L 321.642188 110.204262 
" clip-path="url(#p3933103de1)" style="fill: none; stroke: #3f3f3f; stroke-width: 1.5; stroke-linecap: square"/>
   </g>
   <g id="line2d_17">
    <path d="M 321.642188 122.38044 
L 321.642188 117.509863 
" clip-path="url(#p3933103de1)" style="fill: none; stroke: #3f3f3f; stroke-width: 4.5; stroke-linecap: square"/>
   </g>
   <g id="line2d_18">
    <path d="M 433.242188 122.38044 
L 433.242188 108.731598 
" clip-path="url(#p3933103de1)" style="fill: none; stroke: #3f3f3f; stroke-width: 1.5; stroke-linecap: square"/>
   </g>
   <g id="line2d_19">
    <path d="M 433.242188 122.38044 
L 433.242188 116.920873 
" clip-path="url(#p3933103de1)" style="fill: none; stroke: #3f3f3f; stroke-width: 4.5; stroke-linecap: square"/>
   </g>
   <g id="line2d_20">
    <path d="M 544.842188 139.342055 
L 544.842188 103.494371 
" clip-path="url(#p3933103de1)" style="fill: none; stroke: #3f3f3f; stroke-width: 1.5; stroke-linecap: square"/>
   </g>
   <g id="line2d_21">
    <path d="M 544.842188 125.89939 
L 544.842188 116.935963 
" clip-path="url(#p3933103de1)" style="fill: none; stroke: #3f3f3f; stroke-width: 4.5; stroke-linecap: square"/>
   </g>
   <g id="patch_3">
    <path d="M 42.642188 170.28 
L 42.642188 7.2 
" style="fill: none; stroke: #000000; stroke-width: 0.8; stroke-linejoin: miter; stroke-linecap: square"/>
   </g>
   <g id="patch_4">
    <path d="M 600.642187 170.28 
L 600.642187 7.2 
" style="fill: none; stroke: #000000; stroke-width: 0.8; stroke-linejoin: miter; stroke-linecap: square"/>
   </g>
   <g id="patch_5">
    <path d="M 42.642188 170.28 
L 600.642188 170.28 
" style="fill: none; stroke: #000000; stroke-width: 0.8; stroke-linejoin: miter; stroke-linecap: square"/>
   </g>
   <g id="patch_6">
    <path d="M 42.642188 7.2 
L 600.642188 7.2 
" style="fill: none; stroke: #000000; stroke-width: 0.8; stroke-linejoin: miter; stroke-linecap: square"/>
   </g>
   <g id="PathCollection_1">
    <defs>
     <path id="m7df093b28f" d="M 0 1.5 
C 0.397805 1.5 0.77937 1.341951 1.06066 1.06066 
C 1.341951 0.77937 1.5 0.397805 1.5 0 
C 1.5 -0.397805 1.341951 -0.77937 1.06066 -1.06066 
C 0.77937 -1.341951 0.397805 -1.5 0 -1.5 
C -0.397805 -1.5 -0.77937 -1.341951 -1.06066 -1.06066 
C -1.341951 -0.77937 -1.5 -0.397805 -1.5 0 
C -1.5 0.397805 -1.341951 0.77937 -1.06066 1.06066 
C -0.77937 1.341951 -0.397805 1.5 0 1.5 
z
" style="stroke: #3f3f3f"/>
    </defs>
    <g clip-path="url(#p3933103de1)">
     <use xlink:href="#m7df093b28f" x="98.442188" y="122.355832" style="fill: #ffffff; stroke: #3f3f3f"/>
    </g>
   </g>
   <g id="PathCollection_2">
    <g clip-path="url(#p3933103de1)">
     <use xlink:href="#m7df093b28f" x="210.042188" y="122.082532" style="fill: #ffffff; stroke: #3f3f3f"/>
    </g>
   </g>
   <g id="PathCollection_3">
    <g clip-path="url(#p3933103de1)">
     <use xlink:href="#m7df093b28f" x="321.642188" y="122.38044" style="fill: #ffffff; stroke: #3f3f3f"/>
    </g>
   </g>
   <g id="PathCollection_4">
    <g clip-path="url(#p3933103de1)">
     <use xlink:href="#m7df093b28f" x="433.242188" y="122.38044" style="fill: #ffffff; stroke: #3f3f3f"/>
    </g>
   </g>
   <g id="PathCollection_5">
    <g clip-path="url(#p3933103de1)">
     <use xlink:href="#m7df093b28f" x="544.842188" y="121.514604" style="fill: #ffffff; stroke: #3f3f3f"/>
    </g>
   </g>
  </g>
 </g>
 <defs>
  <clipPath id="p3933103de1">
   <rect x="42.642188" y="7.2" width="558" height="163.08"/>
  </clipPath>
 </defs>
</svg>
