<?xml version="1.0" encoding="utf-8" standalone="no"?>
<!DOCTYPE svg PUBLIC "-//W3C//DTD SVG 1.1//EN"
  "http://www.w3.org/Graphics/SVG/1.1/DTD/svg11.dtd">
<svg xmlns:xlink="http://www.w3.org/1999/xlink" width="607.842188pt" height="204.756563pt" viewBox="0 0 607.842188 204.756563" xmlns="http://www.w3.org/2000/svg" version="1.1">
 <metadata>
  <rdf:RDF xmlns:dc="http://purl.org/dc/elements/1.1/" xmlns:cc="http://creativecommons.org/ns#" xmlns:rdf="http://www.w3.org/1999/02/22-rdf-syntax-ns#">
   <cc:Work>
    <dc:type rdf:resource="http://purl.org/dc/dcmitype/StillImage"/>
    <dc:date>2022-07-08T21:37:56.507833</dc:date>
    <dc:format>image/svg+xml</dc:format>
    <dc:creator>
     <cc:Agent>
      <dc:title>Matplotlib v3.5.1, https://matplotlib.org/</dc:title>
     </cc:Agent>
    </dc:creator>
   </cc:Work>
  </rdf:RDF>
 </metadata>
 <defs>
  <style type="text/css">*{stroke-linejoin: round; stroke-linecap: butt}</style>
 </defs>
 <g id="figure_1">
  <g id="patch_1">
   <path d="M 0 204.756563 
L 607.842188 204.756563 
L 607.842188 0 
L 0 0 
L 0 204.756563 
z
" style="fill: none"/>
  </g>
  <g id="axes_1">
   <g id="patch_2">
    <path d="M 42.642188 180.878437 
L 600.642187 180.878437 
L 600.642187 17.798437 
L 42.642188 17.798437 
z
" style="fill: #ffffff"/>
   </g>
   <g id="PolyCollection_1">
    <defs>
     <path id="mffcbeabe94" d="M 98.442236 -100.448839 
L 98.442139 -100.448839 
L 98.442182 -100.44892 
L 98.442188 -100.449001 
L 98.442188 -100.449082 
L 98.442188 -100.449163 
L 98.442188 -100.449244 
L 98.442188 -100.449325 
L 98.442188 -100.449406 
L 98.442188 -100.449487 
L 98.442187 -100.449568 
L 98.441885 -100.449649 
L 98.442098 -100.44973 
L 98.441836 -100.449811 
L 98.442187 -100.449892 
L 98.442188 -100.449974 
L 98.442188 -100.450055 
L 98.442188 -100.450136 
L 98.442188 -100.450217 
L 98.442188 -100.450298 
L 98.442187 -100.450379 
L 98.441804 -100.45046 
L 98.442184 -100.450541 
L 98.441576 -100.450622 
L 98.441575 -100.450703 
L 98.440655 -100.450784 
L 98.440219 -100.450865 
L 98.44011 -100.450946 
L 98.440278 -100.451027 
L 98.439784 -100.451108 
L 98.438969 -100.451189 
L 98.438864 -100.45127 
L 98.437078 -100.451351 
L 98.437818 -100.451432 
L 98.434259 -100.451513 
L 98.43038 -100.451594 
L 98.426949 -100.451675 
L 98.418957 -100.451756 
L 98.416958 -100.451837 
L 98.401083 -100.451919 
L 98.392548 -100.452 
L 98.374178 -100.452081 
L 98.349032 -100.452162 
L 98.281102 -100.452243 
L 98.228442 -100.452324 
L 98.09367 -100.452405 
L 97.894218 -100.452486 
L 97.568971 -100.452567 
L 96.976343 -100.452648 
L 96.015283 -100.452729 
L 94.35448 -100.45281 
L 91.838596 -100.452891 
L 87.933873 -100.452972 
L 82.224666 -100.453053 
L 74.825788 -100.453134 
L 66.529473 -100.453215 
L 58.694248 -100.453296 
L 54.157372 -100.453377 
L 53.802188 -100.453458 
L 57.669685 -100.453539 
L 64.20962 -100.45362 
L 72.067457 -100.453701 
L 79.504334 -100.453782 
L 85.497508 -100.453863 
L 90.185513 -100.453945 
L 93.363571 -100.454026 
L 95.3101 -100.454107 
L 96.591024 -100.454188 
L 97.363136 -100.454269 
L 97.811996 -100.45435 
L 98.064904 -100.454431 
L 98.206381 -100.454512 
L 98.29683 -100.454593 
L 98.348703 -100.454674 
L 98.377725 -100.454755 
L 98.399675 -100.454836 
L 98.408816 -100.454917 
L 98.420814 -100.454998 
L 98.424323 -100.455079 
L 98.429875 -100.45516 
L 98.437008 -100.455241 
L 98.43273 -100.455322 
L 98.437498 -100.455403 
L 98.439047 -100.455484 
L 98.440544 -100.455565 
L 98.439698 -100.455646 
L 98.438985 -100.455727 
L 98.438527 -100.455808 
L 98.439845 -100.45589 
L 98.439868 -100.455971 
L 98.441065 -100.456052 
L 98.441243 -100.456133 
L 98.44163 -100.456214 
L 98.442054 -100.456295 
L 98.441843 -100.456376 
L 98.441841 -100.456457 
L 98.441783 -100.456538 
L 98.441457 -100.456619 
L 98.441882 -100.4567 
L 98.44197 -100.456781 
L 98.442139 -100.456862 
L 98.442236 -100.456862 
L 98.442236 -100.456862 
L 98.442405 -100.456781 
L 98.442493 -100.4567 
L 98.442918 -100.456619 
L 98.442592 -100.456538 
L 98.442534 -100.456457 
L 98.442532 -100.456376 
L 98.442321 -100.456295 
L 98.442745 -100.456214 
L 98.443132 -100.456133 
L 98.44331 -100.456052 
L 98.444507 -100.455971 
L 98.44453 -100.45589 
L 98.445848 -100.455808 
L 98.44539 -100.455727 
L 98.444677 -100.455646 
L 98.443831 -100.455565 
L 98.445328 -100.455484 
L 98.446877 -100.455403 
L 98.451645 -100.455322 
L 98.447367 -100.455241 
L 98.4545 -100.45516 
L 98.460052 -100.455079 
L 98.463561 -100.454998 
L 98.475559 -100.454917 
L 98.4847 -100.454836 
L 98.50665 -100.454755 
L 98.535672 -100.454674 
L 98.587545 -100.454593 
L 98.677994 -100.454512 
L 98.819471 -100.454431 
L 99.072379 -100.45435 
L 99.521239 -100.454269 
L 100.293351 -100.454188 
L 101.574275 -100.454107 
L 103.520804 -100.454026 
L 106.698862 -100.453945 
L 111.386867 -100.453863 
L 117.380041 -100.453782 
L 124.816918 -100.453701 
L 132.674755 -100.45362 
L 139.21469 -100.453539 
L 143.082188 -100.453458 
L 142.727003 -100.453377 
L 138.190127 -100.453296 
L 130.354902 -100.453215 
L 122.058587 -100.453134 
L 114.659709 -100.453053 
L 108.950502 -100.452972 
L 105.045779 -100.452891 
L 102.529895 -100.45281 
L 100.869092 -100.452729 
L 99.908032 -100.452648 
L 99.315404 -100.452567 
L 98.990157 -100.452486 
L 98.790705 -100.452405 
L 98.655933 -100.452324 
L 98.603273 -100.452243 
L 98.535343 -100.452162 
L 98.510197 -100.452081 
L 98.491827 -100.452 
L 98.483292 -100.451919 
L 98.467417 -100.451837 
L 98.465418 -100.451756 
L 98.457426 -100.451675 
L 98.453995 -100.451594 
L 98.450116 -100.451513 
L 98.446557 -100.451432 
L 98.447297 -100.451351 
L 98.445511 -100.45127 
L 98.445406 -100.451189 
L 98.444591 -100.451108 
L 98.444097 -100.451027 
L 98.444265 -100.450946 
L 98.444156 -100.450865 
L 98.44372 -100.450784 
L 98.4428 -100.450703 
L 98.442799 -100.450622 
L 98.442191 -100.450541 
L 98.442571 -100.45046 
L 98.442188 -100.450379 
L 98.442188 -100.450298 
L 98.442188 -100.450217 
L 98.442188 -100.450136 
L 98.442188 -100.450055 
L 98.442188 -100.449974 
L 98.442188 -100.449892 
L 98.442539 -100.449811 
L 98.442277 -100.44973 
L 98.44249 -100.449649 
L 98.442188 -100.449568 
L 98.442188 -100.449487 
L 98.442188 -100.449406 
L 98.442188 -100.449325 
L 98.442188 -100.449244 
L 98.442188 -100.449163 
L 98.442188 -100.449082 
L 98.442188 -100.449001 
L 98.442193 -100.44892 
L 98.442236 -100.448839 
z
" style="stroke: #3f3f3f; stroke-width: 1.5"/>
    </defs>
    <g clip-path="url(#p2afb01f04f)">
     <use xlink:href="#mffcbeabe94" x="0" y="204.756563" style="fill: #3274a1; stroke: #3f3f3f; stroke-width: 1.5"/>
    </g>
   </g>
   <g id="PolyCollection_2">
    <defs>
     <path id="m02715fcd8c" d="M 210.042193 -100.386604 
L 210.042182 -100.386604 
L 210.042158 -100.387914 
L 210.042187 -100.389225 
L 210.042188 -100.390535 
L 210.042188 -100.391845 
L 210.042188 -100.393155 
L 210.042188 -100.394465 
L 210.042188 -100.395775 
L 210.042188 -100.397085 
L 210.042187 -100.398395 
L 210.042166 -100.399705 
L 210.042174 -100.401015 
L 210.042148 -100.402325 
L 210.042158 -100.403635 
L 210.042187 -100.404945 
L 210.042167 -100.406255 
L 210.042123 -100.407565 
L 210.042116 -100.408875 
L 210.042125 -100.410185 
L 210.042067 -100.411495 
L 210.042073 -100.412805 
L 210.042076 -100.414115 
L 210.042008 -100.415426 
L 210.041975 -100.416736 
L 210.041964 -100.418046 
L 210.04175 -100.419356 
L 210.041663 -100.420666 
L 210.041444 -100.421976 
L 210.041483 -100.423286 
L 210.041037 -100.424596 
L 210.039997 -100.425906 
L 210.039933 -100.427216 
L 210.038793 -100.428526 
L 210.037861 -100.429836 
L 210.03557 -100.431146 
L 210.033858 -100.432456 
L 210.027367 -100.433766 
L 210.022548 -100.435076 
L 210.01093 -100.436386 
L 209.994921 -100.437696 
L 209.966198 -100.439006 
L 209.922872 -100.440316 
L 209.852066 -100.441627 
L 209.746831 -100.442937 
L 209.591094 -100.444247 
L 209.370713 -100.445557 
L 209.06647 -100.446867 
L 208.697615 -100.448177 
L 208.26684 -100.449487 
L 207.897527 -100.450797 
L 207.636672 -100.452107 
L 207.571389 -100.453417 
L 207.671705 -100.454727 
L 207.927342 -100.456037 
L 208.290598 -100.457347 
L 208.672106 -100.458657 
L 209.046077 -100.459967 
L 209.355634 -100.461277 
L 209.579731 -100.462587 
L 209.742666 -100.463897 
L 209.850455 -100.465207 
L 209.921412 -100.466517 
L 209.96381 -100.467828 
L 209.994937 -100.469138 
L 210.011647 -100.470448 
L 210.022948 -100.471758 
L 210.028911 -100.473068 
L 210.033119 -100.474378 
L 210.035569 -100.475688 
L 210.037584 -100.476998 
L 210.039025 -100.478308 
L 210.03983 -100.479618 
L 210.040378 -100.480928 
L 210.040576 -100.482238 
L 210.041094 -100.483548 
L 210.041256 -100.484858 
L 210.041467 -100.486168 
L 210.041681 -100.487478 
L 210.041694 -100.488788 
L 210.041774 -100.490098 
L 210.041812 -100.491408 
L 210.041859 -100.492718 
L 210.041899 -100.494029 
L 210.041937 -100.495339 
L 210.042035 -100.496649 
L 210.042104 -100.497959 
L 210.042128 -100.499269 
L 210.042033 -100.500579 
L 210.042074 -100.501889 
L 210.042151 -100.503199 
L 210.042167 -100.504509 
L 210.042132 -100.505819 
L 210.042184 -100.507129 
L 210.042183 -100.508439 
L 210.042178 -100.509749 
L 210.042178 -100.511059 
L 210.042187 -100.512369 
L 210.042187 -100.513679 
L 210.042121 -100.514989 
L 210.042183 -100.516299 
L 210.042192 -100.516299 
L 210.042192 -100.516299 
L 210.042254 -100.514989 
L 210.042188 -100.513679 
L 210.042188 -100.512369 
L 210.042197 -100.511059 
L 210.042197 -100.509749 
L 210.042192 -100.508439 
L 210.042191 -100.507129 
L 210.042243 -100.505819 
L 210.042208 -100.504509 
L 210.042224 -100.503199 
L 210.042301 -100.501889 
L 210.042342 -100.500579 
L 210.042247 -100.499269 
L 210.042271 -100.497959 
L 210.04234 -100.496649 
L 210.042438 -100.495339 
L 210.042476 -100.494029 
L 210.042516 -100.492718 
L 210.042563 -100.491408 
L 210.042601 -100.490098 
L 210.042681 -100.488788 
L 210.042694 -100.487478 
L 210.042908 -100.486168 
L 210.043119 -100.484858 
L 210.043281 -100.483548 
L 210.043799 -100.482238 
L 210.043997 -100.480928 
L 210.044545 -100.479618 
L 210.04535 -100.478308 
L 210.046791 -100.476998 
L 210.048806 -100.475688 
L 210.051256 -100.474378 
L 210.055464 -100.473068 
L 210.061427 -100.471758 
L 210.072728 -100.470448 
L 210.089438 -100.469138 
L 210.120565 -100.467828 
L 210.162963 -100.466517 
L 210.23392 -100.465207 
L 210.341709 -100.463897 
L 210.504644 -100.462587 
L 210.728741 -100.461277 
L 211.038298 -100.459967 
L 211.412269 -100.458657 
L 211.793777 -100.457347 
L 212.157033 -100.456037 
L 212.41267 -100.454727 
L 212.512986 -100.453417 
L 212.447703 -100.452107 
L 212.186848 -100.450797 
L 211.817535 -100.449487 
L 211.38676 -100.448177 
L 211.017905 -100.446867 
L 210.713662 -100.445557 
L 210.493281 -100.444247 
L 210.337544 -100.442937 
L 210.232309 -100.441627 
L 210.161503 -100.440316 
L 210.118177 -100.439006 
L 210.089454 -100.437696 
L 210.073445 -100.436386 
L 210.061827 -100.435076 
L 210.057008 -100.433766 
L 210.050517 -100.432456 
L 210.048805 -100.431146 
L 210.046514 -100.429836 
L 210.045582 -100.428526 
L 210.044442 -100.427216 
L 210.044378 -100.425906 
L 210.043338 -100.424596 
L 210.042892 -100.423286 
L 210.042931 -100.421976 
L 210.042712 -100.420666 
L 210.042625 -100.419356 
L 210.042411 -100.418046 
L 210.0424 -100.416736 
L 210.042367 -100.415426 
L 210.042299 -100.414115 
L 210.042302 -100.412805 
L 210.042308 -100.411495 
L 210.04225 -100.410185 
L 210.042259 -100.408875 
L 210.042252 -100.407565 
L 210.042208 -100.406255 
L 210.042188 -100.404945 
L 210.042217 -100.403635 
L 210.042227 -100.402325 
L 210.042201 -100.401015 
L 210.042209 -100.399705 
L 210.042188 -100.398395 
L 210.042188 -100.397085 
L 210.042188 -100.395775 
L 210.042188 -100.394465 
L 210.042188 -100.393155 
L 210.042188 -100.391845 
L 210.042188 -100.390535 
L 210.042188 -100.389225 
L 210.042217 -100.387914 
L 210.042193 -100.386604 
z
" style="stroke: #3f3f3f; stroke-width: 1.5"/>
    </defs>
    <g clip-path="url(#p2afb01f04f)">
     <use xlink:href="#m02715fcd8c" x="0" y="204.756563" style="fill: #3274a1; stroke: #3f3f3f; stroke-width: 1.5"/>
    </g>
   </g>
   <g id="PolyCollection_3">
    <defs>
     <path id="me5ee8784ef" d="M 321.642188 -99.542494 
L 321.642187 -99.542494 
L 321.642187 -99.560534 
L 321.642188 -99.578574 
L 321.642188 -99.596614 
L 321.642188 -99.614654 
L 321.642188 -99.632693 
L 321.642188 -99.650733 
L 321.642188 -99.668773 
L 321.642188 -99.686813 
L 321.642187 -99.704853 
L 321.64218 -99.722893 
L 321.642183 -99.740933 
L 321.642187 -99.758973 
L 321.642187 -99.777013 
L 321.642186 -99.795053 
L 321.642184 -99.813093 
L 321.642187 -99.831133 
L 321.642181 -99.849173 
L 321.642185 -99.867213 
L 321.642179 -99.885253 
L 321.64218 -99.903293 
L 321.642178 -99.921333 
L 321.64217 -99.939372 
L 321.642165 -99.957412 
L 321.642173 -99.975452 
L 321.642157 -99.993492 
L 321.642147 -100.011532 
L 321.64215 -100.029572 
L 321.642123 -100.047612 
L 321.642113 -100.065652 
L 321.64209 -100.083692 
L 321.642052 -100.101732 
L 321.641996 -100.119772 
L 321.641884 -100.137812 
L 321.6418 -100.155852 
L 321.641623 -100.173892 
L 321.641296 -100.191932 
L 321.640828 -100.209972 
L 321.640005 -100.228012 
L 321.638913 -100.246052 
L 321.636945 -100.264091 
L 321.634027 -100.282131 
L 321.629003 -100.300171 
L 321.620086 -100.318211 
L 321.606513 -100.336251 
L 321.586082 -100.354291 
L 321.560229 -100.372331 
L 321.528143 -100.390371 
L 321.495687 -100.408411 
L 321.466874 -100.426451 
L 321.451353 -100.444491 
L 321.452113 -100.462531 
L 321.467855 -100.480571 
L 321.496899 -100.498611 
L 321.528134 -100.516651 
L 321.55947 -100.534691 
L 321.585379 -100.552731 
L 321.605545 -100.57077 
L 321.619694 -100.58881 
L 321.628435 -100.60685 
L 321.6339 -100.62489 
L 321.637195 -100.64293 
L 321.639162 -100.66097 
L 321.640364 -100.67901 
L 321.641041 -100.69705 
L 321.641457 -100.71509 
L 321.641693 -100.73313 
L 321.641833 -100.75117 
L 321.641922 -100.76921 
L 321.642022 -100.78725 
L 321.642049 -100.80529 
L 321.64208 -100.82333 
L 321.642096 -100.84137 
L 321.642137 -100.85941 
L 321.642145 -100.877449 
L 321.642131 -100.895489 
L 321.642162 -100.913529 
L 321.642172 -100.931569 
L 321.642166 -100.949609 
L 321.642175 -100.967649 
L 321.642175 -100.985689 
L 321.642176 -101.003729 
L 321.642183 -101.021769 
L 321.642182 -101.039809 
L 321.642185 -101.057849 
L 321.642182 -101.075889 
L 321.642184 -101.093929 
L 321.642187 -101.111969 
L 321.642184 -101.130009 
L 321.642187 -101.148049 
L 321.642188 -101.166089 
L 321.642188 -101.184129 
L 321.642188 -101.202168 
L 321.642187 -101.220208 
L 321.642187 -101.238248 
L 321.642187 -101.256288 
L 321.642188 -101.274328 
L 321.642188 -101.292368 
L 321.642187 -101.310408 
L 321.642187 -101.328448 
L 321.642188 -101.328448 
L 321.642188 -101.328448 
L 321.642188 -101.310408 
L 321.642188 -101.292368 
L 321.642188 -101.274328 
L 321.642188 -101.256288 
L 321.642188 -101.238248 
L 321.642188 -101.220208 
L 321.642188 -101.202168 
L 321.642188 -101.184129 
L 321.642188 -101.166089 
L 321.642188 -101.148049 
L 321.642191 -101.130009 
L 321.642188 -101.111969 
L 321.642191 -101.093929 
L 321.642193 -101.075889 
L 321.64219 -101.057849 
L 321.642193 -101.039809 
L 321.642192 -101.021769 
L 321.642199 -101.003729 
L 321.6422 -100.985689 
L 321.6422 -100.967649 
L 321.642209 -100.949609 
L 321.642203 -100.931569 
L 321.642213 -100.913529 
L 321.642244 -100.895489 
L 321.64223 -100.877449 
L 321.642238 -100.85941 
L 321.642279 -100.84137 
L 321.642295 -100.82333 
L 321.642326 -100.80529 
L 321.642353 -100.78725 
L 321.642453 -100.76921 
L 321.642542 -100.75117 
L 321.642682 -100.73313 
L 321.642918 -100.71509 
L 321.643334 -100.69705 
L 321.644011 -100.67901 
L 321.645213 -100.66097 
L 321.64718 -100.64293 
L 321.650475 -100.62489 
L 321.65594 -100.60685 
L 321.664681 -100.58881 
L 321.67883 -100.57077 
L 321.698996 -100.552731 
L 321.724905 -100.534691 
L 321.756241 -100.516651 
L 321.787476 -100.498611 
L 321.81652 -100.480571 
L 321.832262 -100.462531 
L 321.833022 -100.444491 
L 321.817501 -100.426451 
L 321.788688 -100.408411 
L 321.756232 -100.390371 
L 321.724146 -100.372331 
L 321.698293 -100.354291 
L 321.677862 -100.336251 
L 321.664289 -100.318211 
L 321.655372 -100.300171 
L 321.650348 -100.282131 
L 321.64743 -100.264091 
L 321.645462 -100.246052 
L 321.64437 -100.228012 
L 321.643547 -100.209972 
L 321.643079 -100.191932 
L 321.642752 -100.173892 
L 321.642575 -100.155852 
L 321.642491 -100.137812 
L 321.642379 -100.119772 
L 321.642323 -100.101732 
L 321.642285 -100.083692 
L 321.642262 -100.065652 
L 321.642252 -100.047612 
L 321.642225 -100.029572 
L 321.642228 -100.011532 
L 321.642218 -99.993492 
L 321.642202 -99.975452 
L 321.64221 -99.957412 
L 321.642205 -99.939372 
L 321.642197 -99.921333 
L 321.642195 -99.903293 
L 321.642196 -99.885253 
L 321.64219 -99.867213 
L 321.642194 -99.849173 
L 321.642188 -99.831133 
L 321.642191 -99.813093 
L 321.642189 -99.795053 
L 321.642188 -99.777013 
L 321.642188 -99.758973 
L 321.642192 -99.740933 
L 321.642195 -99.722893 
L 321.642188 -99.704853 
L 321.642188 -99.686813 
L 321.642188 -99.668773 
L 321.642188 -99.650733 
L 321.642188 -99.632693 
L 321.642188 -99.614654 
L 321.642188 -99.596614 
L 321.642188 -99.578574 
L 321.642188 -99.560534 
L 321.642188 -99.542494 
z
" style="stroke: #3f3f3f; stroke-width: 1.5"/>
    </defs>
    <g clip-path="url(#p2afb01f04f)">
     <use xlink:href="#me5ee8784ef" x="0" y="204.756563" style="fill: #3274a1; stroke: #3f3f3f; stroke-width: 1.5"/>
    </g>
   </g>
   <g id="PolyCollection_4">
    <defs>
     <path id="m7ea6e6a9fc" d="M 433.242188 -88.289449 
L 433.242187 -88.289449 
L 433.242187 -88.509294 
L 433.242187 -88.729139 
L 433.242188 -88.948984 
L 433.242188 -89.16883 
L 433.242188 -89.388675 
L 433.242188 -89.60852 
L 433.242187 -89.828365 
L 433.242187 -90.04821 
L 433.242187 -90.268055 
L 433.242188 -90.4879 
L 433.242187 -90.707745 
L 433.242187 -90.92759 
L 433.242187 -91.147436 
L 433.242188 -91.367281 
L 433.242187 -91.587126 
L 433.242187 -91.806971 
L 433.242187 -92.026816 
L 433.242187 -92.246661 
L 433.242187 -92.466506 
L 433.242187 -92.686351 
L 433.242187 -92.906196 
L 433.242187 -93.126041 
L 433.242187 -93.345887 
L 433.242186 -93.565732 
L 433.242186 -93.785577 
L 433.242186 -94.005422 
L 433.242183 -94.225267 
L 433.242186 -94.445112 
L 433.242185 -94.664957 
L 433.242184 -94.884802 
L 433.242183 -95.104647 
L 433.242182 -95.324493 
L 433.242178 -95.544338 
L 433.242172 -95.764183 
L 433.242173 -95.984028 
L 433.242161 -96.203873 
L 433.242161 -96.423718 
L 433.242142 -96.643563 
L 433.242128 -96.863408 
L 433.24211 -97.083253 
L 433.242067 -97.303099 
L 433.242011 -97.522944 
L 433.241914 -97.742789 
L 433.241791 -97.962634 
L 433.24155 -98.182479 
L 433.241181 -98.402324 
L 433.240603 -98.622169 
L 433.239798 -98.842014 
L 433.238658 -99.061859 
L 433.237102 -99.281704 
L 433.234988 -99.50155 
L 433.232656 -99.721395 
L 433.230211 -99.94124 
L 433.228503 -100.161085 
L 433.227461 -100.38093 
L 433.227505 -100.600775 
L 433.22878 -100.82062 
L 433.230895 -101.040465 
L 433.233276 -101.26031 
L 433.235526 -101.480156 
L 433.237556 -101.700001 
L 433.239105 -101.919846 
L 433.24016 -102.139691 
L 433.240885 -102.359536 
L 433.241381 -102.579381 
L 433.241675 -102.799226 
L 433.241873 -103.019071 
L 433.241976 -103.238916 
L 433.242041 -103.458762 
L 433.242099 -103.678607 
L 433.242117 -103.898452 
L 433.242146 -104.118297 
L 433.242156 -104.338142 
L 433.242166 -104.557987 
L 433.242171 -104.777832 
L 433.242176 -104.997677 
L 433.242178 -105.217522 
L 433.242181 -105.437367 
L 433.242184 -105.657213 
L 433.242185 -105.877058 
L 433.242183 -106.096903 
L 433.242186 -106.316748 
L 433.242185 -106.536593 
L 433.242185 -106.756438 
L 433.242187 -106.976283 
L 433.242187 -107.196128 
L 433.242187 -107.415973 
L 433.242186 -107.635819 
L 433.242187 -107.855664 
L 433.242187 -108.075509 
L 433.242187 -108.295354 
L 433.242187 -108.515199 
L 433.242187 -108.735044 
L 433.242187 -108.954889 
L 433.242188 -109.174734 
L 433.242187 -109.394579 
L 433.242187 -109.614424 
L 433.242187 -109.83427 
L 433.242187 -110.054115 
L 433.242188 -110.054115 
L 433.242188 -110.054115 
L 433.242188 -109.83427 
L 433.242188 -109.614424 
L 433.242188 -109.394579 
L 433.242188 -109.174734 
L 433.242188 -108.954889 
L 433.242188 -108.735044 
L 433.242188 -108.515199 
L 433.242188 -108.295354 
L 433.242188 -108.075509 
L 433.242188 -107.855664 
L 433.242189 -107.635819 
L 433.242188 -107.415973 
L 433.242188 -107.196128 
L 433.242188 -106.976283 
L 433.24219 -106.756438 
L 433.24219 -106.536593 
L 433.242189 -106.316748 
L 433.242192 -106.096903 
L 433.24219 -105.877058 
L 433.242191 -105.657213 
L 433.242194 -105.437367 
L 433.242197 -105.217522 
L 433.242199 -104.997677 
L 433.242204 -104.777832 
L 433.242209 -104.557987 
L 433.242219 -104.338142 
L 433.242229 -104.118297 
L 433.242258 -103.898452 
L 433.242276 -103.678607 
L 433.242334 -103.458762 
L 433.242399 -103.238916 
L 433.242502 -103.019071 
L 433.2427 -102.799226 
L 433.242994 -102.579381 
L 433.24349 -102.359536 
L 433.244215 -102.139691 
L 433.24527 -101.919846 
L 433.246819 -101.700001 
L 433.248849 -101.480156 
L 433.251099 -101.26031 
L 433.25348 -101.040465 
L 433.255595 -100.82062 
L 433.25687 -100.600775 
L 433.256914 -100.38093 
L 433.255872 -100.161085 
L 433.254164 -99.94124 
L 433.251719 -99.721395 
L 433.249387 -99.50155 
L 433.247273 -99.281704 
L 433.245717 -99.061859 
L 433.244577 -98.842014 
L 433.243772 -98.622169 
L 433.243194 -98.402324 
L 433.242825 -98.182479 
L 433.242584 -97.962634 
L 433.242461 -97.742789 
L 433.242364 -97.522944 
L 433.242308 -97.303099 
L 433.242265 -97.083253 
L 433.242247 -96.863408 
L 433.242233 -96.643563 
L 433.242214 -96.423718 
L 433.242214 -96.203873 
L 433.242202 -95.984028 
L 433.242203 -95.764183 
L 433.242197 -95.544338 
L 433.242193 -95.324493 
L 433.242192 -95.104647 
L 433.242191 -94.884802 
L 433.24219 -94.664957 
L 433.242189 -94.445112 
L 433.242192 -94.225267 
L 433.242189 -94.005422 
L 433.242189 -93.785577 
L 433.242189 -93.565732 
L 433.242188 -93.345887 
L 433.242188 -93.126041 
L 433.242188 -92.906196 
L 433.242188 -92.686351 
L 433.242188 -92.466506 
L 433.242188 -92.246661 
L 433.242188 -92.026816 
L 433.242188 -91.806971 
L 433.242188 -91.587126 
L 433.242188 -91.367281 
L 433.242188 -91.147436 
L 433.242188 -90.92759 
L 433.242188 -90.707745 
L 433.242188 -90.4879 
L 433.242188 -90.268055 
L 433.242188 -90.04821 
L 433.242188 -89.828365 
L 433.242188 -89.60852 
L 433.242188 -89.388675 
L 433.242188 -89.16883 
L 433.242188 -88.948984 
L 433.242188 -88.729139 
L 433.242188 -88.509294 
L 433.242188 -88.289449 
z
" style="stroke: #3f3f3f; stroke-width: 1.5"/>
    </defs>
    <g clip-path="url(#p2afb01f04f)">
     <use xlink:href="#m7ea6e6a9fc" x="0" y="204.756563" style="fill: #3274a1; stroke: #3f3f3f; stroke-width: 1.5"/>
    </g>
   </g>
   <g id="PolyCollection_5">
    <defs>
     <path id="m1d408ed653" d="M 544.842188 -31.290852 
L 544.842187 -31.290852 
L 544.842187 -32.788373 
L 544.842187 -34.285894 
L 544.842187 -35.783414 
L 544.842187 -37.280935 
L 544.842187 -38.778456 
L 544.842188 -40.275976 
L 544.842188 -41.773497 
L 544.842187 -43.271018 
L 544.842187 -44.768538 
L 544.842187 -46.266059 
L 544.842187 -47.76358 
L 544.842187 -49.2611 
L 544.842187 -50.758621 
L 544.842187 -52.256142 
L 544.842187 -53.753662 
L 544.842187 -55.251183 
L 544.842187 -56.748704 
L 544.842186 -58.246224 
L 544.842186 -59.743745 
L 544.842186 -61.241265 
L 544.842185 -62.738786 
L 544.842184 -64.236307 
L 544.842182 -65.733827 
L 544.842181 -67.231348 
L 544.842181 -68.728869 
L 544.842179 -70.226389 
L 544.842174 -71.72391 
L 544.842168 -73.221431 
L 544.842159 -74.718951 
L 544.842148 -76.216472 
L 544.842134 -77.713993 
L 544.842108 -79.211513 
L 544.842077 -80.709034 
L 544.842044 -82.206555 
L 544.841989 -83.704075 
L 544.841928 -85.201596 
L 544.841868 -86.699117 
L 544.841775 -88.196637 
L 544.841641 -89.694158 
L 544.841472 -91.191679 
L 544.841295 -92.689199 
L 544.841121 -94.18672 
L 544.840918 -95.684241 
L 544.840754 -97.181761 
L 544.840637 -98.679282 
L 544.840615 -100.176803 
L 544.840653 -101.674323 
L 544.840705 -103.171844 
L 544.84081 -104.669365 
L 544.840983 -106.166885 
L 544.841175 -107.664406 
L 544.841368 -109.161927 
L 544.841538 -110.659447 
L 544.841686 -112.156968 
L 544.841801 -113.654489 
L 544.8419 -115.152009 
L 544.841986 -116.64953 
L 544.842051 -118.147051 
L 544.842089 -119.644571 
L 544.842123 -121.142092 
L 544.842145 -122.639613 
L 544.842155 -124.137133 
L 544.842165 -125.634654 
L 544.842173 -127.132175 
L 544.842178 -128.629695 
L 544.842179 -130.127216 
L 544.842178 -131.624737 
L 544.842182 -133.122257 
L 544.842184 -134.619778 
L 544.842183 -136.117299 
L 544.842184 -137.614819 
L 544.842186 -139.11234 
L 544.842186 -140.609861 
L 544.842185 -142.107381 
L 544.842186 -143.604902 
L 544.842187 -145.102423 
L 544.842186 -146.599943 
L 544.842187 -148.097464 
L 544.842187 -149.594985 
L 544.842187 -151.092505 
L 544.842187 -152.590026 
L 544.842187 -154.087546 
L 544.842187 -155.585067 
L 544.842187 -157.082588 
L 544.842187 -158.580108 
L 544.842187 -160.077629 
L 544.842187 -161.57515 
L 544.842187 -163.07267 
L 544.842187 -164.570191 
L 544.842187 -166.067712 
L 544.842187 -167.565232 
L 544.842187 -169.062753 
L 544.842187 -170.560274 
L 544.842187 -172.057794 
L 544.842187 -173.555315 
L 544.842187 -175.052836 
L 544.842187 -176.550356 
L 544.842187 -178.047877 
L 544.842187 -179.545398 
L 544.842188 -179.545398 
L 544.842188 -179.545398 
L 544.842188 -178.047877 
L 544.842188 -176.550356 
L 544.842188 -175.052836 
L 544.842188 -173.555315 
L 544.842188 -172.057794 
L 544.842188 -170.560274 
L 544.842188 -169.062753 
L 544.842188 -167.565232 
L 544.842188 -166.067712 
L 544.842188 -164.570191 
L 544.842188 -163.07267 
L 544.842188 -161.57515 
L 544.842188 -160.077629 
L 544.842188 -158.580108 
L 544.842188 -157.082588 
L 544.842188 -155.585067 
L 544.842188 -154.087546 
L 544.842188 -152.590026 
L 544.842188 -151.092505 
L 544.842188 -149.594985 
L 544.842188 -148.097464 
L 544.842189 -146.599943 
L 544.842188 -145.102423 
L 544.842189 -143.604902 
L 544.84219 -142.107381 
L 544.842189 -140.609861 
L 544.842189 -139.11234 
L 544.842191 -137.614819 
L 544.842192 -136.117299 
L 544.842191 -134.619778 
L 544.842193 -133.122257 
L 544.842197 -131.624737 
L 544.842196 -130.127216 
L 544.842197 -128.629695 
L 544.842202 -127.132175 
L 544.84221 -125.634654 
L 544.84222 -124.137133 
L 544.84223 -122.639613 
L 544.842252 -121.142092 
L 544.842286 -119.644571 
L 544.842324 -118.147051 
L 544.842389 -116.64953 
L 544.842475 -115.152009 
L 544.842574 -113.654489 
L 544.842689 -112.156968 
L 544.842837 -110.659447 
L 544.843007 -109.161927 
L 544.8432 -107.664406 
L 544.843392 -106.166885 
L 544.843565 -104.669365 
L 544.84367 -103.171844 
L 544.843722 -101.674323 
L 544.84376 -100.176803 
L 544.843738 -98.679282 
L 544.843621 -97.181761 
L 544.843457 -95.684241 
L 544.843254 -94.18672 
L 544.84308 -92.689199 
L 544.842903 -91.191679 
L 544.842734 -89.694158 
L 544.8426 -88.196637 
L 544.842507 -86.699117 
L 544.842447 -85.201596 
L 544.842386 -83.704075 
L 544.842331 -82.206555 
L 544.842298 -80.709034 
L 544.842267 -79.211513 
L 544.842241 -77.713993 
L 544.842227 -76.216472 
L 544.842216 -74.718951 
L 544.842207 -73.221431 
L 544.842201 -71.72391 
L 544.842196 -70.226389 
L 544.842194 -68.728869 
L 544.842194 -67.231348 
L 544.842193 -65.733827 
L 544.842191 -64.236307 
L 544.84219 -62.738786 
L 544.842189 -61.241265 
L 544.842189 -59.743745 
L 544.842189 -58.246224 
L 544.842188 -56.748704 
L 544.842188 -55.251183 
L 544.842188 -53.753662 
L 544.842188 -52.256142 
L 544.842188 -50.758621 
L 544.842188 -49.2611 
L 544.842188 -47.76358 
L 544.842188 -46.266059 
L 544.842188 -44.768538 
L 544.842188 -43.271018 
L 544.842188 -41.773497 
L 544.842188 -40.275976 
L 544.842188 -38.778456 
L 544.842188 -37.280935 
L 544.842188 -35.783414 
L 544.842188 -34.285894 
L 544.842188 -32.788373 
L 544.842188 -31.290852 
z
" style="stroke: #3f3f3f; stroke-width: 1.5"/>
    </defs>
    <g clip-path="url(#p2afb01f04f)">
     <use xlink:href="#m1d408ed653" x="0" y="204.756563" style="fill: #3274a1; stroke: #3f3f3f; stroke-width: 1.5"/>
    </g>
   </g>
   <g id="matplotlib.axis_1">
    <g id="xtick_1">
     <g id="line2d_1">
      <defs>
       <path id="md1847e9aa4" d="M 0 0 
L 0 3.5 
" style="stroke: #000000; stroke-width: 0.8"/>
      </defs>
      <g>
       <use xlink:href="#md1847e9aa4" x="98.442188" y="180.878437" style="stroke: #000000; stroke-width: 0.8"/>
      </g>
     </g>
     <g id="text_1">
      <!-- (1, id) -->
      <g transform="translate(83.617969 195.476875)scale(0.1 -0.1)">
       <defs>
        <path id="DejaVuSans-28" d="M 1984 4856 
Q 1566 4138 1362 3434 
Q 1159 2731 1159 2009 
Q 1159 1288 1364 580 
Q 1569 -128 1984 -844 
L 1484 -844 
Q 1016 -109 783 600 
Q 550 1309 550 2009 
Q 550 2706 781 3412 
Q 1013 4119 1484 4856 
L 1984 4856 
z
" transform="scale(0.015625)"/>
        <path id="DejaVuSans-31" d="M 794 531 
L 1825 531 
L 1825 4091 
L 703 3866 
L 703 4441 
L 1819 4666 
L 2450 4666 
L 2450 531 
L 3481 531 
L 3481 0 
L 794 0 
L 794 531 
z
" transform="scale(0.015625)"/>
        <path id="DejaVuSans-2c" d="M 750 794 
L 1409 794 
L 1409 256 
L 897 -744 
L 494 -744 
L 750 256 
L 750 794 
z
" transform="scale(0.015625)"/>
        <path id="DejaVuSans-20" transform="scale(0.015625)"/>
        <path id="DejaVuSans-69" d="M 603 3500 
L 1178 3500 
L 1178 0 
L 603 0 
L 603 3500 
z
M 603 4863 
L 1178 4863 
L 1178 4134 
L 603 4134 
L 603 4863 
z
" transform="scale(0.015625)"/>
        <path id="DejaVuSans-64" d="M 2906 2969 
L 2906 4863 
L 3481 4863 
L 3481 0 
L 2906 0 
L 2906 525 
Q 2725 213 2448 61 
Q 2172 -91 1784 -91 
Q 1150 -91 751 415 
Q 353 922 353 1747 
Q 353 2572 751 3078 
Q 1150 3584 1784 3584 
Q 2172 3584 2448 3432 
Q 2725 3281 2906 2969 
z
M 947 1747 
Q 947 1113 1208 752 
Q 1469 391 1925 391 
Q 2381 391 2643 752 
Q 2906 1113 2906 1747 
Q 2906 2381 2643 2742 
Q 2381 3103 1925 3103 
Q 1469 3103 1208 2742 
Q 947 2381 947 1747 
z
" transform="scale(0.015625)"/>
        <path id="DejaVuSans-29" d="M 513 4856 
L 1013 4856 
Q 1481 4119 1714 3412 
Q 1947 2706 1947 2009 
Q 1947 1309 1714 600 
Q 1481 -109 1013 -844 
L 513 -844 
Q 928 -128 1133 580 
Q 1338 1288 1338 2009 
Q 1338 2731 1133 3434 
Q 928 4138 513 4856 
z
" transform="scale(0.015625)"/>
       </defs>
       <use xlink:href="#DejaVuSans-28"/>
       <use xlink:href="#DejaVuSans-31" x="39.013672"/>
       <use xlink:href="#DejaVuSans-2c" x="102.636719"/>
       <use xlink:href="#DejaVuSans-20" x="134.423828"/>
       <use xlink:href="#DejaVuSans-69" x="166.210938"/>
       <use xlink:href="#DejaVuSans-64" x="193.994141"/>
       <use xlink:href="#DejaVuSans-29" x="257.470703"/>
      </g>
     </g>
    </g>
    <g id="xtick_2">
     <g id="line2d_2">
      <g>
       <use xlink:href="#md1847e9aa4" x="210.042188" y="180.878437" style="stroke: #000000; stroke-width: 0.8"/>
      </g>
     </g>
     <g id="text_2">
      <!-- (2, id) -->
      <g transform="translate(195.217969 195.476875)scale(0.1 -0.1)">
       <defs>
        <path id="DejaVuSans-32" d="M 1228 531 
L 3431 531 
L 3431 0 
L 469 0 
L 469 531 
Q 828 903 1448 1529 
Q 2069 2156 2228 2338 
Q 2531 2678 2651 2914 
Q 2772 3150 2772 3378 
Q 2772 3750 2511 3984 
Q 2250 4219 1831 4219 
Q 1534 4219 1204 4116 
Q 875 4013 500 3803 
L 500 4441 
Q 881 4594 1212 4672 
Q 1544 4750 1819 4750 
Q 2544 4750 2975 4387 
Q 3406 4025 3406 3419 
Q 3406 3131 3298 2873 
Q 3191 2616 2906 2266 
Q 2828 2175 2409 1742 
Q 1991 1309 1228 531 
z
" transform="scale(0.015625)"/>
       </defs>
       <use xlink:href="#DejaVuSans-28"/>
       <use xlink:href="#DejaVuSans-32" x="39.013672"/>
       <use xlink:href="#DejaVuSans-2c" x="102.636719"/>
       <use xlink:href="#DejaVuSans-20" x="134.423828"/>
       <use xlink:href="#DejaVuSans-69" x="166.210938"/>
       <use xlink:href="#DejaVuSans-64" x="193.994141"/>
       <use xlink:href="#DejaVuSans-29" x="257.470703"/>
      </g>
     </g>
    </g>
    <g id="xtick_3">
     <g id="line2d_3">
      <g>
       <use xlink:href="#md1847e9aa4" x="321.642188" y="180.878437" style="stroke: #000000; stroke-width: 0.8"/>
      </g>
     </g>
     <g id="text_3">
      <!-- (3, id) -->
      <g transform="translate(306.817969 195.476875)scale(0.1 -0.1)">
       <defs>
        <path id="DejaVuSans-33" d="M 2597 2516 
Q 3050 2419 3304 2112 
Q 3559 1806 3559 1356 
Q 3559 666 3084 287 
Q 2609 -91 1734 -91 
Q 1441 -91 1130 -33 
Q 819 25 488 141 
L 488 750 
Q 750 597 1062 519 
Q 1375 441 1716 441 
Q 2309 441 2620 675 
Q 2931 909 2931 1356 
Q 2931 1769 2642 2001 
Q 2353 2234 1838 2234 
L 1294 2234 
L 1294 2753 
L 1863 2753 
Q 2328 2753 2575 2939 
Q 2822 3125 2822 3475 
Q 2822 3834 2567 4026 
Q 2313 4219 1838 4219 
Q 1578 4219 1281 4162 
Q 984 4106 628 3988 
L 628 4550 
Q 988 4650 1302 4700 
Q 1616 4750 1894 4750 
Q 2613 4750 3031 4423 
Q 3450 4097 3450 3541 
Q 3450 3153 3228 2886 
Q 3006 2619 2597 2516 
z
" transform="scale(0.015625)"/>
       </defs>
       <use xlink:href="#DejaVuSans-28"/>
       <use xlink:href="#DejaVuSans-33" x="39.013672"/>
       <use xlink:href="#DejaVuSans-2c" x="102.636719"/>
       <use xlink:href="#DejaVuSans-20" x="134.423828"/>
       <use xlink:href="#DejaVuSans-69" x="166.210938"/>
       <use xlink:href="#DejaVuSans-64" x="193.994141"/>
       <use xlink:href="#DejaVuSans-29" x="257.470703"/>
      </g>
     </g>
    </g>
    <g id="xtick_4">
     <g id="line2d_4">
      <g>
       <use xlink:href="#md1847e9aa4" x="433.242188" y="180.878437" style="stroke: #000000; stroke-width: 0.8"/>
      </g>
     </g>
     <g id="text_4">
      <!-- (4, id) -->
      <g transform="translate(418.417969 195.476875)scale(0.1 -0.1)">
       <defs>
        <path id="DejaVuSans-34" d="M 2419 4116 
L 825 1625 
L 2419 1625 
L 2419 4116 
z
M 2253 4666 
L 3047 4666 
L 3047 1625 
L 3713 1625 
L 3713 1100 
L 3047 1100 
L 3047 0 
L 2419 0 
L 2419 1100 
L 313 1100 
L 313 1709 
L 2253 4666 
z
" transform="scale(0.015625)"/>
       </defs>
       <use xlink:href="#DejaVuSans-28"/>
       <use xlink:href="#DejaVuSans-34" x="39.013672"/>
       <use xlink:href="#DejaVuSans-2c" x="102.636719"/>
       <use xlink:href="#DejaVuSans-20" x="134.423828"/>
       <use xlink:href="#DejaVuSans-69" x="166.210938"/>
       <use xlink:href="#DejaVuSans-64" x="193.994141"/>
       <use xlink:href="#DejaVuSans-29" x="257.470703"/>
      </g>
     </g>
    </g>
    <g id="xtick_5">
     <g id="line2d_5">
      <g>
       <use xlink:href="#md1847e9aa4" x="544.842188" y="180.878437" style="stroke: #000000; stroke-width: 0.8"/>
      </g>
     </g>
     <g id="text_5">
      <!-- logits -->
      <g transform="translate(531.265625 195.476875)scale(0.1 -0.1)">
       <defs>
        <path id="DejaVuSans-6c" d="M 603 4863 
L 1178 4863 
L 1178 0 
L 603 0 
L 603 4863 
z
" transform="scale(0.015625)"/>
        <path id="DejaVuSans-6f" d="M 1959 3097 
Q 1497 3097 1228 2736 
Q 959 2375 959 1747 
Q 959 1119 1226 758 
Q 1494 397 1959 397 
Q 2419 397 2687 759 
Q 2956 1122 2956 1747 
Q 2956 2369 2687 2733 
Q 2419 3097 1959 3097 
z
M 1959 3584 
Q 2709 3584 3137 3096 
Q 3566 2609 3566 1747 
Q 3566 888 3137 398 
Q 2709 -91 1959 -91 
Q 1206 -91 779 398 
Q 353 888 353 1747 
Q 353 2609 779 3096 
Q 1206 3584 1959 3584 
z
" transform="scale(0.015625)"/>
        <path id="DejaVuSans-67" d="M 2906 1791 
Q 2906 2416 2648 2759 
Q 2391 3103 1925 3103 
Q 1463 3103 1205 2759 
Q 947 2416 947 1791 
Q 947 1169 1205 825 
Q 1463 481 1925 481 
Q 2391 481 2648 825 
Q 2906 1169 2906 1791 
z
M 3481 434 
Q 3481 -459 3084 -895 
Q 2688 -1331 1869 -1331 
Q 1566 -1331 1297 -1286 
Q 1028 -1241 775 -1147 
L 775 -588 
Q 1028 -725 1275 -790 
Q 1522 -856 1778 -856 
Q 2344 -856 2625 -561 
Q 2906 -266 2906 331 
L 2906 616 
Q 2728 306 2450 153 
Q 2172 0 1784 0 
Q 1141 0 747 490 
Q 353 981 353 1791 
Q 353 2603 747 3093 
Q 1141 3584 1784 3584 
Q 2172 3584 2450 3431 
Q 2728 3278 2906 2969 
L 2906 3500 
L 3481 3500 
L 3481 434 
z
" transform="scale(0.015625)"/>
        <path id="DejaVuSans-74" d="M 1172 4494 
L 1172 3500 
L 2356 3500 
L 2356 3053 
L 1172 3053 
L 1172 1153 
Q 1172 725 1289 603 
Q 1406 481 1766 481 
L 2356 481 
L 2356 0 
L 1766 0 
Q 1100 0 847 248 
Q 594 497 594 1153 
L 594 3053 
L 172 3053 
L 172 3500 
L 594 3500 
L 594 4494 
L 1172 4494 
z
" transform="scale(0.015625)"/>
        <path id="DejaVuSans-73" d="M 2834 3397 
L 2834 2853 
Q 2591 2978 2328 3040 
Q 2066 3103 1784 3103 
Q 1356 3103 1142 2972 
Q 928 2841 928 2578 
Q 928 2378 1081 2264 
Q 1234 2150 1697 2047 
L 1894 2003 
Q 2506 1872 2764 1633 
Q 3022 1394 3022 966 
Q 3022 478 2636 193 
Q 2250 -91 1575 -91 
Q 1294 -91 989 -36 
Q 684 19 347 128 
L 347 722 
Q 666 556 975 473 
Q 1284 391 1588 391 
Q 1994 391 2212 530 
Q 2431 669 2431 922 
Q 2431 1156 2273 1281 
Q 2116 1406 1581 1522 
L 1381 1569 
Q 847 1681 609 1914 
Q 372 2147 372 2553 
Q 372 3047 722 3315 
Q 1072 3584 1716 3584 
Q 2034 3584 2315 3537 
Q 2597 3491 2834 3397 
z
" transform="scale(0.015625)"/>
       </defs>
       <use xlink:href="#DejaVuSans-6c"/>
       <use xlink:href="#DejaVuSans-6f" x="27.783203"/>
       <use xlink:href="#DejaVuSans-67" x="88.964844"/>
       <use xlink:href="#DejaVuSans-69" x="152.441406"/>
       <use xlink:href="#DejaVuSans-74" x="180.224609"/>
       <use xlink:href="#DejaVuSans-73" x="219.433594"/>
      </g>
     </g>
    </g>
   </g>
   <g id="matplotlib.axis_2">
    <g id="ytick_1">
     <g id="line2d_6">
      <defs>
       <path id="m937b8e662a" d="M 0 0 
L -3.5 0 
" style="stroke: #000000; stroke-width: 0.8"/>
      </defs>
      <g>
       <use xlink:href="#m937b8e662a" x="42.642188" y="159.125063" style="stroke: #000000; stroke-width: 0.8"/>
      </g>
     </g>
     <g id="text_6">
      <!-- −4 -->
      <g transform="translate(20.9 162.924282)scale(0.1 -0.1)">
       <defs>
        <path id="DejaVuSans-2212" d="M 678 2272 
L 4684 2272 
L 4684 1741 
L 678 1741 
L 678 2272 
z
" transform="scale(0.015625)"/>
       </defs>
       <use xlink:href="#DejaVuSans-2212"/>
       <use xlink:href="#DejaVuSans-34" x="83.789062"/>
      </g>
     </g>
    </g>
    <g id="ytick_2">
     <g id="line2d_7">
      <g>
       <use xlink:href="#m937b8e662a" x="42.642188" y="131.714096" style="stroke: #000000; stroke-width: 0.8"/>
      </g>
     </g>
     <g id="text_7">
      <!-- −2 -->
      <g transform="translate(20.9 135.513315)scale(0.1 -0.1)">
       <use xlink:href="#DejaVuSans-2212"/>
       <use xlink:href="#DejaVuSans-32" x="83.789062"/>
      </g>
     </g>
    </g>
    <g id="ytick_3">
     <g id="line2d_8">
      <g>
       <use xlink:href="#m937b8e662a" x="42.642188" y="104.303129" style="stroke: #000000; stroke-width: 0.8"/>
      </g>
     </g>
     <g id="text_8">
      <!-- 0 -->
      <g transform="translate(29.279688 108.102348)scale(0.1 -0.1)">
       <defs>
        <path id="DejaVuSans-30" d="M 2034 4250 
Q 1547 4250 1301 3770 
Q 1056 3291 1056 2328 
Q 1056 1369 1301 889 
Q 1547 409 2034 409 
Q 2525 409 2770 889 
Q 3016 1369 3016 2328 
Q 3016 3291 2770 3770 
Q 2525 4250 2034 4250 
z
M 2034 4750 
Q 2819 4750 3233 4129 
Q 3647 3509 3647 2328 
Q 3647 1150 3233 529 
Q 2819 -91 2034 -91 
Q 1250 -91 836 529 
Q 422 1150 422 2328 
Q 422 3509 836 4129 
Q 1250 4750 2034 4750 
z
" transform="scale(0.015625)"/>
       </defs>
       <use xlink:href="#DejaVuSans-30"/>
      </g>
     </g>
    </g>
    <g id="ytick_4">
     <g id="line2d_9">
      <g>
       <use xlink:href="#m937b8e662a" x="42.642188" y="76.892162" style="stroke: #000000; stroke-width: 0.8"/>
      </g>
     </g>
     <g id="text_9">
      <!-- 2 -->
      <g transform="translate(29.279688 80.691381)scale(0.1 -0.1)">
       <use xlink:href="#DejaVuSans-32"/>
      </g>
     </g>
    </g>
    <g id="ytick_5">
     <g id="line2d_10">
      <g>
       <use xlink:href="#m937b8e662a" x="42.642188" y="49.481195" style="stroke: #000000; stroke-width: 0.8"/>
      </g>
     </g>
     <g id="text_10">
      <!-- 4 -->
      <g transform="translate(29.279688 53.280414)scale(0.1 -0.1)">
       <use xlink:href="#DejaVuSans-34"/>
      </g>
     </g>
    </g>
    <g id="ytick_6">
     <g id="line2d_11">
      <g>
       <use xlink:href="#m937b8e662a" x="42.642188" y="22.070228" style="stroke: #000000; stroke-width: 0.8"/>
      </g>
     </g>
     <g id="text_11">
      <!-- 6 -->
      <g transform="translate(29.279688 25.869447)scale(0.1 -0.1)">
       <defs>
        <path id="DejaVuSans-36" d="M 2113 2584 
Q 1688 2584 1439 2293 
Q 1191 2003 1191 1497 
Q 1191 994 1439 701 
Q 1688 409 2113 409 
Q 2538 409 2786 701 
Q 3034 994 3034 1497 
Q 3034 2003 2786 2293 
Q 2538 2584 2113 2584 
z
M 3366 4563 
L 3366 3988 
Q 3128 4100 2886 4159 
Q 2644 4219 2406 4219 
Q 1781 4219 1451 3797 
Q 1122 3375 1075 2522 
Q 1259 2794 1537 2939 
Q 1816 3084 2150 3084 
Q 2853 3084 3261 2657 
Q 3669 2231 3669 1497 
Q 3669 778 3244 343 
Q 2819 -91 2113 -91 
Q 1303 -91 875 529 
Q 447 1150 447 2328 
Q 447 3434 972 4092 
Q 1497 4750 2381 4750 
Q 2619 4750 2861 4703 
Q 3103 4656 3366 4563 
z
" transform="scale(0.015625)"/>
       </defs>
       <use xlink:href="#DejaVuSans-36"/>
      </g>
     </g>
    </g>
    <g id="text_12">
     <!-- ${\phi}$ -->
     <g transform="translate(14.8 102.638437)rotate(-90)scale(0.1 -0.1)">
      <defs>
       <path id="DejaVuSans-Oblique-3d5" d="M 2991 4863 
L 2738 3572 
Q 3363 3572 3684 3094 
Q 4016 2606 3850 1747 
Q 3681 888 3159 400 
Q 2653 -78 2028 -78 
L 1784 -1331 
L 1213 -1331 
L 1456 -78 
Q 834 -78 509 400 
Q 178 888 347 1747 
Q 513 2606 1034 3094 
Q 1544 3572 2166 3572 
L 2419 4863 
L 2991 4863 
z
M 2128 434 
Q 2481 434 2784 756 
Q 3116 1116 3244 1747 
Q 3369 2372 3169 2738 
Q 2991 3059 2638 3059 
L 2128 434 
z
M 1556 434 
L 2066 3059 
Q 1716 3059 1413 2738 
Q 1072 2372 953 1747 
Q 834 1116 1028 756 
Q 1203 434 1556 434 
z
" transform="scale(0.015625)"/>
      </defs>
      <use xlink:href="#DejaVuSans-Oblique-3d5" transform="translate(0 0.015625)"/>
     </g>
    </g>
    <g id="text_13">
     <!-- 1e6 -->
     <g transform="translate(42.642188 14.798437)scale(0.1 -0.1)">
      <defs>
       <path id="DejaVuSans-65" d="M 3597 1894 
L 3597 1613 
L 953 1613 
Q 991 1019 1311 708 
Q 1631 397 2203 397 
Q 2534 397 2845 478 
Q 3156 559 3463 722 
L 3463 178 
Q 3153 47 2828 -22 
Q 2503 -91 2169 -91 
Q 1331 -91 842 396 
Q 353 884 353 1716 
Q 353 2575 817 3079 
Q 1281 3584 2069 3584 
Q 2775 3584 3186 3129 
Q 3597 2675 3597 1894 
z
M 3022 2063 
Q 3016 2534 2758 2815 
Q 2500 3097 2075 3097 
Q 1594 3097 1305 2825 
Q 1016 2553 972 2059 
L 3022 2063 
z
" transform="scale(0.015625)"/>
      </defs>
      <use xlink:href="#DejaVuSans-31"/>
      <use xlink:href="#DejaVuSans-65" x="63.623047"/>
      <use xlink:href="#DejaVuSans-36" x="125.146484"/>
     </g>
    </g>
   </g>
   <g id="line2d_12">
    <path d="M 98.442188 104.303876 
L 98.442188 104.302381 
" clip-path="url(#p2afb01f04f)" style="fill: none; stroke: #3f3f3f; stroke-width: 1.5; stroke-linecap: square"/>
   </g>
   <g id="line2d_13">
    <path d="M 98.442188 104.303316 
L 98.442188 104.302942 
" clip-path="url(#p2afb01f04f)" style="fill: none; stroke: #3f3f3f; stroke-width: 4.5; stroke-linecap: square"/>
   </g>
   <g id="line2d_14">
    <path d="M 210.042188 104.316664 
L 210.042188 104.28958 
" clip-path="url(#p2afb01f04f)" style="fill: none; stroke: #3f3f3f; stroke-width: 1.5; stroke-linecap: square"/>
   </g>
   <g id="line2d_15">
    <path d="M 210.042188 104.306508 
L 210.042188 104.299737 
" clip-path="url(#p2afb01f04f)" style="fill: none; stroke: #3f3f3f; stroke-width: 4.5; stroke-linecap: square"/>
   </g>
   <g id="line2d_16">
    <path d="M 321.642188 104.477135 
L 321.642188 104.128851 
" clip-path="url(#p2afb01f04f)" style="fill: none; stroke: #3f3f3f; stroke-width: 1.5; stroke-linecap: square"/>
   </g>
   <g id="line2d_17">
    <path d="M 321.642188 104.346528 
L 321.642188 104.259456 
" clip-path="url(#p2afb01f04f)" style="fill: none; stroke: #3f3f3f; stroke-width: 4.5; stroke-linecap: square"/>
   </g>
   <g id="line2d_18">
    <path d="M 433.242188 106.561103 
L 433.242188 102.038703 
" clip-path="url(#p2afb01f04f)" style="fill: none; stroke: #3f3f3f; stroke-width: 1.5; stroke-linecap: square"/>
   </g>
   <g id="line2d_19">
    <path d="M 433.242188 104.86523 
L 433.242188 103.734586 
" clip-path="url(#p2afb01f04f)" style="fill: none; stroke: #3f3f3f; stroke-width: 4.5; stroke-linecap: square"/>
   </g>
   <g id="line2d_20">
    <path d="M 544.842188 125.236001 
L 544.842188 83.244552 
" clip-path="url(#p2afb01f04f)" style="fill: none; stroke: #3f3f3f; stroke-width: 1.5; stroke-linecap: square"/>
   </g>
   <g id="line2d_21">
    <path d="M 544.842188 109.475087 
L 544.842188 98.966607 
" clip-path="url(#p2afb01f04f)" style="fill: none; stroke: #3f3f3f; stroke-width: 4.5; stroke-linecap: square"/>
   </g>
   <g id="patch_3">
    <path d="M 42.642188 180.878438 
L 42.642188 17.798438 
" style="fill: none; stroke: #000000; stroke-width: 0.8; stroke-linejoin: miter; stroke-linecap: square"/>
   </g>
   <g id="patch_4">
    <path d="M 600.642187 180.878438 
L 600.642187 17.798438 
" style="fill: none; stroke: #000000; stroke-width: 0.8; stroke-linejoin: miter; stroke-linecap: square"/>
   </g>
   <g id="patch_5">
    <path d="M 42.642188 180.878437 
L 600.642188 180.878437 
" style="fill: none; stroke: #000000; stroke-width: 0.8; stroke-linejoin: miter; stroke-linecap: square"/>
   </g>
   <g id="patch_6">
    <path d="M 42.642188 17.798437 
L 600.642188 17.798437 
" style="fill: none; stroke: #000000; stroke-width: 0.8; stroke-linejoin: miter; stroke-linecap: square"/>
   </g>
   <g id="PathCollection_1">
    <defs>
     <path id="mbbaef71525" d="M 0 1.5 
C 0.397805 1.5 0.77937 1.341951 1.06066 1.06066 
C 1.341951 0.77937 1.5 0.397805 1.5 0 
C 1.5 -0.397805 1.341951 -0.77937 1.06066 -1.06066 
C 0.77937 -1.341951 0.397805 -1.5 0 -1.5 
C -0.397805 -1.5 -0.77937 -1.341951 -1.06066 -1.06066 
C -1.341951 -0.77937 -1.5 -0.397805 -1.5 0 
C -1.5 0.397805 -1.341951 0.77937 -1.06066 1.06066 
C -0.77937 1.341951 -0.397805 1.5 0 1.5 
z
" style="stroke: #3f3f3f"/>
    </defs>
    <g clip-path="url(#p2afb01f04f)">
     <use xlink:href="#mbbaef71525" x="98.442188" y="104.303131" style="fill: #ffffff; stroke: #3f3f3f"/>
    </g>
   </g>
   <g id="PathCollection_2">
    <g clip-path="url(#p2afb01f04f)">
     <use xlink:href="#mbbaef71525" x="210.042188" y="104.303144" style="fill: #ffffff; stroke: #3f3f3f"/>
    </g>
   </g>
   <g id="PathCollection_3">
    <g clip-path="url(#p2afb01f04f)">
     <use xlink:href="#mbbaef71525" x="321.642188" y="104.30312" style="fill: #ffffff; stroke: #3f3f3f"/>
    </g>
   </g>
   <g id="PathCollection_4">
    <g clip-path="url(#p2afb01f04f)">
     <use xlink:href="#mbbaef71525" x="433.242188" y="104.296899" style="fill: #ffffff; stroke: #3f3f3f"/>
    </g>
   </g>
   <g id="PathCollection_5">
    <g clip-path="url(#p2afb01f04f)">
     <use xlink:href="#mbbaef71525" x="544.842188" y="104.235808" style="fill: #ffffff; stroke: #3f3f3f"/>
    </g>
   </g>
  </g>
 </g>
 <defs>
  <clipPath id="p2afb01f04f">
   <rect x="42.642188" y="17.798437" width="558" height="163.08"/>
  </clipPath>
 </defs>
</svg>
