<?xml version="1.0" encoding="utf-8" standalone="no"?>
<!DOCTYPE svg PUBLIC "-//W3C//DTD SVG 1.1//EN"
  "http://www.w3.org/Graphics/SVG/1.1/DTD/svg11.dtd">
<svg xmlns:xlink="http://www.w3.org/1999/xlink" width="617.382812pt" height="194.158125pt" viewBox="0 0 617.382812 194.158125" xmlns="http://www.w3.org/2000/svg" version="1.1">
 <metadata>
  <rdf:RDF xmlns:dc="http://purl.org/dc/elements/1.1/" xmlns:cc="http://creativecommons.org/ns#" xmlns:rdf="http://www.w3.org/1999/02/22-rdf-syntax-ns#">
   <cc:Work>
    <dc:type rdf:resource="http://purl.org/dc/dcmitype/StillImage"/>
    <dc:date>2022-07-08T21:38:12.045008</dc:date>
    <dc:format>image/svg+xml</dc:format>
    <dc:creator>
     <cc:Agent>
      <dc:title>Matplotlib v3.5.1, https://matplotlib.org/</dc:title>
     </cc:Agent>
    </dc:creator>
   </cc:Work>
  </rdf:RDF>
 </metadata>
 <defs>
  <style type="text/css">*{stroke-linejoin: round; stroke-linecap: butt}</style>
 </defs>
 <g id="figure_1">
  <g id="patch_1">
   <path d="M 0 194.158125 
L 617.382812 194.158125 
L 617.382812 0 
L 0 0 
L 0 194.158125 
z
" style="fill: none"/>
  </g>
  <g id="axes_1">
   <g id="patch_2">
    <path d="M 52.182813 170.28 
L 610.182812 170.28 
L 610.182812 7.2 
L 52.182813 7.2 
z
" style="fill: #ffffff"/>
   </g>
   <g id="PolyCollection_1">
    <defs>
     <path id="m854d57ad1f" d="M 107.982813 -31.290852 
L 107.982812 -31.290852 
L 107.982808 -32.788373 
L 107.982795 -34.285894 
L 107.98278 -35.783414 
L 107.98277 -37.280935 
L 107.982756 -38.778456 
L 107.98274 -40.275976 
L 107.982725 -41.773497 
L 107.982708 -43.271018 
L 107.982679 -44.768538 
L 107.98264 -46.266059 
L 107.98259 -47.76358 
L 107.982539 -49.2611 
L 107.982469 -50.758621 
L 107.98239 -52.256142 
L 107.982283 -53.753662 
L 107.982164 -55.251183 
L 107.982045 -56.748704 
L 107.981884 -58.246224 
L 107.981684 -59.743745 
L 107.98147 -61.241265 
L 107.981208 -62.738786 
L 107.980862 -64.236307 
L 107.980468 -65.733827 
L 107.98004 -67.231348 
L 107.979548 -68.728869 
L 107.97899 -70.226389 
L 107.978343 -71.72391 
L 107.977632 -73.221431 
L 107.976803 -74.718951 
L 107.975878 -76.216472 
L 107.974918 -77.713993 
L 107.973902 -79.211513 
L 107.972733 -80.709034 
L 107.971522 -82.206555 
L 107.970339 -83.704075 
L 107.969137 -85.201596 
L 107.967785 -86.699117 
L 107.966383 -88.196637 
L 107.965089 -89.694158 
L 107.963875 -91.191679 
L 107.962771 -92.689199 
L 107.961723 -94.18672 
L 107.960652 -95.684241 
L 107.959648 -97.181761 
L 107.958816 -98.679282 
L 107.958187 -100.176803 
L 107.957691 -101.674323 
L 107.957319 -103.171844 
L 107.957116 -104.669365 
L 107.957085 -106.166885 
L 107.957238 -107.664406 
L 107.957724 -109.161927 
L 107.95819 -110.659447 
L 107.958837 -112.156968 
L 107.959694 -113.654489 
L 107.960653 -115.152009 
L 107.961806 -116.64953 
L 107.962982 -118.147051 
L 107.964147 -119.644571 
L 107.965478 -121.142092 
L 107.966782 -122.639613 
L 107.968072 -124.137133 
L 107.969305 -125.634654 
L 107.970444 -127.132175 
L 107.971622 -128.629695 
L 107.972734 -130.127216 
L 107.973801 -131.624737 
L 107.974822 -133.122257 
L 107.975743 -134.619778 
L 107.976607 -136.117299 
L 107.97742 -137.614819 
L 107.978114 -139.11234 
L 107.978781 -140.609861 
L 107.979338 -142.107381 
L 107.979825 -143.604902 
L 107.980276 -145.102423 
L 107.980685 -146.599943 
L 107.981051 -148.097464 
L 107.981352 -149.594985 
L 107.981588 -151.092505 
L 107.981818 -152.590026 
L 107.982019 -154.087546 
L 107.982164 -155.585067 
L 107.982297 -157.082588 
L 107.9824 -158.580108 
L 107.982488 -160.077629 
L 107.982561 -161.57515 
L 107.982603 -163.07267 
L 107.982632 -164.570191 
L 107.982671 -166.067712 
L 107.982703 -167.565232 
L 107.982724 -169.062753 
L 107.982744 -170.560274 
L 107.982759 -172.057794 
L 107.982769 -173.555315 
L 107.982779 -175.052836 
L 107.982791 -176.550356 
L 107.982806 -178.047877 
L 107.982812 -179.545398 
L 107.982813 -179.545398 
L 107.982813 -179.545398 
L 107.982819 -178.047877 
L 107.982834 -176.550356 
L 107.982846 -175.052836 
L 107.982856 -173.555315 
L 107.982866 -172.057794 
L 107.982881 -170.560274 
L 107.982901 -169.062753 
L 107.982922 -167.565232 
L 107.982954 -166.067712 
L 107.982993 -164.570191 
L 107.983022 -163.07267 
L 107.983064 -161.57515 
L 107.983137 -160.077629 
L 107.983225 -158.580108 
L 107.983328 -157.082588 
L 107.983461 -155.585067 
L 107.983606 -154.087546 
L 107.983807 -152.590026 
L 107.984037 -151.092505 
L 107.984273 -149.594985 
L 107.984574 -148.097464 
L 107.98494 -146.599943 
L 107.985349 -145.102423 
L 107.9858 -143.604902 
L 107.986287 -142.107381 
L 107.986844 -140.609861 
L 107.987511 -139.11234 
L 107.988205 -137.614819 
L 107.989018 -136.117299 
L 107.989882 -134.619778 
L 107.990803 -133.122257 
L 107.991824 -131.624737 
L 107.992891 -130.127216 
L 107.994003 -128.629695 
L 107.995181 -127.132175 
L 107.99632 -125.634654 
L 107.997553 -124.137133 
L 107.998843 -122.639613 
L 108.000147 -121.142092 
L 108.001478 -119.644571 
L 108.002643 -118.147051 
L 108.003819 -116.64953 
L 108.004972 -115.152009 
L 108.005931 -113.654489 
L 108.006788 -112.156968 
L 108.007435 -110.659447 
L 108.007901 -109.161927 
L 108.008387 -107.664406 
L 108.00854 -106.166885 
L 108.008509 -104.669365 
L 108.008306 -103.171844 
L 108.007934 -101.674323 
L 108.007438 -100.176803 
L 108.006809 -98.679282 
L 108.005977 -97.181761 
L 108.004973 -95.684241 
L 108.003902 -94.18672 
L 108.002854 -92.689199 
L 108.00175 -91.191679 
L 108.000536 -89.694158 
L 107.999242 -88.196637 
L 107.99784 -86.699117 
L 107.996488 -85.201596 
L 107.995286 -83.704075 
L 107.994103 -82.206555 
L 107.992892 -80.709034 
L 107.991723 -79.211513 
L 107.990707 -77.713993 
L 107.989747 -76.216472 
L 107.988822 -74.718951 
L 107.987993 -73.221431 
L 107.987282 -71.72391 
L 107.986635 -70.226389 
L 107.986077 -68.728869 
L 107.985585 -67.231348 
L 107.985157 -65.733827 
L 107.984763 -64.236307 
L 107.984417 -62.738786 
L 107.984155 -61.241265 
L 107.983941 -59.743745 
L 107.983741 -58.246224 
L 107.98358 -56.748704 
L 107.983461 -55.251183 
L 107.983342 -53.753662 
L 107.983235 -52.256142 
L 107.983156 -50.758621 
L 107.983086 -49.2611 
L 107.983035 -47.76358 
L 107.982985 -46.266059 
L 107.982946 -44.768538 
L 107.982917 -43.271018 
L 107.9829 -41.773497 
L 107.982885 -40.275976 
L 107.982869 -38.778456 
L 107.982855 -37.280935 
L 107.982845 -35.783414 
L 107.98283 -34.285894 
L 107.982817 -32.788373 
L 107.982813 -31.290852 
z
" style="stroke: #3f3f3f; stroke-width: 1.5"/>
    </defs>
    <g clip-path="url(#p166683d888)">
     <use xlink:href="#m854d57ad1f" x="0" y="194.158125" style="fill: #3274a1; stroke: #3f3f3f; stroke-width: 1.5"/>
    </g>
   </g>
   <g id="PolyCollection_2">
    <defs>
     <path id="m89e5366eb7" d="M 219.582813 -74.214668 
L 219.582812 -74.214668 
L 219.582808 -74.884458 
L 219.58281 -75.554248 
L 219.582811 -76.224038 
L 219.582811 -76.893828 
L 219.58281 -77.563618 
L 219.582807 -78.233408 
L 219.582809 -78.903198 
L 219.582807 -79.572988 
L 219.582803 -80.242778 
L 219.582805 -80.912568 
L 219.582804 -81.582358 
L 219.582801 -82.252148 
L 219.58279 -82.921938 
L 219.582794 -83.591728 
L 219.582796 -84.261518 
L 219.58278 -84.931308 
L 219.582759 -85.601098 
L 219.582734 -86.270888 
L 219.582725 -86.940678 
L 219.582698 -87.610468 
L 219.582675 -88.280258 
L 219.582589 -88.950048 
L 219.582544 -89.619838 
L 219.582391 -90.289628 
L 219.582288 -90.959418 
L 219.582069 -91.629208 
L 219.581701 -92.298998 
L 219.581186 -92.968788 
L 219.580607 -93.638578 
L 219.579721 -94.308368 
L 219.57823 -94.978158 
L 219.576399 -95.647948 
L 219.57383 -96.317738 
L 219.570452 -96.987528 
L 219.566077 -97.657318 
L 219.560473 -98.327108 
L 219.553236 -98.996898 
L 219.544916 -99.666688 
L 219.534091 -100.336478 
L 219.522998 -101.006268 
L 219.510627 -101.676058 
L 219.497412 -102.345848 
L 219.485659 -103.015638 
L 219.474782 -103.685428 
L 219.466631 -104.355218 
L 219.462317 -105.025008 
L 219.462629 -105.694798 
L 219.466432 -106.364588 
L 219.474487 -107.034378 
L 219.484375 -107.704168 
L 219.496503 -108.373958 
L 219.508623 -109.043748 
L 219.520425 -109.713538 
L 219.531718 -110.383328 
L 219.541971 -111.053118 
L 219.550953 -111.722908 
L 219.558286 -112.392698 
L 219.564498 -113.062488 
L 219.568951 -113.732278 
L 219.572489 -114.402068 
L 219.575324 -115.071858 
L 219.577491 -115.741648 
L 219.578915 -116.411438 
L 219.579945 -117.081228 
L 219.580789 -117.751018 
L 219.581264 -118.420808 
L 219.581718 -119.090598 
L 219.581932 -119.760388 
L 219.582171 -120.430178 
L 219.582347 -121.099968 
L 219.582441 -121.769758 
L 219.582524 -122.439548 
L 219.58262 -123.109338 
L 219.582652 -123.779128 
L 219.582704 -124.448918 
L 219.582728 -125.118708 
L 219.582742 -125.788498 
L 219.582754 -126.458288 
L 219.582758 -127.128078 
L 219.582777 -127.797868 
L 219.582785 -128.467658 
L 219.582798 -129.137448 
L 219.582804 -129.807238 
L 219.582801 -130.477028 
L 219.582798 -131.146818 
L 219.582806 -131.816608 
L 219.582807 -132.486398 
L 219.582809 -133.156188 
L 219.582812 -133.825978 
L 219.582812 -134.495768 
L 219.582812 -135.165558 
L 219.582812 -135.835348 
L 219.58281 -136.505138 
L 219.582811 -137.174928 
L 219.582811 -137.844718 
L 219.582812 -138.514508 
L 219.582812 -139.184298 
L 219.582811 -139.854088 
L 219.582812 -140.523878 
L 219.582813 -140.523878 
L 219.582813 -140.523878 
L 219.582814 -139.854088 
L 219.582813 -139.184298 
L 219.582813 -138.514508 
L 219.582814 -137.844718 
L 219.582814 -137.174928 
L 219.582815 -136.505138 
L 219.582813 -135.835348 
L 219.582813 -135.165558 
L 219.582813 -134.495768 
L 219.582813 -133.825978 
L 219.582816 -133.156188 
L 219.582818 -132.486398 
L 219.582819 -131.816608 
L 219.582827 -131.146818 
L 219.582824 -130.477028 
L 219.582821 -129.807238 
L 219.582827 -129.137448 
L 219.58284 -128.467658 
L 219.582848 -127.797868 
L 219.582867 -127.128078 
L 219.582871 -126.458288 
L 219.582883 -125.788498 
L 219.582897 -125.118708 
L 219.582921 -124.448918 
L 219.582973 -123.779128 
L 219.583005 -123.109338 
L 219.583101 -122.439548 
L 219.583184 -121.769758 
L 219.583278 -121.099968 
L 219.583454 -120.430178 
L 219.583693 -119.760388 
L 219.583907 -119.090598 
L 219.584361 -118.420808 
L 219.584836 -117.751018 
L 219.58568 -117.081228 
L 219.58671 -116.411438 
L 219.588134 -115.741648 
L 219.590301 -115.071858 
L 219.593136 -114.402068 
L 219.596674 -113.732278 
L 219.601127 -113.062488 
L 219.607339 -112.392698 
L 219.614672 -111.722908 
L 219.623654 -111.053118 
L 219.633907 -110.383328 
L 219.6452 -109.713538 
L 219.657002 -109.043748 
L 219.669122 -108.373958 
L 219.68125 -107.704168 
L 219.691138 -107.034378 
L 219.699193 -106.364588 
L 219.702996 -105.694798 
L 219.703308 -105.025008 
L 219.698994 -104.355218 
L 219.690843 -103.685428 
L 219.679966 -103.015638 
L 219.668213 -102.345848 
L 219.654998 -101.676058 
L 219.642627 -101.006268 
L 219.631534 -100.336478 
L 219.620709 -99.666688 
L 219.612389 -98.996898 
L 219.605152 -98.327108 
L 219.599548 -97.657318 
L 219.595173 -96.987528 
L 219.591795 -96.317738 
L 219.589226 -95.647948 
L 219.587395 -94.978158 
L 219.585904 -94.308368 
L 219.585018 -93.638578 
L 219.584439 -92.968788 
L 219.583924 -92.298998 
L 219.583556 -91.629208 
L 219.583337 -90.959418 
L 219.583234 -90.289628 
L 219.583081 -89.619838 
L 219.583036 -88.950048 
L 219.58295 -88.280258 
L 219.582927 -87.610468 
L 219.5829 -86.940678 
L 219.582891 -86.270888 
L 219.582866 -85.601098 
L 219.582845 -84.931308 
L 219.582829 -84.261518 
L 219.582831 -83.591728 
L 219.582835 -82.921938 
L 219.582824 -82.252148 
L 219.582821 -81.582358 
L 219.58282 -80.912568 
L 219.582822 -80.242778 
L 219.582818 -79.572988 
L 219.582816 -78.903198 
L 219.582818 -78.233408 
L 219.582815 -77.563618 
L 219.582814 -76.893828 
L 219.582814 -76.224038 
L 219.582815 -75.554248 
L 219.582817 -74.884458 
L 219.582813 -74.214668 
z
" style="stroke: #3f3f3f; stroke-width: 1.5"/>
    </defs>
    <g clip-path="url(#p166683d888)">
     <use xlink:href="#m89e5366eb7" x="0" y="194.158125" style="fill: #3274a1; stroke: #3f3f3f; stroke-width: 1.5"/>
    </g>
   </g>
   <g id="PolyCollection_3">
    <defs>
     <path id="mf2c3d4b5b5" d="M 331.182814 -98.765291 
L 331.182811 -98.765291 
L 331.182806 -98.886719 
L 331.182812 -99.008146 
L 331.182813 -99.129573 
L 331.182813 -99.251 
L 331.182813 -99.372428 
L 331.182813 -99.493855 
L 331.182813 -99.615282 
L 331.182813 -99.73671 
L 331.182813 -99.858137 
L 331.182813 -99.979564 
L 331.182812 -100.100992 
L 331.182793 -100.222419 
L 331.182804 -100.343846 
L 331.182812 -100.465273 
L 331.18281 -100.586701 
L 331.182806 -100.708128 
L 331.182793 -100.829555 
L 331.18278 -100.950983 
L 331.182777 -101.07241 
L 331.182749 -101.193837 
L 331.182784 -101.315265 
L 331.182719 -101.436692 
L 331.18272 -101.558119 
L 331.182718 -101.679546 
L 331.182732 -101.800974 
L 331.182673 -101.922401 
L 331.182531 -102.043828 
L 331.182502 -102.165256 
L 331.182357 -102.286683 
L 331.182193 -102.40811 
L 331.182146 -102.529538 
L 331.181982 -102.650965 
L 331.181417 -102.772392 
L 331.180891 -102.893819 
L 331.180239 -103.015247 
L 331.179139 -103.136674 
L 331.177234 -103.258101 
L 331.174238 -103.379529 
L 331.170149 -103.500956 
L 331.165014 -103.622383 
L 331.156746 -103.743811 
L 331.147414 -103.865238 
L 331.130045 -103.986665 
L 331.10823 -104.108092 
L 331.078801 -104.22952 
L 331.037882 -104.350947 
L 330.982744 -104.472374 
L 330.917623 -104.593802 
L 330.841962 -104.715229 
L 330.75394 -104.836656 
L 330.66273 -104.958083 
L 330.577116 -105.079511 
L 330.502966 -105.200938 
L 330.445204 -105.322365 
L 330.424222 -105.443793 
L 330.436428 -105.56522 
L 330.471473 -105.686647 
L 330.540622 -105.808075 
L 330.624737 -105.929502 
L 330.720506 -106.050929 
L 330.810407 -106.172356 
L 330.892922 -106.293784 
L 330.961414 -106.415211 
L 331.01821 -106.536638 
L 331.06293 -106.658066 
L 331.094475 -106.779493 
L 331.121651 -106.90092 
L 331.139201 -107.022348 
L 331.152163 -107.143775 
L 331.161488 -107.265202 
L 331.168782 -107.386629 
L 331.173293 -107.508057 
L 331.176389 -107.629484 
L 331.178094 -107.750911 
L 331.179319 -107.872339 
L 331.180451 -107.993766 
L 331.180954 -108.115193 
L 331.181503 -108.236621 
L 331.181992 -108.358048 
L 331.182098 -108.479475 
L 331.182336 -108.600902 
L 331.18252 -108.72233 
L 331.182573 -108.843757 
L 331.182619 -108.965184 
L 331.18269 -109.086612 
L 331.182742 -109.208039 
L 331.182712 -109.329466 
L 331.182761 -109.450894 
L 331.182735 -109.572321 
L 331.18276 -109.693748 
L 331.182793 -109.815175 
L 331.182779 -109.936603 
L 331.182789 -110.05803 
L 331.182802 -110.179457 
L 331.182812 -110.300885 
L 331.182812 -110.422312 
L 331.182795 -110.543739 
L 331.182804 -110.665167 
L 331.182811 -110.786594 
L 331.182814 -110.786594 
L 331.182814 -110.786594 
L 331.182821 -110.665167 
L 331.18283 -110.543739 
L 331.182813 -110.422312 
L 331.182813 -110.300885 
L 331.182823 -110.179457 
L 331.182836 -110.05803 
L 331.182846 -109.936603 
L 331.182832 -109.815175 
L 331.182865 -109.693748 
L 331.18289 -109.572321 
L 331.182864 -109.450894 
L 331.182913 -109.329466 
L 331.182883 -109.208039 
L 331.182935 -109.086612 
L 331.183006 -108.965184 
L 331.183052 -108.843757 
L 331.183105 -108.72233 
L 331.183289 -108.600902 
L 331.183527 -108.479475 
L 331.183633 -108.358048 
L 331.184122 -108.236621 
L 331.184671 -108.115193 
L 331.185174 -107.993766 
L 331.186306 -107.872339 
L 331.187531 -107.750911 
L 331.189236 -107.629484 
L 331.192332 -107.508057 
L 331.196843 -107.386629 
L 331.204137 -107.265202 
L 331.213462 -107.143775 
L 331.226424 -107.022348 
L 331.243974 -106.90092 
L 331.27115 -106.779493 
L 331.302695 -106.658066 
L 331.347415 -106.536638 
L 331.404211 -106.415211 
L 331.472703 -106.293784 
L 331.555218 -106.172356 
L 331.645119 -106.050929 
L 331.740888 -105.929502 
L 331.825003 -105.808075 
L 331.894152 -105.686647 
L 331.929197 -105.56522 
L 331.941403 -105.443793 
L 331.920421 -105.322365 
L 331.862659 -105.200938 
L 331.788509 -105.079511 
L 331.702895 -104.958083 
L 331.611685 -104.836656 
L 331.523663 -104.715229 
L 331.448002 -104.593802 
L 331.382881 -104.472374 
L 331.327743 -104.350947 
L 331.286824 -104.22952 
L 331.257395 -104.108092 
L 331.23558 -103.986665 
L 331.218211 -103.865238 
L 331.208879 -103.743811 
L 331.200611 -103.622383 
L 331.195476 -103.500956 
L 331.191387 -103.379529 
L 331.188391 -103.258101 
L 331.186486 -103.136674 
L 331.185386 -103.015247 
L 331.184734 -102.893819 
L 331.184208 -102.772392 
L 331.183643 -102.650965 
L 331.183479 -102.529538 
L 331.183432 -102.40811 
L 331.183268 -102.286683 
L 331.183123 -102.165256 
L 331.183094 -102.043828 
L 331.182952 -101.922401 
L 331.182893 -101.800974 
L 331.182907 -101.679546 
L 331.182905 -101.558119 
L 331.182906 -101.436692 
L 331.182841 -101.315265 
L 331.182876 -101.193837 
L 331.182848 -101.07241 
L 331.182845 -100.950983 
L 331.182832 -100.829555 
L 331.182819 -100.708128 
L 331.182815 -100.586701 
L 331.182813 -100.465273 
L 331.182821 -100.343846 
L 331.182832 -100.222419 
L 331.182813 -100.100992 
L 331.182813 -99.979564 
L 331.182813 -99.858137 
L 331.182813 -99.73671 
L 331.182813 -99.615282 
L 331.182813 -99.493855 
L 331.182813 -99.372428 
L 331.182813 -99.251 
L 331.182813 -99.129573 
L 331.182813 -99.008146 
L 331.182819 -98.886719 
L 331.182814 -98.765291 
z
" style="stroke: #3f3f3f; stroke-width: 1.5"/>
    </defs>
    <g clip-path="url(#p166683d888)">
     <use xlink:href="#mf2c3d4b5b5" x="0" y="194.158125" style="fill: #3274a1; stroke: #3f3f3f; stroke-width: 1.5"/>
    </g>
   </g>
   <g id="PolyCollection_4">
    <defs>
     <path id="mc0e518fc7e" d="M 442.782828 -104.535719 
L 442.782797 -104.535719 
L 442.782709 -104.55465 
L 442.782811 -104.573581 
L 442.782812 -104.592512 
L 442.782812 -104.611442 
L 442.782714 -104.630373 
L 442.782578 -104.649304 
L 442.782722 -104.668235 
L 442.782651 -104.687165 
L 442.782685 -104.706096 
L 442.782809 -104.725027 
L 442.782772 -104.743957 
L 442.782514 -104.762888 
L 442.782435 -104.781819 
L 442.782491 -104.80075 
L 442.782468 -104.81968 
L 442.78208 -104.838611 
L 442.782288 -104.857542 
L 442.78202 -104.876473 
L 442.781189 -104.895403 
L 442.781385 -104.914334 
L 442.780463 -104.933265 
L 442.778735 -104.952195 
L 442.778558 -104.971126 
L 442.777671 -104.990057 
L 442.774815 -105.008988 
L 442.771654 -105.027918 
L 442.767147 -105.046849 
L 442.763158 -105.06578 
L 442.750995 -105.08471 
L 442.7444 -105.103641 
L 442.731259 -105.122572 
L 442.714246 -105.141503 
L 442.685411 -105.160433 
L 442.647911 -105.179364 
L 442.590702 -105.198295 
L 442.523866 -105.217226 
L 442.419525 -105.236156 
L 442.279455 -105.255087 
L 442.083952 -105.274018 
L 441.839162 -105.292948 
L 441.507144 -105.311879 
L 441.122861 -105.33081 
L 440.649289 -105.349741 
L 440.13714 -105.368671 
L 439.62511 -105.387602 
L 439.073446 -105.406533 
L 438.583662 -105.425464 
L 438.234347 -105.444394 
L 438.046769 -105.463325 
L 438.073182 -105.482256 
L 438.317608 -105.501186 
L 438.710918 -105.520117 
L 439.191257 -105.539048 
L 439.704183 -105.557979 
L 440.244723 -105.576909 
L 440.772872 -105.59584 
L 441.234088 -105.614771 
L 441.626668 -105.633702 
L 441.92331 -105.652632 
L 442.157371 -105.671563 
L 442.343959 -105.690494 
L 442.4637 -105.709424 
L 442.566099 -105.728355 
L 442.637803 -105.747286 
L 442.679059 -105.766217 
L 442.710143 -105.785147 
L 442.731614 -105.804078 
L 442.746832 -105.823009 
L 442.758553 -105.841939 
L 442.763587 -105.86087 
L 442.769771 -105.879801 
L 442.772708 -105.898732 
L 442.775886 -105.917662 
L 442.777359 -105.936593 
L 442.779118 -105.955524 
L 442.779857 -105.974455 
L 442.780912 -105.993385 
L 442.781491 -106.012316 
L 442.781143 -106.031247 
L 442.781173 -106.050177 
L 442.781556 -106.069108 
L 442.782108 -106.088039 
L 442.782278 -106.10697 
L 442.782493 -106.1259 
L 442.782487 -106.144831 
L 442.782577 -106.163762 
L 442.782671 -106.182693 
L 442.782593 -106.201623 
L 442.782596 -106.220554 
L 442.78271 -106.239485 
L 442.782791 -106.258415 
L 442.782701 -106.277346 
L 442.782745 -106.296277 
L 442.78269 -106.315208 
L 442.782773 -106.334138 
L 442.782812 -106.353069 
L 442.782811 -106.372 
L 442.782709 -106.390931 
L 442.782797 -106.409861 
L 442.782828 -106.409861 
L 442.782828 -106.409861 
L 442.782916 -106.390931 
L 442.782814 -106.372 
L 442.782813 -106.353069 
L 442.782852 -106.334138 
L 442.782935 -106.315208 
L 442.78288 -106.296277 
L 442.782924 -106.277346 
L 442.782834 -106.258415 
L 442.782915 -106.239485 
L 442.783029 -106.220554 
L 442.783032 -106.201623 
L 442.782954 -106.182693 
L 442.783048 -106.163762 
L 442.783138 -106.144831 
L 442.783132 -106.1259 
L 442.783347 -106.10697 
L 442.783517 -106.088039 
L 442.784069 -106.069108 
L 442.784452 -106.050177 
L 442.784482 -106.031247 
L 442.784134 -106.012316 
L 442.784713 -105.993385 
L 442.785768 -105.974455 
L 442.786507 -105.955524 
L 442.788266 -105.936593 
L 442.789739 -105.917662 
L 442.792917 -105.898732 
L 442.795854 -105.879801 
L 442.802038 -105.86087 
L 442.807072 -105.841939 
L 442.818793 -105.823009 
L 442.834011 -105.804078 
L 442.855482 -105.785147 
L 442.886566 -105.766217 
L 442.927822 -105.747286 
L 442.999526 -105.728355 
L 443.101925 -105.709424 
L 443.221666 -105.690494 
L 443.408254 -105.671563 
L 443.642315 -105.652632 
L 443.938957 -105.633702 
L 444.331537 -105.614771 
L 444.792753 -105.59584 
L 445.320902 -105.576909 
L 445.861442 -105.557979 
L 446.374368 -105.539048 
L 446.854707 -105.520117 
L 447.248017 -105.501186 
L 447.492443 -105.482256 
L 447.518856 -105.463325 
L 447.331278 -105.444394 
L 446.981963 -105.425464 
L 446.492179 -105.406533 
L 445.940515 -105.387602 
L 445.428485 -105.368671 
L 444.916336 -105.349741 
L 444.442764 -105.33081 
L 444.058481 -105.311879 
L 443.726463 -105.292948 
L 443.481673 -105.274018 
L 443.28617 -105.255087 
L 443.1461 -105.236156 
L 443.041759 -105.217226 
L 442.974923 -105.198295 
L 442.917714 -105.179364 
L 442.880214 -105.160433 
L 442.851379 -105.141503 
L 442.834366 -105.122572 
L 442.821225 -105.103641 
L 442.81463 -105.08471 
L 442.802467 -105.06578 
L 442.798478 -105.046849 
L 442.793971 -105.027918 
L 442.79081 -105.008988 
L 442.787954 -104.990057 
L 442.787067 -104.971126 
L 442.78689 -104.952195 
L 442.785162 -104.933265 
L 442.78424 -104.914334 
L 442.784436 -104.895403 
L 442.783605 -104.876473 
L 442.783337 -104.857542 
L 442.783545 -104.838611 
L 442.783157 -104.81968 
L 442.783134 -104.80075 
L 442.78319 -104.781819 
L 442.783111 -104.762888 
L 442.782853 -104.743957 
L 442.782816 -104.725027 
L 442.78294 -104.706096 
L 442.782974 -104.687165 
L 442.782903 -104.668235 
L 442.783047 -104.649304 
L 442.782911 -104.630373 
L 442.782813 -104.611442 
L 442.782813 -104.592512 
L 442.782814 -104.573581 
L 442.782916 -104.55465 
L 442.782828 -104.535719 
z
" style="stroke: #3f3f3f; stroke-width: 1.5"/>
    </defs>
    <g clip-path="url(#p166683d888)">
     <use xlink:href="#mc0e518fc7e" x="0" y="194.158125" style="fill: #3274a1; stroke: #3f3f3f; stroke-width: 1.5"/>
    </g>
   </g>
   <g id="PolyCollection_5">
    <defs>
     <path id="mdd55e45b4b" d="M 554.383916 -105.390591 
L 554.381709 -105.390591 
L 554.377606 -105.392058 
L 554.3747 -105.393524 
L 554.378635 -105.394991 
L 554.382037 -105.396458 
L 554.381788 -105.397924 
L 554.377884 -105.399391 
L 554.374665 -105.400858 
L 554.378333 -105.402324 
L 554.381366 -105.403791 
L 554.377523 -105.405258 
L 554.364704 -105.406724 
L 554.353407 -105.408191 
L 554.35841 -105.409658 
L 554.366825 -105.411124 
L 554.368305 -105.412591 
L 554.364257 -105.414058 
L 554.347011 -105.415524 
L 554.313768 -105.416991 
L 554.288754 -105.418458 
L 554.28431 -105.419924 
L 554.264104 -105.421391 
L 554.215126 -105.422858 
L 554.14687 -105.424324 
L 554.092635 -105.425791 
L 554.072044 -105.427258 
L 554.069529 -105.428725 
L 554.055902 -105.430191 
L 553.896755 -105.431658 
L 553.63268 -105.433125 
L 553.456267 -105.434591 
L 553.272058 -105.436058 
L 552.971416 -105.437525 
L 552.6306 -105.438991 
L 552.187176 -105.440458 
L 551.594916 -105.441925 
L 550.914349 -105.443391 
L 550.139475 -105.444858 
L 549.153734 -105.446325 
L 547.985967 -105.447791 
L 546.647961 -105.449258 
L 544.968779 -105.450725 
L 543.214988 -105.452191 
L 541.284809 -105.453658 
L 538.587858 -105.455125 
L 535.232595 -105.456591 
L 531.850572 -105.458058 
L 528.308413 -105.459525 
L 524.207755 -105.460991 
L 520.020854 -105.462458 
L 516.227617 -105.463925 
L 512.965101 -105.465391 
L 510.863208 -105.466858 
L 509.742813 -105.468325 
L 509.826371 -105.469791 
L 511.180814 -105.471258 
L 513.425847 -105.472725 
L 516.333111 -105.474192 
L 519.523708 -105.475658 
L 522.715351 -105.477125 
L 526.460976 -105.478592 
L 530.110137 -105.480058 
L 533.012262 -105.481525 
L 535.96697 -105.482992 
L 538.926776 -105.484458 
L 541.289663 -105.485925 
L 543.326788 -105.487392 
L 545.330496 -105.488858 
L 547.207694 -105.490325 
L 548.727044 -105.491792 
L 549.939981 -105.493258 
L 550.977373 -105.494725 
L 551.830294 -105.496192 
L 552.323866 -105.497658 
L 552.716522 -105.499125 
L 553.214569 -105.500592 
L 553.59657 -105.502058 
L 553.803841 -105.503525 
L 553.952295 -105.504992 
L 554.056282 -105.506458 
L 554.121331 -105.507925 
L 554.152698 -105.509392 
L 554.203384 -105.510858 
L 554.26159 -105.512325 
L 554.298676 -105.513792 
L 554.309954 -105.515258 
L 554.304218 -105.516725 
L 554.298128 -105.518192 
L 554.310082 -105.519658 
L 554.346271 -105.521125 
L 554.356014 -105.522592 
L 554.351309 -105.524059 
L 554.3606 -105.525525 
L 554.371 -105.526992 
L 554.374991 -105.528459 
L 554.366912 -105.529925 
L 554.356444 -105.531392 
L 554.361167 -105.532859 
L 554.374537 -105.534325 
L 554.381466 -105.535792 
L 554.384159 -105.535792 
L 554.384159 -105.535792 
L 554.391088 -105.534325 
L 554.404458 -105.532859 
L 554.409181 -105.531392 
L 554.398713 -105.529925 
L 554.390634 -105.528459 
L 554.394625 -105.526992 
L 554.405025 -105.525525 
L 554.414316 -105.524059 
L 554.409611 -105.522592 
L 554.419354 -105.521125 
L 554.455543 -105.519658 
L 554.467497 -105.518192 
L 554.461407 -105.516725 
L 554.455671 -105.515258 
L 554.466949 -105.513792 
L 554.504035 -105.512325 
L 554.562241 -105.510858 
L 554.612927 -105.509392 
L 554.644294 -105.507925 
L 554.709343 -105.506458 
L 554.81333 -105.504992 
L 554.961784 -105.503525 
L 555.169055 -105.502058 
L 555.551056 -105.500592 
L 556.049103 -105.499125 
L 556.441759 -105.497658 
L 556.935331 -105.496192 
L 557.788252 -105.494725 
L 558.825644 -105.493258 
L 560.038581 -105.491792 
L 561.557931 -105.490325 
L 563.435129 -105.488858 
L 565.438837 -105.487392 
L 567.475962 -105.485925 
L 569.838849 -105.484458 
L 572.798655 -105.482992 
L 575.753363 -105.481525 
L 578.655488 -105.480058 
L 582.304649 -105.478592 
L 586.050274 -105.477125 
L 589.241917 -105.475658 
L 592.432514 -105.474192 
L 595.339778 -105.472725 
L 597.584811 -105.471258 
L 598.939254 -105.469791 
L 599.022813 -105.468325 
L 597.902417 -105.466858 
L 595.800524 -105.465391 
L 592.538008 -105.463925 
L 588.744771 -105.462458 
L 584.55787 -105.460991 
L 580.457212 -105.459525 
L 576.915053 -105.458058 
L 573.53303 -105.456591 
L 570.177767 -105.455125 
L 567.480816 -105.453658 
L 565.550637 -105.452191 
L 563.796846 -105.450725 
L 562.117664 -105.449258 
L 560.779658 -105.447791 
L 559.611891 -105.446325 
L 558.62615 -105.444858 
L 557.851276 -105.443391 
L 557.170709 -105.441925 
L 556.578449 -105.440458 
L 556.135025 -105.438991 
L 555.794209 -105.437525 
L 555.493567 -105.436058 
L 555.309358 -105.434591 
L 555.132945 -105.433125 
L 554.86887 -105.431658 
L 554.709723 -105.430191 
L 554.696096 -105.428725 
L 554.693581 -105.427258 
L 554.67299 -105.425791 
L 554.618755 -105.424324 
L 554.550499 -105.422858 
L 554.501521 -105.421391 
L 554.481315 -105.419924 
L 554.476871 -105.418458 
L 554.451857 -105.416991 
L 554.418614 -105.415524 
L 554.401368 -105.414058 
L 554.39732 -105.412591 
L 554.3988 -105.411124 
L 554.407215 -105.409658 
L 554.412218 -105.408191 
L 554.400921 -105.406724 
L 554.388102 -105.405258 
L 554.384259 -105.403791 
L 554.387292 -105.402324 
L 554.39096 -105.400858 
L 554.387741 -105.399391 
L 554.383837 -105.397924 
L 554.383588 -105.396458 
L 554.38699 -105.394991 
L 554.390925 -105.393524 
L 554.388019 -105.392058 
L 554.383916 -105.390591 
z
" style="stroke: #3f3f3f; stroke-width: 1.5"/>
    </defs>
    <g clip-path="url(#p166683d888)">
     <use xlink:href="#mdd55e45b4b" x="0" y="194.158125" style="fill: #3274a1; stroke: #3f3f3f; stroke-width: 1.5"/>
    </g>
   </g>
   <g id="matplotlib.axis_1">
    <g id="xtick_1">
     <g id="line2d_1">
      <defs>
       <path id="m07e4a093b9" d="M 0 0 
L 0 3.5 
" style="stroke: #000000; stroke-width: 0.8"/>
      </defs>
      <g>
       <use xlink:href="#m07e4a093b9" x="107.982813" y="170.28" style="stroke: #000000; stroke-width: 0.8"/>
      </g>
     </g>
     <g id="text_1">
      <!-- (1, tanh) -->
      <g transform="translate(86.360156 184.878438)scale(0.1 -0.1)">
       <defs>
        <path id="DejaVuSans-28" d="M 1984 4856 
Q 1566 4138 1362 3434 
Q 1159 2731 1159 2009 
Q 1159 1288 1364 580 
Q 1569 -128 1984 -844 
L 1484 -844 
Q 1016 -109 783 600 
Q 550 1309 550 2009 
Q 550 2706 781 3412 
Q 1013 4119 1484 4856 
L 1984 4856 
z
" transform="scale(0.015625)"/>
        <path id="DejaVuSans-31" d="M 794 531 
L 1825 531 
L 1825 4091 
L 703 3866 
L 703 4441 
L 1819 4666 
L 2450 4666 
L 2450 531 
L 3481 531 
L 3481 0 
L 794 0 
L 794 531 
z
" transform="scale(0.015625)"/>
        <path id="DejaVuSans-2c" d="M 750 794 
L 1409 794 
L 1409 256 
L 897 -744 
L 494 -744 
L 750 256 
L 750 794 
z
" transform="scale(0.015625)"/>
        <path id="DejaVuSans-20" transform="scale(0.015625)"/>
        <path id="DejaVuSans-74" d="M 1172 4494 
L 1172 3500 
L 2356 3500 
L 2356 3053 
L 1172 3053 
L 1172 1153 
Q 1172 725 1289 603 
Q 1406 481 1766 481 
L 2356 481 
L 2356 0 
L 1766 0 
Q 1100 0 847 248 
Q 594 497 594 1153 
L 594 3053 
L 172 3053 
L 172 3500 
L 594 3500 
L 594 4494 
L 1172 4494 
z
" transform="scale(0.015625)"/>
        <path id="DejaVuSans-61" d="M 2194 1759 
Q 1497 1759 1228 1600 
Q 959 1441 959 1056 
Q 959 750 1161 570 
Q 1363 391 1709 391 
Q 2188 391 2477 730 
Q 2766 1069 2766 1631 
L 2766 1759 
L 2194 1759 
z
M 3341 1997 
L 3341 0 
L 2766 0 
L 2766 531 
Q 2569 213 2275 61 
Q 1981 -91 1556 -91 
Q 1019 -91 701 211 
Q 384 513 384 1019 
Q 384 1609 779 1909 
Q 1175 2209 1959 2209 
L 2766 2209 
L 2766 2266 
Q 2766 2663 2505 2880 
Q 2244 3097 1772 3097 
Q 1472 3097 1187 3025 
Q 903 2953 641 2809 
L 641 3341 
Q 956 3463 1253 3523 
Q 1550 3584 1831 3584 
Q 2591 3584 2966 3190 
Q 3341 2797 3341 1997 
z
" transform="scale(0.015625)"/>
        <path id="DejaVuSans-6e" d="M 3513 2113 
L 3513 0 
L 2938 0 
L 2938 2094 
Q 2938 2591 2744 2837 
Q 2550 3084 2163 3084 
Q 1697 3084 1428 2787 
Q 1159 2491 1159 1978 
L 1159 0 
L 581 0 
L 581 3500 
L 1159 3500 
L 1159 2956 
Q 1366 3272 1645 3428 
Q 1925 3584 2291 3584 
Q 2894 3584 3203 3211 
Q 3513 2838 3513 2113 
z
" transform="scale(0.015625)"/>
        <path id="DejaVuSans-68" d="M 3513 2113 
L 3513 0 
L 2938 0 
L 2938 2094 
Q 2938 2591 2744 2837 
Q 2550 3084 2163 3084 
Q 1697 3084 1428 2787 
Q 1159 2491 1159 1978 
L 1159 0 
L 581 0 
L 581 4863 
L 1159 4863 
L 1159 2956 
Q 1366 3272 1645 3428 
Q 1925 3584 2291 3584 
Q 2894 3584 3203 3211 
Q 3513 2838 3513 2113 
z
" transform="scale(0.015625)"/>
        <path id="DejaVuSans-29" d="M 513 4856 
L 1013 4856 
Q 1481 4119 1714 3412 
Q 1947 2706 1947 2009 
Q 1947 1309 1714 600 
Q 1481 -109 1013 -844 
L 513 -844 
Q 928 -128 1133 580 
Q 1338 1288 1338 2009 
Q 1338 2731 1133 3434 
Q 928 4138 513 4856 
z
" transform="scale(0.015625)"/>
       </defs>
       <use xlink:href="#DejaVuSans-28"/>
       <use xlink:href="#DejaVuSans-31" x="39.013672"/>
       <use xlink:href="#DejaVuSans-2c" x="102.636719"/>
       <use xlink:href="#DejaVuSans-20" x="134.423828"/>
       <use xlink:href="#DejaVuSans-74" x="166.210938"/>
       <use xlink:href="#DejaVuSans-61" x="205.419922"/>
       <use xlink:href="#DejaVuSans-6e" x="266.699219"/>
       <use xlink:href="#DejaVuSans-68" x="330.078125"/>
       <use xlink:href="#DejaVuSans-29" x="393.457031"/>
      </g>
     </g>
    </g>
    <g id="xtick_2">
     <g id="line2d_2">
      <g>
       <use xlink:href="#m07e4a093b9" x="219.582813" y="170.28" style="stroke: #000000; stroke-width: 0.8"/>
      </g>
     </g>
     <g id="text_2">
      <!-- (2, tanh) -->
      <g transform="translate(197.960156 184.878438)scale(0.1 -0.1)">
       <defs>
        <path id="DejaVuSans-32" d="M 1228 531 
L 3431 531 
L 3431 0 
L 469 0 
L 469 531 
Q 828 903 1448 1529 
Q 2069 2156 2228 2338 
Q 2531 2678 2651 2914 
Q 2772 3150 2772 3378 
Q 2772 3750 2511 3984 
Q 2250 4219 1831 4219 
Q 1534 4219 1204 4116 
Q 875 4013 500 3803 
L 500 4441 
Q 881 4594 1212 4672 
Q 1544 4750 1819 4750 
Q 2544 4750 2975 4387 
Q 3406 4025 3406 3419 
Q 3406 3131 3298 2873 
Q 3191 2616 2906 2266 
Q 2828 2175 2409 1742 
Q 1991 1309 1228 531 
z
" transform="scale(0.015625)"/>
       </defs>
       <use xlink:href="#DejaVuSans-28"/>
       <use xlink:href="#DejaVuSans-32" x="39.013672"/>
       <use xlink:href="#DejaVuSans-2c" x="102.636719"/>
       <use xlink:href="#DejaVuSans-20" x="134.423828"/>
       <use xlink:href="#DejaVuSans-74" x="166.210938"/>
       <use xlink:href="#DejaVuSans-61" x="205.419922"/>
       <use xlink:href="#DejaVuSans-6e" x="266.699219"/>
       <use xlink:href="#DejaVuSans-68" x="330.078125"/>
       <use xlink:href="#DejaVuSans-29" x="393.457031"/>
      </g>
     </g>
    </g>
    <g id="xtick_3">
     <g id="line2d_3">
      <g>
       <use xlink:href="#m07e4a093b9" x="331.182813" y="170.28" style="stroke: #000000; stroke-width: 0.8"/>
      </g>
     </g>
     <g id="text_3">
      <!-- (3, tanh) -->
      <g transform="translate(309.560156 184.878438)scale(0.1 -0.1)">
       <defs>
        <path id="DejaVuSans-33" d="M 2597 2516 
Q 3050 2419 3304 2112 
Q 3559 1806 3559 1356 
Q 3559 666 3084 287 
Q 2609 -91 1734 -91 
Q 1441 -91 1130 -33 
Q 819 25 488 141 
L 488 750 
Q 750 597 1062 519 
Q 1375 441 1716 441 
Q 2309 441 2620 675 
Q 2931 909 2931 1356 
Q 2931 1769 2642 2001 
Q 2353 2234 1838 2234 
L 1294 2234 
L 1294 2753 
L 1863 2753 
Q 2328 2753 2575 2939 
Q 2822 3125 2822 3475 
Q 2822 3834 2567 4026 
Q 2313 4219 1838 4219 
Q 1578 4219 1281 4162 
Q 984 4106 628 3988 
L 628 4550 
Q 988 4650 1302 4700 
Q 1616 4750 1894 4750 
Q 2613 4750 3031 4423 
Q 3450 4097 3450 3541 
Q 3450 3153 3228 2886 
Q 3006 2619 2597 2516 
z
" transform="scale(0.015625)"/>
       </defs>
       <use xlink:href="#DejaVuSans-28"/>
       <use xlink:href="#DejaVuSans-33" x="39.013672"/>
       <use xlink:href="#DejaVuSans-2c" x="102.636719"/>
       <use xlink:href="#DejaVuSans-20" x="134.423828"/>
       <use xlink:href="#DejaVuSans-74" x="166.210938"/>
       <use xlink:href="#DejaVuSans-61" x="205.419922"/>
       <use xlink:href="#DejaVuSans-6e" x="266.699219"/>
       <use xlink:href="#DejaVuSans-68" x="330.078125"/>
       <use xlink:href="#DejaVuSans-29" x="393.457031"/>
      </g>
     </g>
    </g>
    <g id="xtick_4">
     <g id="line2d_4">
      <g>
       <use xlink:href="#m07e4a093b9" x="442.782813" y="170.28" style="stroke: #000000; stroke-width: 0.8"/>
      </g>
     </g>
     <g id="text_4">
      <!-- (4, tanh) -->
      <g transform="translate(421.160156 184.878438)scale(0.1 -0.1)">
       <defs>
        <path id="DejaVuSans-34" d="M 2419 4116 
L 825 1625 
L 2419 1625 
L 2419 4116 
z
M 2253 4666 
L 3047 4666 
L 3047 1625 
L 3713 1625 
L 3713 1100 
L 3047 1100 
L 3047 0 
L 2419 0 
L 2419 1100 
L 313 1100 
L 313 1709 
L 2253 4666 
z
" transform="scale(0.015625)"/>
       </defs>
       <use xlink:href="#DejaVuSans-28"/>
       <use xlink:href="#DejaVuSans-34" x="39.013672"/>
       <use xlink:href="#DejaVuSans-2c" x="102.636719"/>
       <use xlink:href="#DejaVuSans-20" x="134.423828"/>
       <use xlink:href="#DejaVuSans-74" x="166.210938"/>
       <use xlink:href="#DejaVuSans-61" x="205.419922"/>
       <use xlink:href="#DejaVuSans-6e" x="266.699219"/>
       <use xlink:href="#DejaVuSans-68" x="330.078125"/>
       <use xlink:href="#DejaVuSans-29" x="393.457031"/>
      </g>
     </g>
    </g>
    <g id="xtick_5">
     <g id="line2d_5">
      <g>
       <use xlink:href="#m07e4a093b9" x="554.382812" y="170.28" style="stroke: #000000; stroke-width: 0.8"/>
      </g>
     </g>
     <g id="text_5">
      <!-- logits -->
      <g transform="translate(540.80625 184.878438)scale(0.1 -0.1)">
       <defs>
        <path id="DejaVuSans-6c" d="M 603 4863 
L 1178 4863 
L 1178 0 
L 603 0 
L 603 4863 
z
" transform="scale(0.015625)"/>
        <path id="DejaVuSans-6f" d="M 1959 3097 
Q 1497 3097 1228 2736 
Q 959 2375 959 1747 
Q 959 1119 1226 758 
Q 1494 397 1959 397 
Q 2419 397 2687 759 
Q 2956 1122 2956 1747 
Q 2956 2369 2687 2733 
Q 2419 3097 1959 3097 
z
M 1959 3584 
Q 2709 3584 3137 3096 
Q 3566 2609 3566 1747 
Q 3566 888 3137 398 
Q 2709 -91 1959 -91 
Q 1206 -91 779 398 
Q 353 888 353 1747 
Q 353 2609 779 3096 
Q 1206 3584 1959 3584 
z
" transform="scale(0.015625)"/>
        <path id="DejaVuSans-67" d="M 2906 1791 
Q 2906 2416 2648 2759 
Q 2391 3103 1925 3103 
Q 1463 3103 1205 2759 
Q 947 2416 947 1791 
Q 947 1169 1205 825 
Q 1463 481 1925 481 
Q 2391 481 2648 825 
Q 2906 1169 2906 1791 
z
M 3481 434 
Q 3481 -459 3084 -895 
Q 2688 -1331 1869 -1331 
Q 1566 -1331 1297 -1286 
Q 1028 -1241 775 -1147 
L 775 -588 
Q 1028 -725 1275 -790 
Q 1522 -856 1778 -856 
Q 2344 -856 2625 -561 
Q 2906 -266 2906 331 
L 2906 616 
Q 2728 306 2450 153 
Q 2172 0 1784 0 
Q 1141 0 747 490 
Q 353 981 353 1791 
Q 353 2603 747 3093 
Q 1141 3584 1784 3584 
Q 2172 3584 2450 3431 
Q 2728 3278 2906 2969 
L 2906 3500 
L 3481 3500 
L 3481 434 
z
" transform="scale(0.015625)"/>
        <path id="DejaVuSans-69" d="M 603 3500 
L 1178 3500 
L 1178 0 
L 603 0 
L 603 3500 
z
M 603 4863 
L 1178 4863 
L 1178 4134 
L 603 4134 
L 603 4863 
z
" transform="scale(0.015625)"/>
        <path id="DejaVuSans-73" d="M 2834 3397 
L 2834 2853 
Q 2591 2978 2328 3040 
Q 2066 3103 1784 3103 
Q 1356 3103 1142 2972 
Q 928 2841 928 2578 
Q 928 2378 1081 2264 
Q 1234 2150 1697 2047 
L 1894 2003 
Q 2506 1872 2764 1633 
Q 3022 1394 3022 966 
Q 3022 478 2636 193 
Q 2250 -91 1575 -91 
Q 1294 -91 989 -36 
Q 684 19 347 128 
L 347 722 
Q 666 556 975 473 
Q 1284 391 1588 391 
Q 1994 391 2212 530 
Q 2431 669 2431 922 
Q 2431 1156 2273 1281 
Q 2116 1406 1581 1522 
L 1381 1569 
Q 847 1681 609 1914 
Q 372 2147 372 2553 
Q 372 3047 722 3315 
Q 1072 3584 1716 3584 
Q 2034 3584 2315 3537 
Q 2597 3491 2834 3397 
z
" transform="scale(0.015625)"/>
       </defs>
       <use xlink:href="#DejaVuSans-6c"/>
       <use xlink:href="#DejaVuSans-6f" x="27.783203"/>
       <use xlink:href="#DejaVuSans-67" x="88.964844"/>
       <use xlink:href="#DejaVuSans-69" x="152.441406"/>
       <use xlink:href="#DejaVuSans-74" x="180.224609"/>
       <use xlink:href="#DejaVuSans-73" x="219.433594"/>
      </g>
     </g>
    </g>
   </g>
   <g id="matplotlib.axis_2">
    <g id="ytick_1">
     <g id="line2d_6">
      <defs>
       <path id="m62670a4856" d="M 0 0 
L -3.5 0 
" style="stroke: #000000; stroke-width: 0.8"/>
      </defs>
      <g>
       <use xlink:href="#m62670a4856" x="52.182813" y="160.883754" style="stroke: #000000; stroke-width: 0.8"/>
      </g>
     </g>
     <g id="text_6">
      <!-- −1.0 -->
      <g transform="translate(20.9 164.682972)scale(0.1 -0.1)">
       <defs>
        <path id="DejaVuSans-2212" d="M 678 2272 
L 4684 2272 
L 4684 1741 
L 678 1741 
L 678 2272 
z
" transform="scale(0.015625)"/>
        <path id="DejaVuSans-2e" d="M 684 794 
L 1344 794 
L 1344 0 
L 684 0 
L 684 794 
z
" transform="scale(0.015625)"/>
        <path id="DejaVuSans-30" d="M 2034 4250 
Q 1547 4250 1301 3770 
Q 1056 3291 1056 2328 
Q 1056 1369 1301 889 
Q 1547 409 2034 409 
Q 2525 409 2770 889 
Q 3016 1369 3016 2328 
Q 3016 3291 2770 3770 
Q 2525 4250 2034 4250 
z
M 2034 4750 
Q 2819 4750 3233 4129 
Q 3647 3509 3647 2328 
Q 3647 1150 3233 529 
Q 2819 -91 2034 -91 
Q 1250 -91 836 529 
Q 422 1150 422 2328 
Q 422 3509 836 4129 
Q 1250 4750 2034 4750 
z
" transform="scale(0.015625)"/>
       </defs>
       <use xlink:href="#DejaVuSans-2212"/>
       <use xlink:href="#DejaVuSans-31" x="83.789062"/>
       <use xlink:href="#DejaVuSans-2e" x="147.412109"/>
       <use xlink:href="#DejaVuSans-30" x="179.199219"/>
      </g>
     </g>
    </g>
    <g id="ytick_2">
     <g id="line2d_7">
      <g>
       <use xlink:href="#m62670a4856" x="52.182813" y="124.786286" style="stroke: #000000; stroke-width: 0.8"/>
      </g>
     </g>
     <g id="text_7">
      <!-- −0.5 -->
      <g transform="translate(20.9 128.585505)scale(0.1 -0.1)">
       <defs>
        <path id="DejaVuSans-35" d="M 691 4666 
L 3169 4666 
L 3169 4134 
L 1269 4134 
L 1269 2991 
Q 1406 3038 1543 3061 
Q 1681 3084 1819 3084 
Q 2600 3084 3056 2656 
Q 3513 2228 3513 1497 
Q 3513 744 3044 326 
Q 2575 -91 1722 -91 
Q 1428 -91 1123 -41 
Q 819 9 494 109 
L 494 744 
Q 775 591 1075 516 
Q 1375 441 1709 441 
Q 2250 441 2565 725 
Q 2881 1009 2881 1497 
Q 2881 1984 2565 2268 
Q 2250 2553 1709 2553 
Q 1456 2553 1204 2497 
Q 953 2441 691 2322 
L 691 4666 
z
" transform="scale(0.015625)"/>
       </defs>
       <use xlink:href="#DejaVuSans-2212"/>
       <use xlink:href="#DejaVuSans-30" x="83.789062"/>
       <use xlink:href="#DejaVuSans-2e" x="147.412109"/>
       <use xlink:href="#DejaVuSans-35" x="179.199219"/>
      </g>
     </g>
    </g>
    <g id="ytick_3">
     <g id="line2d_8">
      <g>
       <use xlink:href="#m62670a4856" x="52.182813" y="88.688818" style="stroke: #000000; stroke-width: 0.8"/>
      </g>
     </g>
     <g id="text_8">
      <!-- 0.0 -->
      <g transform="translate(29.279688 92.488037)scale(0.1 -0.1)">
       <use xlink:href="#DejaVuSans-30"/>
       <use xlink:href="#DejaVuSans-2e" x="63.623047"/>
       <use xlink:href="#DejaVuSans-30" x="95.410156"/>
      </g>
     </g>
    </g>
    <g id="ytick_4">
     <g id="line2d_9">
      <g>
       <use xlink:href="#m62670a4856" x="52.182813" y="52.591351" style="stroke: #000000; stroke-width: 0.8"/>
      </g>
     </g>
     <g id="text_9">
      <!-- 0.5 -->
      <g transform="translate(29.279688 56.390569)scale(0.1 -0.1)">
       <use xlink:href="#DejaVuSans-30"/>
       <use xlink:href="#DejaVuSans-2e" x="63.623047"/>
       <use xlink:href="#DejaVuSans-35" x="95.410156"/>
      </g>
     </g>
    </g>
    <g id="ytick_5">
     <g id="line2d_10">
      <g>
       <use xlink:href="#m62670a4856" x="52.182813" y="16.493883" style="stroke: #000000; stroke-width: 0.8"/>
      </g>
     </g>
     <g id="text_10">
      <!-- 1.0 -->
      <g transform="translate(29.279688 20.293102)scale(0.1 -0.1)">
       <use xlink:href="#DejaVuSans-31"/>
       <use xlink:href="#DejaVuSans-2e" x="63.623047"/>
       <use xlink:href="#DejaVuSans-30" x="95.410156"/>
      </g>
     </g>
    </g>
    <g id="text_11">
     <!-- ${\phi}$ -->
     <g transform="translate(14.8 92.04)rotate(-90)scale(0.1 -0.1)">
      <defs>
       <path id="DejaVuSans-Oblique-3d5" d="M 2991 4863 
L 2738 3572 
Q 3363 3572 3684 3094 
Q 4016 2606 3850 1747 
Q 3681 888 3159 400 
Q 2653 -78 2028 -78 
L 1784 -1331 
L 1213 -1331 
L 1456 -78 
Q 834 -78 509 400 
Q 178 888 347 1747 
Q 513 2606 1034 3094 
Q 1544 3572 2166 3572 
L 2419 4863 
L 2991 4863 
z
M 2128 434 
Q 2481 434 2784 756 
Q 3116 1116 3244 1747 
Q 3369 2372 3169 2738 
Q 2991 3059 2638 3059 
L 2128 434 
z
M 1556 434 
L 2066 3059 
Q 1716 3059 1413 2738 
Q 1072 2372 953 1747 
Q 834 1116 1028 756 
Q 1203 434 1556 434 
z
" transform="scale(0.015625)"/>
      </defs>
      <use xlink:href="#DejaVuSans-Oblique-3d5" transform="translate(0 0.015625)"/>
     </g>
    </g>
   </g>
   <g id="line2d_11">
    <path d="M 107.982813 137.628832 
L 107.982813 39.814346 
" clip-path="url(#p166683d888)" style="fill: none; stroke: #3f3f3f; stroke-width: 1.5; stroke-linecap: square"/>
   </g>
   <g id="line2d_12">
    <path d="M 107.982813 100.949032 
L 107.982813 76.494894 
" clip-path="url(#p166683d888)" style="fill: none; stroke: #3f3f3f; stroke-width: 4.5; stroke-linecap: square"/>
   </g>
   <g id="line2d_13">
    <path d="M 219.582813 99.20796 
L 219.582813 78.203322 
" clip-path="url(#p166683d888)" style="fill: none; stroke: #3f3f3f; stroke-width: 1.5; stroke-linecap: square"/>
   </g>
   <g id="line2d_14">
    <path d="M 219.582813 91.331595 
L 219.582813 86.080263 
" clip-path="url(#p166683d888)" style="fill: none; stroke: #3f3f3f; stroke-width: 4.5; stroke-linecap: square"/>
   </g>
   <g id="line2d_15">
    <path d="M 331.182813 90.356691 
L 331.182813 87.024692 
" clip-path="url(#p166683d888)" style="fill: none; stroke: #3f3f3f; stroke-width: 1.5; stroke-linecap: square"/>
   </g>
   <g id="line2d_16">
    <path d="M 331.182813 89.107178 
L 331.182813 88.274168 
" clip-path="url(#p166683d888)" style="fill: none; stroke: #3f3f3f; stroke-width: 4.5; stroke-linecap: square"/>
   </g>
   <g id="line2d_17">
    <path d="M 442.782813 88.956016 
L 442.782813 88.420284 
" clip-path="url(#p166683d888)" style="fill: none; stroke: #3f3f3f; stroke-width: 1.5; stroke-linecap: square"/>
   </g>
   <g id="line2d_18">
    <path d="M 442.782813 88.755107 
L 442.782813 88.621163 
" clip-path="url(#p166683d888)" style="fill: none; stroke: #3f3f3f; stroke-width: 4.5; stroke-linecap: square"/>
   </g>
   <g id="line2d_19">
    <path d="M 554.382812 88.717276 
L 554.382812 88.660148 
" clip-path="url(#p166683d888)" style="fill: none; stroke: #3f3f3f; stroke-width: 1.5; stroke-linecap: square"/>
   </g>
   <g id="line2d_20">
    <path d="M 554.382812 88.695845 
L 554.382812 88.681557 
" clip-path="url(#p166683d888)" style="fill: none; stroke: #3f3f3f; stroke-width: 4.5; stroke-linecap: square"/>
   </g>
   <g id="patch_3">
    <path d="M 52.182813 170.28 
L 52.182813 7.2 
" style="fill: none; stroke: #000000; stroke-width: 0.8; stroke-linejoin: miter; stroke-linecap: square"/>
   </g>
   <g id="patch_4">
    <path d="M 610.182812 170.28 
L 610.182812 7.2 
" style="fill: none; stroke: #000000; stroke-width: 0.8; stroke-linejoin: miter; stroke-linecap: square"/>
   </g>
   <g id="patch_5">
    <path d="M 52.182813 170.28 
L 610.182813 170.28 
" style="fill: none; stroke: #000000; stroke-width: 0.8; stroke-linejoin: miter; stroke-linecap: square"/>
   </g>
   <g id="patch_6">
    <path d="M 52.182813 7.2 
L 610.182813 7.2 
" style="fill: none; stroke: #000000; stroke-width: 0.8; stroke-linejoin: miter; stroke-linecap: square"/>
   </g>
   <g id="PathCollection_1">
    <defs>
     <path id="m6e9c5a49e5" d="M 0 1.5 
C 0.397805 1.5 0.77937 1.341951 1.06066 1.06066 
C 1.341951 0.77937 1.5 0.397805 1.5 0 
C 1.5 -0.397805 1.341951 -0.77937 1.06066 -1.06066 
C 0.77937 -1.341951 0.397805 -1.5 0 -1.5 
C -0.397805 -1.5 -0.77937 -1.341951 -1.06066 -1.06066 
C -1.341951 -0.77937 -1.5 -0.397805 -1.5 0 
C -1.5 0.397805 -1.341951 0.77937 -1.06066 1.06066 
C -0.77937 1.341951 -0.397805 1.5 0 1.5 
z
" style="stroke: #3f3f3f"/>
    </defs>
    <g clip-path="url(#p166683d888)">
     <use xlink:href="#m6e9c5a49e5" x="107.982813" y="88.731047" style="fill: #ffffff; stroke: #3f3f3f"/>
    </g>
   </g>
   <g id="PathCollection_2">
    <g clip-path="url(#p166683d888)">
     <use xlink:href="#m6e9c5a49e5" x="219.582813" y="88.724154" style="fill: #ffffff; stroke: #3f3f3f"/>
    </g>
   </g>
   <g id="PathCollection_3">
    <g clip-path="url(#p166683d888)">
     <use xlink:href="#m6e9c5a49e5" x="331.182813" y="88.689742" style="fill: #ffffff; stroke: #3f3f3f"/>
    </g>
   </g>
   <g id="PathCollection_4">
    <g clip-path="url(#p166683d888)">
     <use xlink:href="#m6e9c5a49e5" x="442.782813" y="88.688091" style="fill: #ffffff; stroke: #3f3f3f"/>
    </g>
   </g>
   <g id="PathCollection_5">
    <g clip-path="url(#p166683d888)">
     <use xlink:href="#m6e9c5a49e5" x="554.382812" y="88.688831" style="fill: #ffffff; stroke: #3f3f3f"/>
    </g>
   </g>
  </g>
 </g>
 <defs>
  <clipPath id="p166683d888">
   <rect x="52.182813" y="7.2" width="558" height="163.08"/>
  </clipPath>
 </defs>
</svg>
