<?xml version="1.0" encoding="utf-8" standalone="no"?>
<!DOCTYPE svg PUBLIC "-//W3C//DTD SVG 1.1//EN"
  "http://www.w3.org/Graphics/SVG/1.1/DTD/svg11.dtd">
<svg xmlns:xlink="http://www.w3.org/1999/xlink" width="614.204687pt" height="196.770884pt" viewBox="0 0 614.204687 196.770884" xmlns="http://www.w3.org/2000/svg" version="1.1">
 <metadata>
  <rdf:RDF xmlns:dc="http://purl.org/dc/elements/1.1/" xmlns:cc="http://creativecommons.org/ns#" xmlns:rdf="http://www.w3.org/1999/02/22-rdf-syntax-ns#">
   <cc:Work>
    <dc:type rdf:resource="http://purl.org/dc/dcmitype/StillImage"/>
    <dc:date>2022-07-08T21:38:08.336612</dc:date>
    <dc:format>image/svg+xml</dc:format>
    <dc:creator>
     <cc:Agent>
      <dc:title>Matplotlib v3.5.1, https://matplotlib.org/</dc:title>
     </cc:Agent>
    </dc:creator>
   </cc:Work>
  </rdf:RDF>
 </metadata>
 <defs>
  <style type="text/css">*{stroke-linejoin: round; stroke-linecap: butt}</style>
 </defs>
 <g id="figure_1">
  <g id="patch_1">
   <path d="M 0 196.770884 
L 614.204687 196.770884 
L 614.204687 0 
L 0 0 
L 0 196.770884 
z
" style="fill: none"/>
  </g>
  <g id="axes_1">
   <g id="patch_2">
    <path d="M 49.004687 172.892759 
L 607.004688 172.892759 
L 607.004688 9.812759 
L 49.004687 9.812759 
z
" style="fill: #ffffff"/>
   </g>
   <g id="PolyCollection_1">
    <defs>
     <path id="m3e3b58000e" d="M 110.282103 -101.456965 
L 99.327272 -101.456965 
L 92.775377 -101.573616 
L 82.853693 -101.690267 
L 71.485836 -101.806918 
L 62.661909 -101.923569 
L 60.250328 -102.04022 
L 65.210471 -102.15687 
L 74.905832 -102.273521 
L 85.19854 -102.390172 
L 93.147121 -102.506823 
L 98.018832 -102.623474 
L 100.536757 -102.740125 
L 101.725306 -102.856776 
L 102.303299 -102.973427 
L 102.629966 -103.090078 
L 102.849949 -103.206728 
L 103.015987 -103.323379 
L 103.148436 -103.44003 
L 103.256887 -103.556681 
L 103.347107 -103.673332 
L 103.423492 -103.789983 
L 103.489893 -103.906634 
L 103.549409 -104.023285 
L 103.603794 -104.139936 
L 103.653345 -104.256586 
L 103.697567 -104.373237 
L 103.736078 -104.489888 
L 103.769114 -104.606539 
L 103.797541 -104.72319 
L 103.822611 -104.839841 
L 103.845636 -104.956492 
L 103.867602 -105.073143 
L 103.888833 -105.189794 
L 103.908974 -105.306444 
L 103.927405 -105.423095 
L 103.943765 -105.539746 
L 103.958084 -105.656397 
L 103.970484 -105.773048 
L 103.980952 -105.889699 
L 103.989534 -106.00635 
L 103.996615 -106.123001 
L 104.002823 -106.239652 
L 104.00861 -106.356302 
L 104.013978 -106.472953 
L 104.018579 -106.589604 
L 104.022094 -106.706255 
L 104.024545 -106.822906 
L 104.026313 -106.939557 
L 104.027796 -107.056208 
L 104.028993 -107.172859 
L 104.029416 -107.28951 
L 104.028499 -107.40616 
L 104.026126 -107.522811 
L 104.022724 -107.639462 
L 104.0188 -107.756113 
L 104.014454 -107.872764 
L 104.009418 -107.989415 
L 104.003483 -108.106066 
L 103.996781 -108.222717 
L 103.989658 -108.339368 
L 103.982284 -108.456018 
L 103.974261 -108.572669 
L 103.964553 -108.68932 
L 103.951986 -108.805971 
L 103.93612 -108.922622 
L 103.917686 -109.039273 
L 103.898036 -109.155924 
L 103.878082 -109.272575 
L 103.857769 -109.389226 
L 103.836494 -109.505876 
L 103.813845 -109.622527 
L 103.789783 -109.739178 
L 103.764132 -109.855829 
L 103.736025 -109.97248 
L 103.703937 -110.089131 
L 103.666245 -110.205782 
L 103.621735 -110.322433 
L 103.569597 -110.439084 
L 103.509023 -110.555734 
L 103.438843 -110.672385 
L 103.357366 -110.789036 
L 103.26222 -110.905687 
L 103.149827 -111.022338 
L 103.014373 -111.138989 
L 102.845654 -111.25564 
L 102.622672 -111.372291 
L 102.292395 -111.488942 
L 101.710023 -111.605592 
L 100.515663 -111.722243 
L 97.989143 -111.838894 
L 93.104898 -111.955545 
L 85.140382 -112.072196 
L 74.831549 -112.188847 
L 65.125296 -112.305498 
L 60.164687 -112.422149 
L 62.587716 -112.5388 
L 71.431167 -112.65545 
L 82.819742 -112.772101 
L 92.757713 -112.888752 
L 99.319605 -113.005403 
L 110.28977 -113.005403 
L 110.28977 -113.005403 
L 116.851662 -112.888752 
L 126.789633 -112.772101 
L 138.178208 -112.65545 
L 147.021659 -112.5388 
L 149.444688 -112.422149 
L 144.484079 -112.305498 
L 134.777826 -112.188847 
L 124.468993 -112.072196 
L 116.504477 -111.955545 
L 111.620232 -111.838894 
L 109.093712 -111.722243 
L 107.899352 -111.605592 
L 107.31698 -111.488942 
L 106.986703 -111.372291 
L 106.763721 -111.25564 
L 106.595002 -111.138989 
L 106.459548 -111.022338 
L 106.347155 -110.905687 
L 106.252009 -110.789036 
L 106.170532 -110.672385 
L 106.100352 -110.555734 
L 106.039778 -110.439084 
L 105.98764 -110.322433 
L 105.94313 -110.205782 
L 105.905438 -110.089131 
L 105.87335 -109.97248 
L 105.845243 -109.855829 
L 105.819592 -109.739178 
L 105.79553 -109.622527 
L 105.772881 -109.505876 
L 105.751606 -109.389226 
L 105.731293 -109.272575 
L 105.711339 -109.155924 
L 105.691689 -109.039273 
L 105.673255 -108.922622 
L 105.657389 -108.805971 
L 105.644822 -108.68932 
L 105.635114 -108.572669 
L 105.627091 -108.456018 
L 105.619717 -108.339368 
L 105.612594 -108.222717 
L 105.605892 -108.106066 
L 105.599957 -107.989415 
L 105.594921 -107.872764 
L 105.590575 -107.756113 
L 105.586651 -107.639462 
L 105.583249 -107.522811 
L 105.580876 -107.40616 
L 105.579959 -107.28951 
L 105.580382 -107.172859 
L 105.581579 -107.056208 
L 105.583062 -106.939557 
L 105.58483 -106.822906 
L 105.587281 -106.706255 
L 105.590796 -106.589604 
L 105.595397 -106.472953 
L 105.600765 -106.356302 
L 105.606552 -106.239652 
L 105.61276 -106.123001 
L 105.619841 -106.00635 
L 105.628423 -105.889699 
L 105.638891 -105.773048 
L 105.651291 -105.656397 
L 105.66561 -105.539746 
L 105.68197 -105.423095 
L 105.700401 -105.306444 
L 105.720542 -105.189794 
L 105.741773 -105.073143 
L 105.763739 -104.956492 
L 105.786764 -104.839841 
L 105.811834 -104.72319 
L 105.840261 -104.606539 
L 105.873297 -104.489888 
L 105.911808 -104.373237 
L 105.95603 -104.256586 
L 106.005581 -104.139936 
L 106.059966 -104.023285 
L 106.119482 -103.906634 
L 106.185883 -103.789983 
L 106.262268 -103.673332 
L 106.352488 -103.556681 
L 106.460939 -103.44003 
L 106.593388 -103.323379 
L 106.759426 -103.206728 
L 106.979409 -103.090078 
L 107.306076 -102.973427 
L 107.884069 -102.856776 
L 109.072618 -102.740125 
L 111.590543 -102.623474 
L 116.462254 -102.506823 
L 124.410835 -102.390172 
L 134.703543 -102.273521 
L 144.398904 -102.15687 
L 149.359047 -102.04022 
L 146.947466 -101.923569 
L 138.123539 -101.806918 
L 126.755682 -101.690267 
L 116.833998 -101.573616 
L 110.282103 -101.456965 
z
" style="stroke: #3f3f3f; stroke-width: 1.5"/>
    </defs>
    <g clip-path="url(#p77ad07c53b)">
     <use xlink:href="#m3e3b58000e" x="0" y="196.770884" style="fill: #3274a1; stroke: #3f3f3f; stroke-width: 1.5"/>
    </g>
   </g>
   <g id="PolyCollection_2">
    <defs>
     <path id="mcb3710bd50" d="M 221.049314 -101.381528 
L 211.760061 -101.381528 
L 206.954978 -101.499703 
L 199.790499 -101.617877 
L 191.141673 -101.736052 
L 183.140728 -101.854227 
L 178.403448 -101.972402 
L 178.615558 -102.090577 
L 183.510793 -102.208752 
L 191.088399 -102.326927 
L 198.859016 -102.445102 
L 205.090651 -102.563276 
L 209.250016 -102.681451 
L 211.665875 -102.799626 
L 212.953759 -102.917801 
L 213.633677 -103.035976 
L 214.021775 -103.154151 
L 214.273829 -103.272326 
L 214.457498 -103.390501 
L 214.601644 -103.508675 
L 214.719976 -103.62685 
L 214.820086 -103.745025 
L 214.906478 -103.8632 
L 214.981691 -103.981375 
L 215.047012 -104.09955 
L 215.103215 -104.217725 
L 215.151313 -104.3359 
L 215.192989 -104.454074 
L 215.230349 -104.572249 
L 215.265103 -104.690424 
L 215.29784 -104.808599 
L 215.328034 -104.926774 
L 215.354766 -105.044949 
L 215.377511 -105.163124 
L 215.396425 -105.281299 
L 215.412138 -105.399474 
L 215.425441 -105.517648 
L 215.437178 -105.635823 
L 215.448236 -105.753998 
L 215.459359 -105.872173 
L 215.470791 -105.990348 
L 215.482075 -106.108523 
L 215.492374 -106.226698 
L 215.501167 -106.344873 
L 215.50873 -106.463047 
L 215.515904 -106.581222 
L 215.523285 -106.699397 
L 215.530549 -106.817572 
L 215.536516 -106.935747 
L 215.539908 -107.053922 
L 215.540153 -107.172097 
L 215.537654 -107.290272 
L 215.53346 -107.408446 
L 215.528691 -107.526621 
L 215.524093 -107.644796 
L 215.519883 -107.762971 
L 215.51588 -107.881146 
L 215.511741 -107.999321 
L 215.507159 -108.117496 
L 215.5019 -108.235671 
L 215.495727 -108.353845 
L 215.488313 -108.47202 
L 215.479187 -108.590195 
L 215.467739 -108.70837 
L 215.453313 -108.826545 
L 215.435426 -108.94472 
L 215.414026 -109.062895 
L 215.38961 -109.18107 
L 215.363074 -109.299244 
L 215.335317 -109.417419 
L 215.306812 -109.535594 
L 215.277392 -109.653769 
L 215.246429 -109.771944 
L 215.213208 -109.890119 
L 215.177112 -110.008294 
L 215.137395 -110.126469 
L 215.092815 -110.244643 
L 215.041589 -110.362818 
L 214.981755 -110.480993 
L 214.911504 -110.599168 
L 214.829006 -110.717343 
L 214.731745 -110.835518 
L 214.615649 -110.953693 
L 214.473853 -111.071868 
L 214.293493 -111.190043 
L 214.046257 -111.308217 
L 213.664242 -111.426392 
L 212.990513 -111.544567 
L 211.707342 -111.662742 
L 209.293689 -111.780917 
L 205.13436 -111.899092 
L 198.902253 -112.017267 
L 191.132472 -112.135442 
L 183.557323 -112.253616 
L 178.664302 -112.371791 
L 178.451296 -112.489966 
L 183.18292 -112.608141 
L 191.17432 -112.726316 
L 199.812418 -112.844491 
L 206.967685 -112.962666 
L 211.76641 -113.080841 
L 221.042965 -113.080841 
L 221.042965 -113.080841 
L 225.84169 -112.962666 
L 232.996957 -112.844491 
L 241.635055 -112.726316 
L 249.626455 -112.608141 
L 254.358079 -112.489966 
L 254.145073 -112.371791 
L 249.252052 -112.253616 
L 241.676903 -112.135442 
L 233.907122 -112.017267 
L 227.675015 -111.899092 
L 223.515686 -111.780917 
L 221.102033 -111.662742 
L 219.818862 -111.544567 
L 219.145133 -111.426392 
L 218.763118 -111.308217 
L 218.515882 -111.190043 
L 218.335522 -111.071868 
L 218.193726 -110.953693 
L 218.07763 -110.835518 
L 217.980369 -110.717343 
L 217.897871 -110.599168 
L 217.82762 -110.480993 
L 217.767786 -110.362818 
L 217.71656 -110.244643 
L 217.67198 -110.126469 
L 217.632263 -110.008294 
L 217.596167 -109.890119 
L 217.562946 -109.771944 
L 217.531983 -109.653769 
L 217.502563 -109.535594 
L 217.474058 -109.417419 
L 217.446301 -109.299244 
L 217.419765 -109.18107 
L 217.395349 -109.062895 
L 217.373949 -108.94472 
L 217.356062 -108.826545 
L 217.341636 -108.70837 
L 217.330188 -108.590195 
L 217.321062 -108.47202 
L 217.313648 -108.353845 
L 217.307475 -108.235671 
L 217.302216 -108.117496 
L 217.297634 -107.999321 
L 217.293495 -107.881146 
L 217.289492 -107.762971 
L 217.285282 -107.644796 
L 217.280684 -107.526621 
L 217.275915 -107.408446 
L 217.271721 -107.290272 
L 217.269222 -107.172097 
L 217.269467 -107.053922 
L 217.272859 -106.935747 
L 217.278826 -106.817572 
L 217.28609 -106.699397 
L 217.293471 -106.581222 
L 217.300645 -106.463047 
L 217.308208 -106.344873 
L 217.317001 -106.226698 
L 217.3273 -106.108523 
L 217.338584 -105.990348 
L 217.350016 -105.872173 
L 217.361139 -105.753998 
L 217.372197 -105.635823 
L 217.383934 -105.517648 
L 217.397237 -105.399474 
L 217.41295 -105.281299 
L 217.431864 -105.163124 
L 217.454609 -105.044949 
L 217.481341 -104.926774 
L 217.511535 -104.808599 
L 217.544272 -104.690424 
L 217.579026 -104.572249 
L 217.616386 -104.454074 
L 217.658062 -104.3359 
L 217.70616 -104.217725 
L 217.762363 -104.09955 
L 217.827684 -103.981375 
L 217.902897 -103.8632 
L 217.989289 -103.745025 
L 218.089399 -103.62685 
L 218.207731 -103.508675 
L 218.351877 -103.390501 
L 218.535546 -103.272326 
L 218.7876 -103.154151 
L 219.175698 -103.035976 
L 219.855616 -102.917801 
L 221.1435 -102.799626 
L 223.559359 -102.681451 
L 227.718724 -102.563276 
L 233.950359 -102.445102 
L 241.720976 -102.326927 
L 249.298582 -102.208752 
L 254.193817 -102.090577 
L 254.405927 -101.972402 
L 249.668647 -101.854227 
L 241.667702 -101.736052 
L 233.018876 -101.617877 
L 225.854397 -101.499703 
L 221.049314 -101.381528 
z
" style="stroke: #3f3f3f; stroke-width: 1.5"/>
    </defs>
    <g clip-path="url(#p77ad07c53b)">
     <use xlink:href="#mcb3710bd50" x="0" y="196.770884" style="fill: #3274a1; stroke: #3f3f3f; stroke-width: 1.5"/>
    </g>
   </g>
   <g id="PolyCollection_3">
    <defs>
     <path id="m8ea533a66c" d="M 331.996592 -101.400061 
L 324.012783 -101.400061 
L 319.667146 -101.517862 
L 313.060211 -101.635662 
L 304.986093 -101.753463 
L 297.47641 -101.871263 
L 293.031989 -101.989064 
L 293.216814 -102.106864 
L 297.689194 -102.224665 
L 304.49917 -102.342465 
L 311.34962 -102.460265 
L 316.748139 -102.578066 
L 320.320972 -102.695866 
L 322.422708 -102.813667 
L 323.600641 -102.931467 
L 324.283848 -103.049268 
L 324.720158 -103.167068 
L 325.028792 -103.284869 
L 325.26353 -103.402669 
L 325.450847 -103.52047 
L 325.606011 -103.63827 
L 325.73829 -103.756071 
L 325.852889 -103.873871 
L 325.952582 -103.991671 
L 326.039268 -104.109472 
L 326.114904 -104.227272 
L 326.181602 -104.345073 
L 326.241258 -104.462873 
L 326.295264 -104.580674 
L 326.344548 -104.698474 
L 326.389798 -104.816275 
L 326.431591 -104.934075 
L 326.470391 -105.051876 
L 326.506549 -105.169676 
L 326.54034 -105.287477 
L 326.571956 -105.405277 
L 326.601421 -105.523077 
L 326.628492 -105.640878 
L 326.652595 -105.758678 
L 326.672909 -105.876479 
L 326.688728 -105.994279 
L 326.70004 -106.11208 
L 326.707837 -106.22988 
L 326.713686 -106.347681 
L 326.718731 -106.465481 
L 326.723023 -106.583282 
L 326.725855 -106.701082 
L 326.726773 -106.818882 
L 326.726299 -106.936683 
L 326.725732 -107.054483 
L 326.726309 -107.172284 
L 326.728411 -107.290084 
L 326.731305 -107.407885 
L 326.733468 -107.525685 
L 326.73324 -107.643486 
L 326.729452 -107.761286 
L 326.721779 -107.879087 
L 326.710736 -107.996887 
L 326.697446 -108.114688 
L 326.683257 -108.232488 
L 326.669335 -108.350288 
L 326.656343 -108.468089 
L 326.644332 -108.585889 
L 326.632766 -108.70369 
L 326.620592 -108.82149 
L 326.606337 -108.939291 
L 326.588296 -109.057091 
L 326.564835 -109.174892 
L 326.534808 -109.292692 
L 326.497967 -109.410493 
L 326.455165 -109.528293 
L 326.408104 -109.646094 
L 326.358574 -109.763894 
L 326.307465 -109.881694 
L 326.254093 -109.999495 
L 326.196282 -110.117295 
L 326.131155 -110.235096 
L 326.056058 -110.352896 
L 325.968935 -110.470697 
L 325.867997 -110.588497 
L 325.751052 -110.706298 
L 325.614849 -110.824098 
L 325.454403 -110.941899 
L 325.261832 -111.059699 
L 325.023753 -111.1775 
L 324.714638 -111.2953 
L 324.279722 -111.4131 
L 323.597373 -111.530901 
L 322.417877 -111.648701 
L 320.313122 -111.766502 
L 316.740719 -111.884302 
L 311.353206 -112.002103 
L 304.528814 -112.119903 
L 297.756403 -112.237704 
L 293.320681 -112.355504 
L 293.156679 -112.473305 
L 297.598141 -112.591105 
L 305.084812 -112.708906 
L 313.127468 -112.826706 
L 319.705894 -112.944506 
L 324.031736 -113.062307 
L 331.977639 -113.062307 
L 331.977639 -113.062307 
L 336.303481 -112.944506 
L 342.881907 -112.826706 
L 350.924563 -112.708906 
L 358.411234 -112.591105 
L 362.852696 -112.473305 
L 362.688694 -112.355504 
L 358.252972 -112.237704 
L 351.480561 -112.119903 
L 344.656169 -112.002103 
L 339.268656 -111.884302 
L 335.696253 -111.766502 
L 333.591498 -111.648701 
L 332.412002 -111.530901 
L 331.729653 -111.4131 
L 331.294737 -111.2953 
L 330.985622 -111.1775 
L 330.747543 -111.059699 
L 330.554972 -110.941899 
L 330.394526 -110.824098 
L 330.258323 -110.706298 
L 330.141378 -110.588497 
L 330.04044 -110.470697 
L 329.953317 -110.352896 
L 329.87822 -110.235096 
L 329.813093 -110.117295 
L 329.755282 -109.999495 
L 329.70191 -109.881694 
L 329.650801 -109.763894 
L 329.601271 -109.646094 
L 329.55421 -109.528293 
L 329.511408 -109.410493 
L 329.474567 -109.292692 
L 329.44454 -109.174892 
L 329.421079 -109.057091 
L 329.403038 -108.939291 
L 329.388783 -108.82149 
L 329.376609 -108.70369 
L 329.365043 -108.585889 
L 329.353032 -108.468089 
L 329.34004 -108.350288 
L 329.326118 -108.232488 
L 329.311929 -108.114688 
L 329.298639 -107.996887 
L 329.287596 -107.879087 
L 329.279923 -107.761286 
L 329.276135 -107.643486 
L 329.275907 -107.525685 
L 329.27807 -107.407885 
L 329.280964 -107.290084 
L 329.283066 -107.172284 
L 329.283643 -107.054483 
L 329.283076 -106.936683 
L 329.282602 -106.818882 
L 329.28352 -106.701082 
L 329.286352 -106.583282 
L 329.290644 -106.465481 
L 329.295689 -106.347681 
L 329.301538 -106.22988 
L 329.309335 -106.11208 
L 329.320647 -105.994279 
L 329.336466 -105.876479 
L 329.35678 -105.758678 
L 329.380883 -105.640878 
L 329.407954 -105.523077 
L 329.437419 -105.405277 
L 329.469035 -105.287477 
L 329.502826 -105.169676 
L 329.538984 -105.051876 
L 329.577784 -104.934075 
L 329.619577 -104.816275 
L 329.664827 -104.698474 
L 329.714111 -104.580674 
L 329.768117 -104.462873 
L 329.827773 -104.345073 
L 329.894471 -104.227272 
L 329.970107 -104.109472 
L 330.056793 -103.991671 
L 330.156486 -103.873871 
L 330.271085 -103.756071 
L 330.403364 -103.63827 
L 330.558528 -103.52047 
L 330.745845 -103.402669 
L 330.980583 -103.284869 
L 331.289217 -103.167068 
L 331.725527 -103.049268 
L 332.408734 -102.931467 
L 333.586667 -102.813667 
L 335.688403 -102.695866 
L 339.261236 -102.578066 
L 344.659755 -102.460265 
L 351.510205 -102.342465 
L 358.320181 -102.224665 
L 362.792561 -102.106864 
L 362.977386 -101.989064 
L 358.532965 -101.871263 
L 351.023282 -101.753463 
L 342.949164 -101.635662 
L 336.342229 -101.517862 
L 331.996592 -101.400061 
z
" style="stroke: #3f3f3f; stroke-width: 1.5"/>
    </defs>
    <g clip-path="url(#p77ad07c53b)">
     <use xlink:href="#m8ea533a66c" x="0" y="196.770884" style="fill: #3274a1; stroke: #3f3f3f; stroke-width: 1.5"/>
    </g>
   </g>
   <g id="PolyCollection_4">
    <defs>
     <path id="m147171b0dd" d="M 443.072148 -101.313674 
L 436.137227 -101.313674 
L 432.88877 -101.43322 
L 428.068805 -101.552765 
L 422.016063 -101.672311 
L 415.770439 -101.791857 
L 410.845317 -101.911402 
L 408.614946 -102.030948 
L 409.64852 -102.150494 
L 413.437621 -102.270039 
L 418.702566 -102.389585 
L 424.041453 -102.509131 
L 428.485256 -102.628676 
L 431.68304 -102.748222 
L 433.752762 -102.867768 
L 435.012384 -102.987313 
L 435.774266 -103.106859 
L 436.259192 -103.226405 
L 436.595299 -103.34595 
L 436.848288 -103.465496 
L 437.05018 -103.585042 
L 437.217045 -103.704587 
L 437.357665 -103.824133 
L 437.477266 -103.943679 
L 437.579178 -104.063224 
L 437.665732 -104.18277 
L 437.738877 -104.302316 
L 437.80061 -104.421861 
L 437.853209 -104.541407 
L 437.899209 -104.660953 
L 437.941115 -104.780498 
L 437.980933 -104.900044 
L 438.019725 -105.019589 
L 438.057447 -105.139135 
L 438.093214 -105.258681 
L 438.125912 -105.378226 
L 438.154844 -105.497772 
L 438.180031 -105.617318 
L 438.202025 -105.736863 
L 438.221403 -105.856409 
L 438.238365 -105.975955 
L 438.252723 -106.0955 
L 438.264297 -106.215046 
L 438.273393 -106.334592 
L 438.280978 -106.454137 
L 438.28836 -106.573683 
L 438.296486 -106.693229 
L 438.305295 -106.812774 
L 438.313571 -106.93232 
L 438.319489 -107.051866 
L 438.32157 -107.171411 
L 438.319454 -107.290957 
L 438.314032 -107.410503 
L 438.306862 -107.530048 
L 438.299288 -107.649594 
L 438.291818 -107.76914 
L 438.284101 -107.888685 
L 438.27537 -108.008231 
L 438.264997 -108.127777 
L 438.252778 -108.247322 
L 438.238839 -108.366868 
L 438.223268 -108.486413 
L 438.205722 -108.605959 
L 438.185335 -108.725505 
L 438.161053 -108.84505 
L 438.132298 -108.964596 
L 438.099493 -109.084142 
L 438.064009 -109.203687 
L 438.027409 -109.323233 
L 437.990453 -109.442779 
L 437.952541 -109.562324 
L 437.911948 -109.68187 
L 437.866617 -109.801416 
L 437.814879 -109.920961 
L 437.75562 -110.040507 
L 437.687952 -110.160053 
L 437.610767 -110.279598 
L 437.52253 -110.399144 
L 437.421282 -110.51869 
L 437.30457 -110.638235 
L 437.169006 -110.757781 
L 437.009275 -110.877327 
L 436.816303 -110.996872 
L 436.573445 -111.116418 
L 436.247883 -111.235964 
L 435.773017 -111.355509 
L 435.019781 -111.475055 
L 433.76635 -111.594601 
L 431.699006 -111.714146 
L 428.497962 -111.833692 
L 424.04335 -111.953238 
L 418.685393 -112.072783 
L 413.395296 -112.192329 
L 409.580657 -112.311874 
L 408.528638 -112.43142 
L 410.753343 -112.550966 
L 415.686463 -112.670511 
L 421.949636 -112.790057 
L 428.022995 -112.909603 
L 432.861119 -113.029148 
L 436.122581 -113.148694 
L 443.086794 -113.148694 
L 443.086794 -113.148694 
L 446.348256 -113.029148 
L 451.18638 -112.909603 
L 457.259739 -112.790057 
L 463.522912 -112.670511 
L 468.456032 -112.550966 
L 470.680737 -112.43142 
L 469.628718 -112.311874 
L 465.814079 -112.192329 
L 460.523982 -112.072783 
L 455.166025 -111.953238 
L 450.711413 -111.833692 
L 447.510369 -111.714146 
L 445.443025 -111.594601 
L 444.189594 -111.475055 
L 443.436358 -111.355509 
L 442.961492 -111.235964 
L 442.63593 -111.116418 
L 442.393072 -110.996872 
L 442.2001 -110.877327 
L 442.040369 -110.757781 
L 441.904805 -110.638235 
L 441.788093 -110.51869 
L 441.686845 -110.399144 
L 441.598608 -110.279598 
L 441.521423 -110.160053 
L 441.453755 -110.040507 
L 441.394496 -109.920961 
L 441.342758 -109.801416 
L 441.297427 -109.68187 
L 441.256834 -109.562324 
L 441.218922 -109.442779 
L 441.181966 -109.323233 
L 441.145366 -109.203687 
L 441.109882 -109.084142 
L 441.077077 -108.964596 
L 441.048322 -108.84505 
L 441.02404 -108.725505 
L 441.003653 -108.605959 
L 440.986107 -108.486413 
L 440.970536 -108.366868 
L 440.956597 -108.247322 
L 440.944378 -108.127777 
L 440.934005 -108.008231 
L 440.925274 -107.888685 
L 440.917557 -107.76914 
L 440.910087 -107.649594 
L 440.902513 -107.530048 
L 440.895343 -107.410503 
L 440.889921 -107.290957 
L 440.887805 -107.171411 
L 440.889886 -107.051866 
L 440.895804 -106.93232 
L 440.90408 -106.812774 
L 440.912889 -106.693229 
L 440.921015 -106.573683 
L 440.928397 -106.454137 
L 440.935982 -106.334592 
L 440.945078 -106.215046 
L 440.956652 -106.0955 
L 440.97101 -105.975955 
L 440.987972 -105.856409 
L 441.00735 -105.736863 
L 441.029344 -105.617318 
L 441.054531 -105.497772 
L 441.083463 -105.378226 
L 441.116161 -105.258681 
L 441.151928 -105.139135 
L 441.18965 -105.019589 
L 441.228442 -104.900044 
L 441.26826 -104.780498 
L 441.310166 -104.660953 
L 441.356166 -104.541407 
L 441.408765 -104.421861 
L 441.470498 -104.302316 
L 441.543643 -104.18277 
L 441.630197 -104.063224 
L 441.732109 -103.943679 
L 441.85171 -103.824133 
L 441.99233 -103.704587 
L 442.159195 -103.585042 
L 442.361087 -103.465496 
L 442.614076 -103.34595 
L 442.950183 -103.226405 
L 443.435109 -103.106859 
L 444.196991 -102.987313 
L 445.456613 -102.867768 
L 447.526335 -102.748222 
L 450.724119 -102.628676 
L 455.167922 -102.509131 
L 460.506809 -102.389585 
L 465.771754 -102.270039 
L 469.560855 -102.150494 
L 470.594429 -102.030948 
L 468.364058 -101.911402 
L 463.438936 -101.791857 
L 457.193312 -101.672311 
L 451.14057 -101.552765 
L 446.320605 -101.43322 
L 443.072148 -101.313674 
z
" style="stroke: #3f3f3f; stroke-width: 1.5"/>
    </defs>
    <g clip-path="url(#p77ad07c53b)">
     <use xlink:href="#m147171b0dd" x="0" y="196.770884" style="fill: #3274a1; stroke: #3f3f3f; stroke-width: 1.5"/>
    </g>
   </g>
   <g id="PolyCollection_5">
    <defs>
     <path id="mce0e0cd9d0" d="M 551.20474 -31.290852 
L 551.204635 -31.290852 
L 551.204501 -32.788373 
L 551.204329 -34.285894 
L 551.204295 -35.783414 
L 551.204346 -37.280935 
L 551.204256 -38.778456 
L 551.204019 -40.275976 
L 551.203591 -41.773497 
L 551.202939 -43.271018 
L 551.202422 -44.768538 
L 551.202256 -46.266059 
L 551.201949 -47.76358 
L 551.200949 -49.2611 
L 551.199599 -50.758621 
L 551.198518 -52.256142 
L 551.197186 -53.753662 
L 551.19514 -55.251183 
L 551.192547 -56.748704 
L 551.188372 -58.246224 
L 551.18175 -59.743745 
L 551.172916 -61.241265 
L 551.161143 -62.738786 
L 551.146192 -64.236307 
L 551.128997 -65.733827 
L 551.109976 -67.231348 
L 551.090223 -68.728869 
L 551.067881 -70.226389 
L 551.037428 -71.72391 
L 550.997556 -73.221431 
L 550.954908 -74.718951 
L 550.915928 -76.216472 
L 550.873749 -77.713993 
L 550.820875 -79.211513 
L 550.758703 -80.709034 
L 550.682743 -82.206555 
L 550.589983 -83.704075 
L 550.493102 -85.201596 
L 550.404446 -86.699117 
L 550.319458 -88.196637 
L 550.227937 -89.694158 
L 550.124607 -91.191679 
L 550.006522 -92.689199 
L 549.883143 -94.18672 
L 549.774023 -95.684241 
L 549.683849 -97.181761 
L 549.601224 -98.679282 
L 549.512414 -100.176803 
L 549.424608 -101.674323 
L 549.362856 -103.171844 
L 549.330291 -104.669365 
L 549.311211 -106.166885 
L 549.304318 -107.664406 
L 549.319665 -109.161927 
L 549.353411 -110.659447 
L 549.395119 -112.156968 
L 549.447481 -113.654489 
L 549.519096 -115.152009 
L 549.612048 -116.64953 
L 549.724178 -118.147051 
L 549.844781 -119.644571 
L 549.957983 -121.142092 
L 550.057639 -122.639613 
L 550.151536 -124.137133 
L 550.248138 -125.634654 
L 550.351346 -127.132175 
L 550.460326 -128.629695 
L 550.561946 -130.127216 
L 550.647491 -131.624737 
L 550.72432 -133.122257 
L 550.796687 -134.619778 
L 550.864247 -136.117299 
L 550.923609 -137.614819 
L 550.969087 -139.11234 
L 551.005179 -140.609861 
L 551.039095 -142.107381 
L 551.070941 -143.604902 
L 551.098455 -145.102423 
L 551.122051 -146.599943 
L 551.141675 -148.097464 
L 551.156247 -149.594985 
L 551.168086 -151.092505 
L 551.178784 -152.590026 
L 551.186169 -154.087546 
L 551.190088 -155.585067 
L 551.193198 -157.082588 
L 551.196511 -158.580108 
L 551.199159 -160.077629 
L 551.20077 -161.57515 
L 551.201802 -163.07267 
L 551.202653 -164.570191 
L 551.203355 -166.067712 
L 551.203793 -167.565232 
L 551.204054 -169.062753 
L 551.204306 -170.560274 
L 551.20449 -172.057794 
L 551.204465 -173.555315 
L 551.204327 -175.052836 
L 551.204333 -176.550356 
L 551.204501 -178.047877 
L 551.204635 -179.545398 
L 551.20474 -179.545398 
L 551.20474 -179.545398 
L 551.204874 -178.047877 
L 551.205042 -176.550356 
L 551.205048 -175.052836 
L 551.20491 -173.555315 
L 551.204885 -172.057794 
L 551.205069 -170.560274 
L 551.205321 -169.062753 
L 551.205582 -167.565232 
L 551.20602 -166.067712 
L 551.206722 -164.570191 
L 551.207573 -163.07267 
L 551.208605 -161.57515 
L 551.210216 -160.077629 
L 551.212864 -158.580108 
L 551.216177 -157.082588 
L 551.219287 -155.585067 
L 551.223206 -154.087546 
L 551.230591 -152.590026 
L 551.241289 -151.092505 
L 551.253128 -149.594985 
L 551.2677 -148.097464 
L 551.287324 -146.599943 
L 551.31092 -145.102423 
L 551.338434 -143.604902 
L 551.37028 -142.107381 
L 551.404196 -140.609861 
L 551.440288 -139.11234 
L 551.485766 -137.614819 
L 551.545128 -136.117299 
L 551.612688 -134.619778 
L 551.685055 -133.122257 
L 551.761884 -131.624737 
L 551.847429 -130.127216 
L 551.949049 -128.629695 
L 552.058029 -127.132175 
L 552.161237 -125.634654 
L 552.257839 -124.137133 
L 552.351736 -122.639613 
L 552.451392 -121.142092 
L 552.564594 -119.644571 
L 552.685197 -118.147051 
L 552.797327 -116.64953 
L 552.890279 -115.152009 
L 552.961894 -113.654489 
L 553.014256 -112.156968 
L 553.055964 -110.659447 
L 553.08971 -109.161927 
L 553.105057 -107.664406 
L 553.098164 -106.166885 
L 553.079084 -104.669365 
L 553.046519 -103.171844 
L 552.984767 -101.674323 
L 552.896961 -100.176803 
L 552.808151 -98.679282 
L 552.725526 -97.181761 
L 552.635352 -95.684241 
L 552.526232 -94.18672 
L 552.402853 -92.689199 
L 552.284768 -91.191679 
L 552.181438 -89.694158 
L 552.089917 -88.196637 
L 552.004929 -86.699117 
L 551.916273 -85.201596 
L 551.819392 -83.704075 
L 551.726632 -82.206555 
L 551.650672 -80.709034 
L 551.5885 -79.211513 
L 551.535626 -77.713993 
L 551.493447 -76.216472 
L 551.454467 -74.718951 
L 551.411819 -73.221431 
L 551.371947 -71.72391 
L 551.341494 -70.226389 
L 551.319152 -68.728869 
L 551.299399 -67.231348 
L 551.280378 -65.733827 
L 551.263183 -64.236307 
L 551.248232 -62.738786 
L 551.236459 -61.241265 
L 551.227625 -59.743745 
L 551.221003 -58.246224 
L 551.216828 -56.748704 
L 551.214235 -55.251183 
L 551.212189 -53.753662 
L 551.210857 -52.256142 
L 551.209776 -50.758621 
L 551.208426 -49.2611 
L 551.207426 -47.76358 
L 551.207119 -46.266059 
L 551.206953 -44.768538 
L 551.206436 -43.271018 
L 551.205784 -41.773497 
L 551.205356 -40.275976 
L 551.205119 -38.778456 
L 551.205029 -37.280935 
L 551.20508 -35.783414 
L 551.205046 -34.285894 
L 551.204874 -32.788373 
L 551.20474 -31.290852 
z
" style="stroke: #3f3f3f; stroke-width: 1.5"/>
    </defs>
    <g clip-path="url(#p77ad07c53b)">
     <use xlink:href="#mce0e0cd9d0" x="0" y="196.770884" style="fill: #3274a1; stroke: #3f3f3f; stroke-width: 1.5"/>
    </g>
   </g>
   <g id="matplotlib.axis_1">
    <g id="xtick_1">
     <g id="line2d_1">
      <defs>
       <path id="m845fb6d22c" d="M 0 0 
L 0 3.5 
" style="stroke: #000000; stroke-width: 0.8"/>
      </defs>
      <g>
       <use xlink:href="#m845fb6d22c" x="104.804688" y="172.892759" style="stroke: #000000; stroke-width: 0.8"/>
      </g>
     </g>
     <g id="text_1">
      <!-- (1, tanh) -->
      <g transform="translate(83.182031 187.491196)scale(0.1 -0.1)">
       <defs>
        <path id="DejaVuSans-28" d="M 1984 4856 
Q 1566 4138 1362 3434 
Q 1159 2731 1159 2009 
Q 1159 1288 1364 580 
Q 1569 -128 1984 -844 
L 1484 -844 
Q 1016 -109 783 600 
Q 550 1309 550 2009 
Q 550 2706 781 3412 
Q 1013 4119 1484 4856 
L 1984 4856 
z
" transform="scale(0.015625)"/>
        <path id="DejaVuSans-31" d="M 794 531 
L 1825 531 
L 1825 4091 
L 703 3866 
L 703 4441 
L 1819 4666 
L 2450 4666 
L 2450 531 
L 3481 531 
L 3481 0 
L 794 0 
L 794 531 
z
" transform="scale(0.015625)"/>
        <path id="DejaVuSans-2c" d="M 750 794 
L 1409 794 
L 1409 256 
L 897 -744 
L 494 -744 
L 750 256 
L 750 794 
z
" transform="scale(0.015625)"/>
        <path id="DejaVuSans-20" transform="scale(0.015625)"/>
        <path id="DejaVuSans-74" d="M 1172 4494 
L 1172 3500 
L 2356 3500 
L 2356 3053 
L 1172 3053 
L 1172 1153 
Q 1172 725 1289 603 
Q 1406 481 1766 481 
L 2356 481 
L 2356 0 
L 1766 0 
Q 1100 0 847 248 
Q 594 497 594 1153 
L 594 3053 
L 172 3053 
L 172 3500 
L 594 3500 
L 594 4494 
L 1172 4494 
z
" transform="scale(0.015625)"/>
        <path id="DejaVuSans-61" d="M 2194 1759 
Q 1497 1759 1228 1600 
Q 959 1441 959 1056 
Q 959 750 1161 570 
Q 1363 391 1709 391 
Q 2188 391 2477 730 
Q 2766 1069 2766 1631 
L 2766 1759 
L 2194 1759 
z
M 3341 1997 
L 3341 0 
L 2766 0 
L 2766 531 
Q 2569 213 2275 61 
Q 1981 -91 1556 -91 
Q 1019 -91 701 211 
Q 384 513 384 1019 
Q 384 1609 779 1909 
Q 1175 2209 1959 2209 
L 2766 2209 
L 2766 2266 
Q 2766 2663 2505 2880 
Q 2244 3097 1772 3097 
Q 1472 3097 1187 3025 
Q 903 2953 641 2809 
L 641 3341 
Q 956 3463 1253 3523 
Q 1550 3584 1831 3584 
Q 2591 3584 2966 3190 
Q 3341 2797 3341 1997 
z
" transform="scale(0.015625)"/>
        <path id="DejaVuSans-6e" d="M 3513 2113 
L 3513 0 
L 2938 0 
L 2938 2094 
Q 2938 2591 2744 2837 
Q 2550 3084 2163 3084 
Q 1697 3084 1428 2787 
Q 1159 2491 1159 1978 
L 1159 0 
L 581 0 
L 581 3500 
L 1159 3500 
L 1159 2956 
Q 1366 3272 1645 3428 
Q 1925 3584 2291 3584 
Q 2894 3584 3203 3211 
Q 3513 2838 3513 2113 
z
" transform="scale(0.015625)"/>
        <path id="DejaVuSans-68" d="M 3513 2113 
L 3513 0 
L 2938 0 
L 2938 2094 
Q 2938 2591 2744 2837 
Q 2550 3084 2163 3084 
Q 1697 3084 1428 2787 
Q 1159 2491 1159 1978 
L 1159 0 
L 581 0 
L 581 4863 
L 1159 4863 
L 1159 2956 
Q 1366 3272 1645 3428 
Q 1925 3584 2291 3584 
Q 2894 3584 3203 3211 
Q 3513 2838 3513 2113 
z
" transform="scale(0.015625)"/>
        <path id="DejaVuSans-29" d="M 513 4856 
L 1013 4856 
Q 1481 4119 1714 3412 
Q 1947 2706 1947 2009 
Q 1947 1309 1714 600 
Q 1481 -109 1013 -844 
L 513 -844 
Q 928 -128 1133 580 
Q 1338 1288 1338 2009 
Q 1338 2731 1133 3434 
Q 928 4138 513 4856 
z
" transform="scale(0.015625)"/>
       </defs>
       <use xlink:href="#DejaVuSans-28"/>
       <use xlink:href="#DejaVuSans-31" x="39.013672"/>
       <use xlink:href="#DejaVuSans-2c" x="102.636719"/>
       <use xlink:href="#DejaVuSans-20" x="134.423828"/>
       <use xlink:href="#DejaVuSans-74" x="166.210938"/>
       <use xlink:href="#DejaVuSans-61" x="205.419922"/>
       <use xlink:href="#DejaVuSans-6e" x="266.699219"/>
       <use xlink:href="#DejaVuSans-68" x="330.078125"/>
       <use xlink:href="#DejaVuSans-29" x="393.457031"/>
      </g>
     </g>
    </g>
    <g id="xtick_2">
     <g id="line2d_2">
      <g>
       <use xlink:href="#m845fb6d22c" x="216.404688" y="172.892759" style="stroke: #000000; stroke-width: 0.8"/>
      </g>
     </g>
     <g id="text_2">
      <!-- (2, tanh) -->
      <g transform="translate(194.782031 187.491196)scale(0.1 -0.1)">
       <defs>
        <path id="DejaVuSans-32" d="M 1228 531 
L 3431 531 
L 3431 0 
L 469 0 
L 469 531 
Q 828 903 1448 1529 
Q 2069 2156 2228 2338 
Q 2531 2678 2651 2914 
Q 2772 3150 2772 3378 
Q 2772 3750 2511 3984 
Q 2250 4219 1831 4219 
Q 1534 4219 1204 4116 
Q 875 4013 500 3803 
L 500 4441 
Q 881 4594 1212 4672 
Q 1544 4750 1819 4750 
Q 2544 4750 2975 4387 
Q 3406 4025 3406 3419 
Q 3406 3131 3298 2873 
Q 3191 2616 2906 2266 
Q 2828 2175 2409 1742 
Q 1991 1309 1228 531 
z
" transform="scale(0.015625)"/>
       </defs>
       <use xlink:href="#DejaVuSans-28"/>
       <use xlink:href="#DejaVuSans-32" x="39.013672"/>
       <use xlink:href="#DejaVuSans-2c" x="102.636719"/>
       <use xlink:href="#DejaVuSans-20" x="134.423828"/>
       <use xlink:href="#DejaVuSans-74" x="166.210938"/>
       <use xlink:href="#DejaVuSans-61" x="205.419922"/>
       <use xlink:href="#DejaVuSans-6e" x="266.699219"/>
       <use xlink:href="#DejaVuSans-68" x="330.078125"/>
       <use xlink:href="#DejaVuSans-29" x="393.457031"/>
      </g>
     </g>
    </g>
    <g id="xtick_3">
     <g id="line2d_3">
      <g>
       <use xlink:href="#m845fb6d22c" x="328.004688" y="172.892759" style="stroke: #000000; stroke-width: 0.8"/>
      </g>
     </g>
     <g id="text_3">
      <!-- (3, tanh) -->
      <g transform="translate(306.382031 187.491196)scale(0.1 -0.1)">
       <defs>
        <path id="DejaVuSans-33" d="M 2597 2516 
Q 3050 2419 3304 2112 
Q 3559 1806 3559 1356 
Q 3559 666 3084 287 
Q 2609 -91 1734 -91 
Q 1441 -91 1130 -33 
Q 819 25 488 141 
L 488 750 
Q 750 597 1062 519 
Q 1375 441 1716 441 
Q 2309 441 2620 675 
Q 2931 909 2931 1356 
Q 2931 1769 2642 2001 
Q 2353 2234 1838 2234 
L 1294 2234 
L 1294 2753 
L 1863 2753 
Q 2328 2753 2575 2939 
Q 2822 3125 2822 3475 
Q 2822 3834 2567 4026 
Q 2313 4219 1838 4219 
Q 1578 4219 1281 4162 
Q 984 4106 628 3988 
L 628 4550 
Q 988 4650 1302 4700 
Q 1616 4750 1894 4750 
Q 2613 4750 3031 4423 
Q 3450 4097 3450 3541 
Q 3450 3153 3228 2886 
Q 3006 2619 2597 2516 
z
" transform="scale(0.015625)"/>
       </defs>
       <use xlink:href="#DejaVuSans-28"/>
       <use xlink:href="#DejaVuSans-33" x="39.013672"/>
       <use xlink:href="#DejaVuSans-2c" x="102.636719"/>
       <use xlink:href="#DejaVuSans-20" x="134.423828"/>
       <use xlink:href="#DejaVuSans-74" x="166.210938"/>
       <use xlink:href="#DejaVuSans-61" x="205.419922"/>
       <use xlink:href="#DejaVuSans-6e" x="266.699219"/>
       <use xlink:href="#DejaVuSans-68" x="330.078125"/>
       <use xlink:href="#DejaVuSans-29" x="393.457031"/>
      </g>
     </g>
    </g>
    <g id="xtick_4">
     <g id="line2d_4">
      <g>
       <use xlink:href="#m845fb6d22c" x="439.604688" y="172.892759" style="stroke: #000000; stroke-width: 0.8"/>
      </g>
     </g>
     <g id="text_4">
      <!-- (4, tanh) -->
      <g transform="translate(417.982031 187.491196)scale(0.1 -0.1)">
       <defs>
        <path id="DejaVuSans-34" d="M 2419 4116 
L 825 1625 
L 2419 1625 
L 2419 4116 
z
M 2253 4666 
L 3047 4666 
L 3047 1625 
L 3713 1625 
L 3713 1100 
L 3047 1100 
L 3047 0 
L 2419 0 
L 2419 1100 
L 313 1100 
L 313 1709 
L 2253 4666 
z
" transform="scale(0.015625)"/>
       </defs>
       <use xlink:href="#DejaVuSans-28"/>
       <use xlink:href="#DejaVuSans-34" x="39.013672"/>
       <use xlink:href="#DejaVuSans-2c" x="102.636719"/>
       <use xlink:href="#DejaVuSans-20" x="134.423828"/>
       <use xlink:href="#DejaVuSans-74" x="166.210938"/>
       <use xlink:href="#DejaVuSans-61" x="205.419922"/>
       <use xlink:href="#DejaVuSans-6e" x="266.699219"/>
       <use xlink:href="#DejaVuSans-68" x="330.078125"/>
       <use xlink:href="#DejaVuSans-29" x="393.457031"/>
      </g>
     </g>
    </g>
    <g id="xtick_5">
     <g id="line2d_5">
      <g>
       <use xlink:href="#m845fb6d22c" x="551.204688" y="172.892759" style="stroke: #000000; stroke-width: 0.8"/>
      </g>
     </g>
     <g id="text_5">
      <!-- logits -->
      <g transform="translate(537.628125 187.491196)scale(0.1 -0.1)">
       <defs>
        <path id="DejaVuSans-6c" d="M 603 4863 
L 1178 4863 
L 1178 0 
L 603 0 
L 603 4863 
z
" transform="scale(0.015625)"/>
        <path id="DejaVuSans-6f" d="M 1959 3097 
Q 1497 3097 1228 2736 
Q 959 2375 959 1747 
Q 959 1119 1226 758 
Q 1494 397 1959 397 
Q 2419 397 2687 759 
Q 2956 1122 2956 1747 
Q 2956 2369 2687 2733 
Q 2419 3097 1959 3097 
z
M 1959 3584 
Q 2709 3584 3137 3096 
Q 3566 2609 3566 1747 
Q 3566 888 3137 398 
Q 2709 -91 1959 -91 
Q 1206 -91 779 398 
Q 353 888 353 1747 
Q 353 2609 779 3096 
Q 1206 3584 1959 3584 
z
" transform="scale(0.015625)"/>
        <path id="DejaVuSans-67" d="M 2906 1791 
Q 2906 2416 2648 2759 
Q 2391 3103 1925 3103 
Q 1463 3103 1205 2759 
Q 947 2416 947 1791 
Q 947 1169 1205 825 
Q 1463 481 1925 481 
Q 2391 481 2648 825 
Q 2906 1169 2906 1791 
z
M 3481 434 
Q 3481 -459 3084 -895 
Q 2688 -1331 1869 -1331 
Q 1566 -1331 1297 -1286 
Q 1028 -1241 775 -1147 
L 775 -588 
Q 1028 -725 1275 -790 
Q 1522 -856 1778 -856 
Q 2344 -856 2625 -561 
Q 2906 -266 2906 331 
L 2906 616 
Q 2728 306 2450 153 
Q 2172 0 1784 0 
Q 1141 0 747 490 
Q 353 981 353 1791 
Q 353 2603 747 3093 
Q 1141 3584 1784 3584 
Q 2172 3584 2450 3431 
Q 2728 3278 2906 2969 
L 2906 3500 
L 3481 3500 
L 3481 434 
z
" transform="scale(0.015625)"/>
        <path id="DejaVuSans-69" d="M 603 3500 
L 1178 3500 
L 1178 0 
L 603 0 
L 603 3500 
z
M 603 4863 
L 1178 4863 
L 1178 4134 
L 603 4134 
L 603 4863 
z
" transform="scale(0.015625)"/>
        <path id="DejaVuSans-73" d="M 2834 3397 
L 2834 2853 
Q 2591 2978 2328 3040 
Q 2066 3103 1784 3103 
Q 1356 3103 1142 2972 
Q 928 2841 928 2578 
Q 928 2378 1081 2264 
Q 1234 2150 1697 2047 
L 1894 2003 
Q 2506 1872 2764 1633 
Q 3022 1394 3022 966 
Q 3022 478 2636 193 
Q 2250 -91 1575 -91 
Q 1294 -91 989 -36 
Q 684 19 347 128 
L 347 722 
Q 666 556 975 473 
Q 1284 391 1588 391 
Q 1994 391 2212 530 
Q 2431 669 2431 922 
Q 2431 1156 2273 1281 
Q 2116 1406 1581 1522 
L 1381 1569 
Q 847 1681 609 1914 
Q 372 2147 372 2553 
Q 372 3047 722 3315 
Q 1072 3584 1716 3584 
Q 2034 3584 2315 3537 
Q 2597 3491 2834 3397 
z
" transform="scale(0.015625)"/>
       </defs>
       <use xlink:href="#DejaVuSans-6c"/>
       <use xlink:href="#DejaVuSans-6f" x="27.783203"/>
       <use xlink:href="#DejaVuSans-67" x="88.964844"/>
       <use xlink:href="#DejaVuSans-69" x="152.441406"/>
       <use xlink:href="#DejaVuSans-74" x="180.224609"/>
       <use xlink:href="#DejaVuSans-73" x="219.433594"/>
      </g>
     </g>
    </g>
   </g>
   <g id="matplotlib.axis_2">
    <g id="ytick_1">
     <g id="line2d_6">
      <defs>
       <path id="m64c0f1d732" d="M 0 0 
L -3.5 0 
" style="stroke: #000000; stroke-width: 0.8"/>
      </defs>
      <g>
       <use xlink:href="#m64c0f1d732" x="49.004687" y="168.080181" style="stroke: #000000; stroke-width: 0.8"/>
      </g>
     </g>
     <g id="text_6">
      <!-- −15 -->
      <g transform="translate(20.9 171.8794)scale(0.1 -0.1)">
       <defs>
        <path id="DejaVuSans-2212" d="M 678 2272 
L 4684 2272 
L 4684 1741 
L 678 1741 
L 678 2272 
z
" transform="scale(0.015625)"/>
        <path id="DejaVuSans-35" d="M 691 4666 
L 3169 4666 
L 3169 4134 
L 1269 4134 
L 1269 2991 
Q 1406 3038 1543 3061 
Q 1681 3084 1819 3084 
Q 2600 3084 3056 2656 
Q 3513 2228 3513 1497 
Q 3513 744 3044 326 
Q 2575 -91 1722 -91 
Q 1428 -91 1123 -41 
Q 819 9 494 109 
L 494 744 
Q 775 591 1075 516 
Q 1375 441 1709 441 
Q 2250 441 2565 725 
Q 2881 1009 2881 1497 
Q 2881 1984 2565 2268 
Q 2250 2553 1709 2553 
Q 1456 2553 1204 2497 
Q 953 2441 691 2322 
L 691 4666 
z
" transform="scale(0.015625)"/>
       </defs>
       <use xlink:href="#DejaVuSans-2212"/>
       <use xlink:href="#DejaVuSans-31" x="83.789062"/>
       <use xlink:href="#DejaVuSans-35" x="147.412109"/>
      </g>
     </g>
    </g>
    <g id="ytick_2">
     <g id="line2d_7">
      <g>
       <use xlink:href="#m64c0f1d732" x="49.004687" y="141.900021" style="stroke: #000000; stroke-width: 0.8"/>
      </g>
     </g>
     <g id="text_7">
      <!-- −10 -->
      <g transform="translate(20.9 145.699239)scale(0.1 -0.1)">
       <defs>
        <path id="DejaVuSans-30" d="M 2034 4250 
Q 1547 4250 1301 3770 
Q 1056 3291 1056 2328 
Q 1056 1369 1301 889 
Q 1547 409 2034 409 
Q 2525 409 2770 889 
Q 3016 1369 3016 2328 
Q 3016 3291 2770 3770 
Q 2525 4250 2034 4250 
z
M 2034 4750 
Q 2819 4750 3233 4129 
Q 3647 3509 3647 2328 
Q 3647 1150 3233 529 
Q 2819 -91 2034 -91 
Q 1250 -91 836 529 
Q 422 1150 422 2328 
Q 422 3509 836 4129 
Q 1250 4750 2034 4750 
z
" transform="scale(0.015625)"/>
       </defs>
       <use xlink:href="#DejaVuSans-2212"/>
       <use xlink:href="#DejaVuSans-31" x="83.789062"/>
       <use xlink:href="#DejaVuSans-30" x="147.412109"/>
      </g>
     </g>
    </g>
    <g id="ytick_3">
     <g id="line2d_8">
      <g>
       <use xlink:href="#m64c0f1d732" x="49.004687" y="115.71986" style="stroke: #000000; stroke-width: 0.8"/>
      </g>
     </g>
     <g id="text_8">
      <!-- −5 -->
      <g transform="translate(27.2625 119.519079)scale(0.1 -0.1)">
       <use xlink:href="#DejaVuSans-2212"/>
       <use xlink:href="#DejaVuSans-35" x="83.789062"/>
      </g>
     </g>
    </g>
    <g id="ytick_4">
     <g id="line2d_9">
      <g>
       <use xlink:href="#m64c0f1d732" x="49.004687" y="89.5397" style="stroke: #000000; stroke-width: 0.8"/>
      </g>
     </g>
     <g id="text_9">
      <!-- 0 -->
      <g transform="translate(35.642187 93.338919)scale(0.1 -0.1)">
       <use xlink:href="#DejaVuSans-30"/>
      </g>
     </g>
    </g>
    <g id="ytick_5">
     <g id="line2d_10">
      <g>
       <use xlink:href="#m64c0f1d732" x="49.004687" y="63.359539" style="stroke: #000000; stroke-width: 0.8"/>
      </g>
     </g>
     <g id="text_10">
      <!-- 5 -->
      <g transform="translate(35.642187 67.158758)scale(0.1 -0.1)">
       <use xlink:href="#DejaVuSans-35"/>
      </g>
     </g>
    </g>
    <g id="ytick_6">
     <g id="line2d_11">
      <g>
       <use xlink:href="#m64c0f1d732" x="49.004687" y="37.179379" style="stroke: #000000; stroke-width: 0.8"/>
      </g>
     </g>
     <g id="text_11">
      <!-- 10 -->
      <g transform="translate(29.279687 40.978598)scale(0.1 -0.1)">
       <use xlink:href="#DejaVuSans-31"/>
       <use xlink:href="#DejaVuSans-30" x="63.623047"/>
      </g>
     </g>
    </g>
    <g id="ytick_7">
     <g id="line2d_12">
      <g>
       <use xlink:href="#m64c0f1d732" x="49.004687" y="10.999219" style="stroke: #000000; stroke-width: 0.8"/>
      </g>
     </g>
     <g id="text_12">
      <!-- 15 -->
      <g transform="translate(29.279687 14.798437)scale(0.1 -0.1)">
       <use xlink:href="#DejaVuSans-31"/>
       <use xlink:href="#DejaVuSans-35" x="63.623047"/>
      </g>
     </g>
    </g>
    <g id="text_13">
     <!-- ${\phi}$ -->
     <g transform="translate(14.8 94.652759)rotate(-90)scale(0.1 -0.1)">
      <defs>
       <path id="DejaVuSans-Oblique-3d5" d="M 2991 4863 
L 2738 3572 
Q 3363 3572 3684 3094 
Q 4016 2606 3850 1747 
Q 3681 888 3159 400 
Q 2653 -78 2028 -78 
L 1784 -1331 
L 1213 -1331 
L 1456 -78 
Q 834 -78 509 400 
Q 178 888 347 1747 
Q 513 2606 1034 3094 
Q 1544 3572 2166 3572 
L 2419 4863 
L 2991 4863 
z
M 2128 434 
Q 2481 434 2784 756 
Q 3116 1116 3244 1747 
Q 3369 2372 3169 2738 
Q 2991 3059 2638 3059 
L 2128 434 
z
M 1556 434 
L 2066 3059 
Q 1716 3059 1413 2738 
Q 1072 2372 953 1747 
Q 834 1116 1028 756 
Q 1203 434 1556 434 
z
" transform="scale(0.015625)"/>
      </defs>
      <use xlink:href="#DejaVuSans-Oblique-3d5" transform="translate(0 0.015625)"/>
     </g>
    </g>
   </g>
   <g id="line2d_13">
    <path d="M 104.804688 94.775732 
L 104.804688 84.303667 
" clip-path="url(#p77ad07c53b)" style="fill: none; stroke: #3f3f3f; stroke-width: 1.5; stroke-linecap: square"/>
   </g>
   <g id="line2d_14">
    <path d="M 104.804688 94.775289 
L 104.804688 84.304129 
" clip-path="url(#p77ad07c53b)" style="fill: none; stroke: #3f3f3f; stroke-width: 4.5; stroke-linecap: square"/>
   </g>
   <g id="line2d_15">
    <path d="M 216.404688 94.775732 
L 216.404688 84.303667 
" clip-path="url(#p77ad07c53b)" style="fill: none; stroke: #3f3f3f; stroke-width: 1.5; stroke-linecap: square"/>
   </g>
   <g id="line2d_16">
    <path d="M 216.404688 94.774146 
L 216.404688 84.305278 
" clip-path="url(#p77ad07c53b)" style="fill: none; stroke: #3f3f3f; stroke-width: 4.5; stroke-linecap: square"/>
   </g>
   <g id="line2d_17">
    <path d="M 328.004688 94.775732 
L 328.004688 84.303667 
" clip-path="url(#p77ad07c53b)" style="fill: none; stroke: #3f3f3f; stroke-width: 1.5; stroke-linecap: square"/>
   </g>
   <g id="line2d_18">
    <path d="M 328.004688 94.752457 
L 328.004688 84.327694 
" clip-path="url(#p77ad07c53b)" style="fill: none; stroke: #3f3f3f; stroke-width: 4.5; stroke-linecap: square"/>
   </g>
   <g id="line2d_19">
    <path d="M 439.604688 94.775732 
L 439.604688 84.303667 
" clip-path="url(#p77ad07c53b)" style="fill: none; stroke: #3f3f3f; stroke-width: 1.5; stroke-linecap: square"/>
   </g>
   <g id="line2d_20">
    <path d="M 439.604688 94.74708 
L 439.604688 84.331498 
" clip-path="url(#p77ad07c53b)" style="fill: none; stroke: #3f3f3f; stroke-width: 4.5; stroke-linecap: square"/>
   </g>
   <g id="line2d_21">
    <path d="M 551.204688 131.442767 
L 551.204688 47.850318 
" clip-path="url(#p77ad07c53b)" style="fill: none; stroke: #3f3f3f; stroke-width: 1.5; stroke-linecap: square"/>
   </g>
   <g id="line2d_22">
    <path d="M 551.204688 100.098438 
L 551.204688 79.189452 
" clip-path="url(#p77ad07c53b)" style="fill: none; stroke: #3f3f3f; stroke-width: 4.5; stroke-linecap: square"/>
   </g>
   <g id="patch_3">
    <path d="M 49.004687 172.892759 
L 49.004687 9.812759 
" style="fill: none; stroke: #000000; stroke-width: 0.8; stroke-linejoin: miter; stroke-linecap: square"/>
   </g>
   <g id="patch_4">
    <path d="M 607.004688 172.892759 
L 607.004688 9.812759 
" style="fill: none; stroke: #000000; stroke-width: 0.8; stroke-linejoin: miter; stroke-linecap: square"/>
   </g>
   <g id="patch_5">
    <path d="M 49.004687 172.892759 
L 607.004688 172.892759 
" style="fill: none; stroke: #000000; stroke-width: 0.8; stroke-linejoin: miter; stroke-linecap: square"/>
   </g>
   <g id="patch_6">
    <path d="M 49.004687 9.812759 
L 607.004688 9.812759 
" style="fill: none; stroke: #000000; stroke-width: 0.8; stroke-linejoin: miter; stroke-linecap: square"/>
   </g>
   <g id="PathCollection_1">
    <defs>
     <path id="mb70496b38e" d="M 0 1.5 
C 0.397805 1.5 0.77937 1.341951 1.06066 1.06066 
C 1.341951 0.77937 1.5 0.397805 1.5 0 
C 1.5 -0.397805 1.341951 -0.77937 1.06066 -1.06066 
C 0.77937 -1.341951 0.397805 -1.5 0 -1.5 
C -0.397805 -1.5 -0.77937 -1.341951 -1.06066 -1.06066 
C -1.341951 -0.77937 -1.5 -0.397805 -1.5 0 
C -1.5 0.397805 -1.341951 0.77937 -1.06066 1.06066 
C -0.77937 1.341951 -0.397805 1.5 0 1.5 
z
" style="stroke: #3f3f3f"/>
    </defs>
    <g clip-path="url(#p77ad07c53b)">
     <use xlink:href="#mb70496b38e" x="104.804688" y="89.492507" style="fill: #ffffff; stroke: #3f3f3f"/>
    </g>
   </g>
   <g id="PathCollection_2">
    <g clip-path="url(#p77ad07c53b)">
     <use xlink:href="#mb70496b38e" x="216.404688" y="89.577497" style="fill: #ffffff; stroke: #3f3f3f"/>
    </g>
   </g>
   <g id="PathCollection_3">
    <g clip-path="url(#p77ad07c53b)">
     <use xlink:href="#mb70496b38e" x="328.004688" y="89.577139" style="fill: #ffffff; stroke: #3f3f3f"/>
    </g>
   </g>
   <g id="PathCollection_4">
    <g clip-path="url(#p77ad07c53b)">
     <use xlink:href="#mb70496b38e" x="439.604688" y="89.469967" style="fill: #ffffff; stroke: #3f3f3f"/>
    </g>
   </g>
   <g id="PathCollection_5">
    <g clip-path="url(#p77ad07c53b)">
     <use xlink:href="#mb70496b38e" x="551.204688" y="89.567685" style="fill: #ffffff; stroke: #3f3f3f"/>
    </g>
   </g>
  </g>
 </g>
 <defs>
  <clipPath id="p77ad07c53b">
   <rect x="49.004687" y="9.812759" width="558" height="163.08"/>
  </clipPath>
 </defs>
</svg>
