<?xml version="1.0" encoding="utf-8" standalone="no"?>
<!DOCTYPE svg PUBLIC "-//W3C//DTD SVG 1.1//EN"
  "http://www.w3.org/Graphics/SVG/1.1/DTD/svg11.dtd">
<svg xmlns:xlink="http://www.w3.org/1999/xlink" width="607.842188pt" height="194.158125pt" viewBox="0 0 607.842188 194.158125" xmlns="http://www.w3.org/2000/svg" version="1.1">
 <metadata>
  <rdf:RDF xmlns:dc="http://purl.org/dc/elements/1.1/" xmlns:cc="http://creativecommons.org/ns#" xmlns:rdf="http://www.w3.org/1999/02/22-rdf-syntax-ns#">
   <cc:Work>
    <dc:type rdf:resource="http://purl.org/dc/dcmitype/StillImage"/>
    <dc:date>2022-07-08T21:37:52.400483</dc:date>
    <dc:format>image/svg+xml</dc:format>
    <dc:creator>
     <cc:Agent>
      <dc:title>Matplotlib v3.5.1, https://matplotlib.org/</dc:title>
     </cc:Agent>
    </dc:creator>
   </cc:Work>
  </rdf:RDF>
 </metadata>
 <defs>
  <style type="text/css">*{stroke-linejoin: round; stroke-linecap: butt}</style>
 </defs>
 <g id="figure_1">
  <g id="patch_1">
   <path d="M 0 194.158125 
L 607.842188 194.158125 
L 607.842188 0 
L 0 0 
L 0 194.158125 
z
" style="fill: none"/>
  </g>
  <g id="axes_1">
   <g id="patch_2">
    <path d="M 42.642188 170.28 
L 600.642187 170.28 
L 600.642187 7.2 
L 42.642188 7.2 
z
" style="fill: #ffffff"/>
   </g>
   <g id="PolyCollection_1">
    <defs>
     <path id="md255d41b23" d="M 98.442188 -31.290852 
L 98.442187 -31.290852 
L 98.442187 -32.788373 
L 98.442188 -34.285894 
L 98.442188 -35.783414 
L 98.442188 -37.280935 
L 98.442187 -38.778456 
L 98.442187 -40.275976 
L 98.442187 -41.773497 
L 98.442187 -43.271018 
L 98.442187 -44.768538 
L 98.442187 -46.266059 
L 98.442187 -47.76358 
L 98.442187 -49.2611 
L 98.442186 -50.758621 
L 98.442186 -52.256142 
L 98.442187 -53.753662 
L 98.442187 -55.251183 
L 98.442187 -56.748704 
L 98.442187 -58.246224 
L 98.442186 -59.743745 
L 98.442185 -61.241265 
L 98.442182 -62.738786 
L 98.442182 -64.236307 
L 98.442182 -65.733827 
L 98.442182 -67.231348 
L 98.442177 -68.728869 
L 98.442174 -70.226389 
L 98.44217 -71.72391 
L 98.442164 -73.221431 
L 98.442154 -74.718951 
L 98.442139 -76.216472 
L 98.44212 -77.713993 
L 98.442083 -79.211513 
L 98.442022 -80.709034 
L 98.44193 -82.206555 
L 98.441739 -83.704075 
L 98.441439 -85.201596 
L 98.440885 -86.699117 
L 98.44003 -88.196637 
L 98.438671 -89.694158 
L 98.436545 -91.191679 
L 98.433513 -92.689199 
L 98.429218 -94.18672 
L 98.423956 -95.684241 
L 98.418277 -97.181761 
L 98.413834 -98.679282 
L 98.412057 -100.176803 
L 98.413575 -101.674323 
L 98.417842 -103.171844 
L 98.423276 -104.669365 
L 98.428582 -106.166885 
L 98.433035 -107.664406 
L 98.436434 -109.161927 
L 98.438684 -110.659447 
L 98.440133 -112.156968 
L 98.440961 -113.654489 
L 98.441454 -115.152009 
L 98.441765 -116.64953 
L 98.441921 -118.147051 
L 98.442034 -119.644571 
L 98.44209 -121.142092 
L 98.442124 -122.639613 
L 98.442139 -124.137133 
L 98.442158 -125.634654 
L 98.442164 -127.132175 
L 98.442171 -128.629695 
L 98.442173 -130.127216 
L 98.442177 -131.624737 
L 98.44218 -133.122257 
L 98.44218 -134.619778 
L 98.442183 -136.117299 
L 98.442183 -137.614819 
L 98.442184 -139.11234 
L 98.442186 -140.609861 
L 98.442185 -142.107381 
L 98.442186 -143.604902 
L 98.442187 -145.102423 
L 98.442187 -146.599943 
L 98.442187 -148.097464 
L 98.442187 -149.594985 
L 98.442187 -151.092505 
L 98.442187 -152.590026 
L 98.442187 -154.087546 
L 98.442187 -155.585067 
L 98.442187 -157.082588 
L 98.442187 -158.580108 
L 98.442187 -160.077629 
L 98.442187 -161.57515 
L 98.442187 -163.07267 
L 98.442187 -164.570191 
L 98.442187 -166.067712 
L 98.442188 -167.565232 
L 98.442188 -169.062753 
L 98.442188 -170.560274 
L 98.442188 -172.057794 
L 98.442187 -173.555315 
L 98.442187 -175.052836 
L 98.442187 -176.550356 
L 98.442187 -178.047877 
L 98.442187 -179.545398 
L 98.442188 -179.545398 
L 98.442188 -179.545398 
L 98.442188 -178.047877 
L 98.442188 -176.550356 
L 98.442188 -175.052836 
L 98.442188 -173.555315 
L 98.442188 -172.057794 
L 98.442188 -170.560274 
L 98.442188 -169.062753 
L 98.442188 -167.565232 
L 98.442188 -166.067712 
L 98.442188 -164.570191 
L 98.442188 -163.07267 
L 98.442188 -161.57515 
L 98.442188 -160.077629 
L 98.442188 -158.580108 
L 98.442188 -157.082588 
L 98.442188 -155.585067 
L 98.442188 -154.087546 
L 98.442188 -152.590026 
L 98.442188 -151.092505 
L 98.442188 -149.594985 
L 98.442188 -148.097464 
L 98.442188 -146.599943 
L 98.442188 -145.102423 
L 98.442189 -143.604902 
L 98.44219 -142.107381 
L 98.442189 -140.609861 
L 98.442191 -139.11234 
L 98.442192 -137.614819 
L 98.442192 -136.117299 
L 98.442195 -134.619778 
L 98.442195 -133.122257 
L 98.442198 -131.624737 
L 98.442202 -130.127216 
L 98.442204 -128.629695 
L 98.442211 -127.132175 
L 98.442217 -125.634654 
L 98.442236 -124.137133 
L 98.442251 -122.639613 
L 98.442285 -121.142092 
L 98.442341 -119.644571 
L 98.442454 -118.147051 
L 98.44261 -116.64953 
L 98.442921 -115.152009 
L 98.443414 -113.654489 
L 98.444242 -112.156968 
L 98.445691 -110.659447 
L 98.447941 -109.161927 
L 98.45134 -107.664406 
L 98.455793 -106.166885 
L 98.461099 -104.669365 
L 98.466533 -103.171844 
L 98.4708 -101.674323 
L 98.472318 -100.176803 
L 98.470541 -98.679282 
L 98.466098 -97.181761 
L 98.460419 -95.684241 
L 98.455157 -94.18672 
L 98.450862 -92.689199 
L 98.44783 -91.191679 
L 98.445704 -89.694158 
L 98.444345 -88.196637 
L 98.44349 -86.699117 
L 98.442936 -85.201596 
L 98.442636 -83.704075 
L 98.442445 -82.206555 
L 98.442353 -80.709034 
L 98.442292 -79.211513 
L 98.442255 -77.713993 
L 98.442236 -76.216472 
L 98.442221 -74.718951 
L 98.442211 -73.221431 
L 98.442205 -71.72391 
L 98.442201 -70.226389 
L 98.442198 -68.728869 
L 98.442193 -67.231348 
L 98.442193 -65.733827 
L 98.442193 -64.236307 
L 98.442193 -62.738786 
L 98.44219 -61.241265 
L 98.442189 -59.743745 
L 98.442188 -58.246224 
L 98.442188 -56.748704 
L 98.442188 -55.251183 
L 98.442188 -53.753662 
L 98.442189 -52.256142 
L 98.442189 -50.758621 
L 98.442188 -49.2611 
L 98.442188 -47.76358 
L 98.442188 -46.266059 
L 98.442188 -44.768538 
L 98.442188 -43.271018 
L 98.442188 -41.773497 
L 98.442188 -40.275976 
L 98.442188 -38.778456 
L 98.442188 -37.280935 
L 98.442188 -35.783414 
L 98.442188 -34.285894 
L 98.442188 -32.788373 
L 98.442188 -31.290852 
z
" style="stroke: #3f3f3f; stroke-width: 1.5"/>
    </defs>
    <g clip-path="url(#p72f1082729)">
     <use xlink:href="#md255d41b23" x="0" y="194.158125" style="fill: #3274a1; stroke: #3f3f3f; stroke-width: 1.5"/>
    </g>
   </g>
   <g id="PolyCollection_2">
    <defs>
     <path id="m4096ece181" d="M 210.042188 -87.129001 
L 210.042187 -87.129001 
L 210.042187 -87.412777 
L 210.042186 -87.696552 
L 210.042186 -87.980328 
L 210.042186 -88.264103 
L 210.042184 -88.547878 
L 210.042181 -88.831654 
L 210.042187 -89.115429 
L 210.042184 -89.399205 
L 210.042183 -89.68298 
L 210.042181 -89.966755 
L 210.042175 -90.250531 
L 210.042181 -90.534306 
L 210.042179 -90.818082 
L 210.042176 -91.101857 
L 210.042175 -91.385632 
L 210.042169 -91.669408 
L 210.042177 -91.953183 
L 210.042165 -92.236959 
L 210.042154 -92.520734 
L 210.042147 -92.80451 
L 210.042149 -93.088285 
L 210.042141 -93.37206 
L 210.04211 -93.655836 
L 210.042101 -93.939611 
L 210.042075 -94.223387 
L 210.042043 -94.507162 
L 210.041945 -94.790937 
L 210.041955 -95.074713 
L 210.041772 -95.358488 
L 210.041586 -95.642264 
L 210.041359 -95.926039 
L 210.040906 -96.209814 
L 210.040163 -96.49359 
L 210.039119 -96.777365 
L 210.037501 -97.061141 
L 210.034996 -97.344916 
L 210.031049 -97.628692 
L 210.025017 -97.912467 
L 210.016504 -98.196242 
L 210.004737 -98.480018 
L 209.989865 -98.763793 
L 209.9711 -99.047569 
L 209.949836 -99.331344 
L 209.930979 -99.615119 
L 209.916224 -99.898895 
L 209.910387 -100.18267 
L 209.913954 -100.466446 
L 209.926817 -100.750221 
L 209.945904 -101.033996 
L 209.965795 -101.317772 
L 209.984616 -101.601547 
L 210.000314 -101.885323 
L 210.012861 -102.169098 
L 210.022262 -102.452874 
L 210.029471 -102.736649 
L 210.034297 -103.020424 
L 210.037004 -103.3042 
L 210.0391 -103.587975 
L 210.040202 -103.871751 
L 210.040899 -104.155526 
L 210.041381 -104.439301 
L 210.041623 -104.723077 
L 210.041778 -105.006852 
L 210.041896 -105.290628 
L 210.041997 -105.574403 
L 210.04206 -105.858178 
L 210.042074 -106.141954 
L 210.042114 -106.425729 
L 210.042111 -106.709505 
L 210.042138 -106.99328 
L 210.04214 -107.277056 
L 210.042153 -107.560831 
L 210.042159 -107.844606 
L 210.042165 -108.128382 
L 210.042169 -108.412157 
L 210.042167 -108.695933 
L 210.042177 -108.979708 
L 210.042182 -109.263483 
L 210.042174 -109.547259 
L 210.042185 -109.831034 
L 210.042186 -110.11481 
L 210.04218 -110.398585 
L 210.042186 -110.68236 
L 210.042184 -110.966136 
L 210.042182 -111.249911 
L 210.042185 -111.533687 
L 210.042187 -111.817462 
L 210.042187 -112.101238 
L 210.042183 -112.385013 
L 210.042187 -112.668788 
L 210.042187 -112.952564 
L 210.042186 -113.236339 
L 210.042186 -113.520115 
L 210.042186 -113.80389 
L 210.042187 -114.087665 
L 210.042188 -114.371441 
L 210.042187 -114.655216 
L 210.042187 -114.938992 
L 210.042187 -115.222767 
L 210.042188 -115.222767 
L 210.042188 -115.222767 
L 210.042188 -114.938992 
L 210.042188 -114.655216 
L 210.042188 -114.371441 
L 210.042188 -114.087665 
L 210.042189 -113.80389 
L 210.042189 -113.520115 
L 210.042189 -113.236339 
L 210.042188 -112.952564 
L 210.042188 -112.668788 
L 210.042192 -112.385013 
L 210.042188 -112.101238 
L 210.042188 -111.817462 
L 210.04219 -111.533687 
L 210.042193 -111.249911 
L 210.042191 -110.966136 
L 210.042189 -110.68236 
L 210.042195 -110.398585 
L 210.042189 -110.11481 
L 210.04219 -109.831034 
L 210.042201 -109.547259 
L 210.042193 -109.263483 
L 210.042198 -108.979708 
L 210.042208 -108.695933 
L 210.042206 -108.412157 
L 210.04221 -108.128382 
L 210.042216 -107.844606 
L 210.042222 -107.560831 
L 210.042235 -107.277056 
L 210.042237 -106.99328 
L 210.042264 -106.709505 
L 210.042261 -106.425729 
L 210.042301 -106.141954 
L 210.042315 -105.858178 
L 210.042378 -105.574403 
L 210.042479 -105.290628 
L 210.042597 -105.006852 
L 210.042752 -104.723077 
L 210.042994 -104.439301 
L 210.043476 -104.155526 
L 210.044173 -103.871751 
L 210.045275 -103.587975 
L 210.047371 -103.3042 
L 210.050078 -103.020424 
L 210.054904 -102.736649 
L 210.062113 -102.452874 
L 210.071514 -102.169098 
L 210.084061 -101.885323 
L 210.099759 -101.601547 
L 210.11858 -101.317772 
L 210.138471 -101.033996 
L 210.157558 -100.750221 
L 210.170421 -100.466446 
L 210.173988 -100.18267 
L 210.168151 -99.898895 
L 210.153396 -99.615119 
L 210.134539 -99.331344 
L 210.113275 -99.047569 
L 210.09451 -98.763793 
L 210.079638 -98.480018 
L 210.067871 -98.196242 
L 210.059358 -97.912467 
L 210.053326 -97.628692 
L 210.049379 -97.344916 
L 210.046874 -97.061141 
L 210.045256 -96.777365 
L 210.044212 -96.49359 
L 210.043469 -96.209814 
L 210.043016 -95.926039 
L 210.042789 -95.642264 
L 210.042603 -95.358488 
L 210.04242 -95.074713 
L 210.04243 -94.790937 
L 210.042332 -94.507162 
L 210.0423 -94.223387 
L 210.042274 -93.939611 
L 210.042265 -93.655836 
L 210.042234 -93.37206 
L 210.042226 -93.088285 
L 210.042228 -92.80451 
L 210.042221 -92.520734 
L 210.04221 -92.236959 
L 210.042198 -91.953183 
L 210.042206 -91.669408 
L 210.0422 -91.385632 
L 210.042199 -91.101857 
L 210.042196 -90.818082 
L 210.042194 -90.534306 
L 210.0422 -90.250531 
L 210.042194 -89.966755 
L 210.042192 -89.68298 
L 210.042191 -89.399205 
L 210.042188 -89.115429 
L 210.042194 -88.831654 
L 210.042191 -88.547878 
L 210.042189 -88.264103 
L 210.042189 -87.980328 
L 210.042189 -87.696552 
L 210.042188 -87.412777 
L 210.042188 -87.129001 
z
" style="stroke: #3f3f3f; stroke-width: 1.5"/>
    </defs>
    <g clip-path="url(#p72f1082729)">
     <use xlink:href="#m4096ece181" x="0" y="194.158125" style="fill: #3274a1; stroke: #3f3f3f; stroke-width: 1.5"/>
    </g>
   </g>
   <g id="PolyCollection_3">
    <defs>
     <path id="m1aa6fe4b03" d="M 321.64219 -97.86243 
L 321.642185 -97.86243 
L 321.642183 -97.911859 
L 321.642187 -97.961287 
L 321.642188 -98.010716 
L 321.642188 -98.060145 
L 321.642188 -98.109574 
L 321.642188 -98.159003 
L 321.642187 -98.208431 
L 321.642183 -98.25786 
L 321.642187 -98.307289 
L 321.642187 -98.356718 
L 321.642178 -98.406146 
L 321.642173 -98.455575 
L 321.642166 -98.505004 
L 321.642159 -98.554433 
L 321.642168 -98.603862 
L 321.642129 -98.65329 
L 321.642159 -98.702719 
L 321.642156 -98.752148 
L 321.642135 -98.801577 
L 321.642092 -98.851006 
L 321.642031 -98.900434 
L 321.642084 -98.949863 
L 321.642019 -98.999292 
L 321.641978 -99.048721 
L 321.641891 -99.098149 
L 321.641848 -99.147578 
L 321.641763 -99.197007 
L 321.641634 -99.246436 
L 321.641224 -99.295865 
L 321.641218 -99.345293 
L 321.640504 -99.394722 
L 321.640066 -99.444151 
L 321.638799 -99.49358 
L 321.63704 -99.543009 
L 321.633992 -99.592437 
L 321.629458 -99.641866 
L 321.62041 -99.691295 
L 321.605153 -99.740724 
L 321.583554 -99.790152 
L 321.548432 -99.839581 
L 321.496804 -99.88901 
L 321.419795 -99.938439 
L 321.317361 -99.987868 
L 321.183375 -100.037296 
L 321.036728 -100.086725 
L 320.903661 -100.136154 
L 320.814034 -100.185583 
L 320.801873 -100.235012 
L 320.864439 -100.28444 
L 320.987939 -100.333869 
L 321.135804 -100.383298 
L 321.272456 -100.432727 
L 321.388725 -100.482155 
L 321.472137 -100.531584 
L 321.532611 -100.581013 
L 321.572634 -100.630442 
L 321.599345 -100.679871 
L 321.61493 -100.729299 
L 321.624743 -100.778728 
L 321.631364 -100.828157 
L 321.635523 -100.877586 
L 321.637325 -100.927015 
L 321.638966 -100.976443 
L 321.64 -101.025872 
L 321.640699 -101.075301 
L 321.641113 -101.12473 
L 321.641512 -101.174159 
L 321.641633 -101.223587 
L 321.641803 -101.273016 
L 321.64189 -101.322445 
L 321.641954 -101.371874 
L 321.641981 -101.421302 
L 321.642081 -101.470731 
L 321.642069 -101.52016 
L 321.642114 -101.569589 
L 321.64209 -101.619018 
L 321.642131 -101.668446 
L 321.642124 -101.717875 
L 321.642127 -101.767304 
L 321.642169 -101.816733 
L 321.642173 -101.866162 
L 321.642176 -101.91559 
L 321.642162 -101.965019 
L 321.642178 -102.014448 
L 321.642177 -102.063877 
L 321.642173 -102.113305 
L 321.642178 -102.162734 
L 321.642183 -102.212163 
L 321.642157 -102.261592 
L 321.642174 -102.311021 
L 321.642183 -102.360449 
L 321.642182 -102.409878 
L 321.642186 -102.459307 
L 321.642186 -102.508736 
L 321.642187 -102.558165 
L 321.642187 -102.607593 
L 321.642186 -102.657022 
L 321.642185 -102.706451 
L 321.642186 -102.75588 
L 321.642189 -102.75588 
L 321.642189 -102.75588 
L 321.64219 -102.706451 
L 321.642189 -102.657022 
L 321.642188 -102.607593 
L 321.642188 -102.558165 
L 321.642189 -102.508736 
L 321.642189 -102.459307 
L 321.642193 -102.409878 
L 321.642192 -102.360449 
L 321.642201 -102.311021 
L 321.642218 -102.261592 
L 321.642192 -102.212163 
L 321.642197 -102.162734 
L 321.642202 -102.113305 
L 321.642198 -102.063877 
L 321.642197 -102.014448 
L 321.642213 -101.965019 
L 321.642199 -101.91559 
L 321.642202 -101.866162 
L 321.642206 -101.816733 
L 321.642248 -101.767304 
L 321.642251 -101.717875 
L 321.642244 -101.668446 
L 321.642285 -101.619018 
L 321.642261 -101.569589 
L 321.642306 -101.52016 
L 321.642294 -101.470731 
L 321.642394 -101.421302 
L 321.642421 -101.371874 
L 321.642485 -101.322445 
L 321.642572 -101.273016 
L 321.642742 -101.223587 
L 321.642863 -101.174159 
L 321.643262 -101.12473 
L 321.643676 -101.075301 
L 321.644375 -101.025872 
L 321.645409 -100.976443 
L 321.64705 -100.927015 
L 321.648852 -100.877586 
L 321.653011 -100.828157 
L 321.659632 -100.778728 
L 321.669445 -100.729299 
L 321.68503 -100.679871 
L 321.711741 -100.630442 
L 321.751764 -100.581013 
L 321.812238 -100.531584 
L 321.89565 -100.482155 
L 322.011919 -100.432727 
L 322.148571 -100.383298 
L 322.296436 -100.333869 
L 322.419936 -100.28444 
L 322.482502 -100.235012 
L 322.470341 -100.185583 
L 322.380714 -100.136154 
L 322.247647 -100.086725 
L 322.101 -100.037296 
L 321.967014 -99.987868 
L 321.86458 -99.938439 
L 321.787571 -99.88901 
L 321.735943 -99.839581 
L 321.700821 -99.790152 
L 321.679222 -99.740724 
L 321.663965 -99.691295 
L 321.654917 -99.641866 
L 321.650383 -99.592437 
L 321.647335 -99.543009 
L 321.645576 -99.49358 
L 321.644309 -99.444151 
L 321.643871 -99.394722 
L 321.643157 -99.345293 
L 321.643151 -99.295865 
L 321.642741 -99.246436 
L 321.642612 -99.197007 
L 321.642527 -99.147578 
L 321.642484 -99.098149 
L 321.642397 -99.048721 
L 321.642356 -98.999292 
L 321.642291 -98.949863 
L 321.642344 -98.900434 
L 321.642283 -98.851006 
L 321.64224 -98.801577 
L 321.642219 -98.752148 
L 321.642216 -98.702719 
L 321.642246 -98.65329 
L 321.642207 -98.603862 
L 321.642216 -98.554433 
L 321.642209 -98.505004 
L 321.642202 -98.455575 
L 321.642197 -98.406146 
L 321.642188 -98.356718 
L 321.642188 -98.307289 
L 321.642192 -98.25786 
L 321.642188 -98.208431 
L 321.642188 -98.159003 
L 321.642188 -98.109574 
L 321.642188 -98.060145 
L 321.642188 -98.010716 
L 321.642188 -97.961287 
L 321.642192 -97.911859 
L 321.64219 -97.86243 
z
" style="stroke: #3f3f3f; stroke-width: 1.5"/>
    </defs>
    <g clip-path="url(#p72f1082729)">
     <use xlink:href="#m1aa6fe4b03" x="0" y="194.158125" style="fill: #3274a1; stroke: #3f3f3f; stroke-width: 1.5"/>
    </g>
   </g>
   <g id="PolyCollection_4">
    <defs>
     <path id="m1c01d9ac30" d="M 433.242204 -99.913516 
L 433.242171 -99.913516 
L 433.242105 -99.9205 
L 433.241906 -99.927485 
L 433.242083 -99.934469 
L 433.242083 -99.941454 
L 433.242179 -99.948438 
L 433.241994 -99.955423 
L 433.242055 -99.962407 
L 433.242044 -99.969392 
L 433.2419 -99.976376 
L 433.242034 -99.983361 
L 433.241824 -99.990345 
L 433.241996 -99.99733 
L 433.241373 -100.004314 
L 433.241747 -100.011299 
L 433.241098 -100.018283 
L 433.241076 -100.025268 
L 433.240573 -100.032252 
L 433.240341 -100.039237 
L 433.240821 -100.046221 
L 433.239058 -100.053206 
L 433.237762 -100.06019 
L 433.237737 -100.067175 
L 433.235906 -100.074159 
L 433.233588 -100.081144 
L 433.23091 -100.088128 
L 433.22615 -100.095112 
L 433.219002 -100.102097 
L 433.207332 -100.109081 
L 433.191402 -100.116066 
L 433.165515 -100.12305 
L 433.128646 -100.130035 
L 433.067799 -100.137019 
L 432.980646 -100.144004 
L 432.848819 -100.150988 
L 432.650537 -100.157973 
L 432.382261 -100.164957 
L 431.968059 -100.171942 
L 431.455043 -100.178926 
L 430.772382 -100.185911 
L 430.047093 -100.192895 
L 429.307587 -100.19988 
L 428.679632 -100.206864 
L 428.213056 -100.213849 
L 428.02767 -100.220833 
L 428.33549 -100.227818 
L 428.916618 -100.234802 
L 429.650784 -100.241787 
L 430.454893 -100.248771 
L 431.156541 -100.255756 
L 431.724277 -100.26274 
L 432.169232 -100.269724 
L 432.502692 -100.276709 
L 432.739601 -100.283693 
L 432.906281 -100.290678 
L 433.004057 -100.297662 
L 433.081772 -100.304647 
L 433.134433 -100.311631 
L 433.170137 -100.318616 
L 433.193137 -100.3256 
L 433.206466 -100.332585 
L 433.219582 -100.339569 
L 433.22678 -100.346554 
L 433.231836 -100.353538 
L 433.233727 -100.360523 
L 433.235888 -100.367507 
L 433.238864 -100.374492 
L 433.239648 -100.381476 
L 433.239959 -100.388461 
L 433.240229 -100.395445 
L 433.24112 -100.40243 
L 433.240653 -100.409414 
L 433.241099 -100.416399 
L 433.241479 -100.423383 
L 433.241211 -100.430368 
L 433.24121 -100.437352 
L 433.241688 -100.444336 
L 433.241938 -100.451321 
L 433.242011 -100.458305 
L 433.242067 -100.46529 
L 433.242046 -100.472274 
L 433.241978 -100.479259 
L 433.24208 -100.486243 
L 433.242157 -100.493228 
L 433.242075 -100.500212 
L 433.242187 -100.507197 
L 433.242187 -100.514181 
L 433.242077 -100.521166 
L 433.242087 -100.52815 
L 433.242187 -100.535135 
L 433.242187 -100.542119 
L 433.242085 -100.549104 
L 433.242182 -100.556088 
L 433.242187 -100.563073 
L 433.242188 -100.570057 
L 433.242188 -100.577042 
L 433.242188 -100.584026 
L 433.242187 -100.591011 
L 433.242117 -100.597995 
L 433.242171 -100.60498 
L 433.242204 -100.60498 
L 433.242204 -100.60498 
L 433.242258 -100.597995 
L 433.242188 -100.591011 
L 433.242188 -100.584026 
L 433.242188 -100.577042 
L 433.242188 -100.570057 
L 433.242188 -100.563073 
L 433.242193 -100.556088 
L 433.24229 -100.549104 
L 433.242188 -100.542119 
L 433.242188 -100.535135 
L 433.242288 -100.52815 
L 433.242298 -100.521166 
L 433.242188 -100.514181 
L 433.242188 -100.507197 
L 433.2423 -100.500212 
L 433.242218 -100.493228 
L 433.242295 -100.486243 
L 433.242397 -100.479259 
L 433.242329 -100.472274 
L 433.242308 -100.46529 
L 433.242364 -100.458305 
L 433.242437 -100.451321 
L 433.242687 -100.444336 
L 433.243165 -100.437352 
L 433.243164 -100.430368 
L 433.242896 -100.423383 
L 433.243276 -100.416399 
L 433.243722 -100.409414 
L 433.243255 -100.40243 
L 433.244146 -100.395445 
L 433.244416 -100.388461 
L 433.244727 -100.381476 
L 433.245511 -100.374492 
L 433.248487 -100.367507 
L 433.250648 -100.360523 
L 433.252539 -100.353538 
L 433.257595 -100.346554 
L 433.264793 -100.339569 
L 433.277909 -100.332585 
L 433.291238 -100.3256 
L 433.314238 -100.318616 
L 433.349942 -100.311631 
L 433.402603 -100.304647 
L 433.480318 -100.297662 
L 433.578094 -100.290678 
L 433.744774 -100.283693 
L 433.981683 -100.276709 
L 434.315143 -100.269724 
L 434.760098 -100.26274 
L 435.327834 -100.255756 
L 436.029482 -100.248771 
L 436.833591 -100.241787 
L 437.567757 -100.234802 
L 438.148885 -100.227818 
L 438.456705 -100.220833 
L 438.271319 -100.213849 
L 437.804743 -100.206864 
L 437.176788 -100.19988 
L 436.437282 -100.192895 
L 435.711993 -100.185911 
L 435.029332 -100.178926 
L 434.516316 -100.171942 
L 434.102114 -100.164957 
L 433.833838 -100.157973 
L 433.635556 -100.150988 
L 433.503729 -100.144004 
L 433.416576 -100.137019 
L 433.355729 -100.130035 
L 433.31886 -100.12305 
L 433.292973 -100.116066 
L 433.277043 -100.109081 
L 433.265373 -100.102097 
L 433.258225 -100.095112 
L 433.253465 -100.088128 
L 433.250787 -100.081144 
L 433.248469 -100.074159 
L 433.246638 -100.067175 
L 433.246613 -100.06019 
L 433.245317 -100.053206 
L 433.243554 -100.046221 
L 433.244034 -100.039237 
L 433.243802 -100.032252 
L 433.243299 -100.025268 
L 433.243277 -100.018283 
L 433.242628 -100.011299 
L 433.243002 -100.004314 
L 433.242379 -99.99733 
L 433.242551 -99.990345 
L 433.242341 -99.983361 
L 433.242475 -99.976376 
L 433.242331 -99.969392 
L 433.24232 -99.962407 
L 433.242381 -99.955423 
L 433.242196 -99.948438 
L 433.242292 -99.941454 
L 433.242292 -99.934469 
L 433.242469 -99.927485 
L 433.24227 -99.9205 
L 433.242204 -99.913516 
z
" style="stroke: #3f3f3f; stroke-width: 1.5"/>
    </defs>
    <g clip-path="url(#p72f1082729)">
     <use xlink:href="#m1c01d9ac30" x="0" y="194.158125" style="fill: #3274a1; stroke: #3f3f3f; stroke-width: 1.5"/>
    </g>
   </g>
   <g id="PolyCollection_5">
    <defs>
     <path id="mc542bb4ba4" d="M 544.843322 -100.196848 
L 544.841053 -100.196848 
L 544.834761 -100.197492 
L 544.83717 -100.198137 
L 544.841416 -100.198781 
L 544.836785 -100.199426 
L 544.835055 -100.20007 
L 544.841179 -100.200715 
L 544.840423 -100.201359 
L 544.831494 -100.202004 
L 544.826217 -100.202648 
L 544.826822 -100.203293 
L 544.80638 -100.203937 
L 544.786785 -100.204582 
L 544.783576 -100.205226 
L 544.735943 -100.205871 
L 544.68726 -100.206515 
L 544.627773 -100.20716 
L 544.466955 -100.207804 
L 544.264349 -100.208449 
L 543.966154 -100.209093 
L 543.51489 -100.209738 
L 542.769401 -100.210382 
L 541.903895 -100.211027 
L 540.673867 -100.211671 
L 538.825494 -100.212316 
L 536.55279 -100.21296 
L 534.256449 -100.213605 
L 531.72646 -100.214249 
L 527.86008 -100.214894 
L 522.839897 -100.215538 
L 518.062658 -100.216183 
L 513.61686 -100.216827 
L 508.871504 -100.217472 
L 504.073379 -100.218116 
L 500.660198 -100.218761 
L 500.202188 -100.219405 
L 500.946531 -100.22005 
L 503.746542 -100.220694 
L 507.814003 -100.221339 
L 513.036966 -100.221983 
L 518.856102 -100.222628 
L 524.681623 -100.223272 
L 529.751864 -100.223917 
L 533.576319 -100.224561 
L 536.332344 -100.225206 
L 538.489885 -100.22585 
L 540.334354 -100.226495 
L 541.777909 -100.227139 
L 542.759011 -100.227784 
L 543.21743 -100.228428 
L 543.427012 -100.229073 
L 543.73618 -100.229717 
L 544.056632 -100.230362 
L 544.331214 -100.231006 
L 544.519453 -100.231651 
L 544.582076 -100.232295 
L 544.634173 -100.23294 
L 544.708466 -100.233584 
L 544.752526 -100.234229 
L 544.753974 -100.234873 
L 544.78657 -100.235518 
L 544.780743 -100.236162 
L 544.784224 -100.236807 
L 544.801094 -100.237451 
L 544.828277 -100.238096 
L 544.830379 -100.23874 
L 544.831711 -100.239385 
L 544.839725 -100.240029 
L 544.842116 -100.240674 
L 544.842187 -100.241318 
L 544.842185 -100.241963 
L 544.841802 -100.242607 
L 544.836734 -100.243252 
L 544.830566 -100.243896 
L 544.833273 -100.244541 
L 544.840701 -100.245185 
L 544.842159 -100.24583 
L 544.842187 -100.246474 
L 544.842187 -100.247119 
L 544.842188 -100.247763 
L 544.842187 -100.248408 
L 544.842186 -100.249052 
L 544.841953 -100.249697 
L 544.837947 -100.250341 
L 544.834271 -100.250986 
L 544.840662 -100.25163 
L 544.842157 -100.252275 
L 544.842187 -100.252919 
L 544.842187 -100.253564 
L 544.842188 -100.254208 
L 544.842188 -100.254853 
L 544.842188 -100.255497 
L 544.842188 -100.256142 
L 544.842187 -100.256786 
L 544.842187 -100.257431 
L 544.842185 -100.258075 
L 544.841838 -100.25872 
L 544.837173 -100.259364 
L 544.834761 -100.260009 
L 544.841053 -100.260653 
L 544.843322 -100.260653 
L 544.843322 -100.260653 
L 544.849614 -100.260009 
L 544.847202 -100.259364 
L 544.842537 -100.25872 
L 544.84219 -100.258075 
L 544.842188 -100.257431 
L 544.842188 -100.256786 
L 544.842188 -100.256142 
L 544.842188 -100.255497 
L 544.842188 -100.254853 
L 544.842188 -100.254208 
L 544.842188 -100.253564 
L 544.842188 -100.252919 
L 544.842218 -100.252275 
L 544.843713 -100.25163 
L 544.850104 -100.250986 
L 544.846428 -100.250341 
L 544.842422 -100.249697 
L 544.842189 -100.249052 
L 544.842188 -100.248408 
L 544.842188 -100.247763 
L 544.842188 -100.247119 
L 544.842188 -100.246474 
L 544.842216 -100.24583 
L 544.843674 -100.245185 
L 544.851102 -100.244541 
L 544.853809 -100.243896 
L 544.847641 -100.243252 
L 544.842573 -100.242607 
L 544.84219 -100.241963 
L 544.842188 -100.241318 
L 544.842259 -100.240674 
L 544.84465 -100.240029 
L 544.852664 -100.239385 
L 544.853996 -100.23874 
L 544.856098 -100.238096 
L 544.883281 -100.237451 
L 544.900151 -100.236807 
L 544.903632 -100.236162 
L 544.897805 -100.235518 
L 544.930401 -100.234873 
L 544.931849 -100.234229 
L 544.975909 -100.233584 
L 545.050202 -100.23294 
L 545.102299 -100.232295 
L 545.164922 -100.231651 
L 545.353161 -100.231006 
L 545.627743 -100.230362 
L 545.948195 -100.229717 
L 546.257363 -100.229073 
L 546.466945 -100.228428 
L 546.925364 -100.227784 
L 547.906466 -100.227139 
L 549.350021 -100.226495 
L 551.19449 -100.22585 
L 553.352031 -100.225206 
L 556.108056 -100.224561 
L 559.932511 -100.223917 
L 565.002752 -100.223272 
L 570.828273 -100.222628 
L 576.647409 -100.221983 
L 581.870372 -100.221339 
L 585.937833 -100.220694 
L 588.737844 -100.22005 
L 589.482188 -100.219405 
L 589.024177 -100.218761 
L 585.610996 -100.218116 
L 580.812871 -100.217472 
L 576.067515 -100.216827 
L 571.621717 -100.216183 
L 566.844478 -100.215538 
L 561.824295 -100.214894 
L 557.957915 -100.214249 
L 555.427926 -100.213605 
L 553.131585 -100.21296 
L 550.858881 -100.212316 
L 549.010508 -100.211671 
L 547.78048 -100.211027 
L 546.914974 -100.210382 
L 546.169485 -100.209738 
L 545.718221 -100.209093 
L 545.420026 -100.208449 
L 545.21742 -100.207804 
L 545.056602 -100.20716 
L 544.997115 -100.206515 
L 544.948432 -100.205871 
L 544.900799 -100.205226 
L 544.89759 -100.204582 
L 544.877995 -100.203937 
L 544.857553 -100.203293 
L 544.858158 -100.202648 
L 544.852881 -100.202004 
L 544.843952 -100.201359 
L 544.843196 -100.200715 
L 544.84932 -100.20007 
L 544.84759 -100.199426 
L 544.842959 -100.198781 
L 544.847205 -100.198137 
L 544.849614 -100.197492 
L 544.843322 -100.196848 
z
" style="stroke: #3f3f3f; stroke-width: 1.5"/>
    </defs>
    <g clip-path="url(#p72f1082729)">
     <use xlink:href="#mc542bb4ba4" x="0" y="194.158125" style="fill: #3274a1; stroke: #3f3f3f; stroke-width: 1.5"/>
    </g>
   </g>
   <g id="matplotlib.axis_1">
    <g id="xtick_1">
     <g id="line2d_1">
      <defs>
       <path id="mc89988f477" d="M 0 0 
L 0 3.5 
" style="stroke: #000000; stroke-width: 0.8"/>
      </defs>
      <g>
       <use xlink:href="#mc89988f477" x="98.442188" y="170.28" style="stroke: #000000; stroke-width: 0.8"/>
      </g>
     </g>
     <g id="text_1">
      <!-- (1, id) -->
      <g transform="translate(83.617969 184.878438)scale(0.1 -0.1)">
       <defs>
        <path id="DejaVuSans-28" d="M 1984 4856 
Q 1566 4138 1362 3434 
Q 1159 2731 1159 2009 
Q 1159 1288 1364 580 
Q 1569 -128 1984 -844 
L 1484 -844 
Q 1016 -109 783 600 
Q 550 1309 550 2009 
Q 550 2706 781 3412 
Q 1013 4119 1484 4856 
L 1984 4856 
z
" transform="scale(0.015625)"/>
        <path id="DejaVuSans-31" d="M 794 531 
L 1825 531 
L 1825 4091 
L 703 3866 
L 703 4441 
L 1819 4666 
L 2450 4666 
L 2450 531 
L 3481 531 
L 3481 0 
L 794 0 
L 794 531 
z
" transform="scale(0.015625)"/>
        <path id="DejaVuSans-2c" d="M 750 794 
L 1409 794 
L 1409 256 
L 897 -744 
L 494 -744 
L 750 256 
L 750 794 
z
" transform="scale(0.015625)"/>
        <path id="DejaVuSans-20" transform="scale(0.015625)"/>
        <path id="DejaVuSans-69" d="M 603 3500 
L 1178 3500 
L 1178 0 
L 603 0 
L 603 3500 
z
M 603 4863 
L 1178 4863 
L 1178 4134 
L 603 4134 
L 603 4863 
z
" transform="scale(0.015625)"/>
        <path id="DejaVuSans-64" d="M 2906 2969 
L 2906 4863 
L 3481 4863 
L 3481 0 
L 2906 0 
L 2906 525 
Q 2725 213 2448 61 
Q 2172 -91 1784 -91 
Q 1150 -91 751 415 
Q 353 922 353 1747 
Q 353 2572 751 3078 
Q 1150 3584 1784 3584 
Q 2172 3584 2448 3432 
Q 2725 3281 2906 2969 
z
M 947 1747 
Q 947 1113 1208 752 
Q 1469 391 1925 391 
Q 2381 391 2643 752 
Q 2906 1113 2906 1747 
Q 2906 2381 2643 2742 
Q 2381 3103 1925 3103 
Q 1469 3103 1208 2742 
Q 947 2381 947 1747 
z
" transform="scale(0.015625)"/>
        <path id="DejaVuSans-29" d="M 513 4856 
L 1013 4856 
Q 1481 4119 1714 3412 
Q 1947 2706 1947 2009 
Q 1947 1309 1714 600 
Q 1481 -109 1013 -844 
L 513 -844 
Q 928 -128 1133 580 
Q 1338 1288 1338 2009 
Q 1338 2731 1133 3434 
Q 928 4138 513 4856 
z
" transform="scale(0.015625)"/>
       </defs>
       <use xlink:href="#DejaVuSans-28"/>
       <use xlink:href="#DejaVuSans-31" x="39.013672"/>
       <use xlink:href="#DejaVuSans-2c" x="102.636719"/>
       <use xlink:href="#DejaVuSans-20" x="134.423828"/>
       <use xlink:href="#DejaVuSans-69" x="166.210938"/>
       <use xlink:href="#DejaVuSans-64" x="193.994141"/>
       <use xlink:href="#DejaVuSans-29" x="257.470703"/>
      </g>
     </g>
    </g>
    <g id="xtick_2">
     <g id="line2d_2">
      <g>
       <use xlink:href="#mc89988f477" x="210.042188" y="170.28" style="stroke: #000000; stroke-width: 0.8"/>
      </g>
     </g>
     <g id="text_2">
      <!-- (2, id) -->
      <g transform="translate(195.217969 184.878438)scale(0.1 -0.1)">
       <defs>
        <path id="DejaVuSans-32" d="M 1228 531 
L 3431 531 
L 3431 0 
L 469 0 
L 469 531 
Q 828 903 1448 1529 
Q 2069 2156 2228 2338 
Q 2531 2678 2651 2914 
Q 2772 3150 2772 3378 
Q 2772 3750 2511 3984 
Q 2250 4219 1831 4219 
Q 1534 4219 1204 4116 
Q 875 4013 500 3803 
L 500 4441 
Q 881 4594 1212 4672 
Q 1544 4750 1819 4750 
Q 2544 4750 2975 4387 
Q 3406 4025 3406 3419 
Q 3406 3131 3298 2873 
Q 3191 2616 2906 2266 
Q 2828 2175 2409 1742 
Q 1991 1309 1228 531 
z
" transform="scale(0.015625)"/>
       </defs>
       <use xlink:href="#DejaVuSans-28"/>
       <use xlink:href="#DejaVuSans-32" x="39.013672"/>
       <use xlink:href="#DejaVuSans-2c" x="102.636719"/>
       <use xlink:href="#DejaVuSans-20" x="134.423828"/>
       <use xlink:href="#DejaVuSans-69" x="166.210938"/>
       <use xlink:href="#DejaVuSans-64" x="193.994141"/>
       <use xlink:href="#DejaVuSans-29" x="257.470703"/>
      </g>
     </g>
    </g>
    <g id="xtick_3">
     <g id="line2d_3">
      <g>
       <use xlink:href="#mc89988f477" x="321.642188" y="170.28" style="stroke: #000000; stroke-width: 0.8"/>
      </g>
     </g>
     <g id="text_3">
      <!-- (3, id) -->
      <g transform="translate(306.817969 184.878438)scale(0.1 -0.1)">
       <defs>
        <path id="DejaVuSans-33" d="M 2597 2516 
Q 3050 2419 3304 2112 
Q 3559 1806 3559 1356 
Q 3559 666 3084 287 
Q 2609 -91 1734 -91 
Q 1441 -91 1130 -33 
Q 819 25 488 141 
L 488 750 
Q 750 597 1062 519 
Q 1375 441 1716 441 
Q 2309 441 2620 675 
Q 2931 909 2931 1356 
Q 2931 1769 2642 2001 
Q 2353 2234 1838 2234 
L 1294 2234 
L 1294 2753 
L 1863 2753 
Q 2328 2753 2575 2939 
Q 2822 3125 2822 3475 
Q 2822 3834 2567 4026 
Q 2313 4219 1838 4219 
Q 1578 4219 1281 4162 
Q 984 4106 628 3988 
L 628 4550 
Q 988 4650 1302 4700 
Q 1616 4750 1894 4750 
Q 2613 4750 3031 4423 
Q 3450 4097 3450 3541 
Q 3450 3153 3228 2886 
Q 3006 2619 2597 2516 
z
" transform="scale(0.015625)"/>
       </defs>
       <use xlink:href="#DejaVuSans-28"/>
       <use xlink:href="#DejaVuSans-33" x="39.013672"/>
       <use xlink:href="#DejaVuSans-2c" x="102.636719"/>
       <use xlink:href="#DejaVuSans-20" x="134.423828"/>
       <use xlink:href="#DejaVuSans-69" x="166.210938"/>
       <use xlink:href="#DejaVuSans-64" x="193.994141"/>
       <use xlink:href="#DejaVuSans-29" x="257.470703"/>
      </g>
     </g>
    </g>
    <g id="xtick_4">
     <g id="line2d_4">
      <g>
       <use xlink:href="#mc89988f477" x="433.242188" y="170.28" style="stroke: #000000; stroke-width: 0.8"/>
      </g>
     </g>
     <g id="text_4">
      <!-- (4, id) -->
      <g transform="translate(418.417969 184.878438)scale(0.1 -0.1)">
       <defs>
        <path id="DejaVuSans-34" d="M 2419 4116 
L 825 1625 
L 2419 1625 
L 2419 4116 
z
M 2253 4666 
L 3047 4666 
L 3047 1625 
L 3713 1625 
L 3713 1100 
L 3047 1100 
L 3047 0 
L 2419 0 
L 2419 1100 
L 313 1100 
L 313 1709 
L 2253 4666 
z
" transform="scale(0.015625)"/>
       </defs>
       <use xlink:href="#DejaVuSans-28"/>
       <use xlink:href="#DejaVuSans-34" x="39.013672"/>
       <use xlink:href="#DejaVuSans-2c" x="102.636719"/>
       <use xlink:href="#DejaVuSans-20" x="134.423828"/>
       <use xlink:href="#DejaVuSans-69" x="166.210938"/>
       <use xlink:href="#DejaVuSans-64" x="193.994141"/>
       <use xlink:href="#DejaVuSans-29" x="257.470703"/>
      </g>
     </g>
    </g>
    <g id="xtick_5">
     <g id="line2d_5">
      <g>
       <use xlink:href="#mc89988f477" x="544.842188" y="170.28" style="stroke: #000000; stroke-width: 0.8"/>
      </g>
     </g>
     <g id="text_5">
      <!-- logits -->
      <g transform="translate(531.265625 184.878438)scale(0.1 -0.1)">
       <defs>
        <path id="DejaVuSans-6c" d="M 603 4863 
L 1178 4863 
L 1178 0 
L 603 0 
L 603 4863 
z
" transform="scale(0.015625)"/>
        <path id="DejaVuSans-6f" d="M 1959 3097 
Q 1497 3097 1228 2736 
Q 959 2375 959 1747 
Q 959 1119 1226 758 
Q 1494 397 1959 397 
Q 2419 397 2687 759 
Q 2956 1122 2956 1747 
Q 2956 2369 2687 2733 
Q 2419 3097 1959 3097 
z
M 1959 3584 
Q 2709 3584 3137 3096 
Q 3566 2609 3566 1747 
Q 3566 888 3137 398 
Q 2709 -91 1959 -91 
Q 1206 -91 779 398 
Q 353 888 353 1747 
Q 353 2609 779 3096 
Q 1206 3584 1959 3584 
z
" transform="scale(0.015625)"/>
        <path id="DejaVuSans-67" d="M 2906 1791 
Q 2906 2416 2648 2759 
Q 2391 3103 1925 3103 
Q 1463 3103 1205 2759 
Q 947 2416 947 1791 
Q 947 1169 1205 825 
Q 1463 481 1925 481 
Q 2391 481 2648 825 
Q 2906 1169 2906 1791 
z
M 3481 434 
Q 3481 -459 3084 -895 
Q 2688 -1331 1869 -1331 
Q 1566 -1331 1297 -1286 
Q 1028 -1241 775 -1147 
L 775 -588 
Q 1028 -725 1275 -790 
Q 1522 -856 1778 -856 
Q 2344 -856 2625 -561 
Q 2906 -266 2906 331 
L 2906 616 
Q 2728 306 2450 153 
Q 2172 0 1784 0 
Q 1141 0 747 490 
Q 353 981 353 1791 
Q 353 2603 747 3093 
Q 1141 3584 1784 3584 
Q 2172 3584 2450 3431 
Q 2728 3278 2906 2969 
L 2906 3500 
L 3481 3500 
L 3481 434 
z
" transform="scale(0.015625)"/>
        <path id="DejaVuSans-74" d="M 1172 4494 
L 1172 3500 
L 2356 3500 
L 2356 3053 
L 1172 3053 
L 1172 1153 
Q 1172 725 1289 603 
Q 1406 481 1766 481 
L 2356 481 
L 2356 0 
L 1766 0 
Q 1100 0 847 248 
Q 594 497 594 1153 
L 594 3053 
L 172 3053 
L 172 3500 
L 594 3500 
L 594 4494 
L 1172 4494 
z
" transform="scale(0.015625)"/>
        <path id="DejaVuSans-73" d="M 2834 3397 
L 2834 2853 
Q 2591 2978 2328 3040 
Q 2066 3103 1784 3103 
Q 1356 3103 1142 2972 
Q 928 2841 928 2578 
Q 928 2378 1081 2264 
Q 1234 2150 1697 2047 
L 1894 2003 
Q 2506 1872 2764 1633 
Q 3022 1394 3022 966 
Q 3022 478 2636 193 
Q 2250 -91 1575 -91 
Q 1294 -91 989 -36 
Q 684 19 347 128 
L 347 722 
Q 666 556 975 473 
Q 1284 391 1588 391 
Q 1994 391 2212 530 
Q 2431 669 2431 922 
Q 2431 1156 2273 1281 
Q 2116 1406 1581 1522 
L 1381 1569 
Q 847 1681 609 1914 
Q 372 2147 372 2553 
Q 372 3047 722 3315 
Q 1072 3584 1716 3584 
Q 2034 3584 2315 3537 
Q 2597 3491 2834 3397 
z
" transform="scale(0.015625)"/>
       </defs>
       <use xlink:href="#DejaVuSans-6c"/>
       <use xlink:href="#DejaVuSans-6f" x="27.783203"/>
       <use xlink:href="#DejaVuSans-67" x="88.964844"/>
       <use xlink:href="#DejaVuSans-69" x="152.441406"/>
       <use xlink:href="#DejaVuSans-74" x="180.224609"/>
       <use xlink:href="#DejaVuSans-73" x="219.433594"/>
      </g>
     </g>
    </g>
   </g>
   <g id="matplotlib.axis_2">
    <g id="ytick_1">
     <g id="line2d_6">
      <defs>
       <path id="m0f8e7e612d" d="M 0 0 
L -3.5 0 
" style="stroke: #000000; stroke-width: 0.8"/>
      </defs>
      <g>
       <use xlink:href="#m0f8e7e612d" x="42.642188" y="133.257926" style="stroke: #000000; stroke-width: 0.8"/>
      </g>
     </g>
     <g id="text_6">
      <!-- −2 -->
      <g transform="translate(20.9 137.057144)scale(0.1 -0.1)">
       <defs>
        <path id="DejaVuSans-2212" d="M 678 2272 
L 4684 2272 
L 4684 1741 
L 678 1741 
L 678 2272 
z
" transform="scale(0.015625)"/>
       </defs>
       <use xlink:href="#DejaVuSans-2212"/>
       <use xlink:href="#DejaVuSans-32" x="83.789062"/>
      </g>
     </g>
    </g>
    <g id="ytick_2">
     <g id="line2d_7">
      <g>
       <use xlink:href="#m0f8e7e612d" x="42.642188" y="93.938791" style="stroke: #000000; stroke-width: 0.8"/>
      </g>
     </g>
     <g id="text_7">
      <!-- 0 -->
      <g transform="translate(29.279688 97.73801)scale(0.1 -0.1)">
       <defs>
        <path id="DejaVuSans-30" d="M 2034 4250 
Q 1547 4250 1301 3770 
Q 1056 3291 1056 2328 
Q 1056 1369 1301 889 
Q 1547 409 2034 409 
Q 2525 409 2770 889 
Q 3016 1369 3016 2328 
Q 3016 3291 2770 3770 
Q 2525 4250 2034 4250 
z
M 2034 4750 
Q 2819 4750 3233 4129 
Q 3647 3509 3647 2328 
Q 3647 1150 3233 529 
Q 2819 -91 2034 -91 
Q 1250 -91 836 529 
Q 422 1150 422 2328 
Q 422 3509 836 4129 
Q 1250 4750 2034 4750 
z
" transform="scale(0.015625)"/>
       </defs>
       <use xlink:href="#DejaVuSans-30"/>
      </g>
     </g>
    </g>
    <g id="ytick_3">
     <g id="line2d_8">
      <g>
       <use xlink:href="#m0f8e7e612d" x="42.642188" y="54.619657" style="stroke: #000000; stroke-width: 0.8"/>
      </g>
     </g>
     <g id="text_8">
      <!-- 2 -->
      <g transform="translate(29.279688 58.418875)scale(0.1 -0.1)">
       <use xlink:href="#DejaVuSans-32"/>
      </g>
     </g>
    </g>
    <g id="ytick_4">
     <g id="line2d_9">
      <g>
       <use xlink:href="#m0f8e7e612d" x="42.642188" y="15.300522" style="stroke: #000000; stroke-width: 0.8"/>
      </g>
     </g>
     <g id="text_9">
      <!-- 4 -->
      <g transform="translate(29.279688 19.099741)scale(0.1 -0.1)">
       <use xlink:href="#DejaVuSans-34"/>
      </g>
     </g>
    </g>
    <g id="text_10">
     <!-- ${\phi}$ -->
     <g transform="translate(14.8 92.04)rotate(-90)scale(0.1 -0.1)">
      <defs>
       <path id="DejaVuSans-Oblique-3d5" d="M 2991 4863 
L 2738 3572 
Q 3363 3572 3684 3094 
Q 4016 2606 3850 1747 
Q 3681 888 3159 400 
Q 2653 -78 2028 -78 
L 1784 -1331 
L 1213 -1331 
L 1456 -78 
Q 834 -78 509 400 
Q 178 888 347 1747 
Q 513 2606 1034 3094 
Q 1544 3572 2166 3572 
L 2419 4863 
L 2991 4863 
z
M 2128 434 
Q 2481 434 2784 756 
Q 3116 1116 3244 1747 
Q 3369 2372 3169 2738 
Q 2991 3059 2638 3059 
L 2128 434 
z
M 1556 434 
L 2066 3059 
Q 1716 3059 1413 2738 
Q 1072 2372 953 1747 
Q 834 1116 1028 756 
Q 1203 434 1556 434 
z
" transform="scale(0.015625)"/>
      </defs>
      <use xlink:href="#DejaVuSans-Oblique-3d5" transform="translate(0 0.015625)"/>
     </g>
    </g>
   </g>
   <g id="line2d_10">
    <path d="M 98.442188 107.256266 
L 98.442188 80.588909 
" clip-path="url(#p72f1082729)" style="fill: none; stroke: #3f3f3f; stroke-width: 1.5; stroke-linecap: square"/>
   </g>
   <g id="line2d_11">
    <path d="M 98.442188 97.255888 
L 98.442188 90.588959 
" clip-path="url(#p72f1082729)" style="fill: none; stroke: #3f3f3f; stroke-width: 4.5; stroke-linecap: square"/>
   </g>
   <g id="line2d_12">
    <path d="M 210.042188 96.975153 
L 210.042188 90.899592 
" clip-path="url(#p72f1082729)" style="fill: none; stroke: #3f3f3f; stroke-width: 1.5; stroke-linecap: square"/>
   </g>
   <g id="line2d_13">
    <path d="M 210.042188 94.69683 
L 210.042188 93.177928 
" clip-path="url(#p72f1082729)" style="fill: none; stroke: #3f3f3f; stroke-width: 4.5; stroke-linecap: square"/>
   </g>
   <g id="line2d_14">
    <path d="M 321.642188 94.413288 
L 321.642188 93.464585 
" clip-path="url(#p72f1082729)" style="fill: none; stroke: #3f3f3f; stroke-width: 1.5; stroke-linecap: square"/>
   </g>
   <g id="line2d_15">
    <path d="M 321.642188 94.057528 
L 321.642188 93.820351 
" clip-path="url(#p72f1082729)" style="fill: none; stroke: #3f3f3f; stroke-width: 4.5; stroke-linecap: square"/>
   </g>
   <g id="line2d_16">
    <path d="M 433.242188 94.016631 
L 433.242188 93.861222 
" clip-path="url(#p72f1082729)" style="fill: none; stroke: #3f3f3f; stroke-width: 1.5; stroke-linecap: square"/>
   </g>
   <g id="line2d_17">
    <path d="M 433.242188 93.958352 
L 433.242188 93.919498 
" clip-path="url(#p72f1082729)" style="fill: none; stroke: #3f3f3f; stroke-width: 4.5; stroke-linecap: square"/>
   </g>
   <g id="line2d_18">
    <path d="M 544.842188 93.947745 
L 544.842188 93.929925 
" clip-path="url(#p72f1082729)" style="fill: none; stroke: #3f3f3f; stroke-width: 1.5; stroke-linecap: square"/>
   </g>
   <g id="line2d_19">
    <path d="M 544.842188 93.941063 
L 544.842188 93.936607 
" clip-path="url(#p72f1082729)" style="fill: none; stroke: #3f3f3f; stroke-width: 4.5; stroke-linecap: square"/>
   </g>
   <g id="patch_3">
    <path d="M 42.642188 170.28 
L 42.642188 7.2 
" style="fill: none; stroke: #000000; stroke-width: 0.8; stroke-linejoin: miter; stroke-linecap: square"/>
   </g>
   <g id="patch_4">
    <path d="M 600.642187 170.28 
L 600.642187 7.2 
" style="fill: none; stroke: #000000; stroke-width: 0.8; stroke-linejoin: miter; stroke-linecap: square"/>
   </g>
   <g id="patch_5">
    <path d="M 42.642188 170.28 
L 600.642188 170.28 
" style="fill: none; stroke: #000000; stroke-width: 0.8; stroke-linejoin: miter; stroke-linecap: square"/>
   </g>
   <g id="patch_6">
    <path d="M 42.642188 7.2 
L 600.642188 7.2 
" style="fill: none; stroke: #000000; stroke-width: 0.8; stroke-linejoin: miter; stroke-linecap: square"/>
   </g>
   <g id="PathCollection_1">
    <defs>
     <path id="m0e564b063e" d="M 0 1.5 
C 0.397805 1.5 0.77937 1.341951 1.06066 1.06066 
C 1.341951 0.77937 1.5 0.397805 1.5 0 
C 1.5 -0.397805 1.341951 -0.77937 1.06066 -1.06066 
C 0.77937 -1.341951 0.397805 -1.5 0 -1.5 
C -0.397805 -1.5 -0.77937 -1.341951 -1.06066 -1.06066 
C -1.341951 -0.77937 -1.5 -0.397805 -1.5 0 
C -1.5 0.397805 -1.341951 0.77937 -1.06066 1.06066 
C -0.77937 1.341951 -0.397805 1.5 0 1.5 
z
" style="stroke: #3f3f3f"/>
    </defs>
    <g clip-path="url(#p72f1082729)">
     <use xlink:href="#m0e564b063e" x="98.442188" y="93.922495" style="fill: #ffffff; stroke: #3f3f3f"/>
    </g>
   </g>
   <g id="PathCollection_2">
    <g clip-path="url(#p72f1082729)">
     <use xlink:href="#m0e564b063e" x="210.042188" y="93.938847" style="fill: #ffffff; stroke: #3f3f3f"/>
    </g>
   </g>
   <g id="PathCollection_3">
    <g clip-path="url(#p72f1082729)">
     <use xlink:href="#m0e564b063e" x="321.642188" y="93.938923" style="fill: #ffffff; stroke: #3f3f3f"/>
    </g>
   </g>
   <g id="PathCollection_4">
    <g clip-path="url(#p72f1082729)">
     <use xlink:href="#m0e564b063e" x="433.242188" y="93.938804" style="fill: #ffffff; stroke: #3f3f3f"/>
    </g>
   </g>
   <g id="PathCollection_5">
    <g clip-path="url(#p72f1082729)">
     <use xlink:href="#m0e564b063e" x="544.842188" y="93.938806" style="fill: #ffffff; stroke: #3f3f3f"/>
    </g>
   </g>
  </g>
 </g>
 <defs>
  <clipPath id="p72f1082729">
   <rect x="42.642188" y="7.2" width="558" height="163.08"/>
  </clipPath>
 </defs>
</svg>
