<?xml version="1.0" encoding="utf-8" standalone="no"?>
<!DOCTYPE svg PUBLIC "-//W3C//DTD SVG 1.1//EN"
  "http://www.w3.org/Graphics/SVG/1.1/DTD/svg11.dtd">
<svg xmlns:xlink="http://www.w3.org/1999/xlink" width="642.810937pt" height="194.158125pt" viewBox="0 0 642.810937 194.158125" xmlns="http://www.w3.org/2000/svg" version="1.1">
 <metadata>
  <rdf:RDF xmlns:dc="http://purl.org/dc/elements/1.1/" xmlns:cc="http://creativecommons.org/ns#" xmlns:rdf="http://www.w3.org/1999/02/22-rdf-syntax-ns#">
   <cc:Work>
    <dc:type rdf:resource="http://purl.org/dc/dcmitype/StillImage"/>
    <dc:date>2022-07-08T21:37:49.092135</dc:date>
    <dc:format>image/svg+xml</dc:format>
    <dc:creator>
     <cc:Agent>
      <dc:title>Matplotlib v3.5.1, https://matplotlib.org/</dc:title>
     </cc:Agent>
    </dc:creator>
   </cc:Work>
  </rdf:RDF>
 </metadata>
 <defs>
  <style type="text/css">*{stroke-linejoin: round; stroke-linecap: butt}</style>
 </defs>
 <g id="figure_1">
  <g id="patch_1">
   <path d="M 0 194.158125 
L 642.810937 194.158125 
L 642.810937 0 
L 0 0 
L 0 194.158125 
z
" style="fill: none"/>
  </g>
  <g id="axes_1">
   <g id="patch_2">
    <path d="M 77.610938 170.28 
L 635.610937 170.28 
L 635.610937 7.2 
L 77.610938 7.2 
z
" style="fill: #ffffff"/>
   </g>
   <g id="PolyCollection_1">
    <defs>
     <path id="m98231264ab" d="M 147.361502 -93.455639 
L 147.360373 -93.455639 
L 147.355461 -93.786995 
L 147.344515 -94.11835 
L 147.334961 -94.449706 
L 147.334621 -94.781062 
L 147.331498 -95.112418 
L 147.319186 -95.443773 
L 147.317323 -95.775129 
L 147.31138 -96.106485 
L 147.300557 -96.437841 
L 147.295349 -96.769196 
L 147.293847 -97.100552 
L 147.287986 -97.431908 
L 147.260936 -97.763264 
L 147.222121 -98.09462 
L 147.192884 -98.425975 
L 147.151893 -98.757331 
L 147.060043 -99.088687 
L 146.951215 -99.420043 
L 146.816351 -99.751398 
L 146.685235 -100.082754 
L 146.545004 -100.41411 
L 146.380846 -100.745466 
L 146.212984 -101.076821 
L 145.982666 -101.408177 
L 145.666171 -101.739533 
L 145.187752 -102.070889 
L 144.645752 -102.402244 
L 144.115827 -102.7336 
L 143.608248 -103.064956 
L 143.014341 -103.396312 
L 142.273938 -103.727667 
L 141.426038 -104.059023 
L 140.455358 -104.390379 
L 139.391917 -104.721735 
L 138.121787 -105.053091 
L 136.684382 -105.384446 
L 135.479006 -105.715802 
L 134.056237 -106.047158 
L 132.241434 -106.378514 
L 130.392681 -106.709869 
L 128.290931 -107.041225 
L 125.668316 -107.372581 
L 123.091529 -107.703937 
L 120.615765 -108.035292 
L 117.803146 -108.366648 
L 114.714962 -108.698004 
L 111.653616 -109.02936 
L 108.290185 -109.360715 
L 104.120318 -109.692071 
L 98.109405 -110.023427 
L 91.560937 -110.354783 
L 94.368563 -110.686139 
L 101.16671 -111.017494 
L 105.607677 -111.34885 
L 108.983637 -111.680206 
L 111.78592 -112.011562 
L 114.617883 -112.342917 
L 117.468053 -112.674273 
L 120.267301 -113.005629 
L 122.782891 -113.336985 
L 125.305987 -113.66834 
L 127.733656 -113.999696 
L 130.076038 -114.331052 
L 132.322929 -114.662408 
L 134.277891 -114.993763 
L 135.973394 -115.325119 
L 137.545246 -115.656475 
L 138.822633 -115.987831 
L 139.905222 -116.319186 
L 141.021832 -116.650542 
L 142.063021 -116.981898 
L 142.950148 -117.313254 
L 143.753777 -117.64461 
L 144.459099 -117.975965 
L 145.01142 -118.307321 
L 145.410511 -118.638677 
L 145.783066 -118.970033 
L 146.048886 -119.301388 
L 146.240252 -119.632744 
L 146.444859 -119.9641 
L 146.630655 -120.295456 
L 146.819862 -120.626811 
L 146.958182 -120.958167 
L 147.010693 -121.289523 
L 147.049594 -121.620879 
L 147.083169 -121.952234 
L 147.11007 -122.28359 
L 147.138824 -122.614946 
L 147.207217 -122.946302 
L 147.264099 -123.277658 
L 147.292378 -123.609013 
L 147.309748 -123.940369 
L 147.313065 -124.271725 
L 147.316414 -124.603081 
L 147.33281 -124.934436 
L 147.344981 -125.265792 
L 147.352223 -125.597148 
L 147.358256 -125.928504 
L 147.360661 -126.259859 
L 147.361214 -126.259859 
L 147.361214 -126.259859 
L 147.363619 -125.928504 
L 147.369652 -125.597148 
L 147.376894 -125.265792 
L 147.389065 -124.934436 
L 147.405461 -124.603081 
L 147.40881 -124.271725 
L 147.412127 -123.940369 
L 147.429497 -123.609013 
L 147.457776 -123.277658 
L 147.514658 -122.946302 
L 147.583051 -122.614946 
L 147.611805 -122.28359 
L 147.638706 -121.952234 
L 147.672281 -121.620879 
L 147.711182 -121.289523 
L 147.763693 -120.958167 
L 147.902013 -120.626811 
L 148.09122 -120.295456 
L 148.277016 -119.9641 
L 148.481623 -119.632744 
L 148.672989 -119.301388 
L 148.938809 -118.970033 
L 149.311364 -118.638677 
L 149.710455 -118.307321 
L 150.262776 -117.975965 
L 150.968098 -117.64461 
L 151.771727 -117.313254 
L 152.658854 -116.981898 
L 153.700043 -116.650542 
L 154.816653 -116.319186 
L 155.899242 -115.987831 
L 157.176629 -115.656475 
L 158.748481 -115.325119 
L 160.443984 -114.993763 
L 162.398946 -114.662408 
L 164.645837 -114.331052 
L 166.988219 -113.999696 
L 169.415888 -113.66834 
L 171.938984 -113.336985 
L 174.454574 -113.005629 
L 177.253822 -112.674273 
L 180.103992 -112.342917 
L 182.935955 -112.011562 
L 185.738238 -111.680206 
L 189.114198 -111.34885 
L 193.555165 -111.017494 
L 200.353312 -110.686139 
L 203.160938 -110.354783 
L 196.61247 -110.023427 
L 190.601557 -109.692071 
L 186.43169 -109.360715 
L 183.068259 -109.02936 
L 180.006913 -108.698004 
L 176.918729 -108.366648 
L 174.10611 -108.035292 
L 171.630346 -107.703937 
L 169.053559 -107.372581 
L 166.430944 -107.041225 
L 164.329194 -106.709869 
L 162.480441 -106.378514 
L 160.665638 -106.047158 
L 159.242869 -105.715802 
L 158.037493 -105.384446 
L 156.600088 -105.053091 
L 155.329958 -104.721735 
L 154.266517 -104.390379 
L 153.295837 -104.059023 
L 152.447937 -103.727667 
L 151.707534 -103.396312 
L 151.113627 -103.064956 
L 150.606048 -102.7336 
L 150.076123 -102.402244 
L 149.534123 -102.070889 
L 149.055704 -101.739533 
L 148.739209 -101.408177 
L 148.508891 -101.076821 
L 148.341029 -100.745466 
L 148.176871 -100.41411 
L 148.03664 -100.082754 
L 147.905524 -99.751398 
L 147.77066 -99.420043 
L 147.661832 -99.088687 
L 147.569982 -98.757331 
L 147.528991 -98.425975 
L 147.499754 -98.09462 
L 147.460939 -97.763264 
L 147.433889 -97.431908 
L 147.428028 -97.100552 
L 147.426526 -96.769196 
L 147.421318 -96.437841 
L 147.410495 -96.106485 
L 147.404552 -95.775129 
L 147.402689 -95.443773 
L 147.390377 -95.112418 
L 147.387254 -94.781062 
L 147.386914 -94.449706 
L 147.37736 -94.11835 
L 147.366414 -93.786995 
L 147.361502 -93.455639 
z
" style="stroke: #515151; stroke-width: 1.5"/>
    </defs>
    <g clip-path="url(#p1bfb7fd687)">
     <use xlink:href="#m98231264ab" x="0" y="194.158125" style="fill: #e1812c; stroke: #515151; stroke-width: 1.5"/>
    </g>
   </g>
   <g id="PolyCollection_2">
    <defs>
     <path id="m392f8be572" d="M 286.861194 -69.170312 
L 286.860681 -69.170312 
L 286.859301 -69.939639 
L 286.859685 -70.708967 
L 286.860822 -71.478295 
L 286.860895 -72.247622 
L 286.860136 -73.01695 
L 286.859059 -73.786278 
L 286.860409 -74.555605 
L 286.860918 -75.324933 
L 286.860814 -76.094261 
L 286.859647 -76.863588 
L 286.858968 -77.632916 
L 286.856718 -78.402244 
L 286.854023 -79.171571 
L 286.857616 -79.940899 
L 286.857946 -80.710227 
L 286.852753 -81.479554 
L 286.848828 -82.248882 
L 286.845478 -83.018209 
L 286.827172 -83.787537 
L 286.821396 -84.556865 
L 286.822299 -85.326192 
L 286.805772 -86.09552 
L 286.791077 -86.864848 
L 286.775615 -87.634175 
L 286.76698 -88.403503 
L 286.734273 -89.172831 
L 286.67589 -89.942158 
L 286.619408 -90.711486 
L 286.553426 -91.480814 
L 286.486599 -92.250141 
L 286.383724 -93.019469 
L 286.262575 -93.788797 
L 286.139775 -94.558124 
L 286.017308 -95.327452 
L 285.772086 -96.096779 
L 285.491113 -96.866107 
L 285.222767 -97.635435 
L 284.822385 -98.404762 
L 284.341855 -99.17409 
L 283.700254 -99.943418 
L 282.959964 -100.712745 
L 282.006701 -101.482073 
L 280.751601 -102.251401 
L 279.374237 -103.020728 
L 277.663549 -103.790056 
L 275.544899 -104.559384 
L 273.158088 -105.328711 
L 270.541474 -106.098039 
L 267.681681 -106.867367 
L 264.737612 -107.636694 
L 262.258878 -108.406022 
L 259.856215 -109.175349 
L 258.38427 -109.944677 
L 258.612999 -110.714005 
L 259.489944 -111.483332 
L 261.343405 -112.25266 
L 263.833551 -113.021988 
L 266.856612 -113.791315 
L 269.861411 -114.560643 
L 272.715867 -115.329971 
L 275.124177 -116.099298 
L 276.93037 -116.868626 
L 278.861709 -117.637954 
L 280.402983 -118.407281 
L 281.644752 -119.176609 
L 282.698377 -119.945937 
L 283.476408 -120.715264 
L 284.104912 -121.484592 
L 284.699566 -122.253919 
L 285.091431 -123.023247 
L 285.42012 -123.792575 
L 285.744178 -124.561902 
L 286.004997 -125.33123 
L 286.165282 -126.100558 
L 286.299228 -126.869885 
L 286.406386 -127.639213 
L 286.479125 -128.408541 
L 286.54193 -129.177868 
L 286.612077 -129.947196 
L 286.655299 -130.716524 
L 286.707798 -131.485851 
L 286.741575 -132.255179 
L 286.766656 -133.024507 
L 286.794978 -133.793834 
L 286.803715 -134.563162 
L 286.806766 -135.332489 
L 286.822213 -136.101817 
L 286.842544 -136.871145 
L 286.848382 -137.640472 
L 286.851454 -138.4098 
L 286.854862 -139.179128 
L 286.856319 -139.948455 
L 286.856951 -140.717783 
L 286.856551 -141.487111 
L 286.858952 -142.256438 
L 286.860607 -143.025766 
L 286.859682 -143.795094 
L 286.859301 -144.564421 
L 286.860681 -145.333749 
L 286.861194 -145.333749 
L 286.861194 -145.333749 
L 286.862574 -144.564421 
L 286.862193 -143.795094 
L 286.861268 -143.025766 
L 286.862923 -142.256438 
L 286.865324 -141.487111 
L 286.864924 -140.717783 
L 286.865556 -139.948455 
L 286.867013 -139.179128 
L 286.870421 -138.4098 
L 286.873493 -137.640472 
L 286.879331 -136.871145 
L 286.899662 -136.101817 
L 286.915109 -135.332489 
L 286.91816 -134.563162 
L 286.926897 -133.793834 
L 286.955219 -133.024507 
L 286.9803 -132.255179 
L 287.014077 -131.485851 
L 287.066576 -130.716524 
L 287.109798 -129.947196 
L 287.179945 -129.177868 
L 287.24275 -128.408541 
L 287.315489 -127.639213 
L 287.422647 -126.869885 
L 287.556593 -126.100558 
L 287.716878 -125.33123 
L 287.977697 -124.561902 
L 288.301755 -123.792575 
L 288.630444 -123.023247 
L 289.022309 -122.253919 
L 289.616963 -121.484592 
L 290.245467 -120.715264 
L 291.023498 -119.945937 
L 292.077123 -119.176609 
L 293.318892 -118.407281 
L 294.860166 -117.637954 
L 296.791505 -116.868626 
L 298.597698 -116.099298 
L 301.006008 -115.329971 
L 303.860464 -114.560643 
L 306.865263 -113.791315 
L 309.888324 -113.021988 
L 312.37847 -112.25266 
L 314.231931 -111.483332 
L 315.108876 -110.714005 
L 315.337605 -109.944677 
L 313.86566 -109.175349 
L 311.462997 -108.406022 
L 308.984263 -107.636694 
L 306.040194 -106.867367 
L 303.180401 -106.098039 
L 300.563787 -105.328711 
L 298.176976 -104.559384 
L 296.058326 -103.790056 
L 294.347638 -103.020728 
L 292.970274 -102.251401 
L 291.715174 -101.482073 
L 290.761911 -100.712745 
L 290.021621 -99.943418 
L 289.38002 -99.17409 
L 288.89949 -98.404762 
L 288.499108 -97.635435 
L 288.230762 -96.866107 
L 287.949789 -96.096779 
L 287.704567 -95.327452 
L 287.5821 -94.558124 
L 287.4593 -93.788797 
L 287.338151 -93.019469 
L 287.235276 -92.250141 
L 287.168449 -91.480814 
L 287.102467 -90.711486 
L 287.045985 -89.942158 
L 286.987602 -89.172831 
L 286.954895 -88.403503 
L 286.94626 -87.634175 
L 286.930798 -86.864848 
L 286.916103 -86.09552 
L 286.899576 -85.326192 
L 286.900479 -84.556865 
L 286.894703 -83.787537 
L 286.876397 -83.018209 
L 286.873047 -82.248882 
L 286.869122 -81.479554 
L 286.863929 -80.710227 
L 286.864259 -79.940899 
L 286.867852 -79.171571 
L 286.865157 -78.402244 
L 286.862907 -77.632916 
L 286.862228 -76.863588 
L 286.861061 -76.094261 
L 286.860957 -75.324933 
L 286.861466 -74.555605 
L 286.862816 -73.786278 
L 286.861739 -73.01695 
L 286.86098 -72.247622 
L 286.861053 -71.478295 
L 286.86219 -70.708967 
L 286.862574 -69.939639 
L 286.861194 -69.170312 
z
" style="stroke: #515151; stroke-width: 1.5"/>
    </defs>
    <g clip-path="url(#p1bfb7fd687)">
     <use xlink:href="#m392f8be572" x="0" y="194.158125" style="fill: #e1812c; stroke: #515151; stroke-width: 1.5"/>
    </g>
   </g>
   <g id="PolyCollection_3">
    <defs>
     <path id="m93fdfc8d94" d="M 426.36124 -43.801919 
L 426.360635 -43.801919 
L 426.359114 -45.027452 
L 426.359225 -46.252985 
L 426.360687 -47.478518 
L 426.360929 -48.704051 
L 426.360793 -49.929583 
L 426.35955 -51.155116 
L 426.358868 -52.380649 
L 426.360457 -53.606182 
L 426.36092 -54.831715 
L 426.360921 -56.057248 
L 426.360473 -57.282781 
L 426.358803 -58.508314 
L 426.358395 -59.733847 
L 426.357618 -60.95938 
L 426.356675 -62.184913 
L 426.357224 -63.410446 
L 426.355796 -64.635979 
L 426.350851 -65.861512 
L 426.347743 -67.087045 
L 426.348543 -68.312578 
L 426.346883 -69.538111 
L 426.342752 -70.763644 
L 426.338278 -71.989177 
L 426.33269 -73.21471 
L 426.324555 -74.440243 
L 426.306997 -75.665776 
L 426.297758 -76.891309 
L 426.28294 -78.116842 
L 426.26666 -79.342375 
L 426.223224 -80.567908 
L 426.196243 -81.793441 
L 426.177297 -83.018974 
L 426.125496 -84.244507 
L 426.035364 -85.47004 
L 425.914618 -86.695573 
L 425.786015 -87.921105 
L 425.656098 -89.146638 
L 425.435544 -90.372171 
L 425.2224 -91.597704 
L 424.936944 -92.823237 
L 424.496653 -94.04877 
L 423.988028 -95.274303 
L 423.447494 -96.499836 
L 422.780276 -97.725369 
L 421.850111 -98.950902 
L 420.611068 -100.176435 
L 419.125729 -101.401968 
L 417.357219 -102.627501 
L 415.434094 -103.853034 
L 413.452106 -105.078567 
L 411.307337 -106.3041 
L 409.451144 -107.529633 
L 407.950089 -108.755166 
L 407.081981 -109.980699 
L 407.535674 -111.206232 
L 408.599602 -112.431765 
L 410.145843 -113.657298 
L 412.035705 -114.882831 
L 414.185999 -116.108364 
L 416.1875 -117.333897 
L 417.847396 -118.55943 
L 419.438238 -119.784963 
L 420.773149 -121.010496 
L 421.898851 -122.236029 
L 422.804511 -123.461562 
L 423.588981 -124.687095 
L 424.21749 -125.912627 
L 424.615702 -127.13816 
L 424.999542 -128.363693 
L 425.299689 -129.589226 
L 425.527325 -130.814759 
L 425.716877 -132.040292 
L 425.867714 -133.265825 
L 425.960934 -134.491358 
L 426.02836 -135.716891 
L 426.104528 -136.942424 
L 426.181065 -138.167957 
L 426.225492 -139.39349 
L 426.259251 -140.619023 
L 426.287741 -141.844556 
L 426.293957 -143.070089 
L 426.305847 -144.295622 
L 426.323358 -145.521155 
L 426.332141 -146.746688 
L 426.33806 -147.972221 
L 426.342499 -149.197754 
L 426.347688 -150.423287 
L 426.344958 -151.64882 
L 426.340359 -152.874353 
L 426.342508 -154.099886 
L 426.351256 -155.325419 
L 426.35519 -156.550952 
L 426.356686 -157.776485 
L 426.358212 -159.002018 
L 426.357478 -160.227551 
L 426.356724 -161.453084 
L 426.358397 -162.678617 
L 426.359086 -163.904149 
L 426.360635 -165.129682 
L 426.36124 -165.129682 
L 426.36124 -165.129682 
L 426.362789 -163.904149 
L 426.363478 -162.678617 
L 426.365151 -161.453084 
L 426.364397 -160.227551 
L 426.363663 -159.002018 
L 426.365189 -157.776485 
L 426.366685 -156.550952 
L 426.370619 -155.325419 
L 426.379367 -154.099886 
L 426.381516 -152.874353 
L 426.376917 -151.64882 
L 426.374187 -150.423287 
L 426.379376 -149.197754 
L 426.383815 -147.972221 
L 426.389734 -146.746688 
L 426.398517 -145.521155 
L 426.416028 -144.295622 
L 426.427918 -143.070089 
L 426.434134 -141.844556 
L 426.462624 -140.619023 
L 426.496383 -139.39349 
L 426.54081 -138.167957 
L 426.617347 -136.942424 
L 426.693515 -135.716891 
L 426.760941 -134.491358 
L 426.854161 -133.265825 
L 427.004998 -132.040292 
L 427.19455 -130.814759 
L 427.422186 -129.589226 
L 427.722333 -128.363693 
L 428.106173 -127.13816 
L 428.504385 -125.912627 
L 429.132894 -124.687095 
L 429.917364 -123.461562 
L 430.823024 -122.236029 
L 431.948726 -121.010496 
L 433.283637 -119.784963 
L 434.874479 -118.55943 
L 436.534375 -117.333897 
L 438.535876 -116.108364 
L 440.68617 -114.882831 
L 442.576032 -113.657298 
L 444.122273 -112.431765 
L 445.186201 -111.206232 
L 445.639894 -109.980699 
L 444.771786 -108.755166 
L 443.270731 -107.529633 
L 441.414538 -106.3041 
L 439.269769 -105.078567 
L 437.287781 -103.853034 
L 435.364656 -102.627501 
L 433.596146 -101.401968 
L 432.110807 -100.176435 
L 430.871764 -98.950902 
L 429.941599 -97.725369 
L 429.274381 -96.499836 
L 428.733847 -95.274303 
L 428.225222 -94.04877 
L 427.784931 -92.823237 
L 427.499475 -91.597704 
L 427.286331 -90.372171 
L 427.065777 -89.146638 
L 426.93586 -87.921105 
L 426.807257 -86.695573 
L 426.686511 -85.47004 
L 426.596379 -84.244507 
L 426.544578 -83.018974 
L 426.525632 -81.793441 
L 426.498651 -80.567908 
L 426.455215 -79.342375 
L 426.438935 -78.116842 
L 426.424117 -76.891309 
L 426.414878 -75.665776 
L 426.39732 -74.440243 
L 426.389185 -73.21471 
L 426.383597 -71.989177 
L 426.379123 -70.763644 
L 426.374992 -69.538111 
L 426.373332 -68.312578 
L 426.374132 -67.087045 
L 426.371024 -65.861512 
L 426.366079 -64.635979 
L 426.364651 -63.410446 
L 426.3652 -62.184913 
L 426.364257 -60.95938 
L 426.36348 -59.733847 
L 426.363072 -58.508314 
L 426.361402 -57.282781 
L 426.360954 -56.057248 
L 426.360955 -54.831715 
L 426.361418 -53.606182 
L 426.363007 -52.380649 
L 426.362325 -51.155116 
L 426.361082 -49.929583 
L 426.360946 -48.704051 
L 426.361188 -47.478518 
L 426.36265 -46.252985 
L 426.362761 -45.027452 
L 426.36124 -43.801919 
z
" style="stroke: #515151; stroke-width: 1.5"/>
    </defs>
    <g clip-path="url(#p1bfb7fd687)">
     <use xlink:href="#m93fdfc8d94" x="0" y="194.158125" style="fill: #e1812c; stroke: #515151; stroke-width: 1.5"/>
    </g>
   </g>
   <g id="PolyCollection_4">
    <defs>
     <path id="m50db098f67" d="M 565.861348 -31.290852 
L 565.860527 -31.290852 
L 565.85873 -32.788373 
L 565.856086 -34.285894 
L 565.855419 -35.783414 
L 565.85655 -37.280935 
L 565.858723 -38.778456 
L 565.860449 -40.275976 
L 565.860798 -41.773497 
L 565.860057 -43.271018 
L 565.85826 -44.768538 
L 565.857022 -46.266059 
L 565.855571 -47.76358 
L 565.855905 -49.2611 
L 565.858916 -50.758621 
L 565.859094 -52.256142 
L 565.852583 -53.753662 
L 565.839391 -55.251183 
L 565.826668 -56.748704 
L 565.822432 -58.246224 
L 565.823848 -59.743745 
L 565.815835 -61.241265 
L 565.792912 -62.738786 
L 565.772352 -64.236307 
L 565.771001 -65.733827 
L 565.780753 -67.231348 
L 565.778576 -68.728869 
L 565.752066 -70.226389 
L 565.720986 -71.72391 
L 565.693121 -73.221431 
L 565.660732 -74.718951 
L 565.607176 -76.216472 
L 565.53123 -77.713993 
L 565.469018 -79.211513 
L 565.385944 -80.709034 
L 565.264974 -82.206555 
L 565.12606 -83.704075 
L 564.946355 -85.201596 
L 564.74098 -86.699117 
L 564.500089 -88.196637 
L 564.215255 -89.694158 
L 563.852961 -91.191679 
L 563.323913 -92.689199 
L 562.67806 -94.18672 
L 561.96185 -95.684241 
L 561.217307 -97.181761 
L 560.43054 -98.679282 
L 559.388685 -100.176803 
L 558.045082 -101.674323 
L 556.644345 -103.171844 
L 555.208606 -104.669365 
L 553.780826 -106.166885 
L 552.438105 -107.664406 
L 551.422146 -109.161927 
L 551.063666 -110.659447 
L 551.574431 -112.156968 
L 552.757322 -113.654489 
L 554.178556 -115.152009 
L 555.623719 -116.64953 
L 557.099012 -118.147051 
L 558.597974 -119.644571 
L 559.812265 -121.142092 
L 560.729588 -122.639613 
L 561.557021 -124.137133 
L 562.285625 -125.634654 
L 562.852195 -127.132175 
L 563.40236 -128.629695 
L 563.914944 -130.127216 
L 564.321126 -131.624737 
L 564.605986 -133.122257 
L 564.835944 -134.619778 
L 565.031891 -136.117299 
L 565.18089 -137.614819 
L 565.284978 -139.11234 
L 565.367247 -140.609861 
L 565.476703 -142.107381 
L 565.559808 -143.604902 
L 565.600714 -145.102423 
L 565.636699 -146.599943 
L 565.678701 -148.097464 
L 565.715155 -149.594985 
L 565.737332 -151.092505 
L 565.757914 -152.590026 
L 565.774562 -154.087546 
L 565.792934 -155.585067 
L 565.811533 -157.082588 
L 565.815947 -158.580108 
L 565.820139 -160.077629 
L 565.82955 -161.57515 
L 565.838621 -163.07267 
L 565.840584 -164.570191 
L 565.841749 -166.067712 
L 565.847662 -167.565232 
L 565.855721 -169.062753 
L 565.86004 -170.560274 
L 565.860864 -172.057794 
L 565.86068 -173.555315 
L 565.859475 -175.052836 
L 565.858145 -176.550356 
L 565.859156 -178.047877 
L 565.860558 -179.545398 
L 565.861317 -179.545398 
L 565.861317 -179.545398 
L 565.862719 -178.047877 
L 565.86373 -176.550356 
L 565.8624 -175.052836 
L 565.861195 -173.555315 
L 565.861011 -172.057794 
L 565.861835 -170.560274 
L 565.866154 -169.062753 
L 565.874213 -167.565232 
L 565.880126 -166.067712 
L 565.881291 -164.570191 
L 565.883254 -163.07267 
L 565.892325 -161.57515 
L 565.901736 -160.077629 
L 565.905928 -158.580108 
L 565.910342 -157.082588 
L 565.928941 -155.585067 
L 565.947313 -154.087546 
L 565.963961 -152.590026 
L 565.984543 -151.092505 
L 566.00672 -149.594985 
L 566.043174 -148.097464 
L 566.085176 -146.599943 
L 566.121161 -145.102423 
L 566.162067 -143.604902 
L 566.245172 -142.107381 
L 566.354628 -140.609861 
L 566.436897 -139.11234 
L 566.540985 -137.614819 
L 566.689984 -136.117299 
L 566.885931 -134.619778 
L 567.115889 -133.122257 
L 567.400749 -131.624737 
L 567.806931 -130.127216 
L 568.319515 -128.629695 
L 568.86968 -127.132175 
L 569.43625 -125.634654 
L 570.164854 -124.137133 
L 570.992287 -122.639613 
L 571.90961 -121.142092 
L 573.123901 -119.644571 
L 574.622863 -118.147051 
L 576.098156 -116.64953 
L 577.543319 -115.152009 
L 578.964553 -113.654489 
L 580.147444 -112.156968 
L 580.658209 -110.659447 
L 580.299729 -109.161927 
L 579.28377 -107.664406 
L 577.941049 -106.166885 
L 576.513269 -104.669365 
L 575.07753 -103.171844 
L 573.676793 -101.674323 
L 572.33319 -100.176803 
L 571.291335 -98.679282 
L 570.504568 -97.181761 
L 569.760025 -95.684241 
L 569.043815 -94.18672 
L 568.397962 -92.689199 
L 567.868914 -91.191679 
L 567.50662 -89.694158 
L 567.221786 -88.196637 
L 566.980895 -86.699117 
L 566.77552 -85.201596 
L 566.595815 -83.704075 
L 566.456901 -82.206555 
L 566.335931 -80.709034 
L 566.252857 -79.211513 
L 566.190645 -77.713993 
L 566.114699 -76.216472 
L 566.061143 -74.718951 
L 566.028754 -73.221431 
L 566.000889 -71.72391 
L 565.969809 -70.226389 
L 565.943299 -68.728869 
L 565.941122 -67.231348 
L 565.950874 -65.733827 
L 565.949523 -64.236307 
L 565.928963 -62.738786 
L 565.90604 -61.241265 
L 565.898027 -59.743745 
L 565.899443 -58.246224 
L 565.895207 -56.748704 
L 565.882484 -55.251183 
L 565.869292 -53.753662 
L 565.862781 -52.256142 
L 565.862959 -50.758621 
L 565.86597 -49.2611 
L 565.866304 -47.76358 
L 565.864853 -46.266059 
L 565.863615 -44.768538 
L 565.861818 -43.271018 
L 565.861077 -41.773497 
L 565.861426 -40.275976 
L 565.863152 -38.778456 
L 565.865325 -37.280935 
L 565.866456 -35.783414 
L 565.865789 -34.285894 
L 565.863145 -32.788373 
L 565.861348 -31.290852 
z
" style="stroke: #515151; stroke-width: 1.5"/>
    </defs>
    <g clip-path="url(#p1bfb7fd687)">
     <use xlink:href="#m50db098f67" x="0" y="194.158125" style="fill: #e1812c; stroke: #515151; stroke-width: 1.5"/>
    </g>
   </g>
   <g id="matplotlib.axis_1">
    <g id="xtick_1">
     <g id="line2d_1">
      <defs>
       <path id="m91b69f0d7f" d="M 0 0 
L 0 3.5 
" style="stroke: #000000; stroke-width: 0.8"/>
      </defs>
      <g>
       <use xlink:href="#m91b69f0d7f" x="147.360938" y="170.28" style="stroke: #000000; stroke-width: 0.8"/>
      </g>
     </g>
     <g id="text_1">
      <!-- (1, dense) -->
      <g transform="translate(121.999219 184.878438)scale(0.1 -0.1)">
       <defs>
        <path id="DejaVuSans-28" d="M 1984 4856 
Q 1566 4138 1362 3434 
Q 1159 2731 1159 2009 
Q 1159 1288 1364 580 
Q 1569 -128 1984 -844 
L 1484 -844 
Q 1016 -109 783 600 
Q 550 1309 550 2009 
Q 550 2706 781 3412 
Q 1013 4119 1484 4856 
L 1984 4856 
z
" transform="scale(0.015625)"/>
        <path id="DejaVuSans-31" d="M 794 531 
L 1825 531 
L 1825 4091 
L 703 3866 
L 703 4441 
L 1819 4666 
L 2450 4666 
L 2450 531 
L 3481 531 
L 3481 0 
L 794 0 
L 794 531 
z
" transform="scale(0.015625)"/>
        <path id="DejaVuSans-2c" d="M 750 794 
L 1409 794 
L 1409 256 
L 897 -744 
L 494 -744 
L 750 256 
L 750 794 
z
" transform="scale(0.015625)"/>
        <path id="DejaVuSans-20" transform="scale(0.015625)"/>
        <path id="DejaVuSans-64" d="M 2906 2969 
L 2906 4863 
L 3481 4863 
L 3481 0 
L 2906 0 
L 2906 525 
Q 2725 213 2448 61 
Q 2172 -91 1784 -91 
Q 1150 -91 751 415 
Q 353 922 353 1747 
Q 353 2572 751 3078 
Q 1150 3584 1784 3584 
Q 2172 3584 2448 3432 
Q 2725 3281 2906 2969 
z
M 947 1747 
Q 947 1113 1208 752 
Q 1469 391 1925 391 
Q 2381 391 2643 752 
Q 2906 1113 2906 1747 
Q 2906 2381 2643 2742 
Q 2381 3103 1925 3103 
Q 1469 3103 1208 2742 
Q 947 2381 947 1747 
z
" transform="scale(0.015625)"/>
        <path id="DejaVuSans-65" d="M 3597 1894 
L 3597 1613 
L 953 1613 
Q 991 1019 1311 708 
Q 1631 397 2203 397 
Q 2534 397 2845 478 
Q 3156 559 3463 722 
L 3463 178 
Q 3153 47 2828 -22 
Q 2503 -91 2169 -91 
Q 1331 -91 842 396 
Q 353 884 353 1716 
Q 353 2575 817 3079 
Q 1281 3584 2069 3584 
Q 2775 3584 3186 3129 
Q 3597 2675 3597 1894 
z
M 3022 2063 
Q 3016 2534 2758 2815 
Q 2500 3097 2075 3097 
Q 1594 3097 1305 2825 
Q 1016 2553 972 2059 
L 3022 2063 
z
" transform="scale(0.015625)"/>
        <path id="DejaVuSans-6e" d="M 3513 2113 
L 3513 0 
L 2938 0 
L 2938 2094 
Q 2938 2591 2744 2837 
Q 2550 3084 2163 3084 
Q 1697 3084 1428 2787 
Q 1159 2491 1159 1978 
L 1159 0 
L 581 0 
L 581 3500 
L 1159 3500 
L 1159 2956 
Q 1366 3272 1645 3428 
Q 1925 3584 2291 3584 
Q 2894 3584 3203 3211 
Q 3513 2838 3513 2113 
z
" transform="scale(0.015625)"/>
        <path id="DejaVuSans-73" d="M 2834 3397 
L 2834 2853 
Q 2591 2978 2328 3040 
Q 2066 3103 1784 3103 
Q 1356 3103 1142 2972 
Q 928 2841 928 2578 
Q 928 2378 1081 2264 
Q 1234 2150 1697 2047 
L 1894 2003 
Q 2506 1872 2764 1633 
Q 3022 1394 3022 966 
Q 3022 478 2636 193 
Q 2250 -91 1575 -91 
Q 1294 -91 989 -36 
Q 684 19 347 128 
L 347 722 
Q 666 556 975 473 
Q 1284 391 1588 391 
Q 1994 391 2212 530 
Q 2431 669 2431 922 
Q 2431 1156 2273 1281 
Q 2116 1406 1581 1522 
L 1381 1569 
Q 847 1681 609 1914 
Q 372 2147 372 2553 
Q 372 3047 722 3315 
Q 1072 3584 1716 3584 
Q 2034 3584 2315 3537 
Q 2597 3491 2834 3397 
z
" transform="scale(0.015625)"/>
        <path id="DejaVuSans-29" d="M 513 4856 
L 1013 4856 
Q 1481 4119 1714 3412 
Q 1947 2706 1947 2009 
Q 1947 1309 1714 600 
Q 1481 -109 1013 -844 
L 513 -844 
Q 928 -128 1133 580 
Q 1338 1288 1338 2009 
Q 1338 2731 1133 3434 
Q 928 4138 513 4856 
z
" transform="scale(0.015625)"/>
       </defs>
       <use xlink:href="#DejaVuSans-28"/>
       <use xlink:href="#DejaVuSans-31" x="39.013672"/>
       <use xlink:href="#DejaVuSans-2c" x="102.636719"/>
       <use xlink:href="#DejaVuSans-20" x="134.423828"/>
       <use xlink:href="#DejaVuSans-64" x="166.210938"/>
       <use xlink:href="#DejaVuSans-65" x="229.6875"/>
       <use xlink:href="#DejaVuSans-6e" x="291.210938"/>
       <use xlink:href="#DejaVuSans-73" x="354.589844"/>
       <use xlink:href="#DejaVuSans-65" x="406.689453"/>
       <use xlink:href="#DejaVuSans-29" x="468.212891"/>
      </g>
     </g>
    </g>
    <g id="xtick_2">
     <g id="line2d_2">
      <g>
       <use xlink:href="#m91b69f0d7f" x="286.860937" y="170.28" style="stroke: #000000; stroke-width: 0.8"/>
      </g>
     </g>
     <g id="text_2">
      <!-- (2, dense) -->
      <g transform="translate(261.499219 184.878438)scale(0.1 -0.1)">
       <defs>
        <path id="DejaVuSans-32" d="M 1228 531 
L 3431 531 
L 3431 0 
L 469 0 
L 469 531 
Q 828 903 1448 1529 
Q 2069 2156 2228 2338 
Q 2531 2678 2651 2914 
Q 2772 3150 2772 3378 
Q 2772 3750 2511 3984 
Q 2250 4219 1831 4219 
Q 1534 4219 1204 4116 
Q 875 4013 500 3803 
L 500 4441 
Q 881 4594 1212 4672 
Q 1544 4750 1819 4750 
Q 2544 4750 2975 4387 
Q 3406 4025 3406 3419 
Q 3406 3131 3298 2873 
Q 3191 2616 2906 2266 
Q 2828 2175 2409 1742 
Q 1991 1309 1228 531 
z
" transform="scale(0.015625)"/>
       </defs>
       <use xlink:href="#DejaVuSans-28"/>
       <use xlink:href="#DejaVuSans-32" x="39.013672"/>
       <use xlink:href="#DejaVuSans-2c" x="102.636719"/>
       <use xlink:href="#DejaVuSans-20" x="134.423828"/>
       <use xlink:href="#DejaVuSans-64" x="166.210938"/>
       <use xlink:href="#DejaVuSans-65" x="229.6875"/>
       <use xlink:href="#DejaVuSans-6e" x="291.210938"/>
       <use xlink:href="#DejaVuSans-73" x="354.589844"/>
       <use xlink:href="#DejaVuSans-65" x="406.689453"/>
       <use xlink:href="#DejaVuSans-29" x="468.212891"/>
      </g>
     </g>
    </g>
    <g id="xtick_3">
     <g id="line2d_3">
      <g>
       <use xlink:href="#m91b69f0d7f" x="426.360937" y="170.28" style="stroke: #000000; stroke-width: 0.8"/>
      </g>
     </g>
     <g id="text_3">
      <!-- (3, dense) -->
      <g transform="translate(400.999219 184.878438)scale(0.1 -0.1)">
       <defs>
        <path id="DejaVuSans-33" d="M 2597 2516 
Q 3050 2419 3304 2112 
Q 3559 1806 3559 1356 
Q 3559 666 3084 287 
Q 2609 -91 1734 -91 
Q 1441 -91 1130 -33 
Q 819 25 488 141 
L 488 750 
Q 750 597 1062 519 
Q 1375 441 1716 441 
Q 2309 441 2620 675 
Q 2931 909 2931 1356 
Q 2931 1769 2642 2001 
Q 2353 2234 1838 2234 
L 1294 2234 
L 1294 2753 
L 1863 2753 
Q 2328 2753 2575 2939 
Q 2822 3125 2822 3475 
Q 2822 3834 2567 4026 
Q 2313 4219 1838 4219 
Q 1578 4219 1281 4162 
Q 984 4106 628 3988 
L 628 4550 
Q 988 4650 1302 4700 
Q 1616 4750 1894 4750 
Q 2613 4750 3031 4423 
Q 3450 4097 3450 3541 
Q 3450 3153 3228 2886 
Q 3006 2619 2597 2516 
z
" transform="scale(0.015625)"/>
       </defs>
       <use xlink:href="#DejaVuSans-28"/>
       <use xlink:href="#DejaVuSans-33" x="39.013672"/>
       <use xlink:href="#DejaVuSans-2c" x="102.636719"/>
       <use xlink:href="#DejaVuSans-20" x="134.423828"/>
       <use xlink:href="#DejaVuSans-64" x="166.210938"/>
       <use xlink:href="#DejaVuSans-65" x="229.6875"/>
       <use xlink:href="#DejaVuSans-6e" x="291.210938"/>
       <use xlink:href="#DejaVuSans-73" x="354.589844"/>
       <use xlink:href="#DejaVuSans-65" x="406.689453"/>
       <use xlink:href="#DejaVuSans-29" x="468.212891"/>
      </g>
     </g>
    </g>
    <g id="xtick_4">
     <g id="line2d_4">
      <g>
       <use xlink:href="#m91b69f0d7f" x="565.860937" y="170.28" style="stroke: #000000; stroke-width: 0.8"/>
      </g>
     </g>
     <g id="text_4">
      <!-- (4, dense) -->
      <g transform="translate(540.499219 184.878438)scale(0.1 -0.1)">
       <defs>
        <path id="DejaVuSans-34" d="M 2419 4116 
L 825 1625 
L 2419 1625 
L 2419 4116 
z
M 2253 4666 
L 3047 4666 
L 3047 1625 
L 3713 1625 
L 3713 1100 
L 3047 1100 
L 3047 0 
L 2419 0 
L 2419 1100 
L 313 1100 
L 313 1709 
L 2253 4666 
z
" transform="scale(0.015625)"/>
       </defs>
       <use xlink:href="#DejaVuSans-28"/>
       <use xlink:href="#DejaVuSans-34" x="39.013672"/>
       <use xlink:href="#DejaVuSans-2c" x="102.636719"/>
       <use xlink:href="#DejaVuSans-20" x="134.423828"/>
       <use xlink:href="#DejaVuSans-64" x="166.210938"/>
       <use xlink:href="#DejaVuSans-65" x="229.6875"/>
       <use xlink:href="#DejaVuSans-6e" x="291.210938"/>
       <use xlink:href="#DejaVuSans-73" x="354.589844"/>
       <use xlink:href="#DejaVuSans-65" x="406.689453"/>
       <use xlink:href="#DejaVuSans-29" x="468.212891"/>
      </g>
     </g>
    </g>
   </g>
   <g id="matplotlib.axis_2">
    <g id="ytick_1">
     <g id="line2d_5">
      <defs>
       <path id="ma2ad6b8d41" d="M 0 0 
L -3.5 0 
" style="stroke: #000000; stroke-width: 0.8"/>
      </defs>
      <g>
       <use xlink:href="#ma2ad6b8d41" x="77.610938" y="148.235604" style="stroke: #000000; stroke-width: 0.8"/>
      </g>
     </g>
     <g id="text_5">
      <!-- −0.00010 -->
      <g transform="translate(20.878125 152.034823)scale(0.1 -0.1)">
       <defs>
        <path id="DejaVuSans-2212" d="M 678 2272 
L 4684 2272 
L 4684 1741 
L 678 1741 
L 678 2272 
z
" transform="scale(0.015625)"/>
        <path id="DejaVuSans-30" d="M 2034 4250 
Q 1547 4250 1301 3770 
Q 1056 3291 1056 2328 
Q 1056 1369 1301 889 
Q 1547 409 2034 409 
Q 2525 409 2770 889 
Q 3016 1369 3016 2328 
Q 3016 3291 2770 3770 
Q 2525 4250 2034 4250 
z
M 2034 4750 
Q 2819 4750 3233 4129 
Q 3647 3509 3647 2328 
Q 3647 1150 3233 529 
Q 2819 -91 2034 -91 
Q 1250 -91 836 529 
Q 422 1150 422 2328 
Q 422 3509 836 4129 
Q 1250 4750 2034 4750 
z
" transform="scale(0.015625)"/>
        <path id="DejaVuSans-2e" d="M 684 794 
L 1344 794 
L 1344 0 
L 684 0 
L 684 794 
z
" transform="scale(0.015625)"/>
       </defs>
       <use xlink:href="#DejaVuSans-2212"/>
       <use xlink:href="#DejaVuSans-30" x="83.789062"/>
       <use xlink:href="#DejaVuSans-2e" x="147.412109"/>
       <use xlink:href="#DejaVuSans-30" x="179.199219"/>
       <use xlink:href="#DejaVuSans-30" x="242.822266"/>
       <use xlink:href="#DejaVuSans-30" x="306.445312"/>
       <use xlink:href="#DejaVuSans-31" x="370.068359"/>
       <use xlink:href="#DejaVuSans-30" x="433.691406"/>
      </g>
     </g>
    </g>
    <g id="ytick_2">
     <g id="line2d_6">
      <g>
       <use xlink:href="#ma2ad6b8d41" x="77.610938" y="115.980714" style="stroke: #000000; stroke-width: 0.8"/>
      </g>
     </g>
     <g id="text_6">
      <!-- −0.00005 -->
      <g transform="translate(20.878125 119.779933)scale(0.1 -0.1)">
       <defs>
        <path id="DejaVuSans-35" d="M 691 4666 
L 3169 4666 
L 3169 4134 
L 1269 4134 
L 1269 2991 
Q 1406 3038 1543 3061 
Q 1681 3084 1819 3084 
Q 2600 3084 3056 2656 
Q 3513 2228 3513 1497 
Q 3513 744 3044 326 
Q 2575 -91 1722 -91 
Q 1428 -91 1123 -41 
Q 819 9 494 109 
L 494 744 
Q 775 591 1075 516 
Q 1375 441 1709 441 
Q 2250 441 2565 725 
Q 2881 1009 2881 1497 
Q 2881 1984 2565 2268 
Q 2250 2553 1709 2553 
Q 1456 2553 1204 2497 
Q 953 2441 691 2322 
L 691 4666 
z
" transform="scale(0.015625)"/>
       </defs>
       <use xlink:href="#DejaVuSans-2212"/>
       <use xlink:href="#DejaVuSans-30" x="83.789062"/>
       <use xlink:href="#DejaVuSans-2e" x="147.412109"/>
       <use xlink:href="#DejaVuSans-30" x="179.199219"/>
       <use xlink:href="#DejaVuSans-30" x="242.822266"/>
       <use xlink:href="#DejaVuSans-30" x="306.445312"/>
       <use xlink:href="#DejaVuSans-30" x="370.068359"/>
       <use xlink:href="#DejaVuSans-35" x="433.691406"/>
      </g>
     </g>
    </g>
    <g id="ytick_3">
     <g id="line2d_7">
      <g>
       <use xlink:href="#ma2ad6b8d41" x="77.610938" y="83.725824" style="stroke: #000000; stroke-width: 0.8"/>
      </g>
     </g>
     <g id="text_7">
      <!-- 0.00000 -->
      <g transform="translate(29.257812 87.525042)scale(0.1 -0.1)">
       <use xlink:href="#DejaVuSans-30"/>
       <use xlink:href="#DejaVuSans-2e" x="63.623047"/>
       <use xlink:href="#DejaVuSans-30" x="95.410156"/>
       <use xlink:href="#DejaVuSans-30" x="159.033203"/>
       <use xlink:href="#DejaVuSans-30" x="222.65625"/>
       <use xlink:href="#DejaVuSans-30" x="286.279297"/>
       <use xlink:href="#DejaVuSans-30" x="349.902344"/>
      </g>
     </g>
    </g>
    <g id="ytick_4">
     <g id="line2d_8">
      <g>
       <use xlink:href="#ma2ad6b8d41" x="77.610938" y="51.470933" style="stroke: #000000; stroke-width: 0.8"/>
      </g>
     </g>
     <g id="text_8">
      <!-- 0.00005 -->
      <g transform="translate(29.257812 55.270152)scale(0.1 -0.1)">
       <use xlink:href="#DejaVuSans-30"/>
       <use xlink:href="#DejaVuSans-2e" x="63.623047"/>
       <use xlink:href="#DejaVuSans-30" x="95.410156"/>
       <use xlink:href="#DejaVuSans-30" x="159.033203"/>
       <use xlink:href="#DejaVuSans-30" x="222.65625"/>
       <use xlink:href="#DejaVuSans-30" x="286.279297"/>
       <use xlink:href="#DejaVuSans-35" x="349.902344"/>
      </g>
     </g>
    </g>
    <g id="ytick_5">
     <g id="line2d_9">
      <g>
       <use xlink:href="#ma2ad6b8d41" x="77.610938" y="19.216043" style="stroke: #000000; stroke-width: 0.8"/>
      </g>
     </g>
     <g id="text_9">
      <!-- 0.00010 -->
      <g transform="translate(29.257812 23.015262)scale(0.1 -0.1)">
       <use xlink:href="#DejaVuSans-30"/>
       <use xlink:href="#DejaVuSans-2e" x="63.623047"/>
       <use xlink:href="#DejaVuSans-30" x="95.410156"/>
       <use xlink:href="#DejaVuSans-30" x="159.033203"/>
       <use xlink:href="#DejaVuSans-30" x="222.65625"/>
       <use xlink:href="#DejaVuSans-31" x="286.279297"/>
       <use xlink:href="#DejaVuSans-30" x="349.902344"/>
      </g>
     </g>
    </g>
    <g id="text_10">
     <!-- ${\nabla}_w L$ -->
     <g transform="translate(14.798438 97.94)rotate(-90)scale(0.1 -0.1)">
      <defs>
       <path id="DejaVuSans-2207" d="M 2138 659 
L 3444 4047 
L 831 4047 
L 2138 659 
z
M 1791 0 
L -19 4603 
L 4300 4603 
L 2491 0 
L 1791 0 
z
" transform="scale(0.015625)"/>
       <path id="DejaVuSans-Oblique-77" d="M 544 3500 
L 1113 3500 
L 1259 684 
L 2566 3500 
L 3231 3500 
L 3425 684 
L 4666 3500 
L 5241 3500 
L 3641 0 
L 2969 0 
L 2797 2900 
L 1459 0 
L 781 0 
L 544 3500 
z
" transform="scale(0.015625)"/>
       <path id="DejaVuSans-Oblique-4c" d="M 1075 4666 
L 1709 4666 
L 909 525 
L 3181 525 
L 3078 0 
L 172 0 
L 1075 4666 
z
" transform="scale(0.015625)"/>
      </defs>
      <use xlink:href="#DejaVuSans-2207" transform="translate(0 0.09375)"/>
      <use xlink:href="#DejaVuSans-Oblique-77" transform="translate(67.851562 -16.3125)scale(0.7)"/>
      <use xlink:href="#DejaVuSans-Oblique-4c" transform="translate(127.836914 0.09375)"/>
     </g>
    </g>
   </g>
   <g id="line2d_10">
    <path d="M 147.360938 91.473399 
L 147.360938 75.889924 
" clip-path="url(#p1bfb7fd687)" style="fill: none; stroke: #515151; stroke-width: 1.5; stroke-linecap: square"/>
   </g>
   <g id="line2d_11">
    <path d="M 147.360938 85.629589 
L 147.360938 81.733689 
" clip-path="url(#p1bfb7fd687)" style="fill: none; stroke: #515151; stroke-width: 4.5; stroke-linecap: square"/>
   </g>
   <g id="line2d_12">
    <path d="M 286.860937 96.509161 
L 286.860937 70.950983 
" clip-path="url(#p1bfb7fd687)" style="fill: none; stroke: #515151; stroke-width: 1.5; stroke-linecap: square"/>
   </g>
   <g id="line2d_13">
    <path d="M 286.860937 86.925216 
L 286.860937 80.534939 
" clip-path="url(#p1bfb7fd687)" style="fill: none; stroke: #515151; stroke-width: 4.5; stroke-linecap: square"/>
   </g>
   <g id="line2d_14">
    <path d="M 426.360937 102.723581 
L 426.360937 64.721358 
" clip-path="url(#p1bfb7fd687)" style="fill: none; stroke: #515151; stroke-width: 1.5; stroke-linecap: square"/>
   </g>
   <g id="line2d_15">
    <path d="M 426.360937 88.47323 
L 426.360937 78.970375 
" clip-path="url(#p1bfb7fd687)" style="fill: none; stroke: #515151; stroke-width: 4.5; stroke-linecap: square"/>
   </g>
   <g id="line2d_16">
    <path d="M 565.860937 108.870047 
L 565.860937 58.607134 
" clip-path="url(#p1bfb7fd687)" style="fill: none; stroke: #515151; stroke-width: 1.5; stroke-linecap: square"/>
   </g>
   <g id="line2d_17">
    <path d="M 565.860937 90.028298 
L 565.860937 77.451898 
" clip-path="url(#p1bfb7fd687)" style="fill: none; stroke: #515151; stroke-width: 4.5; stroke-linecap: square"/>
   </g>
   <g id="patch_3">
    <path d="M 77.610938 170.28 
L 77.610938 7.2 
" style="fill: none; stroke: #000000; stroke-width: 0.8; stroke-linejoin: miter; stroke-linecap: square"/>
   </g>
   <g id="patch_4">
    <path d="M 635.610937 170.28 
L 635.610937 7.2 
" style="fill: none; stroke: #000000; stroke-width: 0.8; stroke-linejoin: miter; stroke-linecap: square"/>
   </g>
   <g id="patch_5">
    <path d="M 77.610938 170.28 
L 635.610937 170.28 
" style="fill: none; stroke: #000000; stroke-width: 0.8; stroke-linejoin: miter; stroke-linecap: square"/>
   </g>
   <g id="patch_6">
    <path d="M 77.610938 7.2 
L 635.610937 7.2 
" style="fill: none; stroke: #000000; stroke-width: 0.8; stroke-linejoin: miter; stroke-linecap: square"/>
   </g>
   <g id="PathCollection_1">
    <defs>
     <path id="m57850ba39e" d="M 0 1.5 
C 0.397805 1.5 0.77937 1.341951 1.06066 1.06066 
C 1.341951 0.77937 1.5 0.397805 1.5 0 
C 1.5 -0.397805 1.341951 -0.77937 1.06066 -1.06066 
C 0.77937 -1.341951 0.397805 -1.5 0 -1.5 
C -0.397805 -1.5 -0.77937 -1.341951 -1.06066 -1.06066 
C -1.341951 -0.77937 -1.5 -0.397805 -1.5 0 
C -1.5 0.397805 -1.341951 0.77937 -1.06066 1.06066 
C -0.77937 1.341951 -0.397805 1.5 0 1.5 
z
" style="stroke: #515151"/>
    </defs>
    <g clip-path="url(#p1bfb7fd687)">
     <use xlink:href="#m57850ba39e" x="147.360938" y="83.69428" style="fill: #ffffff; stroke: #515151"/>
    </g>
   </g>
   <g id="PathCollection_2">
    <g clip-path="url(#p1bfb7fd687)">
     <use xlink:href="#m57850ba39e" x="286.860937" y="83.72934" style="fill: #ffffff; stroke: #515151"/>
    </g>
   </g>
   <g id="PathCollection_3">
    <g clip-path="url(#p1bfb7fd687)">
     <use xlink:href="#m57850ba39e" x="426.360937" y="83.770569" style="fill: #ffffff; stroke: #515151"/>
    </g>
   </g>
   <g id="PathCollection_4">
    <g clip-path="url(#p1bfb7fd687)">
     <use xlink:href="#m57850ba39e" x="565.860937" y="83.716817" style="fill: #ffffff; stroke: #515151"/>
    </g>
   </g>
   <g id="legend_1">
    <g id="patch_7">
     <path d="M 84.610938 29.878125 
L 125.7375 29.878125 
Q 127.7375 29.878125 127.7375 27.878125 
L 127.7375 14.2 
Q 127.7375 12.2 125.7375 12.2 
L 84.610938 12.2 
Q 82.610938 12.2 82.610938 14.2 
L 82.610938 27.878125 
Q 82.610938 29.878125 84.610938 29.878125 
z
" style="fill: #ffffff; opacity: 0.8; stroke: #cccccc; stroke-linejoin: miter"/>
    </g>
    <g id="patch_8">
     <path d="M 86.610938 23.798438 
L 106.610938 23.798438 
L 106.610938 16.798438 
L 86.610938 16.798438 
z
" style="fill: #e1812c; stroke: #515151; stroke-width: 1.5; stroke-linejoin: miter"/>
    </g>
    <g id="text_11">
     <!-- id -->
     <g transform="translate(114.610938 23.798438)scale(0.1 -0.1)">
      <defs>
       <path id="DejaVuSans-69" d="M 603 3500 
L 1178 3500 
L 1178 0 
L 603 0 
L 603 3500 
z
M 603 4863 
L 1178 4863 
L 1178 4134 
L 603 4134 
L 603 4863 
z
" transform="scale(0.015625)"/>
      </defs>
      <use xlink:href="#DejaVuSans-69"/>
      <use xlink:href="#DejaVuSans-64" x="27.783203"/>
     </g>
    </g>
   </g>
  </g>
 </g>
 <defs>
  <clipPath id="p1bfb7fd687">
   <rect x="77.610938" y="7.2" width="558" height="163.08"/>
  </clipPath>
 </defs>
</svg>
