<?xml version="1.0" encoding="utf-8" standalone="no"?>
<!DOCTYPE svg PUBLIC "-//W3C//DTD SVG 1.1//EN"
  "http://www.w3.org/Graphics/SVG/1.1/DTD/svg11.dtd">
<svg xmlns:xlink="http://www.w3.org/1999/xlink" width="617.382812pt" height="194.158125pt" viewBox="0 0 617.382812 194.158125" xmlns="http://www.w3.org/2000/svg" version="1.1">
 <metadata>
  <rdf:RDF xmlns:dc="http://purl.org/dc/elements/1.1/" xmlns:cc="http://creativecommons.org/ns#" xmlns:rdf="http://www.w3.org/1999/02/22-rdf-syntax-ns#">
   <cc:Work>
    <dc:type rdf:resource="http://purl.org/dc/dcmitype/StillImage"/>
    <dc:date>2022-07-08T21:38:25.374033</dc:date>
    <dc:format>image/svg+xml</dc:format>
    <dc:creator>
     <cc:Agent>
      <dc:title>Matplotlib v3.5.1, https://matplotlib.org/</dc:title>
     </cc:Agent>
    </dc:creator>
   </cc:Work>
  </rdf:RDF>
 </metadata>
 <defs>
  <style type="text/css">*{stroke-linejoin: round; stroke-linecap: butt}</style>
 </defs>
 <g id="figure_1">
  <g id="patch_1">
   <path d="M 0 194.158125 
L 617.382812 194.158125 
L 617.382812 0 
L 0 0 
L 0 194.158125 
z
" style="fill: none"/>
  </g>
  <g id="axes_1">
   <g id="patch_2">
    <path d="M 52.182813 170.28 
L 610.182812 170.28 
L 610.182812 7.2 
L 52.182813 7.2 
z
" style="fill: #ffffff"/>
   </g>
   <g id="PolyCollection_1">
    <defs>
     <path id="m38aa777dcd" d="M 112.072044 -57.432664 
L 103.893581 -57.432664 
L 98.298509 -58.666126 
L 105.893533 -59.899588 
L 105.958168 -61.13305 
L 106.09058 -62.366512 
L 106.209629 -63.599974 
L 106.389392 -64.833436 
L 106.550078 -66.066898 
L 106.718778 -67.30036 
L 106.881866 -68.533822 
L 107.041882 -69.767284 
L 107.182934 -71.000746 
L 107.31424 -72.234208 
L 107.428872 -73.46767 
L 107.525444 -74.701132 
L 107.607707 -75.934594 
L 107.676955 -77.168056 
L 107.734554 -78.401518 
L 107.790402 -79.63498 
L 107.828477 -80.868442 
L 107.856412 -82.101903 
L 107.882014 -83.335365 
L 107.907475 -84.568827 
L 107.922552 -85.802289 
L 107.933034 -87.035751 
L 107.943367 -88.269213 
L 107.951666 -89.502675 
L 107.958296 -90.736137 
L 107.962184 -91.969599 
L 107.965735 -93.203061 
L 107.969633 -94.436523 
L 107.972015 -95.669985 
L 107.973436 -96.903447 
L 107.975364 -98.136909 
L 107.976031 -99.370371 
L 107.977619 -100.603833 
L 107.97883 -101.837295 
L 107.979099 -103.070757 
L 107.979799 -104.304219 
L 107.980453 -105.537681 
L 107.980213 -106.771143 
L 107.98064 -108.004604 
L 107.981063 -109.238066 
L 107.981256 -110.471528 
L 107.981327 -111.70499 
L 107.981681 -112.938452 
L 107.981592 -114.171914 
L 107.981998 -115.405376 
L 107.982171 -116.638838 
L 107.981995 -117.8723 
L 107.982263 -119.105762 
L 107.982289 -120.339224 
L 107.982299 -121.572686 
L 107.982352 -122.806148 
L 107.982601 -124.03961 
L 107.982524 -125.273072 
L 107.982603 -126.506534 
L 107.982534 -127.739996 
L 107.9826 -128.973458 
L 107.982476 -130.20692 
L 107.982608 -131.440382 
L 107.982649 -132.673844 
L 107.982643 -133.907305 
L 107.982597 -135.140767 
L 107.982635 -136.374229 
L 107.982661 -137.607691 
L 107.982731 -138.841153 
L 107.982791 -140.074615 
L 107.982808 -141.308077 
L 107.982742 -142.541539 
L 107.982758 -143.775001 
L 107.982769 -145.008463 
L 107.982733 -146.241925 
L 107.982731 -147.475387 
L 107.982796 -148.708849 
L 107.982765 -149.942311 
L 107.982795 -151.175773 
L 107.982802 -152.409235 
L 107.982802 -153.642697 
L 107.982812 -154.876159 
L 107.982772 -156.109621 
L 107.982734 -157.343083 
L 107.982796 -158.576545 
L 107.98281 -159.810006 
L 107.982773 -161.043468 
L 107.982784 -162.27693 
L 107.982803 -163.510392 
L 107.982809 -164.743854 
L 107.982794 -165.977316 
L 107.982812 -167.210778 
L 107.982803 -168.44424 
L 107.98281 -169.677702 
L 107.982804 -170.911164 
L 107.982809 -172.144626 
L 107.982812 -173.378088 
L 107.982813 -174.61155 
L 107.982813 -175.845012 
L 107.982812 -177.078474 
L 107.982805 -178.311936 
L 107.982809 -179.545398 
L 107.982816 -179.545398 
L 107.982816 -179.545398 
L 107.98282 -178.311936 
L 107.982813 -177.078474 
L 107.982813 -175.845012 
L 107.982813 -174.61155 
L 107.982813 -173.378088 
L 107.982816 -172.144626 
L 107.982821 -170.911164 
L 107.982815 -169.677702 
L 107.982822 -168.44424 
L 107.982813 -167.210778 
L 107.982831 -165.977316 
L 107.982816 -164.743854 
L 107.982822 -163.510392 
L 107.982841 -162.27693 
L 107.982852 -161.043468 
L 107.982815 -159.810006 
L 107.982829 -158.576545 
L 107.982891 -157.343083 
L 107.982853 -156.109621 
L 107.982813 -154.876159 
L 107.982823 -153.642697 
L 107.982823 -152.409235 
L 107.98283 -151.175773 
L 107.98286 -149.942311 
L 107.982829 -148.708849 
L 107.982894 -147.475387 
L 107.982892 -146.241925 
L 107.982856 -145.008463 
L 107.982867 -143.775001 
L 107.982883 -142.541539 
L 107.982817 -141.308077 
L 107.982834 -140.074615 
L 107.982894 -138.841153 
L 107.982964 -137.607691 
L 107.98299 -136.374229 
L 107.983028 -135.140767 
L 107.982982 -133.907305 
L 107.982976 -132.673844 
L 107.983017 -131.440382 
L 107.983149 -130.20692 
L 107.983025 -128.973458 
L 107.983091 -127.739996 
L 107.983022 -126.506534 
L 107.983101 -125.273072 
L 107.983024 -124.03961 
L 107.983273 -122.806148 
L 107.983326 -121.572686 
L 107.983336 -120.339224 
L 107.983362 -119.105762 
L 107.98363 -117.8723 
L 107.983454 -116.638838 
L 107.983627 -115.405376 
L 107.984033 -114.171914 
L 107.983944 -112.938452 
L 107.984298 -111.70499 
L 107.984369 -110.471528 
L 107.984562 -109.238066 
L 107.984985 -108.004604 
L 107.985412 -106.771143 
L 107.985172 -105.537681 
L 107.985826 -104.304219 
L 107.986526 -103.070757 
L 107.986795 -101.837295 
L 107.988006 -100.603833 
L 107.989594 -99.370371 
L 107.990261 -98.136909 
L 107.992189 -96.903447 
L 107.99361 -95.669985 
L 107.995992 -94.436523 
L 107.99989 -93.203061 
L 108.003441 -91.969599 
L 108.007329 -90.736137 
L 108.013959 -89.502675 
L 108.022258 -88.269213 
L 108.032591 -87.035751 
L 108.043073 -85.802289 
L 108.05815 -84.568827 
L 108.083611 -83.335365 
L 108.109213 -82.101903 
L 108.137148 -80.868442 
L 108.175223 -79.63498 
L 108.231071 -78.401518 
L 108.28867 -77.168056 
L 108.357918 -75.934594 
L 108.440181 -74.701132 
L 108.536753 -73.46767 
L 108.651385 -72.234208 
L 108.782691 -71.000746 
L 108.923743 -69.767284 
L 109.083759 -68.533822 
L 109.246847 -67.30036 
L 109.415547 -66.066898 
L 109.576233 -64.833436 
L 109.755996 -63.599974 
L 109.875045 -62.366512 
L 110.007457 -61.13305 
L 110.072092 -59.899588 
L 117.667116 -58.666126 
L 112.072044 -57.432664 
z
" style="stroke: #3f3f3f; stroke-width: 1.5"/>
    </defs>
    <g clip-path="url(#pe3a1aff518)">
     <use xlink:href="#m38aa777dcd" x="0" y="194.158125" style="fill: #3274a1; stroke: #3f3f3f; stroke-width: 1.5"/>
    </g>
   </g>
   <g id="PolyCollection_2">
    <defs>
     <path id="m314bc966bb" d="M 224.079276 -57.489068 
L 215.086349 -57.489068 
L 199.151104 -58.445207 
L 216.963493 -59.401345 
L 217.020684 -60.357484 
L 217.1771 -61.313623 
L 217.339633 -62.269761 
L 217.516293 -63.2259 
L 217.741327 -64.182039 
L 217.942758 -65.138177 
L 218.144819 -66.094316 
L 218.346482 -67.050454 
L 218.528344 -68.006593 
L 218.690731 -68.962732 
L 218.831947 -69.91887 
L 218.958461 -70.875009 
L 219.074351 -71.831147 
L 219.169458 -72.787286 
L 219.246978 -73.743425 
L 219.310361 -74.699563 
L 219.363067 -75.655702 
L 219.402644 -76.611841 
L 219.444177 -77.567979 
L 219.46331 -78.524118 
L 219.48703 -79.480256 
L 219.507801 -80.436395 
L 219.523491 -81.392534 
L 219.532776 -82.348672 
L 219.542112 -83.304811 
L 219.549152 -84.260949 
L 219.557387 -85.217088 
L 219.560466 -86.173227 
L 219.564356 -87.129365 
L 219.569867 -88.085504 
L 219.57128 -89.041643 
L 219.574055 -89.997781 
L 219.574428 -90.95392 
L 219.575788 -91.910058 
L 219.577656 -92.866197 
L 219.577607 -93.822336 
L 219.579054 -94.778474 
L 219.579554 -95.734613 
L 219.579977 -96.690752 
L 219.579968 -97.64689 
L 219.580455 -98.603029 
L 219.580739 -99.559167 
L 219.581108 -100.515306 
L 219.581525 -101.471445 
L 219.581491 -102.427583 
L 219.581594 -103.383722 
L 219.581112 -104.33986 
L 219.581793 -105.295999 
L 219.581933 -106.252138 
L 219.582053 -107.208276 
L 219.581886 -108.164415 
L 219.582112 -109.120554 
L 219.582271 -110.076692 
L 219.582274 -111.032831 
L 219.582491 -111.988969 
L 219.582446 -112.945108 
L 219.582502 -113.901247 
L 219.582641 -114.857385 
L 219.582635 -115.813524 
L 219.582582 -116.769663 
L 219.582597 -117.725801 
L 219.582597 -118.68194 
L 219.582577 -119.638078 
L 219.582704 -120.594217 
L 219.582683 -121.550356 
L 219.582691 -122.506494 
L 219.582749 -123.462633 
L 219.582797 -124.418771 
L 219.582745 -125.37491 
L 219.582657 -126.331049 
L 219.582715 -127.287187 
L 219.582783 -128.243326 
L 219.582749 -129.199465 
L 219.58281 -130.155603 
L 219.582812 -131.111742 
L 219.582801 -132.06788 
L 219.58271 -133.024019 
L 219.58272 -133.980158 
L 219.582808 -134.936296 
L 219.582756 -135.892435 
L 219.582777 -136.848574 
L 219.582645 -137.804712 
L 219.58281 -138.760851 
L 219.582812 -139.716989 
L 219.582777 -140.673128 
L 219.582805 -141.629267 
L 219.582812 -142.585405 
L 219.582812 -143.541544 
L 219.582812 -144.497682 
L 219.582754 -145.453821 
L 219.582811 -146.40996 
L 219.582812 -147.366098 
L 219.582738 -148.322237 
L 219.582687 -149.278376 
L 219.582812 -150.234514 
L 219.582778 -151.190653 
L 219.582804 -152.146791 
L 219.582821 -152.146791 
L 219.582821 -152.146791 
L 219.582847 -151.190653 
L 219.582813 -150.234514 
L 219.582938 -149.278376 
L 219.582887 -148.322237 
L 219.582813 -147.366098 
L 219.582814 -146.40996 
L 219.582871 -145.453821 
L 219.582813 -144.497682 
L 219.582813 -143.541544 
L 219.582813 -142.585405 
L 219.58282 -141.629267 
L 219.582848 -140.673128 
L 219.582813 -139.716989 
L 219.582815 -138.760851 
L 219.58298 -137.804712 
L 219.582848 -136.848574 
L 219.582869 -135.892435 
L 219.582817 -134.936296 
L 219.582905 -133.980158 
L 219.582915 -133.024019 
L 219.582824 -132.06788 
L 219.582813 -131.111742 
L 219.582815 -130.155603 
L 219.582876 -129.199465 
L 219.582842 -128.243326 
L 219.58291 -127.287187 
L 219.582968 -126.331049 
L 219.58288 -125.37491 
L 219.582828 -124.418771 
L 219.582876 -123.462633 
L 219.582934 -122.506494 
L 219.582942 -121.550356 
L 219.582921 -120.594217 
L 219.583048 -119.638078 
L 219.583028 -118.68194 
L 219.583028 -117.725801 
L 219.583043 -116.769663 
L 219.58299 -115.813524 
L 219.582984 -114.857385 
L 219.583123 -113.901247 
L 219.583179 -112.945108 
L 219.583134 -111.988969 
L 219.583351 -111.032831 
L 219.583354 -110.076692 
L 219.583513 -109.120554 
L 219.583739 -108.164415 
L 219.583572 -107.208276 
L 219.583692 -106.252138 
L 219.583832 -105.295999 
L 219.584513 -104.33986 
L 219.584031 -103.383722 
L 219.584134 -102.427583 
L 219.5841 -101.471445 
L 219.584517 -100.515306 
L 219.584886 -99.559167 
L 219.58517 -98.603029 
L 219.585657 -97.64689 
L 219.585648 -96.690752 
L 219.586071 -95.734613 
L 219.586571 -94.778474 
L 219.588018 -93.822336 
L 219.587969 -92.866197 
L 219.589837 -91.910058 
L 219.591197 -90.95392 
L 219.59157 -89.997781 
L 219.594345 -89.041643 
L 219.595758 -88.085504 
L 219.601269 -87.129365 
L 219.605159 -86.173227 
L 219.608238 -85.217088 
L 219.616473 -84.260949 
L 219.623513 -83.304811 
L 219.632849 -82.348672 
L 219.642134 -81.392534 
L 219.657824 -80.436395 
L 219.678595 -79.480256 
L 219.702315 -78.524118 
L 219.721448 -77.567979 
L 219.762981 -76.611841 
L 219.802558 -75.655702 
L 219.855264 -74.699563 
L 219.918647 -73.743425 
L 219.996167 -72.787286 
L 220.091274 -71.831147 
L 220.207164 -70.875009 
L 220.333678 -69.91887 
L 220.474894 -68.962732 
L 220.637281 -68.006593 
L 220.819143 -67.050454 
L 221.020806 -66.094316 
L 221.222867 -65.138177 
L 221.424298 -64.182039 
L 221.649332 -63.2259 
L 221.825992 -62.269761 
L 221.988525 -61.313623 
L 222.144941 -60.357484 
L 222.202132 -59.401345 
L 240.014521 -58.445207 
L 224.079276 -57.489068 
z
" style="stroke: #3f3f3f; stroke-width: 1.5"/>
    </defs>
    <g clip-path="url(#pe3a1aff518)">
     <use xlink:href="#m314bc966bb" x="0" y="194.158125" style="fill: #3274a1; stroke: #3f3f3f; stroke-width: 1.5"/>
    </g>
   </g>
   <g id="PolyCollection_3">
    <defs>
     <path id="m34a922545c" d="M 337.418142 -57.67235 
L 324.947483 -57.67235 
L 300.22332 -58.324781 
L 327.396648 -58.977212 
L 327.486484 -59.629643 
L 327.633041 -60.282074 
L 327.866242 -60.934505 
L 328.126747 -61.586936 
L 328.406426 -62.239367 
L 328.701672 -62.891798 
L 329.015606 -63.544229 
L 329.280093 -64.19666 
L 329.540956 -64.849091 
L 329.792308 -65.501522 
L 330.012136 -66.153953 
L 330.214103 -66.806384 
L 330.379627 -67.458815 
L 330.505531 -68.111246 
L 330.633885 -68.763677 
L 330.73131 -69.416107 
L 330.810767 -70.068538 
L 330.876852 -70.720969 
L 330.928446 -71.3734 
L 330.97574 -72.025831 
L 331.016693 -72.678262 
L 331.04692 -73.330693 
L 331.079907 -73.983124 
L 331.100166 -74.635555 
L 331.114691 -75.287986 
L 331.128469 -75.940417 
L 331.1429 -76.592848 
L 331.148244 -77.245279 
L 331.15521 -77.89771 
L 331.161022 -78.550141 
L 331.163289 -79.202572 
L 331.16716 -79.855003 
L 331.169902 -80.507434 
L 331.173037 -81.159865 
L 331.174217 -81.812296 
L 331.176421 -82.464727 
L 331.1765 -83.117158 
L 331.178781 -83.769589 
L 331.178996 -84.422019 
L 331.178786 -85.07445 
L 331.179723 -85.726881 
L 331.179962 -86.379312 
L 331.180311 -87.031743 
L 331.180787 -87.684174 
L 331.180838 -88.336605 
L 331.181181 -88.989036 
L 331.181332 -89.641467 
L 331.181424 -90.293898 
L 331.18127 -90.946329 
L 331.181871 -91.59876 
L 331.182113 -92.251191 
L 331.181927 -92.903622 
L 331.18184 -93.556053 
L 331.182524 -94.208484 
L 331.182556 -94.860915 
L 331.182109 -95.513346 
L 331.182224 -96.165777 
L 331.182251 -96.818208 
L 331.18251 -97.470639 
L 331.182414 -98.12307 
L 331.182457 -98.775501 
L 331.182499 -99.427932 
L 331.182613 -100.080362 
L 331.182446 -100.732793 
L 331.182803 -101.385224 
L 331.182722 -102.037655 
L 331.182724 -102.690086 
L 331.182651 -103.342517 
L 331.182632 -103.994948 
L 331.182604 -104.647379 
L 331.182561 -105.29981 
L 331.182665 -105.952241 
L 331.182698 -106.604672 
L 331.182784 -107.257103 
L 331.182752 -107.909534 
L 331.182786 -108.561965 
L 331.182768 -109.214396 
L 331.182812 -109.866827 
L 331.182812 -110.519258 
L 331.182794 -111.171689 
L 331.182767 -111.82412 
L 331.182735 -112.476551 
L 331.182812 -113.128982 
L 331.182812 -113.781413 
L 331.182812 -114.433844 
L 331.182645 -115.086275 
L 331.182766 -115.738705 
L 331.182794 -116.391136 
L 331.182812 -117.043567 
L 331.182778 -117.695998 
L 331.182789 -118.348429 
L 331.182812 -119.00086 
L 331.182813 -119.653291 
L 331.182813 -120.305722 
L 331.182812 -120.958153 
L 331.182759 -121.610584 
L 331.182801 -122.263015 
L 331.182824 -122.263015 
L 331.182824 -122.263015 
L 331.182866 -121.610584 
L 331.182813 -120.958153 
L 331.182813 -120.305722 
L 331.182813 -119.653291 
L 331.182813 -119.00086 
L 331.182836 -118.348429 
L 331.182847 -117.695998 
L 331.182813 -117.043567 
L 331.182831 -116.391136 
L 331.182859 -115.738705 
L 331.18298 -115.086275 
L 331.182813 -114.433844 
L 331.182813 -113.781413 
L 331.182813 -113.128982 
L 331.18289 -112.476551 
L 331.182858 -111.82412 
L 331.182831 -111.171689 
L 331.182813 -110.519258 
L 331.182813 -109.866827 
L 331.182857 -109.214396 
L 331.182839 -108.561965 
L 331.182873 -107.909534 
L 331.182841 -107.257103 
L 331.182927 -106.604672 
L 331.18296 -105.952241 
L 331.183064 -105.29981 
L 331.183021 -104.647379 
L 331.182993 -103.994948 
L 331.182974 -103.342517 
L 331.182901 -102.690086 
L 331.182903 -102.037655 
L 331.182822 -101.385224 
L 331.183179 -100.732793 
L 331.183012 -100.080362 
L 331.183126 -99.427932 
L 331.183168 -98.775501 
L 331.183211 -98.12307 
L 331.183115 -97.470639 
L 331.183374 -96.818208 
L 331.183401 -96.165777 
L 331.183516 -95.513346 
L 331.183069 -94.860915 
L 331.183101 -94.208484 
L 331.183785 -93.556053 
L 331.183698 -92.903622 
L 331.183512 -92.251191 
L 331.183754 -91.59876 
L 331.184355 -90.946329 
L 331.184201 -90.293898 
L 331.184293 -89.641467 
L 331.184444 -88.989036 
L 331.184787 -88.336605 
L 331.184838 -87.684174 
L 331.185314 -87.031743 
L 331.185663 -86.379312 
L 331.185902 -85.726881 
L 331.186839 -85.07445 
L 331.186629 -84.422019 
L 331.186844 -83.769589 
L 331.189125 -83.117158 
L 331.189204 -82.464727 
L 331.191408 -81.812296 
L 331.192588 -81.159865 
L 331.195723 -80.507434 
L 331.198465 -79.855003 
L 331.202336 -79.202572 
L 331.204603 -78.550141 
L 331.210415 -77.89771 
L 331.217381 -77.245279 
L 331.222725 -76.592848 
L 331.237156 -75.940417 
L 331.250934 -75.287986 
L 331.265459 -74.635555 
L 331.285718 -73.983124 
L 331.318705 -73.330693 
L 331.348932 -72.678262 
L 331.389885 -72.025831 
L 331.437179 -71.3734 
L 331.488773 -70.720969 
L 331.554858 -70.068538 
L 331.634315 -69.416107 
L 331.73174 -68.763677 
L 331.860094 -68.111246 
L 331.985998 -67.458815 
L 332.151522 -66.806384 
L 332.353489 -66.153953 
L 332.573317 -65.501522 
L 332.824669 -64.849091 
L 333.085532 -64.19666 
L 333.350019 -63.544229 
L 333.663953 -62.891798 
L 333.959199 -62.239367 
L 334.238878 -61.586936 
L 334.499383 -60.934505 
L 334.732584 -60.282074 
L 334.879141 -59.629643 
L 334.968977 -58.977212 
L 362.142305 -58.324781 
L 337.418142 -57.67235 
z
" style="stroke: #3f3f3f; stroke-width: 1.5"/>
    </defs>
    <g clip-path="url(#pe3a1aff518)">
     <use xlink:href="#m34a922545c" x="0" y="194.158125" style="fill: #3274a1; stroke: #3f3f3f; stroke-width: 1.5"/>
    </g>
   </g>
   <g id="PolyCollection_4">
    <defs>
     <path id="me57dc2fb3d" d="M 449.593926 -57.683632 
L 435.971699 -57.683632 
L 398.142813 -58.23609 
L 438.185746 -58.788549 
L 438.653317 -59.341007 
L 438.914077 -59.893465 
L 439.193805 -60.445924 
L 439.468945 -60.998382 
L 439.765856 -61.55084 
L 440.03803 -62.103298 
L 440.385156 -62.655757 
L 440.682845 -63.208215 
L 440.9555 -63.760673 
L 441.201932 -64.313131 
L 441.466648 -64.86559 
L 441.665888 -65.418048 
L 441.839106 -65.970506 
L 442.007604 -66.522965 
L 442.151655 -67.075423 
L 442.248217 -67.627881 
L 442.337828 -68.180339 
L 442.42496 -68.732798 
L 442.495679 -69.285256 
L 442.544541 -69.837714 
L 442.589475 -70.390173 
L 442.635577 -70.942631 
L 442.654851 -71.495089 
L 442.680649 -72.047547 
L 442.701284 -72.600006 
L 442.717637 -73.152464 
L 442.734284 -73.704922 
L 442.74227 -74.25738 
L 442.750489 -74.809839 
L 442.752382 -75.362297 
L 442.757426 -75.914755 
L 442.761399 -76.467214 
L 442.765531 -77.019672 
L 442.769247 -77.57213 
L 442.769407 -78.124588 
L 442.772853 -78.677047 
L 442.7728 -79.229505 
L 442.775268 -79.781963 
L 442.777124 -80.334422 
L 442.777654 -80.88688 
L 442.778298 -81.439338 
L 442.779082 -81.991796 
L 442.77942 -82.544255 
L 442.779739 -83.096713 
L 442.778666 -83.649171 
L 442.779678 -84.201629 
L 442.779294 -84.754088 
L 442.779881 -85.306546 
L 442.781327 -85.859004 
L 442.781415 -86.411463 
L 442.781184 -86.963921 
L 442.781789 -87.516379 
L 442.781525 -88.068837 
L 442.781065 -88.621296 
L 442.781758 -89.173754 
L 442.782076 -89.726212 
L 442.782163 -90.278671 
L 442.78241 -90.831129 
L 442.782108 -91.383587 
L 442.782627 -91.936045 
L 442.782454 -92.488504 
L 442.781766 -93.040962 
L 442.782328 -93.59342 
L 442.782296 -94.145878 
L 442.782384 -94.698337 
L 442.78227 -95.250795 
L 442.782784 -95.803253 
L 442.782538 -96.355712 
L 442.782768 -96.90817 
L 442.782807 -97.460628 
L 442.782628 -98.013086 
L 442.782629 -98.565545 
L 442.782795 -99.118003 
L 442.782631 -99.670461 
L 442.782798 -100.222919 
L 442.782633 -100.775378 
L 442.782808 -101.327836 
L 442.782812 -101.880294 
L 442.782753 -102.432753 
L 442.782715 -102.985211 
L 442.782812 -103.537669 
L 442.782812 -104.090127 
L 442.782812 -104.642586 
L 442.782696 -105.195044 
L 442.782736 -105.747502 
L 442.782475 -106.299961 
L 442.782808 -106.852419 
L 442.782811 -107.404877 
L 442.782653 -107.957335 
L 442.782792 -108.509794 
L 442.782812 -109.062252 
L 442.782812 -109.61471 
L 442.782807 -110.167168 
L 442.782631 -110.719627 
L 442.782805 -111.272085 
L 442.782661 -111.824543 
L 442.782788 -112.377002 
L 442.782837 -112.377002 
L 442.782837 -112.377002 
L 442.782964 -111.824543 
L 442.78282 -111.272085 
L 442.782994 -110.719627 
L 442.782818 -110.167168 
L 442.782813 -109.61471 
L 442.782813 -109.062252 
L 442.782833 -108.509794 
L 442.782972 -107.957335 
L 442.782814 -107.404877 
L 442.782817 -106.852419 
L 442.78315 -106.299961 
L 442.782889 -105.747502 
L 442.782929 -105.195044 
L 442.782813 -104.642586 
L 442.782813 -104.090127 
L 442.782813 -103.537669 
L 442.78291 -102.985211 
L 442.782872 -102.432753 
L 442.782813 -101.880294 
L 442.782817 -101.327836 
L 442.782992 -100.775378 
L 442.782827 -100.222919 
L 442.782994 -99.670461 
L 442.78283 -99.118003 
L 442.782996 -98.565545 
L 442.782997 -98.013086 
L 442.782818 -97.460628 
L 442.782857 -96.90817 
L 442.783087 -96.355712 
L 442.782841 -95.803253 
L 442.783355 -95.250795 
L 442.783241 -94.698337 
L 442.783329 -94.145878 
L 442.783297 -93.59342 
L 442.783859 -93.040962 
L 442.783171 -92.488504 
L 442.782998 -91.936045 
L 442.783517 -91.383587 
L 442.783215 -90.831129 
L 442.783462 -90.278671 
L 442.783549 -89.726212 
L 442.783867 -89.173754 
L 442.78456 -88.621296 
L 442.7841 -88.068837 
L 442.783836 -87.516379 
L 442.784441 -86.963921 
L 442.78421 -86.411463 
L 442.784298 -85.859004 
L 442.785744 -85.306546 
L 442.786331 -84.754088 
L 442.785947 -84.201629 
L 442.786959 -83.649171 
L 442.785886 -83.096713 
L 442.786205 -82.544255 
L 442.786543 -81.991796 
L 442.787327 -81.439338 
L 442.787971 -80.88688 
L 442.788501 -80.334422 
L 442.790357 -79.781963 
L 442.792825 -79.229505 
L 442.792772 -78.677047 
L 442.796218 -78.124588 
L 442.796378 -77.57213 
L 442.800094 -77.019672 
L 442.804226 -76.467214 
L 442.808199 -75.914755 
L 442.813243 -75.362297 
L 442.815136 -74.809839 
L 442.823355 -74.25738 
L 442.831341 -73.704922 
L 442.847988 -73.152464 
L 442.864341 -72.600006 
L 442.884976 -72.047547 
L 442.910774 -71.495089 
L 442.930048 -70.942631 
L 442.97615 -70.390173 
L 443.021084 -69.837714 
L 443.069946 -69.285256 
L 443.140665 -68.732798 
L 443.227797 -68.180339 
L 443.317408 -67.627881 
L 443.41397 -67.075423 
L 443.558021 -66.522965 
L 443.726519 -65.970506 
L 443.899737 -65.418048 
L 444.098977 -64.86559 
L 444.363693 -64.313131 
L 444.610125 -63.760673 
L 444.88278 -63.208215 
L 445.180469 -62.655757 
L 445.527595 -62.103298 
L 445.799769 -61.55084 
L 446.09668 -60.998382 
L 446.37182 -60.445924 
L 446.651548 -59.893465 
L 446.912308 -59.341007 
L 447.379879 -58.788549 
L 487.422813 -58.23609 
L 449.593926 -57.683632 
z
" style="stroke: #3f3f3f; stroke-width: 1.5"/>
    </defs>
    <g clip-path="url(#pe3a1aff518)">
     <use xlink:href="#me57dc2fb3d" x="0" y="194.158125" style="fill: #3274a1; stroke: #3f3f3f; stroke-width: 1.5"/>
    </g>
   </g>
   <g id="PolyCollection_5">
    <defs>
     <path id="m5f808d6768" d="M 554.382942 -31.290852 
L 554.382683 -31.290852 
L 554.382065 -31.963694 
L 554.382017 -32.636535 
L 554.382657 -33.309377 
L 554.382791 -33.982219 
L 554.382504 -34.65506 
L 554.381487 -35.327902 
L 554.381132 -36.000744 
L 554.380654 -36.673585 
L 554.378927 -37.346427 
L 554.379387 -38.019268 
L 554.377442 -38.69211 
L 554.373862 -39.364952 
L 554.374289 -40.037793 
L 554.374467 -40.710635 
L 554.370329 -41.383476 
L 554.367781 -42.056318 
L 554.364892 -42.72916 
L 554.361991 -43.402001 
L 554.361805 -44.074843 
L 554.35905 -44.747684 
L 554.355369 -45.420526 
L 554.345407 -46.093368 
L 554.321016 -46.766209 
L 554.294253 -47.439051 
L 554.260684 -48.111893 
L 554.21493 -48.784734 
L 554.142326 -49.457576 
L 554.033758 -50.130417 
L 553.833963 -50.803259 
L 553.551314 -51.476101 
L 553.182017 -52.148942 
L 552.646509 -52.821784 
L 551.940601 -53.494625 
L 551.180901 -54.167467 
L 550.499916 -54.840309 
L 549.892215 -55.51315 
L 549.499025 -56.185992 
L 549.439053 -56.858833 
L 549.516328 -57.531675 
L 549.560974 -58.204517 
L 549.552757 -58.877358 
L 549.684332 -59.5502 
L 550.017138 -60.223041 
L 550.539674 -60.895883 
L 551.16714 -61.568725 
L 551.782352 -62.241566 
L 552.208837 -62.914408 
L 552.492422 -63.58725 
L 552.720887 -64.260091 
L 552.96233 -64.932933 
L 553.240161 -65.605774 
L 553.462486 -66.278616 
L 553.651093 -66.951458 
L 553.813188 -67.624299 
L 553.947746 -68.297141 
L 554.039836 -68.969982 
L 554.109288 -69.642824 
L 554.161577 -70.315666 
L 554.194915 -70.988507 
L 554.226 -71.661349 
L 554.25923 -72.33419 
L 554.297838 -73.007032 
L 554.330408 -73.679874 
L 554.344138 -74.352715 
L 554.351172 -75.025557 
L 554.357189 -75.698399 
L 554.361862 -76.37124 
L 554.368718 -77.044082 
L 554.369317 -77.716923 
L 554.372008 -78.389765 
L 554.376887 -79.062607 
L 554.38083 -79.735448 
L 554.380946 -80.40829 
L 554.379329 -81.081131 
L 554.379463 -81.753973 
L 554.380841 -82.426815 
L 554.381302 -83.099656 
L 554.380503 -83.772498 
L 554.380678 -84.445339 
L 554.381198 -85.118181 
L 554.381632 -85.791023 
L 554.382145 -86.463864 
L 554.382723 -87.136706 
L 554.38281 -87.809547 
L 554.382812 -88.482389 
L 554.382812 -89.155231 
L 554.382797 -89.828072 
L 554.382538 -90.500914 
L 554.381895 -91.173756 
L 554.382249 -91.846597 
L 554.382749 -92.519439 
L 554.382811 -93.19228 
L 554.382812 -93.865122 
L 554.382812 -94.537964 
L 554.382807 -95.210805 
L 554.382657 -95.883647 
L 554.382017 -96.556488 
L 554.382065 -97.22933 
L 554.382683 -97.902172 
L 554.382942 -97.902172 
L 554.382942 -97.902172 
L 554.38356 -97.22933 
L 554.383608 -96.556488 
L 554.382968 -95.883647 
L 554.382818 -95.210805 
L 554.382813 -94.537964 
L 554.382813 -93.865122 
L 554.382814 -93.19228 
L 554.382876 -92.519439 
L 554.383376 -91.846597 
L 554.38373 -91.173756 
L 554.383087 -90.500914 
L 554.382828 -89.828072 
L 554.382813 -89.155231 
L 554.382813 -88.482389 
L 554.382815 -87.809547 
L 554.382902 -87.136706 
L 554.38348 -86.463864 
L 554.383993 -85.791023 
L 554.384427 -85.118181 
L 554.384947 -84.445339 
L 554.385122 -83.772498 
L 554.384323 -83.099656 
L 554.384784 -82.426815 
L 554.386162 -81.753973 
L 554.386296 -81.081131 
L 554.384679 -80.40829 
L 554.384795 -79.735448 
L 554.388738 -79.062607 
L 554.393617 -78.389765 
L 554.396308 -77.716923 
L 554.396907 -77.044082 
L 554.403763 -76.37124 
L 554.408436 -75.698399 
L 554.414453 -75.025557 
L 554.421487 -74.352715 
L 554.435217 -73.679874 
L 554.467787 -73.007032 
L 554.506395 -72.33419 
L 554.539625 -71.661349 
L 554.57071 -70.988507 
L 554.604048 -70.315666 
L 554.656337 -69.642824 
L 554.725789 -68.969982 
L 554.817879 -68.297141 
L 554.952437 -67.624299 
L 555.114532 -66.951458 
L 555.303139 -66.278616 
L 555.525464 -65.605774 
L 555.803295 -64.932933 
L 556.044738 -64.260091 
L 556.273203 -63.58725 
L 556.556788 -62.914408 
L 556.983273 -62.241566 
L 557.598485 -61.568725 
L 558.225951 -60.895883 
L 558.748487 -60.223041 
L 559.081293 -59.5502 
L 559.212868 -58.877358 
L 559.204651 -58.204517 
L 559.249297 -57.531675 
L 559.326572 -56.858833 
L 559.2666 -56.185992 
L 558.87341 -55.51315 
L 558.265709 -54.840309 
L 557.584724 -54.167467 
L 556.825024 -53.494625 
L 556.119116 -52.821784 
L 555.583608 -52.148942 
L 555.214311 -51.476101 
L 554.931662 -50.803259 
L 554.731867 -50.130417 
L 554.623299 -49.457576 
L 554.550695 -48.784734 
L 554.504941 -48.111893 
L 554.471372 -47.439051 
L 554.444609 -46.766209 
L 554.420218 -46.093368 
L 554.410256 -45.420526 
L 554.406575 -44.747684 
L 554.40382 -44.074843 
L 554.403634 -43.402001 
L 554.400733 -42.72916 
L 554.397844 -42.056318 
L 554.395296 -41.383476 
L 554.391158 -40.710635 
L 554.391336 -40.037793 
L 554.391763 -39.364952 
L 554.388183 -38.69211 
L 554.386238 -38.019268 
L 554.386698 -37.346427 
L 554.384971 -36.673585 
L 554.384493 -36.000744 
L 554.384138 -35.327902 
L 554.383121 -34.65506 
L 554.382834 -33.982219 
L 554.382968 -33.309377 
L 554.383608 -32.636535 
L 554.38356 -31.963694 
L 554.382942 -31.290852 
z
" style="stroke: #3f3f3f; stroke-width: 1.5"/>
    </defs>
    <g clip-path="url(#pe3a1aff518)">
     <use xlink:href="#m5f808d6768" x="0" y="194.158125" style="fill: #3274a1; stroke: #3f3f3f; stroke-width: 1.5"/>
    </g>
   </g>
   <g id="matplotlib.axis_1">
    <g id="xtick_1">
     <g id="line2d_1">
      <defs>
       <path id="m78118bd7e7" d="M 0 0 
L 0 3.5 
" style="stroke: #000000; stroke-width: 0.8"/>
      </defs>
      <g>
       <use xlink:href="#m78118bd7e7" x="107.982813" y="170.28" style="stroke: #000000; stroke-width: 0.8"/>
      </g>
     </g>
     <g id="text_1">
      <!-- (1, relu) -->
      <g transform="translate(88.144531 184.878438)scale(0.1 -0.1)">
       <defs>
        <path id="DejaVuSans-28" d="M 1984 4856 
Q 1566 4138 1362 3434 
Q 1159 2731 1159 2009 
Q 1159 1288 1364 580 
Q 1569 -128 1984 -844 
L 1484 -844 
Q 1016 -109 783 600 
Q 550 1309 550 2009 
Q 550 2706 781 3412 
Q 1013 4119 1484 4856 
L 1984 4856 
z
" transform="scale(0.015625)"/>
        <path id="DejaVuSans-31" d="M 794 531 
L 1825 531 
L 1825 4091 
L 703 3866 
L 703 4441 
L 1819 4666 
L 2450 4666 
L 2450 531 
L 3481 531 
L 3481 0 
L 794 0 
L 794 531 
z
" transform="scale(0.015625)"/>
        <path id="DejaVuSans-2c" d="M 750 794 
L 1409 794 
L 1409 256 
L 897 -744 
L 494 -744 
L 750 256 
L 750 794 
z
" transform="scale(0.015625)"/>
        <path id="DejaVuSans-20" transform="scale(0.015625)"/>
        <path id="DejaVuSans-72" d="M 2631 2963 
Q 2534 3019 2420 3045 
Q 2306 3072 2169 3072 
Q 1681 3072 1420 2755 
Q 1159 2438 1159 1844 
L 1159 0 
L 581 0 
L 581 3500 
L 1159 3500 
L 1159 2956 
Q 1341 3275 1631 3429 
Q 1922 3584 2338 3584 
Q 2397 3584 2469 3576 
Q 2541 3569 2628 3553 
L 2631 2963 
z
" transform="scale(0.015625)"/>
        <path id="DejaVuSans-65" d="M 3597 1894 
L 3597 1613 
L 953 1613 
Q 991 1019 1311 708 
Q 1631 397 2203 397 
Q 2534 397 2845 478 
Q 3156 559 3463 722 
L 3463 178 
Q 3153 47 2828 -22 
Q 2503 -91 2169 -91 
Q 1331 -91 842 396 
Q 353 884 353 1716 
Q 353 2575 817 3079 
Q 1281 3584 2069 3584 
Q 2775 3584 3186 3129 
Q 3597 2675 3597 1894 
z
M 3022 2063 
Q 3016 2534 2758 2815 
Q 2500 3097 2075 3097 
Q 1594 3097 1305 2825 
Q 1016 2553 972 2059 
L 3022 2063 
z
" transform="scale(0.015625)"/>
        <path id="DejaVuSans-6c" d="M 603 4863 
L 1178 4863 
L 1178 0 
L 603 0 
L 603 4863 
z
" transform="scale(0.015625)"/>
        <path id="DejaVuSans-75" d="M 544 1381 
L 544 3500 
L 1119 3500 
L 1119 1403 
Q 1119 906 1312 657 
Q 1506 409 1894 409 
Q 2359 409 2629 706 
Q 2900 1003 2900 1516 
L 2900 3500 
L 3475 3500 
L 3475 0 
L 2900 0 
L 2900 538 
Q 2691 219 2414 64 
Q 2138 -91 1772 -91 
Q 1169 -91 856 284 
Q 544 659 544 1381 
z
M 1991 3584 
L 1991 3584 
z
" transform="scale(0.015625)"/>
        <path id="DejaVuSans-29" d="M 513 4856 
L 1013 4856 
Q 1481 4119 1714 3412 
Q 1947 2706 1947 2009 
Q 1947 1309 1714 600 
Q 1481 -109 1013 -844 
L 513 -844 
Q 928 -128 1133 580 
Q 1338 1288 1338 2009 
Q 1338 2731 1133 3434 
Q 928 4138 513 4856 
z
" transform="scale(0.015625)"/>
       </defs>
       <use xlink:href="#DejaVuSans-28"/>
       <use xlink:href="#DejaVuSans-31" x="39.013672"/>
       <use xlink:href="#DejaVuSans-2c" x="102.636719"/>
       <use xlink:href="#DejaVuSans-20" x="134.423828"/>
       <use xlink:href="#DejaVuSans-72" x="166.210938"/>
       <use xlink:href="#DejaVuSans-65" x="205.074219"/>
       <use xlink:href="#DejaVuSans-6c" x="266.597656"/>
       <use xlink:href="#DejaVuSans-75" x="294.380859"/>
       <use xlink:href="#DejaVuSans-29" x="357.759766"/>
      </g>
     </g>
    </g>
    <g id="xtick_2">
     <g id="line2d_2">
      <g>
       <use xlink:href="#m78118bd7e7" x="219.582813" y="170.28" style="stroke: #000000; stroke-width: 0.8"/>
      </g>
     </g>
     <g id="text_2">
      <!-- (2, relu) -->
      <g transform="translate(199.744531 184.878438)scale(0.1 -0.1)">
       <defs>
        <path id="DejaVuSans-32" d="M 1228 531 
L 3431 531 
L 3431 0 
L 469 0 
L 469 531 
Q 828 903 1448 1529 
Q 2069 2156 2228 2338 
Q 2531 2678 2651 2914 
Q 2772 3150 2772 3378 
Q 2772 3750 2511 3984 
Q 2250 4219 1831 4219 
Q 1534 4219 1204 4116 
Q 875 4013 500 3803 
L 500 4441 
Q 881 4594 1212 4672 
Q 1544 4750 1819 4750 
Q 2544 4750 2975 4387 
Q 3406 4025 3406 3419 
Q 3406 3131 3298 2873 
Q 3191 2616 2906 2266 
Q 2828 2175 2409 1742 
Q 1991 1309 1228 531 
z
" transform="scale(0.015625)"/>
       </defs>
       <use xlink:href="#DejaVuSans-28"/>
       <use xlink:href="#DejaVuSans-32" x="39.013672"/>
       <use xlink:href="#DejaVuSans-2c" x="102.636719"/>
       <use xlink:href="#DejaVuSans-20" x="134.423828"/>
       <use xlink:href="#DejaVuSans-72" x="166.210938"/>
       <use xlink:href="#DejaVuSans-65" x="205.074219"/>
       <use xlink:href="#DejaVuSans-6c" x="266.597656"/>
       <use xlink:href="#DejaVuSans-75" x="294.380859"/>
       <use xlink:href="#DejaVuSans-29" x="357.759766"/>
      </g>
     </g>
    </g>
    <g id="xtick_3">
     <g id="line2d_3">
      <g>
       <use xlink:href="#m78118bd7e7" x="331.182813" y="170.28" style="stroke: #000000; stroke-width: 0.8"/>
      </g>
     </g>
     <g id="text_3">
      <!-- (3, relu) -->
      <g transform="translate(311.344531 184.878438)scale(0.1 -0.1)">
       <defs>
        <path id="DejaVuSans-33" d="M 2597 2516 
Q 3050 2419 3304 2112 
Q 3559 1806 3559 1356 
Q 3559 666 3084 287 
Q 2609 -91 1734 -91 
Q 1441 -91 1130 -33 
Q 819 25 488 141 
L 488 750 
Q 750 597 1062 519 
Q 1375 441 1716 441 
Q 2309 441 2620 675 
Q 2931 909 2931 1356 
Q 2931 1769 2642 2001 
Q 2353 2234 1838 2234 
L 1294 2234 
L 1294 2753 
L 1863 2753 
Q 2328 2753 2575 2939 
Q 2822 3125 2822 3475 
Q 2822 3834 2567 4026 
Q 2313 4219 1838 4219 
Q 1578 4219 1281 4162 
Q 984 4106 628 3988 
L 628 4550 
Q 988 4650 1302 4700 
Q 1616 4750 1894 4750 
Q 2613 4750 3031 4423 
Q 3450 4097 3450 3541 
Q 3450 3153 3228 2886 
Q 3006 2619 2597 2516 
z
" transform="scale(0.015625)"/>
       </defs>
       <use xlink:href="#DejaVuSans-28"/>
       <use xlink:href="#DejaVuSans-33" x="39.013672"/>
       <use xlink:href="#DejaVuSans-2c" x="102.636719"/>
       <use xlink:href="#DejaVuSans-20" x="134.423828"/>
       <use xlink:href="#DejaVuSans-72" x="166.210938"/>
       <use xlink:href="#DejaVuSans-65" x="205.074219"/>
       <use xlink:href="#DejaVuSans-6c" x="266.597656"/>
       <use xlink:href="#DejaVuSans-75" x="294.380859"/>
       <use xlink:href="#DejaVuSans-29" x="357.759766"/>
      </g>
     </g>
    </g>
    <g id="xtick_4">
     <g id="line2d_4">
      <g>
       <use xlink:href="#m78118bd7e7" x="442.782813" y="170.28" style="stroke: #000000; stroke-width: 0.8"/>
      </g>
     </g>
     <g id="text_4">
      <!-- (4, relu) -->
      <g transform="translate(422.944531 184.878438)scale(0.1 -0.1)">
       <defs>
        <path id="DejaVuSans-34" d="M 2419 4116 
L 825 1625 
L 2419 1625 
L 2419 4116 
z
M 2253 4666 
L 3047 4666 
L 3047 1625 
L 3713 1625 
L 3713 1100 
L 3047 1100 
L 3047 0 
L 2419 0 
L 2419 1100 
L 313 1100 
L 313 1709 
L 2253 4666 
z
" transform="scale(0.015625)"/>
       </defs>
       <use xlink:href="#DejaVuSans-28"/>
       <use xlink:href="#DejaVuSans-34" x="39.013672"/>
       <use xlink:href="#DejaVuSans-2c" x="102.636719"/>
       <use xlink:href="#DejaVuSans-20" x="134.423828"/>
       <use xlink:href="#DejaVuSans-72" x="166.210938"/>
       <use xlink:href="#DejaVuSans-65" x="205.074219"/>
       <use xlink:href="#DejaVuSans-6c" x="266.597656"/>
       <use xlink:href="#DejaVuSans-75" x="294.380859"/>
       <use xlink:href="#DejaVuSans-29" x="357.759766"/>
      </g>
     </g>
    </g>
    <g id="xtick_5">
     <g id="line2d_5">
      <g>
       <use xlink:href="#m78118bd7e7" x="554.382812" y="170.28" style="stroke: #000000; stroke-width: 0.8"/>
      </g>
     </g>
     <g id="text_5">
      <!-- logits -->
      <g transform="translate(540.80625 184.878438)scale(0.1 -0.1)">
       <defs>
        <path id="DejaVuSans-6f" d="M 1959 3097 
Q 1497 3097 1228 2736 
Q 959 2375 959 1747 
Q 959 1119 1226 758 
Q 1494 397 1959 397 
Q 2419 397 2687 759 
Q 2956 1122 2956 1747 
Q 2956 2369 2687 2733 
Q 2419 3097 1959 3097 
z
M 1959 3584 
Q 2709 3584 3137 3096 
Q 3566 2609 3566 1747 
Q 3566 888 3137 398 
Q 2709 -91 1959 -91 
Q 1206 -91 779 398 
Q 353 888 353 1747 
Q 353 2609 779 3096 
Q 1206 3584 1959 3584 
z
" transform="scale(0.015625)"/>
        <path id="DejaVuSans-67" d="M 2906 1791 
Q 2906 2416 2648 2759 
Q 2391 3103 1925 3103 
Q 1463 3103 1205 2759 
Q 947 2416 947 1791 
Q 947 1169 1205 825 
Q 1463 481 1925 481 
Q 2391 481 2648 825 
Q 2906 1169 2906 1791 
z
M 3481 434 
Q 3481 -459 3084 -895 
Q 2688 -1331 1869 -1331 
Q 1566 -1331 1297 -1286 
Q 1028 -1241 775 -1147 
L 775 -588 
Q 1028 -725 1275 -790 
Q 1522 -856 1778 -856 
Q 2344 -856 2625 -561 
Q 2906 -266 2906 331 
L 2906 616 
Q 2728 306 2450 153 
Q 2172 0 1784 0 
Q 1141 0 747 490 
Q 353 981 353 1791 
Q 353 2603 747 3093 
Q 1141 3584 1784 3584 
Q 2172 3584 2450 3431 
Q 2728 3278 2906 2969 
L 2906 3500 
L 3481 3500 
L 3481 434 
z
" transform="scale(0.015625)"/>
        <path id="DejaVuSans-69" d="M 603 3500 
L 1178 3500 
L 1178 0 
L 603 0 
L 603 3500 
z
M 603 4863 
L 1178 4863 
L 1178 4134 
L 603 4134 
L 603 4863 
z
" transform="scale(0.015625)"/>
        <path id="DejaVuSans-74" d="M 1172 4494 
L 1172 3500 
L 2356 3500 
L 2356 3053 
L 1172 3053 
L 1172 1153 
Q 1172 725 1289 603 
Q 1406 481 1766 481 
L 2356 481 
L 2356 0 
L 1766 0 
Q 1100 0 847 248 
Q 594 497 594 1153 
L 594 3053 
L 172 3053 
L 172 3500 
L 594 3500 
L 594 4494 
L 1172 4494 
z
" transform="scale(0.015625)"/>
        <path id="DejaVuSans-73" d="M 2834 3397 
L 2834 2853 
Q 2591 2978 2328 3040 
Q 2066 3103 1784 3103 
Q 1356 3103 1142 2972 
Q 928 2841 928 2578 
Q 928 2378 1081 2264 
Q 1234 2150 1697 2047 
L 1894 2003 
Q 2506 1872 2764 1633 
Q 3022 1394 3022 966 
Q 3022 478 2636 193 
Q 2250 -91 1575 -91 
Q 1294 -91 989 -36 
Q 684 19 347 128 
L 347 722 
Q 666 556 975 473 
Q 1284 391 1588 391 
Q 1994 391 2212 530 
Q 2431 669 2431 922 
Q 2431 1156 2273 1281 
Q 2116 1406 1581 1522 
L 1381 1569 
Q 847 1681 609 1914 
Q 372 2147 372 2553 
Q 372 3047 722 3315 
Q 1072 3584 1716 3584 
Q 2034 3584 2315 3537 
Q 2597 3491 2834 3397 
z
" transform="scale(0.015625)"/>
       </defs>
       <use xlink:href="#DejaVuSans-6c"/>
       <use xlink:href="#DejaVuSans-6f" x="27.783203"/>
       <use xlink:href="#DejaVuSans-67" x="88.964844"/>
       <use xlink:href="#DejaVuSans-69" x="152.441406"/>
       <use xlink:href="#DejaVuSans-74" x="180.224609"/>
       <use xlink:href="#DejaVuSans-73" x="219.433594"/>
      </g>
     </g>
    </g>
   </g>
   <g id="matplotlib.axis_2">
    <g id="ytick_1">
     <g id="line2d_6">
      <defs>
       <path id="mfdf108a1d9" d="M 0 0 
L -3.5 0 
" style="stroke: #000000; stroke-width: 0.8"/>
      </defs>
      <g>
       <use xlink:href="#mfdf108a1d9" x="52.182813" y="160.017914" style="stroke: #000000; stroke-width: 0.8"/>
      </g>
     </g>
     <g id="text_6">
      <!-- −2.5 -->
      <g transform="translate(20.9 163.817133)scale(0.1 -0.1)">
       <defs>
        <path id="DejaVuSans-2212" d="M 678 2272 
L 4684 2272 
L 4684 1741 
L 678 1741 
L 678 2272 
z
" transform="scale(0.015625)"/>
        <path id="DejaVuSans-2e" d="M 684 794 
L 1344 794 
L 1344 0 
L 684 0 
L 684 794 
z
" transform="scale(0.015625)"/>
        <path id="DejaVuSans-35" d="M 691 4666 
L 3169 4666 
L 3169 4134 
L 1269 4134 
L 1269 2991 
Q 1406 3038 1543 3061 
Q 1681 3084 1819 3084 
Q 2600 3084 3056 2656 
Q 3513 2228 3513 1497 
Q 3513 744 3044 326 
Q 2575 -91 1722 -91 
Q 1428 -91 1123 -41 
Q 819 9 494 109 
L 494 744 
Q 775 591 1075 516 
Q 1375 441 1709 441 
Q 2250 441 2565 725 
Q 2881 1009 2881 1497 
Q 2881 1984 2565 2268 
Q 2250 2553 1709 2553 
Q 1456 2553 1204 2497 
Q 953 2441 691 2322 
L 691 4666 
z
" transform="scale(0.015625)"/>
       </defs>
       <use xlink:href="#DejaVuSans-2212"/>
       <use xlink:href="#DejaVuSans-32" x="83.789062"/>
       <use xlink:href="#DejaVuSans-2e" x="147.412109"/>
       <use xlink:href="#DejaVuSans-35" x="179.199219"/>
      </g>
     </g>
    </g>
    <g id="ytick_2">
     <g id="line2d_7">
      <g>
       <use xlink:href="#mfdf108a1d9" x="52.182813" y="136.049658" style="stroke: #000000; stroke-width: 0.8"/>
      </g>
     </g>
     <g id="text_7">
      <!-- 0.0 -->
      <g transform="translate(29.279688 139.848877)scale(0.1 -0.1)">
       <defs>
        <path id="DejaVuSans-30" d="M 2034 4250 
Q 1547 4250 1301 3770 
Q 1056 3291 1056 2328 
Q 1056 1369 1301 889 
Q 1547 409 2034 409 
Q 2525 409 2770 889 
Q 3016 1369 3016 2328 
Q 3016 3291 2770 3770 
Q 2525 4250 2034 4250 
z
M 2034 4750 
Q 2819 4750 3233 4129 
Q 3647 3509 3647 2328 
Q 3647 1150 3233 529 
Q 2819 -91 2034 -91 
Q 1250 -91 836 529 
Q 422 1150 422 2328 
Q 422 3509 836 4129 
Q 1250 4750 2034 4750 
z
" transform="scale(0.015625)"/>
       </defs>
       <use xlink:href="#DejaVuSans-30"/>
       <use xlink:href="#DejaVuSans-2e" x="63.623047"/>
       <use xlink:href="#DejaVuSans-30" x="95.410156"/>
      </g>
     </g>
    </g>
    <g id="ytick_3">
     <g id="line2d_8">
      <g>
       <use xlink:href="#mfdf108a1d9" x="52.182813" y="112.081402" style="stroke: #000000; stroke-width: 0.8"/>
      </g>
     </g>
     <g id="text_8">
      <!-- 2.5 -->
      <g transform="translate(29.279688 115.880621)scale(0.1 -0.1)">
       <use xlink:href="#DejaVuSans-32"/>
       <use xlink:href="#DejaVuSans-2e" x="63.623047"/>
       <use xlink:href="#DejaVuSans-35" x="95.410156"/>
      </g>
     </g>
    </g>
    <g id="ytick_4">
     <g id="line2d_9">
      <g>
       <use xlink:href="#mfdf108a1d9" x="52.182813" y="88.113146" style="stroke: #000000; stroke-width: 0.8"/>
      </g>
     </g>
     <g id="text_9">
      <!-- 5.0 -->
      <g transform="translate(29.279688 91.912365)scale(0.1 -0.1)">
       <use xlink:href="#DejaVuSans-35"/>
       <use xlink:href="#DejaVuSans-2e" x="63.623047"/>
       <use xlink:href="#DejaVuSans-30" x="95.410156"/>
      </g>
     </g>
    </g>
    <g id="ytick_5">
     <g id="line2d_10">
      <g>
       <use xlink:href="#mfdf108a1d9" x="52.182813" y="64.14489" style="stroke: #000000; stroke-width: 0.8"/>
      </g>
     </g>
     <g id="text_10">
      <!-- 7.5 -->
      <g transform="translate(29.279688 67.944109)scale(0.1 -0.1)">
       <defs>
        <path id="DejaVuSans-37" d="M 525 4666 
L 3525 4666 
L 3525 4397 
L 1831 0 
L 1172 0 
L 2766 4134 
L 525 4134 
L 525 4666 
z
" transform="scale(0.015625)"/>
       </defs>
       <use xlink:href="#DejaVuSans-37"/>
       <use xlink:href="#DejaVuSans-2e" x="63.623047"/>
       <use xlink:href="#DejaVuSans-35" x="95.410156"/>
      </g>
     </g>
    </g>
    <g id="ytick_6">
     <g id="line2d_11">
      <g>
       <use xlink:href="#mfdf108a1d9" x="52.182813" y="40.176634" style="stroke: #000000; stroke-width: 0.8"/>
      </g>
     </g>
     <g id="text_11">
      <!-- 10.0 -->
      <g transform="translate(22.917188 43.975852)scale(0.1 -0.1)">
       <use xlink:href="#DejaVuSans-31"/>
       <use xlink:href="#DejaVuSans-30" x="63.623047"/>
       <use xlink:href="#DejaVuSans-2e" x="127.246094"/>
       <use xlink:href="#DejaVuSans-30" x="159.033203"/>
      </g>
     </g>
    </g>
    <g id="ytick_7">
     <g id="line2d_12">
      <g>
       <use xlink:href="#mfdf108a1d9" x="52.182813" y="16.208378" style="stroke: #000000; stroke-width: 0.8"/>
      </g>
     </g>
     <g id="text_12">
      <!-- 12.5 -->
      <g transform="translate(22.917188 20.007596)scale(0.1 -0.1)">
       <use xlink:href="#DejaVuSans-31"/>
       <use xlink:href="#DejaVuSans-32" x="63.623047"/>
       <use xlink:href="#DejaVuSans-2e" x="127.246094"/>
       <use xlink:href="#DejaVuSans-35" x="159.033203"/>
      </g>
     </g>
    </g>
    <g id="text_13">
     <!-- ${\phi}$ -->
     <g transform="translate(14.8 92.04)rotate(-90)scale(0.1 -0.1)">
      <defs>
       <path id="DejaVuSans-Oblique-3d5" d="M 2991 4863 
L 2738 3572 
Q 3363 3572 3684 3094 
Q 4016 2606 3850 1747 
Q 3681 888 3159 400 
Q 2653 -78 2028 -78 
L 1784 -1331 
L 1213 -1331 
L 1456 -78 
Q 834 -78 509 400 
Q 178 888 347 1747 
Q 513 2606 1034 3094 
Q 1544 3572 2166 3572 
L 2419 4863 
L 2991 4863 
z
M 2128 434 
Q 2481 434 2784 756 
Q 3116 1116 3244 1747 
Q 3369 2372 3169 2738 
Q 2991 3059 2638 3059 
L 2128 434 
z
M 1556 434 
L 2066 3059 
Q 1716 3059 1413 2738 
Q 1072 2372 953 1747 
Q 834 1116 1028 756 
Q 1203 434 1556 434 
z
" transform="scale(0.015625)"/>
      </defs>
      <use xlink:href="#DejaVuSans-Oblique-3d5" transform="translate(0 0.015625)"/>
     </g>
    </g>
   </g>
   <g id="line2d_13">
    <path d="M 107.982813 136.049658 
L 107.982813 119.915787 
" clip-path="url(#pe3a1aff518)" style="fill: none; stroke: #3f3f3f; stroke-width: 1.5; stroke-linecap: square"/>
   </g>
   <g id="line2d_14">
    <path d="M 107.982813 136.049658 
L 107.982813 129.596093 
" clip-path="url(#pe3a1aff518)" style="fill: none; stroke: #3f3f3f; stroke-width: 4.5; stroke-linecap: square"/>
   </g>
   <g id="line2d_15">
    <path d="M 219.582813 136.049658 
L 219.582813 123.309317 
" clip-path="url(#pe3a1aff518)" style="fill: none; stroke: #3f3f3f; stroke-width: 1.5; stroke-linecap: square"/>
   </g>
   <g id="line2d_16">
    <path d="M 219.582813 136.049658 
L 219.582813 130.953519 
" clip-path="url(#pe3a1aff518)" style="fill: none; stroke: #3f3f3f; stroke-width: 4.5; stroke-linecap: square"/>
   </g>
   <g id="line2d_17">
    <path d="M 331.182813 136.049658 
L 331.182813 126.774025 
" clip-path="url(#pe3a1aff518)" style="fill: none; stroke: #3f3f3f; stroke-width: 1.5; stroke-linecap: square"/>
   </g>
   <g id="line2d_18">
    <path d="M 331.182813 136.049658 
L 331.182813 132.3394 
" clip-path="url(#pe3a1aff518)" style="fill: none; stroke: #3f3f3f; stroke-width: 4.5; stroke-linecap: square"/>
   </g>
   <g id="line2d_19">
    <path d="M 442.782813 136.049658 
L 442.782813 128.792958 
" clip-path="url(#pe3a1aff518)" style="fill: none; stroke: #3f3f3f; stroke-width: 1.5; stroke-linecap: square"/>
   </g>
   <g id="line2d_20">
    <path d="M 442.782813 136.049658 
L 442.782813 133.146978 
" clip-path="url(#pe3a1aff518)" style="fill: none; stroke: #3f3f3f; stroke-width: 4.5; stroke-linecap: square"/>
   </g>
   <g id="line2d_21">
    <path d="M 554.382812 146.438244 
L 554.382812 124.990529 
" clip-path="url(#pe3a1aff518)" style="fill: none; stroke: #3f3f3f; stroke-width: 1.5; stroke-linecap: square"/>
   </g>
   <g id="line2d_22">
    <path d="M 554.382812 138.397756 
L 554.382812 133.033944 
" clip-path="url(#pe3a1aff518)" style="fill: none; stroke: #3f3f3f; stroke-width: 4.5; stroke-linecap: square"/>
   </g>
   <g id="patch_3">
    <path d="M 52.182813 170.28 
L 52.182813 7.2 
" style="fill: none; stroke: #000000; stroke-width: 0.8; stroke-linejoin: miter; stroke-linecap: square"/>
   </g>
   <g id="patch_4">
    <path d="M 610.182812 170.28 
L 610.182812 7.2 
" style="fill: none; stroke: #000000; stroke-width: 0.8; stroke-linejoin: miter; stroke-linecap: square"/>
   </g>
   <g id="patch_5">
    <path d="M 52.182813 170.28 
L 610.182813 170.28 
" style="fill: none; stroke: #000000; stroke-width: 0.8; stroke-linejoin: miter; stroke-linecap: square"/>
   </g>
   <g id="patch_6">
    <path d="M 52.182813 7.2 
L 610.182813 7.2 
" style="fill: none; stroke: #000000; stroke-width: 0.8; stroke-linejoin: miter; stroke-linecap: square"/>
   </g>
   <g id="PathCollection_1">
    <defs>
     <path id="mf0876b3d9c" d="M 0 1.5 
C 0.397805 1.5 0.77937 1.341951 1.06066 1.06066 
C 1.341951 0.77937 1.5 0.397805 1.5 0 
C 1.5 -0.397805 1.341951 -0.77937 1.06066 -1.06066 
C 0.77937 -1.341951 0.397805 -1.5 0 -1.5 
C -0.397805 -1.5 -0.77937 -1.341951 -1.06066 -1.06066 
C -1.341951 -0.77937 -1.5 -0.397805 -1.5 0 
C -1.5 0.397805 -1.341951 0.77937 -1.06066 1.06066 
C -0.77937 1.341951 -0.397805 1.5 0 1.5 
z
" style="stroke: #3f3f3f"/>
    </defs>
    <g clip-path="url(#pe3a1aff518)">
     <use xlink:href="#mf0876b3d9c" x="107.982813" y="136.039683" style="fill: #ffffff; stroke: #3f3f3f"/>
    </g>
   </g>
   <g id="PathCollection_2">
    <g clip-path="url(#pe3a1aff518)">
     <use xlink:href="#mf0876b3d9c" x="219.582813" y="136.049658" style="fill: #ffffff; stroke: #3f3f3f"/>
    </g>
   </g>
   <g id="PathCollection_3">
    <g clip-path="url(#pe3a1aff518)">
     <use xlink:href="#mf0876b3d9c" x="331.182813" y="135.923654" style="fill: #ffffff; stroke: #3f3f3f"/>
    </g>
   </g>
   <g id="PathCollection_4">
    <g clip-path="url(#pe3a1aff518)">
     <use xlink:href="#mf0876b3d9c" x="442.782813" y="136.049658" style="fill: #ffffff; stroke: #3f3f3f"/>
    </g>
   </g>
   <g id="PathCollection_5">
    <g clip-path="url(#pe3a1aff518)">
     <use xlink:href="#mf0876b3d9c" x="554.382812" y="135.82007" style="fill: #ffffff; stroke: #3f3f3f"/>
    </g>
   </g>
  </g>
 </g>
 <defs>
  <clipPath id="pe3a1aff518">
   <rect x="52.182813" y="7.2" width="558" height="163.08"/>
  </clipPath>
 </defs>
</svg>
