<?xml version="1.0" encoding="utf-8" standalone="no"?>
<!DOCTYPE svg PUBLIC "-//W3C//DTD SVG 1.1//EN"
  "http://www.w3.org/Graphics/SVG/1.1/DTD/svg11.dtd">
<svg xmlns:xlink="http://www.w3.org/1999/xlink" width="614.204687pt" height="194.158125pt" viewBox="0 0 614.204687 194.158125" xmlns="http://www.w3.org/2000/svg" version="1.1">
 <metadata>
  <rdf:RDF xmlns:dc="http://purl.org/dc/elements/1.1/" xmlns:cc="http://creativecommons.org/ns#" xmlns:rdf="http://www.w3.org/1999/02/22-rdf-syntax-ns#">
   <cc:Work>
    <dc:type rdf:resource="http://purl.org/dc/dcmitype/StillImage"/>
    <dc:date>2022-07-08T21:38:00.810939</dc:date>
    <dc:format>image/svg+xml</dc:format>
    <dc:creator>
     <cc:Agent>
      <dc:title>Matplotlib v3.5.1, https://matplotlib.org/</dc:title>
     </cc:Agent>
    </dc:creator>
   </cc:Work>
  </rdf:RDF>
 </metadata>
 <defs>
  <style type="text/css">*{stroke-linejoin: round; stroke-linecap: butt}</style>
 </defs>
 <g id="figure_1">
  <g id="patch_1">
   <path d="M 0 194.158125 
L 614.204687 194.158125 
L 614.204687 0 
L 0 0 
L 0 194.158125 
z
" style="fill: none"/>
  </g>
  <g id="axes_1">
   <g id="patch_2">
    <path d="M 49.004687 170.28 
L 607.004688 170.28 
L 607.004688 7.2 
L 49.004687 7.2 
z
" style="fill: #ffffff"/>
   </g>
   <g id="PolyCollection_1">
    <defs>
     <path id="m9ffa220f5b" d="M 104.80473 -31.614621 
L 104.804645 -31.614621 
L 104.804687 -33.108871 
L 104.804688 -34.603122 
L 104.804688 -36.097372 
L 104.804683 -37.591622 
L 104.804683 -39.085872 
L 104.804676 -40.580123 
L 104.804686 -42.074373 
L 104.804378 -43.568623 
L 104.804687 -45.062874 
L 104.804688 -46.557124 
L 104.804687 -48.051374 
L 104.804601 -49.545624 
L 104.804202 -51.039875 
L 104.804686 -52.534125 
L 104.804346 -54.028375 
L 104.804143 -55.522625 
L 104.804158 -57.016876 
L 104.804174 -58.511126 
L 104.80439 -60.005376 
L 104.802939 -61.499627 
L 104.804043 -62.993877 
L 104.80204 -64.488127 
L 104.801237 -65.982377 
L 104.800944 -67.476628 
L 104.799825 -68.970878 
L 104.796578 -70.465128 
L 104.795496 -71.959378 
L 104.791688 -73.453629 
L 104.789373 -74.947879 
L 104.783052 -76.442129 
L 104.770846 -77.936379 
L 104.744768 -79.43063 
L 104.725573 -80.92488 
L 104.675198 -82.41913 
L 104.579576 -83.913381 
L 104.408386 -85.407631 
L 104.098302 -86.901881 
L 103.495726 -88.396131 
L 102.401264 -89.890382 
L 100.303902 -91.384632 
L 96.966765 -92.878882 
L 91.764389 -94.373132 
L 84.703447 -95.867383 
L 76.289385 -97.361633 
L 68.764832 -98.855883 
L 64.869508 -100.350133 
L 66.813552 -101.844384 
L 73.737626 -103.338634 
L 82.284962 -104.832884 
L 90.05375 -106.327135 
L 95.732489 -107.821385 
L 99.631871 -109.315635 
L 102.015466 -110.809885 
L 103.275803 -112.304136 
L 103.96819 -113.798386 
L 104.329711 -115.292636 
L 104.531118 -116.786886 
L 104.640702 -118.281137 
L 104.702379 -119.775387 
L 104.743569 -121.269637 
L 104.764553 -122.763888 
L 104.777244 -124.258138 
L 104.781774 -125.752388 
L 104.789451 -127.246638 
L 104.793927 -128.740889 
L 104.794024 -130.235139 
L 104.800116 -131.729389 
L 104.802995 -133.223639 
L 104.800724 -134.71789 
L 104.80083 -136.21214 
L 104.801637 -137.70639 
L 104.803687 -139.20064 
L 104.804443 -140.694891 
L 104.803752 -142.189141 
L 104.804628 -143.683391 
L 104.803923 -145.177642 
L 104.80395 -146.671892 
L 104.804411 -148.166142 
L 104.804483 -149.660392 
L 104.804575 -151.154643 
L 104.804383 -152.648893 
L 104.804682 -154.143143 
L 104.804688 -155.637393 
L 104.804688 -157.131644 
L 104.804685 -158.625894 
L 104.80442 -160.120144 
L 104.804687 -161.614395 
L 104.804688 -163.108645 
L 104.804688 -164.602895 
L 104.804688 -166.097145 
L 104.804688 -167.591396 
L 104.804688 -169.085646 
L 104.804688 -170.579896 
L 104.804688 -172.074146 
L 104.804688 -173.568397 
L 104.804688 -175.062647 
L 104.804688 -176.556897 
L 104.804687 -178.051147 
L 104.804645 -179.545398 
L 104.80473 -179.545398 
L 104.80473 -179.545398 
L 104.804688 -178.051147 
L 104.804688 -176.556897 
L 104.804688 -175.062647 
L 104.804688 -173.568397 
L 104.804688 -172.074146 
L 104.804688 -170.579896 
L 104.804688 -169.085646 
L 104.804688 -167.591396 
L 104.804688 -166.097145 
L 104.804688 -164.602895 
L 104.804688 -163.108645 
L 104.804688 -161.614395 
L 104.804955 -160.120144 
L 104.80469 -158.625894 
L 104.804688 -157.131644 
L 104.804688 -155.637393 
L 104.804693 -154.143143 
L 104.804992 -152.648893 
L 104.8048 -151.154643 
L 104.804892 -149.660392 
L 104.804964 -148.166142 
L 104.805425 -146.671892 
L 104.805452 -145.177642 
L 104.804747 -143.683391 
L 104.805623 -142.189141 
L 104.804932 -140.694891 
L 104.805688 -139.20064 
L 104.807738 -137.70639 
L 104.808545 -136.21214 
L 104.808651 -134.71789 
L 104.80638 -133.223639 
L 104.809259 -131.729389 
L 104.815351 -130.235139 
L 104.815448 -128.740889 
L 104.819924 -127.246638 
L 104.827601 -125.752388 
L 104.832131 -124.258138 
L 104.844822 -122.763888 
L 104.865806 -121.269637 
L 104.906996 -119.775387 
L 104.968673 -118.281137 
L 105.078257 -116.786886 
L 105.279664 -115.292636 
L 105.641185 -113.798386 
L 106.333572 -112.304136 
L 107.593909 -110.809885 
L 109.977504 -109.315635 
L 113.876886 -107.821385 
L 119.555625 -106.327135 
L 127.324413 -104.832884 
L 135.871749 -103.338634 
L 142.795823 -101.844384 
L 144.739867 -100.350133 
L 140.844543 -98.855883 
L 133.31999 -97.361633 
L 124.905928 -95.867383 
L 117.844986 -94.373132 
L 112.64261 -92.878882 
L 109.305473 -91.384632 
L 107.208111 -89.890382 
L 106.113649 -88.396131 
L 105.511073 -86.901881 
L 105.200989 -85.407631 
L 105.029799 -83.913381 
L 104.934177 -82.41913 
L 104.883802 -80.92488 
L 104.864607 -79.43063 
L 104.838529 -77.936379 
L 104.826323 -76.442129 
L 104.820002 -74.947879 
L 104.817687 -73.453629 
L 104.813879 -71.959378 
L 104.812797 -70.465128 
L 104.80955 -68.970878 
L 104.808431 -67.476628 
L 104.808138 -65.982377 
L 104.807335 -64.488127 
L 104.805332 -62.993877 
L 104.806436 -61.499627 
L 104.804985 -60.005376 
L 104.805201 -58.511126 
L 104.805217 -57.016876 
L 104.805232 -55.522625 
L 104.805029 -54.028375 
L 104.804689 -52.534125 
L 104.805173 -51.039875 
L 104.804774 -49.545624 
L 104.804688 -48.051374 
L 104.804688 -46.557124 
L 104.804688 -45.062874 
L 104.804997 -43.568623 
L 104.804689 -42.074373 
L 104.804699 -40.580123 
L 104.804692 -39.085872 
L 104.804692 -37.591622 
L 104.804688 -36.097372 
L 104.804688 -34.603122 
L 104.804688 -33.108871 
L 104.80473 -31.614621 
z
" style="stroke: #3f3f3f; stroke-width: 1.5"/>
    </defs>
    <g clip-path="url(#pb4f9aba913)">
     <use xlink:href="#m9ffa220f5b" x="0" y="194.158125" style="fill: #3274a1; stroke: #3f3f3f; stroke-width: 1.5"/>
    </g>
   </g>
   <g id="PolyCollection_2">
    <defs>
     <path id="mc1a4a74a29" d="M 216.404762 -44.782267 
L 216.404613 -44.782267 
L 216.404578 -45.886491 
L 216.404687 -46.990715 
L 216.404688 -48.094939 
L 216.404687 -49.199163 
L 216.404147 -50.303388 
L 216.404685 -51.407612 
L 216.404046 -52.511836 
L 216.404187 -53.61606 
L 216.404306 -54.720284 
L 216.403573 -55.824508 
L 216.403042 -56.928733 
L 216.404075 -58.032957 
L 216.403491 -59.137181 
L 216.404529 -60.241405 
L 216.402015 -61.345629 
L 216.403262 -62.449853 
L 216.401873 -63.554078 
L 216.402744 -64.658302 
L 216.401826 -65.762526 
L 216.40096 -66.86675 
L 216.400187 -67.970974 
L 216.398684 -69.075198 
L 216.39579 -70.179423 
L 216.392987 -71.283647 
L 216.392701 -72.387871 
L 216.391032 -73.492095 
L 216.38405 -74.596319 
L 216.384822 -75.700543 
L 216.372633 -76.804768 
L 216.366592 -77.908992 
L 216.353767 -79.013216 
L 216.337803 -80.11744 
L 216.298751 -81.221664 
L 216.27131 -82.325888 
L 216.198869 -83.430112 
L 216.117493 -84.534337 
L 215.947221 -85.638561 
L 215.720942 -86.742785 
L 215.341542 -87.847009 
L 214.759408 -88.951233 
L 213.886337 -90.055457 
L 212.436508 -91.159682 
L 210.323924 -92.263906 
L 207.199088 -93.36813 
L 203.128528 -94.472354 
L 197.958984 -95.576578 
L 191.995939 -96.680802 
L 185.545427 -97.785027 
L 180.025987 -98.889251 
L 176.897316 -99.993475 
L 176.821841 -101.097699 
L 179.596633 -102.201923 
L 184.658102 -103.306147 
L 190.819293 -104.410372 
L 197.090523 -105.514596 
L 202.629851 -106.61882 
L 207.042467 -107.723044 
L 210.288097 -108.827268 
L 212.6485 -109.931492 
L 213.992643 -111.035717 
L 214.905761 -112.139941 
L 215.504881 -113.244165 
L 215.814217 -114.348389 
L 216.052637 -115.452613 
L 216.164098 -116.556837 
L 216.230106 -117.661062 
L 216.292241 -118.765286 
L 216.333735 -119.86951 
L 216.351709 -120.973734 
L 216.368452 -122.077958 
L 216.374343 -123.182182 
L 216.384857 -124.286406 
L 216.382523 -125.390631 
L 216.392549 -126.494855 
L 216.395101 -127.599079 
L 216.394508 -128.703303 
L 216.395863 -129.807527 
L 216.399293 -130.911751 
L 216.402933 -132.015976 
L 216.401312 -133.1202 
L 216.403063 -134.224424 
L 216.402837 -135.328648 
L 216.403193 -136.432872 
L 216.401805 -137.537096 
L 216.403571 -138.641321 
L 216.403032 -139.745545 
L 216.40447 -140.849769 
L 216.40445 -141.953993 
L 216.404049 -143.058217 
L 216.404063 -144.162441 
L 216.404136 -145.266666 
L 216.404071 -146.37089 
L 216.404098 -147.475114 
L 216.404687 -148.579338 
L 216.404687 -149.683562 
L 216.40466 -150.787786 
L 216.404466 -151.892011 
L 216.404366 -152.996235 
L 216.404583 -154.100459 
L 216.404792 -154.100459 
L 216.404792 -154.100459 
L 216.405009 -152.996235 
L 216.404909 -151.892011 
L 216.404715 -150.787786 
L 216.404688 -149.683562 
L 216.404688 -148.579338 
L 216.405277 -147.475114 
L 216.405304 -146.37089 
L 216.405239 -145.266666 
L 216.405312 -144.162441 
L 216.405326 -143.058217 
L 216.404925 -141.953993 
L 216.404905 -140.849769 
L 216.406343 -139.745545 
L 216.405804 -138.641321 
L 216.40757 -137.537096 
L 216.406182 -136.432872 
L 216.406538 -135.328648 
L 216.406312 -134.224424 
L 216.408063 -133.1202 
L 216.406442 -132.015976 
L 216.410082 -130.911751 
L 216.413512 -129.807527 
L 216.414867 -128.703303 
L 216.414274 -127.599079 
L 216.416826 -126.494855 
L 216.426852 -125.390631 
L 216.424518 -124.286406 
L 216.435032 -123.182182 
L 216.440923 -122.077958 
L 216.457666 -120.973734 
L 216.47564 -119.86951 
L 216.517134 -118.765286 
L 216.579269 -117.661062 
L 216.645277 -116.556837 
L 216.756738 -115.452613 
L 216.995158 -114.348389 
L 217.304494 -113.244165 
L 217.903614 -112.139941 
L 218.816732 -111.035717 
L 220.160875 -109.931492 
L 222.521278 -108.827268 
L 225.766908 -107.723044 
L 230.179524 -106.61882 
L 235.718852 -105.514596 
L 241.990082 -104.410372 
L 248.151273 -103.306147 
L 253.212742 -102.201923 
L 255.987534 -101.097699 
L 255.912059 -99.993475 
L 252.783388 -98.889251 
L 247.263948 -97.785027 
L 240.813436 -96.680802 
L 234.850391 -95.576578 
L 229.680847 -94.472354 
L 225.610287 -93.36813 
L 222.485451 -92.263906 
L 220.372867 -91.159682 
L 218.923038 -90.055457 
L 218.049967 -88.951233 
L 217.467833 -87.847009 
L 217.088433 -86.742785 
L 216.862154 -85.638561 
L 216.691882 -84.534337 
L 216.610506 -83.430112 
L 216.538065 -82.325888 
L 216.510624 -81.221664 
L 216.471572 -80.11744 
L 216.455608 -79.013216 
L 216.442783 -77.908992 
L 216.436742 -76.804768 
L 216.424553 -75.700543 
L 216.425325 -74.596319 
L 216.418343 -73.492095 
L 216.416674 -72.387871 
L 216.416388 -71.283647 
L 216.413585 -70.179423 
L 216.410691 -69.075198 
L 216.409188 -67.970974 
L 216.408415 -66.86675 
L 216.407549 -65.762526 
L 216.406631 -64.658302 
L 216.407502 -63.554078 
L 216.406113 -62.449853 
L 216.40736 -61.345629 
L 216.404846 -60.241405 
L 216.405884 -59.137181 
L 216.4053 -58.032957 
L 216.406333 -56.928733 
L 216.405802 -55.824508 
L 216.405069 -54.720284 
L 216.405188 -53.61606 
L 216.405329 -52.511836 
L 216.40469 -51.407612 
L 216.405228 -50.303388 
L 216.404688 -49.199163 
L 216.404688 -48.094939 
L 216.404688 -46.990715 
L 216.404797 -45.886491 
L 216.404762 -44.782267 
z
" style="stroke: #3f3f3f; stroke-width: 1.5"/>
    </defs>
    <g clip-path="url(#pb4f9aba913)">
     <use xlink:href="#mc1a4a74a29" x="0" y="194.158125" style="fill: #3274a1; stroke: #3f3f3f; stroke-width: 1.5"/>
    </g>
   </g>
   <g id="PolyCollection_3">
    <defs>
     <path id="m19f9a79510" d="M 328.004762 -31.290852 
L 328.004613 -31.290852 
L 328.00467 -32.640098 
L 328.004688 -33.989343 
L 328.004688 -35.338588 
L 328.004688 -36.687833 
L 328.004688 -38.037079 
L 328.004688 -39.386324 
L 328.004687 -40.735569 
L 328.0043 -42.084815 
L 328.004687 -43.43406 
L 328.004687 -44.783305 
L 328.004154 -46.132551 
L 328.004561 -47.481796 
L 328.004687 -48.831041 
L 328.004688 -50.180286 
L 328.004687 -51.529532 
L 328.004413 -52.878777 
L 328.004677 -54.228022 
L 328.004012 -55.577268 
L 328.004558 -56.926513 
L 328.003798 -58.275758 
L 328.002811 -59.625004 
L 328.003471 -60.974249 
L 328.004584 -62.323494 
L 328.003451 -63.67274 
L 328.001498 -65.021985 
L 328.001985 -66.37123 
L 327.999542 -67.720475 
L 327.999803 -69.069721 
L 327.998267 -70.418966 
L 327.996941 -71.768211 
L 327.990153 -73.117457 
L 327.990634 -74.466702 
L 327.984878 -75.815947 
L 327.973505 -77.165193 
L 327.966412 -78.514438 
L 327.9493 -79.863683 
L 327.91067 -81.212928 
L 327.8714 -82.562174 
L 327.801561 -83.911419 
L 327.645912 -85.260664 
L 327.432827 -86.60991 
L 326.99295 -87.959155 
L 326.261482 -89.3084 
L 324.816836 -90.657646 
L 322.592248 -92.006891 
L 318.717549 -93.356136 
L 313.212624 -94.705381 
L 306.701567 -96.054627 
L 298.673185 -97.403872 
L 291.614175 -98.753117 
L 288.336796 -100.102363 
L 289.065286 -101.451608 
L 294.158499 -102.800853 
L 301.631956 -104.150099 
L 309.182039 -105.499344 
L 315.565738 -106.848589 
L 320.226884 -108.197834 
L 323.324296 -109.54708 
L 325.289653 -110.896325 
L 326.483886 -112.24557 
L 327.139544 -113.594816 
L 327.522724 -114.944061 
L 327.704381 -116.293306 
L 327.808581 -117.642552 
L 327.881473 -118.991797 
L 327.930242 -120.341042 
L 327.946138 -121.690287 
L 327.966814 -123.039533 
L 327.971037 -124.388778 
L 327.987268 -125.738023 
L 327.991255 -127.087269 
L 327.991028 -128.436514 
L 327.992687 -129.785759 
L 327.997973 -131.135005 
L 327.994868 -132.48425 
L 327.998972 -133.833495 
L 328.000315 -135.182741 
L 328.002362 -136.531986 
L 328.003035 -137.881231 
L 328.002228 -139.230476 
L 328.003281 -140.579722 
L 328.00403 -141.928967 
L 328.002537 -143.278212 
L 328.00391 -144.627458 
L 328.004687 -145.976703 
L 328.00435 -147.325948 
L 328.004197 -148.675194 
L 328.004687 -150.024439 
L 328.004688 -151.373684 
L 328.004687 -152.722929 
L 328.004343 -154.072175 
L 328.004687 -155.42142 
L 328.004688 -156.770665 
L 328.004687 -158.119911 
L 328.00414 -159.469156 
L 328.004687 -160.818401 
L 328.004181 -162.167647 
L 328.00467 -163.516892 
L 328.004613 -164.866137 
L 328.004762 -164.866137 
L 328.004762 -164.866137 
L 328.004705 -163.516892 
L 328.005194 -162.167647 
L 328.004688 -160.818401 
L 328.005235 -159.469156 
L 328.004688 -158.119911 
L 328.004688 -156.770665 
L 328.004688 -155.42142 
L 328.005032 -154.072175 
L 328.004688 -152.722929 
L 328.004688 -151.373684 
L 328.004688 -150.024439 
L 328.005178 -148.675194 
L 328.005025 -147.325948 
L 328.004688 -145.976703 
L 328.005465 -144.627458 
L 328.006838 -143.278212 
L 328.005345 -141.928967 
L 328.006094 -140.579722 
L 328.007147 -139.230476 
L 328.00634 -137.881231 
L 328.007013 -136.531986 
L 328.00906 -135.182741 
L 328.010403 -133.833495 
L 328.014507 -132.48425 
L 328.011402 -131.135005 
L 328.016688 -129.785759 
L 328.018347 -128.436514 
L 328.01812 -127.087269 
L 328.022107 -125.738023 
L 328.038338 -124.388778 
L 328.042561 -123.039533 
L 328.063237 -121.690287 
L 328.079133 -120.341042 
L 328.127902 -118.991797 
L 328.200794 -117.642552 
L 328.304994 -116.293306 
L 328.486651 -114.944061 
L 328.869831 -113.594816 
L 329.525489 -112.24557 
L 330.719722 -110.896325 
L 332.685079 -109.54708 
L 335.782491 -108.197834 
L 340.443637 -106.848589 
L 346.827336 -105.499344 
L 354.377419 -104.150099 
L 361.850876 -102.800853 
L 366.944089 -101.451608 
L 367.672579 -100.102363 
L 364.3952 -98.753117 
L 357.33619 -97.403872 
L 349.307808 -96.054627 
L 342.796751 -94.705381 
L 337.291826 -93.356136 
L 333.417127 -92.006891 
L 331.192539 -90.657646 
L 329.747893 -89.3084 
L 329.016425 -87.959155 
L 328.576548 -86.60991 
L 328.363463 -85.260664 
L 328.207814 -83.911419 
L 328.137975 -82.562174 
L 328.098705 -81.212928 
L 328.060075 -79.863683 
L 328.042963 -78.514438 
L 328.03587 -77.165193 
L 328.024497 -75.815947 
L 328.018741 -74.466702 
L 328.019222 -73.117457 
L 328.012434 -71.768211 
L 328.011108 -70.418966 
L 328.009572 -69.069721 
L 328.009833 -67.720475 
L 328.00739 -66.37123 
L 328.007877 -65.021985 
L 328.005924 -63.67274 
L 328.004791 -62.323494 
L 328.005904 -60.974249 
L 328.006564 -59.625004 
L 328.005577 -58.275758 
L 328.004817 -56.926513 
L 328.005363 -55.577268 
L 328.004698 -54.228022 
L 328.004962 -52.878777 
L 328.004688 -51.529532 
L 328.004688 -50.180286 
L 328.004688 -48.831041 
L 328.004814 -47.481796 
L 328.005221 -46.132551 
L 328.004688 -44.783305 
L 328.004688 -43.43406 
L 328.005075 -42.084815 
L 328.004688 -40.735569 
L 328.004688 -39.386324 
L 328.004688 -38.037079 
L 328.004688 -36.687833 
L 328.004688 -35.338588 
L 328.004688 -33.989343 
L 328.004705 -32.640098 
L 328.004762 -31.290852 
z
" style="stroke: #3f3f3f; stroke-width: 1.5"/>
    </defs>
    <g clip-path="url(#pb4f9aba913)">
     <use xlink:href="#m19f9a79510" x="0" y="194.158125" style="fill: #3274a1; stroke: #3f3f3f; stroke-width: 1.5"/>
    </g>
   </g>
   <g id="PolyCollection_4">
    <defs>
     <path id="md7d9d8cfaf" d="M 439.604822 -39.544428 
L 439.604553 -39.544428 
L 439.604471 -40.751865 
L 439.604687 -41.959301 
L 439.604688 -43.166737 
L 439.604688 -44.374173 
L 439.604688 -45.581609 
L 439.604687 -46.789045 
L 439.604547 -47.996481 
L 439.603893 -49.203918 
L 439.604687 -50.411354 
L 439.604686 -51.61879 
L 439.603696 -52.826226 
L 439.604687 -54.033662 
L 439.604174 -55.241098 
L 439.604653 -56.448535 
L 439.604244 -57.655971 
L 439.60464 -58.863407 
L 439.603377 -60.070843 
L 439.604137 -61.278279 
L 439.599529 -62.485715 
L 439.601828 -63.693152 
L 439.603663 -64.900588 
L 439.60129 -66.108024 
L 439.600043 -67.31546 
L 439.601982 -68.522896 
L 439.601375 -69.730332 
L 439.599445 -70.937769 
L 439.594186 -72.145205 
L 439.590256 -73.352641 
L 439.591472 -74.560077 
L 439.585218 -75.767513 
L 439.580078 -76.974949 
L 439.565134 -78.182385 
L 439.561103 -79.389822 
L 439.528918 -80.597258 
L 439.515103 -81.804694 
L 439.45307 -83.01213 
L 439.39659 -84.219566 
L 439.258015 -85.427002 
L 439.015233 -86.634439 
L 438.686188 -87.841875 
L 438.126954 -89.049311 
L 437.213238 -90.256747 
L 435.59501 -91.464183 
L 433.135492 -92.671619 
L 429.27463 -93.879056 
L 424.218307 -95.086492 
L 417.200921 -96.293928 
L 409.859038 -97.501364 
L 402.72224 -98.7088 
L 398.27943 -99.916236 
L 398.50956 -101.123673 
L 402.193753 -102.331109 
L 408.964515 -103.538545 
L 416.10143 -104.745981 
L 423.408254 -105.953417 
L 428.978754 -107.160853 
L 432.789302 -108.368289 
L 435.525684 -109.575726 
L 437.165665 -110.783162 
L 438.200492 -111.990598 
L 438.815362 -113.198034 
L 439.118889 -114.40547 
L 439.302883 -115.612906 
L 439.404688 -116.820343 
L 439.470652 -118.027779 
L 439.523954 -119.235215 
L 439.526924 -120.442651 
L 439.576096 -121.650087 
L 439.569185 -122.857523 
L 439.580404 -124.06496 
L 439.581464 -125.272396 
L 439.59503 -126.479832 
L 439.593121 -127.687268 
L 439.599822 -128.894704 
L 439.594329 -130.10214 
L 439.598415 -131.309576 
L 439.600377 -132.517013 
L 439.60164 -133.724449 
L 439.60173 -134.931885 
L 439.602865 -136.139321 
L 439.601383 -137.346757 
L 439.603639 -138.554193 
L 439.603884 -139.76163 
L 439.604678 -140.969066 
L 439.603214 -142.176502 
L 439.604534 -143.383938 
L 439.604436 -144.591374 
L 439.604687 -145.79881 
L 439.604688 -147.006247 
L 439.604688 -148.213683 
L 439.604688 -149.421119 
L 439.604688 -150.628555 
L 439.604688 -151.835991 
L 439.604688 -153.043427 
L 439.604688 -154.250864 
L 439.604688 -155.4583 
L 439.604687 -156.665736 
L 439.604471 -157.873172 
L 439.604553 -159.080608 
L 439.604822 -159.080608 
L 439.604822 -159.080608 
L 439.604904 -157.873172 
L 439.604688 -156.665736 
L 439.604688 -155.4583 
L 439.604688 -154.250864 
L 439.604688 -153.043427 
L 439.604688 -151.835991 
L 439.604688 -150.628555 
L 439.604688 -149.421119 
L 439.604688 -148.213683 
L 439.604688 -147.006247 
L 439.604688 -145.79881 
L 439.604939 -144.591374 
L 439.604841 -143.383938 
L 439.606161 -142.176502 
L 439.604697 -140.969066 
L 439.605491 -139.76163 
L 439.605736 -138.554193 
L 439.607992 -137.346757 
L 439.60651 -136.139321 
L 439.607645 -134.931885 
L 439.607735 -133.724449 
L 439.608998 -132.517013 
L 439.61096 -131.309576 
L 439.615046 -130.10214 
L 439.609553 -128.894704 
L 439.616254 -127.687268 
L 439.614345 -126.479832 
L 439.627911 -125.272396 
L 439.628971 -124.06496 
L 439.64019 -122.857523 
L 439.633279 -121.650087 
L 439.682451 -120.442651 
L 439.685421 -119.235215 
L 439.738723 -118.027779 
L 439.804687 -116.820343 
L 439.906492 -115.612906 
L 440.090486 -114.40547 
L 440.394013 -113.198034 
L 441.008883 -111.990598 
L 442.04371 -110.783162 
L 443.683691 -109.575726 
L 446.420073 -108.368289 
L 450.230621 -107.160853 
L 455.801121 -105.953417 
L 463.107945 -104.745981 
L 470.24486 -103.538545 
L 477.015622 -102.331109 
L 480.699815 -101.123673 
L 480.929945 -99.916236 
L 476.487135 -98.7088 
L 469.350337 -97.501364 
L 462.008454 -96.293928 
L 454.991068 -95.086492 
L 449.934745 -93.879056 
L 446.073883 -92.671619 
L 443.614365 -91.464183 
L 441.996137 -90.256747 
L 441.082421 -89.049311 
L 440.523187 -87.841875 
L 440.194142 -86.634439 
L 439.95136 -85.427002 
L 439.812785 -84.219566 
L 439.756305 -83.01213 
L 439.694272 -81.804694 
L 439.680457 -80.597258 
L 439.648272 -79.389822 
L 439.644241 -78.182385 
L 439.629297 -76.974949 
L 439.624157 -75.767513 
L 439.617903 -74.560077 
L 439.619119 -73.352641 
L 439.615189 -72.145205 
L 439.60993 -70.937769 
L 439.608 -69.730332 
L 439.607393 -68.522896 
L 439.609332 -67.31546 
L 439.608085 -66.108024 
L 439.605712 -64.900588 
L 439.607547 -63.693152 
L 439.609846 -62.485715 
L 439.605238 -61.278279 
L 439.605998 -60.070843 
L 439.604735 -58.863407 
L 439.605131 -57.655971 
L 439.604722 -56.448535 
L 439.605201 -55.241098 
L 439.604688 -54.033662 
L 439.605679 -52.826226 
L 439.604689 -51.61879 
L 439.604688 -50.411354 
L 439.605482 -49.203918 
L 439.604828 -47.996481 
L 439.604688 -46.789045 
L 439.604688 -45.581609 
L 439.604688 -44.374173 
L 439.604688 -43.166737 
L 439.604688 -41.959301 
L 439.604904 -40.751865 
L 439.604822 -39.544428 
z
" style="stroke: #3f3f3f; stroke-width: 1.5"/>
    </defs>
    <g clip-path="url(#pb4f9aba913)">
     <use xlink:href="#md7d9d8cfaf" x="0" y="194.158125" style="fill: #3274a1; stroke: #3f3f3f; stroke-width: 1.5"/>
    </g>
   </g>
   <g id="PolyCollection_5">
    <defs>
     <path id="m43b9361de0" d="M 551.205728 -41.274781 
L 551.203647 -41.274781 
L 551.197095 -42.258301 
L 551.202817 -43.241821 
L 551.204672 -44.225341 
L 551.204687 -45.20886 
L 551.204687 -46.19238 
L 551.204687 -47.1759 
L 551.204485 -48.15942 
L 551.198475 -49.14294 
L 551.191623 -50.126459 
L 551.195065 -51.109979 
L 551.202139 -52.093499 
L 551.197507 -53.077019 
L 551.192504 -54.060539 
L 551.203325 -55.044059 
L 551.203592 -56.027578 
L 551.194311 -57.011098 
L 551.195691 -57.994618 
L 551.198489 -58.978138 
L 551.190708 -59.961658 
L 551.203368 -60.945177 
L 551.204682 -61.928697 
L 551.20421 -62.912217 
L 551.19796 -63.895737 
L 551.201485 -64.879257 
L 551.204493 -65.862776 
L 551.198864 -66.846296 
L 551.191528 -67.829816 
L 551.195406 -68.813336 
L 551.186721 -69.796856 
L 551.19753 -70.780375 
L 551.184532 -71.763895 
L 551.165693 -72.747415 
L 551.184664 -73.730935 
L 551.175785 -74.714455 
L 551.181284 -75.697974 
L 551.149153 -76.681494 
L 551.154431 -77.665014 
L 551.135484 -78.648534 
L 551.115036 -79.632054 
L 551.08302 -80.615573 
L 551.092809 -81.599093 
L 551.056531 -82.582613 
L 550.975512 -83.566133 
L 550.853975 -84.549653 
L 550.667073 -85.533172 
L 550.53854 -86.516692 
L 550.381222 -87.500212 
L 550.162141 -88.483732 
L 549.605493 -89.467252 
L 548.759036 -90.450771 
L 547.680237 -91.434291 
L 546.051489 -92.417811 
L 543.735925 -93.401331 
L 540.742789 -94.384851 
L 535.530039 -95.36837 
L 529.036713 -96.35189 
L 522.791046 -97.33541 
L 516.900456 -98.31893 
L 511.313495 -99.30245 
L 506.620461 -100.285969 
L 506.564688 -101.269489 
L 510.672555 -102.253009 
L 516.859176 -103.236529 
L 524.659823 -104.220049 
L 531.195406 -105.203568 
L 537.115577 -106.187088 
L 541.656451 -107.170608 
L 545.097726 -108.154128 
L 547.24645 -109.137648 
L 548.492272 -110.121168 
L 549.344065 -111.104687 
L 549.991635 -112.088207 
L 550.467325 -113.071727 
L 550.641898 -114.055247 
L 550.779026 -115.038767 
L 550.905008 -116.022286 
L 550.982996 -117.005806 
L 551.05999 -117.989326 
L 551.084399 -118.972846 
L 551.040238 -119.956366 
L 551.122432 -120.939885 
L 551.166882 -121.923405 
L 551.150283 -122.906925 
L 551.146225 -123.890445 
L 551.178515 -124.873965 
L 551.192159 -125.857484 
L 551.164711 -126.841004 
L 551.183738 -127.824524 
L 551.193731 -128.808044 
L 551.19733 -129.791564 
L 551.198773 -130.775083 
L 551.197274 -131.758603 
L 551.203912 -132.742123 
L 551.204314 -133.725643 
L 551.198348 -134.709163 
L 551.201015 -135.692682 
L 551.202746 -136.676202 
L 551.197094 -137.659722 
L 551.203647 -138.643242 
L 551.205728 -138.643242 
L 551.205728 -138.643242 
L 551.212281 -137.659722 
L 551.206629 -136.676202 
L 551.20836 -135.692682 
L 551.211027 -134.709163 
L 551.205061 -133.725643 
L 551.205463 -132.742123 
L 551.212101 -131.758603 
L 551.210602 -130.775083 
L 551.212045 -129.791564 
L 551.215644 -128.808044 
L 551.225637 -127.824524 
L 551.244664 -126.841004 
L 551.217216 -125.857484 
L 551.23086 -124.873965 
L 551.26315 -123.890445 
L 551.259092 -122.906925 
L 551.242493 -121.923405 
L 551.286943 -120.939885 
L 551.369137 -119.956366 
L 551.324976 -118.972846 
L 551.349385 -117.989326 
L 551.426379 -117.005806 
L 551.504367 -116.022286 
L 551.630349 -115.038767 
L 551.767477 -114.055247 
L 551.94205 -113.071727 
L 552.41774 -112.088207 
L 553.06531 -111.104687 
L 553.917103 -110.121168 
L 555.162925 -109.137648 
L 557.311649 -108.154128 
L 560.752924 -107.170608 
L 565.293798 -106.187088 
L 571.213969 -105.203568 
L 577.749552 -104.220049 
L 585.550199 -103.236529 
L 591.73682 -102.253009 
L 595.844688 -101.269489 
L 595.788914 -100.285969 
L 591.09588 -99.30245 
L 585.508919 -98.31893 
L 579.618329 -97.33541 
L 573.372662 -96.35189 
L 566.879336 -95.36837 
L 561.666586 -94.384851 
L 558.67345 -93.401331 
L 556.357886 -92.417811 
L 554.729138 -91.434291 
L 553.650339 -90.450771 
L 552.803882 -89.467252 
L 552.247234 -88.483732 
L 552.028153 -87.500212 
L 551.870835 -86.516692 
L 551.742302 -85.533172 
L 551.5554 -84.549653 
L 551.433863 -83.566133 
L 551.352844 -82.582613 
L 551.316566 -81.599093 
L 551.326355 -80.615573 
L 551.294339 -79.632054 
L 551.273891 -78.648534 
L 551.254944 -77.665014 
L 551.260222 -76.681494 
L 551.228091 -75.697974 
L 551.23359 -74.714455 
L 551.224711 -73.730935 
L 551.243682 -72.747415 
L 551.224843 -71.763895 
L 551.211845 -70.780375 
L 551.222654 -69.796856 
L 551.213969 -68.813336 
L 551.217847 -67.829816 
L 551.210511 -66.846296 
L 551.204882 -65.862776 
L 551.20789 -64.879257 
L 551.211415 -63.895737 
L 551.205165 -62.912217 
L 551.204693 -61.928697 
L 551.206007 -60.945177 
L 551.218667 -59.961658 
L 551.210886 -58.978138 
L 551.213684 -57.994618 
L 551.215064 -57.011098 
L 551.205783 -56.027578 
L 551.20605 -55.044059 
L 551.216871 -54.060539 
L 551.211868 -53.077019 
L 551.207236 -52.093499 
L 551.21431 -51.109979 
L 551.217752 -50.126459 
L 551.2109 -49.14294 
L 551.20489 -48.15942 
L 551.204688 -47.1759 
L 551.204688 -46.19238 
L 551.204688 -45.20886 
L 551.204703 -44.225341 
L 551.206558 -43.241821 
L 551.21228 -42.258301 
L 551.205728 -41.274781 
z
" style="stroke: #3f3f3f; stroke-width: 1.5"/>
    </defs>
    <g clip-path="url(#pb4f9aba913)">
     <use xlink:href="#m43b9361de0" x="0" y="194.158125" style="fill: #3274a1; stroke: #3f3f3f; stroke-width: 1.5"/>
    </g>
   </g>
   <g id="matplotlib.axis_1">
    <g id="xtick_1">
     <g id="line2d_1">
      <defs>
       <path id="m614a962642" d="M 0 0 
L 0 3.5 
" style="stroke: #000000; stroke-width: 0.8"/>
      </defs>
      <g>
       <use xlink:href="#m614a962642" x="104.804688" y="170.28" style="stroke: #000000; stroke-width: 0.8"/>
      </g>
     </g>
     <g id="text_1">
      <!-- (1, id) -->
      <g transform="translate(89.980469 184.878438)scale(0.1 -0.1)">
       <defs>
        <path id="DejaVuSans-28" d="M 1984 4856 
Q 1566 4138 1362 3434 
Q 1159 2731 1159 2009 
Q 1159 1288 1364 580 
Q 1569 -128 1984 -844 
L 1484 -844 
Q 1016 -109 783 600 
Q 550 1309 550 2009 
Q 550 2706 781 3412 
Q 1013 4119 1484 4856 
L 1984 4856 
z
" transform="scale(0.015625)"/>
        <path id="DejaVuSans-31" d="M 794 531 
L 1825 531 
L 1825 4091 
L 703 3866 
L 703 4441 
L 1819 4666 
L 2450 4666 
L 2450 531 
L 3481 531 
L 3481 0 
L 794 0 
L 794 531 
z
" transform="scale(0.015625)"/>
        <path id="DejaVuSans-2c" d="M 750 794 
L 1409 794 
L 1409 256 
L 897 -744 
L 494 -744 
L 750 256 
L 750 794 
z
" transform="scale(0.015625)"/>
        <path id="DejaVuSans-20" transform="scale(0.015625)"/>
        <path id="DejaVuSans-69" d="M 603 3500 
L 1178 3500 
L 1178 0 
L 603 0 
L 603 3500 
z
M 603 4863 
L 1178 4863 
L 1178 4134 
L 603 4134 
L 603 4863 
z
" transform="scale(0.015625)"/>
        <path id="DejaVuSans-64" d="M 2906 2969 
L 2906 4863 
L 3481 4863 
L 3481 0 
L 2906 0 
L 2906 525 
Q 2725 213 2448 61 
Q 2172 -91 1784 -91 
Q 1150 -91 751 415 
Q 353 922 353 1747 
Q 353 2572 751 3078 
Q 1150 3584 1784 3584 
Q 2172 3584 2448 3432 
Q 2725 3281 2906 2969 
z
M 947 1747 
Q 947 1113 1208 752 
Q 1469 391 1925 391 
Q 2381 391 2643 752 
Q 2906 1113 2906 1747 
Q 2906 2381 2643 2742 
Q 2381 3103 1925 3103 
Q 1469 3103 1208 2742 
Q 947 2381 947 1747 
z
" transform="scale(0.015625)"/>
        <path id="DejaVuSans-29" d="M 513 4856 
L 1013 4856 
Q 1481 4119 1714 3412 
Q 1947 2706 1947 2009 
Q 1947 1309 1714 600 
Q 1481 -109 1013 -844 
L 513 -844 
Q 928 -128 1133 580 
Q 1338 1288 1338 2009 
Q 1338 2731 1133 3434 
Q 928 4138 513 4856 
z
" transform="scale(0.015625)"/>
       </defs>
       <use xlink:href="#DejaVuSans-28"/>
       <use xlink:href="#DejaVuSans-31" x="39.013672"/>
       <use xlink:href="#DejaVuSans-2c" x="102.636719"/>
       <use xlink:href="#DejaVuSans-20" x="134.423828"/>
       <use xlink:href="#DejaVuSans-69" x="166.210938"/>
       <use xlink:href="#DejaVuSans-64" x="193.994141"/>
       <use xlink:href="#DejaVuSans-29" x="257.470703"/>
      </g>
     </g>
    </g>
    <g id="xtick_2">
     <g id="line2d_2">
      <g>
       <use xlink:href="#m614a962642" x="216.404688" y="170.28" style="stroke: #000000; stroke-width: 0.8"/>
      </g>
     </g>
     <g id="text_2">
      <!-- (2, id) -->
      <g transform="translate(201.580469 184.878438)scale(0.1 -0.1)">
       <defs>
        <path id="DejaVuSans-32" d="M 1228 531 
L 3431 531 
L 3431 0 
L 469 0 
L 469 531 
Q 828 903 1448 1529 
Q 2069 2156 2228 2338 
Q 2531 2678 2651 2914 
Q 2772 3150 2772 3378 
Q 2772 3750 2511 3984 
Q 2250 4219 1831 4219 
Q 1534 4219 1204 4116 
Q 875 4013 500 3803 
L 500 4441 
Q 881 4594 1212 4672 
Q 1544 4750 1819 4750 
Q 2544 4750 2975 4387 
Q 3406 4025 3406 3419 
Q 3406 3131 3298 2873 
Q 3191 2616 2906 2266 
Q 2828 2175 2409 1742 
Q 1991 1309 1228 531 
z
" transform="scale(0.015625)"/>
       </defs>
       <use xlink:href="#DejaVuSans-28"/>
       <use xlink:href="#DejaVuSans-32" x="39.013672"/>
       <use xlink:href="#DejaVuSans-2c" x="102.636719"/>
       <use xlink:href="#DejaVuSans-20" x="134.423828"/>
       <use xlink:href="#DejaVuSans-69" x="166.210938"/>
       <use xlink:href="#DejaVuSans-64" x="193.994141"/>
       <use xlink:href="#DejaVuSans-29" x="257.470703"/>
      </g>
     </g>
    </g>
    <g id="xtick_3">
     <g id="line2d_3">
      <g>
       <use xlink:href="#m614a962642" x="328.004688" y="170.28" style="stroke: #000000; stroke-width: 0.8"/>
      </g>
     </g>
     <g id="text_3">
      <!-- (3, id) -->
      <g transform="translate(313.180469 184.878438)scale(0.1 -0.1)">
       <defs>
        <path id="DejaVuSans-33" d="M 2597 2516 
Q 3050 2419 3304 2112 
Q 3559 1806 3559 1356 
Q 3559 666 3084 287 
Q 2609 -91 1734 -91 
Q 1441 -91 1130 -33 
Q 819 25 488 141 
L 488 750 
Q 750 597 1062 519 
Q 1375 441 1716 441 
Q 2309 441 2620 675 
Q 2931 909 2931 1356 
Q 2931 1769 2642 2001 
Q 2353 2234 1838 2234 
L 1294 2234 
L 1294 2753 
L 1863 2753 
Q 2328 2753 2575 2939 
Q 2822 3125 2822 3475 
Q 2822 3834 2567 4026 
Q 2313 4219 1838 4219 
Q 1578 4219 1281 4162 
Q 984 4106 628 3988 
L 628 4550 
Q 988 4650 1302 4700 
Q 1616 4750 1894 4750 
Q 2613 4750 3031 4423 
Q 3450 4097 3450 3541 
Q 3450 3153 3228 2886 
Q 3006 2619 2597 2516 
z
" transform="scale(0.015625)"/>
       </defs>
       <use xlink:href="#DejaVuSans-28"/>
       <use xlink:href="#DejaVuSans-33" x="39.013672"/>
       <use xlink:href="#DejaVuSans-2c" x="102.636719"/>
       <use xlink:href="#DejaVuSans-20" x="134.423828"/>
       <use xlink:href="#DejaVuSans-69" x="166.210938"/>
       <use xlink:href="#DejaVuSans-64" x="193.994141"/>
       <use xlink:href="#DejaVuSans-29" x="257.470703"/>
      </g>
     </g>
    </g>
    <g id="xtick_4">
     <g id="line2d_4">
      <g>
       <use xlink:href="#m614a962642" x="439.604688" y="170.28" style="stroke: #000000; stroke-width: 0.8"/>
      </g>
     </g>
     <g id="text_4">
      <!-- (4, id) -->
      <g transform="translate(424.780469 184.878438)scale(0.1 -0.1)">
       <defs>
        <path id="DejaVuSans-34" d="M 2419 4116 
L 825 1625 
L 2419 1625 
L 2419 4116 
z
M 2253 4666 
L 3047 4666 
L 3047 1625 
L 3713 1625 
L 3713 1100 
L 3047 1100 
L 3047 0 
L 2419 0 
L 2419 1100 
L 313 1100 
L 313 1709 
L 2253 4666 
z
" transform="scale(0.015625)"/>
       </defs>
       <use xlink:href="#DejaVuSans-28"/>
       <use xlink:href="#DejaVuSans-34" x="39.013672"/>
       <use xlink:href="#DejaVuSans-2c" x="102.636719"/>
       <use xlink:href="#DejaVuSans-20" x="134.423828"/>
       <use xlink:href="#DejaVuSans-69" x="166.210938"/>
       <use xlink:href="#DejaVuSans-64" x="193.994141"/>
       <use xlink:href="#DejaVuSans-29" x="257.470703"/>
      </g>
     </g>
    </g>
    <g id="xtick_5">
     <g id="line2d_5">
      <g>
       <use xlink:href="#m614a962642" x="551.204688" y="170.28" style="stroke: #000000; stroke-width: 0.8"/>
      </g>
     </g>
     <g id="text_5">
      <!-- logits -->
      <g transform="translate(537.628125 184.878438)scale(0.1 -0.1)">
       <defs>
        <path id="DejaVuSans-6c" d="M 603 4863 
L 1178 4863 
L 1178 0 
L 603 0 
L 603 4863 
z
" transform="scale(0.015625)"/>
        <path id="DejaVuSans-6f" d="M 1959 3097 
Q 1497 3097 1228 2736 
Q 959 2375 959 1747 
Q 959 1119 1226 758 
Q 1494 397 1959 397 
Q 2419 397 2687 759 
Q 2956 1122 2956 1747 
Q 2956 2369 2687 2733 
Q 2419 3097 1959 3097 
z
M 1959 3584 
Q 2709 3584 3137 3096 
Q 3566 2609 3566 1747 
Q 3566 888 3137 398 
Q 2709 -91 1959 -91 
Q 1206 -91 779 398 
Q 353 888 353 1747 
Q 353 2609 779 3096 
Q 1206 3584 1959 3584 
z
" transform="scale(0.015625)"/>
        <path id="DejaVuSans-67" d="M 2906 1791 
Q 2906 2416 2648 2759 
Q 2391 3103 1925 3103 
Q 1463 3103 1205 2759 
Q 947 2416 947 1791 
Q 947 1169 1205 825 
Q 1463 481 1925 481 
Q 2391 481 2648 825 
Q 2906 1169 2906 1791 
z
M 3481 434 
Q 3481 -459 3084 -895 
Q 2688 -1331 1869 -1331 
Q 1566 -1331 1297 -1286 
Q 1028 -1241 775 -1147 
L 775 -588 
Q 1028 -725 1275 -790 
Q 1522 -856 1778 -856 
Q 2344 -856 2625 -561 
Q 2906 -266 2906 331 
L 2906 616 
Q 2728 306 2450 153 
Q 2172 0 1784 0 
Q 1141 0 747 490 
Q 353 981 353 1791 
Q 353 2603 747 3093 
Q 1141 3584 1784 3584 
Q 2172 3584 2450 3431 
Q 2728 3278 2906 2969 
L 2906 3500 
L 3481 3500 
L 3481 434 
z
" transform="scale(0.015625)"/>
        <path id="DejaVuSans-74" d="M 1172 4494 
L 1172 3500 
L 2356 3500 
L 2356 3053 
L 1172 3053 
L 1172 1153 
Q 1172 725 1289 603 
Q 1406 481 1766 481 
L 2356 481 
L 2356 0 
L 1766 0 
Q 1100 0 847 248 
Q 594 497 594 1153 
L 594 3053 
L 172 3053 
L 172 3500 
L 594 3500 
L 594 4494 
L 1172 4494 
z
" transform="scale(0.015625)"/>
        <path id="DejaVuSans-73" d="M 2834 3397 
L 2834 2853 
Q 2591 2978 2328 3040 
Q 2066 3103 1784 3103 
Q 1356 3103 1142 2972 
Q 928 2841 928 2578 
Q 928 2378 1081 2264 
Q 1234 2150 1697 2047 
L 1894 2003 
Q 2506 1872 2764 1633 
Q 3022 1394 3022 966 
Q 3022 478 2636 193 
Q 2250 -91 1575 -91 
Q 1294 -91 989 -36 
Q 684 19 347 128 
L 347 722 
Q 666 556 975 473 
Q 1284 391 1588 391 
Q 1994 391 2212 530 
Q 2431 669 2431 922 
Q 2431 1156 2273 1281 
Q 2116 1406 1581 1522 
L 1381 1569 
Q 847 1681 609 1914 
Q 372 2147 372 2553 
Q 372 3047 722 3315 
Q 1072 3584 1716 3584 
Q 2034 3584 2315 3537 
Q 2597 3491 2834 3397 
z
" transform="scale(0.015625)"/>
       </defs>
       <use xlink:href="#DejaVuSans-6c"/>
       <use xlink:href="#DejaVuSans-6f" x="27.783203"/>
       <use xlink:href="#DejaVuSans-67" x="88.964844"/>
       <use xlink:href="#DejaVuSans-69" x="152.441406"/>
       <use xlink:href="#DejaVuSans-74" x="180.224609"/>
       <use xlink:href="#DejaVuSans-73" x="219.433594"/>
      </g>
     </g>
    </g>
   </g>
   <g id="matplotlib.axis_2">
    <g id="ytick_1">
     <g id="line2d_6">
      <defs>
       <path id="m6f5d3f623f" d="M 0 0 
L -3.5 0 
" style="stroke: #000000; stroke-width: 0.8"/>
      </defs>
      <g>
       <use xlink:href="#m6f5d3f623f" x="49.004687" y="165.171797" style="stroke: #000000; stroke-width: 0.8"/>
      </g>
     </g>
     <g id="text_6">
      <!-- −15 -->
      <g transform="translate(20.9 168.971016)scale(0.1 -0.1)">
       <defs>
        <path id="DejaVuSans-2212" d="M 678 2272 
L 4684 2272 
L 4684 1741 
L 678 1741 
L 678 2272 
z
" transform="scale(0.015625)"/>
        <path id="DejaVuSans-35" d="M 691 4666 
L 3169 4666 
L 3169 4134 
L 1269 4134 
L 1269 2991 
Q 1406 3038 1543 3061 
Q 1681 3084 1819 3084 
Q 2600 3084 3056 2656 
Q 3513 2228 3513 1497 
Q 3513 744 3044 326 
Q 2575 -91 1722 -91 
Q 1428 -91 1123 -41 
Q 819 9 494 109 
L 494 744 
Q 775 591 1075 516 
Q 1375 441 1709 441 
Q 2250 441 2565 725 
Q 2881 1009 2881 1497 
Q 2881 1984 2565 2268 
Q 2250 2553 1709 2553 
Q 1456 2553 1204 2497 
Q 953 2441 691 2322 
L 691 4666 
z
" transform="scale(0.015625)"/>
       </defs>
       <use xlink:href="#DejaVuSans-2212"/>
       <use xlink:href="#DejaVuSans-31" x="83.789062"/>
       <use xlink:href="#DejaVuSans-35" x="147.412109"/>
      </g>
     </g>
    </g>
    <g id="ytick_2">
     <g id="line2d_7">
      <g>
       <use xlink:href="#m6f5d3f623f" x="49.004687" y="141.31586" style="stroke: #000000; stroke-width: 0.8"/>
      </g>
     </g>
     <g id="text_7">
      <!-- −10 -->
      <g transform="translate(20.9 145.115079)scale(0.1 -0.1)">
       <defs>
        <path id="DejaVuSans-30" d="M 2034 4250 
Q 1547 4250 1301 3770 
Q 1056 3291 1056 2328 
Q 1056 1369 1301 889 
Q 1547 409 2034 409 
Q 2525 409 2770 889 
Q 3016 1369 3016 2328 
Q 3016 3291 2770 3770 
Q 2525 4250 2034 4250 
z
M 2034 4750 
Q 2819 4750 3233 4129 
Q 3647 3509 3647 2328 
Q 3647 1150 3233 529 
Q 2819 -91 2034 -91 
Q 1250 -91 836 529 
Q 422 1150 422 2328 
Q 422 3509 836 4129 
Q 1250 4750 2034 4750 
z
" transform="scale(0.015625)"/>
       </defs>
       <use xlink:href="#DejaVuSans-2212"/>
       <use xlink:href="#DejaVuSans-31" x="83.789062"/>
       <use xlink:href="#DejaVuSans-30" x="147.412109"/>
      </g>
     </g>
    </g>
    <g id="ytick_3">
     <g id="line2d_8">
      <g>
       <use xlink:href="#m6f5d3f623f" x="49.004687" y="117.459923" style="stroke: #000000; stroke-width: 0.8"/>
      </g>
     </g>
     <g id="text_8">
      <!-- −5 -->
      <g transform="translate(27.2625 121.259142)scale(0.1 -0.1)">
       <use xlink:href="#DejaVuSans-2212"/>
       <use xlink:href="#DejaVuSans-35" x="83.789062"/>
      </g>
     </g>
    </g>
    <g id="ytick_4">
     <g id="line2d_9">
      <g>
       <use xlink:href="#m6f5d3f623f" x="49.004687" y="93.603987" style="stroke: #000000; stroke-width: 0.8"/>
      </g>
     </g>
     <g id="text_9">
      <!-- 0 -->
      <g transform="translate(35.642187 97.403205)scale(0.1 -0.1)">
       <use xlink:href="#DejaVuSans-30"/>
      </g>
     </g>
    </g>
    <g id="ytick_5">
     <g id="line2d_10">
      <g>
       <use xlink:href="#m6f5d3f623f" x="49.004687" y="69.74805" style="stroke: #000000; stroke-width: 0.8"/>
      </g>
     </g>
     <g id="text_10">
      <!-- 5 -->
      <g transform="translate(35.642187 73.547269)scale(0.1 -0.1)">
       <use xlink:href="#DejaVuSans-35"/>
      </g>
     </g>
    </g>
    <g id="ytick_6">
     <g id="line2d_11">
      <g>
       <use xlink:href="#m6f5d3f623f" x="49.004687" y="45.892113" style="stroke: #000000; stroke-width: 0.8"/>
      </g>
     </g>
     <g id="text_11">
      <!-- 10 -->
      <g transform="translate(29.279687 49.691332)scale(0.1 -0.1)">
       <use xlink:href="#DejaVuSans-31"/>
       <use xlink:href="#DejaVuSans-30" x="63.623047"/>
      </g>
     </g>
    </g>
    <g id="ytick_7">
     <g id="line2d_12">
      <g>
       <use xlink:href="#m6f5d3f623f" x="49.004687" y="22.036176" style="stroke: #000000; stroke-width: 0.8"/>
      </g>
     </g>
     <g id="text_12">
      <!-- 15 -->
      <g transform="translate(29.279687 25.835395)scale(0.1 -0.1)">
       <use xlink:href="#DejaVuSans-31"/>
       <use xlink:href="#DejaVuSans-35" x="63.623047"/>
      </g>
     </g>
    </g>
    <g id="text_13">
     <!-- ${\phi}$ -->
     <g transform="translate(14.8 92.04)rotate(-90)scale(0.1 -0.1)">
      <defs>
       <path id="DejaVuSans-Oblique-3d5" d="M 2991 4863 
L 2738 3572 
Q 3363 3572 3684 3094 
Q 4016 2606 3850 1747 
Q 3681 888 3159 400 
Q 2653 -78 2028 -78 
L 1784 -1331 
L 1213 -1331 
L 1456 -78 
Q 834 -78 509 400 
Q 178 888 347 1747 
Q 513 2606 1034 3094 
Q 1544 3572 2166 3572 
L 2419 4863 
L 2991 4863 
z
M 2128 434 
Q 2481 434 2784 756 
Q 3116 1116 3244 1747 
Q 3369 2372 3169 2738 
Q 2991 3059 2638 3059 
L 2128 434 
z
M 1556 434 
L 2066 3059 
Q 1716 3059 1413 2738 
Q 1072 2372 953 1747 
Q 834 1116 1028 756 
Q 1203 434 1556 434 
z
" transform="scale(0.015625)"/>
      </defs>
      <use xlink:href="#DejaVuSans-Oblique-3d5" transform="translate(0 0.015625)"/>
     </g>
    </g>
   </g>
   <g id="line2d_13">
    <path d="M 104.804688 105.112403 
L 104.804688 82.0846 
" clip-path="url(#pb4f9aba913)" style="fill: none; stroke: #3f3f3f; stroke-width: 1.5; stroke-linecap: square"/>
   </g>
   <g id="line2d_14">
    <path d="M 104.804688 96.477023 
L 104.804688 90.720045 
" clip-path="url(#pb4f9aba913)" style="fill: none; stroke: #3f3f3f; stroke-width: 4.5; stroke-linecap: square"/>
   </g>
   <g id="line2d_15">
    <path d="M 216.404688 105.044775 
L 216.404688 82.097336 
" clip-path="url(#pb4f9aba913)" style="fill: none; stroke: #3f3f3f; stroke-width: 1.5; stroke-linecap: square"/>
   </g>
   <g id="line2d_16">
    <path d="M 216.404688 96.439544 
L 216.404688 90.702547 
" clip-path="url(#pb4f9aba913)" style="fill: none; stroke: #3f3f3f; stroke-width: 4.5; stroke-linecap: square"/>
   </g>
   <g id="line2d_17">
    <path d="M 328.004688 105.069056 
L 328.004688 82.156539 
" clip-path="url(#pb4f9aba913)" style="fill: none; stroke: #3f3f3f; stroke-width: 1.5; stroke-linecap: square"/>
   </g>
   <g id="line2d_18">
    <path d="M 328.004688 96.476946 
L 328.004688 90.748781 
" clip-path="url(#pb4f9aba913)" style="fill: none; stroke: #3f3f3f; stroke-width: 4.5; stroke-linecap: square"/>
   </g>
   <g id="line2d_19">
    <path d="M 439.604688 104.566319 
L 439.604688 82.596716 
" clip-path="url(#pb4f9aba913)" style="fill: none; stroke: #3f3f3f; stroke-width: 1.5; stroke-linecap: square"/>
   </g>
   <g id="line2d_20">
    <path d="M 439.604688 96.32775 
L 439.604688 90.835189 
" clip-path="url(#pb4f9aba913)" style="fill: none; stroke: #3f3f3f; stroke-width: 4.5; stroke-linecap: square"/>
   </g>
   <g id="line2d_21">
    <path d="M 551.204688 103.858631 
L 551.204688 83.272858 
" clip-path="url(#pb4f9aba913)" style="fill: none; stroke: #3f3f3f; stroke-width: 1.5; stroke-linecap: square"/>
   </g>
   <g id="line2d_22">
    <path d="M 551.204688 96.141343 
L 551.204688 90.992848 
" clip-path="url(#pb4f9aba913)" style="fill: none; stroke: #3f3f3f; stroke-width: 4.5; stroke-linecap: square"/>
   </g>
   <g id="patch_3">
    <path d="M 49.004687 170.28 
L 49.004687 7.2 
" style="fill: none; stroke: #000000; stroke-width: 0.8; stroke-linejoin: miter; stroke-linecap: square"/>
   </g>
   <g id="patch_4">
    <path d="M 607.004688 170.28 
L 607.004688 7.2 
" style="fill: none; stroke: #000000; stroke-width: 0.8; stroke-linejoin: miter; stroke-linecap: square"/>
   </g>
   <g id="patch_5">
    <path d="M 49.004687 170.28 
L 607.004688 170.28 
" style="fill: none; stroke: #000000; stroke-width: 0.8; stroke-linejoin: miter; stroke-linecap: square"/>
   </g>
   <g id="patch_6">
    <path d="M 49.004687 7.2 
L 607.004688 7.2 
" style="fill: none; stroke: #000000; stroke-width: 0.8; stroke-linejoin: miter; stroke-linecap: square"/>
   </g>
   <g id="PathCollection_1">
    <defs>
     <path id="mf265bac78e" d="M 0 1.5 
C 0.397805 1.5 0.77937 1.341951 1.06066 1.06066 
C 1.341951 0.77937 1.5 0.397805 1.5 0 
C 1.5 -0.397805 1.341951 -0.77937 1.06066 -1.06066 
C 0.77937 -1.341951 0.397805 -1.5 0 -1.5 
C -0.397805 -1.5 -0.77937 -1.341951 -1.06066 -1.06066 
C -1.341951 -0.77937 -1.5 -0.397805 -1.5 0 
C -1.5 0.397805 -1.341951 0.77937 -1.06066 1.06066 
C -0.77937 1.341951 -0.397805 1.5 0 1.5 
z
" style="stroke: #3f3f3f"/>
    </defs>
    <g clip-path="url(#pb4f9aba913)">
     <use xlink:href="#mf265bac78e" x="104.804688" y="93.585589" style="fill: #ffffff; stroke: #3f3f3f"/>
    </g>
   </g>
   <g id="PathCollection_2">
    <g clip-path="url(#pb4f9aba913)">
     <use xlink:href="#mf265bac78e" x="216.404688" y="93.567964" style="fill: #ffffff; stroke: #3f3f3f"/>
    </g>
   </g>
   <g id="PathCollection_3">
    <g clip-path="url(#pb4f9aba913)">
     <use xlink:href="#mf265bac78e" x="328.004688" y="93.621679" style="fill: #ffffff; stroke: #3f3f3f"/>
    </g>
   </g>
   <g id="PathCollection_4">
    <g clip-path="url(#pb4f9aba913)">
     <use xlink:href="#mf265bac78e" x="439.604688" y="93.586901" style="fill: #ffffff; stroke: #3f3f3f"/>
    </g>
   </g>
   <g id="PathCollection_5">
    <g clip-path="url(#pb4f9aba913)">
     <use xlink:href="#mf265bac78e" x="551.204688" y="93.499183" style="fill: #ffffff; stroke: #3f3f3f"/>
    </g>
   </g>
  </g>
 </g>
 <defs>
  <clipPath id="pb4f9aba913">
   <rect x="49.004687" y="7.2" width="558" height="163.08"/>
  </clipPath>
 </defs>
</svg>
