<?xml version="1.0" encoding="utf-8" standalone="no"?>
<!DOCTYPE svg PUBLIC "-//W3C//DTD SVG 1.1//EN"
  "http://www.w3.org/Graphics/SVG/1.1/DTD/svg11.dtd">
<svg xmlns:xlink="http://www.w3.org/1999/xlink" width="458.670313pt" height="567.955469pt" viewBox="0 0 458.670313 567.955469" xmlns="http://www.w3.org/2000/svg" version="1.1">
 <metadata>
  <rdf:RDF xmlns:dc="http://purl.org/dc/elements/1.1/" xmlns:cc="http://creativecommons.org/ns#" xmlns:rdf="http://www.w3.org/1999/02/22-rdf-syntax-ns#">
   <cc:Work>
    <dc:type rdf:resource="http://purl.org/dc/dcmitype/StillImage"/>
    <dc:date>2022-07-08T21:55:34.830194</dc:date>
    <dc:format>image/svg+xml</dc:format>
    <dc:creator>
     <cc:Agent>
      <dc:title>Matplotlib v3.5.1, https://matplotlib.org/</dc:title>
     </cc:Agent>
    </dc:creator>
   </cc:Work>
  </rdf:RDF>
 </metadata>
 <defs>
  <style type="text/css">*{stroke-linejoin: round; stroke-linecap: butt}</style>
 </defs>
 <g id="figure_1">
  <g id="patch_1">
   <path d="M 0 567.955469 
L 458.670313 567.955469 
L 458.670313 0 
L 0 0 
L 0 567.955469 
z
" style="fill: none"/>
  </g>
  <g id="axes_1">
   <g id="patch_2">
    <path d="M 42.620313 165.599219 
L 451.470312 165.599219 
L 451.470312 10.999219 
L 42.620313 10.999219 
z
" style="fill: #ffffff"/>
   </g>
   <g id="matplotlib.axis_1">
    <g id="xtick_1">
     <g id="line2d_1">
      <path d="M 61.204403 165.599219 
L 61.204403 10.999219 
" clip-path="url(#pf5395d8fd1)" style="fill: none; stroke-dasharray: 0.8,1.32; stroke-dashoffset: 0; stroke: #b0b0b0; stroke-width: 0.8"/>
     </g>
     <g id="line2d_2">
      <defs>
       <path id="m71bbff1c27" d="M 0 0 
L 0 3.5 
" style="stroke: #000000; stroke-width: 0.8"/>
      </defs>
      <g>
       <use xlink:href="#m71bbff1c27" x="61.204403" y="165.599219" style="stroke: #000000; stroke-width: 0.8"/>
      </g>
     </g>
     <g id="text_1">
      <!-- 0 -->
      <g transform="translate(58.023153 180.197656)scale(0.1 -0.1)">
       <defs>
        <path id="DejaVuSans-30" d="M 2034 4250 
Q 1547 4250 1301 3770 
Q 1056 3291 1056 2328 
Q 1056 1369 1301 889 
Q 1547 409 2034 409 
Q 2525 409 2770 889 
Q 3016 1369 3016 2328 
Q 3016 3291 2770 3770 
Q 2525 4250 2034 4250 
z
M 2034 4750 
Q 2819 4750 3233 4129 
Q 3647 3509 3647 2328 
Q 3647 1150 3233 529 
Q 2819 -91 2034 -91 
Q 1250 -91 836 529 
Q 422 1150 422 2328 
Q 422 3509 836 4129 
Q 1250 4750 2034 4750 
z
" transform="scale(0.015625)"/>
       </defs>
       <use xlink:href="#DejaVuSans-30"/>
      </g>
     </g>
    </g>
    <g id="xtick_2">
     <g id="line2d_3">
      <path d="M 135.540767 165.599219 
L 135.540767 10.999219 
" clip-path="url(#pf5395d8fd1)" style="fill: none; stroke-dasharray: 0.8,1.32; stroke-dashoffset: 0; stroke: #b0b0b0; stroke-width: 0.8"/>
     </g>
     <g id="line2d_4">
      <g>
       <use xlink:href="#m71bbff1c27" x="135.540767" y="165.599219" style="stroke: #000000; stroke-width: 0.8"/>
      </g>
     </g>
     <g id="text_2">
      <!-- 20 -->
      <g transform="translate(129.178267 180.197656)scale(0.1 -0.1)">
       <defs>
        <path id="DejaVuSans-32" d="M 1228 531 
L 3431 531 
L 3431 0 
L 469 0 
L 469 531 
Q 828 903 1448 1529 
Q 2069 2156 2228 2338 
Q 2531 2678 2651 2914 
Q 2772 3150 2772 3378 
Q 2772 3750 2511 3984 
Q 2250 4219 1831 4219 
Q 1534 4219 1204 4116 
Q 875 4013 500 3803 
L 500 4441 
Q 881 4594 1212 4672 
Q 1544 4750 1819 4750 
Q 2544 4750 2975 4387 
Q 3406 4025 3406 3419 
Q 3406 3131 3298 2873 
Q 3191 2616 2906 2266 
Q 2828 2175 2409 1742 
Q 1991 1309 1228 531 
z
" transform="scale(0.015625)"/>
       </defs>
       <use xlink:href="#DejaVuSans-32"/>
       <use xlink:href="#DejaVuSans-30" x="63.623047"/>
      </g>
     </g>
    </g>
    <g id="xtick_3">
     <g id="line2d_5">
      <path d="M 209.877131 165.599219 
L 209.877131 10.999219 
" clip-path="url(#pf5395d8fd1)" style="fill: none; stroke-dasharray: 0.8,1.32; stroke-dashoffset: 0; stroke: #b0b0b0; stroke-width: 0.8"/>
     </g>
     <g id="line2d_6">
      <g>
       <use xlink:href="#m71bbff1c27" x="209.877131" y="165.599219" style="stroke: #000000; stroke-width: 0.8"/>
      </g>
     </g>
     <g id="text_3">
      <!-- 40 -->
      <g transform="translate(203.514631 180.197656)scale(0.1 -0.1)">
       <defs>
        <path id="DejaVuSans-34" d="M 2419 4116 
L 825 1625 
L 2419 1625 
L 2419 4116 
z
M 2253 4666 
L 3047 4666 
L 3047 1625 
L 3713 1625 
L 3713 1100 
L 3047 1100 
L 3047 0 
L 2419 0 
L 2419 1100 
L 313 1100 
L 313 1709 
L 2253 4666 
z
" transform="scale(0.015625)"/>
       </defs>
       <use xlink:href="#DejaVuSans-34"/>
       <use xlink:href="#DejaVuSans-30" x="63.623047"/>
      </g>
     </g>
    </g>
    <g id="xtick_4">
     <g id="line2d_7">
      <path d="M 284.213494 165.599219 
L 284.213494 10.999219 
" clip-path="url(#pf5395d8fd1)" style="fill: none; stroke-dasharray: 0.8,1.32; stroke-dashoffset: 0; stroke: #b0b0b0; stroke-width: 0.8"/>
     </g>
     <g id="line2d_8">
      <g>
       <use xlink:href="#m71bbff1c27" x="284.213494" y="165.599219" style="stroke: #000000; stroke-width: 0.8"/>
      </g>
     </g>
     <g id="text_4">
      <!-- 60 -->
      <g transform="translate(277.850994 180.197656)scale(0.1 -0.1)">
       <defs>
        <path id="DejaVuSans-36" d="M 2113 2584 
Q 1688 2584 1439 2293 
Q 1191 2003 1191 1497 
Q 1191 994 1439 701 
Q 1688 409 2113 409 
Q 2538 409 2786 701 
Q 3034 994 3034 1497 
Q 3034 2003 2786 2293 
Q 2538 2584 2113 2584 
z
M 3366 4563 
L 3366 3988 
Q 3128 4100 2886 4159 
Q 2644 4219 2406 4219 
Q 1781 4219 1451 3797 
Q 1122 3375 1075 2522 
Q 1259 2794 1537 2939 
Q 1816 3084 2150 3084 
Q 2853 3084 3261 2657 
Q 3669 2231 3669 1497 
Q 3669 778 3244 343 
Q 2819 -91 2113 -91 
Q 1303 -91 875 529 
Q 447 1150 447 2328 
Q 447 3434 972 4092 
Q 1497 4750 2381 4750 
Q 2619 4750 2861 4703 
Q 3103 4656 3366 4563 
z
" transform="scale(0.015625)"/>
       </defs>
       <use xlink:href="#DejaVuSans-36"/>
       <use xlink:href="#DejaVuSans-30" x="63.623047"/>
      </g>
     </g>
    </g>
    <g id="xtick_5">
     <g id="line2d_9">
      <path d="M 358.549858 165.599219 
L 358.549858 10.999219 
" clip-path="url(#pf5395d8fd1)" style="fill: none; stroke-dasharray: 0.8,1.32; stroke-dashoffset: 0; stroke: #b0b0b0; stroke-width: 0.8"/>
     </g>
     <g id="line2d_10">
      <g>
       <use xlink:href="#m71bbff1c27" x="358.549858" y="165.599219" style="stroke: #000000; stroke-width: 0.8"/>
      </g>
     </g>
     <g id="text_5">
      <!-- 80 -->
      <g transform="translate(352.187358 180.197656)scale(0.1 -0.1)">
       <defs>
        <path id="DejaVuSans-38" d="M 2034 2216 
Q 1584 2216 1326 1975 
Q 1069 1734 1069 1313 
Q 1069 891 1326 650 
Q 1584 409 2034 409 
Q 2484 409 2743 651 
Q 3003 894 3003 1313 
Q 3003 1734 2745 1975 
Q 2488 2216 2034 2216 
z
M 1403 2484 
Q 997 2584 770 2862 
Q 544 3141 544 3541 
Q 544 4100 942 4425 
Q 1341 4750 2034 4750 
Q 2731 4750 3128 4425 
Q 3525 4100 3525 3541 
Q 3525 3141 3298 2862 
Q 3072 2584 2669 2484 
Q 3125 2378 3379 2068 
Q 3634 1759 3634 1313 
Q 3634 634 3220 271 
Q 2806 -91 2034 -91 
Q 1263 -91 848 271 
Q 434 634 434 1313 
Q 434 1759 690 2068 
Q 947 2378 1403 2484 
z
M 1172 3481 
Q 1172 3119 1398 2916 
Q 1625 2713 2034 2713 
Q 2441 2713 2670 2916 
Q 2900 3119 2900 3481 
Q 2900 3844 2670 4047 
Q 2441 4250 2034 4250 
Q 1625 4250 1398 4047 
Q 1172 3844 1172 3481 
z
" transform="scale(0.015625)"/>
       </defs>
       <use xlink:href="#DejaVuSans-38"/>
       <use xlink:href="#DejaVuSans-30" x="63.623047"/>
      </g>
     </g>
    </g>
    <g id="xtick_6">
     <g id="line2d_11">
      <path d="M 432.886222 165.599219 
L 432.886222 10.999219 
" clip-path="url(#pf5395d8fd1)" style="fill: none; stroke-dasharray: 0.8,1.32; stroke-dashoffset: 0; stroke: #b0b0b0; stroke-width: 0.8"/>
     </g>
     <g id="line2d_12">
      <g>
       <use xlink:href="#m71bbff1c27" x="432.886222" y="165.599219" style="stroke: #000000; stroke-width: 0.8"/>
      </g>
     </g>
     <g id="text_6">
      <!-- 100 -->
      <g transform="translate(423.342472 180.197656)scale(0.1 -0.1)">
       <defs>
        <path id="DejaVuSans-31" d="M 794 531 
L 1825 531 
L 1825 4091 
L 703 3866 
L 703 4441 
L 1819 4666 
L 2450 4666 
L 2450 531 
L 3481 531 
L 3481 0 
L 794 0 
L 794 531 
z
" transform="scale(0.015625)"/>
       </defs>
       <use xlink:href="#DejaVuSans-31"/>
       <use xlink:href="#DejaVuSans-30" x="63.623047"/>
       <use xlink:href="#DejaVuSans-30" x="127.246094"/>
      </g>
     </g>
    </g>
   </g>
   <g id="matplotlib.axis_2">
    <g id="ytick_1">
     <g id="line2d_13">
      <path d="M 42.620313 165.599219 
L 451.470312 165.599219 
" clip-path="url(#pf5395d8fd1)" style="fill: none; stroke-dasharray: 0.8,1.32; stroke-dashoffset: 0; stroke: #b0b0b0; stroke-width: 0.8"/>
     </g>
     <g id="line2d_14">
      <defs>
       <path id="m83f876c9d7" d="M 0 0 
L -3.5 0 
" style="stroke: #000000; stroke-width: 0.8"/>
      </defs>
      <g>
       <use xlink:href="#m83f876c9d7" x="42.620313" y="165.599219" style="stroke: #000000; stroke-width: 0.8"/>
      </g>
     </g>
     <g id="text_7">
      <!-- −5 -->
      <g transform="translate(20.878125 169.398438)scale(0.1 -0.1)">
       <defs>
        <path id="DejaVuSans-2212" d="M 678 2272 
L 4684 2272 
L 4684 1741 
L 678 1741 
L 678 2272 
z
" transform="scale(0.015625)"/>
        <path id="DejaVuSans-35" d="M 691 4666 
L 3169 4666 
L 3169 4134 
L 1269 4134 
L 1269 2991 
Q 1406 3038 1543 3061 
Q 1681 3084 1819 3084 
Q 2600 3084 3056 2656 
Q 3513 2228 3513 1497 
Q 3513 744 3044 326 
Q 2575 -91 1722 -91 
Q 1428 -91 1123 -41 
Q 819 9 494 109 
L 494 744 
Q 775 591 1075 516 
Q 1375 441 1709 441 
Q 2250 441 2565 725 
Q 2881 1009 2881 1497 
Q 2881 1984 2565 2268 
Q 2250 2553 1709 2553 
Q 1456 2553 1204 2497 
Q 953 2441 691 2322 
L 691 4666 
z
" transform="scale(0.015625)"/>
       </defs>
       <use xlink:href="#DejaVuSans-2212"/>
       <use xlink:href="#DejaVuSans-35" x="83.789062"/>
      </g>
     </g>
    </g>
    <g id="ytick_2">
     <g id="line2d_15">
      <path d="M 42.620313 139.832552 
L 451.470312 139.832552 
" clip-path="url(#pf5395d8fd1)" style="fill: none; stroke-dasharray: 0.8,1.32; stroke-dashoffset: 0; stroke: #b0b0b0; stroke-width: 0.8"/>
     </g>
     <g id="line2d_16">
      <g>
       <use xlink:href="#m83f876c9d7" x="42.620313" y="139.832552" style="stroke: #000000; stroke-width: 0.8"/>
      </g>
     </g>
     <g id="text_8">
      <!-- −4 -->
      <g transform="translate(20.878125 143.631771)scale(0.1 -0.1)">
       <use xlink:href="#DejaVuSans-2212"/>
       <use xlink:href="#DejaVuSans-34" x="83.789062"/>
      </g>
     </g>
    </g>
    <g id="ytick_3">
     <g id="line2d_17">
      <path d="M 42.620313 114.065885 
L 451.470312 114.065885 
" clip-path="url(#pf5395d8fd1)" style="fill: none; stroke-dasharray: 0.8,1.32; stroke-dashoffset: 0; stroke: #b0b0b0; stroke-width: 0.8"/>
     </g>
     <g id="line2d_18">
      <g>
       <use xlink:href="#m83f876c9d7" x="42.620313" y="114.065885" style="stroke: #000000; stroke-width: 0.8"/>
      </g>
     </g>
     <g id="text_9">
      <!-- −3 -->
      <g transform="translate(20.878125 117.865104)scale(0.1 -0.1)">
       <defs>
        <path id="DejaVuSans-33" d="M 2597 2516 
Q 3050 2419 3304 2112 
Q 3559 1806 3559 1356 
Q 3559 666 3084 287 
Q 2609 -91 1734 -91 
Q 1441 -91 1130 -33 
Q 819 25 488 141 
L 488 750 
Q 750 597 1062 519 
Q 1375 441 1716 441 
Q 2309 441 2620 675 
Q 2931 909 2931 1356 
Q 2931 1769 2642 2001 
Q 2353 2234 1838 2234 
L 1294 2234 
L 1294 2753 
L 1863 2753 
Q 2328 2753 2575 2939 
Q 2822 3125 2822 3475 
Q 2822 3834 2567 4026 
Q 2313 4219 1838 4219 
Q 1578 4219 1281 4162 
Q 984 4106 628 3988 
L 628 4550 
Q 988 4650 1302 4700 
Q 1616 4750 1894 4750 
Q 2613 4750 3031 4423 
Q 3450 4097 3450 3541 
Q 3450 3153 3228 2886 
Q 3006 2619 2597 2516 
z
" transform="scale(0.015625)"/>
       </defs>
       <use xlink:href="#DejaVuSans-2212"/>
       <use xlink:href="#DejaVuSans-33" x="83.789062"/>
      </g>
     </g>
    </g>
    <g id="ytick_4">
     <g id="line2d_19">
      <path d="M 42.620313 88.299219 
L 451.470312 88.299219 
" clip-path="url(#pf5395d8fd1)" style="fill: none; stroke-dasharray: 0.8,1.32; stroke-dashoffset: 0; stroke: #b0b0b0; stroke-width: 0.8"/>
     </g>
     <g id="line2d_20">
      <g>
       <use xlink:href="#m83f876c9d7" x="42.620313" y="88.299219" style="stroke: #000000; stroke-width: 0.8"/>
      </g>
     </g>
     <g id="text_10">
      <!-- −2 -->
      <g transform="translate(20.878125 92.098437)scale(0.1 -0.1)">
       <use xlink:href="#DejaVuSans-2212"/>
       <use xlink:href="#DejaVuSans-32" x="83.789062"/>
      </g>
     </g>
    </g>
    <g id="ytick_5">
     <g id="line2d_21">
      <path d="M 42.620313 62.532552 
L 451.470312 62.532552 
" clip-path="url(#pf5395d8fd1)" style="fill: none; stroke-dasharray: 0.8,1.32; stroke-dashoffset: 0; stroke: #b0b0b0; stroke-width: 0.8"/>
     </g>
     <g id="line2d_22">
      <g>
       <use xlink:href="#m83f876c9d7" x="42.620313" y="62.532552" style="stroke: #000000; stroke-width: 0.8"/>
      </g>
     </g>
     <g id="text_11">
      <!-- −1 -->
      <g transform="translate(20.878125 66.331771)scale(0.1 -0.1)">
       <use xlink:href="#DejaVuSans-2212"/>
       <use xlink:href="#DejaVuSans-31" x="83.789062"/>
      </g>
     </g>
    </g>
    <g id="ytick_6">
     <g id="line2d_23">
      <path d="M 42.620313 36.765885 
L 451.470312 36.765885 
" clip-path="url(#pf5395d8fd1)" style="fill: none; stroke-dasharray: 0.8,1.32; stroke-dashoffset: 0; stroke: #b0b0b0; stroke-width: 0.8"/>
     </g>
     <g id="line2d_24">
      <g>
       <use xlink:href="#m83f876c9d7" x="42.620313" y="36.765885" style="stroke: #000000; stroke-width: 0.8"/>
      </g>
     </g>
     <g id="text_12">
      <!-- 0 -->
      <g transform="translate(29.257813 40.565104)scale(0.1 -0.1)">
       <use xlink:href="#DejaVuSans-30"/>
      </g>
     </g>
    </g>
    <g id="ytick_7">
     <g id="line2d_25">
      <path d="M 42.620313 10.999219 
L 451.470312 10.999219 
" clip-path="url(#pf5395d8fd1)" style="fill: none; stroke-dasharray: 0.8,1.32; stroke-dashoffset: 0; stroke: #b0b0b0; stroke-width: 0.8"/>
     </g>
     <g id="line2d_26">
      <g>
       <use xlink:href="#m83f876c9d7" x="42.620313" y="10.999219" style="stroke: #000000; stroke-width: 0.8"/>
      </g>
     </g>
     <g id="text_13">
      <!-- 1 -->
      <g transform="translate(29.257813 14.798437)scale(0.1 -0.1)">
       <use xlink:href="#DejaVuSans-31"/>
      </g>
     </g>
    </g>
    <g id="text_14">
     <!-- $w_1$ -->
     <g transform="translate(14.798438 94.799219)rotate(-90)scale(0.1 -0.1)">
      <defs>
       <path id="DejaVuSans-Oblique-77" d="M 544 3500 
L 1113 3500 
L 1259 684 
L 2566 3500 
L 3231 3500 
L 3425 684 
L 4666 3500 
L 5241 3500 
L 3641 0 
L 2969 0 
L 2797 2900 
L 1459 0 
L 781 0 
L 544 3500 
z
" transform="scale(0.015625)"/>
      </defs>
      <use xlink:href="#DejaVuSans-Oblique-77" transform="translate(0 0.3125)"/>
      <use xlink:href="#DejaVuSans-31" transform="translate(81.787109 -16.09375)scale(0.7)"/>
     </g>
    </g>
   </g>
   <g id="line2d_27">
    <path d="M 61.204403 36.765885 
L 64.921222 41.919147 
L 68.63804 45.777339 
L 72.354858 49.402812 
L 76.071676 53.124034 
L 79.788494 50.730176 
L 83.505313 47.630585 
L 87.222131 46.828891 
L 90.938949 47.560859 
L 94.655767 49.191107 
L 98.372585 50.931856 
L 102.089403 51.552914 
L 105.806222 51.030678 
L 109.52304 49.909467 
L 113.239858 48.768814 
L 116.956676 48.217195 
L 120.673494 48.509269 
L 124.390312 49.379541 
L 128.107131 50.310288 
L 131.823949 50.817522 
L 135.540767 50.689867 
L 139.257585 50.037856 
L 142.974403 49.233198 
L 146.691222 48.730264 
L 150.40804 48.757395 
L 154.124858 49.240248 
L 157.841676 49.897864 
L 161.558494 50.357548 
L 165.275312 50.37672 
L 168.992131 49.993245 
L 172.708949 49.454478 
L 176.425767 49.073471 
L 180.142585 49.057998 
L 183.859403 49.387601 
L 187.576222 49.841063 
L 191.29304 50.141026 
L 195.009858 50.123244 
L 198.726676 49.822982 
L 202.443494 49.443222 
L 206.160312 49.225214 
L 209.877131 49.289339 
L 213.593949 49.571586 
L 217.310767 49.877594 
L 221.027585 50.008852 
L 224.744403 49.895204 
L 228.461222 49.631699 
L 232.17804 49.403605 
L 235.894858 49.359888 
L 239.611676 49.514952 
L 243.328494 49.747162 
L 247.045312 49.891086 
L 250.762131 49.85489 
L 254.478949 49.678547 
L 258.195767 49.497644 
L 261.912585 49.441214 
L 265.629403 49.538912 
L 269.346222 49.707329 
L 273.06304 49.817802 
L 276.779858 49.793888 
L 280.496676 49.66484 
L 284.213494 49.536025 
L 287.930312 49.504534 
L 291.647131 49.586056 
L 295.363949 49.708481 
L 299.080767 49.773739 
L 302.797585 49.735985 
L 306.514403 49.633632 
L 310.231222 49.553141 
L 313.94804 49.556736 
L 317.664858 49.63422 
L 321.381676 49.716603 
L 325.098494 49.736372 
L 328.815312 49.68277 
L 332.532131 49.606462 
L 336.248949 49.57288 
L 339.965767 49.606414 
L 343.682585 49.672918 
L 347.399403 49.713047 
L 351.116222 49.694839 
L 354.83304 49.639081 
L 358.549858 49.597354 
L 362.266676 49.604778 
L 365.983494 49.650492 
L 369.700312 49.690769 
L 373.417131 49.690326 
L 377.133949 49.653178 
L 380.850767 49.615979 
L 384.567585 49.612373 
L 388.284403 49.642645 
L 392.001222 49.676071 
L 395.71804 49.6816 
L 399.434858 49.656614 
L 403.151676 49.627108 
L 406.868494 49.621117 
L 410.585312 49.642169 
L 414.302131 49.667899 
L 418.018949 49.673389 
L 421.735767 49.65521 
L 425.452585 49.632991 
L 429.169403 49.628596 
L 432.886222 49.644687 
" clip-path="url(#pf5395d8fd1)" style="fill: none; stroke: #d62728; stroke-width: 1.5; stroke-linecap: square"/>
   </g>
   <g id="line2d_28">
    <path d="M 61.204403 36.765885 
L 64.921222 36.77533 
L 68.63804 36.784923 
L 72.354858 36.79467 
L 76.071676 36.804574 
L 79.788494 36.814642 
L 83.505313 36.824879 
L 87.222131 36.83529 
L 90.938949 36.84588 
L 94.655767 36.856657 
L 98.372585 36.867625 
L 102.089403 36.878793 
L 105.806222 36.890167 
L 109.52304 36.901755 
L 113.239858 36.913564 
L 116.956676 36.925603 
L 120.673494 36.937881 
L 124.390312 36.950407 
L 128.107131 36.96319 
L 131.823949 36.976241 
L 135.540767 36.989572 
L 139.257585 37.003194 
L 142.974403 37.01712 
L 146.691222 37.031362 
L 150.40804 37.045935 
L 154.124858 37.060855 
L 157.841676 37.076137 
L 161.558494 37.091799 
L 165.275312 37.10786 
L 168.992131 37.124339 
L 172.708949 37.141258 
L 176.425767 37.158641 
L 180.142585 37.176512 
L 183.859403 37.194899 
L 187.576222 37.21383 
L 191.29304 37.233339 
L 195.009858 37.25346 
L 198.726676 37.274231 
L 202.443494 37.295693 
L 206.160312 37.317894 
L 209.877131 37.340882 
L 213.593949 37.364713 
L 217.310767 37.38945 
L 221.027585 37.415161 
L 224.744403 37.441922 
L 228.461222 37.469819 
L 232.17804 37.498948 
L 235.894858 37.529418 
L 239.611676 37.561354 
L 243.328494 37.594896 
L 247.045312 37.630206 
L 250.762131 37.667474 
L 254.478949 37.706916 
L 258.195767 37.748791 
L 261.912585 37.7934 
L 265.629403 37.841108 
L 269.346222 37.892351 
L 273.06304 37.947665 
L 276.779858 38.007712 
L 280.496676 38.073324 
L 284.213494 38.145569 
L 287.930312 38.225837 
L 291.647131 38.315994 
L 295.363949 38.418606 
L 299.080767 38.537338 
L 302.797585 38.677649 
L 306.514403 38.848136 
L 310.231222 39.063349 
L 313.94804 39.350458 
L 317.664858 39.767908 
L 321.381676 40.472361 
L 325.098494 42.081631 
L 328.815312 50.165657 
L 332.532131 24.935326 
L 336.248949 24.935326 
L 339.965767 24.935326 
L 343.682585 24.935326 
L 347.399403 24.935326 
L 351.116222 24.935326 
L 354.83304 24.935326 
L 358.549858 24.935326 
L 362.266676 24.935326 
L 365.983494 24.935326 
L 369.700312 24.935326 
L 373.417131 24.935326 
L 377.133949 24.935326 
L 380.850767 24.935326 
L 384.567585 24.935326 
L 388.284403 24.935326 
L 392.001222 24.935326 
L 395.71804 24.935326 
L 399.434858 24.935326 
L 403.151676 24.935326 
L 406.868494 24.935326 
L 410.585312 24.935326 
L 414.302131 24.935326 
L 418.018949 24.935326 
L 421.735767 24.935326 
L 425.452585 24.935326 
L 429.169403 24.935326 
L 432.886222 24.935326 
" clip-path="url(#pf5395d8fd1)" style="fill: none; stroke: #9467bd; stroke-width: 1.5; stroke-linecap: square"/>
   </g>
   <g id="line2d_29">
    <path d="M 61.204403 36.765885 
L 64.921222 36.767774 
L 68.63804 36.771369 
L 72.354858 36.77651 
L 76.071676 36.78306 
L 79.788494 36.790898 
L 83.505313 36.799921 
L 87.222131 36.81004 
L 90.938949 36.821179 
L 94.655767 36.833273 
L 98.372585 36.846269 
L 102.089403 36.860122 
L 105.806222 36.874796 
L 109.52304 36.890263 
L 113.239858 36.906501 
L 116.956676 36.923496 
L 120.673494 36.941238 
L 124.390312 36.959726 
L 128.107131 36.97896 
L 131.823949 36.998949 
L 135.540767 37.019706 
L 139.257585 37.041247 
L 142.974403 37.063597 
L 146.691222 37.086782 
L 150.40804 37.110835 
L 154.124858 37.135795 
L 157.841676 37.161707 
L 161.558494 37.188619 
L 165.275312 37.21659 
L 168.992131 37.245684 
L 172.708949 37.275973 
L 176.425767 37.307539 
L 180.142585 37.340473 
L 183.859403 37.374878 
L 187.576222 37.410871 
L 191.29304 37.448583 
L 195.009858 37.488163 
L 198.726676 37.529781 
L 202.443494 37.573629 
L 206.160312 37.619932 
L 209.877131 37.668943 
L 213.593949 37.720963 
L 217.310767 37.776338 
L 221.027585 37.835479 
L 224.744403 37.898872 
L 228.461222 37.967099 
L 232.17804 38.040866 
L 235.894858 38.121037 
L 239.611676 38.208685 
L 243.328494 38.305162 
L 247.045312 38.4122 
L 250.762131 38.532067 
L 254.478949 38.667802 
L 258.195767 38.823598 
L 261.912585 39.005439 
L 265.629403 39.222252 
L 269.346222 39.488095 
L 273.06304 39.826787 
L 276.779858 40.28289 
L 280.496676 40.952741 
L 284.213494 42.097575 
L 287.930312 44.766292 
L 291.647131 56.978879 
L 295.363949 65.9856 
L 299.080767 74.091646 
L 302.797585 81.38709 
L 306.514403 87.952988 
L 310.231222 93.862296 
L 313.94804 99.180675 
L 317.664858 103.967215 
L 321.381676 108.275096 
L 325.098494 112.152195 
L 328.815312 115.64158 
L 332.532131 118.782029 
L 336.248949 121.608435 
L 339.965767 124.152196 
L 343.682585 126.441583 
L 347.399403 128.50203 
L 351.116222 130.356432 
L 354.83304 132.025394 
L 358.549858 133.527462 
L 362.266676 134.879322 
L 365.983494 136.095993 
L 369.700312 137.190997 
L 373.417131 138.176503 
L 377.133949 139.06346 
L 380.850767 139.86172 
L 384.567585 140.580149 
L 388.284403 141.226739 
L 392.001222 141.808664 
L 395.71804 142.332401 
L 399.434858 142.803761 
L 403.151676 143.227989 
L 406.868494 143.609792 
L 410.585312 143.953421 
L 414.302131 144.262685 
L 418.018949 144.541023 
L 421.735767 144.79152 
L 425.452585 145.016978 
L 429.169403 145.219889 
L 432.886222 145.402504 
" clip-path="url(#pf5395d8fd1)" style="fill: none; stroke: #8c564b; stroke-width: 1.5; stroke-linecap: square"/>
   </g>
   <g id="patch_3">
    <path d="M 42.620313 165.599219 
L 42.620313 10.999219 
" style="fill: none; stroke: #000000; stroke-width: 0.8; stroke-linejoin: miter; stroke-linecap: square"/>
   </g>
   <g id="patch_4">
    <path d="M 451.470312 165.599219 
L 451.470312 10.999219 
" style="fill: none; stroke: #000000; stroke-width: 0.8; stroke-linejoin: miter; stroke-linecap: square"/>
   </g>
   <g id="patch_5">
    <path d="M 42.620313 165.599219 
L 451.470312 165.599219 
" style="fill: none; stroke: #000000; stroke-width: 0.8; stroke-linejoin: miter; stroke-linecap: square"/>
   </g>
   <g id="patch_6">
    <path d="M 42.620313 10.999219 
L 451.470312 10.999219 
" style="fill: none; stroke: #000000; stroke-width: 0.8; stroke-linejoin: miter; stroke-linecap: square"/>
   </g>
  </g>
  <g id="axes_2">
   <g id="patch_7">
    <path d="M 42.620313 347.999219 
L 451.470312 347.999219 
L 451.470312 193.399219 
L 42.620313 193.399219 
z
" style="fill: #ffffff"/>
   </g>
   <g id="matplotlib.axis_3">
    <g id="xtick_7">
     <g id="line2d_30">
      <path d="M 61.204403 347.999219 
L 61.204403 193.399219 
" clip-path="url(#p2988cc980d)" style="fill: none; stroke-dasharray: 0.8,1.32; stroke-dashoffset: 0; stroke: #b0b0b0; stroke-width: 0.8"/>
     </g>
     <g id="line2d_31">
      <g>
       <use xlink:href="#m71bbff1c27" x="61.204403" y="347.999219" style="stroke: #000000; stroke-width: 0.8"/>
      </g>
     </g>
     <g id="text_15">
      <!-- 0 -->
      <g transform="translate(58.023153 362.597656)scale(0.1 -0.1)">
       <use xlink:href="#DejaVuSans-30"/>
      </g>
     </g>
    </g>
    <g id="xtick_8">
     <g id="line2d_32">
      <path d="M 135.540767 347.999219 
L 135.540767 193.399219 
" clip-path="url(#p2988cc980d)" style="fill: none; stroke-dasharray: 0.8,1.32; stroke-dashoffset: 0; stroke: #b0b0b0; stroke-width: 0.8"/>
     </g>
     <g id="line2d_33">
      <g>
       <use xlink:href="#m71bbff1c27" x="135.540767" y="347.999219" style="stroke: #000000; stroke-width: 0.8"/>
      </g>
     </g>
     <g id="text_16">
      <!-- 20 -->
      <g transform="translate(129.178267 362.597656)scale(0.1 -0.1)">
       <use xlink:href="#DejaVuSans-32"/>
       <use xlink:href="#DejaVuSans-30" x="63.623047"/>
      </g>
     </g>
    </g>
    <g id="xtick_9">
     <g id="line2d_34">
      <path d="M 209.877131 347.999219 
L 209.877131 193.399219 
" clip-path="url(#p2988cc980d)" style="fill: none; stroke-dasharray: 0.8,1.32; stroke-dashoffset: 0; stroke: #b0b0b0; stroke-width: 0.8"/>
     </g>
     <g id="line2d_35">
      <g>
       <use xlink:href="#m71bbff1c27" x="209.877131" y="347.999219" style="stroke: #000000; stroke-width: 0.8"/>
      </g>
     </g>
     <g id="text_17">
      <!-- 40 -->
      <g transform="translate(203.514631 362.597656)scale(0.1 -0.1)">
       <use xlink:href="#DejaVuSans-34"/>
       <use xlink:href="#DejaVuSans-30" x="63.623047"/>
      </g>
     </g>
    </g>
    <g id="xtick_10">
     <g id="line2d_36">
      <path d="M 284.213494 347.999219 
L 284.213494 193.399219 
" clip-path="url(#p2988cc980d)" style="fill: none; stroke-dasharray: 0.8,1.32; stroke-dashoffset: 0; stroke: #b0b0b0; stroke-width: 0.8"/>
     </g>
     <g id="line2d_37">
      <g>
       <use xlink:href="#m71bbff1c27" x="284.213494" y="347.999219" style="stroke: #000000; stroke-width: 0.8"/>
      </g>
     </g>
     <g id="text_18">
      <!-- 60 -->
      <g transform="translate(277.850994 362.597656)scale(0.1 -0.1)">
       <use xlink:href="#DejaVuSans-36"/>
       <use xlink:href="#DejaVuSans-30" x="63.623047"/>
      </g>
     </g>
    </g>
    <g id="xtick_11">
     <g id="line2d_38">
      <path d="M 358.549858 347.999219 
L 358.549858 193.399219 
" clip-path="url(#p2988cc980d)" style="fill: none; stroke-dasharray: 0.8,1.32; stroke-dashoffset: 0; stroke: #b0b0b0; stroke-width: 0.8"/>
     </g>
     <g id="line2d_39">
      <g>
       <use xlink:href="#m71bbff1c27" x="358.549858" y="347.999219" style="stroke: #000000; stroke-width: 0.8"/>
      </g>
     </g>
     <g id="text_19">
      <!-- 80 -->
      <g transform="translate(352.187358 362.597656)scale(0.1 -0.1)">
       <use xlink:href="#DejaVuSans-38"/>
       <use xlink:href="#DejaVuSans-30" x="63.623047"/>
      </g>
     </g>
    </g>
    <g id="xtick_12">
     <g id="line2d_40">
      <path d="M 432.886222 347.999219 
L 432.886222 193.399219 
" clip-path="url(#p2988cc980d)" style="fill: none; stroke-dasharray: 0.8,1.32; stroke-dashoffset: 0; stroke: #b0b0b0; stroke-width: 0.8"/>
     </g>
     <g id="line2d_41">
      <g>
       <use xlink:href="#m71bbff1c27" x="432.886222" y="347.999219" style="stroke: #000000; stroke-width: 0.8"/>
      </g>
     </g>
     <g id="text_20">
      <!-- 100 -->
      <g transform="translate(423.342472 362.597656)scale(0.1 -0.1)">
       <use xlink:href="#DejaVuSans-31"/>
       <use xlink:href="#DejaVuSans-30" x="63.623047"/>
       <use xlink:href="#DejaVuSans-30" x="127.246094"/>
      </g>
     </g>
    </g>
   </g>
   <g id="matplotlib.axis_4">
    <g id="ytick_8">
     <g id="line2d_42">
      <path d="M 42.620313 328.674219 
L 451.470312 328.674219 
" clip-path="url(#p2988cc980d)" style="fill: none; stroke-dasharray: 0.8,1.32; stroke-dashoffset: 0; stroke: #b0b0b0; stroke-width: 0.8"/>
     </g>
     <g id="line2d_43">
      <g>
       <use xlink:href="#m83f876c9d7" x="42.620313" y="328.674219" style="stroke: #000000; stroke-width: 0.8"/>
      </g>
     </g>
     <g id="text_21">
      <!-- −6 -->
      <g transform="translate(20.878125 332.473438)scale(0.1 -0.1)">
       <use xlink:href="#DejaVuSans-2212"/>
       <use xlink:href="#DejaVuSans-36" x="83.789062"/>
      </g>
     </g>
    </g>
    <g id="ytick_9">
     <g id="line2d_44">
      <path d="M 42.620313 290.024219 
L 451.470312 290.024219 
" clip-path="url(#p2988cc980d)" style="fill: none; stroke-dasharray: 0.8,1.32; stroke-dashoffset: 0; stroke: #b0b0b0; stroke-width: 0.8"/>
     </g>
     <g id="line2d_45">
      <g>
       <use xlink:href="#m83f876c9d7" x="42.620313" y="290.024219" style="stroke: #000000; stroke-width: 0.8"/>
      </g>
     </g>
     <g id="text_22">
      <!-- −4 -->
      <g transform="translate(20.878125 293.823438)scale(0.1 -0.1)">
       <use xlink:href="#DejaVuSans-2212"/>
       <use xlink:href="#DejaVuSans-34" x="83.789062"/>
      </g>
     </g>
    </g>
    <g id="ytick_10">
     <g id="line2d_46">
      <path d="M 42.620313 251.374219 
L 451.470312 251.374219 
" clip-path="url(#p2988cc980d)" style="fill: none; stroke-dasharray: 0.8,1.32; stroke-dashoffset: 0; stroke: #b0b0b0; stroke-width: 0.8"/>
     </g>
     <g id="line2d_47">
      <g>
       <use xlink:href="#m83f876c9d7" x="42.620313" y="251.374219" style="stroke: #000000; stroke-width: 0.8"/>
      </g>
     </g>
     <g id="text_23">
      <!-- −2 -->
      <g transform="translate(20.878125 255.173438)scale(0.1 -0.1)">
       <use xlink:href="#DejaVuSans-2212"/>
       <use xlink:href="#DejaVuSans-32" x="83.789062"/>
      </g>
     </g>
    </g>
    <g id="ytick_11">
     <g id="line2d_48">
      <path d="M 42.620313 212.724219 
L 451.470312 212.724219 
" clip-path="url(#p2988cc980d)" style="fill: none; stroke-dasharray: 0.8,1.32; stroke-dashoffset: 0; stroke: #b0b0b0; stroke-width: 0.8"/>
     </g>
     <g id="line2d_49">
      <g>
       <use xlink:href="#m83f876c9d7" x="42.620313" y="212.724219" style="stroke: #000000; stroke-width: 0.8"/>
      </g>
     </g>
     <g id="text_24">
      <!-- 0 -->
      <g transform="translate(29.257813 216.523438)scale(0.1 -0.1)">
       <use xlink:href="#DejaVuSans-30"/>
      </g>
     </g>
    </g>
    <g id="text_25">
     <!-- $w_2$ -->
     <g transform="translate(14.798438 277.199219)rotate(-90)scale(0.1 -0.1)">
      <use xlink:href="#DejaVuSans-Oblique-77" transform="translate(0 0.3125)"/>
      <use xlink:href="#DejaVuSans-32" transform="translate(81.787109 -16.09375)scale(0.7)"/>
     </g>
    </g>
   </g>
   <g id="line2d_50">
    <path d="M 61.204403 212.724219 
L 64.921222 216.589185 
L 68.63804 219.479339 
L 72.354858 222.119491 
L 76.071676 224.885133 
L 79.788494 228.029591 
L 83.505313 230.852546 
L 87.222131 231.650312 
L 90.938949 231.245051 
L 94.655767 230.029392 
L 98.372585 228.351247 
L 102.089403 226.783081 
L 105.806222 225.89672 
L 109.52304 225.82443 
L 113.239858 226.429776 
L 116.956676 227.470622 
L 120.673494 228.629726 
L 124.390312 229.535371 
L 128.107131 229.924251 
L 131.823949 229.769118 
L 135.540767 229.186582 
L 139.257585 228.365061 
L 142.974403 227.560542 
L 146.691222 227.027145 
L 150.40804 226.894719 
L 154.124858 227.156362 
L 157.841676 227.705262 
L 161.558494 228.355879 
L 165.275312 228.8935 
L 168.992131 229.155688 
L 172.708949 229.085459 
L 176.425767 228.734648 
L 180.142585 228.236928 
L 183.859403 227.766013 
L 187.576222 227.478331 
L 191.29304 227.453912 
L 195.009858 227.676521 
L 198.726676 228.051989 
L 202.443494 228.439954 
L 206.160312 228.702747 
L 209.877131 228.758695 
L 213.593949 228.605817 
L 217.310767 228.31504 
L 221.027585 228.002684 
L 224.744403 227.785619 
L 228.461222 227.736447 
L 232.17804 227.859343 
L 235.894858 228.093869 
L 239.611676 228.341683 
L 243.328494 228.505914 
L 247.045312 228.529682 
L 250.762131 228.415722 
L 254.478949 228.220368 
L 258.195767 228.028382 
L 261.912585 227.917107 
L 265.629403 227.924918 
L 269.346222 228.038577 
L 273.06304 228.202232 
L 276.779858 228.343261 
L 280.496676 228.404103 
L 284.213494 228.365762 
L 287.930312 228.253111 
L 291.647131 228.121077 
L 295.363949 228.028842 
L 299.080767 228.01348 
L 302.797585 228.075136 
L 306.514403 228.179751 
L 310.231222 228.276642 
L 313.94804 228.322605 
L 317.664858 228.301107 
L 321.381676 228.227859 
L 325.098494 228.141233 
L 328.815312 228.08277 
L 332.532131 228.077458 
L 336.248949 228.123158 
L 339.965767 228.193668 
L 343.682585 228.253028 
L 347.399403 228.273575 
L 351.116222 228.24875 
L 354.83304 228.194678 
L 358.549858 228.140542 
L 362.266676 228.113162 
L 365.983494 228.123815 
L 369.700312 228.163792 
L 373.417131 228.210317 
L 377.133949 228.23918 
L 380.850767 228.237205 
L 384.567585 228.208155 
L 388.284403 228.169465 
L 392.001222 228.14212 
L 395.71804 228.139413 
L 399.434858 228.160563 
L 403.151676 228.192239 
L 406.868494 228.216636 
L 410.585312 228.221349 
L 414.302131 228.205612 
L 418.018949 228.179783 
L 421.735767 228.158826 
L 425.452585 228.153767 
L 429.169403 228.165953 
L 432.886222 228.187086 
" clip-path="url(#p2988cc980d)" style="fill: none; stroke: #d62728; stroke-width: 1.5; stroke-linecap: square"/>
   </g>
   <g id="line2d_51">
    <path d="M 61.204403 212.724219 
L 64.921222 212.735552 
L 68.63804 212.747063 
L 72.354858 212.758756 
L 76.071676 212.770638 
L 79.788494 212.782715 
L 83.505313 212.794993 
L 87.222131 212.807478 
L 90.938949 212.820178 
L 94.655767 212.833099 
L 98.372585 212.84625 
L 102.089403 212.859638 
L 105.806222 212.873273 
L 109.52304 212.887162 
L 113.239858 212.901316 
L 116.956676 212.915744 
L 120.673494 212.930457 
L 124.390312 212.945465 
L 128.107131 212.960782 
L 131.823949 212.976419 
L 135.540767 212.992389 
L 139.257585 213.008707 
L 142.974403 213.025387 
L 146.691222 213.042446 
L 150.40804 213.0599 
L 154.124858 213.077769 
L 157.841676 213.09607 
L 161.558494 213.114825 
L 165.275312 213.134057 
L 168.992131 213.153789 
L 172.708949 213.174047 
L 176.425767 213.194859 
L 180.142585 213.216255 
L 183.859403 213.238267 
L 187.576222 213.260932 
L 191.29304 213.284287 
L 195.009858 213.308374 
L 198.726676 213.333238 
L 202.443494 213.358931 
L 206.160312 213.385505 
L 209.877131 213.413023 
L 213.593949 213.441551 
L 217.310767 213.471162 
L 221.027585 213.501939 
L 224.744403 213.533973 
L 228.461222 213.567368 
L 232.17804 213.602238 
L 235.894858 213.638715 
L 239.611676 213.676947 
L 243.328494 213.717104 
L 247.045312 213.759379 
L 250.762131 213.804 
L 254.478949 213.851227 
L 258.195767 213.901369 
L 261.912585 213.954789 
L 265.629403 214.011923 
L 269.346222 214.073297 
L 273.06304 214.139551 
L 276.779858 214.211481 
L 280.496676 214.290087 
L 284.213494 214.376647 
L 287.930312 214.472832 
L 291.647131 214.58088 
L 295.363949 214.703874 
L 299.080767 214.846209 
L 302.797585 215.014441 
L 306.514403 215.218888 
L 310.231222 215.477017 
L 313.94804 215.821445 
L 317.664858 216.322336 
L 321.381676 217.167763 
L 325.098494 219.09942 
L 328.815312 228.804075 
L 332.532131 198.521353 
L 336.248949 198.521353 
L 339.965767 198.521353 
L 343.682585 198.521353 
L 347.399403 198.521353 
L 351.116222 198.521353 
L 354.83304 198.521353 
L 358.549858 198.521353 
L 362.266676 198.521353 
L 365.983494 198.521353 
L 369.700312 198.521353 
L 373.417131 198.521353 
L 377.133949 198.521353 
L 380.850767 198.521353 
L 384.567585 198.521353 
L 388.284403 198.521353 
L 392.001222 198.521353 
L 395.71804 198.521353 
L 399.434858 198.521353 
L 403.151676 198.521353 
L 406.868494 198.521353 
L 410.585312 198.521353 
L 414.302131 198.521353 
L 418.018949 198.521353 
L 421.735767 198.521353 
L 425.452585 198.521353 
L 429.169403 198.521353 
L 432.886222 198.521353 
" clip-path="url(#p2988cc980d)" style="fill: none; stroke: #9467bd; stroke-width: 1.5; stroke-linecap: square"/>
   </g>
   <g id="line2d_52">
    <path d="M 61.204403 212.724219 
L 64.921222 212.726485 
L 68.63804 212.730799 
L 72.354858 212.736969 
L 76.071676 212.744828 
L 79.788494 212.754232 
L 83.505313 212.765059 
L 87.222131 212.777199 
L 90.938949 212.790562 
L 94.655767 212.805072 
L 98.372585 212.820661 
L 102.089403 212.837278 
L 105.806222 212.854879 
L 109.52304 212.873428 
L 113.239858 212.892901 
L 116.956676 212.91328 
L 120.673494 212.934553 
L 124.390312 212.956717 
L 128.107131 212.979775 
L 131.823949 213.003736 
L 135.540767 213.028614 
L 139.257585 213.054431 
L 142.974403 213.081214 
L 146.691222 213.108995 
L 150.40804 213.137814 
L 154.124858 213.167717 
L 157.841676 213.198757 
L 161.558494 213.230995 
L 165.275312 213.264497 
L 168.992131 213.299342 
L 172.708949 213.335615 
L 176.425767 213.373416 
L 180.142585 213.412853 
L 183.859403 213.454049 
L 187.576222 213.497145 
L 191.29304 213.542297 
L 195.009858 213.589685 
L 198.726676 213.639511 
L 202.443494 213.692008 
L 206.160312 213.747441 
L 209.877131 213.80612 
L 213.593949 213.8684 
L 217.310767 213.934699 
L 221.027585 214.005509 
L 224.744403 214.081413 
L 228.461222 214.163111 
L 232.17804 214.251448 
L 235.894858 214.347462 
L 239.611676 214.452441 
L 243.328494 214.568005 
L 247.045312 214.696235 
L 250.762131 214.839853 
L 254.478949 215.002507 
L 258.195767 215.189229 
L 261.912585 215.407204 
L 265.629403 215.667147 
L 269.346222 215.985939 
L 273.06304 216.392175 
L 276.779858 216.939357 
L 280.496676 217.743155 
L 284.213494 219.117226 
L 287.930312 222.320995 
L 291.647131 236.98473 
L 295.363949 247.799235 
L 299.080767 257.532287 
L 302.797585 266.292033 
L 306.514403 274.175803 
L 310.231222 281.271195 
L 313.94804 287.65705 
L 317.664858 293.404319 
L 321.381676 298.57686 
L 325.098494 303.232143 
L 328.815312 307.421899 
L 332.532131 311.192683 
L 336.248949 314.586384 
L 339.965767 317.64072 
L 343.682585 320.389619 
L 347.399403 322.86363 
L 351.116222 325.090239 
L 354.83304 327.09419 
L 358.549858 328.897744 
L 362.266676 330.520945 
L 365.983494 331.981826 
L 369.700312 333.296614 
L 373.417131 334.479924 
L 377.133949 335.544906 
L 380.850767 336.503391 
L 384.567585 337.366023 
L 388.284403 338.142395 
L 392.001222 338.841132 
L 395.71804 339.469992 
L 399.434858 340.03597 
L 403.151676 340.54535 
L 406.868494 341.00379 
L 410.585312 341.416386 
L 414.302131 341.787718 
L 418.018949 342.121923 
L 421.735767 342.422706 
L 425.452585 342.693412 
L 429.169403 342.937044 
L 432.886222 343.156312 
" clip-path="url(#p2988cc980d)" style="fill: none; stroke: #8c564b; stroke-width: 1.5; stroke-linecap: square"/>
   </g>
   <g id="patch_8">
    <path d="M 42.620313 347.999219 
L 42.620313 193.399219 
" style="fill: none; stroke: #000000; stroke-width: 0.8; stroke-linejoin: miter; stroke-linecap: square"/>
   </g>
   <g id="patch_9">
    <path d="M 451.470312 347.999219 
L 451.470312 193.399219 
" style="fill: none; stroke: #000000; stroke-width: 0.8; stroke-linejoin: miter; stroke-linecap: square"/>
   </g>
   <g id="patch_10">
    <path d="M 42.620313 347.999219 
L 451.470312 347.999219 
" style="fill: none; stroke: #000000; stroke-width: 0.8; stroke-linejoin: miter; stroke-linecap: square"/>
   </g>
   <g id="patch_11">
    <path d="M 42.620313 193.399219 
L 451.470312 193.399219 
" style="fill: none; stroke: #000000; stroke-width: 0.8; stroke-linejoin: miter; stroke-linecap: square"/>
   </g>
  </g>
  <g id="axes_3">
   <g id="patch_12">
    <path d="M 42.620313 530.399219 
L 451.470312 530.399219 
L 451.470312 375.799219 
L 42.620313 375.799219 
z
" style="fill: #ffffff"/>
   </g>
   <g id="matplotlib.axis_5">
    <g id="xtick_13">
     <g id="line2d_53">
      <path d="M 61.204403 530.399219 
L 61.204403 375.799219 
" clip-path="url(#pb178bc9b0c)" style="fill: none; stroke-dasharray: 0.8,1.32; stroke-dashoffset: 0; stroke: #b0b0b0; stroke-width: 0.8"/>
     </g>
     <g id="line2d_54">
      <g>
       <use xlink:href="#m71bbff1c27" x="61.204403" y="530.399219" style="stroke: #000000; stroke-width: 0.8"/>
      </g>
     </g>
     <g id="text_26">
      <!-- 0 -->
      <g transform="translate(58.023153 544.997656)scale(0.1 -0.1)">
       <use xlink:href="#DejaVuSans-30"/>
      </g>
     </g>
    </g>
    <g id="xtick_14">
     <g id="line2d_55">
      <path d="M 136.291639 530.399219 
L 136.291639 375.799219 
" clip-path="url(#pb178bc9b0c)" style="fill: none; stroke-dasharray: 0.8,1.32; stroke-dashoffset: 0; stroke: #b0b0b0; stroke-width: 0.8"/>
     </g>
     <g id="line2d_56">
      <g>
       <use xlink:href="#m71bbff1c27" x="136.291639" y="530.399219" style="stroke: #000000; stroke-width: 0.8"/>
      </g>
     </g>
     <g id="text_27">
      <!-- 20 -->
      <g transform="translate(129.929139 544.997656)scale(0.1 -0.1)">
       <use xlink:href="#DejaVuSans-32"/>
       <use xlink:href="#DejaVuSans-30" x="63.623047"/>
      </g>
     </g>
    </g>
    <g id="xtick_15">
     <g id="line2d_57">
      <path d="M 211.378875 530.399219 
L 211.378875 375.799219 
" clip-path="url(#pb178bc9b0c)" style="fill: none; stroke-dasharray: 0.8,1.32; stroke-dashoffset: 0; stroke: #b0b0b0; stroke-width: 0.8"/>
     </g>
     <g id="line2d_58">
      <g>
       <use xlink:href="#m71bbff1c27" x="211.378875" y="530.399219" style="stroke: #000000; stroke-width: 0.8"/>
      </g>
     </g>
     <g id="text_28">
      <!-- 40 -->
      <g transform="translate(205.016375 544.997656)scale(0.1 -0.1)">
       <use xlink:href="#DejaVuSans-34"/>
       <use xlink:href="#DejaVuSans-30" x="63.623047"/>
      </g>
     </g>
    </g>
    <g id="xtick_16">
     <g id="line2d_59">
      <path d="M 286.466111 530.399219 
L 286.466111 375.799219 
" clip-path="url(#pb178bc9b0c)" style="fill: none; stroke-dasharray: 0.8,1.32; stroke-dashoffset: 0; stroke: #b0b0b0; stroke-width: 0.8"/>
     </g>
     <g id="line2d_60">
      <g>
       <use xlink:href="#m71bbff1c27" x="286.466111" y="530.399219" style="stroke: #000000; stroke-width: 0.8"/>
      </g>
     </g>
     <g id="text_29">
      <!-- 60 -->
      <g transform="translate(280.103611 544.997656)scale(0.1 -0.1)">
       <use xlink:href="#DejaVuSans-36"/>
       <use xlink:href="#DejaVuSans-30" x="63.623047"/>
      </g>
     </g>
    </g>
    <g id="xtick_17">
     <g id="line2d_61">
      <path d="M 361.553347 530.399219 
L 361.553347 375.799219 
" clip-path="url(#pb178bc9b0c)" style="fill: none; stroke-dasharray: 0.8,1.32; stroke-dashoffset: 0; stroke: #b0b0b0; stroke-width: 0.8"/>
     </g>
     <g id="line2d_62">
      <g>
       <use xlink:href="#m71bbff1c27" x="361.553347" y="530.399219" style="stroke: #000000; stroke-width: 0.8"/>
      </g>
     </g>
     <g id="text_30">
      <!-- 80 -->
      <g transform="translate(355.190847 544.997656)scale(0.1 -0.1)">
       <use xlink:href="#DejaVuSans-38"/>
       <use xlink:href="#DejaVuSans-30" x="63.623047"/>
      </g>
     </g>
    </g>
    <g id="xtick_18">
     <g id="line2d_63">
      <path d="M 436.640583 530.399219 
L 436.640583 375.799219 
" clip-path="url(#pb178bc9b0c)" style="fill: none; stroke-dasharray: 0.8,1.32; stroke-dashoffset: 0; stroke: #b0b0b0; stroke-width: 0.8"/>
     </g>
     <g id="line2d_64">
      <g>
       <use xlink:href="#m71bbff1c27" x="436.640583" y="530.399219" style="stroke: #000000; stroke-width: 0.8"/>
      </g>
     </g>
     <g id="text_31">
      <!-- 100 -->
      <g transform="translate(427.096833 544.997656)scale(0.1 -0.1)">
       <use xlink:href="#DejaVuSans-31"/>
       <use xlink:href="#DejaVuSans-30" x="63.623047"/>
       <use xlink:href="#DejaVuSans-30" x="127.246094"/>
      </g>
     </g>
    </g>
    <g id="text_32">
     <!-- steps -->
     <g transform="translate(233.625 558.675781)scale(0.1 -0.1)">
      <defs>
       <path id="DejaVuSans-73" d="M 2834 3397 
L 2834 2853 
Q 2591 2978 2328 3040 
Q 2066 3103 1784 3103 
Q 1356 3103 1142 2972 
Q 928 2841 928 2578 
Q 928 2378 1081 2264 
Q 1234 2150 1697 2047 
L 1894 2003 
Q 2506 1872 2764 1633 
Q 3022 1394 3022 966 
Q 3022 478 2636 193 
Q 2250 -91 1575 -91 
Q 1294 -91 989 -36 
Q 684 19 347 128 
L 347 722 
Q 666 556 975 473 
Q 1284 391 1588 391 
Q 1994 391 2212 530 
Q 2431 669 2431 922 
Q 2431 1156 2273 1281 
Q 2116 1406 1581 1522 
L 1381 1569 
Q 847 1681 609 1914 
Q 372 2147 372 2553 
Q 372 3047 722 3315 
Q 1072 3584 1716 3584 
Q 2034 3584 2315 3537 
Q 2597 3491 2834 3397 
z
" transform="scale(0.015625)"/>
       <path id="DejaVuSans-74" d="M 1172 4494 
L 1172 3500 
L 2356 3500 
L 2356 3053 
L 1172 3053 
L 1172 1153 
Q 1172 725 1289 603 
Q 1406 481 1766 481 
L 2356 481 
L 2356 0 
L 1766 0 
Q 1100 0 847 248 
Q 594 497 594 1153 
L 594 3053 
L 172 3053 
L 172 3500 
L 594 3500 
L 594 4494 
L 1172 4494 
z
" transform="scale(0.015625)"/>
       <path id="DejaVuSans-65" d="M 3597 1894 
L 3597 1613 
L 953 1613 
Q 991 1019 1311 708 
Q 1631 397 2203 397 
Q 2534 397 2845 478 
Q 3156 559 3463 722 
L 3463 178 
Q 3153 47 2828 -22 
Q 2503 -91 2169 -91 
Q 1331 -91 842 396 
Q 353 884 353 1716 
Q 353 2575 817 3079 
Q 1281 3584 2069 3584 
Q 2775 3584 3186 3129 
Q 3597 2675 3597 1894 
z
M 3022 2063 
Q 3016 2534 2758 2815 
Q 2500 3097 2075 3097 
Q 1594 3097 1305 2825 
Q 1016 2553 972 2059 
L 3022 2063 
z
" transform="scale(0.015625)"/>
       <path id="DejaVuSans-70" d="M 1159 525 
L 1159 -1331 
L 581 -1331 
L 581 3500 
L 1159 3500 
L 1159 2969 
Q 1341 3281 1617 3432 
Q 1894 3584 2278 3584 
Q 2916 3584 3314 3078 
Q 3713 2572 3713 1747 
Q 3713 922 3314 415 
Q 2916 -91 2278 -91 
Q 1894 -91 1617 61 
Q 1341 213 1159 525 
z
M 3116 1747 
Q 3116 2381 2855 2742 
Q 2594 3103 2138 3103 
Q 1681 3103 1420 2742 
Q 1159 2381 1159 1747 
Q 1159 1113 1420 752 
Q 1681 391 2138 391 
Q 2594 391 2855 752 
Q 3116 1113 3116 1747 
z
" transform="scale(0.015625)"/>
      </defs>
      <use xlink:href="#DejaVuSans-73"/>
      <use xlink:href="#DejaVuSans-74" x="52.099609"/>
      <use xlink:href="#DejaVuSans-65" x="91.308594"/>
      <use xlink:href="#DejaVuSans-70" x="152.832031"/>
      <use xlink:href="#DejaVuSans-73" x="216.308594"/>
     </g>
    </g>
   </g>
   <g id="matplotlib.axis_6">
    <g id="ytick_12">
     <g id="line2d_65">
      <path d="M 42.620313 524.11895 
L 451.470312 524.11895 
" clip-path="url(#pb178bc9b0c)" style="fill: none; stroke-dasharray: 0.8,1.32; stroke-dashoffset: 0; stroke: #b0b0b0; stroke-width: 0.8"/>
     </g>
     <g id="line2d_66">
      <g>
       <use xlink:href="#m83f876c9d7" x="42.620313" y="524.11895" style="stroke: #000000; stroke-width: 0.8"/>
      </g>
     </g>
     <g id="text_33">
      <!-- −4 -->
      <g transform="translate(20.878125 527.918168)scale(0.1 -0.1)">
       <use xlink:href="#DejaVuSans-2212"/>
       <use xlink:href="#DejaVuSans-34" x="83.789062"/>
      </g>
     </g>
    </g>
    <g id="ytick_13">
     <g id="line2d_67">
      <path d="M 42.620313 488.795835 
L 451.470312 488.795835 
" clip-path="url(#pb178bc9b0c)" style="fill: none; stroke-dasharray: 0.8,1.32; stroke-dashoffset: 0; stroke: #b0b0b0; stroke-width: 0.8"/>
     </g>
     <g id="line2d_68">
      <g>
       <use xlink:href="#m83f876c9d7" x="42.620313" y="488.795835" style="stroke: #000000; stroke-width: 0.8"/>
      </g>
     </g>
     <g id="text_34">
      <!-- −3 -->
      <g transform="translate(20.878125 492.595054)scale(0.1 -0.1)">
       <use xlink:href="#DejaVuSans-2212"/>
       <use xlink:href="#DejaVuSans-33" x="83.789062"/>
      </g>
     </g>
    </g>
    <g id="ytick_14">
     <g id="line2d_69">
      <path d="M 42.620313 453.472721 
L 451.470312 453.472721 
" clip-path="url(#pb178bc9b0c)" style="fill: none; stroke-dasharray: 0.8,1.32; stroke-dashoffset: 0; stroke: #b0b0b0; stroke-width: 0.8"/>
     </g>
     <g id="line2d_70">
      <g>
       <use xlink:href="#m83f876c9d7" x="42.620313" y="453.472721" style="stroke: #000000; stroke-width: 0.8"/>
      </g>
     </g>
     <g id="text_35">
      <!-- −2 -->
      <g transform="translate(20.878125 457.271939)scale(0.1 -0.1)">
       <use xlink:href="#DejaVuSans-2212"/>
       <use xlink:href="#DejaVuSans-32" x="83.789062"/>
      </g>
     </g>
    </g>
    <g id="ytick_15">
     <g id="line2d_71">
      <path d="M 42.620313 418.149606 
L 451.470312 418.149606 
" clip-path="url(#pb178bc9b0c)" style="fill: none; stroke-dasharray: 0.8,1.32; stroke-dashoffset: 0; stroke: #b0b0b0; stroke-width: 0.8"/>
     </g>
     <g id="line2d_72">
      <g>
       <use xlink:href="#m83f876c9d7" x="42.620313" y="418.149606" style="stroke: #000000; stroke-width: 0.8"/>
      </g>
     </g>
     <g id="text_36">
      <!-- −1 -->
      <g transform="translate(20.878125 421.948825)scale(0.1 -0.1)">
       <use xlink:href="#DejaVuSans-2212"/>
       <use xlink:href="#DejaVuSans-31" x="83.789062"/>
      </g>
     </g>
    </g>
    <g id="ytick_16">
     <g id="line2d_73">
      <path d="M 42.620313 382.826491 
L 451.470312 382.826491 
" clip-path="url(#pb178bc9b0c)" style="fill: none; stroke-dasharray: 0.8,1.32; stroke-dashoffset: 0; stroke: #b0b0b0; stroke-width: 0.8"/>
     </g>
     <g id="line2d_74">
      <g>
       <use xlink:href="#m83f876c9d7" x="42.620313" y="382.826491" style="stroke: #000000; stroke-width: 0.8"/>
      </g>
     </g>
     <g id="text_37">
      <!-- 0 -->
      <g transform="translate(29.257813 386.62571)scale(0.1 -0.1)">
       <use xlink:href="#DejaVuSans-30"/>
      </g>
     </g>
    </g>
    <g id="text_38">
     <!-- loss -->
     <g transform="translate(14.798438 462.757031)rotate(-90)scale(0.1 -0.1)">
      <defs>
       <path id="DejaVuSans-6c" d="M 603 4863 
L 1178 4863 
L 1178 0 
L 603 0 
L 603 4863 
z
" transform="scale(0.015625)"/>
       <path id="DejaVuSans-6f" d="M 1959 3097 
Q 1497 3097 1228 2736 
Q 959 2375 959 1747 
Q 959 1119 1226 758 
Q 1494 397 1959 397 
Q 2419 397 2687 759 
Q 2956 1122 2956 1747 
Q 2956 2369 2687 2733 
Q 2419 3097 1959 3097 
z
M 1959 3584 
Q 2709 3584 3137 3096 
Q 3566 2609 3566 1747 
Q 3566 888 3137 398 
Q 2709 -91 1959 -91 
Q 1206 -91 779 398 
Q 353 888 353 1747 
Q 353 2609 779 3096 
Q 1206 3584 1959 3584 
z
" transform="scale(0.015625)"/>
      </defs>
      <use xlink:href="#DejaVuSans-6c"/>
      <use xlink:href="#DejaVuSans-6f" x="27.783203"/>
      <use xlink:href="#DejaVuSans-73" x="88.964844"/>
      <use xlink:href="#DejaVuSans-73" x="141.064453"/>
     </g>
    </g>
   </g>
   <g id="line2d_75">
    <path d="M 61.204403 382.828609 
L 64.958765 383.333461 
L 68.713127 391.216308 
L 72.467489 423.815039 
L 76.221851 460.608239 
L 79.976212 520.204524 
L 83.730574 485.392084 
L 87.484936 463.762691 
L 91.239298 477.444075 
L 94.99366 507.740664 
L 98.748021 518.958915 
L 102.502383 505.753895 
L 106.256745 496.62872 
L 110.011107 499.324417 
L 113.765469 507.77681 
L 117.51983 515.764451 
L 121.274192 519.067698 
L 125.028554 514.860779 
L 128.782916 508.786856 
L 132.537278 508.760934 
L 136.291639 515.981958 
L 140.046001 522.820258 
L 143.800363 521.103413 
L 147.554725 515.09379 
L 151.309087 513.788269 
L 155.063448 518.063007 
L 158.81781 522.135415 
L 162.572172 521.914043 
L 166.326534 519.655633 
L 170.080896 518.699316 
L 173.835257 519.505575 
L 177.589619 521.089037 
L 181.343981 522.437796 
L 185.098343 522.372401 
L 188.852705 520.952353 
L 192.607066 520.258667 
L 196.361428 521.577108 
L 200.11579 523.210629 
L 203.870152 522.953371 
L 207.624514 521.642873 
L 211.378875 521.490187 
L 215.133237 522.523166 
L 218.887599 523.154338 
L 222.641961 522.876296 
L 226.396323 522.468072 
L 230.150684 522.431833 
L 233.905046 522.718078 
L 237.659408 523.113021 
L 241.41377 523.208447 
L 245.168132 522.861398 
L 248.922493 522.658275 
L 252.676855 523.009114 
L 256.431217 523.364257 
L 260.185579 523.197752 
L 263.939941 522.923281 
L 267.694302 523.024619 
L 271.448664 523.264014 
L 275.203026 523.295974 
L 278.957388 523.198434 
L 282.71175 523.144788 
L 286.466111 523.183873 
L 290.220473 523.294989 
L 293.974835 523.343371 
L 297.729197 523.249874 
L 301.483559 523.194636 
L 305.23792 523.296808 
L 308.992282 523.371946 
L 312.746644 523.308093 
L 316.501006 523.260005 
L 320.255368 523.30784 
L 324.009729 523.351709 
L 327.764091 523.343893 
L 331.518453 523.321298 
L 335.272815 523.314249 
L 339.027177 523.339733 
L 342.781538 523.367415 
L 346.5359 523.348938 
L 350.290262 523.324355 
L 354.044624 523.347591 
L 357.798986 523.371904 
L 361.553347 523.356602 
L 365.307709 523.343708 
L 369.062071 523.355524 
L 372.816433 523.366152 
L 376.570795 523.365023 
L 380.325156 523.358429 
L 384.079518 523.35656 
L 387.83388 523.366396 
L 391.588242 523.371542 
L 395.342604 523.362438 
L 399.096965 523.360467 
L 402.851327 523.369908 
L 406.605689 523.371087 
L 410.360051 523.365655 
L 414.114413 523.366076 
L 417.868774 523.369613 
L 421.623136 523.371045 
L 425.377498 523.369554 
L 429.13186 523.367626 
L 432.886222 523.369992 
" clip-path="url(#pb178bc9b0c)" style="fill: none; stroke: #d62728; stroke-width: 1.5; stroke-linecap: square"/>
   </g>
   <g id="line2d_76">
    <path d="M 61.204403 382.828609 
L 64.958765 382.828643 
L 68.713127 382.828678 
L 72.467489 382.828714 
L 76.221851 382.828752 
L 79.976212 382.828791 
L 83.730574 382.828831 
L 87.484936 382.828872 
L 91.239298 382.828915 
L 94.99366 382.828959 
L 98.748021 382.829005 
L 102.502383 382.829053 
L 106.256745 382.829102 
L 110.011107 382.829153 
L 113.765469 382.829207 
L 117.51983 382.829262 
L 121.274192 382.829319 
L 125.028554 382.829379 
L 128.782916 382.829442 
L 132.537278 382.829507 
L 136.291639 382.829575 
L 140.046001 382.829646 
L 143.800363 382.82972 
L 147.554725 382.829797 
L 151.309087 382.829878 
L 155.063448 382.829964 
L 158.81781 382.830053 
L 162.572172 382.830147 
L 166.326534 382.830245 
L 170.080896 382.830349 
L 173.835257 382.830459 
L 177.589619 382.830575 
L 181.343981 382.830697 
L 185.098343 382.830826 
L 188.852705 382.830964 
L 192.607066 382.83111 
L 196.361428 382.831265 
L 200.11579 382.83143 
L 203.870152 382.831607 
L 207.624514 382.831797 
L 211.378875 382.832 
L 215.133237 382.832218 
L 218.887599 382.832454 
L 222.641961 382.832708 
L 226.396323 382.832984 
L 230.150684 382.833285 
L 233.905046 382.833612 
L 237.659408 382.833971 
L 241.41377 382.834366 
L 245.168132 382.834802 
L 248.922493 382.835285 
L 252.676855 382.835825 
L 256.431217 382.83643 
L 260.185579 382.837114 
L 263.939941 382.837891 
L 267.694302 382.838783 
L 271.448664 382.839813 
L 275.203026 382.841018 
L 278.957388 382.842443 
L 282.71175 382.844151 
L 286.466111 382.846232 
L 290.220473 382.848815 
L 293.974835 382.852096 
L 297.729197 382.856384 
L 301.483559 382.862189 
L 305.23792 382.870415 
L 308.992282 382.882807 
L 312.746644 382.903141 
L 316.501006 382.941037 
L 320.255368 383.027948 
L 324.009729 383.32203 
L 327.764091 385.845177 
L 331.518453 520.881796 
L 335.272815 382.826491 
L 339.027177 382.826491 
L 342.781538 382.826491 
L 346.5359 382.826491 
L 350.290262 382.826491 
L 354.044624 382.826491 
L 357.798986 382.826491 
L 361.553347 382.826491 
L 365.307709 382.826491 
L 369.062071 382.826491 
L 372.816433 382.826491 
L 376.570795 382.826491 
L 380.325156 382.826491 
L 384.079518 382.826491 
L 387.83388 382.826491 
L 391.588242 382.826491 
L 395.342604 382.826491 
L 399.096965 382.826491 
L 402.851327 382.826491 
L 406.605689 382.826491 
L 410.360051 382.826491 
L 414.114413 382.826491 
L 417.868774 382.826491 
L 421.623136 382.826491 
L 425.377498 382.826491 
L 429.13186 382.826491 
L 432.886222 382.826491 
" clip-path="url(#pb178bc9b0c)" style="fill: none; stroke: #9467bd; stroke-width: 1.5; stroke-linecap: square"/>
   </g>
   <g id="line2d_77">
    <path d="M 61.204403 382.828609 
L 64.958765 382.828616 
L 68.713127 382.828629 
L 72.467489 382.828647 
L 76.221851 382.828671 
L 79.976212 382.8287 
L 83.730574 382.828734 
L 87.484936 382.828773 
L 91.239298 382.828816 
L 94.99366 382.828864 
L 98.748021 382.828916 
L 102.502383 382.828974 
L 106.256745 382.829036 
L 110.011107 382.829103 
L 113.765469 382.829175 
L 117.51983 382.829252 
L 121.274192 382.829336 
L 125.028554 382.829425 
L 128.782916 382.829521 
L 132.537278 382.829624 
L 136.291639 382.829734 
L 140.046001 382.829853 
L 143.800363 382.82998 
L 147.554725 382.830117 
L 151.309087 382.830265 
L 155.063448 382.830424 
L 158.81781 382.830596 
L 162.572172 382.830783 
L 166.326534 382.830985 
L 170.080896 382.831206 
L 173.835257 382.831446 
L 177.589619 382.831709 
L 181.343981 382.831998 
L 185.098343 382.832316 
L 188.852705 382.832667 
L 192.607066 382.833057 
L 196.361428 382.833492 
L 200.11579 382.833978 
L 203.870152 382.834525 
L 207.624514 382.835145 
L 211.378875 382.83585 
L 215.133237 382.836658 
L 218.887599 382.837591 
L 222.641961 382.838678 
L 226.396323 382.839954 
L 230.150684 382.84147 
L 233.905046 382.843289 
L 237.659408 382.845504 
L 241.41377 382.84824 
L 245.168132 382.851682 
L 248.922493 382.856099 
L 252.676855 382.861909 
L 256.431217 382.869779 
L 260.185579 382.88083 
L 263.939941 382.897061 
L 267.694302 382.922317 
L 271.448664 382.964756 
L 275.203026 383.0441 
L 278.957388 383.217732 
L 282.71175 383.707021 
L 286.466111 385.891892 
L 290.220473 411.214871 
L 293.974835 386.652178 
L 297.729197 382.826494 
L 301.483559 382.826491 
L 305.23792 382.826491 
L 308.992282 382.826491 
L 312.746644 382.826491 
L 316.501006 382.826491 
L 320.255368 382.826491 
L 324.009729 382.826491 
L 327.764091 382.826491 
L 331.518453 382.826491 
L 335.272815 382.826491 
L 339.027177 382.826491 
L 342.781538 382.826491 
L 346.5359 382.826491 
L 350.290262 382.826491 
L 354.044624 382.826491 
L 357.798986 382.826491 
L 361.553347 382.826491 
L 365.307709 382.826491 
L 369.062071 382.826491 
L 372.816433 382.826491 
L 376.570795 382.826491 
L 380.325156 382.826491 
L 384.079518 382.826491 
L 387.83388 382.826491 
L 391.588242 382.826491 
L 395.342604 382.826491 
L 399.096965 382.826491 
L 402.851327 382.826491 
L 406.605689 382.826491 
L 410.360051 382.826491 
L 414.114413 382.826491 
L 417.868774 382.826491 
L 421.623136 382.826491 
L 425.377498 382.826491 
L 429.13186 382.826491 
L 432.886222 382.826491 
" clip-path="url(#pb178bc9b0c)" style="fill: none; stroke: #8c564b; stroke-width: 1.5; stroke-linecap: square"/>
   </g>
   <g id="patch_13">
    <path d="M 42.620313 530.399219 
L 42.620313 375.799219 
" style="fill: none; stroke: #000000; stroke-width: 0.8; stroke-linejoin: miter; stroke-linecap: square"/>
   </g>
   <g id="patch_14">
    <path d="M 451.470312 530.399219 
L 451.470312 375.799219 
" style="fill: none; stroke: #000000; stroke-width: 0.8; stroke-linejoin: miter; stroke-linecap: square"/>
   </g>
   <g id="patch_15">
    <path d="M 42.620313 530.399219 
L 451.470312 530.399219 
" style="fill: none; stroke: #000000; stroke-width: 0.8; stroke-linejoin: miter; stroke-linecap: square"/>
   </g>
   <g id="patch_16">
    <path d="M 42.620313 375.799219 
L 451.470312 375.799219 
" style="fill: none; stroke: #000000; stroke-width: 0.8; stroke-linejoin: miter; stroke-linecap: square"/>
   </g>
   <g id="legend_1">
    <g id="patch_17">
     <path d="M 380.932813 476.616406 
L 444.470312 476.616406 
Q 446.470312 476.616406 446.470312 474.616406 
L 446.470312 431.582031 
Q 446.470312 429.582031 444.470312 429.582031 
L 380.932813 429.582031 
Q 378.932813 429.582031 378.932813 431.582031 
L 378.932813 474.616406 
Q 378.932813 476.616406 380.932813 476.616406 
z
" style="fill: #ffffff; opacity: 0.8; stroke: #cccccc; stroke-linejoin: miter"/>
    </g>
    <g id="line2d_78">
     <path d="M 382.932813 437.680469 
L 392.932813 437.680469 
L 402.932813 437.680469 
" style="fill: none; stroke: #d62728; stroke-width: 1.5; stroke-linecap: square"/>
    </g>
    <g id="text_39">
     <!-- Adam -->
     <g transform="translate(410.932813 441.180469)scale(0.1 -0.1)">
      <defs>
       <path id="DejaVuSans-41" d="M 2188 4044 
L 1331 1722 
L 3047 1722 
L 2188 4044 
z
M 1831 4666 
L 2547 4666 
L 4325 0 
L 3669 0 
L 3244 1197 
L 1141 1197 
L 716 0 
L 50 0 
L 1831 4666 
z
" transform="scale(0.015625)"/>
       <path id="DejaVuSans-64" d="M 2906 2969 
L 2906 4863 
L 3481 4863 
L 3481 0 
L 2906 0 
L 2906 525 
Q 2725 213 2448 61 
Q 2172 -91 1784 -91 
Q 1150 -91 751 415 
Q 353 922 353 1747 
Q 353 2572 751 3078 
Q 1150 3584 1784 3584 
Q 2172 3584 2448 3432 
Q 2725 3281 2906 2969 
z
M 947 1747 
Q 947 1113 1208 752 
Q 1469 391 1925 391 
Q 2381 391 2643 752 
Q 2906 1113 2906 1747 
Q 2906 2381 2643 2742 
Q 2381 3103 1925 3103 
Q 1469 3103 1208 2742 
Q 947 2381 947 1747 
z
" transform="scale(0.015625)"/>
       <path id="DejaVuSans-61" d="M 2194 1759 
Q 1497 1759 1228 1600 
Q 959 1441 959 1056 
Q 959 750 1161 570 
Q 1363 391 1709 391 
Q 2188 391 2477 730 
Q 2766 1069 2766 1631 
L 2766 1759 
L 2194 1759 
z
M 3341 1997 
L 3341 0 
L 2766 0 
L 2766 531 
Q 2569 213 2275 61 
Q 1981 -91 1556 -91 
Q 1019 -91 701 211 
Q 384 513 384 1019 
Q 384 1609 779 1909 
Q 1175 2209 1959 2209 
L 2766 2209 
L 2766 2266 
Q 2766 2663 2505 2880 
Q 2244 3097 1772 3097 
Q 1472 3097 1187 3025 
Q 903 2953 641 2809 
L 641 3341 
Q 956 3463 1253 3523 
Q 1550 3584 1831 3584 
Q 2591 3584 2966 3190 
Q 3341 2797 3341 1997 
z
" transform="scale(0.015625)"/>
       <path id="DejaVuSans-6d" d="M 3328 2828 
Q 3544 3216 3844 3400 
Q 4144 3584 4550 3584 
Q 5097 3584 5394 3201 
Q 5691 2819 5691 2113 
L 5691 0 
L 5113 0 
L 5113 2094 
Q 5113 2597 4934 2840 
Q 4756 3084 4391 3084 
Q 3944 3084 3684 2787 
Q 3425 2491 3425 1978 
L 3425 0 
L 2847 0 
L 2847 2094 
Q 2847 2600 2669 2842 
Q 2491 3084 2119 3084 
Q 1678 3084 1418 2786 
Q 1159 2488 1159 1978 
L 1159 0 
L 581 0 
L 581 3500 
L 1159 3500 
L 1159 2956 
Q 1356 3278 1631 3431 
Q 1906 3584 2284 3584 
Q 2666 3584 2933 3390 
Q 3200 3197 3328 2828 
z
" transform="scale(0.015625)"/>
      </defs>
      <use xlink:href="#DejaVuSans-41"/>
      <use xlink:href="#DejaVuSans-64" x="66.658203"/>
      <use xlink:href="#DejaVuSans-61" x="130.134766"/>
      <use xlink:href="#DejaVuSans-6d" x="191.414062"/>
     </g>
    </g>
    <g id="line2d_79">
     <path d="M 382.932813 452.358594 
L 392.932813 452.358594 
L 402.932813 452.358594 
" style="fill: none; stroke: #9467bd; stroke-width: 1.5; stroke-linecap: square"/>
    </g>
    <g id="text_40">
     <!-- SGD -->
     <g transform="translate(410.932813 455.858594)scale(0.1 -0.1)">
      <defs>
       <path id="DejaVuSans-53" d="M 3425 4513 
L 3425 3897 
Q 3066 4069 2747 4153 
Q 2428 4238 2131 4238 
Q 1616 4238 1336 4038 
Q 1056 3838 1056 3469 
Q 1056 3159 1242 3001 
Q 1428 2844 1947 2747 
L 2328 2669 
Q 3034 2534 3370 2195 
Q 3706 1856 3706 1288 
Q 3706 609 3251 259 
Q 2797 -91 1919 -91 
Q 1588 -91 1214 -16 
Q 841 59 441 206 
L 441 856 
Q 825 641 1194 531 
Q 1563 422 1919 422 
Q 2459 422 2753 634 
Q 3047 847 3047 1241 
Q 3047 1584 2836 1778 
Q 2625 1972 2144 2069 
L 1759 2144 
Q 1053 2284 737 2584 
Q 422 2884 422 3419 
Q 422 4038 858 4394 
Q 1294 4750 2059 4750 
Q 2388 4750 2728 4690 
Q 3069 4631 3425 4513 
z
" transform="scale(0.015625)"/>
       <path id="DejaVuSans-47" d="M 3809 666 
L 3809 1919 
L 2778 1919 
L 2778 2438 
L 4434 2438 
L 4434 434 
Q 4069 175 3628 42 
Q 3188 -91 2688 -91 
Q 1594 -91 976 548 
Q 359 1188 359 2328 
Q 359 3472 976 4111 
Q 1594 4750 2688 4750 
Q 3144 4750 3555 4637 
Q 3966 4525 4313 4306 
L 4313 3634 
Q 3963 3931 3569 4081 
Q 3175 4231 2741 4231 
Q 1884 4231 1454 3753 
Q 1025 3275 1025 2328 
Q 1025 1384 1454 906 
Q 1884 428 2741 428 
Q 3075 428 3337 486 
Q 3600 544 3809 666 
z
" transform="scale(0.015625)"/>
       <path id="DejaVuSans-44" d="M 1259 4147 
L 1259 519 
L 2022 519 
Q 2988 519 3436 956 
Q 3884 1394 3884 2338 
Q 3884 3275 3436 3711 
Q 2988 4147 2022 4147 
L 1259 4147 
z
M 628 4666 
L 1925 4666 
Q 3281 4666 3915 4102 
Q 4550 3538 4550 2338 
Q 4550 1131 3912 565 
Q 3275 0 1925 0 
L 628 0 
L 628 4666 
z
" transform="scale(0.015625)"/>
      </defs>
      <use xlink:href="#DejaVuSans-53"/>
      <use xlink:href="#DejaVuSans-47" x="63.476562"/>
      <use xlink:href="#DejaVuSans-44" x="140.966797"/>
     </g>
    </g>
    <g id="line2d_80">
     <path d="M 382.932813 467.036719 
L 392.932813 467.036719 
L 402.932813 467.036719 
" style="fill: none; stroke: #8c564b; stroke-width: 1.5; stroke-linecap: square"/>
    </g>
    <g id="text_41">
     <!-- SGDm -->
     <g transform="translate(410.932813 470.536719)scale(0.1 -0.1)">
      <use xlink:href="#DejaVuSans-53"/>
      <use xlink:href="#DejaVuSans-47" x="63.476562"/>
      <use xlink:href="#DejaVuSans-44" x="140.966797"/>
      <use xlink:href="#DejaVuSans-6d" x="217.96875"/>
     </g>
    </g>
   </g>
  </g>
 </g>
 <defs>
  <clipPath id="pf5395d8fd1">
   <rect x="42.620313" y="10.999219" width="408.85" height="154.6"/>
  </clipPath>
  <clipPath id="p2988cc980d">
   <rect x="42.620313" y="193.399219" width="408.85" height="154.6"/>
  </clipPath>
  <clipPath id="pb178bc9b0c">
   <rect x="42.620313" y="375.799219" width="408.85" height="154.6"/>
  </clipPath>
 </defs>
</svg>
