<?xml version="1.0" encoding="utf-8" standalone="no"?>
<!DOCTYPE svg PUBLIC "-//W3C//DTD SVG 1.1//EN"
  "http://www.w3.org/Graphics/SVG/1.1/DTD/svg11.dtd">
<svg xmlns:xlink="http://www.w3.org/1999/xlink" width="614.204687pt" height="194.158125pt" viewBox="0 0 614.204687 194.158125" xmlns="http://www.w3.org/2000/svg" version="1.1">
 <metadata>
  <rdf:RDF xmlns:dc="http://purl.org/dc/elements/1.1/" xmlns:cc="http://creativecommons.org/ns#" xmlns:rdf="http://www.w3.org/1999/02/22-rdf-syntax-ns#">
   <cc:Work>
    <dc:type rdf:resource="http://purl.org/dc/dcmitype/StillImage"/>
    <dc:date>2022-07-08T21:37:48.248444</dc:date>
    <dc:format>image/svg+xml</dc:format>
    <dc:creator>
     <cc:Agent>
      <dc:title>Matplotlib v3.5.1, https://matplotlib.org/</dc:title>
     </cc:Agent>
    </dc:creator>
   </cc:Work>
  </rdf:RDF>
 </metadata>
 <defs>
  <style type="text/css">*{stroke-linejoin: round; stroke-linecap: butt}</style>
 </defs>
 <g id="figure_1">
  <g id="patch_1">
   <path d="M 0 194.158125 
L 614.204687 194.158125 
L 614.204687 0 
L 0 0 
L 0 194.158125 
z
" style="fill: none"/>
  </g>
  <g id="axes_1">
   <g id="patch_2">
    <path d="M 49.004687 170.28 
L 607.004688 170.28 
L 607.004688 7.2 
L 49.004687 7.2 
z
" style="fill: #ffffff"/>
   </g>
   <g id="PolyCollection_1">
    <defs>
     <path id="m7a55eb0213" d="M 104.831601 -66.387486 
L 104.777774 -66.387486 
L 104.642452 -66.741016 
L 104.512406 -67.094546 
L 103.917691 -67.448077 
L 101.622997 -67.801607 
L 98.027425 -68.155137 
L 94.421346 -68.508667 
L 92.140855 -68.862197 
L 91.908649 -69.215727 
L 89.411292 -69.569257 
L 86.438412 -69.922788 
L 84.356423 -70.276318 
L 79.023305 -70.629848 
L 71.99906 -70.983378 
L 69.578785 -71.336908 
L 67.389546 -71.690438 
L 65.593342 -72.043968 
L 62.786417 -72.397498 
L 60.448076 -72.751029 
L 60.921973 -73.104559 
L 60.498731 -73.458089 
L 62.530504 -73.811619 
L 60.972009 -74.165149 
L 60.164687 -74.518679 
L 63.109259 -74.872209 
L 62.148558 -75.225739 
L 60.911285 -75.57927 
L 60.336358 -75.9328 
L 64.163862 -76.28633 
L 69.393569 -76.63986 
L 72.100136 -76.99339 
L 74.317082 -77.34692 
L 73.479934 -77.70045 
L 70.879179 -78.053981 
L 72.505179 -78.407511 
L 75.849404 -78.761041 
L 77.114402 -79.114571 
L 74.510951 -79.468101 
L 72.706754 -79.821631 
L 73.060207 -80.175161 
L 74.818547 -80.528691 
L 77.577989 -80.882222 
L 78.90577 -81.235752 
L 76.643772 -81.589282 
L 76.032076 -81.942812 
L 76.085639 -82.296342 
L 78.368451 -82.649872 
L 81.425603 -83.003402 
L 82.263687 -83.356932 
L 84.101184 -83.710463 
L 85.927992 -84.063993 
L 87.588307 -84.417523 
L 89.178719 -84.771053 
L 90.60083 -85.124583 
L 92.023723 -85.478113 
L 91.847114 -85.831643 
L 93.477733 -86.185173 
L 95.52073 -86.538704 
L 96.725965 -86.892234 
L 97.338201 -87.245764 
L 97.784526 -87.599294 
L 99.84139 -87.952824 
L 101.413304 -88.306354 
L 101.918292 -88.659884 
L 102.451458 -89.013415 
L 102.617771 -89.366945 
L 102.107717 -89.720475 
L 103.029297 -90.074005 
L 103.954359 -90.427535 
L 103.783988 -90.781065 
L 103.814628 -91.134595 
L 104.133209 -91.488125 
L 104.35988 -91.841656 
L 104.326766 -92.195186 
L 104.100773 -92.548716 
L 104.465372 -92.902246 
L 104.767073 -93.255776 
L 104.795902 -93.609306 
L 104.68947 -93.962836 
L 104.447914 -94.316366 
L 104.547054 -94.669897 
L 104.640521 -95.023427 
L 104.448165 -95.376957 
L 104.295524 -95.730487 
L 104.374089 -96.084017 
L 104.554475 -96.437547 
L 104.480555 -96.791077 
L 104.573276 -97.144608 
L 104.756385 -97.498138 
L 104.797823 -97.851668 
L 104.73362 -98.205198 
L 104.608166 -98.558728 
L 104.704753 -98.912258 
L 104.795345 -99.265788 
L 104.804519 -99.619318 
L 104.803524 -99.972849 
L 104.772346 -100.326379 
L 104.639402 -100.679909 
L 104.64939 -101.033439 
L 104.777862 -101.386969 
L 104.831513 -101.386969 
L 104.831513 -101.386969 
L 104.959985 -101.033439 
L 104.969973 -100.679909 
L 104.837029 -100.326379 
L 104.805851 -99.972849 
L 104.804856 -99.619318 
L 104.81403 -99.265788 
L 104.904622 -98.912258 
L 105.001209 -98.558728 
L 104.875755 -98.205198 
L 104.811552 -97.851668 
L 104.85299 -97.498138 
L 105.036099 -97.144608 
L 105.12882 -96.791077 
L 105.0549 -96.437547 
L 105.235286 -96.084017 
L 105.313851 -95.730487 
L 105.16121 -95.376957 
L 104.968854 -95.023427 
L 105.062321 -94.669897 
L 105.161461 -94.316366 
L 104.919905 -93.962836 
L 104.813473 -93.609306 
L 104.842302 -93.255776 
L 105.144003 -92.902246 
L 105.508602 -92.548716 
L 105.282609 -92.195186 
L 105.249495 -91.841656 
L 105.476166 -91.488125 
L 105.794747 -91.134595 
L 105.825387 -90.781065 
L 105.655016 -90.427535 
L 106.580078 -90.074005 
L 107.501658 -89.720475 
L 106.991604 -89.366945 
L 107.157917 -89.013415 
L 107.691083 -88.659884 
L 108.196071 -88.306354 
L 109.767985 -87.952824 
L 111.824849 -87.599294 
L 112.271174 -87.245764 
L 112.88341 -86.892234 
L 114.088645 -86.538704 
L 116.131642 -86.185173 
L 117.762261 -85.831643 
L 117.585652 -85.478113 
L 119.008545 -85.124583 
L 120.430656 -84.771053 
L 122.021068 -84.417523 
L 123.681383 -84.063993 
L 125.508191 -83.710463 
L 127.345688 -83.356932 
L 128.183772 -83.003402 
L 131.240924 -82.649872 
L 133.523736 -82.296342 
L 133.577299 -81.942812 
L 132.965603 -81.589282 
L 130.703605 -81.235752 
L 132.031386 -80.882222 
L 134.790828 -80.528691 
L 136.549168 -80.175161 
L 136.902621 -79.821631 
L 135.098424 -79.468101 
L 132.494973 -79.114571 
L 133.759971 -78.761041 
L 137.104196 -78.407511 
L 138.730196 -78.053981 
L 136.129441 -77.70045 
L 135.292293 -77.34692 
L 137.509239 -76.99339 
L 140.215806 -76.63986 
L 145.445513 -76.28633 
L 149.273017 -75.9328 
L 148.69809 -75.57927 
L 147.460817 -75.225739 
L 146.500116 -74.872209 
L 149.444688 -74.518679 
L 148.637366 -74.165149 
L 147.078871 -73.811619 
L 149.110644 -73.458089 
L 148.687402 -73.104559 
L 149.161299 -72.751029 
L 146.822958 -72.397498 
L 144.016033 -72.043968 
L 142.219829 -71.690438 
L 140.03059 -71.336908 
L 137.610315 -70.983378 
L 130.58607 -70.629848 
L 125.252952 -70.276318 
L 123.170963 -69.922788 
L 120.198083 -69.569257 
L 117.700726 -69.215727 
L 117.46852 -68.862197 
L 115.188029 -68.508667 
L 111.58195 -68.155137 
L 107.986378 -67.801607 
L 105.691684 -67.448077 
L 105.096969 -67.094546 
L 104.966923 -66.741016 
L 104.831601 -66.387486 
z
" style="stroke: #3f3f3f; stroke-width: 1.5"/>
    </defs>
    <g clip-path="url(#pcd8e0ecb76)">
     <use xlink:href="#m7a55eb0213" x="0" y="194.158125" style="fill: #3274a1; stroke: #3f3f3f; stroke-width: 1.5"/>
    </g>
   </g>
   <g id="PolyCollection_2">
    <defs>
     <path id="m778ddceae1" d="M 216.413891 -49.396067 
L 216.395484 -49.396067 
L 216.354946 -50.305284 
L 216.294945 -51.214501 
L 216.093961 -52.123717 
L 215.352017 -53.032934 
L 214.04973 -53.942151 
L 212.650331 -54.851368 
L 211.645519 -55.760585 
L 211.335897 -56.669802 
L 210.603729 -57.579018 
L 209.437649 -58.488235 
L 208.515737 -59.397452 
L 206.696112 -60.306669 
L 204.130442 -61.215886 
L 202.759346 -62.125103 
L 201.95482 -63.034319 
L 201.154667 -63.943536 
L 200.194163 -64.852753 
L 199.238692 -65.76197 
L 199.211333 -66.671187 
L 199.179427 -67.580404 
L 199.687545 -68.48962 
L 199.41419 -69.398837 
L 199.064534 -70.308054 
L 199.884646 -71.217271 
L 199.800511 -72.126488 
L 199.322349 -73.035705 
L 199.15678 -73.944922 
L 200.394852 -74.854138 
L 202.311444 -75.763355 
L 203.541375 -76.672572 
L 204.336597 -77.581789 
L 204.161138 -78.491006 
L 203.353552 -79.400223 
L 203.764959 -80.309439 
L 204.956245 -81.218656 
L 205.442109 -82.127873 
L 204.6715 -83.03709 
L 203.962587 -83.946307 
L 204.029562 -84.855524 
L 204.700059 -85.76474 
L 205.676908 -86.673957 
L 206.148773 -87.583174 
L 205.499857 -88.492391 
L 205.183828 -89.401608 
L 205.265638 -90.310825 
L 206.095971 -91.220041 
L 207.16045 -92.129258 
L 207.6493 -93.038475 
L 208.312196 -93.947692 
L 209.021769 -94.856909 
L 209.687934 -95.766126 
L 210.2934 -96.675342 
L 210.877747 -97.584559 
L 211.339974 -98.493776 
L 211.42965 -99.402993 
L 212.017378 -100.31221 
L 212.766037 -101.221427 
L 213.241157 -102.130643 
L 213.485526 -103.03986 
L 213.754145 -103.949077 
L 214.485489 -104.858294 
L 215.058893 -105.767511 
L 215.292067 -106.676728 
L 215.485152 -107.585944 
L 215.508747 -108.495161 
L 215.419659 -109.404378 
L 215.743883 -110.313595 
L 216.036804 -111.222812 
L 216.012309 -112.132029 
L 216.037088 -113.041246 
L 216.148706 -113.950462 
L 216.226632 -114.859679 
L 216.199839 -115.768896 
L 216.159604 -116.678113 
L 216.285832 -117.58733 
L 216.385902 -118.496547 
L 216.394787 -119.405763 
L 216.342793 -120.31498 
L 216.276106 -121.224197 
L 216.311789 -122.133414 
L 216.323618 -123.042631 
L 216.256926 -123.951848 
L 216.211912 -124.861064 
L 216.252737 -125.770281 
L 216.296619 -126.679498 
L 216.285558 -127.588715 
L 216.329473 -128.497932 
L 216.386881 -129.407149 
L 216.397067 -130.316365 
L 216.365204 -131.225582 
L 216.337641 -132.134799 
L 216.373496 -133.044016 
L 216.400714 -133.953233 
L 216.404475 -134.86245 
L 216.402094 -135.771666 
L 216.379901 -136.680883 
L 216.339807 -137.5901 
L 216.358192 -138.499317 
L 216.395565 -139.408534 
L 216.41381 -139.408534 
L 216.41381 -139.408534 
L 216.451183 -138.499317 
L 216.469568 -137.5901 
L 216.429474 -136.680883 
L 216.407281 -135.771666 
L 216.4049 -134.86245 
L 216.408661 -133.953233 
L 216.435879 -133.044016 
L 216.471734 -132.134799 
L 216.444171 -131.225582 
L 216.412308 -130.316365 
L 216.422494 -129.407149 
L 216.479902 -128.497932 
L 216.523817 -127.588715 
L 216.512756 -126.679498 
L 216.556638 -125.770281 
L 216.597463 -124.861064 
L 216.552449 -123.951848 
L 216.485757 -123.042631 
L 216.497586 -122.133414 
L 216.533269 -121.224197 
L 216.466582 -120.31498 
L 216.414588 -119.405763 
L 216.423473 -118.496547 
L 216.523543 -117.58733 
L 216.649771 -116.678113 
L 216.609536 -115.768896 
L 216.582743 -114.859679 
L 216.660669 -113.950462 
L 216.772287 -113.041246 
L 216.797066 -112.132029 
L 216.772571 -111.222812 
L 217.065492 -110.313595 
L 217.389716 -109.404378 
L 217.300628 -108.495161 
L 217.324223 -107.585944 
L 217.517308 -106.676728 
L 217.750482 -105.767511 
L 218.323886 -104.858294 
L 219.05523 -103.949077 
L 219.323849 -103.03986 
L 219.568218 -102.130643 
L 220.043338 -101.221427 
L 220.791997 -100.31221 
L 221.379725 -99.402993 
L 221.469401 -98.493776 
L 221.931628 -97.584559 
L 222.515975 -96.675342 
L 223.121441 -95.766126 
L 223.787606 -94.856909 
L 224.497179 -93.947692 
L 225.160075 -93.038475 
L 225.648925 -92.129258 
L 226.713404 -91.220041 
L 227.543737 -90.310825 
L 227.625547 -89.401608 
L 227.309518 -88.492391 
L 226.660602 -87.583174 
L 227.132467 -86.673957 
L 228.109316 -85.76474 
L 228.779813 -84.855524 
L 228.846788 -83.946307 
L 228.137875 -83.03709 
L 227.367266 -82.127873 
L 227.85313 -81.218656 
L 229.044416 -80.309439 
L 229.455823 -79.400223 
L 228.648237 -78.491006 
L 228.472778 -77.581789 
L 229.268 -76.672572 
L 230.497931 -75.763355 
L 232.414523 -74.854138 
L 233.652595 -73.944922 
L 233.487026 -73.035705 
L 233.008864 -72.126488 
L 232.924729 -71.217271 
L 233.744841 -70.308054 
L 233.395185 -69.398837 
L 233.12183 -68.48962 
L 233.629948 -67.580404 
L 233.598042 -66.671187 
L 233.570683 -65.76197 
L 232.615212 -64.852753 
L 231.654708 -63.943536 
L 230.854555 -63.034319 
L 230.050029 -62.125103 
L 228.678933 -61.215886 
L 226.113263 -60.306669 
L 224.293638 -59.397452 
L 223.371726 -58.488235 
L 222.205646 -57.579018 
L 221.473478 -56.669802 
L 221.163856 -55.760585 
L 220.159044 -54.851368 
L 218.759645 -53.942151 
L 217.457358 -53.032934 
L 216.715414 -52.123717 
L 216.51443 -51.214501 
L 216.454429 -50.305284 
L 216.413891 -49.396067 
z
" style="stroke: #3f3f3f; stroke-width: 1.5"/>
    </defs>
    <g clip-path="url(#pcd8e0ecb76)">
     <use xlink:href="#m778ddceae1" x="0" y="194.158125" style="fill: #3274a1; stroke: #3f3f3f; stroke-width: 1.5"/>
    </g>
   </g>
   <g id="PolyCollection_3">
    <defs>
     <path id="mb4836c5de7" d="M 328.011878 -41.625871 
L 327.997497 -41.625871 
L 327.965827 -42.789668 
L 327.918953 -43.953464 
L 327.76194 -45.117261 
L 327.1823 -46.281057 
L 326.164885 -47.444854 
L 325.071606 -48.60865 
L 324.286596 -49.772446 
L 324.044697 -50.936243 
L 323.472693 -52.100039 
L 322.561681 -53.263836 
L 321.841445 -54.427632 
L 320.419902 -55.591429 
L 318.415494 -56.755225 
L 317.344284 -57.919022 
L 316.715736 -59.082818 
L 316.0906 -60.246614 
L 315.340226 -61.410411 
L 314.593756 -62.574207 
L 314.572399 -63.738004 
L 314.547478 -64.9018 
L 314.944414 -66.065597 
L 314.730865 -67.229393 
L 314.457666 -68.39319 
L 315.098384 -69.556986 
L 315.032687 -70.720783 
L 314.659134 -71.884579 
L 314.52975 -73.048375 
L 315.496953 -74.212172 
L 316.994298 -75.375968 
L 317.9552 -76.539765 
L 318.576479 -77.703561 
L 318.439436 -78.867358 
L 317.808496 -80.031154 
L 318.129867 -81.194951 
L 319.060566 -82.358747 
L 319.44019 -83.522543 
L 318.838169 -84.68634 
L 318.284311 -85.850136 
L 318.336585 -87.013933 
L 318.860402 -88.177729 
L 319.623575 -89.341526 
L 319.99228 -90.505322 
L 319.485322 -91.669119 
L 319.238396 -92.832915 
L 319.302284 -93.996712 
L 319.950952 -95.160508 
L 320.7826 -96.324304 
L 321.164527 -97.488101 
L 321.682393 -98.651897 
L 322.236743 -99.815694 
L 322.757216 -100.97949 
L 323.230237 -102.143287 
L 323.686724 -103.307083 
L 324.04787 -104.47088 
L 324.117926 -105.634676 
L 324.57706 -106.798473 
L 325.161961 -107.962269 
L 325.533166 -109.126065 
L 325.724093 -110.289862 
L 325.933931 -111.453658 
L 326.505275 -112.617455 
L 326.953266 -113.781251 
L 327.135442 -114.945048 
L 327.286303 -116.108844 
L 327.304755 -117.272641 
L 327.235128 -118.436437 
L 327.488395 -119.600233 
L 327.717257 -120.76403 
L 327.698139 -121.927826 
L 327.717503 -123.091623 
L 327.804704 -124.255419 
L 327.865577 -125.419216 
L 327.844644 -126.583012 
L 327.813209 -127.746809 
L 327.91183 -128.910605 
L 327.990012 -130.074402 
L 327.996954 -131.238198 
L 327.95634 -132.401994 
L 327.904237 -133.565791 
L 327.932105 -134.729587 
L 327.941356 -135.893384 
L 327.889258 -137.05718 
L 327.854083 -138.220977 
L 327.885966 -139.384773 
L 327.920261 -140.54857 
L 327.911619 -141.712366 
L 327.945916 -142.876163 
L 327.990771 -144.039959 
L 327.998735 -145.203755 
L 327.973847 -146.367552 
L 327.952306 -147.531348 
L 327.980314 -148.695145 
L 328.001582 -149.858941 
L 328.004521 -151.022738 
L 328.002661 -152.186534 
L 327.985323 -153.350331 
L 327.954 -154.514127 
L 327.968363 -155.677923 
L 327.997561 -156.84172 
L 328.011814 -156.84172 
L 328.011814 -156.84172 
L 328.041012 -155.677923 
L 328.055375 -154.514127 
L 328.024052 -153.350331 
L 328.006714 -152.186534 
L 328.004854 -151.022738 
L 328.007793 -149.858941 
L 328.029061 -148.695145 
L 328.057069 -147.531348 
L 328.035528 -146.367552 
L 328.01064 -145.203755 
L 328.018604 -144.039959 
L 328.063459 -142.876163 
L 328.097756 -141.712366 
L 328.089114 -140.54857 
L 328.123409 -139.384773 
L 328.155292 -138.220977 
L 328.120117 -137.05718 
L 328.068019 -135.893384 
L 328.07727 -134.729587 
L 328.105138 -133.565791 
L 328.053035 -132.401994 
L 328.012421 -131.238198 
L 328.019363 -130.074402 
L 328.097545 -128.910605 
L 328.196166 -127.746809 
L 328.164731 -126.583012 
L 328.143798 -125.419216 
L 328.204671 -124.255419 
L 328.291872 -123.091623 
L 328.311236 -121.927826 
L 328.292118 -120.76403 
L 328.52098 -119.600233 
L 328.774247 -118.436437 
L 328.70462 -117.272641 
L 328.723072 -116.108844 
L 328.873933 -114.945048 
L 329.056109 -113.781251 
L 329.5041 -112.617455 
L 330.075444 -111.453658 
L 330.285282 -110.289862 
L 330.476209 -109.126065 
L 330.847414 -107.962269 
L 331.432315 -106.798473 
L 331.891449 -105.634676 
L 331.961505 -104.47088 
L 332.322651 -103.307083 
L 332.779138 -102.143287 
L 333.252159 -100.97949 
L 333.772632 -99.815694 
L 334.326982 -98.651897 
L 334.844848 -97.488101 
L 335.226775 -96.324304 
L 336.058423 -95.160508 
L 336.707091 -93.996712 
L 336.770979 -92.832915 
L 336.524053 -91.669119 
L 336.017095 -90.505322 
L 336.3858 -89.341526 
L 337.148973 -88.177729 
L 337.67279 -87.013933 
L 337.725064 -85.850136 
L 337.171206 -84.68634 
L 336.569185 -83.522543 
L 336.948809 -82.358747 
L 337.879508 -81.194951 
L 338.200879 -80.031154 
L 337.569939 -78.867358 
L 337.432896 -77.703561 
L 338.054175 -76.539765 
L 339.015077 -75.375968 
L 340.512422 -74.212172 
L 341.479625 -73.048375 
L 341.350241 -71.884579 
L 340.976688 -70.720783 
L 340.910991 -69.556986 
L 341.551709 -68.39319 
L 341.27851 -67.229393 
L 341.064961 -66.065597 
L 341.461897 -64.9018 
L 341.436976 -63.738004 
L 341.415619 -62.574207 
L 340.669149 -61.410411 
L 339.918775 -60.246614 
L 339.293639 -59.082818 
L 338.665091 -57.919022 
L 337.593881 -56.755225 
L 335.589473 -55.591429 
L 334.16793 -54.427632 
L 333.447694 -53.263836 
L 332.536682 -52.100039 
L 331.964678 -50.936243 
L 331.722779 -49.772446 
L 330.937769 -48.60865 
L 329.84449 -47.444854 
L 328.827075 -46.281057 
L 328.247435 -45.117261 
L 328.090422 -43.953464 
L 328.043548 -42.789668 
L 328.011878 -41.625871 
z
" style="stroke: #3f3f3f; stroke-width: 1.5"/>
    </defs>
    <g clip-path="url(#pcd8e0ecb76)">
     <use xlink:href="#mb4836c5de7" x="0" y="194.158125" style="fill: #3274a1; stroke: #3f3f3f; stroke-width: 1.5"/>
    </g>
   </g>
   <g id="PolyCollection_4">
    <defs>
     <path id="me27a962be1" d="M 439.609637 -31.290852 
L 439.599738 -31.290852 
L 439.580664 -32.788373 
L 439.543192 -34.285894 
L 439.432344 -35.783414 
L 439.061308 -37.280935 
L 438.354581 -38.778456 
L 437.520425 -40.275976 
L 436.854323 -41.773497 
L 436.532549 -43.271018 
L 436.155043 -44.768538 
L 435.508377 -46.266059 
L 434.872296 -47.76358 
L 433.882456 -49.2611 
L 432.461162 -50.758621 
L 431.43812 -52.256142 
L 430.877713 -53.753662 
L 430.373764 -55.251183 
L 429.81553 -56.748704 
L 429.258544 -58.246224 
L 429.105589 -59.743745 
L 429.12177 -61.241265 
L 429.312918 -62.738786 
L 429.265268 -64.236307 
L 429.101318 -65.733827 
L 429.404019 -67.231348 
L 429.468463 -68.728869 
L 429.22728 -70.226389 
L 429.157013 -71.72391 
L 429.773404 -73.221431 
L 430.838418 -74.718951 
L 431.660718 -76.216472 
L 432.139576 -77.713993 
L 432.110558 -79.211513 
L 431.753283 -80.709034 
L 431.906729 -82.206555 
L 432.520988 -83.704075 
L 432.818383 -85.201596 
L 432.483994 -86.699117 
L 432.082818 -88.196637 
L 432.083986 -89.694158 
L 432.460179 -91.191679 
L 432.997289 -92.689199 
L 433.25688 -94.18672 
L 432.990735 -95.684241 
L 432.785388 -97.181761 
L 432.858233 -98.679282 
L 433.320991 -100.176803 
L 433.906922 -101.674323 
L 434.275573 -103.171844 
L 434.666745 -104.669365 
L 435.095792 -106.166885 
L 435.504409 -107.664406 
L 435.87673 -109.161927 
L 436.230618 -110.659447 
L 436.484126 -112.156968 
L 436.615752 -113.654489 
L 436.953202 -115.152009 
L 437.376882 -116.64953 
L 437.666099 -118.147051 
L 437.830615 -119.644571 
L 438.042437 -121.142092 
L 438.445027 -122.639613 
L 438.771897 -124.137133 
L 438.932558 -125.634654 
L 439.036234 -127.132175 
L 439.044063 -128.629695 
L 439.04463 -130.127216 
L 439.2174 -131.624737 
L 439.361033 -133.122257 
L 439.369401 -134.619778 
L 439.392248 -136.117299 
L 439.452383 -137.614819 
L 439.489666 -139.11234 
L 439.474546 -140.609861 
L 439.473175 -142.107381 
L 439.53953 -143.604902 
L 439.590159 -145.102423 
L 439.591925 -146.599943 
L 439.559331 -148.097464 
L 439.533812 -149.594985 
L 439.54893 -151.092505 
L 439.545182 -152.590026 
L 439.510235 -154.087546 
L 439.494135 -155.585067 
L 439.517804 -157.082588 
L 439.534938 -158.580108 
L 439.538783 -160.077629 
L 439.566592 -161.57515 
L 439.593734 -163.07267 
L 439.594968 -164.570191 
L 439.576404 -166.067712 
L 439.570516 -167.565232 
L 439.589356 -169.062753 
L 439.602124 -170.560274 
L 439.604108 -172.057794 
L 439.599682 -173.555315 
L 439.582708 -175.052836 
L 439.568873 -176.550356 
L 439.58305 -178.047877 
L 439.59984 -179.545398 
L 439.609535 -179.545398 
L 439.609535 -179.545398 
L 439.626325 -178.047877 
L 439.640502 -176.550356 
L 439.626667 -175.052836 
L 439.609693 -173.555315 
L 439.605267 -172.057794 
L 439.607251 -170.560274 
L 439.620019 -169.062753 
L 439.638859 -167.565232 
L 439.632971 -166.067712 
L 439.614407 -164.570191 
L 439.615641 -163.07267 
L 439.642783 -161.57515 
L 439.670592 -160.077629 
L 439.674437 -158.580108 
L 439.691571 -157.082588 
L 439.71524 -155.585067 
L 439.69914 -154.087546 
L 439.664193 -152.590026 
L 439.660445 -151.092505 
L 439.675563 -149.594985 
L 439.650044 -148.097464 
L 439.61745 -146.599943 
L 439.619216 -145.102423 
L 439.669845 -143.604902 
L 439.7362 -142.107381 
L 439.734829 -140.609861 
L 439.719709 -139.11234 
L 439.756992 -137.614819 
L 439.817127 -136.117299 
L 439.839974 -134.619778 
L 439.848342 -133.122257 
L 439.991975 -131.624737 
L 440.164745 -130.127216 
L 440.165312 -128.629695 
L 440.173141 -127.132175 
L 440.276817 -125.634654 
L 440.437478 -124.137133 
L 440.764348 -122.639613 
L 441.166938 -121.142092 
L 441.37876 -119.644571 
L 441.543276 -118.147051 
L 441.832493 -116.64953 
L 442.256173 -115.152009 
L 442.593623 -113.654489 
L 442.725249 -112.156968 
L 442.978757 -110.659447 
L 443.332645 -109.161927 
L 443.704966 -107.664406 
L 444.113583 -106.166885 
L 444.54263 -104.669365 
L 444.933802 -103.171844 
L 445.302453 -101.674323 
L 445.888384 -100.176803 
L 446.351142 -98.679282 
L 446.423987 -97.181761 
L 446.21864 -95.684241 
L 445.952495 -94.18672 
L 446.212086 -92.689199 
L 446.749196 -91.191679 
L 447.125389 -89.694158 
L 447.126557 -88.196637 
L 446.725381 -86.699117 
L 446.390992 -85.201596 
L 446.688387 -83.704075 
L 447.302646 -82.206555 
L 447.456092 -80.709034 
L 447.098817 -79.211513 
L 447.069799 -77.713993 
L 447.548657 -76.216472 
L 448.370957 -74.718951 
L 449.435971 -73.221431 
L 450.052362 -71.72391 
L 449.982095 -70.226389 
L 449.740912 -68.728869 
L 449.805356 -67.231348 
L 450.108057 -65.733827 
L 449.944107 -64.236307 
L 449.896457 -62.738786 
L 450.087605 -61.241265 
L 450.103786 -59.743745 
L 449.950831 -58.246224 
L 449.393845 -56.748704 
L 448.835611 -55.251183 
L 448.331662 -53.753662 
L 447.771255 -52.256142 
L 446.748213 -50.758621 
L 445.326919 -49.2611 
L 444.337079 -47.76358 
L 443.700998 -46.266059 
L 443.054332 -44.768538 
L 442.676826 -43.271018 
L 442.355052 -41.773497 
L 441.68895 -40.275976 
L 440.854794 -38.778456 
L 440.148067 -37.280935 
L 439.777031 -35.783414 
L 439.666183 -34.285894 
L 439.628711 -32.788373 
L 439.609637 -31.290852 
z
" style="stroke: #3f3f3f; stroke-width: 1.5"/>
    </defs>
    <g clip-path="url(#pcd8e0ecb76)">
     <use xlink:href="#me27a962be1" x="0" y="194.158125" style="fill: #3274a1; stroke: #3f3f3f; stroke-width: 1.5"/>
    </g>
   </g>
   <g id="PolyCollection_5">
    <defs>
     <path id="mc977f96e49" d="M 551.210499 -46.519023 
L 551.198876 -46.519023 
L 551.183485 -47.503294 
L 551.138498 -48.487564 
L 551.016281 -49.471835 
L 550.722645 -50.456106 
L 550.149787 -51.440377 
L 549.280527 -52.424648 
L 548.257451 -53.408919 
L 547.289282 -54.39319 
L 546.455693 -55.377461 
L 545.643529 -56.361732 
L 544.681682 -57.346003 
L 543.451531 -58.330274 
L 541.930287 -59.314545 
L 540.285136 -60.298816 
L 538.806685 -61.283087 
L 537.63525 -62.267358 
L 536.694322 -63.251629 
L 535.906287 -64.2359 
L 535.324994 -65.220171 
L 535.026382 -66.204442 
L 534.962816 -67.188713 
L 534.989017 -68.172984 
L 535.018024 -69.157254 
L 535.072904 -70.141525 
L 535.14242 -71.125796 
L 535.178534 -72.110067 
L 535.309448 -73.094338 
L 535.806678 -74.078609 
L 536.746673 -75.06288 
L 537.852867 -76.047151 
L 538.726097 -77.031422 
L 539.160847 -78.015693 
L 539.285329 -78.999964 
L 539.427338 -79.984235 
L 539.738442 -80.968506 
L 540.01645 -81.952777 
L 540.02606 -82.937048 
L 539.857555 -83.921319 
L 539.821471 -84.90559 
L 540.084853 -85.889861 
L 540.509836 -86.874132 
L 540.813497 -87.858403 
L 540.871239 -88.842674 
L 540.850192 -89.826944 
L 541.019816 -90.811215 
L 541.486573 -91.795486 
L 542.142565 -92.779757 
L 542.832512 -93.764028 
L 543.499304 -94.748299 
L 544.150417 -95.73257 
L 544.780091 -96.716841 
L 545.36234 -97.701112 
L 545.870841 -98.685383 
L 546.310144 -99.669654 
L 546.741189 -100.653925 
L 547.220127 -101.638196 
L 547.715912 -102.622467 
L 548.165115 -103.606738 
L 548.579211 -104.591009 
L 549.017122 -105.57528 
L 549.471234 -106.559551 
L 549.858994 -107.543822 
L 550.121291 -108.528093 
L 550.272319 -109.512364 
L 550.378303 -110.496634 
L 550.504891 -111.480905 
L 550.653843 -112.465176 
L 550.77812 -113.449447 
L 550.861008 -114.433718 
L 550.92272 -115.417989 
L 550.971381 -116.40226 
L 551.003654 -117.386531 
L 551.033233 -118.370802 
L 551.077142 -119.355073 
L 551.124353 -120.339344 
L 551.148029 -121.323615 
L 551.141696 -122.307886 
L 551.123606 -123.292157 
L 551.10886 -124.276428 
L 551.093998 -125.260699 
L 551.07552 -126.24497 
L 551.064549 -127.229241 
L 551.070763 -128.213512 
L 551.089767 -129.197783 
L 551.114719 -130.182054 
L 551.142194 -131.166324 
L 551.164066 -132.150595 
L 551.171891 -133.134866 
L 551.169955 -134.119137 
L 551.171297 -135.103408 
L 551.180774 -136.087679 
L 551.190856 -137.07195 
L 551.19273 -138.056221 
L 551.184876 -139.040492 
L 551.174277 -140.024763 
L 551.171476 -141.009034 
L 551.179726 -141.993305 
L 551.19182 -142.977576 
L 551.200139 -143.961847 
L 551.209236 -143.961847 
L 551.209236 -143.961847 
L 551.217555 -142.977576 
L 551.229649 -141.993305 
L 551.237899 -141.009034 
L 551.235098 -140.024763 
L 551.224499 -139.040492 
L 551.216645 -138.056221 
L 551.218519 -137.07195 
L 551.228601 -136.087679 
L 551.238078 -135.103408 
L 551.23942 -134.119137 
L 551.237484 -133.134866 
L 551.245309 -132.150595 
L 551.267181 -131.166324 
L 551.294656 -130.182054 
L 551.319608 -129.197783 
L 551.338612 -128.213512 
L 551.344826 -127.229241 
L 551.333855 -126.24497 
L 551.315377 -125.260699 
L 551.300515 -124.276428 
L 551.285769 -123.292157 
L 551.267679 -122.307886 
L 551.261346 -121.323615 
L 551.285022 -120.339344 
L 551.332233 -119.355073 
L 551.376142 -118.370802 
L 551.405721 -117.386531 
L 551.437994 -116.40226 
L 551.486655 -115.417989 
L 551.548367 -114.433718 
L 551.631255 -113.449447 
L 551.755532 -112.465176 
L 551.904484 -111.480905 
L 552.031072 -110.496634 
L 552.137056 -109.512364 
L 552.288084 -108.528093 
L 552.550381 -107.543822 
L 552.938141 -106.559551 
L 553.392253 -105.57528 
L 553.830164 -104.591009 
L 554.24426 -103.606738 
L 554.693463 -102.622467 
L 555.189248 -101.638196 
L 555.668186 -100.653925 
L 556.099231 -99.669654 
L 556.538534 -98.685383 
L 557.047035 -97.701112 
L 557.629284 -96.716841 
L 558.258958 -95.73257 
L 558.910071 -94.748299 
L 559.576863 -93.764028 
L 560.26681 -92.779757 
L 560.922802 -91.795486 
L 561.389559 -90.811215 
L 561.559183 -89.826944 
L 561.538136 -88.842674 
L 561.595878 -87.858403 
L 561.899539 -86.874132 
L 562.324522 -85.889861 
L 562.587904 -84.90559 
L 562.55182 -83.921319 
L 562.383315 -82.937048 
L 562.392925 -81.952777 
L 562.670933 -80.968506 
L 562.982037 -79.984235 
L 563.124046 -78.999964 
L 563.248528 -78.015693 
L 563.683278 -77.031422 
L 564.556508 -76.047151 
L 565.662702 -75.06288 
L 566.602697 -74.078609 
L 567.099927 -73.094338 
L 567.230841 -72.110067 
L 567.266955 -71.125796 
L 567.336471 -70.141525 
L 567.391351 -69.157254 
L 567.420358 -68.172984 
L 567.446559 -67.188713 
L 567.382993 -66.204442 
L 567.084381 -65.220171 
L 566.503088 -64.2359 
L 565.715053 -63.251629 
L 564.774125 -62.267358 
L 563.60269 -61.283087 
L 562.124239 -60.298816 
L 560.479088 -59.314545 
L 558.957844 -58.330274 
L 557.727693 -57.346003 
L 556.765846 -56.361732 
L 555.953682 -55.377461 
L 555.120093 -54.39319 
L 554.151924 -53.408919 
L 553.128848 -52.424648 
L 552.259588 -51.440377 
L 551.68673 -50.456106 
L 551.393094 -49.471835 
L 551.270877 -48.487564 
L 551.22589 -47.503294 
L 551.210499 -46.519023 
z
" style="stroke: #3f3f3f; stroke-width: 1.5"/>
    </defs>
    <g clip-path="url(#pcd8e0ecb76)">
     <use xlink:href="#mc977f96e49" x="0" y="194.158125" style="fill: #3274a1; stroke: #3f3f3f; stroke-width: 1.5"/>
    </g>
   </g>
   <g id="matplotlib.axis_1">
    <g id="xtick_1">
     <g id="line2d_1">
      <defs>
       <path id="m36d8b329e9" d="M 0 0 
L 0 3.5 
" style="stroke: #000000; stroke-width: 0.8"/>
      </defs>
      <g>
       <use xlink:href="#m36d8b329e9" x="104.804688" y="170.28" style="stroke: #000000; stroke-width: 0.8"/>
      </g>
     </g>
     <g id="text_1">
      <!-- (1, id) -->
      <g transform="translate(89.980469 184.878438)scale(0.1 -0.1)">
       <defs>
        <path id="DejaVuSans-28" d="M 1984 4856 
Q 1566 4138 1362 3434 
Q 1159 2731 1159 2009 
Q 1159 1288 1364 580 
Q 1569 -128 1984 -844 
L 1484 -844 
Q 1016 -109 783 600 
Q 550 1309 550 2009 
Q 550 2706 781 3412 
Q 1013 4119 1484 4856 
L 1984 4856 
z
" transform="scale(0.015625)"/>
        <path id="DejaVuSans-31" d="M 794 531 
L 1825 531 
L 1825 4091 
L 703 3866 
L 703 4441 
L 1819 4666 
L 2450 4666 
L 2450 531 
L 3481 531 
L 3481 0 
L 794 0 
L 794 531 
z
" transform="scale(0.015625)"/>
        <path id="DejaVuSans-2c" d="M 750 794 
L 1409 794 
L 1409 256 
L 897 -744 
L 494 -744 
L 750 256 
L 750 794 
z
" transform="scale(0.015625)"/>
        <path id="DejaVuSans-20" transform="scale(0.015625)"/>
        <path id="DejaVuSans-69" d="M 603 3500 
L 1178 3500 
L 1178 0 
L 603 0 
L 603 3500 
z
M 603 4863 
L 1178 4863 
L 1178 4134 
L 603 4134 
L 603 4863 
z
" transform="scale(0.015625)"/>
        <path id="DejaVuSans-64" d="M 2906 2969 
L 2906 4863 
L 3481 4863 
L 3481 0 
L 2906 0 
L 2906 525 
Q 2725 213 2448 61 
Q 2172 -91 1784 -91 
Q 1150 -91 751 415 
Q 353 922 353 1747 
Q 353 2572 751 3078 
Q 1150 3584 1784 3584 
Q 2172 3584 2448 3432 
Q 2725 3281 2906 2969 
z
M 947 1747 
Q 947 1113 1208 752 
Q 1469 391 1925 391 
Q 2381 391 2643 752 
Q 2906 1113 2906 1747 
Q 2906 2381 2643 2742 
Q 2381 3103 1925 3103 
Q 1469 3103 1208 2742 
Q 947 2381 947 1747 
z
" transform="scale(0.015625)"/>
        <path id="DejaVuSans-29" d="M 513 4856 
L 1013 4856 
Q 1481 4119 1714 3412 
Q 1947 2706 1947 2009 
Q 1947 1309 1714 600 
Q 1481 -109 1013 -844 
L 513 -844 
Q 928 -128 1133 580 
Q 1338 1288 1338 2009 
Q 1338 2731 1133 3434 
Q 928 4138 513 4856 
z
" transform="scale(0.015625)"/>
       </defs>
       <use xlink:href="#DejaVuSans-28"/>
       <use xlink:href="#DejaVuSans-31" x="39.013672"/>
       <use xlink:href="#DejaVuSans-2c" x="102.636719"/>
       <use xlink:href="#DejaVuSans-20" x="134.423828"/>
       <use xlink:href="#DejaVuSans-69" x="166.210938"/>
       <use xlink:href="#DejaVuSans-64" x="193.994141"/>
       <use xlink:href="#DejaVuSans-29" x="257.470703"/>
      </g>
     </g>
    </g>
    <g id="xtick_2">
     <g id="line2d_2">
      <g>
       <use xlink:href="#m36d8b329e9" x="216.404688" y="170.28" style="stroke: #000000; stroke-width: 0.8"/>
      </g>
     </g>
     <g id="text_2">
      <!-- (2, id) -->
      <g transform="translate(201.580469 184.878438)scale(0.1 -0.1)">
       <defs>
        <path id="DejaVuSans-32" d="M 1228 531 
L 3431 531 
L 3431 0 
L 469 0 
L 469 531 
Q 828 903 1448 1529 
Q 2069 2156 2228 2338 
Q 2531 2678 2651 2914 
Q 2772 3150 2772 3378 
Q 2772 3750 2511 3984 
Q 2250 4219 1831 4219 
Q 1534 4219 1204 4116 
Q 875 4013 500 3803 
L 500 4441 
Q 881 4594 1212 4672 
Q 1544 4750 1819 4750 
Q 2544 4750 2975 4387 
Q 3406 4025 3406 3419 
Q 3406 3131 3298 2873 
Q 3191 2616 2906 2266 
Q 2828 2175 2409 1742 
Q 1991 1309 1228 531 
z
" transform="scale(0.015625)"/>
       </defs>
       <use xlink:href="#DejaVuSans-28"/>
       <use xlink:href="#DejaVuSans-32" x="39.013672"/>
       <use xlink:href="#DejaVuSans-2c" x="102.636719"/>
       <use xlink:href="#DejaVuSans-20" x="134.423828"/>
       <use xlink:href="#DejaVuSans-69" x="166.210938"/>
       <use xlink:href="#DejaVuSans-64" x="193.994141"/>
       <use xlink:href="#DejaVuSans-29" x="257.470703"/>
      </g>
     </g>
    </g>
    <g id="xtick_3">
     <g id="line2d_3">
      <g>
       <use xlink:href="#m36d8b329e9" x="328.004688" y="170.28" style="stroke: #000000; stroke-width: 0.8"/>
      </g>
     </g>
     <g id="text_3">
      <!-- (3, id) -->
      <g transform="translate(313.180469 184.878438)scale(0.1 -0.1)">
       <defs>
        <path id="DejaVuSans-33" d="M 2597 2516 
Q 3050 2419 3304 2112 
Q 3559 1806 3559 1356 
Q 3559 666 3084 287 
Q 2609 -91 1734 -91 
Q 1441 -91 1130 -33 
Q 819 25 488 141 
L 488 750 
Q 750 597 1062 519 
Q 1375 441 1716 441 
Q 2309 441 2620 675 
Q 2931 909 2931 1356 
Q 2931 1769 2642 2001 
Q 2353 2234 1838 2234 
L 1294 2234 
L 1294 2753 
L 1863 2753 
Q 2328 2753 2575 2939 
Q 2822 3125 2822 3475 
Q 2822 3834 2567 4026 
Q 2313 4219 1838 4219 
Q 1578 4219 1281 4162 
Q 984 4106 628 3988 
L 628 4550 
Q 988 4650 1302 4700 
Q 1616 4750 1894 4750 
Q 2613 4750 3031 4423 
Q 3450 4097 3450 3541 
Q 3450 3153 3228 2886 
Q 3006 2619 2597 2516 
z
" transform="scale(0.015625)"/>
       </defs>
       <use xlink:href="#DejaVuSans-28"/>
       <use xlink:href="#DejaVuSans-33" x="39.013672"/>
       <use xlink:href="#DejaVuSans-2c" x="102.636719"/>
       <use xlink:href="#DejaVuSans-20" x="134.423828"/>
       <use xlink:href="#DejaVuSans-69" x="166.210938"/>
       <use xlink:href="#DejaVuSans-64" x="193.994141"/>
       <use xlink:href="#DejaVuSans-29" x="257.470703"/>
      </g>
     </g>
    </g>
    <g id="xtick_4">
     <g id="line2d_4">
      <g>
       <use xlink:href="#m36d8b329e9" x="439.604688" y="170.28" style="stroke: #000000; stroke-width: 0.8"/>
      </g>
     </g>
     <g id="text_4">
      <!-- (4, id) -->
      <g transform="translate(424.780469 184.878438)scale(0.1 -0.1)">
       <defs>
        <path id="DejaVuSans-34" d="M 2419 4116 
L 825 1625 
L 2419 1625 
L 2419 4116 
z
M 2253 4666 
L 3047 4666 
L 3047 1625 
L 3713 1625 
L 3713 1100 
L 3047 1100 
L 3047 0 
L 2419 0 
L 2419 1100 
L 313 1100 
L 313 1709 
L 2253 4666 
z
" transform="scale(0.015625)"/>
       </defs>
       <use xlink:href="#DejaVuSans-28"/>
       <use xlink:href="#DejaVuSans-34" x="39.013672"/>
       <use xlink:href="#DejaVuSans-2c" x="102.636719"/>
       <use xlink:href="#DejaVuSans-20" x="134.423828"/>
       <use xlink:href="#DejaVuSans-69" x="166.210938"/>
       <use xlink:href="#DejaVuSans-64" x="193.994141"/>
       <use xlink:href="#DejaVuSans-29" x="257.470703"/>
      </g>
     </g>
    </g>
    <g id="xtick_5">
     <g id="line2d_5">
      <g>
       <use xlink:href="#m36d8b329e9" x="551.204688" y="170.28" style="stroke: #000000; stroke-width: 0.8"/>
      </g>
     </g>
     <g id="text_5">
      <!-- logits -->
      <g transform="translate(537.628125 184.878438)scale(0.1 -0.1)">
       <defs>
        <path id="DejaVuSans-6c" d="M 603 4863 
L 1178 4863 
L 1178 0 
L 603 0 
L 603 4863 
z
" transform="scale(0.015625)"/>
        <path id="DejaVuSans-6f" d="M 1959 3097 
Q 1497 3097 1228 2736 
Q 959 2375 959 1747 
Q 959 1119 1226 758 
Q 1494 397 1959 397 
Q 2419 397 2687 759 
Q 2956 1122 2956 1747 
Q 2956 2369 2687 2733 
Q 2419 3097 1959 3097 
z
M 1959 3584 
Q 2709 3584 3137 3096 
Q 3566 2609 3566 1747 
Q 3566 888 3137 398 
Q 2709 -91 1959 -91 
Q 1206 -91 779 398 
Q 353 888 353 1747 
Q 353 2609 779 3096 
Q 1206 3584 1959 3584 
z
" transform="scale(0.015625)"/>
        <path id="DejaVuSans-67" d="M 2906 1791 
Q 2906 2416 2648 2759 
Q 2391 3103 1925 3103 
Q 1463 3103 1205 2759 
Q 947 2416 947 1791 
Q 947 1169 1205 825 
Q 1463 481 1925 481 
Q 2391 481 2648 825 
Q 2906 1169 2906 1791 
z
M 3481 434 
Q 3481 -459 3084 -895 
Q 2688 -1331 1869 -1331 
Q 1566 -1331 1297 -1286 
Q 1028 -1241 775 -1147 
L 775 -588 
Q 1028 -725 1275 -790 
Q 1522 -856 1778 -856 
Q 2344 -856 2625 -561 
Q 2906 -266 2906 331 
L 2906 616 
Q 2728 306 2450 153 
Q 2172 0 1784 0 
Q 1141 0 747 490 
Q 353 981 353 1791 
Q 353 2603 747 3093 
Q 1141 3584 1784 3584 
Q 2172 3584 2450 3431 
Q 2728 3278 2906 2969 
L 2906 3500 
L 3481 3500 
L 3481 434 
z
" transform="scale(0.015625)"/>
        <path id="DejaVuSans-74" d="M 1172 4494 
L 1172 3500 
L 2356 3500 
L 2356 3053 
L 1172 3053 
L 1172 1153 
Q 1172 725 1289 603 
Q 1406 481 1766 481 
L 2356 481 
L 2356 0 
L 1766 0 
Q 1100 0 847 248 
Q 594 497 594 1153 
L 594 3053 
L 172 3053 
L 172 3500 
L 594 3500 
L 594 4494 
L 1172 4494 
z
" transform="scale(0.015625)"/>
        <path id="DejaVuSans-73" d="M 2834 3397 
L 2834 2853 
Q 2591 2978 2328 3040 
Q 2066 3103 1784 3103 
Q 1356 3103 1142 2972 
Q 928 2841 928 2578 
Q 928 2378 1081 2264 
Q 1234 2150 1697 2047 
L 1894 2003 
Q 2506 1872 2764 1633 
Q 3022 1394 3022 966 
Q 3022 478 2636 193 
Q 2250 -91 1575 -91 
Q 1294 -91 989 -36 
Q 684 19 347 128 
L 347 722 
Q 666 556 975 473 
Q 1284 391 1588 391 
Q 1994 391 2212 530 
Q 2431 669 2431 922 
Q 2431 1156 2273 1281 
Q 2116 1406 1581 1522 
L 1381 1569 
Q 847 1681 609 1914 
Q 372 2147 372 2553 
Q 372 3047 722 3315 
Q 1072 3584 1716 3584 
Q 2034 3584 2315 3537 
Q 2597 3491 2834 3397 
z
" transform="scale(0.015625)"/>
       </defs>
       <use xlink:href="#DejaVuSans-6c"/>
       <use xlink:href="#DejaVuSans-6f" x="27.783203"/>
       <use xlink:href="#DejaVuSans-67" x="88.964844"/>
       <use xlink:href="#DejaVuSans-69" x="152.441406"/>
       <use xlink:href="#DejaVuSans-74" x="180.224609"/>
       <use xlink:href="#DejaVuSans-73" x="219.433594"/>
      </g>
     </g>
    </g>
   </g>
   <g id="matplotlib.axis_2">
    <g id="ytick_1">
     <g id="line2d_6">
      <defs>
       <path id="mac8ffb7c25" d="M 0 0 
L -3.5 0 
" style="stroke: #000000; stroke-width: 0.8"/>
      </defs>
      <g>
       <use xlink:href="#mac8ffb7c25" x="49.004687" y="149.036318" style="stroke: #000000; stroke-width: 0.8"/>
      </g>
     </g>
     <g id="text_6">
      <!-- −10 -->
      <g transform="translate(20.9 152.835536)scale(0.1 -0.1)">
       <defs>
        <path id="DejaVuSans-2212" d="M 678 2272 
L 4684 2272 
L 4684 1741 
L 678 1741 
L 678 2272 
z
" transform="scale(0.015625)"/>
        <path id="DejaVuSans-30" d="M 2034 4250 
Q 1547 4250 1301 3770 
Q 1056 3291 1056 2328 
Q 1056 1369 1301 889 
Q 1547 409 2034 409 
Q 2525 409 2770 889 
Q 3016 1369 3016 2328 
Q 3016 3291 2770 3770 
Q 2525 4250 2034 4250 
z
M 2034 4750 
Q 2819 4750 3233 4129 
Q 3647 3509 3647 2328 
Q 3647 1150 3233 529 
Q 2819 -91 2034 -91 
Q 1250 -91 836 529 
Q 422 1150 422 2328 
Q 422 3509 836 4129 
Q 1250 4750 2034 4750 
z
" transform="scale(0.015625)"/>
       </defs>
       <use xlink:href="#DejaVuSans-2212"/>
       <use xlink:href="#DejaVuSans-31" x="83.789062"/>
       <use xlink:href="#DejaVuSans-30" x="147.412109"/>
      </g>
     </g>
    </g>
    <g id="ytick_2">
     <g id="line2d_7">
      <g>
       <use xlink:href="#mac8ffb7c25" x="49.004687" y="117.011379" style="stroke: #000000; stroke-width: 0.8"/>
      </g>
     </g>
     <g id="text_7">
      <!-- 0 -->
      <g transform="translate(35.642187 120.810598)scale(0.1 -0.1)">
       <use xlink:href="#DejaVuSans-30"/>
      </g>
     </g>
    </g>
    <g id="ytick_3">
     <g id="line2d_8">
      <g>
       <use xlink:href="#mac8ffb7c25" x="49.004687" y="84.986441" style="stroke: #000000; stroke-width: 0.8"/>
      </g>
     </g>
     <g id="text_8">
      <!-- 10 -->
      <g transform="translate(29.279687 88.785659)scale(0.1 -0.1)">
       <use xlink:href="#DejaVuSans-31"/>
       <use xlink:href="#DejaVuSans-30" x="63.623047"/>
      </g>
     </g>
    </g>
    <g id="ytick_4">
     <g id="line2d_9">
      <g>
       <use xlink:href="#mac8ffb7c25" x="49.004687" y="52.961502" style="stroke: #000000; stroke-width: 0.8"/>
      </g>
     </g>
     <g id="text_9">
      <!-- 20 -->
      <g transform="translate(29.279687 56.760721)scale(0.1 -0.1)">
       <use xlink:href="#DejaVuSans-32"/>
       <use xlink:href="#DejaVuSans-30" x="63.623047"/>
      </g>
     </g>
    </g>
    <g id="ytick_5">
     <g id="line2d_10">
      <g>
       <use xlink:href="#mac8ffb7c25" x="49.004687" y="20.936564" style="stroke: #000000; stroke-width: 0.8"/>
      </g>
     </g>
     <g id="text_10">
      <!-- 30 -->
      <g transform="translate(29.279687 24.735782)scale(0.1 -0.1)">
       <use xlink:href="#DejaVuSans-33"/>
       <use xlink:href="#DejaVuSans-30" x="63.623047"/>
      </g>
     </g>
    </g>
    <g id="text_11">
     <!-- ${\phi}$ -->
     <g transform="translate(14.8 92.04)rotate(-90)scale(0.1 -0.1)">
      <defs>
       <path id="DejaVuSans-Oblique-3d5" d="M 2991 4863 
L 2738 3572 
Q 3363 3572 3684 3094 
Q 4016 2606 3850 1747 
Q 3681 888 3159 400 
Q 2653 -78 2028 -78 
L 1784 -1331 
L 1213 -1331 
L 1456 -78 
Q 834 -78 509 400 
Q 178 888 347 1747 
Q 513 2606 1034 3094 
Q 1544 3572 2166 3572 
L 2419 4863 
L 2991 4863 
z
M 2128 434 
Q 2481 434 2784 756 
Q 3116 1116 3244 1747 
Q 3369 2372 3169 2738 
Q 2991 3059 2638 3059 
L 2128 434 
z
M 1556 434 
L 2066 3059 
Q 1716 3059 1413 2738 
Q 1072 2372 953 1747 
Q 834 1116 1028 756 
Q 1203 434 1556 434 
z
" transform="scale(0.015625)"/>
      </defs>
      <use xlink:href="#DejaVuSans-Oblique-3d5" transform="translate(0 0.015625)"/>
     </g>
    </g>
   </g>
   <g id="line2d_11">
    <path d="M 104.804688 127.227332 
L 104.804688 102.357019 
" clip-path="url(#pcd8e0ecb76)" style="fill: none; stroke: #3f3f3f; stroke-width: 1.5; stroke-linecap: square"/>
   </g>
   <g id="line2d_12">
    <path d="M 104.804688 120.944608 
L 104.804688 113.419475 
" clip-path="url(#pcd8e0ecb76)" style="fill: none; stroke: #3f3f3f; stroke-width: 4.5; stroke-linecap: square"/>
   </g>
   <g id="line2d_13">
    <path d="M 216.404688 143.164375 
L 216.404688 79.496225 
" clip-path="url(#pcd8e0ecb76)" style="fill: none; stroke: #3f3f3f; stroke-width: 1.5; stroke-linecap: square"/>
   </g>
   <g id="line2d_14">
    <path d="M 216.404688 127.080427 
L 216.404688 107.816127 
" clip-path="url(#pcd8e0ecb76)" style="fill: none; stroke: #3f3f3f; stroke-width: 4.5; stroke-linecap: square"/>
   </g>
   <g id="line2d_15">
    <path d="M 328.004688 150.487219 
L 328.004688 68.991957 
" clip-path="url(#pcd8e0ecb76)" style="fill: none; stroke: #3f3f3f; stroke-width: 1.5; stroke-linecap: square"/>
   </g>
   <g id="line2d_16">
    <path d="M 328.004688 129.899749 
L 328.004688 105.241447 
" clip-path="url(#pcd8e0ecb76)" style="fill: none; stroke: #3f3f3f; stroke-width: 4.5; stroke-linecap: square"/>
   </g>
   <g id="line2d_17">
    <path d="M 439.604688 159.860387 
L 439.604688 55.54637 
" clip-path="url(#pcd8e0ecb76)" style="fill: none; stroke: #3f3f3f; stroke-width: 1.5; stroke-linecap: square"/>
   </g>
   <g id="line2d_18">
    <path d="M 439.604688 133.508496 
L 439.604688 101.945901 
" clip-path="url(#pcd8e0ecb76)" style="fill: none; stroke: #3f3f3f; stroke-width: 4.5; stroke-linecap: square"/>
   </g>
   <g id="line2d_19">
    <path d="M 551.204688 144.434724 
L 551.204688 77.673739 
" clip-path="url(#pcd8e0ecb76)" style="fill: none; stroke: #3f3f3f; stroke-width: 1.5; stroke-linecap: square"/>
   </g>
   <g id="line2d_20">
    <path d="M 551.204688 127.569524 
L 551.204688 107.36948 
" clip-path="url(#pcd8e0ecb76)" style="fill: none; stroke: #3f3f3f; stroke-width: 4.5; stroke-linecap: square"/>
   </g>
   <g id="patch_3">
    <path d="M 49.004687 170.28 
L 49.004687 7.2 
" style="fill: none; stroke: #000000; stroke-width: 0.8; stroke-linejoin: miter; stroke-linecap: square"/>
   </g>
   <g id="patch_4">
    <path d="M 607.004688 170.28 
L 607.004688 7.2 
" style="fill: none; stroke: #000000; stroke-width: 0.8; stroke-linejoin: miter; stroke-linecap: square"/>
   </g>
   <g id="patch_5">
    <path d="M 49.004687 170.28 
L 607.004688 170.28 
" style="fill: none; stroke: #000000; stroke-width: 0.8; stroke-linejoin: miter; stroke-linecap: square"/>
   </g>
   <g id="patch_6">
    <path d="M 49.004687 7.2 
L 607.004688 7.2 
" style="fill: none; stroke: #000000; stroke-width: 0.8; stroke-linejoin: miter; stroke-linecap: square"/>
   </g>
   <g id="PathCollection_1">
    <defs>
     <path id="m8844bb4bbe" d="M 0 1.5 
C 0.397805 1.5 0.77937 1.341951 1.06066 1.06066 
C 1.341951 0.77937 1.5 0.397805 1.5 0 
C 1.5 -0.397805 1.341951 -0.77937 1.06066 -1.06066 
C 0.77937 -1.341951 0.397805 -1.5 0 -1.5 
C -0.397805 -1.5 -0.77937 -1.341951 -1.06066 -1.06066 
C -1.341951 -0.77937 -1.5 -0.397805 -1.5 0 
C -1.5 0.397805 -1.341951 0.77937 -1.06066 1.06066 
C -0.77937 1.341951 -0.397805 1.5 0 1.5 
z
" style="stroke: #3f3f3f"/>
    </defs>
    <g clip-path="url(#pcd8e0ecb76)">
     <use xlink:href="#m8844bb4bbe" x="104.804688" y="117.794494" style="fill: #ffffff; stroke: #3f3f3f"/>
    </g>
   </g>
   <g id="PathCollection_2">
    <g clip-path="url(#pcd8e0ecb76)">
     <use xlink:href="#m8844bb4bbe" x="216.404688" y="119.016149" style="fill: #ffffff; stroke: #3f3f3f"/>
    </g>
   </g>
   <g id="PathCollection_3">
    <g clip-path="url(#pcd8e0ecb76)">
     <use xlink:href="#m8844bb4bbe" x="328.004688" y="119.577488" style="fill: #ffffff; stroke: #3f3f3f"/>
    </g>
   </g>
   <g id="PathCollection_4">
    <g clip-path="url(#pcd8e0ecb76)">
     <use xlink:href="#m8844bb4bbe" x="439.604688" y="120.296005" style="fill: #ffffff; stroke: #3f3f3f"/>
    </g>
   </g>
   <g id="PathCollection_5">
    <g clip-path="url(#pcd8e0ecb76)">
     <use xlink:href="#m8844bb4bbe" x="551.204688" y="119.113538" style="fill: #ffffff; stroke: #3f3f3f"/>
    </g>
   </g>
  </g>
 </g>
 <defs>
  <clipPath id="pcd8e0ecb76">
   <rect x="49.004687" y="7.2" width="558" height="163.08"/>
  </clipPath>
 </defs>
</svg>
