<?xml version="1.0" encoding="utf-8" standalone="no"?>
<!DOCTYPE svg PUBLIC "-//W3C//DTD SVG 1.1//EN"
  "http://www.w3.org/Graphics/SVG/1.1/DTD/svg11.dtd">
<svg xmlns:xlink="http://www.w3.org/1999/xlink" width="626.907812pt" height="194.158125pt" viewBox="0 0 626.907812 194.158125" xmlns="http://www.w3.org/2000/svg" version="1.1">
 <metadata>
  <rdf:RDF xmlns:dc="http://purl.org/dc/elements/1.1/" xmlns:cc="http://creativecommons.org/ns#" xmlns:rdf="http://www.w3.org/1999/02/22-rdf-syntax-ns#">
   <cc:Work>
    <dc:type rdf:resource="http://purl.org/dc/dcmitype/StillImage"/>
    <dc:date>2022-07-08T21:37:53.224447</dc:date>
    <dc:format>image/svg+xml</dc:format>
    <dc:creator>
     <cc:Agent>
      <dc:title>Matplotlib v3.5.1, https://matplotlib.org/</dc:title>
     </cc:Agent>
    </dc:creator>
   </cc:Work>
  </rdf:RDF>
 </metadata>
 <defs>
  <style type="text/css">*{stroke-linejoin: round; stroke-linecap: butt}</style>
 </defs>
 <g id="figure_1">
  <g id="patch_1">
   <path d="M 0 194.158125 
L 626.907812 194.158125 
L 626.907812 0 
L 0 0 
L 0 194.158125 
z
" style="fill: none"/>
  </g>
  <g id="axes_1">
   <g id="patch_2">
    <path d="M 61.707813 170.28 
L 619.707813 170.28 
L 619.707813 7.2 
L 61.707813 7.2 
z
" style="fill: #ffffff"/>
   </g>
   <g id="PolyCollection_1">
    <defs>
     <path id="ma57ab602b8" d="M 131.458052 -95.959 
L 131.457573 -95.959 
L 131.45611 -96.281457 
L 131.455248 -96.603915 
L 131.455449 -96.926372 
L 131.45176 -97.248829 
L 131.443957 -97.571287 
L 131.438523 -97.893744 
L 131.432294 -98.216202 
L 131.415917 -98.538659 
L 131.395664 -98.861116 
L 131.371188 -99.183574 
L 131.346426 -99.506031 
L 131.333218 -99.828488 
L 131.307829 -100.150946 
L 131.267533 -100.473403 
L 131.211356 -100.795861 
L 131.133931 -101.118318 
L 131.04032 -101.440775 
L 130.892777 -101.763233 
L 130.718143 -102.08569 
L 130.574543 -102.408147 
L 130.489202 -102.730605 
L 130.350629 -103.053062 
L 130.074503 -103.375519 
L 129.727918 -103.697977 
L 129.317101 -104.020434 
L 128.787721 -104.342892 
L 128.257599 -104.665349 
L 127.759118 -104.987806 
L 127.097572 -105.310264 
L 126.477033 -105.632721 
L 125.777894 -105.955178 
L 124.809131 -106.277636 
L 123.84562 -106.600093 
L 122.769518 -106.922551 
L 121.344886 -107.245008 
L 119.606427 -107.567465 
L 118.109533 -107.889923 
L 116.579237 -108.21238 
L 114.624282 -108.534837 
L 112.390864 -108.857295 
L 110.107947 -109.179752 
L 107.613589 -109.50221 
L 104.981789 -109.824667 
L 102.40401 -110.147124 
L 100.030052 -110.469582 
L 97.574279 -110.792039 
L 94.449327 -111.114496 
L 90.40421 -111.436954 
L 84.331529 -111.759411 
L 76.099389 -112.081868 
L 75.657812 -112.404326 
L 83.440166 -112.726783 
L 89.733625 -113.049241 
L 94.201579 -113.371698 
L 97.475759 -113.694155 
L 100.169488 -114.016613 
L 102.756425 -114.33907 
L 105.500764 -114.661527 
L 108.193824 -114.983985 
L 110.630044 -115.306442 
L 112.714932 -115.6289 
L 114.757861 -115.951357 
L 116.739087 -116.273814 
L 118.599037 -116.596272 
L 120.114082 -116.918729 
L 121.480633 -117.241186 
L 122.873134 -117.563644 
L 123.98261 -117.886101 
L 124.948196 -118.208559 
L 125.973317 -118.531016 
L 126.816102 -118.853473 
L 127.456397 -119.175931 
L 128.112421 -119.498388 
L 128.710639 -119.820845 
L 129.2149 -120.143303 
L 129.722504 -120.46576 
L 130.072924 -120.788218 
L 130.312692 -121.110675 
L 130.520037 -121.433132 
L 130.672683 -121.75559 
L 130.78304 -122.078047 
L 130.872416 -122.400504 
L 130.987623 -122.722962 
L 131.089938 -123.045419 
L 131.160446 -123.367876 
L 131.20612 -123.690334 
L 131.25603 -124.012791 
L 131.317473 -124.335249 
L 131.358088 -124.657706 
L 131.385397 -124.980163 
L 131.401342 -125.302621 
L 131.409366 -125.625078 
L 131.422104 -125.947535 
L 131.432767 -126.269993 
L 131.437612 -126.59245 
L 131.440632 -126.914908 
L 131.4471 -127.237365 
L 131.454846 -127.559822 
L 131.457544 -127.88228 
L 131.458081 -127.88228 
L 131.458081 -127.88228 
L 131.460779 -127.559822 
L 131.468525 -127.237365 
L 131.474993 -126.914908 
L 131.478013 -126.59245 
L 131.482858 -126.269993 
L 131.493521 -125.947535 
L 131.506259 -125.625078 
L 131.514283 -125.302621 
L 131.530228 -124.980163 
L 131.557537 -124.657706 
L 131.598152 -124.335249 
L 131.659595 -124.012791 
L 131.709505 -123.690334 
L 131.755179 -123.367876 
L 131.825687 -123.045419 
L 131.928002 -122.722962 
L 132.043209 -122.400504 
L 132.132585 -122.078047 
L 132.242942 -121.75559 
L 132.395588 -121.433132 
L 132.602933 -121.110675 
L 132.842701 -120.788218 
L 133.193121 -120.46576 
L 133.700725 -120.143303 
L 134.204986 -119.820845 
L 134.803204 -119.498388 
L 135.459228 -119.175931 
L 136.099523 -118.853473 
L 136.942308 -118.531016 
L 137.967429 -118.208559 
L 138.933015 -117.886101 
L 140.042491 -117.563644 
L 141.434992 -117.241186 
L 142.801543 -116.918729 
L 144.316588 -116.596272 
L 146.176538 -116.273814 
L 148.157764 -115.951357 
L 150.200693 -115.6289 
L 152.285581 -115.306442 
L 154.721801 -114.983985 
L 157.414861 -114.661527 
L 160.1592 -114.33907 
L 162.746137 -114.016613 
L 165.439866 -113.694155 
L 168.714046 -113.371698 
L 173.182 -113.049241 
L 179.475459 -112.726783 
L 187.257812 -112.404326 
L 186.816236 -112.081868 
L 178.584096 -111.759411 
L 172.511415 -111.436954 
L 168.466298 -111.114496 
L 165.341346 -110.792039 
L 162.885573 -110.469582 
L 160.511615 -110.147124 
L 157.933836 -109.824667 
L 155.302036 -109.50221 
L 152.807678 -109.179752 
L 150.524761 -108.857295 
L 148.291343 -108.534837 
L 146.336388 -108.21238 
L 144.806092 -107.889923 
L 143.309198 -107.567465 
L 141.570739 -107.245008 
L 140.146107 -106.922551 
L 139.070005 -106.600093 
L 138.106494 -106.277636 
L 137.137731 -105.955178 
L 136.438592 -105.632721 
L 135.818053 -105.310264 
L 135.156507 -104.987806 
L 134.658026 -104.665349 
L 134.127904 -104.342892 
L 133.598524 -104.020434 
L 133.187707 -103.697977 
L 132.841122 -103.375519 
L 132.564996 -103.053062 
L 132.426423 -102.730605 
L 132.341082 -102.408147 
L 132.197482 -102.08569 
L 132.022848 -101.763233 
L 131.875305 -101.440775 
L 131.781694 -101.118318 
L 131.704269 -100.795861 
L 131.648092 -100.473403 
L 131.607796 -100.150946 
L 131.582407 -99.828488 
L 131.569199 -99.506031 
L 131.544437 -99.183574 
L 131.519961 -98.861116 
L 131.499708 -98.538659 
L 131.483331 -98.216202 
L 131.477102 -97.893744 
L 131.471668 -97.571287 
L 131.463865 -97.248829 
L 131.460176 -96.926372 
L 131.460377 -96.603915 
L 131.459515 -96.281457 
L 131.458052 -95.959 
z
" style="stroke: #515151; stroke-width: 1.5"/>
    </defs>
    <g clip-path="url(#pf274dec619)">
     <use xlink:href="#ma57ab602b8" x="0" y="194.158125" style="fill: #e1812c; stroke: #515151; stroke-width: 1.5"/>
    </g>
   </g>
   <g id="PolyCollection_2">
    <defs>
     <path id="mff88352814" d="M 270.958059 -74.656499 
L 270.957566 -74.656499 
L 270.956225 -75.436605 
L 270.956617 -76.21671 
L 270.956771 -76.996816 
L 270.954652 -77.776921 
L 270.951966 -78.557027 
L 270.947063 -79.337132 
L 270.952443 -80.117238 
L 270.952131 -80.897343 
L 270.946714 -81.677449 
L 270.944989 -82.457554 
L 270.944425 -83.23766 
L 270.937645 -84.017765 
L 270.930249 -84.797871 
L 270.918431 -85.577976 
L 270.916125 -86.358082 
L 270.909626 -87.138187 
L 270.897895 -87.918293 
L 270.900294 -88.698398 
L 270.886252 -89.478504 
L 270.861716 -90.258609 
L 270.833142 -91.038715 
L 270.780368 -91.81882 
L 270.748068 -92.598926 
L 270.706942 -93.379031 
L 270.659184 -94.159137 
L 270.549369 -94.939242 
L 270.398442 -95.719348 
L 270.253861 -96.499453 
L 270.101068 -97.279559 
L 269.937259 -98.059664 
L 269.726322 -98.83977 
L 269.358236 -99.619875 
L 268.841079 -100.399981 
L 268.298203 -101.180086 
L 267.642464 -101.960192 
L 266.87303 -102.740297 
L 266.009353 -103.520403 
L 264.831927 -104.300508 
L 263.40254 -105.080614 
L 261.759511 -105.860719 
L 259.908882 -106.640825 
L 257.641739 -107.42093 
L 255.139797 -108.201035 
L 252.17421 -108.981141 
L 249.130877 -109.761246 
L 246.014798 -110.541352 
L 243.434909 -111.321457 
L 242.292524 -112.101563 
L 242.740839 -112.881668 
L 244.648852 -113.661774 
L 247.441015 -114.441879 
L 250.847312 -115.221985 
L 254.140391 -116.00209 
L 256.714666 -116.782196 
L 258.924364 -117.562301 
L 260.920774 -118.342407 
L 262.757417 -119.122512 
L 264.34013 -119.902618 
L 265.560086 -120.682723 
L 266.375573 -121.462829 
L 267.160474 -122.242934 
L 268.060397 -123.02304 
L 268.644713 -123.803145 
L 269.116666 -124.583251 
L 269.479377 -125.363356 
L 269.827489 -126.143462 
L 270.043489 -126.923567 
L 270.221435 -127.703673 
L 270.353957 -128.483778 
L 270.495714 -129.263884 
L 270.613954 -130.043989 
L 270.671237 -130.824095 
L 270.723622 -131.6042 
L 270.781871 -132.384306 
L 270.817167 -133.164411 
L 270.82935 -133.944517 
L 270.85087 -134.724622 
L 270.883106 -135.504728 
L 270.899141 -136.284833 
L 270.916575 -137.064939 
L 270.925201 -137.845044 
L 270.937684 -138.62515 
L 270.943196 -139.405255 
L 270.943381 -140.185361 
L 270.94538 -140.965466 
L 270.952025 -141.745572 
L 270.951962 -142.525677 
L 270.953559 -143.305783 
L 270.953102 -144.085888 
L 270.951948 -144.865994 
L 270.952549 -145.646099 
L 270.954831 -146.426205 
L 270.956631 -147.20631 
L 270.954882 -147.986416 
L 270.955358 -148.766521 
L 270.957424 -149.546627 
L 270.956659 -150.326732 
L 270.956225 -151.106838 
L 270.957566 -151.886943 
L 270.958059 -151.886943 
L 270.958059 -151.886943 
L 270.9594 -151.106838 
L 270.958966 -150.326732 
L 270.958201 -149.546627 
L 270.960267 -148.766521 
L 270.960743 -147.986416 
L 270.958994 -147.20631 
L 270.960794 -146.426205 
L 270.963076 -145.646099 
L 270.963677 -144.865994 
L 270.962523 -144.085888 
L 270.962066 -143.305783 
L 270.963663 -142.525677 
L 270.9636 -141.745572 
L 270.970245 -140.965466 
L 270.972244 -140.185361 
L 270.972429 -139.405255 
L 270.977941 -138.62515 
L 270.990424 -137.845044 
L 270.99905 -137.064939 
L 271.016484 -136.284833 
L 271.032519 -135.504728 
L 271.064755 -134.724622 
L 271.086275 -133.944517 
L 271.098458 -133.164411 
L 271.133754 -132.384306 
L 271.192003 -131.6042 
L 271.244388 -130.824095 
L 271.301671 -130.043989 
L 271.419911 -129.263884 
L 271.561668 -128.483778 
L 271.69419 -127.703673 
L 271.872136 -126.923567 
L 272.088136 -126.143462 
L 272.436248 -125.363356 
L 272.798959 -124.583251 
L 273.270912 -123.803145 
L 273.855228 -123.02304 
L 274.755151 -122.242934 
L 275.540052 -121.462829 
L 276.355539 -120.682723 
L 277.575495 -119.902618 
L 279.158208 -119.122512 
L 280.994851 -118.342407 
L 282.991261 -117.562301 
L 285.200959 -116.782196 
L 287.775234 -116.00209 
L 291.068313 -115.221985 
L 294.47461 -114.441879 
L 297.266773 -113.661774 
L 299.174786 -112.881668 
L 299.623101 -112.101563 
L 298.480716 -111.321457 
L 295.900827 -110.541352 
L 292.784748 -109.761246 
L 289.741415 -108.981141 
L 286.775828 -108.201035 
L 284.273886 -107.42093 
L 282.006743 -106.640825 
L 280.156114 -105.860719 
L 278.513085 -105.080614 
L 277.083698 -104.300508 
L 275.906272 -103.520403 
L 275.042595 -102.740297 
L 274.273161 -101.960192 
L 273.617422 -101.180086 
L 273.074546 -100.399981 
L 272.557389 -99.619875 
L 272.189303 -98.83977 
L 271.978366 -98.059664 
L 271.814557 -97.279559 
L 271.661764 -96.499453 
L 271.517183 -95.719348 
L 271.366256 -94.939242 
L 271.256441 -94.159137 
L 271.208683 -93.379031 
L 271.167557 -92.598926 
L 271.135257 -91.81882 
L 271.082483 -91.038715 
L 271.053909 -90.258609 
L 271.029373 -89.478504 
L 271.015331 -88.698398 
L 271.01773 -87.918293 
L 271.005999 -87.138187 
L 270.9995 -86.358082 
L 270.997194 -85.577976 
L 270.985376 -84.797871 
L 270.97798 -84.017765 
L 270.9712 -83.23766 
L 270.970636 -82.457554 
L 270.968911 -81.677449 
L 270.963494 -80.897343 
L 270.963182 -80.117238 
L 270.968562 -79.337132 
L 270.963659 -78.557027 
L 270.960973 -77.776921 
L 270.958854 -76.996816 
L 270.959008 -76.21671 
L 270.9594 -75.436605 
L 270.958059 -74.656499 
z
" style="stroke: #515151; stroke-width: 1.5"/>
    </defs>
    <g clip-path="url(#pf274dec619)">
     <use xlink:href="#mff88352814" x="0" y="194.158125" style="fill: #e1812c; stroke: #515151; stroke-width: 1.5"/>
    </g>
   </g>
   <g id="PolyCollection_3">
    <defs>
     <path id="m612182eb02" d="M 410.458109 -59.840295 
L 410.457516 -59.840295 
L 410.456265 -60.861962 
L 410.455724 -61.883628 
L 410.456724 -62.905294 
L 410.455407 -63.92696 
L 410.453274 -64.948626 
L 410.45296 -65.970292 
L 410.451178 -66.991958 
L 410.450721 -68.013624 
L 410.449178 -69.03529 
L 410.447912 -70.056956 
L 410.44738 -71.078623 
L 410.441969 -72.100289 
L 410.433141 -73.121955 
L 410.423471 -74.143621 
L 410.414157 -75.165287 
L 410.414978 -76.186953 
L 410.41936 -77.208619 
L 410.413496 -78.230285 
L 410.397301 -79.251951 
L 410.363664 -80.273618 
L 410.339335 -81.295284 
L 410.327649 -82.31695 
L 410.304132 -83.338616 
L 410.26203 -84.360282 
L 410.229116 -85.381948 
L 410.196375 -86.403614 
L 410.114503 -87.42528 
L 410.006437 -88.446946 
L 409.93686 -89.468612 
L 409.868366 -90.490279 
L 409.685544 -91.511945 
L 409.466809 -92.533611 
L 409.32299 -93.555277 
L 409.157342 -94.576943 
L 408.898632 -95.598609 
L 408.588639 -96.620275 
L 408.193505 -97.641941 
L 407.600805 -98.663607 
L 406.95266 -99.685273 
L 406.306568 -100.70694 
L 405.508769 -101.728606 
L 404.468938 -102.750272 
L 403.170485 -103.771938 
L 401.74526 -104.793604 
L 400.133029 -105.81527 
L 398.261266 -106.836936 
L 396.337309 -107.858602 
L 394.415326 -108.880268 
L 392.718768 -109.901935 
L 391.613588 -110.923601 
L 391.187401 -111.945267 
L 391.375285 -112.966933 
L 392.009346 -113.988599 
L 393.26992 -115.010265 
L 395.17392 -116.031931 
L 397.189723 -117.053597 
L 399.077718 -118.075263 
L 400.892852 -119.096929 
L 402.552999 -120.118596 
L 403.923648 -121.140262 
L 404.992526 -122.161928 
L 405.911168 -123.183594 
L 406.753937 -124.20526 
L 407.409739 -125.226926 
L 407.933789 -126.248592 
L 408.437555 -127.270258 
L 408.880745 -128.291924 
L 409.167001 -129.313591 
L 409.360328 -130.335257 
L 409.565371 -131.356923 
L 409.730297 -132.378589 
L 409.861372 -133.400255 
L 409.946777 -134.421921 
L 410.012163 -135.443587 
L 410.077361 -136.465253 
L 410.145145 -137.486919 
L 410.211627 -138.508585 
L 410.255123 -139.530252 
L 410.284527 -140.551918 
L 410.325187 -141.573584 
L 410.357186 -142.59525 
L 410.374372 -143.616916 
L 410.39026 -144.638582 
L 410.406666 -145.660248 
L 410.410944 -146.681914 
L 410.41712 -147.70358 
L 410.428461 -148.725247 
L 410.433247 -149.746913 
L 410.437579 -150.768579 
L 410.445742 -151.790245 
L 410.449962 -152.811911 
L 410.451427 -153.833577 
L 410.451658 -154.855243 
L 410.45417 -155.876909 
L 410.455413 -156.898575 
L 410.454147 -157.920241 
L 410.45291 -158.941908 
L 410.454831 -159.963574 
L 410.457288 -160.98524 
L 410.458337 -160.98524 
L 410.458337 -160.98524 
L 410.460794 -159.963574 
L 410.462715 -158.941908 
L 410.461478 -157.920241 
L 410.460212 -156.898575 
L 410.461455 -155.876909 
L 410.463967 -154.855243 
L 410.464198 -153.833577 
L 410.465663 -152.811911 
L 410.469883 -151.790245 
L 410.478046 -150.768579 
L 410.482378 -149.746913 
L 410.487164 -148.725247 
L 410.498505 -147.70358 
L 410.504681 -146.681914 
L 410.508959 -145.660248 
L 410.525365 -144.638582 
L 410.541253 -143.616916 
L 410.558439 -142.59525 
L 410.590438 -141.573584 
L 410.631098 -140.551918 
L 410.660502 -139.530252 
L 410.703998 -138.508585 
L 410.77048 -137.486919 
L 410.838264 -136.465253 
L 410.903462 -135.443587 
L 410.968848 -134.421921 
L 411.054253 -133.400255 
L 411.185328 -132.378589 
L 411.350254 -131.356923 
L 411.555297 -130.335257 
L 411.748624 -129.313591 
L 412.03488 -128.291924 
L 412.47807 -127.270258 
L 412.981836 -126.248592 
L 413.505886 -125.226926 
L 414.161688 -124.20526 
L 415.004457 -123.183594 
L 415.923099 -122.161928 
L 416.991977 -121.140262 
L 418.362626 -120.118596 
L 420.022773 -119.096929 
L 421.837907 -118.075263 
L 423.725902 -117.053597 
L 425.741705 -116.031931 
L 427.645705 -115.010265 
L 428.906279 -113.988599 
L 429.54034 -112.966933 
L 429.728224 -111.945267 
L 429.302037 -110.923601 
L 428.196857 -109.901935 
L 426.500299 -108.880268 
L 424.578316 -107.858602 
L 422.654359 -106.836936 
L 420.782596 -105.81527 
L 419.170365 -104.793604 
L 417.74514 -103.771938 
L 416.446687 -102.750272 
L 415.406856 -101.728606 
L 414.609057 -100.70694 
L 413.962965 -99.685273 
L 413.31482 -98.663607 
L 412.72212 -97.641941 
L 412.326986 -96.620275 
L 412.016993 -95.598609 
L 411.758283 -94.576943 
L 411.592635 -93.555277 
L 411.448816 -92.533611 
L 411.230081 -91.511945 
L 411.047259 -90.490279 
L 410.978765 -89.468612 
L 410.909188 -88.446946 
L 410.801122 -87.42528 
L 410.71925 -86.403614 
L 410.686509 -85.381948 
L 410.653595 -84.360282 
L 410.611493 -83.338616 
L 410.587976 -82.31695 
L 410.57629 -81.295284 
L 410.551961 -80.273618 
L 410.518324 -79.251951 
L 410.502129 -78.230285 
L 410.496265 -77.208619 
L 410.500647 -76.186953 
L 410.501468 -75.165287 
L 410.492154 -74.143621 
L 410.482484 -73.121955 
L 410.473656 -72.100289 
L 410.468245 -71.078623 
L 410.467713 -70.056956 
L 410.466447 -69.03529 
L 410.464904 -68.013624 
L 410.464447 -66.991958 
L 410.462665 -65.970292 
L 410.462351 -64.948626 
L 410.460218 -63.92696 
L 410.458901 -62.905294 
L 410.459901 -61.883628 
L 410.45936 -60.861962 
L 410.458109 -59.840295 
z
" style="stroke: #515151; stroke-width: 1.5"/>
    </defs>
    <g clip-path="url(#pf274dec619)">
     <use xlink:href="#m612182eb02" x="0" y="194.158125" style="fill: #e1812c; stroke: #515151; stroke-width: 1.5"/>
    </g>
   </g>
   <g id="PolyCollection_4">
    <defs>
     <path id="me3c913d812" d="M 549.958173 -31.290852 
L 549.957452 -31.290852 
L 549.956129 -32.788373 
L 549.955155 -34.285894 
L 549.956393 -35.783414 
L 549.957556 -37.280935 
L 549.957797 -38.778456 
L 549.957812 -40.275976 
L 549.957797 -41.773497 
L 549.957553 -43.271018 
L 549.956364 -44.768538 
L 549.954818 -46.266059 
L 549.954239 -47.76358 
L 549.952044 -49.2611 
L 549.94693 -50.758621 
L 549.944708 -52.256142 
L 549.948499 -53.753662 
L 549.95061 -55.251183 
L 549.950478 -56.748704 
L 549.950648 -58.246224 
L 549.946381 -59.743745 
L 549.933524 -61.241265 
L 549.920132 -62.738786 
L 549.912942 -64.236307 
L 549.910053 -65.733827 
L 549.903575 -67.231348 
L 549.897296 -68.728869 
L 549.889709 -70.226389 
L 549.866866 -71.72391 
L 549.839866 -73.221431 
L 549.81175 -74.718951 
L 549.766575 -76.216472 
L 549.706344 -77.713993 
L 549.651725 -79.211513 
L 549.600456 -80.709034 
L 549.523923 -82.206555 
L 549.410282 -83.704075 
L 549.260932 -85.201596 
L 549.078167 -86.699117 
L 548.869475 -88.196637 
L 548.59724 -89.694158 
L 548.236895 -91.191679 
L 547.859842 -92.689199 
L 547.426051 -94.18672 
L 546.83543 -95.684241 
L 546.146167 -97.181761 
L 545.438575 -98.679282 
L 544.617309 -100.176803 
L 543.641816 -101.674323 
L 542.574921 -103.171844 
L 541.433469 -104.669365 
L 540.242229 -106.166885 
L 539.040266 -107.664406 
L 537.965263 -109.161927 
L 537.296988 -110.659447 
L 537.055551 -112.156968 
L 537.12941 -113.654489 
L 537.647687 -115.152009 
L 538.621766 -116.64953 
L 539.790143 -118.147051 
L 541.039589 -119.644571 
L 542.328442 -121.142092 
L 543.407419 -122.639613 
L 544.306892 -124.137133 
L 545.238115 -125.634654 
L 546.150383 -127.132175 
L 546.914941 -128.629695 
L 547.504594 -130.127216 
L 547.959293 -131.624737 
L 548.360056 -133.122257 
L 548.658387 -134.619778 
L 548.860713 -136.117299 
L 549.052475 -137.614819 
L 549.226001 -139.11234 
L 549.375232 -140.609861 
L 549.49689 -142.107381 
L 549.590089 -143.604902 
L 549.650072 -145.102423 
L 549.700939 -146.599943 
L 549.75944 -148.097464 
L 549.807494 -149.594985 
L 549.85003 -151.092505 
L 549.881916 -152.590026 
L 549.892603 -154.087546 
L 549.900806 -155.585067 
L 549.912955 -157.082588 
L 549.917467 -158.580108 
L 549.919587 -160.077629 
L 549.928625 -161.57515 
L 549.935535 -163.07267 
L 549.939271 -164.570191 
L 549.945565 -166.067712 
L 549.947748 -167.565232 
L 549.943957 -169.062753 
L 549.944111 -170.560274 
L 549.947985 -172.057794 
L 549.948682 -173.555315 
L 549.950287 -175.052836 
L 549.953395 -176.550356 
L 549.955945 -178.047877 
L 549.957445 -179.545398 
L 549.95818 -179.545398 
L 549.95818 -179.545398 
L 549.95968 -178.047877 
L 549.96223 -176.550356 
L 549.965338 -175.052836 
L 549.966943 -173.555315 
L 549.96764 -172.057794 
L 549.971514 -170.560274 
L 549.971668 -169.062753 
L 549.967877 -167.565232 
L 549.97006 -166.067712 
L 549.976354 -164.570191 
L 549.98009 -163.07267 
L 549.987 -161.57515 
L 549.996038 -160.077629 
L 549.998158 -158.580108 
L 550.00267 -157.082588 
L 550.014819 -155.585067 
L 550.023022 -154.087546 
L 550.033709 -152.590026 
L 550.065595 -151.092505 
L 550.108131 -149.594985 
L 550.156185 -148.097464 
L 550.214686 -146.599943 
L 550.265553 -145.102423 
L 550.325536 -143.604902 
L 550.418735 -142.107381 
L 550.540393 -140.609861 
L 550.689624 -139.11234 
L 550.86315 -137.614819 
L 551.054912 -136.117299 
L 551.257238 -134.619778 
L 551.555569 -133.122257 
L 551.956332 -131.624737 
L 552.411031 -130.127216 
L 553.000684 -128.629695 
L 553.765242 -127.132175 
L 554.67751 -125.634654 
L 555.608733 -124.137133 
L 556.508206 -122.639613 
L 557.587183 -121.142092 
L 558.876036 -119.644571 
L 560.125482 -118.147051 
L 561.293859 -116.64953 
L 562.267938 -115.152009 
L 562.786215 -113.654489 
L 562.860074 -112.156968 
L 562.618637 -110.659447 
L 561.950362 -109.161927 
L 560.875359 -107.664406 
L 559.673396 -106.166885 
L 558.482156 -104.669365 
L 557.340704 -103.171844 
L 556.273809 -101.674323 
L 555.298316 -100.176803 
L 554.47705 -98.679282 
L 553.769458 -97.181761 
L 553.080195 -95.684241 
L 552.489574 -94.18672 
L 552.055783 -92.689199 
L 551.67873 -91.191679 
L 551.318385 -89.694158 
L 551.04615 -88.196637 
L 550.837458 -86.699117 
L 550.654693 -85.201596 
L 550.505343 -83.704075 
L 550.391702 -82.206555 
L 550.315169 -80.709034 
L 550.2639 -79.211513 
L 550.209281 -77.713993 
L 550.14905 -76.216472 
L 550.103875 -74.718951 
L 550.075759 -73.221431 
L 550.048759 -71.72391 
L 550.025916 -70.226389 
L 550.018329 -68.728869 
L 550.01205 -67.231348 
L 550.005572 -65.733827 
L 550.002683 -64.236307 
L 549.995493 -62.738786 
L 549.982101 -61.241265 
L 549.969244 -59.743745 
L 549.964977 -58.246224 
L 549.965147 -56.748704 
L 549.965015 -55.251183 
L 549.967126 -53.753662 
L 549.970917 -52.256142 
L 549.968695 -50.758621 
L 549.963581 -49.2611 
L 549.961386 -47.76358 
L 549.960807 -46.266059 
L 549.959261 -44.768538 
L 549.958072 -43.271018 
L 549.957828 -41.773497 
L 549.957813 -40.275976 
L 549.957828 -38.778456 
L 549.958069 -37.280935 
L 549.959232 -35.783414 
L 549.96047 -34.285894 
L 549.959496 -32.788373 
L 549.958173 -31.290852 
z
" style="stroke: #515151; stroke-width: 1.5"/>
    </defs>
    <g clip-path="url(#pf274dec619)">
     <use xlink:href="#me3c913d812" x="0" y="194.158125" style="fill: #e1812c; stroke: #515151; stroke-width: 1.5"/>
    </g>
   </g>
   <g id="matplotlib.axis_1">
    <g id="xtick_1">
     <g id="line2d_1">
      <defs>
       <path id="mbeff718ab7" d="M 0 0 
L 0 3.5 
" style="stroke: #000000; stroke-width: 0.8"/>
      </defs>
      <g>
       <use xlink:href="#mbeff718ab7" x="131.457812" y="170.28" style="stroke: #000000; stroke-width: 0.8"/>
      </g>
     </g>
     <g id="text_1">
      <!-- (1, dense) -->
      <g transform="translate(106.096094 184.878438)scale(0.1 -0.1)">
       <defs>
        <path id="DejaVuSans-28" d="M 1984 4856 
Q 1566 4138 1362 3434 
Q 1159 2731 1159 2009 
Q 1159 1288 1364 580 
Q 1569 -128 1984 -844 
L 1484 -844 
Q 1016 -109 783 600 
Q 550 1309 550 2009 
Q 550 2706 781 3412 
Q 1013 4119 1484 4856 
L 1984 4856 
z
" transform="scale(0.015625)"/>
        <path id="DejaVuSans-31" d="M 794 531 
L 1825 531 
L 1825 4091 
L 703 3866 
L 703 4441 
L 1819 4666 
L 2450 4666 
L 2450 531 
L 3481 531 
L 3481 0 
L 794 0 
L 794 531 
z
" transform="scale(0.015625)"/>
        <path id="DejaVuSans-2c" d="M 750 794 
L 1409 794 
L 1409 256 
L 897 -744 
L 494 -744 
L 750 256 
L 750 794 
z
" transform="scale(0.015625)"/>
        <path id="DejaVuSans-20" transform="scale(0.015625)"/>
        <path id="DejaVuSans-64" d="M 2906 2969 
L 2906 4863 
L 3481 4863 
L 3481 0 
L 2906 0 
L 2906 525 
Q 2725 213 2448 61 
Q 2172 -91 1784 -91 
Q 1150 -91 751 415 
Q 353 922 353 1747 
Q 353 2572 751 3078 
Q 1150 3584 1784 3584 
Q 2172 3584 2448 3432 
Q 2725 3281 2906 2969 
z
M 947 1747 
Q 947 1113 1208 752 
Q 1469 391 1925 391 
Q 2381 391 2643 752 
Q 2906 1113 2906 1747 
Q 2906 2381 2643 2742 
Q 2381 3103 1925 3103 
Q 1469 3103 1208 2742 
Q 947 2381 947 1747 
z
" transform="scale(0.015625)"/>
        <path id="DejaVuSans-65" d="M 3597 1894 
L 3597 1613 
L 953 1613 
Q 991 1019 1311 708 
Q 1631 397 2203 397 
Q 2534 397 2845 478 
Q 3156 559 3463 722 
L 3463 178 
Q 3153 47 2828 -22 
Q 2503 -91 2169 -91 
Q 1331 -91 842 396 
Q 353 884 353 1716 
Q 353 2575 817 3079 
Q 1281 3584 2069 3584 
Q 2775 3584 3186 3129 
Q 3597 2675 3597 1894 
z
M 3022 2063 
Q 3016 2534 2758 2815 
Q 2500 3097 2075 3097 
Q 1594 3097 1305 2825 
Q 1016 2553 972 2059 
L 3022 2063 
z
" transform="scale(0.015625)"/>
        <path id="DejaVuSans-6e" d="M 3513 2113 
L 3513 0 
L 2938 0 
L 2938 2094 
Q 2938 2591 2744 2837 
Q 2550 3084 2163 3084 
Q 1697 3084 1428 2787 
Q 1159 2491 1159 1978 
L 1159 0 
L 581 0 
L 581 3500 
L 1159 3500 
L 1159 2956 
Q 1366 3272 1645 3428 
Q 1925 3584 2291 3584 
Q 2894 3584 3203 3211 
Q 3513 2838 3513 2113 
z
" transform="scale(0.015625)"/>
        <path id="DejaVuSans-73" d="M 2834 3397 
L 2834 2853 
Q 2591 2978 2328 3040 
Q 2066 3103 1784 3103 
Q 1356 3103 1142 2972 
Q 928 2841 928 2578 
Q 928 2378 1081 2264 
Q 1234 2150 1697 2047 
L 1894 2003 
Q 2506 1872 2764 1633 
Q 3022 1394 3022 966 
Q 3022 478 2636 193 
Q 2250 -91 1575 -91 
Q 1294 -91 989 -36 
Q 684 19 347 128 
L 347 722 
Q 666 556 975 473 
Q 1284 391 1588 391 
Q 1994 391 2212 530 
Q 2431 669 2431 922 
Q 2431 1156 2273 1281 
Q 2116 1406 1581 1522 
L 1381 1569 
Q 847 1681 609 1914 
Q 372 2147 372 2553 
Q 372 3047 722 3315 
Q 1072 3584 1716 3584 
Q 2034 3584 2315 3537 
Q 2597 3491 2834 3397 
z
" transform="scale(0.015625)"/>
        <path id="DejaVuSans-29" d="M 513 4856 
L 1013 4856 
Q 1481 4119 1714 3412 
Q 1947 2706 1947 2009 
Q 1947 1309 1714 600 
Q 1481 -109 1013 -844 
L 513 -844 
Q 928 -128 1133 580 
Q 1338 1288 1338 2009 
Q 1338 2731 1133 3434 
Q 928 4138 513 4856 
z
" transform="scale(0.015625)"/>
       </defs>
       <use xlink:href="#DejaVuSans-28"/>
       <use xlink:href="#DejaVuSans-31" x="39.013672"/>
       <use xlink:href="#DejaVuSans-2c" x="102.636719"/>
       <use xlink:href="#DejaVuSans-20" x="134.423828"/>
       <use xlink:href="#DejaVuSans-64" x="166.210938"/>
       <use xlink:href="#DejaVuSans-65" x="229.6875"/>
       <use xlink:href="#DejaVuSans-6e" x="291.210938"/>
       <use xlink:href="#DejaVuSans-73" x="354.589844"/>
       <use xlink:href="#DejaVuSans-65" x="406.689453"/>
       <use xlink:href="#DejaVuSans-29" x="468.212891"/>
      </g>
     </g>
    </g>
    <g id="xtick_2">
     <g id="line2d_2">
      <g>
       <use xlink:href="#mbeff718ab7" x="270.957812" y="170.28" style="stroke: #000000; stroke-width: 0.8"/>
      </g>
     </g>
     <g id="text_2">
      <!-- (2, dense) -->
      <g transform="translate(245.596094 184.878438)scale(0.1 -0.1)">
       <defs>
        <path id="DejaVuSans-32" d="M 1228 531 
L 3431 531 
L 3431 0 
L 469 0 
L 469 531 
Q 828 903 1448 1529 
Q 2069 2156 2228 2338 
Q 2531 2678 2651 2914 
Q 2772 3150 2772 3378 
Q 2772 3750 2511 3984 
Q 2250 4219 1831 4219 
Q 1534 4219 1204 4116 
Q 875 4013 500 3803 
L 500 4441 
Q 881 4594 1212 4672 
Q 1544 4750 1819 4750 
Q 2544 4750 2975 4387 
Q 3406 4025 3406 3419 
Q 3406 3131 3298 2873 
Q 3191 2616 2906 2266 
Q 2828 2175 2409 1742 
Q 1991 1309 1228 531 
z
" transform="scale(0.015625)"/>
       </defs>
       <use xlink:href="#DejaVuSans-28"/>
       <use xlink:href="#DejaVuSans-32" x="39.013672"/>
       <use xlink:href="#DejaVuSans-2c" x="102.636719"/>
       <use xlink:href="#DejaVuSans-20" x="134.423828"/>
       <use xlink:href="#DejaVuSans-64" x="166.210938"/>
       <use xlink:href="#DejaVuSans-65" x="229.6875"/>
       <use xlink:href="#DejaVuSans-6e" x="291.210938"/>
       <use xlink:href="#DejaVuSans-73" x="354.589844"/>
       <use xlink:href="#DejaVuSans-65" x="406.689453"/>
       <use xlink:href="#DejaVuSans-29" x="468.212891"/>
      </g>
     </g>
    </g>
    <g id="xtick_3">
     <g id="line2d_3">
      <g>
       <use xlink:href="#mbeff718ab7" x="410.457812" y="170.28" style="stroke: #000000; stroke-width: 0.8"/>
      </g>
     </g>
     <g id="text_3">
      <!-- (3, dense) -->
      <g transform="translate(385.096094 184.878438)scale(0.1 -0.1)">
       <defs>
        <path id="DejaVuSans-33" d="M 2597 2516 
Q 3050 2419 3304 2112 
Q 3559 1806 3559 1356 
Q 3559 666 3084 287 
Q 2609 -91 1734 -91 
Q 1441 -91 1130 -33 
Q 819 25 488 141 
L 488 750 
Q 750 597 1062 519 
Q 1375 441 1716 441 
Q 2309 441 2620 675 
Q 2931 909 2931 1356 
Q 2931 1769 2642 2001 
Q 2353 2234 1838 2234 
L 1294 2234 
L 1294 2753 
L 1863 2753 
Q 2328 2753 2575 2939 
Q 2822 3125 2822 3475 
Q 2822 3834 2567 4026 
Q 2313 4219 1838 4219 
Q 1578 4219 1281 4162 
Q 984 4106 628 3988 
L 628 4550 
Q 988 4650 1302 4700 
Q 1616 4750 1894 4750 
Q 2613 4750 3031 4423 
Q 3450 4097 3450 3541 
Q 3450 3153 3228 2886 
Q 3006 2619 2597 2516 
z
" transform="scale(0.015625)"/>
       </defs>
       <use xlink:href="#DejaVuSans-28"/>
       <use xlink:href="#DejaVuSans-33" x="39.013672"/>
       <use xlink:href="#DejaVuSans-2c" x="102.636719"/>
       <use xlink:href="#DejaVuSans-20" x="134.423828"/>
       <use xlink:href="#DejaVuSans-64" x="166.210938"/>
       <use xlink:href="#DejaVuSans-65" x="229.6875"/>
       <use xlink:href="#DejaVuSans-6e" x="291.210938"/>
       <use xlink:href="#DejaVuSans-73" x="354.589844"/>
       <use xlink:href="#DejaVuSans-65" x="406.689453"/>
       <use xlink:href="#DejaVuSans-29" x="468.212891"/>
      </g>
     </g>
    </g>
    <g id="xtick_4">
     <g id="line2d_4">
      <g>
       <use xlink:href="#mbeff718ab7" x="549.957813" y="170.28" style="stroke: #000000; stroke-width: 0.8"/>
      </g>
     </g>
     <g id="text_4">
      <!-- (4, dense) -->
      <g transform="translate(524.596094 184.878438)scale(0.1 -0.1)">
       <defs>
        <path id="DejaVuSans-34" d="M 2419 4116 
L 825 1625 
L 2419 1625 
L 2419 4116 
z
M 2253 4666 
L 3047 4666 
L 3047 1625 
L 3713 1625 
L 3713 1100 
L 3047 1100 
L 3047 0 
L 2419 0 
L 2419 1100 
L 313 1100 
L 313 1709 
L 2253 4666 
z
" transform="scale(0.015625)"/>
       </defs>
       <use xlink:href="#DejaVuSans-28"/>
       <use xlink:href="#DejaVuSans-34" x="39.013672"/>
       <use xlink:href="#DejaVuSans-2c" x="102.636719"/>
       <use xlink:href="#DejaVuSans-20" x="134.423828"/>
       <use xlink:href="#DejaVuSans-64" x="166.210938"/>
       <use xlink:href="#DejaVuSans-65" x="229.6875"/>
       <use xlink:href="#DejaVuSans-6e" x="291.210938"/>
       <use xlink:href="#DejaVuSans-73" x="354.589844"/>
       <use xlink:href="#DejaVuSans-65" x="406.689453"/>
       <use xlink:href="#DejaVuSans-29" x="468.212891"/>
      </g>
     </g>
    </g>
   </g>
   <g id="matplotlib.axis_2">
    <g id="ytick_1">
     <g id="line2d_5">
      <defs>
       <path id="m8f25ad534e" d="M 0 0 
L -3.5 0 
" style="stroke: #000000; stroke-width: 0.8"/>
      </defs>
      <g>
       <use xlink:href="#m8f25ad534e" x="61.707813" y="166.058656" style="stroke: #000000; stroke-width: 0.8"/>
      </g>
     </g>
     <g id="text_5">
      <!-- −8000 -->
      <g transform="translate(20.878125 169.857875)scale(0.1 -0.1)">
       <defs>
        <path id="DejaVuSans-2212" d="M 678 2272 
L 4684 2272 
L 4684 1741 
L 678 1741 
L 678 2272 
z
" transform="scale(0.015625)"/>
        <path id="DejaVuSans-38" d="M 2034 2216 
Q 1584 2216 1326 1975 
Q 1069 1734 1069 1313 
Q 1069 891 1326 650 
Q 1584 409 2034 409 
Q 2484 409 2743 651 
Q 3003 894 3003 1313 
Q 3003 1734 2745 1975 
Q 2488 2216 2034 2216 
z
M 1403 2484 
Q 997 2584 770 2862 
Q 544 3141 544 3541 
Q 544 4100 942 4425 
Q 1341 4750 2034 4750 
Q 2731 4750 3128 4425 
Q 3525 4100 3525 3541 
Q 3525 3141 3298 2862 
Q 3072 2584 2669 2484 
Q 3125 2378 3379 2068 
Q 3634 1759 3634 1313 
Q 3634 634 3220 271 
Q 2806 -91 2034 -91 
Q 1263 -91 848 271 
Q 434 634 434 1313 
Q 434 1759 690 2068 
Q 947 2378 1403 2484 
z
M 1172 3481 
Q 1172 3119 1398 2916 
Q 1625 2713 2034 2713 
Q 2441 2713 2670 2916 
Q 2900 3119 2900 3481 
Q 2900 3844 2670 4047 
Q 2441 4250 2034 4250 
Q 1625 4250 1398 4047 
Q 1172 3844 1172 3481 
z
" transform="scale(0.015625)"/>
        <path id="DejaVuSans-30" d="M 2034 4250 
Q 1547 4250 1301 3770 
Q 1056 3291 1056 2328 
Q 1056 1369 1301 889 
Q 1547 409 2034 409 
Q 2525 409 2770 889 
Q 3016 1369 3016 2328 
Q 3016 3291 2770 3770 
Q 2525 4250 2034 4250 
z
M 2034 4750 
Q 2819 4750 3233 4129 
Q 3647 3509 3647 2328 
Q 3647 1150 3233 529 
Q 2819 -91 2034 -91 
Q 1250 -91 836 529 
Q 422 1150 422 2328 
Q 422 3509 836 4129 
Q 1250 4750 2034 4750 
z
" transform="scale(0.015625)"/>
       </defs>
       <use xlink:href="#DejaVuSans-2212"/>
       <use xlink:href="#DejaVuSans-38" x="83.789062"/>
       <use xlink:href="#DejaVuSans-30" x="147.412109"/>
       <use xlink:href="#DejaVuSans-30" x="211.035156"/>
       <use xlink:href="#DejaVuSans-30" x="274.658203"/>
      </g>
     </g>
    </g>
    <g id="ytick_2">
     <g id="line2d_6">
      <g>
       <use xlink:href="#m8f25ad534e" x="61.707813" y="145.022938" style="stroke: #000000; stroke-width: 0.8"/>
      </g>
     </g>
     <g id="text_6">
      <!-- −6000 -->
      <g transform="translate(20.878125 148.822157)scale(0.1 -0.1)">
       <defs>
        <path id="DejaVuSans-36" d="M 2113 2584 
Q 1688 2584 1439 2293 
Q 1191 2003 1191 1497 
Q 1191 994 1439 701 
Q 1688 409 2113 409 
Q 2538 409 2786 701 
Q 3034 994 3034 1497 
Q 3034 2003 2786 2293 
Q 2538 2584 2113 2584 
z
M 3366 4563 
L 3366 3988 
Q 3128 4100 2886 4159 
Q 2644 4219 2406 4219 
Q 1781 4219 1451 3797 
Q 1122 3375 1075 2522 
Q 1259 2794 1537 2939 
Q 1816 3084 2150 3084 
Q 2853 3084 3261 2657 
Q 3669 2231 3669 1497 
Q 3669 778 3244 343 
Q 2819 -91 2113 -91 
Q 1303 -91 875 529 
Q 447 1150 447 2328 
Q 447 3434 972 4092 
Q 1497 4750 2381 4750 
Q 2619 4750 2861 4703 
Q 3103 4656 3366 4563 
z
" transform="scale(0.015625)"/>
       </defs>
       <use xlink:href="#DejaVuSans-2212"/>
       <use xlink:href="#DejaVuSans-36" x="83.789062"/>
       <use xlink:href="#DejaVuSans-30" x="147.412109"/>
       <use xlink:href="#DejaVuSans-30" x="211.035156"/>
       <use xlink:href="#DejaVuSans-30" x="274.658203"/>
      </g>
     </g>
    </g>
    <g id="ytick_3">
     <g id="line2d_7">
      <g>
       <use xlink:href="#m8f25ad534e" x="61.707813" y="123.98722" style="stroke: #000000; stroke-width: 0.8"/>
      </g>
     </g>
     <g id="text_7">
      <!-- −4000 -->
      <g transform="translate(20.878125 127.786439)scale(0.1 -0.1)">
       <use xlink:href="#DejaVuSans-2212"/>
       <use xlink:href="#DejaVuSans-34" x="83.789062"/>
       <use xlink:href="#DejaVuSans-30" x="147.412109"/>
       <use xlink:href="#DejaVuSans-30" x="211.035156"/>
       <use xlink:href="#DejaVuSans-30" x="274.658203"/>
      </g>
     </g>
    </g>
    <g id="ytick_4">
     <g id="line2d_8">
      <g>
       <use xlink:href="#m8f25ad534e" x="61.707813" y="102.951502" style="stroke: #000000; stroke-width: 0.8"/>
      </g>
     </g>
     <g id="text_8">
      <!-- −2000 -->
      <g transform="translate(20.878125 106.750721)scale(0.1 -0.1)">
       <use xlink:href="#DejaVuSans-2212"/>
       <use xlink:href="#DejaVuSans-32" x="83.789062"/>
       <use xlink:href="#DejaVuSans-30" x="147.412109"/>
       <use xlink:href="#DejaVuSans-30" x="211.035156"/>
       <use xlink:href="#DejaVuSans-30" x="274.658203"/>
      </g>
     </g>
    </g>
    <g id="ytick_5">
     <g id="line2d_9">
      <g>
       <use xlink:href="#m8f25ad534e" x="61.707813" y="81.915784" style="stroke: #000000; stroke-width: 0.8"/>
      </g>
     </g>
     <g id="text_9">
      <!-- 0 -->
      <g transform="translate(48.345313 85.715003)scale(0.1 -0.1)">
       <use xlink:href="#DejaVuSans-30"/>
      </g>
     </g>
    </g>
    <g id="ytick_6">
     <g id="line2d_10">
      <g>
       <use xlink:href="#m8f25ad534e" x="61.707813" y="60.880066" style="stroke: #000000; stroke-width: 0.8"/>
      </g>
     </g>
     <g id="text_10">
      <!-- 2000 -->
      <g transform="translate(29.257812 64.679285)scale(0.1 -0.1)">
       <use xlink:href="#DejaVuSans-32"/>
       <use xlink:href="#DejaVuSans-30" x="63.623047"/>
       <use xlink:href="#DejaVuSans-30" x="127.246094"/>
       <use xlink:href="#DejaVuSans-30" x="190.869141"/>
      </g>
     </g>
    </g>
    <g id="ytick_7">
     <g id="line2d_11">
      <g>
       <use xlink:href="#m8f25ad534e" x="61.707813" y="39.844348" style="stroke: #000000; stroke-width: 0.8"/>
      </g>
     </g>
     <g id="text_11">
      <!-- 4000 -->
      <g transform="translate(29.257812 43.643567)scale(0.1 -0.1)">
       <use xlink:href="#DejaVuSans-34"/>
       <use xlink:href="#DejaVuSans-30" x="63.623047"/>
       <use xlink:href="#DejaVuSans-30" x="127.246094"/>
       <use xlink:href="#DejaVuSans-30" x="190.869141"/>
      </g>
     </g>
    </g>
    <g id="ytick_8">
     <g id="line2d_12">
      <g>
       <use xlink:href="#m8f25ad534e" x="61.707813" y="18.80863" style="stroke: #000000; stroke-width: 0.8"/>
      </g>
     </g>
     <g id="text_12">
      <!-- 6000 -->
      <g transform="translate(29.257812 22.607849)scale(0.1 -0.1)">
       <use xlink:href="#DejaVuSans-36"/>
       <use xlink:href="#DejaVuSans-30" x="63.623047"/>
       <use xlink:href="#DejaVuSans-30" x="127.246094"/>
       <use xlink:href="#DejaVuSans-30" x="190.869141"/>
      </g>
     </g>
    </g>
    <g id="text_13">
     <!-- ${\nabla}_w L$ -->
     <g transform="translate(14.798438 97.94)rotate(-90)scale(0.1 -0.1)">
      <defs>
       <path id="DejaVuSans-2207" d="M 2138 659 
L 3444 4047 
L 831 4047 
L 2138 659 
z
M 1791 0 
L -19 4603 
L 4300 4603 
L 2491 0 
L 1791 0 
z
" transform="scale(0.015625)"/>
       <path id="DejaVuSans-Oblique-77" d="M 544 3500 
L 1113 3500 
L 1259 684 
L 2566 3500 
L 3231 3500 
L 3425 684 
L 4666 3500 
L 5241 3500 
L 3641 0 
L 2969 0 
L 2797 2900 
L 1459 0 
L 781 0 
L 544 3500 
z
" transform="scale(0.015625)"/>
       <path id="DejaVuSans-Oblique-4c" d="M 1075 4666 
L 1709 4666 
L 909 525 
L 3181 525 
L 3078 0 
L 172 0 
L 1075 4666 
z
" transform="scale(0.015625)"/>
      </defs>
      <use xlink:href="#DejaVuSans-2207" transform="translate(0 0.09375)"/>
      <use xlink:href="#DejaVuSans-Oblique-77" transform="translate(67.851562 -16.3125)scale(0.7)"/>
      <use xlink:href="#DejaVuSans-Oblique-4c" transform="translate(127.836914 0.09375)"/>
     </g>
    </g>
   </g>
   <g id="line2d_13">
    <path d="M 131.457812 89.559514 
L 131.457812 74.35824 
" clip-path="url(#pf274dec619)" style="fill: none; stroke: #515151; stroke-width: 1.5; stroke-linecap: square"/>
   </g>
   <g id="line2d_14">
    <path d="M 131.457812 83.859363 
L 131.457812 80.058913 
" clip-path="url(#pf274dec619)" style="fill: none; stroke: #515151; stroke-width: 4.5; stroke-linecap: square"/>
   </g>
   <g id="line2d_15">
    <path d="M 270.957812 94.325182 
L 270.957812 69.462084 
" clip-path="url(#pf274dec619)" style="fill: none; stroke: #515151; stroke-width: 1.5; stroke-linecap: square"/>
   </g>
   <g id="line2d_16">
    <path d="M 270.957812 85.001549 
L 270.957812 78.785646 
" clip-path="url(#pf274dec619)" style="fill: none; stroke: #515151; stroke-width: 4.5; stroke-linecap: square"/>
   </g>
   <g id="line2d_17">
    <path d="M 410.457812 99.865482 
L 410.457812 64.132729 
" clip-path="url(#pf274dec619)" style="fill: none; stroke: #515151; stroke-width: 1.5; stroke-linecap: square"/>
   </g>
   <g id="line2d_18">
    <path d="M 410.457812 86.475548 
L 410.457812 77.537397 
" clip-path="url(#pf274dec619)" style="fill: none; stroke: #515151; stroke-width: 4.5; stroke-linecap: square"/>
   </g>
   <g id="line2d_19">
    <path d="M 549.957813 108.559927 
L 549.957813 55.238698 
" clip-path="url(#pf274dec619)" style="fill: none; stroke: #515151; stroke-width: 1.5; stroke-linecap: square"/>
   </g>
   <g id="line2d_20">
    <path d="M 549.957813 88.567655 
L 549.957813 75.231589 
" clip-path="url(#pf274dec619)" style="fill: none; stroke: #515151; stroke-width: 4.5; stroke-linecap: square"/>
   </g>
   <g id="patch_3">
    <path d="M 61.707813 170.28 
L 61.707813 7.2 
" style="fill: none; stroke: #000000; stroke-width: 0.8; stroke-linejoin: miter; stroke-linecap: square"/>
   </g>
   <g id="patch_4">
    <path d="M 619.707813 170.28 
L 619.707813 7.2 
" style="fill: none; stroke: #000000; stroke-width: 0.8; stroke-linejoin: miter; stroke-linecap: square"/>
   </g>
   <g id="patch_5">
    <path d="M 61.707812 170.28 
L 619.707813 170.28 
" style="fill: none; stroke: #000000; stroke-width: 0.8; stroke-linejoin: miter; stroke-linecap: square"/>
   </g>
   <g id="patch_6">
    <path d="M 61.707812 7.2 
L 619.707813 7.2 
" style="fill: none; stroke: #000000; stroke-width: 0.8; stroke-linejoin: miter; stroke-linecap: square"/>
   </g>
   <g id="PathCollection_1">
    <defs>
     <path id="mf43c1336e1" d="M 0 1.5 
C 0.397805 1.5 0.77937 1.341951 1.06066 1.06066 
C 1.341951 0.77937 1.5 0.397805 1.5 0 
C 1.5 -0.397805 1.341951 -0.77937 1.06066 -1.06066 
C 0.77937 -1.341951 0.397805 -1.5 0 -1.5 
C -0.397805 -1.5 -0.77937 -1.341951 -1.06066 -1.06066 
C -1.341951 -0.77937 -1.5 -0.397805 -1.5 0 
C -1.5 0.397805 -1.341951 0.77937 -1.06066 1.06066 
C -0.77937 1.341951 -0.397805 1.5 0 1.5 
z
" style="stroke: #515151"/>
    </defs>
    <g clip-path="url(#pf274dec619)">
     <use xlink:href="#mf43c1336e1" x="131.457812" y="81.926678" style="fill: #ffffff; stroke: #515151"/>
    </g>
   </g>
   <g id="PathCollection_2">
    <g clip-path="url(#pf274dec619)">
     <use xlink:href="#mf43c1336e1" x="270.957812" y="81.884351" style="fill: #ffffff; stroke: #515151"/>
    </g>
   </g>
   <g id="PathCollection_3">
    <g clip-path="url(#pf274dec619)">
     <use xlink:href="#mf43c1336e1" x="410.457812" y="81.988425" style="fill: #ffffff; stroke: #515151"/>
    </g>
   </g>
   <g id="PathCollection_4">
    <g clip-path="url(#pf274dec619)">
     <use xlink:href="#mf43c1336e1" x="549.957813" y="81.854948" style="fill: #ffffff; stroke: #515151"/>
    </g>
   </g>
   <g id="legend_1">
    <g id="patch_7">
     <path d="M 68.707813 29.878125 
L 109.834375 29.878125 
Q 111.834375 29.878125 111.834375 27.878125 
L 111.834375 14.2 
Q 111.834375 12.2 109.834375 12.2 
L 68.707813 12.2 
Q 66.707813 12.2 66.707813 14.2 
L 66.707813 27.878125 
Q 66.707813 29.878125 68.707813 29.878125 
z
" style="fill: #ffffff; opacity: 0.8; stroke: #cccccc; stroke-linejoin: miter"/>
    </g>
    <g id="patch_8">
     <path d="M 70.707813 23.798437 
L 90.707813 23.798437 
L 90.707813 16.798437 
L 70.707813 16.798437 
z
" style="fill: #e1812c; stroke: #515151; stroke-width: 1.5; stroke-linejoin: miter"/>
    </g>
    <g id="text_14">
     <!-- id -->
     <g transform="translate(98.707813 23.798437)scale(0.1 -0.1)">
      <defs>
       <path id="DejaVuSans-69" d="M 603 3500 
L 1178 3500 
L 1178 0 
L 603 0 
L 603 3500 
z
M 603 4863 
L 1178 4863 
L 1178 4134 
L 603 4134 
L 603 4863 
z
" transform="scale(0.015625)"/>
      </defs>
      <use xlink:href="#DejaVuSans-69"/>
      <use xlink:href="#DejaVuSans-64" x="27.783203"/>
     </g>
    </g>
   </g>
  </g>
 </g>
 <defs>
  <clipPath id="pf274dec619">
   <rect x="61.707813" y="7.2" width="558" height="163.08"/>
  </clipPath>
 </defs>
</svg>
