<?xml version="1.0" encoding="utf-8" standalone="no"?>
<!DOCTYPE svg PUBLIC "-//W3C//DTD SVG 1.1//EN"
  "http://www.w3.org/Graphics/SVG/1.1/DTD/svg11.dtd">
<svg xmlns:xlink="http://www.w3.org/1999/xlink" width="388.9625pt" height="265.995469pt" viewBox="0 0 388.9625 265.995469" xmlns="http://www.w3.org/2000/svg" version="1.1">
 <metadata>
  <rdf:RDF xmlns:dc="http://purl.org/dc/elements/1.1/" xmlns:cc="http://creativecommons.org/ns#" xmlns:rdf="http://www.w3.org/1999/02/22-rdf-syntax-ns#">
   <cc:Work>
    <dc:type rdf:resource="http://purl.org/dc/dcmitype/StillImage"/>
    <dc:date>2022-07-18T05:08:49.367162</dc:date>
    <dc:format>image/svg+xml</dc:format>
    <dc:creator>
     <cc:Agent>
      <dc:title>Matplotlib v3.5.1, https://matplotlib.org/</dc:title>
     </cc:Agent>
    </dc:creator>
   </cc:Work>
  </rdf:RDF>
 </metadata>
 <defs>
  <style type="text/css">*{stroke-linejoin: round; stroke-linecap: butt}</style>
 </defs>
 <g id="figure_1">
  <g id="patch_1">
   <path d="M 0 265.995469 
L 388.9625 265.995469 
L 388.9625 0 
L 0 0 
L 0 265.995469 
z
" style="fill: none"/>
  </g>
  <g id="axes_1">
   <g id="patch_2">
    <path d="M 43.78125 228.439219 
L 378.58125 228.439219 
L 378.58125 10.999219 
L 43.78125 10.999219 
z
" style="fill: #ffffff"/>
   </g>
   <g id="PolyCollection_1">
    <defs>
     <path id="mee4b84ce74" d="M 43.78125 -37.55625 
L 43.78125 -37.55625 
L 44.900982 -37.55625 
L 46.020715 -37.55625 
L 47.140447 -37.55625 
L 48.26018 -37.55625 
L 49.379912 -37.55625 
L 50.499645 -37.55625 
L 51.619377 -37.55625 
L 52.73911 -37.55625 
L 53.858842 -37.55625 
L 54.978574 -37.55625 
L 56.098307 -37.55625 
L 57.218039 -37.55625 
L 58.337772 -37.55625 
L 59.457504 -37.55625 
L 60.577237 -37.55625 
L 61.696969 -37.55625 
L 62.816702 -37.55625 
L 63.936434 -37.55625 
L 65.056166 -37.55625 
L 66.175899 -37.55625 
L 67.295631 -37.55625 
L 68.415364 -37.55625 
L 69.535096 -37.55625 
L 70.654829 -37.55625 
L 71.774561 -37.55625 
L 72.894293 -37.55625 
L 74.014026 -37.55625 
L 75.133758 -37.55625 
L 76.253491 -37.55625 
L 77.373223 -37.55625 
L 78.492956 -37.55625 
L 79.612688 -37.55625 
L 80.732421 -37.55625 
L 81.852153 -37.55625 
L 82.971885 -37.55625 
L 84.091618 -37.55625 
L 85.21135 -37.55625 
L 86.331083 -37.55625 
L 87.450815 -37.55625 
L 88.570548 -37.55625 
L 89.69028 -37.55625 
L 90.810013 -37.55625 
L 91.929745 -37.55625 
L 93.049477 -37.55625 
L 94.16921 -37.55625 
L 95.288942 -37.55625 
L 96.408675 -37.55625 
L 97.528407 -37.55625 
L 98.64814 -37.55625 
L 99.767872 -37.55625 
L 100.887605 -37.556255 
L 102.007337 -37.556298 
L 103.127069 -37.556627 
L 104.246802 -37.558491 
L 105.366534 -37.566306 
L 106.486267 -37.590427 
L 107.605999 -37.644777 
L 108.725732 -37.733314 
L 109.845464 -37.837193 
L 110.965196 -37.929428 
L 112.084929 -38.010875 
L 113.204661 -38.121214 
L 114.324394 -38.312658 
L 115.444126 -38.618258 
L 116.563859 -39.027163 
L 117.683591 -39.480545 
L 118.803324 -39.913193 
L 119.923056 -40.294137 
L 121.042788 -40.601547 
L 122.162521 -40.788742 
L 123.282253 -40.824527 
L 124.401986 -40.748081 
L 125.521718 -40.648267 
L 126.641451 -40.611681 
L 127.761183 -40.710951 
L 128.880916 -40.998644 
L 130.000648 -41.453233 
L 131.12038 -41.941886 
L 132.240113 -42.323222 
L 133.359845 -42.635671 
L 134.479578 -43.112114 
L 135.59931 -43.920426 
L 136.719043 -44.923735 
L 137.838775 -45.807389 
L 138.958508 -46.436962 
L 140.07824 -46.932694 
L 141.197972 -47.374288 
L 142.317705 -47.665318 
L 143.437437 -47.793566 
L 144.55717 -48.010633 
L 145.676902 -48.551676 
L 146.796635 -49.29944 
L 147.916367 -50.004369 
L 149.036099 -50.820811 
L 150.155832 -52.283666 
L 151.275564 -54.622323 
L 152.395297 -57.353347 
L 153.515029 -59.760409 
L 154.634762 -61.733428 
L 155.754494 -63.957569 
L 156.874227 -67.147546 
L 157.993959 -71.308905 
L 159.113691 -76.076152 
L 160.233424 -81.554472 
L 161.353156 -88.239365 
L 162.472889 -95.896119 
L 163.592621 -102.835058 
L 164.712354 -106.828001 
L 165.832086 -107.079182 
L 166.951819 -105.096102 
L 168.071551 -103.332876 
L 169.191283 -103.200446 
L 170.311016 -104.488518 
L 171.430748 -106.173049 
L 172.550481 -107.572992 
L 173.670213 -109.160729 
L 174.789946 -112.287774 
L 175.909678 -117.699756 
L 177.029411 -124.360079 
L 178.149143 -130.176829 
L 179.268875 -134.036099 
L 180.388608 -136.762485 
L 181.50834 -139.647109 
L 182.628073 -142.55277 
L 183.747805 -144.341455 
L 184.867538 -144.393826 
L 185.98727 -142.846623 
L 187.107003 -140.522774 
L 188.226735 -139.193357 
L 189.346467 -140.566984 
L 190.4662 -144.737034 
L 191.585932 -150.462308 
L 192.705665 -156.468862 
L 193.825397 -161.71554 
L 194.94513 -165.281699 
L 196.064862 -166.948005 
L 197.184594 -167.607987 
L 198.304327 -168.765478 
L 199.424059 -171.463149 
L 200.543792 -175.41145 
L 201.663524 -179.446311 
L 202.783257 -183.101855 
L 203.902989 -186.994386 
L 205.022722 -191.321302 
L 206.142454 -194.616768 
L 207.262186 -193.850697 
L 208.381919 -185.310944 
L 209.501651 -166.649622 
L 210.621384 -139.838543 
L 211.741116 -111.666218 
L 212.860849 -89.539124 
L 213.980581 -76.526219 
L 215.100314 -70.868389 
L 216.220046 -69.150904 
L 217.339778 -68.907484 
L 218.459511 -69.060904 
L 219.579243 -69.325207 
L 220.698976 -69.669041 
L 221.818708 -70.086079 
L 222.938441 -70.556573 
L 224.058173 -71.070225 
L 225.177906 -71.632558 
L 226.297638 -72.24035 
L 227.41737 -72.870574 
L 228.537103 -73.507168 
L 229.656835 -74.161501 
L 230.776568 -74.853818 
L 231.8963 -75.586252 
L 233.016033 -76.339707 
L 234.135765 -77.090674 
L 235.255497 -77.832647 
L 236.37523 -78.586701 
L 237.494962 -79.389002 
L 238.614695 -80.265523 
L 239.734427 -81.220917 
L 240.85416 -82.249038 
L 241.973892 -83.343514 
L 243.093625 -84.491608 
L 244.213357 -85.670285 
L 245.333089 -86.862146 
L 246.452822 -88.061984 
L 247.572554 -89.257881 
L 248.692287 -90.427207 
L 249.812019 -91.559982 
L 250.931752 -92.661304 
L 252.051484 -93.714655 
L 253.171217 -94.651102 
L 254.290949 -95.360275 
L 255.410681 -95.730297 
L 256.530414 -95.686012 
L 257.650146 -95.20725 
L 258.769879 -94.326228 
L 259.889611 -93.110405 
L 261.009344 -91.634633 
L 262.129076 -89.953499 
L 263.248809 -88.099112 
L 264.368541 -86.117162 
L 265.488273 -84.10616 
L 266.608006 -82.194091 
L 267.727738 -80.429193 
L 268.847471 -78.665158 
L 269.967203 -76.597778 
L 271.086936 -74.016828 
L 272.206668 -71.059165 
L 273.326401 -68.143351 
L 274.446133 -65.621777 
L 275.565865 -63.55073 
L 276.685598 -61.786395 
L 277.80533 -60.190662 
L 278.925063 -58.702643 
L 280.044795 -57.298391 
L 281.164528 -55.958628 
L 282.28426 -54.670853 
L 283.403992 -53.439321 
L 284.523725 -52.286632 
L 285.643457 -51.241152 
L 286.76319 -50.315005 
L 287.882922 -49.487487 
L 289.002655 -48.717987 
L 290.122387 -47.991473 
L 291.24212 -47.338999 
L 292.361852 -46.792037 
L 293.481584 -46.330737 
L 294.601317 -45.895001 
L 295.721049 -45.438169 
L 296.840782 -44.962978 
L 297.960514 -44.508195 
L 299.080247 -44.10441 
L 300.199979 -43.751643 
L 301.319712 -43.439878 
L 302.439444 -43.171297 
L 303.559176 -42.948983 
L 304.678909 -42.756044 
L 305.798641 -42.561371 
L 306.918374 -42.343721 
L 308.038106 -42.104379 
L 309.157839 -41.864785 
L 310.277571 -41.657236 
L 311.397304 -41.501485 
L 312.517036 -41.378983 
L 313.636768 -41.244185 
L 314.756501 -41.071249 
L 315.876233 -40.877725 
L 316.995966 -40.695632 
L 318.115698 -40.534123 
L 319.235431 -40.383255 
L 320.355163 -40.241487 
L 321.474895 -40.120107 
L 322.594628 -40.027205 
L 323.71436 -39.962102 
L 324.834093 -39.916613 
L 325.953825 -39.870752 
L 327.073558 -39.798904 
L 328.19329 -39.692195 
L 329.313023 -39.569879 
L 330.432755 -39.462956 
L 331.552487 -39.388449 
L 332.67222 -39.338762 
L 333.791952 -39.291712 
L 334.911685 -39.230912 
L 336.031417 -39.158521 
L 337.15115 -39.08923 
L 338.270882 -39.035043 
L 339.390615 -38.997209 
L 340.510347 -38.967167 
L 341.630079 -38.931083 
L 342.749812 -38.877873 
L 343.869544 -38.80823 
L 344.989277 -38.735967 
L 346.109009 -38.678069 
L 347.228742 -38.641873 
L 348.348474 -38.622182 
L 349.468207 -38.609107 
L 350.587939 -38.594714 
L 351.707671 -38.574066 
L 352.827404 -38.546123 
L 353.947136 -38.514002 
L 355.066869 -38.481898 
L 356.186601 -38.452742 
L 357.306334 -38.428215 
L 358.426066 -38.407445 
L 359.545798 -38.385503 
L 360.665531 -38.356824 
L 361.785263 -38.321688 
L 362.904996 -38.287166 
L 364.024728 -38.260579 
L 365.144461 -38.243119 
L 366.264193 -38.229859 
L 367.383926 -38.21499 
L 368.503658 -38.196928 
L 369.62339 -38.178991 
L 370.743123 -38.165754 
L 371.862855 -38.158392 
L 372.982588 -38.152995 
L 374.10232 -38.144271 
L 375.222053 -38.131073 
L 376.341785 -38.116575 
L 377.461518 -38.103398 
L 378.58125 -38.091549 
L 378.58125 -37.55625 
L 378.58125 -37.55625 
L 377.461518 -37.55625 
L 376.341785 -37.55625 
L 375.222053 -37.55625 
L 374.10232 -37.55625 
L 372.982588 -37.55625 
L 371.862855 -37.55625 
L 370.743123 -37.55625 
L 369.62339 -37.55625 
L 368.503658 -37.55625 
L 367.383926 -37.55625 
L 366.264193 -37.55625 
L 365.144461 -37.55625 
L 364.024728 -37.55625 
L 362.904996 -37.55625 
L 361.785263 -37.55625 
L 360.665531 -37.55625 
L 359.545798 -37.55625 
L 358.426066 -37.55625 
L 357.306334 -37.55625 
L 356.186601 -37.55625 
L 355.066869 -37.55625 
L 353.947136 -37.55625 
L 352.827404 -37.55625 
L 351.707671 -37.55625 
L 350.587939 -37.55625 
L 349.468207 -37.55625 
L 348.348474 -37.55625 
L 347.228742 -37.55625 
L 346.109009 -37.55625 
L 344.989277 -37.55625 
L 343.869544 -37.55625 
L 342.749812 -37.55625 
L 341.630079 -37.55625 
L 340.510347 -37.55625 
L 339.390615 -37.55625 
L 338.270882 -37.55625 
L 337.15115 -37.55625 
L 336.031417 -37.55625 
L 334.911685 -37.55625 
L 333.791952 -37.55625 
L 332.67222 -37.55625 
L 331.552487 -37.55625 
L 330.432755 -37.55625 
L 329.313023 -37.55625 
L 328.19329 -37.55625 
L 327.073558 -37.55625 
L 325.953825 -37.55625 
L 324.834093 -37.55625 
L 323.71436 -37.55625 
L 322.594628 -37.55625 
L 321.474895 -37.55625 
L 320.355163 -37.55625 
L 319.235431 -37.55625 
L 318.115698 -37.55625 
L 316.995966 -37.55625 
L 315.876233 -37.55625 
L 314.756501 -37.55625 
L 313.636768 -37.55625 
L 312.517036 -37.55625 
L 311.397304 -37.55625 
L 310.277571 -37.55625 
L 309.157839 -37.55625 
L 308.038106 -37.55625 
L 306.918374 -37.55625 
L 305.798641 -37.55625 
L 304.678909 -37.55625 
L 303.559176 -37.55625 
L 302.439444 -37.55625 
L 301.319712 -37.55625 
L 300.199979 -37.55625 
L 299.080247 -37.55625 
L 297.960514 -37.55625 
L 296.840782 -37.55625 
L 295.721049 -37.55625 
L 294.601317 -37.55625 
L 293.481584 -37.55625 
L 292.361852 -37.55625 
L 291.24212 -37.55625 
L 290.122387 -37.55625 
L 289.002655 -37.55625 
L 287.882922 -37.55625 
L 286.76319 -37.55625 
L 285.643457 -37.55625 
L 284.523725 -37.55625 
L 283.403992 -37.55625 
L 282.28426 -37.55625 
L 281.164528 -37.55625 
L 280.044795 -37.55625 
L 278.925063 -37.55625 
L 277.80533 -37.55625 
L 276.685598 -37.55625 
L 275.565865 -37.55625 
L 274.446133 -37.55625 
L 273.326401 -37.55625 
L 272.206668 -37.55625 
L 271.086936 -37.55625 
L 269.967203 -37.55625 
L 268.847471 -37.55625 
L 267.727738 -37.55625 
L 266.608006 -37.55625 
L 265.488273 -37.55625 
L 264.368541 -37.55625 
L 263.248809 -37.55625 
L 262.129076 -37.55625 
L 261.009344 -37.55625 
L 259.889611 -37.55625 
L 258.769879 -37.55625 
L 257.650146 -37.55625 
L 256.530414 -37.55625 
L 255.410681 -37.55625 
L 254.290949 -37.55625 
L 253.171217 -37.55625 
L 252.051484 -37.55625 
L 250.931752 -37.55625 
L 249.812019 -37.55625 
L 248.692287 -37.55625 
L 247.572554 -37.55625 
L 246.452822 -37.55625 
L 245.333089 -37.55625 
L 244.213357 -37.55625 
L 243.093625 -37.55625 
L 241.973892 -37.55625 
L 240.85416 -37.55625 
L 239.734427 -37.55625 
L 238.614695 -37.55625 
L 237.494962 -37.55625 
L 236.37523 -37.55625 
L 235.255497 -37.55625 
L 234.135765 -37.55625 
L 233.016033 -37.55625 
L 231.8963 -37.55625 
L 230.776568 -37.55625 
L 229.656835 -37.55625 
L 228.537103 -37.55625 
L 227.41737 -37.55625 
L 226.297638 -37.55625 
L 225.177906 -37.55625 
L 224.058173 -37.55625 
L 222.938441 -37.55625 
L 221.818708 -37.55625 
L 220.698976 -37.55625 
L 219.579243 -37.55625 
L 218.459511 -37.55625 
L 217.339778 -37.55625 
L 216.220046 -37.55625 
L 215.100314 -37.55625 
L 213.980581 -37.55625 
L 212.860849 -37.55625 
L 211.741116 -37.55625 
L 210.621384 -37.55625 
L 209.501651 -37.55625 
L 208.381919 -37.55625 
L 207.262186 -37.55625 
L 206.142454 -37.55625 
L 205.022722 -37.55625 
L 203.902989 -37.55625 
L 202.783257 -37.55625 
L 201.663524 -37.55625 
L 200.543792 -37.55625 
L 199.424059 -37.55625 
L 198.304327 -37.55625 
L 197.184594 -37.55625 
L 196.064862 -37.55625 
L 194.94513 -37.55625 
L 193.825397 -37.55625 
L 192.705665 -37.55625 
L 191.585932 -37.55625 
L 190.4662 -37.55625 
L 189.346467 -37.55625 
L 188.226735 -37.55625 
L 187.107003 -37.55625 
L 185.98727 -37.55625 
L 184.867538 -37.55625 
L 183.747805 -37.55625 
L 182.628073 -37.55625 
L 181.50834 -37.55625 
L 180.388608 -37.55625 
L 179.268875 -37.55625 
L 178.149143 -37.55625 
L 177.029411 -37.55625 
L 175.909678 -37.55625 
L 174.789946 -37.55625 
L 173.670213 -37.55625 
L 172.550481 -37.55625 
L 171.430748 -37.55625 
L 170.311016 -37.55625 
L 169.191283 -37.55625 
L 168.071551 -37.55625 
L 166.951819 -37.55625 
L 165.832086 -37.55625 
L 164.712354 -37.55625 
L 163.592621 -37.55625 
L 162.472889 -37.55625 
L 161.353156 -37.55625 
L 160.233424 -37.55625 
L 159.113691 -37.55625 
L 157.993959 -37.55625 
L 156.874227 -37.55625 
L 155.754494 -37.55625 
L 154.634762 -37.55625 
L 153.515029 -37.55625 
L 152.395297 -37.55625 
L 151.275564 -37.55625 
L 150.155832 -37.55625 
L 149.036099 -37.55625 
L 147.916367 -37.55625 
L 146.796635 -37.55625 
L 145.676902 -37.55625 
L 144.55717 -37.55625 
L 143.437437 -37.55625 
L 142.317705 -37.55625 
L 141.197972 -37.55625 
L 140.07824 -37.55625 
L 138.958508 -37.55625 
L 137.838775 -37.55625 
L 136.719043 -37.55625 
L 135.59931 -37.55625 
L 134.479578 -37.55625 
L 133.359845 -37.55625 
L 132.240113 -37.55625 
L 131.12038 -37.55625 
L 130.000648 -37.55625 
L 128.880916 -37.55625 
L 127.761183 -37.55625 
L 126.641451 -37.55625 
L 125.521718 -37.55625 
L 124.401986 -37.55625 
L 123.282253 -37.55625 
L 122.162521 -37.55625 
L 121.042788 -37.55625 
L 119.923056 -37.55625 
L 118.803324 -37.55625 
L 117.683591 -37.55625 
L 116.563859 -37.55625 
L 115.444126 -37.55625 
L 114.324394 -37.55625 
L 113.204661 -37.55625 
L 112.084929 -37.55625 
L 110.965196 -37.55625 
L 109.845464 -37.55625 
L 108.725732 -37.55625 
L 107.605999 -37.55625 
L 106.486267 -37.55625 
L 105.366534 -37.55625 
L 104.246802 -37.55625 
L 103.127069 -37.55625 
L 102.007337 -37.55625 
L 100.887605 -37.55625 
L 99.767872 -37.55625 
L 98.64814 -37.55625 
L 97.528407 -37.55625 
L 96.408675 -37.55625 
L 95.288942 -37.55625 
L 94.16921 -37.55625 
L 93.049477 -37.55625 
L 91.929745 -37.55625 
L 90.810013 -37.55625 
L 89.69028 -37.55625 
L 88.570548 -37.55625 
L 87.450815 -37.55625 
L 86.331083 -37.55625 
L 85.21135 -37.55625 
L 84.091618 -37.55625 
L 82.971885 -37.55625 
L 81.852153 -37.55625 
L 80.732421 -37.55625 
L 79.612688 -37.55625 
L 78.492956 -37.55625 
L 77.373223 -37.55625 
L 76.253491 -37.55625 
L 75.133758 -37.55625 
L 74.014026 -37.55625 
L 72.894293 -37.55625 
L 71.774561 -37.55625 
L 70.654829 -37.55625 
L 69.535096 -37.55625 
L 68.415364 -37.55625 
L 67.295631 -37.55625 
L 66.175899 -37.55625 
L 65.056166 -37.55625 
L 63.936434 -37.55625 
L 62.816702 -37.55625 
L 61.696969 -37.55625 
L 60.577237 -37.55625 
L 59.457504 -37.55625 
L 58.337772 -37.55625 
L 57.218039 -37.55625 
L 56.098307 -37.55625 
L 54.978574 -37.55625 
L 53.858842 -37.55625 
L 52.73911 -37.55625 
L 51.619377 -37.55625 
L 50.499645 -37.55625 
L 49.379912 -37.55625 
L 48.26018 -37.55625 
L 47.140447 -37.55625 
L 46.020715 -37.55625 
L 44.900982 -37.55625 
L 43.78125 -37.55625 
z
" style="stroke: #0000ff; stroke-opacity: 0.2"/>
    </defs>
    <g clip-path="url(#p9905ab0e62)">
     <use xlink:href="#mee4b84ce74" x="0" y="265.995469" style="fill: #0000ff; fill-opacity: 0.2; stroke: #0000ff; stroke-opacity: 0.2"/>
    </g>
   </g>
   <g id="matplotlib.axis_1">
    <g id="xtick_1">
     <g id="line2d_1">
      <defs>
       <path id="mc08290d26a" d="M 0 0 
L 0 3.5 
" style="stroke: #000000; stroke-width: 0.8"/>
      </defs>
      <g>
       <use xlink:href="#mc08290d26a" x="43.78125" y="228.439219" style="stroke: #000000; stroke-width: 0.8"/>
      </g>
     </g>
     <g id="text_1">
      <!-- −4 -->
      <g transform="translate(36.410156 243.037656)scale(0.1 -0.1)">
       <defs>
        <path id="DejaVuSans-2212" d="M 678 2272 
L 4684 2272 
L 4684 1741 
L 678 1741 
L 678 2272 
z
" transform="scale(0.015625)"/>
        <path id="DejaVuSans-34" d="M 2419 4116 
L 825 1625 
L 2419 1625 
L 2419 4116 
z
M 2253 4666 
L 3047 4666 
L 3047 1625 
L 3713 1625 
L 3713 1100 
L 3047 1100 
L 3047 0 
L 2419 0 
L 2419 1100 
L 313 1100 
L 313 1709 
L 2253 4666 
z
" transform="scale(0.015625)"/>
       </defs>
       <use xlink:href="#DejaVuSans-2212"/>
       <use xlink:href="#DejaVuSans-34" x="83.789062"/>
      </g>
     </g>
    </g>
    <g id="xtick_2">
     <g id="line2d_2">
      <g>
       <use xlink:href="#mc08290d26a" x="85.63125" y="228.439219" style="stroke: #000000; stroke-width: 0.8"/>
      </g>
     </g>
     <g id="text_2">
      <!-- −3 -->
      <g transform="translate(78.260156 243.037656)scale(0.1 -0.1)">
       <defs>
        <path id="DejaVuSans-33" d="M 2597 2516 
Q 3050 2419 3304 2112 
Q 3559 1806 3559 1356 
Q 3559 666 3084 287 
Q 2609 -91 1734 -91 
Q 1441 -91 1130 -33 
Q 819 25 488 141 
L 488 750 
Q 750 597 1062 519 
Q 1375 441 1716 441 
Q 2309 441 2620 675 
Q 2931 909 2931 1356 
Q 2931 1769 2642 2001 
Q 2353 2234 1838 2234 
L 1294 2234 
L 1294 2753 
L 1863 2753 
Q 2328 2753 2575 2939 
Q 2822 3125 2822 3475 
Q 2822 3834 2567 4026 
Q 2313 4219 1838 4219 
Q 1578 4219 1281 4162 
Q 984 4106 628 3988 
L 628 4550 
Q 988 4650 1302 4700 
Q 1616 4750 1894 4750 
Q 2613 4750 3031 4423 
Q 3450 4097 3450 3541 
Q 3450 3153 3228 2886 
Q 3006 2619 2597 2516 
z
" transform="scale(0.015625)"/>
       </defs>
       <use xlink:href="#DejaVuSans-2212"/>
       <use xlink:href="#DejaVuSans-33" x="83.789062"/>
      </g>
     </g>
    </g>
    <g id="xtick_3">
     <g id="line2d_3">
      <g>
       <use xlink:href="#mc08290d26a" x="127.48125" y="228.439219" style="stroke: #000000; stroke-width: 0.8"/>
      </g>
     </g>
     <g id="text_3">
      <!-- −2 -->
      <g transform="translate(120.110156 243.037656)scale(0.1 -0.1)">
       <defs>
        <path id="DejaVuSans-32" d="M 1228 531 
L 3431 531 
L 3431 0 
L 469 0 
L 469 531 
Q 828 903 1448 1529 
Q 2069 2156 2228 2338 
Q 2531 2678 2651 2914 
Q 2772 3150 2772 3378 
Q 2772 3750 2511 3984 
Q 2250 4219 1831 4219 
Q 1534 4219 1204 4116 
Q 875 4013 500 3803 
L 500 4441 
Q 881 4594 1212 4672 
Q 1544 4750 1819 4750 
Q 2544 4750 2975 4387 
Q 3406 4025 3406 3419 
Q 3406 3131 3298 2873 
Q 3191 2616 2906 2266 
Q 2828 2175 2409 1742 
Q 1991 1309 1228 531 
z
" transform="scale(0.015625)"/>
       </defs>
       <use xlink:href="#DejaVuSans-2212"/>
       <use xlink:href="#DejaVuSans-32" x="83.789062"/>
      </g>
     </g>
    </g>
    <g id="xtick_4">
     <g id="line2d_4">
      <g>
       <use xlink:href="#mc08290d26a" x="169.33125" y="228.439219" style="stroke: #000000; stroke-width: 0.8"/>
      </g>
     </g>
     <g id="text_4">
      <!-- −1 -->
      <g transform="translate(161.960156 243.037656)scale(0.1 -0.1)">
       <defs>
        <path id="DejaVuSans-31" d="M 794 531 
L 1825 531 
L 1825 4091 
L 703 3866 
L 703 4441 
L 1819 4666 
L 2450 4666 
L 2450 531 
L 3481 531 
L 3481 0 
L 794 0 
L 794 531 
z
" transform="scale(0.015625)"/>
       </defs>
       <use xlink:href="#DejaVuSans-2212"/>
       <use xlink:href="#DejaVuSans-31" x="83.789062"/>
      </g>
     </g>
    </g>
    <g id="xtick_5">
     <g id="line2d_5">
      <g>
       <use xlink:href="#mc08290d26a" x="211.18125" y="228.439219" style="stroke: #000000; stroke-width: 0.8"/>
      </g>
     </g>
     <g id="text_5">
      <!-- 0 -->
      <g transform="translate(208 243.037656)scale(0.1 -0.1)">
       <defs>
        <path id="DejaVuSans-30" d="M 2034 4250 
Q 1547 4250 1301 3770 
Q 1056 3291 1056 2328 
Q 1056 1369 1301 889 
Q 1547 409 2034 409 
Q 2525 409 2770 889 
Q 3016 1369 3016 2328 
Q 3016 3291 2770 3770 
Q 2525 4250 2034 4250 
z
M 2034 4750 
Q 2819 4750 3233 4129 
Q 3647 3509 3647 2328 
Q 3647 1150 3233 529 
Q 2819 -91 2034 -91 
Q 1250 -91 836 529 
Q 422 1150 422 2328 
Q 422 3509 836 4129 
Q 1250 4750 2034 4750 
z
" transform="scale(0.015625)"/>
       </defs>
       <use xlink:href="#DejaVuSans-30"/>
      </g>
     </g>
    </g>
    <g id="xtick_6">
     <g id="line2d_6">
      <g>
       <use xlink:href="#mc08290d26a" x="253.03125" y="228.439219" style="stroke: #000000; stroke-width: 0.8"/>
      </g>
     </g>
     <g id="text_6">
      <!-- 1 -->
      <g transform="translate(249.85 243.037656)scale(0.1 -0.1)">
       <use xlink:href="#DejaVuSans-31"/>
      </g>
     </g>
    </g>
    <g id="xtick_7">
     <g id="line2d_7">
      <g>
       <use xlink:href="#mc08290d26a" x="294.88125" y="228.439219" style="stroke: #000000; stroke-width: 0.8"/>
      </g>
     </g>
     <g id="text_7">
      <!-- 2 -->
      <g transform="translate(291.7 243.037656)scale(0.1 -0.1)">
       <use xlink:href="#DejaVuSans-32"/>
      </g>
     </g>
    </g>
    <g id="xtick_8">
     <g id="line2d_8">
      <g>
       <use xlink:href="#mc08290d26a" x="336.73125" y="228.439219" style="stroke: #000000; stroke-width: 0.8"/>
      </g>
     </g>
     <g id="text_8">
      <!-- 3 -->
      <g transform="translate(333.55 243.037656)scale(0.1 -0.1)">
       <use xlink:href="#DejaVuSans-33"/>
      </g>
     </g>
    </g>
    <g id="xtick_9">
     <g id="line2d_9">
      <g>
       <use xlink:href="#mc08290d26a" x="378.58125" y="228.439219" style="stroke: #000000; stroke-width: 0.8"/>
      </g>
     </g>
     <g id="text_9">
      <!-- 4 -->
      <g transform="translate(375.4 243.037656)scale(0.1 -0.1)">
       <use xlink:href="#DejaVuSans-34"/>
      </g>
     </g>
    </g>
    <g id="text_10">
     <!-- Pixel intensity -->
     <g transform="translate(176.355469 256.715781)scale(0.1 -0.1)">
      <defs>
       <path id="DejaVuSans-50" d="M 1259 4147 
L 1259 2394 
L 2053 2394 
Q 2494 2394 2734 2622 
Q 2975 2850 2975 3272 
Q 2975 3691 2734 3919 
Q 2494 4147 2053 4147 
L 1259 4147 
z
M 628 4666 
L 2053 4666 
Q 2838 4666 3239 4311 
Q 3641 3956 3641 3272 
Q 3641 2581 3239 2228 
Q 2838 1875 2053 1875 
L 1259 1875 
L 1259 0 
L 628 0 
L 628 4666 
z
" transform="scale(0.015625)"/>
       <path id="DejaVuSans-69" d="M 603 3500 
L 1178 3500 
L 1178 0 
L 603 0 
L 603 3500 
z
M 603 4863 
L 1178 4863 
L 1178 4134 
L 603 4134 
L 603 4863 
z
" transform="scale(0.015625)"/>
       <path id="DejaVuSans-78" d="M 3513 3500 
L 2247 1797 
L 3578 0 
L 2900 0 
L 1881 1375 
L 863 0 
L 184 0 
L 1544 1831 
L 300 3500 
L 978 3500 
L 1906 2253 
L 2834 3500 
L 3513 3500 
z
" transform="scale(0.015625)"/>
       <path id="DejaVuSans-65" d="M 3597 1894 
L 3597 1613 
L 953 1613 
Q 991 1019 1311 708 
Q 1631 397 2203 397 
Q 2534 397 2845 478 
Q 3156 559 3463 722 
L 3463 178 
Q 3153 47 2828 -22 
Q 2503 -91 2169 -91 
Q 1331 -91 842 396 
Q 353 884 353 1716 
Q 353 2575 817 3079 
Q 1281 3584 2069 3584 
Q 2775 3584 3186 3129 
Q 3597 2675 3597 1894 
z
M 3022 2063 
Q 3016 2534 2758 2815 
Q 2500 3097 2075 3097 
Q 1594 3097 1305 2825 
Q 1016 2553 972 2059 
L 3022 2063 
z
" transform="scale(0.015625)"/>
       <path id="DejaVuSans-6c" d="M 603 4863 
L 1178 4863 
L 1178 0 
L 603 0 
L 603 4863 
z
" transform="scale(0.015625)"/>
       <path id="DejaVuSans-20" transform="scale(0.015625)"/>
       <path id="DejaVuSans-6e" d="M 3513 2113 
L 3513 0 
L 2938 0 
L 2938 2094 
Q 2938 2591 2744 2837 
Q 2550 3084 2163 3084 
Q 1697 3084 1428 2787 
Q 1159 2491 1159 1978 
L 1159 0 
L 581 0 
L 581 3500 
L 1159 3500 
L 1159 2956 
Q 1366 3272 1645 3428 
Q 1925 3584 2291 3584 
Q 2894 3584 3203 3211 
Q 3513 2838 3513 2113 
z
" transform="scale(0.015625)"/>
       <path id="DejaVuSans-74" d="M 1172 4494 
L 1172 3500 
L 2356 3500 
L 2356 3053 
L 1172 3053 
L 1172 1153 
Q 1172 725 1289 603 
Q 1406 481 1766 481 
L 2356 481 
L 2356 0 
L 1766 0 
Q 1100 0 847 248 
Q 594 497 594 1153 
L 594 3053 
L 172 3053 
L 172 3500 
L 594 3500 
L 594 4494 
L 1172 4494 
z
" transform="scale(0.015625)"/>
       <path id="DejaVuSans-73" d="M 2834 3397 
L 2834 2853 
Q 2591 2978 2328 3040 
Q 2066 3103 1784 3103 
Q 1356 3103 1142 2972 
Q 928 2841 928 2578 
Q 928 2378 1081 2264 
Q 1234 2150 1697 2047 
L 1894 2003 
Q 2506 1872 2764 1633 
Q 3022 1394 3022 966 
Q 3022 478 2636 193 
Q 2250 -91 1575 -91 
Q 1294 -91 989 -36 
Q 684 19 347 128 
L 347 722 
Q 666 556 975 473 
Q 1284 391 1588 391 
Q 1994 391 2212 530 
Q 2431 669 2431 922 
Q 2431 1156 2273 1281 
Q 2116 1406 1581 1522 
L 1381 1569 
Q 847 1681 609 1914 
Q 372 2147 372 2553 
Q 372 3047 722 3315 
Q 1072 3584 1716 3584 
Q 2034 3584 2315 3537 
Q 2597 3491 2834 3397 
z
" transform="scale(0.015625)"/>
       <path id="DejaVuSans-79" d="M 2059 -325 
Q 1816 -950 1584 -1140 
Q 1353 -1331 966 -1331 
L 506 -1331 
L 506 -850 
L 844 -850 
Q 1081 -850 1212 -737 
Q 1344 -625 1503 -206 
L 1606 56 
L 191 3500 
L 800 3500 
L 1894 763 
L 2988 3500 
L 3597 3500 
L 2059 -325 
z
" transform="scale(0.015625)"/>
      </defs>
      <use xlink:href="#DejaVuSans-50"/>
      <use xlink:href="#DejaVuSans-69" x="58.052734"/>
      <use xlink:href="#DejaVuSans-78" x="85.835938"/>
      <use xlink:href="#DejaVuSans-65" x="141.890625"/>
      <use xlink:href="#DejaVuSans-6c" x="203.414062"/>
      <use xlink:href="#DejaVuSans-20" x="231.197266"/>
      <use xlink:href="#DejaVuSans-69" x="262.984375"/>
      <use xlink:href="#DejaVuSans-6e" x="290.767578"/>
      <use xlink:href="#DejaVuSans-74" x="354.146484"/>
      <use xlink:href="#DejaVuSans-65" x="393.355469"/>
      <use xlink:href="#DejaVuSans-6e" x="454.878906"/>
      <use xlink:href="#DejaVuSans-73" x="518.257812"/>
      <use xlink:href="#DejaVuSans-69" x="570.357422"/>
      <use xlink:href="#DejaVuSans-74" x="598.140625"/>
      <use xlink:href="#DejaVuSans-79" x="637.349609"/>
     </g>
    </g>
   </g>
   <g id="matplotlib.axis_2">
    <g id="ytick_1">
     <g id="line2d_10">
      <defs>
       <path id="m3e755e1146" d="M 0 0 
L -3.5 0 
" style="stroke: #000000; stroke-width: 0.8"/>
      </defs>
      <g>
       <use xlink:href="#m3e755e1146" x="43.78125" y="228.439219" style="stroke: #000000; stroke-width: 0.8"/>
      </g>
     </g>
     <g id="text_11">
      <!-- 0.0 -->
      <g transform="translate(20.878125 232.238437)scale(0.1 -0.1)">
       <defs>
        <path id="DejaVuSans-2e" d="M 684 794 
L 1344 794 
L 1344 0 
L 684 0 
L 684 794 
z
" transform="scale(0.015625)"/>
       </defs>
       <use xlink:href="#DejaVuSans-30"/>
       <use xlink:href="#DejaVuSans-2e" x="63.623047"/>
       <use xlink:href="#DejaVuSans-30" x="95.410156"/>
      </g>
     </g>
    </g>
    <g id="ytick_2">
     <g id="line2d_11">
      <g>
       <use xlink:href="#m3e755e1146" x="43.78125" y="184.951219" style="stroke: #000000; stroke-width: 0.8"/>
      </g>
     </g>
     <g id="text_12">
      <!-- 0.2 -->
      <g transform="translate(20.878125 188.750437)scale(0.1 -0.1)">
       <use xlink:href="#DejaVuSans-30"/>
       <use xlink:href="#DejaVuSans-2e" x="63.623047"/>
       <use xlink:href="#DejaVuSans-32" x="95.410156"/>
      </g>
     </g>
    </g>
    <g id="ytick_3">
     <g id="line2d_12">
      <g>
       <use xlink:href="#m3e755e1146" x="43.78125" y="141.463219" style="stroke: #000000; stroke-width: 0.8"/>
      </g>
     </g>
     <g id="text_13">
      <!-- 0.4 -->
      <g transform="translate(20.878125 145.262437)scale(0.1 -0.1)">
       <use xlink:href="#DejaVuSans-30"/>
       <use xlink:href="#DejaVuSans-2e" x="63.623047"/>
       <use xlink:href="#DejaVuSans-34" x="95.410156"/>
      </g>
     </g>
    </g>
    <g id="ytick_4">
     <g id="line2d_13">
      <g>
       <use xlink:href="#m3e755e1146" x="43.78125" y="97.975219" style="stroke: #000000; stroke-width: 0.8"/>
      </g>
     </g>
     <g id="text_14">
      <!-- 0.6 -->
      <g transform="translate(20.878125 101.774437)scale(0.1 -0.1)">
       <defs>
        <path id="DejaVuSans-36" d="M 2113 2584 
Q 1688 2584 1439 2293 
Q 1191 2003 1191 1497 
Q 1191 994 1439 701 
Q 1688 409 2113 409 
Q 2538 409 2786 701 
Q 3034 994 3034 1497 
Q 3034 2003 2786 2293 
Q 2538 2584 2113 2584 
z
M 3366 4563 
L 3366 3988 
Q 3128 4100 2886 4159 
Q 2644 4219 2406 4219 
Q 1781 4219 1451 3797 
Q 1122 3375 1075 2522 
Q 1259 2794 1537 2939 
Q 1816 3084 2150 3084 
Q 2853 3084 3261 2657 
Q 3669 2231 3669 1497 
Q 3669 778 3244 343 
Q 2819 -91 2113 -91 
Q 1303 -91 875 529 
Q 447 1150 447 2328 
Q 447 3434 972 4092 
Q 1497 4750 2381 4750 
Q 2619 4750 2861 4703 
Q 3103 4656 3366 4563 
z
" transform="scale(0.015625)"/>
       </defs>
       <use xlink:href="#DejaVuSans-30"/>
       <use xlink:href="#DejaVuSans-2e" x="63.623047"/>
       <use xlink:href="#DejaVuSans-36" x="95.410156"/>
      </g>
     </g>
    </g>
    <g id="ytick_5">
     <g id="line2d_14">
      <g>
       <use xlink:href="#m3e755e1146" x="43.78125" y="54.487219" style="stroke: #000000; stroke-width: 0.8"/>
      </g>
     </g>
     <g id="text_15">
      <!-- 0.8 -->
      <g transform="translate(20.878125 58.286437)scale(0.1 -0.1)">
       <defs>
        <path id="DejaVuSans-38" d="M 2034 2216 
Q 1584 2216 1326 1975 
Q 1069 1734 1069 1313 
Q 1069 891 1326 650 
Q 1584 409 2034 409 
Q 2484 409 2743 651 
Q 3003 894 3003 1313 
Q 3003 1734 2745 1975 
Q 2488 2216 2034 2216 
z
M 1403 2484 
Q 997 2584 770 2862 
Q 544 3141 544 3541 
Q 544 4100 942 4425 
Q 1341 4750 2034 4750 
Q 2731 4750 3128 4425 
Q 3525 4100 3525 3541 
Q 3525 3141 3298 2862 
Q 3072 2584 2669 2484 
Q 3125 2378 3379 2068 
Q 3634 1759 3634 1313 
Q 3634 634 3220 271 
Q 2806 -91 2034 -91 
Q 1263 -91 848 271 
Q 434 634 434 1313 
Q 434 1759 690 2068 
Q 947 2378 1403 2484 
z
M 1172 3481 
Q 1172 3119 1398 2916 
Q 1625 2713 2034 2713 
Q 2441 2713 2670 2916 
Q 2900 3119 2900 3481 
Q 2900 3844 2670 4047 
Q 2441 4250 2034 4250 
Q 1625 4250 1398 4047 
Q 1172 3844 1172 3481 
z
" transform="scale(0.015625)"/>
       </defs>
       <use xlink:href="#DejaVuSans-30"/>
       <use xlink:href="#DejaVuSans-2e" x="63.623047"/>
       <use xlink:href="#DejaVuSans-38" x="95.410156"/>
      </g>
     </g>
    </g>
    <g id="ytick_6">
     <g id="line2d_15">
      <g>
       <use xlink:href="#m3e755e1146" x="43.78125" y="10.999219" style="stroke: #000000; stroke-width: 0.8"/>
      </g>
     </g>
     <g id="text_16">
      <!-- 1.0 -->
      <g transform="translate(20.878125 14.798437)scale(0.1 -0.1)">
       <use xlink:href="#DejaVuSans-31"/>
       <use xlink:href="#DejaVuSans-2e" x="63.623047"/>
       <use xlink:href="#DejaVuSans-30" x="95.410156"/>
      </g>
     </g>
    </g>
    <g id="text_17">
     <!-- Density -->
     <g transform="translate(14.798438 138.727812)rotate(-90)scale(0.1 -0.1)">
      <defs>
       <path id="DejaVuSans-44" d="M 1259 4147 
L 1259 519 
L 2022 519 
Q 2988 519 3436 956 
Q 3884 1394 3884 2338 
Q 3884 3275 3436 3711 
Q 2988 4147 2022 4147 
L 1259 4147 
z
M 628 4666 
L 1925 4666 
Q 3281 4666 3915 4102 
Q 4550 3538 4550 2338 
Q 4550 1131 3912 565 
Q 3275 0 1925 0 
L 628 0 
L 628 4666 
z
" transform="scale(0.015625)"/>
      </defs>
      <use xlink:href="#DejaVuSans-44"/>
      <use xlink:href="#DejaVuSans-65" x="77.001953"/>
      <use xlink:href="#DejaVuSans-6e" x="138.525391"/>
      <use xlink:href="#DejaVuSans-73" x="201.904297"/>
      <use xlink:href="#DejaVuSans-69" x="254.003906"/>
      <use xlink:href="#DejaVuSans-74" x="281.787109"/>
      <use xlink:href="#DejaVuSans-79" x="320.996094"/>
     </g>
    </g>
   </g>
   <g id="line2d_16">
    <path d="M 43.78125 228.439219 
L 107.605999 228.350692 
L 113.204661 227.874254 
L 114.324394 227.682811 
L 116.563859 226.968306 
L 119.923056 225.701332 
L 121.042788 225.393922 
L 122.162521 225.206727 
L 123.282253 225.170942 
L 126.641451 225.383788 
L 127.761183 225.284518 
L 128.880916 224.996825 
L 132.240113 223.672246 
L 133.359845 223.359797 
L 134.479578 222.883355 
L 135.59931 222.075042 
L 137.838775 220.188079 
L 138.958508 219.558506 
L 141.197972 218.621181 
L 142.317705 218.330151 
L 144.55717 217.984836 
L 145.676902 217.443792 
L 149.036099 215.174658 
L 150.155832 213.711803 
L 151.275564 211.373146 
L 152.395297 208.642121 
L 153.515029 206.235059 
L 154.634762 204.262041 
L 155.754494 202.0379 
L 156.874227 198.847923 
L 157.993959 194.686563 
L 159.113691 189.919317 
L 160.233424 184.440996 
L 161.353156 177.756104 
L 163.592621 163.160411 
L 164.712354 159.167468 
L 165.832086 158.916287 
L 168.071551 162.662593 
L 169.191283 162.795023 
L 170.311016 161.506951 
L 171.430748 159.82242 
L 172.550481 158.422477 
L 173.670213 156.83474 
L 174.789946 153.707695 
L 175.909678 148.295713 
L 177.029411 141.63539 
L 178.149143 135.81864 
L 179.268875 131.95937 
L 181.50834 126.348359 
L 182.628073 123.442699 
L 183.747805 121.654014 
L 184.867538 121.601643 
L 185.98727 123.148846 
L 187.107003 125.472695 
L 188.226735 126.802112 
L 189.346467 125.428485 
L 190.4662 121.258435 
L 193.825397 104.279929 
L 194.94513 100.71377 
L 196.064862 99.047464 
L 197.184594 98.387482 
L 198.304327 97.229991 
L 199.424059 94.53232 
L 205.022722 74.674167 
L 206.142454 71.378701 
L 207.262186 72.144772 
L 208.381919 80.684524 
L 209.501651 99.345846 
L 211.741116 154.329251 
L 212.860849 176.456344 
L 213.980581 189.46925 
L 215.100314 195.127079 
L 216.220046 196.844565 
L 217.339778 197.087984 
L 219.579243 196.670262 
L 221.818708 195.90939 
L 224.058173 194.925244 
L 227.41737 193.124894 
L 230.776568 191.14165 
L 236.37523 187.408768 
L 238.614695 185.729946 
L 240.85416 183.746431 
L 244.213357 180.325183 
L 250.931752 173.334165 
L 253.171217 171.344367 
L 254.290949 170.635194 
L 255.410681 170.265172 
L 256.530414 170.309457 
L 257.650146 170.788219 
L 258.769879 171.66924 
L 259.889611 172.885064 
L 261.009344 174.360835 
L 263.248809 177.896357 
L 266.608006 183.801378 
L 268.847471 187.330311 
L 269.967203 189.39769 
L 271.086936 191.97864 
L 273.326401 197.852118 
L 274.446133 200.373692 
L 275.565865 202.444739 
L 277.80533 205.804807 
L 280.044795 208.697077 
L 283.403992 212.556147 
L 285.643457 214.754317 
L 287.882922 216.507982 
L 290.122387 218.003996 
L 292.361852 219.203432 
L 299.080247 221.891059 
L 301.319712 222.555591 
L 303.559176 223.046486 
L 308.038106 223.89109 
L 310.277571 224.338233 
L 322.594628 225.968264 
L 330.432755 226.532512 
L 338.270882 226.960426 
L 364.024728 227.734889 
L 378.58125 227.90392 
L 378.58125 227.90392 
" clip-path="url(#p9905ab0e62)" style="fill: none; stroke: #1f77b4; stroke-width: 1.5; stroke-linecap: square"/>
   </g>
   <g id="patch_3">
    <path d="M 43.78125 228.439219 
L 43.78125 10.999219 
" style="fill: none; stroke: #000000; stroke-width: 0.8; stroke-linejoin: miter; stroke-linecap: square"/>
   </g>
   <g id="patch_4">
    <path d="M 378.58125 228.439219 
L 378.58125 10.999219 
" style="fill: none; stroke: #000000; stroke-width: 0.8; stroke-linejoin: miter; stroke-linecap: square"/>
   </g>
   <g id="patch_5">
    <path d="M 43.78125 228.439219 
L 378.58125 228.439219 
" style="fill: none; stroke: #000000; stroke-width: 0.8; stroke-linejoin: miter; stroke-linecap: square"/>
   </g>
   <g id="patch_6">
    <path d="M 43.78125 10.999219 
L 378.58125 10.999219 
" style="fill: none; stroke: #000000; stroke-width: 0.8; stroke-linejoin: miter; stroke-linecap: square"/>
   </g>
  </g>
 </g>
 <defs>
  <clipPath id="p9905ab0e62">
   <rect x="43.78125" y="10.999219" width="334.8" height="217.44"/>
  </clipPath>
 </defs>
</svg>
