<?xml version="1.0" encoding="utf-8" standalone="no"?>
<!DOCTYPE svg PUBLIC "-//W3C//DTD SVG 1.1//EN"
  "http://www.w3.org/Graphics/SVG/1.1/DTD/svg11.dtd">
<svg xmlns:xlink="http://www.w3.org/1999/xlink" width="623.723438pt" height="194.158125pt" viewBox="0 0 623.723438 194.158125" xmlns="http://www.w3.org/2000/svg" version="1.1">
 <metadata>
  <rdf:RDF xmlns:dc="http://purl.org/dc/elements/1.1/" xmlns:cc="http://creativecommons.org/ns#" xmlns:rdf="http://www.w3.org/1999/02/22-rdf-syntax-ns#">
   <cc:Work>
    <dc:type rdf:resource="http://purl.org/dc/dcmitype/StillImage"/>
    <dc:date>2022-07-08T21:37:57.711344</dc:date>
    <dc:format>image/svg+xml</dc:format>
    <dc:creator>
     <cc:Agent>
      <dc:title>Matplotlib v3.5.1, https://matplotlib.org/</dc:title>
     </cc:Agent>
    </dc:creator>
   </cc:Work>
  </rdf:RDF>
 </metadata>
 <defs>
  <style type="text/css">*{stroke-linejoin: round; stroke-linecap: butt}</style>
 </defs>
 <g id="figure_1">
  <g id="patch_1">
   <path d="M -0 194.158125 
L 623.723438 194.158125 
L 623.723438 0 
L -0 0 
L -0 194.158125 
z
" style="fill: none"/>
  </g>
  <g id="axes_1">
   <g id="patch_2">
    <path d="M 58.523438 170.28 
L 616.523438 170.28 
L 616.523438 7.2 
L 58.523438 7.2 
z
" style="fill: #ffffff"/>
   </g>
   <g id="PolyCollection_1">
    <defs>
     <path id="md749a42f85" d="M 128.273666 -63.768649 
L 128.273209 -63.768649 
L 128.271054 -64.475598 
L 128.269139 -65.182547 
L 128.269217 -65.889496 
L 128.269317 -66.596445 
L 128.266872 -67.303394 
L 128.259938 -68.010343 
L 128.250177 -68.717292 
L 128.240601 -69.424241 
L 128.232563 -70.13119 
L 128.23217 -70.838139 
L 128.229626 -71.545088 
L 128.224431 -72.252037 
L 128.223971 -72.958985 
L 128.220237 -73.665934 
L 128.211863 -74.372883 
L 128.201007 -75.079832 
L 128.177021 -75.786781 
L 128.15667 -76.49373 
L 128.118843 -77.200679 
L 128.072326 -77.907628 
L 128.032074 -78.614577 
L 127.960884 -79.321526 
L 127.801909 -80.028475 
L 127.626285 -80.735424 
L 127.444748 -81.442373 
L 127.227764 -82.149322 
L 126.901593 -82.856271 
L 126.579541 -83.56322 
L 126.196416 -84.270169 
L 125.758626 -84.977118 
L 125.21042 -85.684067 
L 124.681031 -86.391016 
L 123.767928 -87.097965 
L 122.685901 -87.804914 
L 121.503323 -88.511863 
L 120.184772 -89.218811 
L 118.890342 -89.92576 
L 117.461092 -90.632709 
L 115.830812 -91.339658 
L 113.811509 -92.046607 
L 111.477147 -92.753556 
L 109.186586 -93.460505 
L 106.581906 -94.167454 
L 103.580666 -94.874403 
L 100.79435 -95.581352 
L 97.406429 -96.288301 
L 93.422335 -96.99525 
L 89.32017 -97.702199 
L 84.321116 -98.409148 
L 76.61247 -99.116097 
L 72.473437 -99.823046 
L 80.325499 -100.529995 
L 86.563769 -101.236944 
L 90.654541 -101.943893 
L 94.203102 -102.650842 
L 97.401571 -103.357791 
L 100.629495 -104.06474 
L 103.599441 -104.771689 
L 106.595723 -105.478638 
L 109.508438 -106.185586 
L 112.117213 -106.892535 
L 114.407986 -107.599484 
L 116.511929 -108.306433 
L 118.367718 -109.013382 
L 119.991613 -109.720331 
L 121.275872 -110.42728 
L 122.454896 -111.134229 
L 123.425472 -111.841178 
L 124.349694 -112.548127 
L 125.20141 -113.255076 
L 125.836604 -113.962025 
L 126.32331 -114.668974 
L 126.685 -115.375923 
L 126.945279 -116.082872 
L 127.217278 -116.789821 
L 127.49711 -117.49677 
L 127.727829 -118.203719 
L 127.855366 -118.910668 
L 127.946753 -119.617617 
L 128.042858 -120.324566 
L 128.088095 -121.031515 
L 128.103474 -121.738464 
L 128.106174 -122.445412 
L 128.146096 -123.152361 
L 128.182599 -123.85931 
L 128.199619 -124.566259 
L 128.222755 -125.273208 
L 128.237644 -125.980157 
L 128.25455 -126.687106 
L 128.264506 -127.394055 
L 128.265577 -128.101004 
L 128.265482 -128.807953 
L 128.265493 -129.514902 
L 128.267483 -130.221851 
L 128.268726 -130.9288 
L 128.267806 -131.635749 
L 128.269083 -132.342698 
L 128.271248 -133.049647 
L 128.273204 -133.756596 
L 128.273671 -133.756596 
L 128.273671 -133.756596 
L 128.275627 -133.049647 
L 128.277792 -132.342698 
L 128.279069 -131.635749 
L 128.278149 -130.9288 
L 128.279392 -130.221851 
L 128.281382 -129.514902 
L 128.281393 -128.807953 
L 128.281298 -128.101004 
L 128.282369 -127.394055 
L 128.292325 -126.687106 
L 128.309231 -125.980157 
L 128.32412 -125.273208 
L 128.347256 -124.566259 
L 128.364276 -123.85931 
L 128.400779 -123.152361 
L 128.440701 -122.445412 
L 128.443401 -121.738464 
L 128.45878 -121.031515 
L 128.504017 -120.324566 
L 128.600122 -119.617617 
L 128.691509 -118.910668 
L 128.819046 -118.203719 
L 129.049765 -117.49677 
L 129.329597 -116.789821 
L 129.601596 -116.082872 
L 129.861875 -115.375923 
L 130.223565 -114.668974 
L 130.710271 -113.962025 
L 131.345465 -113.255076 
L 132.197181 -112.548127 
L 133.121403 -111.841178 
L 134.091979 -111.134229 
L 135.271003 -110.42728 
L 136.555262 -109.720331 
L 138.179157 -109.013382 
L 140.034946 -108.306433 
L 142.138889 -107.599484 
L 144.429662 -106.892535 
L 147.038437 -106.185586 
L 149.951152 -105.478638 
L 152.947434 -104.771689 
L 155.91738 -104.06474 
L 159.145304 -103.357791 
L 162.343773 -102.650842 
L 165.892334 -101.943893 
L 169.983106 -101.236944 
L 176.221376 -100.529995 
L 184.073438 -99.823046 
L 179.934405 -99.116097 
L 172.225759 -98.409148 
L 167.226705 -97.702199 
L 163.12454 -96.99525 
L 159.140446 -96.288301 
L 155.752525 -95.581352 
L 152.966209 -94.874403 
L 149.964969 -94.167454 
L 147.360289 -93.460505 
L 145.069728 -92.753556 
L 142.735366 -92.046607 
L 140.716063 -91.339658 
L 139.085783 -90.632709 
L 137.656533 -89.92576 
L 136.362103 -89.218811 
L 135.043552 -88.511863 
L 133.860974 -87.804914 
L 132.778947 -87.097965 
L 131.865844 -86.391016 
L 131.336455 -85.684067 
L 130.788249 -84.977118 
L 130.350459 -84.270169 
L 129.967334 -83.56322 
L 129.645282 -82.856271 
L 129.319111 -82.149322 
L 129.102127 -81.442373 
L 128.92059 -80.735424 
L 128.744966 -80.028475 
L 128.585991 -79.321526 
L 128.514801 -78.614577 
L 128.474549 -77.907628 
L 128.428032 -77.200679 
L 128.390205 -76.49373 
L 128.369854 -75.786781 
L 128.345868 -75.079832 
L 128.335012 -74.372883 
L 128.326638 -73.665934 
L 128.322904 -72.958985 
L 128.322444 -72.252037 
L 128.317249 -71.545088 
L 128.314705 -70.838139 
L 128.314312 -70.13119 
L 128.306274 -69.424241 
L 128.296698 -68.717292 
L 128.286937 -68.010343 
L 128.280003 -67.303394 
L 128.277558 -66.596445 
L 128.277658 -65.889496 
L 128.277736 -65.182547 
L 128.275821 -64.475598 
L 128.273666 -63.768649 
z
" style="stroke: #515151; stroke-width: 1.5"/>
    </defs>
    <g clip-path="url(#p536dcaafcc)">
     <use xlink:href="#md749a42f85" x="0" y="194.158125" style="fill: #e1812c; stroke: #515151; stroke-width: 1.5"/>
    </g>
   </g>
   <g id="PolyCollection_2">
    <defs>
     <path id="meffe3171e0" d="M 267.773735 -31.290852 
L 267.77314 -31.290852 
L 267.771273 -32.788373 
L 267.772874 -34.285894 
L 267.773432 -35.783414 
L 267.773409 -37.280935 
L 267.771797 -38.778456 
L 267.767439 -40.275976 
L 267.771935 -41.773497 
L 267.771549 -43.271018 
L 267.771239 -44.768538 
L 267.768564 -46.266059 
L 267.758009 -47.76358 
L 267.759774 -49.2611 
L 267.753781 -50.758621 
L 267.756858 -52.256142 
L 267.761627 -53.753662 
L 267.746591 -55.251183 
L 267.729903 -56.748704 
L 267.713892 -58.246224 
L 267.71278 -59.743745 
L 267.69582 -61.241265 
L 267.674891 -62.738786 
L 267.656331 -64.236307 
L 267.628411 -65.733827 
L 267.571815 -67.231348 
L 267.498035 -68.728869 
L 267.456294 -70.226389 
L 267.33028 -71.72391 
L 267.139794 -73.221431 
L 267.016845 -74.718951 
L 266.76678 -76.216472 
L 266.451142 -77.713993 
L 266.111475 -79.211513 
L 265.595636 -80.709034 
L 264.89907 -82.206555 
L 264.062895 -83.704075 
L 262.841926 -85.201596 
L 261.442508 -86.699117 
L 259.69828 -88.196637 
L 257.286134 -89.694158 
L 254.219733 -91.191679 
L 250.304025 -92.689199 
L 245.944965 -94.18672 
L 240.928418 -95.684241 
L 236.512341 -97.181761 
L 233.043747 -98.679282 
L 232.545421 -100.176803 
L 234.732671 -101.674323 
L 239.165293 -103.171844 
L 244.143503 -104.669365 
L 248.925313 -106.166885 
L 252.864918 -107.664406 
L 256.417333 -109.161927 
L 258.886845 -110.659447 
L 260.922411 -112.156968 
L 262.453322 -113.654489 
L 263.69956 -115.152009 
L 264.651729 -116.64953 
L 265.251291 -118.147051 
L 265.943932 -119.644571 
L 266.481456 -121.142092 
L 266.760046 -122.639613 
L 267.003408 -124.137133 
L 267.196451 -125.634654 
L 267.296375 -127.132175 
L 267.409127 -128.629695 
L 267.508471 -130.127216 
L 267.573809 -131.624737 
L 267.629829 -133.122257 
L 267.633185 -134.619778 
L 267.661917 -136.117299 
L 267.682745 -137.614819 
L 267.700255 -139.11234 
L 267.713932 -140.609861 
L 267.733266 -142.107381 
L 267.74251 -143.604902 
L 267.751402 -145.102423 
L 267.757553 -146.599943 
L 267.758584 -148.097464 
L 267.762333 -149.594985 
L 267.760885 -151.092505 
L 267.761722 -152.590026 
L 267.771259 -154.087546 
L 267.768568 -155.585067 
L 267.766721 -157.082588 
L 267.767291 -158.580108 
L 267.767633 -160.077629 
L 267.76566 -161.57515 
L 267.767028 -163.07267 
L 267.77294 -164.570191 
L 267.773436 -166.067712 
L 267.773437 -167.565232 
L 267.773438 -169.062753 
L 267.773437 -170.560274 
L 267.773437 -172.057794 
L 267.773429 -173.555315 
L 267.772739 -175.052836 
L 267.770777 -176.550356 
L 267.771046 -178.047877 
L 267.773139 -179.545398 
L 267.773736 -179.545398 
L 267.773736 -179.545398 
L 267.775829 -178.047877 
L 267.776098 -176.550356 
L 267.774136 -175.052836 
L 267.773446 -173.555315 
L 267.773438 -172.057794 
L 267.773438 -170.560274 
L 267.773438 -169.062753 
L 267.773438 -167.565232 
L 267.773439 -166.067712 
L 267.773935 -164.570191 
L 267.779847 -163.07267 
L 267.781215 -161.57515 
L 267.779242 -160.077629 
L 267.779584 -158.580108 
L 267.780154 -157.082588 
L 267.778307 -155.585067 
L 267.775616 -154.087546 
L 267.785153 -152.590026 
L 267.78599 -151.092505 
L 267.784542 -149.594985 
L 267.788291 -148.097464 
L 267.789322 -146.599943 
L 267.795473 -145.102423 
L 267.804365 -143.604902 
L 267.813609 -142.107381 
L 267.832943 -140.609861 
L 267.84662 -139.11234 
L 267.86413 -137.614819 
L 267.884958 -136.117299 
L 267.91369 -134.619778 
L 267.917046 -133.122257 
L 267.973066 -131.624737 
L 268.038404 -130.127216 
L 268.137748 -128.629695 
L 268.2505 -127.132175 
L 268.350424 -125.634654 
L 268.543467 -124.137133 
L 268.786829 -122.639613 
L 269.065419 -121.142092 
L 269.602943 -119.644571 
L 270.295584 -118.147051 
L 270.895146 -116.64953 
L 271.847315 -115.152009 
L 273.093553 -113.654489 
L 274.624464 -112.156968 
L 276.66003 -110.659447 
L 279.129542 -109.161927 
L 282.681957 -107.664406 
L 286.621562 -106.166885 
L 291.403372 -104.669365 
L 296.381582 -103.171844 
L 300.814204 -101.674323 
L 303.001454 -100.176803 
L 302.503128 -98.679282 
L 299.034534 -97.181761 
L 294.618457 -95.684241 
L 289.60191 -94.18672 
L 285.24285 -92.689199 
L 281.327142 -91.191679 
L 278.260741 -89.694158 
L 275.848595 -88.196637 
L 274.104367 -86.699117 
L 272.704949 -85.201596 
L 271.48398 -83.704075 
L 270.647805 -82.206555 
L 269.951239 -80.709034 
L 269.4354 -79.211513 
L 269.095733 -77.713993 
L 268.780095 -76.216472 
L 268.53003 -74.718951 
L 268.407081 -73.221431 
L 268.216595 -71.72391 
L 268.090581 -70.226389 
L 268.04884 -68.728869 
L 267.97506 -67.231348 
L 267.918464 -65.733827 
L 267.890544 -64.236307 
L 267.871984 -62.738786 
L 267.851055 -61.241265 
L 267.834095 -59.743745 
L 267.832983 -58.246224 
L 267.816972 -56.748704 
L 267.800284 -55.251183 
L 267.785248 -53.753662 
L 267.790017 -52.256142 
L 267.793094 -50.758621 
L 267.787101 -49.2611 
L 267.788866 -47.76358 
L 267.778311 -46.266059 
L 267.775636 -44.768538 
L 267.775326 -43.271018 
L 267.77494 -41.773497 
L 267.779436 -40.275976 
L 267.775078 -38.778456 
L 267.773466 -37.280935 
L 267.773443 -35.783414 
L 267.774001 -34.285894 
L 267.775602 -32.788373 
L 267.773735 -31.290852 
z
" style="stroke: #515151; stroke-width: 1.5"/>
    </defs>
    <g clip-path="url(#p536dcaafcc)">
     <use xlink:href="#meffe3171e0" x="0" y="194.158125" style="fill: #e1812c; stroke: #515151; stroke-width: 1.5"/>
    </g>
   </g>
   <g id="PolyCollection_3">
    <defs>
     <path id="me4a8931156" d="M 407.273965 -37.017583 
L 407.27291 -37.017583 
L 407.27046 -38.189435 
L 407.270056 -39.361286 
L 407.272665 -40.533137 
L 407.273401 -41.704989 
L 407.273377 -42.87684 
L 407.27239 -44.048692 
L 407.269722 -45.220543 
L 407.26957 -46.392394 
L 407.265899 -47.564246 
L 407.260984 -48.736097 
L 407.265028 -49.907949 
L 407.269895 -51.0798 
L 407.268417 -52.251652 
L 407.265431 -53.423503 
L 407.260793 -54.595354 
L 407.254819 -55.767206 
L 407.251905 -56.939057 
L 407.25139 -58.110909 
L 407.251495 -59.28276 
L 407.232715 -60.454611 
L 407.202535 -61.626463 
L 407.178826 -62.798314 
L 407.146653 -63.970166 
L 407.115744 -65.142017 
L 407.123805 -66.313868 
L 407.098503 -67.48572 
L 407.041909 -68.657571 
L 406.978998 -69.829423 
L 406.909181 -71.001274 
L 406.844415 -72.173125 
L 406.77959 -73.344977 
L 406.64804 -74.516828 
L 406.480742 -75.68868 
L 406.312457 -76.860531 
L 406.068763 -78.032382 
L 405.739331 -79.204234 
L 405.389377 -80.376085 
L 404.876524 -81.547937 
L 404.144699 -82.719788 
L 403.301402 -83.891639 
L 402.483339 -85.063491 
L 401.387311 -86.235342 
L 399.863965 -87.407194 
L 398.146836 -88.579045 
L 396.263391 -89.750896 
L 393.768174 -90.922748 
L 390.609998 -92.094599 
L 387.426708 -93.266451 
L 384.014673 -94.438302 
L 380.604931 -95.610154 
L 377.752078 -96.782005 
L 375.085001 -97.953856 
L 373.721296 -99.125708 
L 373.853304 -100.297559 
L 374.998331 -101.469411 
L 377.577156 -102.641262 
L 381.057848 -103.813113 
L 384.513184 -104.984965 
L 387.764408 -106.156816 
L 390.628865 -107.328668 
L 393.383438 -108.500519 
L 395.851228 -109.67237 
L 398.218885 -110.844222 
L 400.015553 -112.016073 
L 401.147306 -113.187925 
L 402.2607 -114.359776 
L 403.283737 -115.531627 
L 404.100777 -116.703479 
L 404.806792 -117.87533 
L 405.35682 -119.047182 
L 405.650026 -120.219033 
L 405.8979 -121.390884 
L 406.21449 -122.562736 
L 406.472366 -123.734587 
L 406.6302 -124.906439 
L 406.73647 -126.07829 
L 406.885486 -127.250141 
L 406.982322 -128.421993 
L 407.010033 -129.593844 
L 407.054411 -130.765696 
L 407.105995 -131.937547 
L 407.123054 -133.109398 
L 407.153251 -134.28125 
L 407.186067 -135.453101 
L 407.209805 -136.624953 
L 407.226331 -137.796804 
L 407.238591 -138.968656 
L 407.242931 -140.140507 
L 407.241364 -141.312358 
L 407.247941 -142.48421 
L 407.260756 -143.656061 
L 407.26144 -144.827913 
L 407.263193 -145.999764 
L 407.265816 -147.171615 
L 407.259355 -148.343467 
L 407.26304 -149.515318 
L 407.268486 -150.68717 
L 407.270403 -151.859021 
L 407.27291 -153.030872 
L 407.273965 -153.030872 
L 407.273965 -153.030872 
L 407.276472 -151.859021 
L 407.278389 -150.68717 
L 407.283835 -149.515318 
L 407.28752 -148.343467 
L 407.281059 -147.171615 
L 407.283682 -145.999764 
L 407.285435 -144.827913 
L 407.286119 -143.656061 
L 407.298934 -142.48421 
L 407.305511 -141.312358 
L 407.303944 -140.140507 
L 407.308284 -138.968656 
L 407.320544 -137.796804 
L 407.33707 -136.624953 
L 407.360808 -135.453101 
L 407.393624 -134.28125 
L 407.423821 -133.109398 
L 407.44088 -131.937547 
L 407.492464 -130.765696 
L 407.536842 -129.593844 
L 407.564553 -128.421993 
L 407.661389 -127.250141 
L 407.810405 -126.07829 
L 407.916675 -124.906439 
L 408.074509 -123.734587 
L 408.332385 -122.562736 
L 408.648975 -121.390884 
L 408.896849 -120.219033 
L 409.190055 -119.047182 
L 409.740083 -117.87533 
L 410.446098 -116.703479 
L 411.263138 -115.531627 
L 412.286175 -114.359776 
L 413.399569 -113.187925 
L 414.531322 -112.016073 
L 416.32799 -110.844222 
L 418.695647 -109.67237 
L 421.163437 -108.500519 
L 423.91801 -107.328668 
L 426.782467 -106.156816 
L 430.033691 -104.984965 
L 433.489027 -103.813113 
L 436.969719 -102.641262 
L 439.548544 -101.469411 
L 440.693571 -100.297559 
L 440.825579 -99.125708 
L 439.461874 -97.953856 
L 436.794797 -96.782005 
L 433.941944 -95.610154 
L 430.532202 -94.438302 
L 427.120167 -93.266451 
L 423.936877 -92.094599 
L 420.778701 -90.922748 
L 418.283484 -89.750896 
L 416.400039 -88.579045 
L 414.68291 -87.407194 
L 413.159564 -86.235342 
L 412.063536 -85.063491 
L 411.245473 -83.891639 
L 410.402176 -82.719788 
L 409.670351 -81.547937 
L 409.157498 -80.376085 
L 408.807544 -79.204234 
L 408.478112 -78.032382 
L 408.234418 -76.860531 
L 408.066133 -75.68868 
L 407.898835 -74.516828 
L 407.767285 -73.344977 
L 407.70246 -72.173125 
L 407.637694 -71.001274 
L 407.567877 -69.829423 
L 407.504966 -68.657571 
L 407.448372 -67.48572 
L 407.42307 -66.313868 
L 407.431131 -65.142017 
L 407.400222 -63.970166 
L 407.368049 -62.798314 
L 407.34434 -61.626463 
L 407.31416 -60.454611 
L 407.29538 -59.28276 
L 407.295485 -58.110909 
L 407.29497 -56.939057 
L 407.292056 -55.767206 
L 407.286082 -54.595354 
L 407.281444 -53.423503 
L 407.278458 -52.251652 
L 407.27698 -51.0798 
L 407.281847 -49.907949 
L 407.285891 -48.736097 
L 407.280976 -47.564246 
L 407.277305 -46.392394 
L 407.277153 -45.220543 
L 407.274485 -44.048692 
L 407.273498 -42.87684 
L 407.273474 -41.704989 
L 407.27421 -40.533137 
L 407.276819 -39.361286 
L 407.276415 -38.189435 
L 407.273965 -37.017583 
z
" style="stroke: #515151; stroke-width: 1.5"/>
    </defs>
    <g clip-path="url(#p536dcaafcc)">
     <use xlink:href="#me4a8931156" x="0" y="194.158125" style="fill: #e1812c; stroke: #515151; stroke-width: 1.5"/>
    </g>
   </g>
   <g id="PolyCollection_4">
    <defs>
     <path id="m327d4a7846" d="M 546.774067 -32.960706 
L 546.772808 -32.960706 
L 546.770871 -34.372697 
L 546.768863 -35.784688 
L 546.769852 -37.196679 
L 546.771813 -38.60867 
L 546.770071 -40.020662 
L 546.761873 -41.432653 
L 546.751196 -42.844644 
L 546.744226 -44.256635 
L 546.740421 -45.668626 
L 546.73945 -47.080617 
L 546.736825 -48.492608 
L 546.723985 -49.904599 
L 546.699472 -51.316591 
L 546.681997 -52.728582 
L 546.672422 -54.140573 
L 546.64625 -55.552564 
L 546.603103 -56.964555 
L 546.549829 -58.376546 
L 546.484457 -59.788537 
L 546.42017 -61.200528 
L 546.364498 -62.61252 
L 546.289334 -64.024511 
L 546.185684 -65.436502 
L 546.064301 -66.848493 
L 545.89918 -68.260484 
L 545.661917 -69.672475 
L 545.368888 -71.084466 
L 545.060936 -72.496457 
L 544.702736 -73.908449 
L 544.232721 -75.32044 
L 543.69832 -76.732431 
L 543.174066 -78.144422 
L 542.56969 -79.556413 
L 541.82865 -80.968404 
L 541.006126 -82.380395 
L 539.966995 -83.792386 
L 538.599156 -85.204378 
L 537.098023 -86.616369 
L 535.579929 -88.02836 
L 533.952371 -89.440351 
L 532.260578 -90.852342 
L 530.542112 -92.264333 
L 528.803366 -93.676324 
L 527.431589 -95.088315 
L 526.483568 -96.500307 
L 525.639777 -97.912298 
L 525.109619 -99.324289 
L 525.148814 -100.73628 
L 525.72626 -102.148271 
L 526.802431 -103.560262 
L 528.238527 -104.972253 
L 529.800256 -106.384244 
L 531.510563 -107.796236 
L 533.383674 -109.208227 
L 535.130117 -110.620218 
L 536.537676 -112.032209 
L 537.78857 -113.4442 
L 539.019916 -114.856191 
L 540.175675 -116.268182 
L 541.240051 -117.680173 
L 542.159284 -119.092165 
L 542.899612 -120.504156 
L 543.440562 -121.916147 
L 543.920778 -123.328138 
L 544.414666 -124.740129 
L 544.787849 -126.15212 
L 545.085115 -127.564111 
L 545.423145 -128.976102 
L 545.746481 -130.388094 
L 545.977806 -131.800085 
L 546.160036 -133.212076 
L 546.313978 -134.624067 
L 546.429802 -136.036058 
L 546.491974 -137.448049 
L 546.500291 -138.86004 
L 546.511959 -140.272031 
L 546.556207 -141.684023 
L 546.604488 -143.096014 
L 546.645314 -144.508005 
L 546.684006 -145.919996 
L 546.714045 -147.331987 
L 546.7236 -148.743978 
L 546.723443 -150.155969 
L 546.730017 -151.56796 
L 546.741342 -152.979952 
L 546.750044 -154.391943 
L 546.754204 -155.803934 
L 546.75536 -157.215925 
L 546.759661 -158.627916 
L 546.766923 -160.039907 
L 546.770281 -161.451898 
L 546.76888 -162.863889 
L 546.767442 -164.275881 
L 546.767222 -165.687872 
L 546.767546 -167.099863 
L 546.767872 -168.511854 
L 546.768467 -169.923845 
L 546.770836 -171.335836 
L 546.772807 -172.747827 
L 546.774068 -172.747827 
L 546.774068 -172.747827 
L 546.776039 -171.335836 
L 546.778408 -169.923845 
L 546.779003 -168.511854 
L 546.779329 -167.099863 
L 546.779653 -165.687872 
L 546.779433 -164.275881 
L 546.777995 -162.863889 
L 546.776594 -161.451898 
L 546.779952 -160.039907 
L 546.787214 -158.627916 
L 546.791515 -157.215925 
L 546.792671 -155.803934 
L 546.796831 -154.391943 
L 546.805533 -152.979952 
L 546.816858 -151.56796 
L 546.823432 -150.155969 
L 546.823275 -148.743978 
L 546.83283 -147.331987 
L 546.862869 -145.919996 
L 546.901561 -144.508005 
L 546.942387 -143.096014 
L 546.990668 -141.684023 
L 547.034916 -140.272031 
L 547.046584 -138.86004 
L 547.054901 -137.448049 
L 547.117073 -136.036058 
L 547.232897 -134.624067 
L 547.386839 -133.212076 
L 547.569069 -131.800085 
L 547.800394 -130.388094 
L 548.12373 -128.976102 
L 548.46176 -127.564111 
L 548.759026 -126.15212 
L 549.132209 -124.740129 
L 549.626097 -123.328138 
L 550.106313 -121.916147 
L 550.647263 -120.504156 
L 551.387591 -119.092165 
L 552.306824 -117.680173 
L 553.3712 -116.268182 
L 554.526959 -114.856191 
L 555.758305 -113.4442 
L 557.009199 -112.032209 
L 558.416758 -110.620218 
L 560.163201 -109.208227 
L 562.036312 -107.796236 
L 563.746619 -106.384244 
L 565.308348 -104.972253 
L 566.744444 -103.560262 
L 567.820615 -102.148271 
L 568.398061 -100.73628 
L 568.437256 -99.324289 
L 567.907098 -97.912298 
L 567.063307 -96.500307 
L 566.115286 -95.088315 
L 564.743509 -93.676324 
L 563.004763 -92.264333 
L 561.286297 -90.852342 
L 559.594504 -89.440351 
L 557.966946 -88.02836 
L 556.448852 -86.616369 
L 554.947719 -85.204378 
L 553.57988 -83.792386 
L 552.540749 -82.380395 
L 551.718225 -80.968404 
L 550.977185 -79.556413 
L 550.372809 -78.144422 
L 549.848555 -76.732431 
L 549.314154 -75.32044 
L 548.844139 -73.908449 
L 548.485939 -72.496457 
L 548.177987 -71.084466 
L 547.884958 -69.672475 
L 547.647695 -68.260484 
L 547.482574 -66.848493 
L 547.361191 -65.436502 
L 547.257541 -64.024511 
L 547.182377 -62.61252 
L 547.126705 -61.200528 
L 547.062418 -59.788537 
L 546.997046 -58.376546 
L 546.943772 -56.964555 
L 546.900625 -55.552564 
L 546.874453 -54.140573 
L 546.864878 -52.728582 
L 546.847403 -51.316591 
L 546.82289 -49.904599 
L 546.81005 -48.492608 
L 546.807425 -47.080617 
L 546.806454 -45.668626 
L 546.802649 -44.256635 
L 546.795679 -42.844644 
L 546.785002 -41.432653 
L 546.776804 -40.020662 
L 546.775062 -38.60867 
L 546.777023 -37.196679 
L 546.778012 -35.784688 
L 546.776004 -34.372697 
L 546.774067 -32.960706 
z
" style="stroke: #515151; stroke-width: 1.5"/>
    </defs>
    <g clip-path="url(#p536dcaafcc)">
     <use xlink:href="#m327d4a7846" x="0" y="194.158125" style="fill: #e1812c; stroke: #515151; stroke-width: 1.5"/>
    </g>
   </g>
   <g id="matplotlib.axis_1">
    <g id="xtick_1">
     <g id="line2d_1">
      <defs>
       <path id="mee083f052a" d="M 0 0 
L 0 3.5 
" style="stroke: #000000; stroke-width: 0.8"/>
      </defs>
      <g>
       <use xlink:href="#mee083f052a" x="128.273438" y="170.28" style="stroke: #000000; stroke-width: 0.8"/>
      </g>
     </g>
     <g id="text_1">
      <!-- (1, dense) -->
      <g transform="translate(102.911719 184.878438)scale(0.1 -0.1)">
       <defs>
        <path id="DejaVuSans-28" d="M 1984 4856 
Q 1566 4138 1362 3434 
Q 1159 2731 1159 2009 
Q 1159 1288 1364 580 
Q 1569 -128 1984 -844 
L 1484 -844 
Q 1016 -109 783 600 
Q 550 1309 550 2009 
Q 550 2706 781 3412 
Q 1013 4119 1484 4856 
L 1984 4856 
z
" transform="scale(0.015625)"/>
        <path id="DejaVuSans-31" d="M 794 531 
L 1825 531 
L 1825 4091 
L 703 3866 
L 703 4441 
L 1819 4666 
L 2450 4666 
L 2450 531 
L 3481 531 
L 3481 0 
L 794 0 
L 794 531 
z
" transform="scale(0.015625)"/>
        <path id="DejaVuSans-2c" d="M 750 794 
L 1409 794 
L 1409 256 
L 897 -744 
L 494 -744 
L 750 256 
L 750 794 
z
" transform="scale(0.015625)"/>
        <path id="DejaVuSans-20" transform="scale(0.015625)"/>
        <path id="DejaVuSans-64" d="M 2906 2969 
L 2906 4863 
L 3481 4863 
L 3481 0 
L 2906 0 
L 2906 525 
Q 2725 213 2448 61 
Q 2172 -91 1784 -91 
Q 1150 -91 751 415 
Q 353 922 353 1747 
Q 353 2572 751 3078 
Q 1150 3584 1784 3584 
Q 2172 3584 2448 3432 
Q 2725 3281 2906 2969 
z
M 947 1747 
Q 947 1113 1208 752 
Q 1469 391 1925 391 
Q 2381 391 2643 752 
Q 2906 1113 2906 1747 
Q 2906 2381 2643 2742 
Q 2381 3103 1925 3103 
Q 1469 3103 1208 2742 
Q 947 2381 947 1747 
z
" transform="scale(0.015625)"/>
        <path id="DejaVuSans-65" d="M 3597 1894 
L 3597 1613 
L 953 1613 
Q 991 1019 1311 708 
Q 1631 397 2203 397 
Q 2534 397 2845 478 
Q 3156 559 3463 722 
L 3463 178 
Q 3153 47 2828 -22 
Q 2503 -91 2169 -91 
Q 1331 -91 842 396 
Q 353 884 353 1716 
Q 353 2575 817 3079 
Q 1281 3584 2069 3584 
Q 2775 3584 3186 3129 
Q 3597 2675 3597 1894 
z
M 3022 2063 
Q 3016 2534 2758 2815 
Q 2500 3097 2075 3097 
Q 1594 3097 1305 2825 
Q 1016 2553 972 2059 
L 3022 2063 
z
" transform="scale(0.015625)"/>
        <path id="DejaVuSans-6e" d="M 3513 2113 
L 3513 0 
L 2938 0 
L 2938 2094 
Q 2938 2591 2744 2837 
Q 2550 3084 2163 3084 
Q 1697 3084 1428 2787 
Q 1159 2491 1159 1978 
L 1159 0 
L 581 0 
L 581 3500 
L 1159 3500 
L 1159 2956 
Q 1366 3272 1645 3428 
Q 1925 3584 2291 3584 
Q 2894 3584 3203 3211 
Q 3513 2838 3513 2113 
z
" transform="scale(0.015625)"/>
        <path id="DejaVuSans-73" d="M 2834 3397 
L 2834 2853 
Q 2591 2978 2328 3040 
Q 2066 3103 1784 3103 
Q 1356 3103 1142 2972 
Q 928 2841 928 2578 
Q 928 2378 1081 2264 
Q 1234 2150 1697 2047 
L 1894 2003 
Q 2506 1872 2764 1633 
Q 3022 1394 3022 966 
Q 3022 478 2636 193 
Q 2250 -91 1575 -91 
Q 1294 -91 989 -36 
Q 684 19 347 128 
L 347 722 
Q 666 556 975 473 
Q 1284 391 1588 391 
Q 1994 391 2212 530 
Q 2431 669 2431 922 
Q 2431 1156 2273 1281 
Q 2116 1406 1581 1522 
L 1381 1569 
Q 847 1681 609 1914 
Q 372 2147 372 2553 
Q 372 3047 722 3315 
Q 1072 3584 1716 3584 
Q 2034 3584 2315 3537 
Q 2597 3491 2834 3397 
z
" transform="scale(0.015625)"/>
        <path id="DejaVuSans-29" d="M 513 4856 
L 1013 4856 
Q 1481 4119 1714 3412 
Q 1947 2706 1947 2009 
Q 1947 1309 1714 600 
Q 1481 -109 1013 -844 
L 513 -844 
Q 928 -128 1133 580 
Q 1338 1288 1338 2009 
Q 1338 2731 1133 3434 
Q 928 4138 513 4856 
z
" transform="scale(0.015625)"/>
       </defs>
       <use xlink:href="#DejaVuSans-28"/>
       <use xlink:href="#DejaVuSans-31" x="39.013672"/>
       <use xlink:href="#DejaVuSans-2c" x="102.636719"/>
       <use xlink:href="#DejaVuSans-20" x="134.423828"/>
       <use xlink:href="#DejaVuSans-64" x="166.210938"/>
       <use xlink:href="#DejaVuSans-65" x="229.6875"/>
       <use xlink:href="#DejaVuSans-6e" x="291.210938"/>
       <use xlink:href="#DejaVuSans-73" x="354.589844"/>
       <use xlink:href="#DejaVuSans-65" x="406.689453"/>
       <use xlink:href="#DejaVuSans-29" x="468.212891"/>
      </g>
     </g>
    </g>
    <g id="xtick_2">
     <g id="line2d_2">
      <g>
       <use xlink:href="#mee083f052a" x="267.773438" y="170.28" style="stroke: #000000; stroke-width: 0.8"/>
      </g>
     </g>
     <g id="text_2">
      <!-- (2, dense) -->
      <g transform="translate(242.411719 184.878438)scale(0.1 -0.1)">
       <defs>
        <path id="DejaVuSans-32" d="M 1228 531 
L 3431 531 
L 3431 0 
L 469 0 
L 469 531 
Q 828 903 1448 1529 
Q 2069 2156 2228 2338 
Q 2531 2678 2651 2914 
Q 2772 3150 2772 3378 
Q 2772 3750 2511 3984 
Q 2250 4219 1831 4219 
Q 1534 4219 1204 4116 
Q 875 4013 500 3803 
L 500 4441 
Q 881 4594 1212 4672 
Q 1544 4750 1819 4750 
Q 2544 4750 2975 4387 
Q 3406 4025 3406 3419 
Q 3406 3131 3298 2873 
Q 3191 2616 2906 2266 
Q 2828 2175 2409 1742 
Q 1991 1309 1228 531 
z
" transform="scale(0.015625)"/>
       </defs>
       <use xlink:href="#DejaVuSans-28"/>
       <use xlink:href="#DejaVuSans-32" x="39.013672"/>
       <use xlink:href="#DejaVuSans-2c" x="102.636719"/>
       <use xlink:href="#DejaVuSans-20" x="134.423828"/>
       <use xlink:href="#DejaVuSans-64" x="166.210938"/>
       <use xlink:href="#DejaVuSans-65" x="229.6875"/>
       <use xlink:href="#DejaVuSans-6e" x="291.210938"/>
       <use xlink:href="#DejaVuSans-73" x="354.589844"/>
       <use xlink:href="#DejaVuSans-65" x="406.689453"/>
       <use xlink:href="#DejaVuSans-29" x="468.212891"/>
      </g>
     </g>
    </g>
    <g id="xtick_3">
     <g id="line2d_3">
      <g>
       <use xlink:href="#mee083f052a" x="407.273438" y="170.28" style="stroke: #000000; stroke-width: 0.8"/>
      </g>
     </g>
     <g id="text_3">
      <!-- (3, dense) -->
      <g transform="translate(381.911719 184.878438)scale(0.1 -0.1)">
       <defs>
        <path id="DejaVuSans-33" d="M 2597 2516 
Q 3050 2419 3304 2112 
Q 3559 1806 3559 1356 
Q 3559 666 3084 287 
Q 2609 -91 1734 -91 
Q 1441 -91 1130 -33 
Q 819 25 488 141 
L 488 750 
Q 750 597 1062 519 
Q 1375 441 1716 441 
Q 2309 441 2620 675 
Q 2931 909 2931 1356 
Q 2931 1769 2642 2001 
Q 2353 2234 1838 2234 
L 1294 2234 
L 1294 2753 
L 1863 2753 
Q 2328 2753 2575 2939 
Q 2822 3125 2822 3475 
Q 2822 3834 2567 4026 
Q 2313 4219 1838 4219 
Q 1578 4219 1281 4162 
Q 984 4106 628 3988 
L 628 4550 
Q 988 4650 1302 4700 
Q 1616 4750 1894 4750 
Q 2613 4750 3031 4423 
Q 3450 4097 3450 3541 
Q 3450 3153 3228 2886 
Q 3006 2619 2597 2516 
z
" transform="scale(0.015625)"/>
       </defs>
       <use xlink:href="#DejaVuSans-28"/>
       <use xlink:href="#DejaVuSans-33" x="39.013672"/>
       <use xlink:href="#DejaVuSans-2c" x="102.636719"/>
       <use xlink:href="#DejaVuSans-20" x="134.423828"/>
       <use xlink:href="#DejaVuSans-64" x="166.210938"/>
       <use xlink:href="#DejaVuSans-65" x="229.6875"/>
       <use xlink:href="#DejaVuSans-6e" x="291.210938"/>
       <use xlink:href="#DejaVuSans-73" x="354.589844"/>
       <use xlink:href="#DejaVuSans-65" x="406.689453"/>
       <use xlink:href="#DejaVuSans-29" x="468.212891"/>
      </g>
     </g>
    </g>
    <g id="xtick_4">
     <g id="line2d_4">
      <g>
       <use xlink:href="#mee083f052a" x="546.773438" y="170.28" style="stroke: #000000; stroke-width: 0.8"/>
      </g>
     </g>
     <g id="text_4">
      <!-- (4, dense) -->
      <g transform="translate(521.411719 184.878438)scale(0.1 -0.1)">
       <defs>
        <path id="DejaVuSans-34" d="M 2419 4116 
L 825 1625 
L 2419 1625 
L 2419 4116 
z
M 2253 4666 
L 3047 4666 
L 3047 1625 
L 3713 1625 
L 3713 1100 
L 3047 1100 
L 3047 0 
L 2419 0 
L 2419 1100 
L 313 1100 
L 313 1709 
L 2253 4666 
z
" transform="scale(0.015625)"/>
       </defs>
       <use xlink:href="#DejaVuSans-28"/>
       <use xlink:href="#DejaVuSans-34" x="39.013672"/>
       <use xlink:href="#DejaVuSans-2c" x="102.636719"/>
       <use xlink:href="#DejaVuSans-20" x="134.423828"/>
       <use xlink:href="#DejaVuSans-64" x="166.210938"/>
       <use xlink:href="#DejaVuSans-65" x="229.6875"/>
       <use xlink:href="#DejaVuSans-6e" x="291.210938"/>
       <use xlink:href="#DejaVuSans-73" x="354.589844"/>
       <use xlink:href="#DejaVuSans-65" x="406.689453"/>
       <use xlink:href="#DejaVuSans-29" x="468.212891"/>
      </g>
     </g>
    </g>
   </g>
   <g id="matplotlib.axis_2">
    <g id="ytick_1">
     <g id="line2d_5">
      <defs>
       <path id="mfcd92ba9dc" d="M 0 0 
L -3.5 0 
" style="stroke: #000000; stroke-width: 0.8"/>
      </defs>
      <g>
       <use xlink:href="#mfcd92ba9dc" x="58.523438" y="162.720162" style="stroke: #000000; stroke-width: 0.8"/>
      </g>
     </g>
     <g id="text_5">
      <!-- −0.10 -->
      <g transform="translate(20.878125 166.519381)scale(0.1 -0.1)">
       <defs>
        <path id="DejaVuSans-2212" d="M 678 2272 
L 4684 2272 
L 4684 1741 
L 678 1741 
L 678 2272 
z
" transform="scale(0.015625)"/>
        <path id="DejaVuSans-30" d="M 2034 4250 
Q 1547 4250 1301 3770 
Q 1056 3291 1056 2328 
Q 1056 1369 1301 889 
Q 1547 409 2034 409 
Q 2525 409 2770 889 
Q 3016 1369 3016 2328 
Q 3016 3291 2770 3770 
Q 2525 4250 2034 4250 
z
M 2034 4750 
Q 2819 4750 3233 4129 
Q 3647 3509 3647 2328 
Q 3647 1150 3233 529 
Q 2819 -91 2034 -91 
Q 1250 -91 836 529 
Q 422 1150 422 2328 
Q 422 3509 836 4129 
Q 1250 4750 2034 4750 
z
" transform="scale(0.015625)"/>
        <path id="DejaVuSans-2e" d="M 684 794 
L 1344 794 
L 1344 0 
L 684 0 
L 684 794 
z
" transform="scale(0.015625)"/>
       </defs>
       <use xlink:href="#DejaVuSans-2212"/>
       <use xlink:href="#DejaVuSans-30" x="83.789062"/>
       <use xlink:href="#DejaVuSans-2e" x="147.412109"/>
       <use xlink:href="#DejaVuSans-31" x="179.199219"/>
       <use xlink:href="#DejaVuSans-30" x="242.822266"/>
      </g>
     </g>
    </g>
    <g id="ytick_2">
     <g id="line2d_6">
      <g>
       <use xlink:href="#mfcd92ba9dc" x="58.523438" y="128.591157" style="stroke: #000000; stroke-width: 0.8"/>
      </g>
     </g>
     <g id="text_6">
      <!-- −0.05 -->
      <g transform="translate(20.878125 132.390376)scale(0.1 -0.1)">
       <defs>
        <path id="DejaVuSans-35" d="M 691 4666 
L 3169 4666 
L 3169 4134 
L 1269 4134 
L 1269 2991 
Q 1406 3038 1543 3061 
Q 1681 3084 1819 3084 
Q 2600 3084 3056 2656 
Q 3513 2228 3513 1497 
Q 3513 744 3044 326 
Q 2575 -91 1722 -91 
Q 1428 -91 1123 -41 
Q 819 9 494 109 
L 494 744 
Q 775 591 1075 516 
Q 1375 441 1709 441 
Q 2250 441 2565 725 
Q 2881 1009 2881 1497 
Q 2881 1984 2565 2268 
Q 2250 2553 1709 2553 
Q 1456 2553 1204 2497 
Q 953 2441 691 2322 
L 691 4666 
z
" transform="scale(0.015625)"/>
       </defs>
       <use xlink:href="#DejaVuSans-2212"/>
       <use xlink:href="#DejaVuSans-30" x="83.789062"/>
       <use xlink:href="#DejaVuSans-2e" x="147.412109"/>
       <use xlink:href="#DejaVuSans-30" x="179.199219"/>
       <use xlink:href="#DejaVuSans-35" x="242.822266"/>
      </g>
     </g>
    </g>
    <g id="ytick_3">
     <g id="line2d_7">
      <g>
       <use xlink:href="#mfcd92ba9dc" x="58.523438" y="94.462152" style="stroke: #000000; stroke-width: 0.8"/>
      </g>
     </g>
     <g id="text_7">
      <!-- 0.00 -->
      <g transform="translate(29.257812 98.261371)scale(0.1 -0.1)">
       <use xlink:href="#DejaVuSans-30"/>
       <use xlink:href="#DejaVuSans-2e" x="63.623047"/>
       <use xlink:href="#DejaVuSans-30" x="95.410156"/>
       <use xlink:href="#DejaVuSans-30" x="159.033203"/>
      </g>
     </g>
    </g>
    <g id="ytick_4">
     <g id="line2d_8">
      <g>
       <use xlink:href="#mfcd92ba9dc" x="58.523438" y="60.333147" style="stroke: #000000; stroke-width: 0.8"/>
      </g>
     </g>
     <g id="text_8">
      <!-- 0.05 -->
      <g transform="translate(29.257812 64.132366)scale(0.1 -0.1)">
       <use xlink:href="#DejaVuSans-30"/>
       <use xlink:href="#DejaVuSans-2e" x="63.623047"/>
       <use xlink:href="#DejaVuSans-30" x="95.410156"/>
       <use xlink:href="#DejaVuSans-35" x="159.033203"/>
      </g>
     </g>
    </g>
    <g id="ytick_5">
     <g id="line2d_9">
      <g>
       <use xlink:href="#mfcd92ba9dc" x="58.523438" y="26.204142" style="stroke: #000000; stroke-width: 0.8"/>
      </g>
     </g>
     <g id="text_9">
      <!-- 0.10 -->
      <g transform="translate(29.257812 30.00336)scale(0.1 -0.1)">
       <use xlink:href="#DejaVuSans-30"/>
       <use xlink:href="#DejaVuSans-2e" x="63.623047"/>
       <use xlink:href="#DejaVuSans-31" x="95.410156"/>
       <use xlink:href="#DejaVuSans-30" x="159.033203"/>
      </g>
     </g>
    </g>
    <g id="text_10">
     <!-- ${\nabla}_w L$ -->
     <g transform="translate(14.798437 97.94)rotate(-90)scale(0.1 -0.1)">
      <defs>
       <path id="DejaVuSans-2207" d="M 2138 659 
L 3444 4047 
L 831 4047 
L 2138 659 
z
M 1791 0 
L -19 4603 
L 4300 4603 
L 2491 0 
L 1791 0 
z
" transform="scale(0.015625)"/>
       <path id="DejaVuSans-Oblique-77" d="M 544 3500 
L 1113 3500 
L 1259 684 
L 2566 3500 
L 3231 3500 
L 3425 684 
L 4666 3500 
L 5241 3500 
L 3641 0 
L 2969 0 
L 2797 2900 
L 1459 0 
L 781 0 
L 544 3500 
z
" transform="scale(0.015625)"/>
       <path id="DejaVuSans-Oblique-4c" d="M 1075 4666 
L 1709 4666 
L 909 525 
L 3181 525 
L 3078 0 
L 172 0 
L 1075 4666 
z
" transform="scale(0.015625)"/>
      </defs>
      <use xlink:href="#DejaVuSans-2207" transform="translate(0 0.09375)"/>
      <use xlink:href="#DejaVuSans-Oblique-77" transform="translate(67.851562 -16.3125)scale(0.7)"/>
      <use xlink:href="#DejaVuSans-Oblique-4c" transform="translate(127.836914 0.09375)"/>
     </g>
    </g>
   </g>
   <g id="line2d_10">
    <path d="M 128.273438 108.582398 
L 128.273438 80.350589 
" clip-path="url(#p536dcaafcc)" style="fill: none; stroke: #515151; stroke-width: 1.5; stroke-linecap: square"/>
   </g>
   <g id="line2d_11">
    <path d="M 128.273438 97.995391 
L 128.273438 90.937285 
" clip-path="url(#p536dcaafcc)" style="fill: none; stroke: #515151; stroke-width: 4.5; stroke-linecap: square"/>
   </g>
   <g id="line2d_12">
    <path d="M 267.773438 113.287667 
L 267.773438 75.680438 
" clip-path="url(#p536dcaafcc)" style="fill: none; stroke: #515151; stroke-width: 1.5; stroke-linecap: square"/>
   </g>
   <g id="line2d_13">
    <path d="M 267.773438 99.184855 
L 267.773438 89.782977 
" clip-path="url(#p536dcaafcc)" style="fill: none; stroke: #515151; stroke-width: 4.5; stroke-linecap: square"/>
   </g>
   <g id="line2d_14">
    <path d="M 407.273438 113.864803 
L 407.273438 74.990054 
" clip-path="url(#p536dcaafcc)" style="fill: none; stroke: #515151; stroke-width: 1.5; stroke-linecap: square"/>
   </g>
   <g id="line2d_15">
    <path d="M 407.273438 99.2864 
L 407.273438 89.565677 
" clip-path="url(#p536dcaafcc)" style="fill: none; stroke: #515151; stroke-width: 4.5; stroke-linecap: square"/>
   </g>
   <g id="line2d_16">
    <path d="M 546.773438 124.257929 
L 546.773438 64.684462 
" clip-path="url(#p536dcaafcc)" style="fill: none; stroke: #515151; stroke-width: 1.5; stroke-linecap: square"/>
   </g>
   <g id="line2d_17">
    <path d="M 546.773438 101.925412 
L 546.773438 87.023189 
" clip-path="url(#p536dcaafcc)" style="fill: none; stroke: #515151; stroke-width: 4.5; stroke-linecap: square"/>
   </g>
   <g id="patch_3">
    <path d="M 58.523438 170.28 
L 58.523438 7.2 
" style="fill: none; stroke: #000000; stroke-width: 0.8; stroke-linejoin: miter; stroke-linecap: square"/>
   </g>
   <g id="patch_4">
    <path d="M 616.523438 170.28 
L 616.523438 7.2 
" style="fill: none; stroke: #000000; stroke-width: 0.8; stroke-linejoin: miter; stroke-linecap: square"/>
   </g>
   <g id="patch_5">
    <path d="M 58.523438 170.28 
L 616.523438 170.28 
" style="fill: none; stroke: #000000; stroke-width: 0.8; stroke-linejoin: miter; stroke-linecap: square"/>
   </g>
   <g id="patch_6">
    <path d="M 58.523438 7.2 
L 616.523438 7.2 
" style="fill: none; stroke: #000000; stroke-width: 0.8; stroke-linejoin: miter; stroke-linecap: square"/>
   </g>
   <g id="PathCollection_1">
    <defs>
     <path id="m7e5d3a5704" d="M 0 1.5 
C 0.397805 1.5 0.77937 1.341951 1.06066 1.06066 
C 1.341951 0.77937 1.5 0.397805 1.5 0 
C 1.5 -0.397805 1.341951 -0.77937 1.06066 -1.06066 
C 0.77937 -1.341951 0.397805 -1.5 0 -1.5 
C -0.397805 -1.5 -0.77937 -1.341951 -1.06066 -1.06066 
C -1.341951 -0.77937 -1.5 -0.397805 -1.5 0 
C -1.5 0.397805 -1.341951 0.77937 -1.06066 1.06066 
C -0.77937 1.341951 -0.397805 1.5 0 1.5 
z
" style="stroke: #515151"/>
    </defs>
    <g clip-path="url(#p536dcaafcc)">
     <use xlink:href="#m7e5d3a5704" x="128.273438" y="94.46513" style="fill: #ffffff; stroke: #515151"/>
    </g>
   </g>
   <g id="PathCollection_2">
    <g clip-path="url(#p536dcaafcc)">
     <use xlink:href="#m7e5d3a5704" x="267.773438" y="94.466045" style="fill: #ffffff; stroke: #515151"/>
    </g>
   </g>
   <g id="PathCollection_3">
    <g clip-path="url(#p536dcaafcc)">
     <use xlink:href="#m7e5d3a5704" x="407.273438" y="94.442316" style="fill: #ffffff; stroke: #515151"/>
    </g>
   </g>
   <g id="PathCollection_4">
    <g clip-path="url(#p536dcaafcc)">
     <use xlink:href="#m7e5d3a5704" x="546.773438" y="94.465758" style="fill: #ffffff; stroke: #515151"/>
    </g>
   </g>
   <g id="legend_1">
    <g id="patch_7">
     <path d="M 65.523438 29.878125 
L 106.65 29.878125 
Q 108.65 29.878125 108.65 27.878125 
L 108.65 14.2 
Q 108.65 12.2 106.65 12.2 
L 65.523438 12.2 
Q 63.523438 12.2 63.523438 14.2 
L 63.523438 27.878125 
Q 63.523438 29.878125 65.523438 29.878125 
z
" style="fill: #ffffff; opacity: 0.8; stroke: #cccccc; stroke-linejoin: miter"/>
    </g>
    <g id="patch_8">
     <path d="M 67.523438 23.798437 
L 87.523438 23.798437 
L 87.523438 16.798437 
L 67.523438 16.798437 
z
" style="fill: #e1812c; stroke: #515151; stroke-width: 1.5; stroke-linejoin: miter"/>
    </g>
    <g id="text_11">
     <!-- id -->
     <g transform="translate(95.523438 23.798437)scale(0.1 -0.1)">
      <defs>
       <path id="DejaVuSans-69" d="M 603 3500 
L 1178 3500 
L 1178 0 
L 603 0 
L 603 3500 
z
M 603 4863 
L 1178 4863 
L 1178 4134 
L 603 4134 
L 603 4863 
z
" transform="scale(0.015625)"/>
      </defs>
      <use xlink:href="#DejaVuSans-69"/>
      <use xlink:href="#DejaVuSans-64" x="27.783203"/>
     </g>
    </g>
   </g>
  </g>
 </g>
 <defs>
  <clipPath id="p536dcaafcc">
   <rect x="58.523438" y="7.2" width="558" height="163.08"/>
  </clipPath>
 </defs>
</svg>
