<?xml version="1.0" encoding="utf-8" standalone="no"?>
<!DOCTYPE svg PUBLIC "-//W3C//DTD SVG 1.1//EN"
  "http://www.w3.org/Graphics/SVG/1.1/DTD/svg11.dtd">
<svg xmlns:xlink="http://www.w3.org/1999/xlink" width="607.820312pt" height="204.756563pt" viewBox="0 0 607.820312 204.756563" xmlns="http://www.w3.org/2000/svg" version="1.1">
 <metadata>
  <rdf:RDF xmlns:dc="http://purl.org/dc/elements/1.1/" xmlns:cc="http://creativecommons.org/ns#" xmlns:rdf="http://www.w3.org/1999/02/22-rdf-syntax-ns#">
   <cc:Work>
    <dc:type rdf:resource="http://purl.org/dc/dcmitype/StillImage"/>
    <dc:date>2022-07-08T21:37:45.223522</dc:date>
    <dc:format>image/svg+xml</dc:format>
    <dc:creator>
     <cc:Agent>
      <dc:title>Matplotlib v3.5.1, https://matplotlib.org/</dc:title>
     </cc:Agent>
    </dc:creator>
   </cc:Work>
  </rdf:RDF>
 </metadata>
 <defs>
  <style type="text/css">*{stroke-linejoin: round; stroke-linecap: butt}</style>
 </defs>
 <g id="figure_1">
  <g id="patch_1">
   <path d="M 0 204.756563 
L 607.820312 204.756563 
L 607.820312 0 
L 0 0 
L 0 204.756563 
z
" style="fill: none"/>
  </g>
  <g id="axes_1">
   <g id="patch_2">
    <path d="M 42.620312 180.878437 
L 600.620312 180.878437 
L 600.620312 17.798437 
L 42.620312 17.798437 
z
" style="fill: #ffffff"/>
   </g>
   <g id="PolyCollection_1">
    <defs>
     <path id="mbf13fc79c7" d="M 112.482902 -31.290852 
L 112.257723 -31.290852 
L 111.954532 -32.788373 
L 111.417837 -34.285894 
L 110.830057 -35.783414 
L 110.294476 -37.280935 
L 109.8888 -38.778456 
L 109.872731 -40.275976 
L 110.143792 -41.773497 
L 109.911339 -43.271018 
L 108.73453 -44.768538 
L 107.469474 -46.266059 
L 107.087999 -47.76358 
L 107.58045 -49.2611 
L 108.355666 -50.758621 
L 108.596912 -52.256142 
L 108.003961 -53.753662 
L 106.709708 -55.251183 
L 104.703799 -56.748704 
L 102.94545 -58.246224 
L 102.847034 -59.743745 
L 104.042968 -61.241265 
L 104.814435 -62.738786 
L 104.265005 -64.236307 
L 102.800321 -65.733827 
L 100.999415 -67.231348 
L 99.192289 -68.728869 
L 97.530605 -70.226389 
L 95.589058 -71.72391 
L 92.828354 -73.221431 
L 89.525374 -74.718951 
L 86.331783 -76.216472 
L 83.518841 -77.713993 
L 81.122041 -79.211513 
L 80.430097 -80.709034 
L 81.989496 -82.206555 
L 83.681854 -83.704075 
L 83.901466 -85.201596 
L 81.53671 -86.699117 
L 76.143602 -88.196637 
L 70.13651 -89.694158 
L 68.132248 -91.191679 
L 71.543381 -92.689199 
L 75.859856 -94.18672 
L 77.250328 -95.684241 
L 75.45827 -97.181761 
L 70.545019 -98.679282 
L 64.282892 -100.176803 
L 59.117862 -101.674323 
L 56.570312 -103.171844 
L 58.750164 -104.669365 
L 63.756295 -106.166885 
L 66.84706 -107.664406 
L 66.099533 -109.161927 
L 62.184083 -110.659447 
L 58.676302 -112.156968 
L 58.285783 -113.654489 
L 58.238602 -115.152009 
L 59.375077 -116.64953 
L 65.823107 -118.147051 
L 74.368006 -119.644571 
L 80.865967 -121.142092 
L 85.194992 -122.639613 
L 86.13474 -124.137133 
L 82.908213 -125.634654 
L 78.806156 -127.132175 
L 77.641277 -128.629695 
L 79.83462 -130.127216 
L 83.783155 -131.624737 
L 87.682441 -133.122257 
L 90.755196 -134.619778 
L 93.359147 -136.117299 
L 95.496697 -137.614819 
L 97.177874 -139.11234 
L 98.438149 -140.609861 
L 98.550338 -142.107381 
L 97.300543 -143.604902 
L 96.016285 -145.102423 
L 95.706995 -146.599943 
L 95.77406 -148.097464 
L 96.074998 -149.594985 
L 97.120439 -151.092505 
L 97.977817 -152.590026 
L 98.021295 -154.087546 
L 97.962342 -155.585067 
L 98.214229 -157.082588 
L 99.600708 -158.580108 
L 102.537167 -160.077629 
L 105.38029 -161.57515 
L 106.710002 -163.07267 
L 106.814755 -164.570191 
L 106.98413 -166.067712 
L 108.127639 -167.565232 
L 109.658149 -169.062753 
L 110.590633 -170.560274 
L 110.884738 -172.057794 
L 110.961513 -173.555315 
L 111.124626 -175.052836 
L 111.508951 -176.550356 
L 111.973211 -178.047877 
L 112.260046 -179.545398 
L 112.480579 -179.545398 
L 112.480579 -179.545398 
L 112.767414 -178.047877 
L 113.231674 -176.550356 
L 113.615999 -175.052836 
L 113.779112 -173.555315 
L 113.855887 -172.057794 
L 114.149992 -170.560274 
L 115.082476 -169.062753 
L 116.612986 -167.565232 
L 117.756495 -166.067712 
L 117.92587 -164.570191 
L 118.030623 -163.07267 
L 119.360335 -161.57515 
L 122.203458 -160.077629 
L 125.139917 -158.580108 
L 126.526396 -157.082588 
L 126.778283 -155.585067 
L 126.71933 -154.087546 
L 126.762808 -152.590026 
L 127.620186 -151.092505 
L 128.665627 -149.594985 
L 128.966565 -148.097464 
L 129.03363 -146.599943 
L 128.72434 -145.102423 
L 127.440082 -143.604902 
L 126.190287 -142.107381 
L 126.302476 -140.609861 
L 127.562751 -139.11234 
L 129.243928 -137.614819 
L 131.381478 -136.117299 
L 133.985429 -134.619778 
L 137.058184 -133.122257 
L 140.95747 -131.624737 
L 144.906005 -130.127216 
L 147.099348 -128.629695 
L 145.934469 -127.132175 
L 141.832412 -125.634654 
L 138.605885 -124.137133 
L 139.545633 -122.639613 
L 143.874658 -121.142092 
L 150.372619 -119.644571 
L 158.917518 -118.147051 
L 165.365548 -116.64953 
L 166.502023 -115.152009 
L 166.454842 -113.654489 
L 166.064323 -112.156968 
L 162.556542 -110.659447 
L 158.641092 -109.161927 
L 157.893565 -107.664406 
L 160.98433 -106.166885 
L 165.990461 -104.669365 
L 168.170312 -103.171844 
L 165.622763 -101.674323 
L 160.457733 -100.176803 
L 154.195606 -98.679282 
L 149.282355 -97.181761 
L 147.490297 -95.684241 
L 148.880769 -94.18672 
L 153.197244 -92.689199 
L 156.608377 -91.191679 
L 154.604115 -89.694158 
L 148.597023 -88.196637 
L 143.203915 -86.699117 
L 140.839159 -85.201596 
L 141.058771 -83.704075 
L 142.751129 -82.206555 
L 144.310528 -80.709034 
L 143.618584 -79.211513 
L 141.221784 -77.713993 
L 138.408842 -76.216472 
L 135.215251 -74.718951 
L 131.912271 -73.221431 
L 129.151567 -71.72391 
L 127.21002 -70.226389 
L 125.548336 -68.728869 
L 123.74121 -67.231348 
L 121.940304 -65.733827 
L 120.47562 -64.236307 
L 119.92619 -62.738786 
L 120.697657 -61.241265 
L 121.893591 -59.743745 
L 121.795175 -58.246224 
L 120.036826 -56.748704 
L 118.030917 -55.251183 
L 116.736664 -53.753662 
L 116.143713 -52.256142 
L 116.384959 -50.758621 
L 117.160175 -49.2611 
L 117.652626 -47.76358 
L 117.271151 -46.266059 
L 116.006095 -44.768538 
L 114.829286 -43.271018 
L 114.596833 -41.773497 
L 114.867894 -40.275976 
L 114.851825 -38.778456 
L 114.446149 -37.280935 
L 113.910568 -35.783414 
L 113.322788 -34.285894 
L 112.786093 -32.788373 
L 112.482902 -31.290852 
z
" style="stroke: #515151; stroke-width: 1.5"/>
    </defs>
    <g clip-path="url(#p613f3a806a)">
     <use xlink:href="#mbf13fc79c7" x="0" y="204.756563" style="fill: #e1812c; stroke: #515151; stroke-width: 1.5"/>
    </g>
   </g>
   <g id="matplotlib.axis_1">
    <g id="xtick_1">
     <g id="line2d_1">
      <defs>
       <path id="m9673a6d84e" d="M 0 0 
L 0 3.5 
" style="stroke: #000000; stroke-width: 0.8"/>
      </defs>
      <g>
       <use xlink:href="#m9673a6d84e" x="112.370312" y="180.878437" style="stroke: #000000; stroke-width: 0.8"/>
      </g>
     </g>
     <g id="text_1">
      <!-- (1, dense) -->
      <g transform="translate(87.008594 195.476875)scale(0.1 -0.1)">
       <defs>
        <path id="DejaVuSans-28" d="M 1984 4856 
Q 1566 4138 1362 3434 
Q 1159 2731 1159 2009 
Q 1159 1288 1364 580 
Q 1569 -128 1984 -844 
L 1484 -844 
Q 1016 -109 783 600 
Q 550 1309 550 2009 
Q 550 2706 781 3412 
Q 1013 4119 1484 4856 
L 1984 4856 
z
" transform="scale(0.015625)"/>
        <path id="DejaVuSans-31" d="M 794 531 
L 1825 531 
L 1825 4091 
L 703 3866 
L 703 4441 
L 1819 4666 
L 2450 4666 
L 2450 531 
L 3481 531 
L 3481 0 
L 794 0 
L 794 531 
z
" transform="scale(0.015625)"/>
        <path id="DejaVuSans-2c" d="M 750 794 
L 1409 794 
L 1409 256 
L 897 -744 
L 494 -744 
L 750 256 
L 750 794 
z
" transform="scale(0.015625)"/>
        <path id="DejaVuSans-20" transform="scale(0.015625)"/>
        <path id="DejaVuSans-64" d="M 2906 2969 
L 2906 4863 
L 3481 4863 
L 3481 0 
L 2906 0 
L 2906 525 
Q 2725 213 2448 61 
Q 2172 -91 1784 -91 
Q 1150 -91 751 415 
Q 353 922 353 1747 
Q 353 2572 751 3078 
Q 1150 3584 1784 3584 
Q 2172 3584 2448 3432 
Q 2725 3281 2906 2969 
z
M 947 1747 
Q 947 1113 1208 752 
Q 1469 391 1925 391 
Q 2381 391 2643 752 
Q 2906 1113 2906 1747 
Q 2906 2381 2643 2742 
Q 2381 3103 1925 3103 
Q 1469 3103 1208 2742 
Q 947 2381 947 1747 
z
" transform="scale(0.015625)"/>
        <path id="DejaVuSans-65" d="M 3597 1894 
L 3597 1613 
L 953 1613 
Q 991 1019 1311 708 
Q 1631 397 2203 397 
Q 2534 397 2845 478 
Q 3156 559 3463 722 
L 3463 178 
Q 3153 47 2828 -22 
Q 2503 -91 2169 -91 
Q 1331 -91 842 396 
Q 353 884 353 1716 
Q 353 2575 817 3079 
Q 1281 3584 2069 3584 
Q 2775 3584 3186 3129 
Q 3597 2675 3597 1894 
z
M 3022 2063 
Q 3016 2534 2758 2815 
Q 2500 3097 2075 3097 
Q 1594 3097 1305 2825 
Q 1016 2553 972 2059 
L 3022 2063 
z
" transform="scale(0.015625)"/>
        <path id="DejaVuSans-6e" d="M 3513 2113 
L 3513 0 
L 2938 0 
L 2938 2094 
Q 2938 2591 2744 2837 
Q 2550 3084 2163 3084 
Q 1697 3084 1428 2787 
Q 1159 2491 1159 1978 
L 1159 0 
L 581 0 
L 581 3500 
L 1159 3500 
L 1159 2956 
Q 1366 3272 1645 3428 
Q 1925 3584 2291 3584 
Q 2894 3584 3203 3211 
Q 3513 2838 3513 2113 
z
" transform="scale(0.015625)"/>
        <path id="DejaVuSans-73" d="M 2834 3397 
L 2834 2853 
Q 2591 2978 2328 3040 
Q 2066 3103 1784 3103 
Q 1356 3103 1142 2972 
Q 928 2841 928 2578 
Q 928 2378 1081 2264 
Q 1234 2150 1697 2047 
L 1894 2003 
Q 2506 1872 2764 1633 
Q 3022 1394 3022 966 
Q 3022 478 2636 193 
Q 2250 -91 1575 -91 
Q 1294 -91 989 -36 
Q 684 19 347 128 
L 347 722 
Q 666 556 975 473 
Q 1284 391 1588 391 
Q 1994 391 2212 530 
Q 2431 669 2431 922 
Q 2431 1156 2273 1281 
Q 2116 1406 1581 1522 
L 1381 1569 
Q 847 1681 609 1914 
Q 372 2147 372 2553 
Q 372 3047 722 3315 
Q 1072 3584 1716 3584 
Q 2034 3584 2315 3537 
Q 2597 3491 2834 3397 
z
" transform="scale(0.015625)"/>
        <path id="DejaVuSans-29" d="M 513 4856 
L 1013 4856 
Q 1481 4119 1714 3412 
Q 1947 2706 1947 2009 
Q 1947 1309 1714 600 
Q 1481 -109 1013 -844 
L 513 -844 
Q 928 -128 1133 580 
Q 1338 1288 1338 2009 
Q 1338 2731 1133 3434 
Q 928 4138 513 4856 
z
" transform="scale(0.015625)"/>
       </defs>
       <use xlink:href="#DejaVuSans-28"/>
       <use xlink:href="#DejaVuSans-31" x="39.013672"/>
       <use xlink:href="#DejaVuSans-2c" x="102.636719"/>
       <use xlink:href="#DejaVuSans-20" x="134.423828"/>
       <use xlink:href="#DejaVuSans-64" x="166.210938"/>
       <use xlink:href="#DejaVuSans-65" x="229.6875"/>
       <use xlink:href="#DejaVuSans-6e" x="291.210938"/>
       <use xlink:href="#DejaVuSans-73" x="354.589844"/>
       <use xlink:href="#DejaVuSans-65" x="406.689453"/>
       <use xlink:href="#DejaVuSans-29" x="468.212891"/>
      </g>
     </g>
    </g>
    <g id="xtick_2">
     <g id="line2d_2">
      <g>
       <use xlink:href="#m9673a6d84e" x="251.870313" y="180.878437" style="stroke: #000000; stroke-width: 0.8"/>
      </g>
     </g>
     <g id="text_2">
      <!-- (2, dense) -->
      <g transform="translate(226.508594 195.476875)scale(0.1 -0.1)">
       <defs>
        <path id="DejaVuSans-32" d="M 1228 531 
L 3431 531 
L 3431 0 
L 469 0 
L 469 531 
Q 828 903 1448 1529 
Q 2069 2156 2228 2338 
Q 2531 2678 2651 2914 
Q 2772 3150 2772 3378 
Q 2772 3750 2511 3984 
Q 2250 4219 1831 4219 
Q 1534 4219 1204 4116 
Q 875 4013 500 3803 
L 500 4441 
Q 881 4594 1212 4672 
Q 1544 4750 1819 4750 
Q 2544 4750 2975 4387 
Q 3406 4025 3406 3419 
Q 3406 3131 3298 2873 
Q 3191 2616 2906 2266 
Q 2828 2175 2409 1742 
Q 1991 1309 1228 531 
z
" transform="scale(0.015625)"/>
       </defs>
       <use xlink:href="#DejaVuSans-28"/>
       <use xlink:href="#DejaVuSans-32" x="39.013672"/>
       <use xlink:href="#DejaVuSans-2c" x="102.636719"/>
       <use xlink:href="#DejaVuSans-20" x="134.423828"/>
       <use xlink:href="#DejaVuSans-64" x="166.210938"/>
       <use xlink:href="#DejaVuSans-65" x="229.6875"/>
       <use xlink:href="#DejaVuSans-6e" x="291.210938"/>
       <use xlink:href="#DejaVuSans-73" x="354.589844"/>
       <use xlink:href="#DejaVuSans-65" x="406.689453"/>
       <use xlink:href="#DejaVuSans-29" x="468.212891"/>
      </g>
     </g>
    </g>
    <g id="xtick_3">
     <g id="line2d_3">
      <g>
       <use xlink:href="#m9673a6d84e" x="391.370313" y="180.878437" style="stroke: #000000; stroke-width: 0.8"/>
      </g>
     </g>
     <g id="text_3">
      <!-- (3, dense) -->
      <g transform="translate(366.008594 195.476875)scale(0.1 -0.1)">
       <defs>
        <path id="DejaVuSans-33" d="M 2597 2516 
Q 3050 2419 3304 2112 
Q 3559 1806 3559 1356 
Q 3559 666 3084 287 
Q 2609 -91 1734 -91 
Q 1441 -91 1130 -33 
Q 819 25 488 141 
L 488 750 
Q 750 597 1062 519 
Q 1375 441 1716 441 
Q 2309 441 2620 675 
Q 2931 909 2931 1356 
Q 2931 1769 2642 2001 
Q 2353 2234 1838 2234 
L 1294 2234 
L 1294 2753 
L 1863 2753 
Q 2328 2753 2575 2939 
Q 2822 3125 2822 3475 
Q 2822 3834 2567 4026 
Q 2313 4219 1838 4219 
Q 1578 4219 1281 4162 
Q 984 4106 628 3988 
L 628 4550 
Q 988 4650 1302 4700 
Q 1616 4750 1894 4750 
Q 2613 4750 3031 4423 
Q 3450 4097 3450 3541 
Q 3450 3153 3228 2886 
Q 3006 2619 2597 2516 
z
" transform="scale(0.015625)"/>
       </defs>
       <use xlink:href="#DejaVuSans-28"/>
       <use xlink:href="#DejaVuSans-33" x="39.013672"/>
       <use xlink:href="#DejaVuSans-2c" x="102.636719"/>
       <use xlink:href="#DejaVuSans-20" x="134.423828"/>
       <use xlink:href="#DejaVuSans-64" x="166.210938"/>
       <use xlink:href="#DejaVuSans-65" x="229.6875"/>
       <use xlink:href="#DejaVuSans-6e" x="291.210938"/>
       <use xlink:href="#DejaVuSans-73" x="354.589844"/>
       <use xlink:href="#DejaVuSans-65" x="406.689453"/>
       <use xlink:href="#DejaVuSans-29" x="468.212891"/>
      </g>
     </g>
    </g>
    <g id="xtick_4">
     <g id="line2d_4">
      <g>
       <use xlink:href="#m9673a6d84e" x="530.870312" y="180.878437" style="stroke: #000000; stroke-width: 0.8"/>
      </g>
     </g>
     <g id="text_4">
      <!-- (4, dense) -->
      <g transform="translate(505.508594 195.476875)scale(0.1 -0.1)">
       <defs>
        <path id="DejaVuSans-34" d="M 2419 4116 
L 825 1625 
L 2419 1625 
L 2419 4116 
z
M 2253 4666 
L 3047 4666 
L 3047 1625 
L 3713 1625 
L 3713 1100 
L 3047 1100 
L 3047 0 
L 2419 0 
L 2419 1100 
L 313 1100 
L 313 1709 
L 2253 4666 
z
" transform="scale(0.015625)"/>
       </defs>
       <use xlink:href="#DejaVuSans-28"/>
       <use xlink:href="#DejaVuSans-34" x="39.013672"/>
       <use xlink:href="#DejaVuSans-2c" x="102.636719"/>
       <use xlink:href="#DejaVuSans-20" x="134.423828"/>
       <use xlink:href="#DejaVuSans-64" x="166.210938"/>
       <use xlink:href="#DejaVuSans-65" x="229.6875"/>
       <use xlink:href="#DejaVuSans-6e" x="291.210938"/>
       <use xlink:href="#DejaVuSans-73" x="354.589844"/>
       <use xlink:href="#DejaVuSans-65" x="406.689453"/>
       <use xlink:href="#DejaVuSans-29" x="468.212891"/>
      </g>
     </g>
    </g>
   </g>
   <g id="matplotlib.axis_2">
    <g id="ytick_1">
     <g id="line2d_5">
      <defs>
       <path id="m3fc53b8a98" d="M 0 0 
L -3.5 0 
" style="stroke: #000000; stroke-width: 0.8"/>
      </defs>
      <g>
       <use xlink:href="#m3fc53b8a98" x="42.620312" y="160.005635" style="stroke: #000000; stroke-width: 0.8"/>
      </g>
     </g>
     <g id="text_5">
      <!-- −3 -->
      <g transform="translate(20.878125 163.804854)scale(0.1 -0.1)">
       <defs>
        <path id="DejaVuSans-2212" d="M 678 2272 
L 4684 2272 
L 4684 1741 
L 678 1741 
L 678 2272 
z
" transform="scale(0.015625)"/>
       </defs>
       <use xlink:href="#DejaVuSans-2212"/>
       <use xlink:href="#DejaVuSans-33" x="83.789062"/>
      </g>
     </g>
    </g>
    <g id="ytick_2">
     <g id="line2d_6">
      <g>
       <use xlink:href="#m3fc53b8a98" x="42.620312" y="139.085434" style="stroke: #000000; stroke-width: 0.8"/>
      </g>
     </g>
     <g id="text_6">
      <!-- −2 -->
      <g transform="translate(20.878125 142.884652)scale(0.1 -0.1)">
       <use xlink:href="#DejaVuSans-2212"/>
       <use xlink:href="#DejaVuSans-32" x="83.789062"/>
      </g>
     </g>
    </g>
    <g id="ytick_3">
     <g id="line2d_7">
      <g>
       <use xlink:href="#m3fc53b8a98" x="42.620312" y="118.165232" style="stroke: #000000; stroke-width: 0.8"/>
      </g>
     </g>
     <g id="text_7">
      <!-- −1 -->
      <g transform="translate(20.878125 121.964451)scale(0.1 -0.1)">
       <use xlink:href="#DejaVuSans-2212"/>
       <use xlink:href="#DejaVuSans-31" x="83.789062"/>
      </g>
     </g>
    </g>
    <g id="ytick_4">
     <g id="line2d_8">
      <g>
       <use xlink:href="#m3fc53b8a98" x="42.620312" y="97.24503" style="stroke: #000000; stroke-width: 0.8"/>
      </g>
     </g>
     <g id="text_8">
      <!-- 0 -->
      <g transform="translate(29.257812 101.044249)scale(0.1 -0.1)">
       <defs>
        <path id="DejaVuSans-30" d="M 2034 4250 
Q 1547 4250 1301 3770 
Q 1056 3291 1056 2328 
Q 1056 1369 1301 889 
Q 1547 409 2034 409 
Q 2525 409 2770 889 
Q 3016 1369 3016 2328 
Q 3016 3291 2770 3770 
Q 2525 4250 2034 4250 
z
M 2034 4750 
Q 2819 4750 3233 4129 
Q 3647 3509 3647 2328 
Q 3647 1150 3233 529 
Q 2819 -91 2034 -91 
Q 1250 -91 836 529 
Q 422 1150 422 2328 
Q 422 3509 836 4129 
Q 1250 4750 2034 4750 
z
" transform="scale(0.015625)"/>
       </defs>
       <use xlink:href="#DejaVuSans-30"/>
      </g>
     </g>
    </g>
    <g id="ytick_5">
     <g id="line2d_9">
      <g>
       <use xlink:href="#m3fc53b8a98" x="42.620312" y="76.324828" style="stroke: #000000; stroke-width: 0.8"/>
      </g>
     </g>
     <g id="text_9">
      <!-- 1 -->
      <g transform="translate(29.257812 80.124047)scale(0.1 -0.1)">
       <use xlink:href="#DejaVuSans-31"/>
      </g>
     </g>
    </g>
    <g id="ytick_6">
     <g id="line2d_10">
      <g>
       <use xlink:href="#m3fc53b8a98" x="42.620312" y="55.404627" style="stroke: #000000; stroke-width: 0.8"/>
      </g>
     </g>
     <g id="text_10">
      <!-- 2 -->
      <g transform="translate(29.257812 59.203845)scale(0.1 -0.1)">
       <use xlink:href="#DejaVuSans-32"/>
      </g>
     </g>
    </g>
    <g id="ytick_7">
     <g id="line2d_11">
      <g>
       <use xlink:href="#m3fc53b8a98" x="42.620312" y="34.484425" style="stroke: #000000; stroke-width: 0.8"/>
      </g>
     </g>
     <g id="text_11">
      <!-- 3 -->
      <g transform="translate(29.257812 38.283644)scale(0.1 -0.1)">
       <use xlink:href="#DejaVuSans-33"/>
      </g>
     </g>
    </g>
    <g id="text_12">
     <!-- ${\nabla}_w L$ -->
     <g transform="translate(14.798437 108.538438)rotate(-90)scale(0.1 -0.1)">
      <defs>
       <path id="DejaVuSans-2207" d="M 2138 659 
L 3444 4047 
L 831 4047 
L 2138 659 
z
M 1791 0 
L -19 4603 
L 4300 4603 
L 2491 0 
L 1791 0 
z
" transform="scale(0.015625)"/>
       <path id="DejaVuSans-Oblique-77" d="M 544 3500 
L 1113 3500 
L 1259 684 
L 2566 3500 
L 3231 3500 
L 3425 684 
L 4666 3500 
L 5241 3500 
L 3641 0 
L 2969 0 
L 2797 2900 
L 1459 0 
L 781 0 
L 544 3500 
z
" transform="scale(0.015625)"/>
       <path id="DejaVuSans-Oblique-4c" d="M 1075 4666 
L 1709 4666 
L 909 525 
L 3181 525 
L 3078 0 
L 172 0 
L 1075 4666 
z
" transform="scale(0.015625)"/>
      </defs>
      <use xlink:href="#DejaVuSans-2207" transform="translate(0 0.09375)"/>
      <use xlink:href="#DejaVuSans-Oblique-77" transform="translate(67.851562 -16.3125)scale(0.7)"/>
      <use xlink:href="#DejaVuSans-Oblique-4c" transform="translate(127.836914 0.09375)"/>
     </g>
    </g>
    <g id="text_13">
     <!-- 1e−11 -->
     <g transform="translate(42.620312 14.798437)scale(0.1 -0.1)">
      <use xlink:href="#DejaVuSans-31"/>
      <use xlink:href="#DejaVuSans-65" x="63.623047"/>
      <use xlink:href="#DejaVuSans-2212" x="125.146484"/>
      <use xlink:href="#DejaVuSans-31" x="208.935547"/>
      <use xlink:href="#DejaVuSans-31" x="272.558594"/>
     </g>
    </g>
   </g>
   <g id="line2d_12">
    <path d="M 112.370312 165.541419 
L 112.370312 29.132998 
" clip-path="url(#p613f3a806a)" style="fill: none; stroke: #515151; stroke-width: 1.5; stroke-linecap: square"/>
   </g>
   <g id="line2d_13">
    <path d="M 112.370312 114.571785 
L 112.370312 80.329779 
" clip-path="url(#p613f3a806a)" style="fill: none; stroke: #515151; stroke-width: 4.5; stroke-linecap: square"/>
   </g>
   <g id="line2d_14">
    <path d="M 196.070312 97.524053 
L 307.670312 97.524053 
" clip-path="url(#p613f3a806a)" style="fill: none; stroke: #515151; stroke-width: 1.5; stroke-linecap: square"/>
   </g>
   <g id="line2d_15">
    <path d="M 335.570312 97.803571 
L 447.170313 97.803571 
" clip-path="url(#p613f3a806a)" style="fill: none; stroke: #515151; stroke-width: 1.5; stroke-linecap: square"/>
   </g>
   <g id="line2d_16">
    <path d="M 475.070312 98.361895 
L 586.670313 98.361895 
" clip-path="url(#p613f3a806a)" style="fill: none; stroke: #515151; stroke-width: 1.5; stroke-linecap: square"/>
   </g>
   <g id="patch_3">
    <path d="M 42.620312 180.878437 
L 42.620312 17.798437 
" style="fill: none; stroke: #000000; stroke-width: 0.8; stroke-linejoin: miter; stroke-linecap: square"/>
   </g>
   <g id="patch_4">
    <path d="M 600.620312 180.878437 
L 600.620312 17.798437 
" style="fill: none; stroke: #000000; stroke-width: 0.8; stroke-linejoin: miter; stroke-linecap: square"/>
   </g>
   <g id="patch_5">
    <path d="M 42.620312 180.878437 
L 600.620312 180.878437 
" style="fill: none; stroke: #000000; stroke-width: 0.8; stroke-linejoin: miter; stroke-linecap: square"/>
   </g>
   <g id="patch_6">
    <path d="M 42.620312 17.798437 
L 600.620312 17.798437 
" style="fill: none; stroke: #000000; stroke-width: 0.8; stroke-linejoin: miter; stroke-linecap: square"/>
   </g>
   <g id="PathCollection_1">
    <defs>
     <path id="mfb8f02bfe8" d="M 0 1.5 
C 0.397805 1.5 0.77937 1.341951 1.06066 1.06066 
C 1.341951 0.77937 1.5 0.397805 1.5 0 
C 1.5 -0.397805 1.341951 -0.77937 1.06066 -1.06066 
C 0.77937 -1.341951 0.397805 -1.5 0 -1.5 
C -0.397805 -1.5 -0.77937 -1.341951 -1.06066 -1.06066 
C -1.341951 -0.77937 -1.5 -0.397805 -1.5 0 
C -1.5 0.397805 -1.341951 0.77937 -1.06066 1.06066 
C -0.77937 1.341951 -0.397805 1.5 0 1.5 
z
" style="stroke: #515151"/>
    </defs>
    <g clip-path="url(#p613f3a806a)">
     <use xlink:href="#mfb8f02bfe8" x="112.370312" y="97.702814" style="fill: #ffffff; stroke: #515151"/>
    </g>
   </g>
   <g id="legend_1">
    <g id="patch_7">
     <path d="M 49.620312 40.476562 
L 90.746875 40.476562 
Q 92.746875 40.476562 92.746875 38.476562 
L 92.746875 24.798437 
Q 92.746875 22.798437 90.746875 22.798437 
L 49.620312 22.798437 
Q 47.620312 22.798437 47.620312 24.798437 
L 47.620312 38.476562 
Q 47.620312 40.476562 49.620312 40.476562 
z
" style="fill: #ffffff; opacity: 0.8; stroke: #cccccc; stroke-linejoin: miter"/>
    </g>
    <g id="patch_8">
     <path d="M 51.620312 34.396875 
L 71.620312 34.396875 
L 71.620312 27.396875 
L 51.620312 27.396875 
z
" style="fill: #e1812c; stroke: #515151; stroke-width: 1.5; stroke-linejoin: miter"/>
    </g>
    <g id="text_14">
     <!-- id -->
     <g transform="translate(79.620312 34.396875)scale(0.1 -0.1)">
      <defs>
       <path id="DejaVuSans-69" d="M 603 3500 
L 1178 3500 
L 1178 0 
L 603 0 
L 603 3500 
z
M 603 4863 
L 1178 4863 
L 1178 4134 
L 603 4134 
L 603 4863 
z
" transform="scale(0.015625)"/>
      </defs>
      <use xlink:href="#DejaVuSans-69"/>
      <use xlink:href="#DejaVuSans-64" x="27.783203"/>
     </g>
    </g>
   </g>
  </g>
 </g>
 <defs>
  <clipPath id="p613f3a806a">
   <rect x="42.620312" y="17.798437" width="558" height="163.08"/>
  </clipPath>
 </defs>
</svg>
