<?xml version="1.0" encoding="utf-8" standalone="no"?>
<!DOCTYPE svg PUBLIC "-//W3C//DTD SVG 1.1//EN"
  "http://www.w3.org/Graphics/SVG/1.1/DTD/svg11.dtd">
<svg xmlns:xlink="http://www.w3.org/1999/xlink" width="617.360937pt" height="194.158125pt" viewBox="0 0 617.360937 194.158125" xmlns="http://www.w3.org/2000/svg" version="1.1">
 <metadata>
  <rdf:RDF xmlns:dc="http://purl.org/dc/elements/1.1/" xmlns:cc="http://creativecommons.org/ns#" xmlns:rdf="http://www.w3.org/1999/02/22-rdf-syntax-ns#">
   <cc:Work>
    <dc:type rdf:resource="http://purl.org/dc/dcmitype/StillImage"/>
    <dc:date>2022-07-08T21:38:01.650547</dc:date>
    <dc:format>image/svg+xml</dc:format>
    <dc:creator>
     <cc:Agent>
      <dc:title>Matplotlib v3.5.1, https://matplotlib.org/</dc:title>
     </cc:Agent>
    </dc:creator>
   </cc:Work>
  </rdf:RDF>
 </metadata>
 <defs>
  <style type="text/css">*{stroke-linejoin: round; stroke-linecap: butt}</style>
 </defs>
 <g id="figure_1">
  <g id="patch_1">
   <path d="M 0 194.158125 
L 617.360937 194.158125 
L 617.360937 0 
L 0 0 
L 0 194.158125 
z
" style="fill: none"/>
  </g>
  <g id="axes_1">
   <g id="patch_2">
    <path d="M 52.160938 170.28 
L 610.160938 170.28 
L 610.160938 7.2 
L 52.160938 7.2 
z
" style="fill: #ffffff"/>
   </g>
   <g id="PolyCollection_1">
    <defs>
     <path id="mc9cc09e910" d="M 121.911163 -67.644344 
L 121.910712 -67.644344 
L 121.90903 -68.283143 
L 121.907898 -68.921942 
L 121.907617 -69.560742 
L 121.908174 -70.199541 
L 121.90662 -70.83834 
L 121.903821 -71.477139 
L 121.900482 -72.115938 
L 121.900016 -72.754737 
L 121.901459 -73.393536 
L 121.901139 -74.032335 
L 121.896639 -74.671134 
L 121.892301 -75.309933 
L 121.882742 -75.948733 
L 121.876203 -76.587532 
L 121.870352 -77.226331 
L 121.85698 -77.86513 
L 121.827746 -78.503929 
L 121.796442 -79.142728 
L 121.762785 -79.781527 
L 121.700338 -80.420326 
L 121.592242 -81.059125 
L 121.476951 -81.697924 
L 121.341032 -82.336724 
L 121.183398 -82.975523 
L 121.00865 -83.614322 
L 120.77207 -84.253121 
L 120.505378 -84.89192 
L 120.124331 -85.530719 
L 119.680154 -86.169518 
L 119.289969 -86.808317 
L 118.751011 -87.447116 
L 118.136298 -88.085915 
L 117.421067 -88.724715 
L 116.396343 -89.363514 
L 115.335395 -90.002313 
L 114.0624 -90.641112 
L 112.584272 -91.279911 
L 111.020387 -91.91871 
L 109.304541 -92.557509 
L 107.587632 -93.196308 
L 105.653917 -93.835107 
L 103.640252 -94.473906 
L 101.203847 -95.112706 
L 98.261289 -95.751505 
L 95.438789 -96.390304 
L 92.537769 -97.029103 
L 89.214387 -97.667902 
L 85.07676 -98.306701 
L 79.550798 -98.9455 
L 72.054785 -99.584299 
L 66.110938 -100.223098 
L 71.979586 -100.861897 
L 78.828148 -101.500697 
L 83.55802 -102.139496 
L 87.444379 -102.778295 
L 90.81041 -103.417094 
L 94.105876 -104.055893 
L 97.311223 -104.694692 
L 100.297381 -105.333491 
L 103.085868 -105.97229 
L 105.546375 -106.611089 
L 107.831954 -107.249888 
L 109.968803 -107.888688 
L 111.628393 -108.527487 
L 113.021304 -109.166286 
L 114.179296 -109.805085 
L 115.358535 -110.443884 
L 116.502607 -111.082683 
L 117.435934 -111.721482 
L 118.136005 -112.360281 
L 118.620219 -112.99908 
L 119.113512 -113.637879 
L 119.591713 -114.276679 
L 120.005812 -114.915478 
L 120.400123 -115.554277 
L 120.714358 -116.193076 
L 120.975871 -116.831875 
L 121.147321 -117.470674 
L 121.281247 -118.109473 
L 121.38209 -118.748272 
L 121.461159 -119.387071 
L 121.520627 -120.02587 
L 121.576264 -120.66467 
L 121.625696 -121.303469 
L 121.70234 -121.942268 
L 121.759604 -122.581067 
L 121.799103 -123.219866 
L 121.828273 -123.858665 
L 121.830388 -124.497464 
L 121.841021 -125.136263 
L 121.864811 -125.775062 
L 121.879767 -126.413861 
L 121.890353 -127.052661 
L 121.893556 -127.69146 
L 121.898524 -128.330259 
L 121.903253 -128.969058 
L 121.901049 -129.607857 
L 121.905872 -130.246656 
L 121.910468 -130.885455 
L 121.911407 -130.885455 
L 121.911407 -130.885455 
L 121.916003 -130.246656 
L 121.920826 -129.607857 
L 121.918622 -128.969058 
L 121.923351 -128.330259 
L 121.928319 -127.69146 
L 121.931522 -127.052661 
L 121.942108 -126.413861 
L 121.957064 -125.775062 
L 121.980854 -125.136263 
L 121.991487 -124.497464 
L 121.993602 -123.858665 
L 122.022772 -123.219866 
L 122.062271 -122.581067 
L 122.119535 -121.942268 
L 122.196179 -121.303469 
L 122.245611 -120.66467 
L 122.301248 -120.02587 
L 122.360716 -119.387071 
L 122.439785 -118.748272 
L 122.540628 -118.109473 
L 122.674554 -117.470674 
L 122.846004 -116.831875 
L 123.107517 -116.193076 
L 123.421752 -115.554277 
L 123.816063 -114.915478 
L 124.230162 -114.276679 
L 124.708363 -113.637879 
L 125.201656 -112.99908 
L 125.68587 -112.360281 
L 126.385941 -111.721482 
L 127.319268 -111.082683 
L 128.46334 -110.443884 
L 129.642579 -109.805085 
L 130.800571 -109.166286 
L 132.193482 -108.527487 
L 133.853072 -107.888688 
L 135.989921 -107.249888 
L 138.2755 -106.611089 
L 140.736007 -105.97229 
L 143.524494 -105.333491 
L 146.510652 -104.694692 
L 149.715999 -104.055893 
L 153.011465 -103.417094 
L 156.377496 -102.778295 
L 160.263855 -102.139496 
L 164.993727 -101.500697 
L 171.842289 -100.861897 
L 177.710938 -100.223098 
L 171.76709 -99.584299 
L 164.271077 -98.9455 
L 158.745115 -98.306701 
L 154.607488 -97.667902 
L 151.284106 -97.029103 
L 148.383086 -96.390304 
L 145.560586 -95.751505 
L 142.618028 -95.112706 
L 140.181623 -94.473906 
L 138.167958 -93.835107 
L 136.234243 -93.196308 
L 134.517334 -92.557509 
L 132.801488 -91.91871 
L 131.237603 -91.279911 
L 129.759475 -90.641112 
L 128.48648 -90.002313 
L 127.425532 -89.363514 
L 126.400808 -88.724715 
L 125.685577 -88.085915 
L 125.070864 -87.447116 
L 124.531906 -86.808317 
L 124.141721 -86.169518 
L 123.697544 -85.530719 
L 123.316497 -84.89192 
L 123.049805 -84.253121 
L 122.813225 -83.614322 
L 122.638477 -82.975523 
L 122.480843 -82.336724 
L 122.344924 -81.697924 
L 122.229633 -81.059125 
L 122.121537 -80.420326 
L 122.05909 -79.781527 
L 122.025433 -79.142728 
L 121.994129 -78.503929 
L 121.964895 -77.86513 
L 121.951523 -77.226331 
L 121.945672 -76.587532 
L 121.939133 -75.948733 
L 121.929574 -75.309933 
L 121.925236 -74.671134 
L 121.920736 -74.032335 
L 121.920416 -73.393536 
L 121.921859 -72.754737 
L 121.921393 -72.115938 
L 121.918054 -71.477139 
L 121.915255 -70.83834 
L 121.913701 -70.199541 
L 121.914258 -69.560742 
L 121.913977 -68.921942 
L 121.912845 -68.283143 
L 121.911163 -67.644344 
z
" style="stroke: #515151; stroke-width: 1.5"/>
    </defs>
    <g clip-path="url(#p12658fafba)">
     <use xlink:href="#mc9cc09e910" x="0" y="194.158125" style="fill: #e1812c; stroke: #515151; stroke-width: 1.5"/>
    </g>
   </g>
   <g id="PolyCollection_2">
    <defs>
     <path id="m0d2c0308b3" d="M 261.411239 -32.39874 
L 261.410636 -32.39874 
L 261.408715 -33.842142 
L 261.41059 -35.285543 
L 261.410936 -36.728945 
L 261.410937 -38.172347 
L 261.410938 -39.615748 
L 261.410938 -41.05915 
L 261.410937 -42.502551 
L 261.410937 -43.945953 
L 261.410686 -45.389355 
L 261.408726 -46.832756 
L 261.409887 -48.276158 
L 261.408871 -49.71956 
L 261.410796 -51.162961 
L 261.410925 -52.606363 
L 261.409056 -54.049765 
L 261.401393 -55.493166 
L 261.401297 -56.936568 
L 261.397533 -58.379969 
L 261.389929 -59.823371 
L 261.391508 -61.266773 
L 261.378697 -62.710174 
L 261.361908 -64.153576 
L 261.353662 -65.596978 
L 261.32828 -67.040379 
L 261.313209 -68.483781 
L 261.27147 -69.927183 
L 261.194349 -71.370584 
L 261.133624 -72.813986 
L 261.076256 -74.257387 
L 260.927864 -75.700789 
L 260.72379 -77.144191 
L 260.533098 -78.587592 
L 260.171401 -80.030994 
L 259.725504 -81.474396 
L 259.240455 -82.917797 
L 258.557062 -84.361199 
L 257.535919 -85.804601 
L 256.183916 -87.248002 
L 254.53597 -88.691404 
L 252.421565 -90.134805 
L 249.827893 -91.578207 
L 246.269015 -93.021609 
L 241.947048 -94.46501 
L 237.080561 -95.908412 
L 232.429651 -97.351814 
L 227.876447 -98.795215 
L 225.886582 -100.238617 
L 227.977387 -101.682019 
L 232.785011 -103.12542 
L 237.699918 -104.568822 
L 242.541095 -106.012223 
L 246.324021 -107.455625 
L 249.677788 -108.899027 
L 252.432383 -110.342428 
L 254.502348 -111.78583 
L 256.308924 -113.229232 
L 257.528408 -114.672633 
L 258.53586 -116.116035 
L 259.32621 -117.559437 
L 259.805555 -119.002838 
L 260.262452 -120.44624 
L 260.536417 -121.889641 
L 260.784281 -123.333043 
L 260.938834 -124.776445 
L 261.020264 -126.219846 
L 261.129019 -127.663248 
L 261.216803 -129.10665 
L 261.276789 -130.550051 
L 261.320451 -131.993453 
L 261.337684 -133.436855 
L 261.35724 -134.880256 
L 261.374602 -136.323658 
L 261.381593 -137.767059 
L 261.39025 -139.210461 
L 261.39516 -140.653863 
L 261.398308 -142.097264 
L 261.402338 -143.540666 
L 261.400694 -144.984068 
L 261.408457 -146.427469 
L 261.409042 -147.870871 
L 261.41085 -149.314273 
L 261.410757 -150.757674 
L 261.408791 -152.201076 
L 261.40966 -153.644477 
L 261.408952 -155.087879 
L 261.410825 -156.531281 
L 261.410937 -157.974682 
L 261.410937 -159.418084 
L 261.410938 -160.861486 
L 261.410937 -162.304887 
L 261.410937 -163.748289 
L 261.410869 -165.191691 
L 261.409168 -166.635092 
L 261.409965 -168.078494 
L 261.410926 -169.521895 
L 261.410936 -170.965297 
L 261.41059 -172.408699 
L 261.408715 -173.8521 
L 261.410636 -175.295502 
L 261.411239 -175.295502 
L 261.411239 -175.295502 
L 261.41316 -173.8521 
L 261.411285 -172.408699 
L 261.410939 -170.965297 
L 261.410949 -169.521895 
L 261.41191 -168.078494 
L 261.412707 -166.635092 
L 261.411006 -165.191691 
L 261.410938 -163.748289 
L 261.410938 -162.304887 
L 261.410938 -160.861486 
L 261.410938 -159.418084 
L 261.410938 -157.974682 
L 261.41105 -156.531281 
L 261.412923 -155.087879 
L 261.412215 -153.644477 
L 261.413084 -152.201076 
L 261.411118 -150.757674 
L 261.411025 -149.314273 
L 261.412833 -147.870871 
L 261.413418 -146.427469 
L 261.421181 -144.984068 
L 261.419537 -143.540666 
L 261.423567 -142.097264 
L 261.426715 -140.653863 
L 261.431625 -139.210461 
L 261.440282 -137.767059 
L 261.447273 -136.323658 
L 261.464635 -134.880256 
L 261.484191 -133.436855 
L 261.501424 -131.993453 
L 261.545086 -130.550051 
L 261.605072 -129.10665 
L 261.692856 -127.663248 
L 261.801611 -126.219846 
L 261.883041 -124.776445 
L 262.037594 -123.333043 
L 262.285458 -121.889641 
L 262.559423 -120.44624 
L 263.01632 -119.002838 
L 263.495665 -117.559437 
L 264.286015 -116.116035 
L 265.293467 -114.672633 
L 266.512951 -113.229232 
L 268.319527 -111.78583 
L 270.389492 -110.342428 
L 273.144087 -108.899027 
L 276.497854 -107.455625 
L 280.28078 -106.012223 
L 285.121957 -104.568822 
L 290.036864 -103.12542 
L 294.844488 -101.682019 
L 296.935293 -100.238617 
L 294.945428 -98.795215 
L 290.392224 -97.351814 
L 285.741314 -95.908412 
L 280.874827 -94.46501 
L 276.55286 -93.021609 
L 272.993982 -91.578207 
L 270.40031 -90.134805 
L 268.285905 -88.691404 
L 266.637959 -87.248002 
L 265.285956 -85.804601 
L 264.264813 -84.361199 
L 263.58142 -82.917797 
L 263.096371 -81.474396 
L 262.650474 -80.030994 
L 262.288777 -78.587592 
L 262.098085 -77.144191 
L 261.894011 -75.700789 
L 261.745619 -74.257387 
L 261.688251 -72.813986 
L 261.627526 -71.370584 
L 261.550405 -69.927183 
L 261.508666 -68.483781 
L 261.493595 -67.040379 
L 261.468213 -65.596978 
L 261.459967 -64.153576 
L 261.443178 -62.710174 
L 261.430367 -61.266773 
L 261.431946 -59.823371 
L 261.424342 -58.379969 
L 261.420578 -56.936568 
L 261.420482 -55.493166 
L 261.412819 -54.049765 
L 261.41095 -52.606363 
L 261.411079 -51.162961 
L 261.413004 -49.71956 
L 261.411988 -48.276158 
L 261.413149 -46.832756 
L 261.411189 -45.389355 
L 261.410938 -43.945953 
L 261.410938 -42.502551 
L 261.410938 -41.05915 
L 261.410938 -39.615748 
L 261.410938 -38.172347 
L 261.410939 -36.728945 
L 261.411285 -35.285543 
L 261.41316 -33.842142 
L 261.411239 -32.39874 
z
" style="stroke: #515151; stroke-width: 1.5"/>
    </defs>
    <g clip-path="url(#p12658fafba)">
     <use xlink:href="#m0d2c0308b3" x="0" y="194.158125" style="fill: #e1812c; stroke: #515151; stroke-width: 1.5"/>
    </g>
   </g>
   <g id="PolyCollection_3">
    <defs>
     <path id="m1cfc3c33e8" d="M 400.911403 -32.562776 
L 400.910472 -32.562776 
L 400.907294 -34.047449 
L 400.903518 -35.532122 
L 400.900332 -37.016795 
L 400.905848 -38.501468 
L 400.91045 -39.986141 
L 400.908551 -41.470814 
L 400.900602 -42.955487 
L 400.893478 -44.44016 
L 400.89785 -45.924833 
L 400.90204 -47.409506 
L 400.90232 -48.894179 
L 400.898095 -50.378851 
L 400.893019 -51.863524 
L 400.888651 -53.348197 
L 400.894947 -54.83287 
L 400.886048 -56.317543 
L 400.871315 -57.802216 
L 400.845432 -59.286889 
L 400.833411 -60.771562 
L 400.823423 -62.256235 
L 400.817609 -63.740908 
L 400.800845 -65.225581 
L 400.715326 -66.710254 
L 400.64437 -68.194927 
L 400.635905 -69.6796 
L 400.597197 -71.164273 
L 400.44018 -72.648946 
L 400.28646 -74.133619 
L 400.097723 -75.618292 
L 399.899054 -77.102964 
L 399.619828 -78.587637 
L 399.265117 -80.07231 
L 398.772386 -81.556983 
L 398.023683 -83.041656 
L 397.110987 -84.526329 
L 395.939518 -86.011002 
L 394.696181 -87.495675 
L 392.877242 -88.980348 
L 390.404173 -90.465021 
L 387.43509 -91.949694 
L 383.972963 -93.434367 
L 380.441897 -94.91904 
L 376.648788 -96.403713 
L 372.942134 -97.888386 
L 370.701627 -99.373059 
L 370.539488 -100.857732 
L 372.338987 -102.342405 
L 375.774867 -103.827077 
L 380.269136 -105.31175 
L 383.97775 -106.796423 
L 387.155467 -108.281096 
L 389.94737 -109.765769 
L 392.454945 -111.250442 
L 394.511203 -112.735115 
L 396.060354 -114.219788 
L 397.149662 -115.704461 
L 398.048516 -117.189134 
L 398.793071 -118.673807 
L 399.128367 -120.15848 
L 399.567042 -121.643153 
L 399.950184 -123.127826 
L 400.180173 -124.612499 
L 400.356808 -126.097172 
L 400.450522 -127.581845 
L 400.530972 -129.066518 
L 400.663059 -130.551191 
L 400.705613 -132.035863 
L 400.721715 -133.520536 
L 400.760508 -135.005209 
L 400.78646 -136.489882 
L 400.812281 -137.974555 
L 400.830736 -139.459228 
L 400.861711 -140.943901 
L 400.870178 -142.428574 
L 400.868659 -143.913247 
L 400.867239 -145.39792 
L 400.875145 -146.882593 
L 400.874479 -148.367266 
L 400.876113 -149.851939 
L 400.895061 -151.336612 
L 400.901263 -152.821285 
L 400.90207 -154.305958 
L 400.905367 -155.790631 
L 400.902214 -157.275304 
L 400.907461 -158.759976 
L 400.90519 -160.244649 
L 400.901867 -161.729322 
L 400.909395 -163.213995 
L 400.910911 -164.698668 
L 400.910937 -166.183341 
L 400.910937 -167.668014 
L 400.910932 -169.152687 
L 400.910543 -170.63736 
L 400.908021 -172.122033 
L 400.908477 -173.606706 
L 400.907771 -175.091379 
L 400.90694 -176.576052 
L 400.907778 -178.060725 
L 400.91048 -179.545398 
L 400.911395 -179.545398 
L 400.911395 -179.545398 
L 400.914097 -178.060725 
L 400.914935 -176.576052 
L 400.914104 -175.091379 
L 400.913398 -173.606706 
L 400.913854 -172.122033 
L 400.911332 -170.63736 
L 400.910943 -169.152687 
L 400.910938 -167.668014 
L 400.910938 -166.183341 
L 400.910964 -164.698668 
L 400.91248 -163.213995 
L 400.920008 -161.729322 
L 400.916685 -160.244649 
L 400.914414 -158.759976 
L 400.919661 -157.275304 
L 400.916508 -155.790631 
L 400.919805 -154.305958 
L 400.920612 -152.821285 
L 400.926814 -151.336612 
L 400.945762 -149.851939 
L 400.947396 -148.367266 
L 400.94673 -146.882593 
L 400.954636 -145.39792 
L 400.953216 -143.913247 
L 400.951697 -142.428574 
L 400.960164 -140.943901 
L 400.991139 -139.459228 
L 401.009594 -137.974555 
L 401.035415 -136.489882 
L 401.061367 -135.005209 
L 401.10016 -133.520536 
L 401.116262 -132.035863 
L 401.158816 -130.551191 
L 401.290903 -129.066518 
L 401.371353 -127.581845 
L 401.465067 -126.097172 
L 401.641702 -124.612499 
L 401.871691 -123.127826 
L 402.254833 -121.643153 
L 402.693508 -120.15848 
L 403.028804 -118.673807 
L 403.773359 -117.189134 
L 404.672213 -115.704461 
L 405.761521 -114.219788 
L 407.310672 -112.735115 
L 409.36693 -111.250442 
L 411.874505 -109.765769 
L 414.666408 -108.281096 
L 417.844125 -106.796423 
L 421.552739 -105.31175 
L 426.047008 -103.827077 
L 429.482888 -102.342405 
L 431.282387 -100.857732 
L 431.120248 -99.373059 
L 428.879741 -97.888386 
L 425.173087 -96.403713 
L 421.379978 -94.91904 
L 417.848912 -93.434367 
L 414.386785 -91.949694 
L 411.417702 -90.465021 
L 408.944633 -88.980348 
L 407.125694 -87.495675 
L 405.882357 -86.011002 
L 404.710888 -84.526329 
L 403.798192 -83.041656 
L 403.049489 -81.556983 
L 402.556758 -80.07231 
L 402.202047 -78.587637 
L 401.922821 -77.102964 
L 401.724152 -75.618292 
L 401.535415 -74.133619 
L 401.381695 -72.648946 
L 401.224678 -71.164273 
L 401.18597 -69.6796 
L 401.177505 -68.194927 
L 401.106549 -66.710254 
L 401.02103 -65.225581 
L 401.004266 -63.740908 
L 400.998452 -62.256235 
L 400.988464 -60.771562 
L 400.976443 -59.286889 
L 400.95056 -57.802216 
L 400.935827 -56.317543 
L 400.926928 -54.83287 
L 400.933224 -53.348197 
L 400.928856 -51.863524 
L 400.92378 -50.378851 
L 400.919555 -48.894179 
L 400.919835 -47.409506 
L 400.924025 -45.924833 
L 400.928397 -44.44016 
L 400.921273 -42.955487 
L 400.913324 -41.470814 
L 400.911425 -39.986141 
L 400.916027 -38.501468 
L 400.921543 -37.016795 
L 400.918357 -35.532122 
L 400.914581 -34.047449 
L 400.911403 -32.562776 
z
" style="stroke: #515151; stroke-width: 1.5"/>
    </defs>
    <g clip-path="url(#p12658fafba)">
     <use xlink:href="#m1cfc3c33e8" x="0" y="194.158125" style="fill: #e1812c; stroke: #515151; stroke-width: 1.5"/>
    </g>
   </g>
   <g id="PolyCollection_4">
    <defs>
     <path id="m68cf6cb56f" d="M 540.411927 -31.290852 
L 540.409948 -31.290852 
L 540.405274 -32.779845 
L 540.401288 -34.268838 
L 540.406038 -35.757831 
L 540.410166 -37.246824 
L 540.410249 -38.735818 
L 540.406266 -40.224811 
L 540.397439 -41.713804 
L 540.392257 -43.202797 
L 540.390593 -44.69179 
L 540.385157 -46.180783 
L 540.385776 -47.669776 
L 540.385026 -49.158769 
L 540.375812 -50.647762 
L 540.356056 -52.136755 
L 540.33453 -53.625748 
L 540.330691 -55.114741 
L 540.307549 -56.603734 
L 540.276394 -58.092727 
L 540.282316 -59.58172 
L 540.289408 -61.070713 
L 540.256336 -62.559706 
L 540.192704 -64.048699 
L 540.102967 -65.537692 
L 539.99075 -67.026685 
L 539.884992 -68.515679 
L 539.785544 -70.004672 
L 539.65363 -71.493665 
L 539.433593 -72.982658 
L 539.220883 -74.471651 
L 538.936414 -75.960644 
L 538.611424 -77.449637 
L 538.198716 -78.93863 
L 537.660681 -80.427623 
L 537.006914 -81.916616 
L 536.114905 -83.405609 
L 534.925323 -84.894602 
L 533.587961 -86.383595 
L 532.04671 -87.872588 
L 530.225069 -89.361581 
L 528.201294 -90.850574 
L 526.030669 -92.339567 
L 523.500358 -93.82856 
L 521.011563 -95.317553 
L 518.839534 -96.806546 
L 516.778596 -98.29554 
L 515.625972 -99.784533 
L 515.899244 -101.273526 
L 517.188527 -102.762519 
L 519.308917 -104.251512 
L 521.702255 -105.740505 
L 524.303416 -107.229498 
L 527.174892 -108.718491 
L 529.578764 -110.207484 
L 531.396915 -111.696477 
L 532.989237 -113.18547 
L 534.33991 -114.674463 
L 535.414877 -116.163456 
L 536.232008 -117.652449 
L 537.068677 -119.141442 
L 537.903853 -120.630435 
L 538.475142 -122.119428 
L 538.812965 -123.608421 
L 539.139389 -125.097414 
L 539.434542 -126.586408 
L 539.617164 -128.075401 
L 539.732644 -129.564394 
L 539.845825 -131.053387 
L 539.972592 -132.54238 
L 540.085356 -134.031373 
L 540.142378 -135.520366 
L 540.184443 -137.009359 
L 540.241956 -138.498352 
L 540.289613 -139.987345 
L 540.316443 -141.476338 
L 540.339017 -142.965331 
L 540.353895 -144.454324 
L 540.368481 -145.943317 
L 540.380484 -147.43231 
L 540.38674 -148.921303 
L 540.385547 -150.410296 
L 540.375448 -151.899289 
L 540.375682 -153.388282 
L 540.390293 -154.877275 
L 540.396351 -156.366269 
L 540.39775 -157.855262 
L 540.405439 -159.344255 
L 540.409424 -160.833248 
L 540.405976 -162.322241 
L 540.401193 -163.811234 
L 540.405324 -165.300227 
L 540.409996 -166.78922 
L 540.410891 -168.278213 
L 540.410908 -169.767206 
L 540.410383 -171.256199 
L 540.407666 -172.745192 
L 540.404102 -174.234185 
L 540.403927 -175.723178 
L 540.407326 -177.212171 
L 540.410263 -178.701164 
L 540.411612 -178.701164 
L 540.411612 -178.701164 
L 540.414549 -177.212171 
L 540.417948 -175.723178 
L 540.417773 -174.234185 
L 540.414209 -172.745192 
L 540.411492 -171.256199 
L 540.410967 -169.767206 
L 540.410984 -168.278213 
L 540.411879 -166.78922 
L 540.416551 -165.300227 
L 540.420682 -163.811234 
L 540.415899 -162.322241 
L 540.412451 -160.833248 
L 540.416436 -159.344255 
L 540.424125 -157.855262 
L 540.425524 -156.366269 
L 540.431582 -154.877275 
L 540.446193 -153.388282 
L 540.446427 -151.899289 
L 540.436328 -150.410296 
L 540.435135 -148.921303 
L 540.441391 -147.43231 
L 540.453394 -145.943317 
L 540.46798 -144.454324 
L 540.482858 -142.965331 
L 540.505432 -141.476338 
L 540.532262 -139.987345 
L 540.579919 -138.498352 
L 540.637432 -137.009359 
L 540.679497 -135.520366 
L 540.736519 -134.031373 
L 540.849283 -132.54238 
L 540.97605 -131.053387 
L 541.089231 -129.564394 
L 541.204711 -128.075401 
L 541.387333 -126.586408 
L 541.682486 -125.097414 
L 542.00891 -123.608421 
L 542.346733 -122.119428 
L 542.918022 -120.630435 
L 543.753198 -119.141442 
L 544.589867 -117.652449 
L 545.406998 -116.163456 
L 546.481965 -114.674463 
L 547.832638 -113.18547 
L 549.42496 -111.696477 
L 551.243111 -110.207484 
L 553.646983 -108.718491 
L 556.518459 -107.229498 
L 559.11962 -105.740505 
L 561.512958 -104.251512 
L 563.633348 -102.762519 
L 564.922631 -101.273526 
L 565.195903 -99.784533 
L 564.043279 -98.29554 
L 561.982341 -96.806546 
L 559.810312 -95.317553 
L 557.321517 -93.82856 
L 554.791206 -92.339567 
L 552.620581 -90.850574 
L 550.596806 -89.361581 
L 548.775165 -87.872588 
L 547.233914 -86.383595 
L 545.896552 -84.894602 
L 544.70697 -83.405609 
L 543.814961 -81.916616 
L 543.161194 -80.427623 
L 542.623159 -78.93863 
L 542.210451 -77.449637 
L 541.885461 -75.960644 
L 541.600992 -74.471651 
L 541.388282 -72.982658 
L 541.168245 -71.493665 
L 541.036331 -70.004672 
L 540.936883 -68.515679 
L 540.831125 -67.026685 
L 540.718908 -65.537692 
L 540.629171 -64.048699 
L 540.565539 -62.559706 
L 540.532467 -61.070713 
L 540.539559 -59.58172 
L 540.545481 -58.092727 
L 540.514326 -56.603734 
L 540.491184 -55.114741 
L 540.487345 -53.625748 
L 540.465819 -52.136755 
L 540.446063 -50.647762 
L 540.436849 -49.158769 
L 540.436099 -47.669776 
L 540.436718 -46.180783 
L 540.431282 -44.69179 
L 540.429618 -43.202797 
L 540.424436 -41.713804 
L 540.415609 -40.224811 
L 540.411626 -38.735818 
L 540.411709 -37.246824 
L 540.415837 -35.757831 
L 540.420587 -34.268838 
L 540.416601 -32.779845 
L 540.411927 -31.290852 
z
" style="stroke: #515151; stroke-width: 1.5"/>
    </defs>
    <g clip-path="url(#p12658fafba)">
     <use xlink:href="#m68cf6cb56f" x="0" y="194.158125" style="fill: #e1812c; stroke: #515151; stroke-width: 1.5"/>
    </g>
   </g>
   <g id="matplotlib.axis_1">
    <g id="xtick_1">
     <g id="line2d_1">
      <defs>
       <path id="m1f5a95e6db" d="M 0 0 
L 0 3.5 
" style="stroke: #000000; stroke-width: 0.8"/>
      </defs>
      <g>
       <use xlink:href="#m1f5a95e6db" x="121.910938" y="170.28" style="stroke: #000000; stroke-width: 0.8"/>
      </g>
     </g>
     <g id="text_1">
      <!-- (1, dense) -->
      <g transform="translate(96.549219 184.878438)scale(0.1 -0.1)">
       <defs>
        <path id="DejaVuSans-28" d="M 1984 4856 
Q 1566 4138 1362 3434 
Q 1159 2731 1159 2009 
Q 1159 1288 1364 580 
Q 1569 -128 1984 -844 
L 1484 -844 
Q 1016 -109 783 600 
Q 550 1309 550 2009 
Q 550 2706 781 3412 
Q 1013 4119 1484 4856 
L 1984 4856 
z
" transform="scale(0.015625)"/>
        <path id="DejaVuSans-31" d="M 794 531 
L 1825 531 
L 1825 4091 
L 703 3866 
L 703 4441 
L 1819 4666 
L 2450 4666 
L 2450 531 
L 3481 531 
L 3481 0 
L 794 0 
L 794 531 
z
" transform="scale(0.015625)"/>
        <path id="DejaVuSans-2c" d="M 750 794 
L 1409 794 
L 1409 256 
L 897 -744 
L 494 -744 
L 750 256 
L 750 794 
z
" transform="scale(0.015625)"/>
        <path id="DejaVuSans-20" transform="scale(0.015625)"/>
        <path id="DejaVuSans-64" d="M 2906 2969 
L 2906 4863 
L 3481 4863 
L 3481 0 
L 2906 0 
L 2906 525 
Q 2725 213 2448 61 
Q 2172 -91 1784 -91 
Q 1150 -91 751 415 
Q 353 922 353 1747 
Q 353 2572 751 3078 
Q 1150 3584 1784 3584 
Q 2172 3584 2448 3432 
Q 2725 3281 2906 2969 
z
M 947 1747 
Q 947 1113 1208 752 
Q 1469 391 1925 391 
Q 2381 391 2643 752 
Q 2906 1113 2906 1747 
Q 2906 2381 2643 2742 
Q 2381 3103 1925 3103 
Q 1469 3103 1208 2742 
Q 947 2381 947 1747 
z
" transform="scale(0.015625)"/>
        <path id="DejaVuSans-65" d="M 3597 1894 
L 3597 1613 
L 953 1613 
Q 991 1019 1311 708 
Q 1631 397 2203 397 
Q 2534 397 2845 478 
Q 3156 559 3463 722 
L 3463 178 
Q 3153 47 2828 -22 
Q 2503 -91 2169 -91 
Q 1331 -91 842 396 
Q 353 884 353 1716 
Q 353 2575 817 3079 
Q 1281 3584 2069 3584 
Q 2775 3584 3186 3129 
Q 3597 2675 3597 1894 
z
M 3022 2063 
Q 3016 2534 2758 2815 
Q 2500 3097 2075 3097 
Q 1594 3097 1305 2825 
Q 1016 2553 972 2059 
L 3022 2063 
z
" transform="scale(0.015625)"/>
        <path id="DejaVuSans-6e" d="M 3513 2113 
L 3513 0 
L 2938 0 
L 2938 2094 
Q 2938 2591 2744 2837 
Q 2550 3084 2163 3084 
Q 1697 3084 1428 2787 
Q 1159 2491 1159 1978 
L 1159 0 
L 581 0 
L 581 3500 
L 1159 3500 
L 1159 2956 
Q 1366 3272 1645 3428 
Q 1925 3584 2291 3584 
Q 2894 3584 3203 3211 
Q 3513 2838 3513 2113 
z
" transform="scale(0.015625)"/>
        <path id="DejaVuSans-73" d="M 2834 3397 
L 2834 2853 
Q 2591 2978 2328 3040 
Q 2066 3103 1784 3103 
Q 1356 3103 1142 2972 
Q 928 2841 928 2578 
Q 928 2378 1081 2264 
Q 1234 2150 1697 2047 
L 1894 2003 
Q 2506 1872 2764 1633 
Q 3022 1394 3022 966 
Q 3022 478 2636 193 
Q 2250 -91 1575 -91 
Q 1294 -91 989 -36 
Q 684 19 347 128 
L 347 722 
Q 666 556 975 473 
Q 1284 391 1588 391 
Q 1994 391 2212 530 
Q 2431 669 2431 922 
Q 2431 1156 2273 1281 
Q 2116 1406 1581 1522 
L 1381 1569 
Q 847 1681 609 1914 
Q 372 2147 372 2553 
Q 372 3047 722 3315 
Q 1072 3584 1716 3584 
Q 2034 3584 2315 3537 
Q 2597 3491 2834 3397 
z
" transform="scale(0.015625)"/>
        <path id="DejaVuSans-29" d="M 513 4856 
L 1013 4856 
Q 1481 4119 1714 3412 
Q 1947 2706 1947 2009 
Q 1947 1309 1714 600 
Q 1481 -109 1013 -844 
L 513 -844 
Q 928 -128 1133 580 
Q 1338 1288 1338 2009 
Q 1338 2731 1133 3434 
Q 928 4138 513 4856 
z
" transform="scale(0.015625)"/>
       </defs>
       <use xlink:href="#DejaVuSans-28"/>
       <use xlink:href="#DejaVuSans-31" x="39.013672"/>
       <use xlink:href="#DejaVuSans-2c" x="102.636719"/>
       <use xlink:href="#DejaVuSans-20" x="134.423828"/>
       <use xlink:href="#DejaVuSans-64" x="166.210938"/>
       <use xlink:href="#DejaVuSans-65" x="229.6875"/>
       <use xlink:href="#DejaVuSans-6e" x="291.210938"/>
       <use xlink:href="#DejaVuSans-73" x="354.589844"/>
       <use xlink:href="#DejaVuSans-65" x="406.689453"/>
       <use xlink:href="#DejaVuSans-29" x="468.212891"/>
      </g>
     </g>
    </g>
    <g id="xtick_2">
     <g id="line2d_2">
      <g>
       <use xlink:href="#m1f5a95e6db" x="261.410938" y="170.28" style="stroke: #000000; stroke-width: 0.8"/>
      </g>
     </g>
     <g id="text_2">
      <!-- (2, dense) -->
      <g transform="translate(236.049219 184.878438)scale(0.1 -0.1)">
       <defs>
        <path id="DejaVuSans-32" d="M 1228 531 
L 3431 531 
L 3431 0 
L 469 0 
L 469 531 
Q 828 903 1448 1529 
Q 2069 2156 2228 2338 
Q 2531 2678 2651 2914 
Q 2772 3150 2772 3378 
Q 2772 3750 2511 3984 
Q 2250 4219 1831 4219 
Q 1534 4219 1204 4116 
Q 875 4013 500 3803 
L 500 4441 
Q 881 4594 1212 4672 
Q 1544 4750 1819 4750 
Q 2544 4750 2975 4387 
Q 3406 4025 3406 3419 
Q 3406 3131 3298 2873 
Q 3191 2616 2906 2266 
Q 2828 2175 2409 1742 
Q 1991 1309 1228 531 
z
" transform="scale(0.015625)"/>
       </defs>
       <use xlink:href="#DejaVuSans-28"/>
       <use xlink:href="#DejaVuSans-32" x="39.013672"/>
       <use xlink:href="#DejaVuSans-2c" x="102.636719"/>
       <use xlink:href="#DejaVuSans-20" x="134.423828"/>
       <use xlink:href="#DejaVuSans-64" x="166.210938"/>
       <use xlink:href="#DejaVuSans-65" x="229.6875"/>
       <use xlink:href="#DejaVuSans-6e" x="291.210938"/>
       <use xlink:href="#DejaVuSans-73" x="354.589844"/>
       <use xlink:href="#DejaVuSans-65" x="406.689453"/>
       <use xlink:href="#DejaVuSans-29" x="468.212891"/>
      </g>
     </g>
    </g>
    <g id="xtick_3">
     <g id="line2d_3">
      <g>
       <use xlink:href="#m1f5a95e6db" x="400.910938" y="170.28" style="stroke: #000000; stroke-width: 0.8"/>
      </g>
     </g>
     <g id="text_3">
      <!-- (3, dense) -->
      <g transform="translate(375.549219 184.878438)scale(0.1 -0.1)">
       <defs>
        <path id="DejaVuSans-33" d="M 2597 2516 
Q 3050 2419 3304 2112 
Q 3559 1806 3559 1356 
Q 3559 666 3084 287 
Q 2609 -91 1734 -91 
Q 1441 -91 1130 -33 
Q 819 25 488 141 
L 488 750 
Q 750 597 1062 519 
Q 1375 441 1716 441 
Q 2309 441 2620 675 
Q 2931 909 2931 1356 
Q 2931 1769 2642 2001 
Q 2353 2234 1838 2234 
L 1294 2234 
L 1294 2753 
L 1863 2753 
Q 2328 2753 2575 2939 
Q 2822 3125 2822 3475 
Q 2822 3834 2567 4026 
Q 2313 4219 1838 4219 
Q 1578 4219 1281 4162 
Q 984 4106 628 3988 
L 628 4550 
Q 988 4650 1302 4700 
Q 1616 4750 1894 4750 
Q 2613 4750 3031 4423 
Q 3450 4097 3450 3541 
Q 3450 3153 3228 2886 
Q 3006 2619 2597 2516 
z
" transform="scale(0.015625)"/>
       </defs>
       <use xlink:href="#DejaVuSans-28"/>
       <use xlink:href="#DejaVuSans-33" x="39.013672"/>
       <use xlink:href="#DejaVuSans-2c" x="102.636719"/>
       <use xlink:href="#DejaVuSans-20" x="134.423828"/>
       <use xlink:href="#DejaVuSans-64" x="166.210938"/>
       <use xlink:href="#DejaVuSans-65" x="229.6875"/>
       <use xlink:href="#DejaVuSans-6e" x="291.210938"/>
       <use xlink:href="#DejaVuSans-73" x="354.589844"/>
       <use xlink:href="#DejaVuSans-65" x="406.689453"/>
       <use xlink:href="#DejaVuSans-29" x="468.212891"/>
      </g>
     </g>
    </g>
    <g id="xtick_4">
     <g id="line2d_4">
      <g>
       <use xlink:href="#m1f5a95e6db" x="540.410938" y="170.28" style="stroke: #000000; stroke-width: 0.8"/>
      </g>
     </g>
     <g id="text_4">
      <!-- (4, dense) -->
      <g transform="translate(515.049219 184.878438)scale(0.1 -0.1)">
       <defs>
        <path id="DejaVuSans-34" d="M 2419 4116 
L 825 1625 
L 2419 1625 
L 2419 4116 
z
M 2253 4666 
L 3047 4666 
L 3047 1625 
L 3713 1625 
L 3713 1100 
L 3047 1100 
L 3047 0 
L 2419 0 
L 2419 1100 
L 313 1100 
L 313 1709 
L 2253 4666 
z
" transform="scale(0.015625)"/>
       </defs>
       <use xlink:href="#DejaVuSans-28"/>
       <use xlink:href="#DejaVuSans-34" x="39.013672"/>
       <use xlink:href="#DejaVuSans-2c" x="102.636719"/>
       <use xlink:href="#DejaVuSans-20" x="134.423828"/>
       <use xlink:href="#DejaVuSans-64" x="166.210938"/>
       <use xlink:href="#DejaVuSans-65" x="229.6875"/>
       <use xlink:href="#DejaVuSans-6e" x="291.210938"/>
       <use xlink:href="#DejaVuSans-73" x="354.589844"/>
       <use xlink:href="#DejaVuSans-65" x="406.689453"/>
       <use xlink:href="#DejaVuSans-29" x="468.212891"/>
      </g>
     </g>
    </g>
   </g>
   <g id="matplotlib.axis_2">
    <g id="ytick_1">
     <g id="line2d_5">
      <defs>
       <path id="m591be8c86c" d="M 0 0 
L -3.5 0 
" style="stroke: #000000; stroke-width: 0.8"/>
      </defs>
      <g>
       <use xlink:href="#m591be8c86c" x="52.160938" y="153.897892" style="stroke: #000000; stroke-width: 0.8"/>
      </g>
     </g>
     <g id="text_5">
      <!-- −0.2 -->
      <g transform="translate(20.878125 157.697111)scale(0.1 -0.1)">
       <defs>
        <path id="DejaVuSans-2212" d="M 678 2272 
L 4684 2272 
L 4684 1741 
L 678 1741 
L 678 2272 
z
" transform="scale(0.015625)"/>
        <path id="DejaVuSans-30" d="M 2034 4250 
Q 1547 4250 1301 3770 
Q 1056 3291 1056 2328 
Q 1056 1369 1301 889 
Q 1547 409 2034 409 
Q 2525 409 2770 889 
Q 3016 1369 3016 2328 
Q 3016 3291 2770 3770 
Q 2525 4250 2034 4250 
z
M 2034 4750 
Q 2819 4750 3233 4129 
Q 3647 3509 3647 2328 
Q 3647 1150 3233 529 
Q 2819 -91 2034 -91 
Q 1250 -91 836 529 
Q 422 1150 422 2328 
Q 422 3509 836 4129 
Q 1250 4750 2034 4750 
z
" transform="scale(0.015625)"/>
        <path id="DejaVuSans-2e" d="M 684 794 
L 1344 794 
L 1344 0 
L 684 0 
L 684 794 
z
" transform="scale(0.015625)"/>
       </defs>
       <use xlink:href="#DejaVuSans-2212"/>
       <use xlink:href="#DejaVuSans-30" x="83.789062"/>
       <use xlink:href="#DejaVuSans-2e" x="147.412109"/>
       <use xlink:href="#DejaVuSans-32" x="179.199219"/>
      </g>
     </g>
    </g>
    <g id="ytick_2">
     <g id="line2d_6">
      <g>
       <use xlink:href="#m591be8c86c" x="52.160938" y="123.921425" style="stroke: #000000; stroke-width: 0.8"/>
      </g>
     </g>
     <g id="text_6">
      <!-- −0.1 -->
      <g transform="translate(20.878125 127.720644)scale(0.1 -0.1)">
       <use xlink:href="#DejaVuSans-2212"/>
       <use xlink:href="#DejaVuSans-30" x="83.789062"/>
       <use xlink:href="#DejaVuSans-2e" x="147.412109"/>
       <use xlink:href="#DejaVuSans-31" x="179.199219"/>
      </g>
     </g>
    </g>
    <g id="ytick_3">
     <g id="line2d_7">
      <g>
       <use xlink:href="#m591be8c86c" x="52.160938" y="93.944958" style="stroke: #000000; stroke-width: 0.8"/>
      </g>
     </g>
     <g id="text_7">
      <!-- 0.0 -->
      <g transform="translate(29.257813 97.744177)scale(0.1 -0.1)">
       <use xlink:href="#DejaVuSans-30"/>
       <use xlink:href="#DejaVuSans-2e" x="63.623047"/>
       <use xlink:href="#DejaVuSans-30" x="95.410156"/>
      </g>
     </g>
    </g>
    <g id="ytick_4">
     <g id="line2d_8">
      <g>
       <use xlink:href="#m591be8c86c" x="52.160938" y="63.968492" style="stroke: #000000; stroke-width: 0.8"/>
      </g>
     </g>
     <g id="text_8">
      <!-- 0.1 -->
      <g transform="translate(29.257813 67.76771)scale(0.1 -0.1)">
       <use xlink:href="#DejaVuSans-30"/>
       <use xlink:href="#DejaVuSans-2e" x="63.623047"/>
       <use xlink:href="#DejaVuSans-31" x="95.410156"/>
      </g>
     </g>
    </g>
    <g id="ytick_5">
     <g id="line2d_9">
      <g>
       <use xlink:href="#m591be8c86c" x="52.160938" y="33.992025" style="stroke: #000000; stroke-width: 0.8"/>
      </g>
     </g>
     <g id="text_9">
      <!-- 0.2 -->
      <g transform="translate(29.257813 37.791244)scale(0.1 -0.1)">
       <use xlink:href="#DejaVuSans-30"/>
       <use xlink:href="#DejaVuSans-2e" x="63.623047"/>
       <use xlink:href="#DejaVuSans-32" x="95.410156"/>
      </g>
     </g>
    </g>
    <g id="text_10">
     <!-- ${\nabla}_w L$ -->
     <g transform="translate(14.798438 97.94)rotate(-90)scale(0.1 -0.1)">
      <defs>
       <path id="DejaVuSans-2207" d="M 2138 659 
L 3444 4047 
L 831 4047 
L 2138 659 
z
M 1791 0 
L -19 4603 
L 4300 4603 
L 2491 0 
L 1791 0 
z
" transform="scale(0.015625)"/>
       <path id="DejaVuSans-Oblique-77" d="M 544 3500 
L 1113 3500 
L 1259 684 
L 2566 3500 
L 3231 3500 
L 3425 684 
L 4666 3500 
L 5241 3500 
L 3641 0 
L 2969 0 
L 2797 2900 
L 1459 0 
L 781 0 
L 544 3500 
z
" transform="scale(0.015625)"/>
       <path id="DejaVuSans-Oblique-4c" d="M 1075 4666 
L 1709 4666 
L 909 525 
L 3181 525 
L 3078 0 
L 172 0 
L 1075 4666 
z
" transform="scale(0.015625)"/>
      </defs>
      <use xlink:href="#DejaVuSans-2207" transform="translate(0 0.09375)"/>
      <use xlink:href="#DejaVuSans-Oblique-77" transform="translate(67.851562 -16.3125)scale(0.7)"/>
      <use xlink:href="#DejaVuSans-Oblique-4c" transform="translate(127.836914 0.09375)"/>
     </g>
    </g>
   </g>
   <g id="line2d_10">
    <path d="M 121.910938 106.873874 
L 121.910938 80.897927 
" clip-path="url(#p12658fafba)" style="fill: none; stroke: #515151; stroke-width: 1.5; stroke-linecap: square"/>
   </g>
   <g id="line2d_11">
    <path d="M 121.910938 97.133143 
L 121.910938 90.639026 
" clip-path="url(#p12658fafba)" style="fill: none; stroke: #515151; stroke-width: 4.5; stroke-linecap: square"/>
   </g>
   <g id="line2d_12">
    <path d="M 261.410938 111.275217 
L 261.410938 76.627623 
" clip-path="url(#p12658fafba)" style="fill: none; stroke: #515151; stroke-width: 1.5; stroke-linecap: square"/>
   </g>
   <g id="line2d_13">
    <path d="M 261.410938 98.284177 
L 261.410938 89.62142 
" clip-path="url(#p12658fafba)" style="fill: none; stroke: #515151; stroke-width: 4.5; stroke-linecap: square"/>
   </g>
   <g id="line2d_14">
    <path d="M 400.910938 113.564399 
L 400.910938 74.44826 
" clip-path="url(#p12658fafba)" style="fill: none; stroke: #515151; stroke-width: 1.5; stroke-linecap: square"/>
   </g>
   <g id="line2d_15">
    <path d="M 400.910938 98.896156 
L 400.910938 89.11499 
" clip-path="url(#p12658fafba)" style="fill: none; stroke: #515151; stroke-width: 4.5; stroke-linecap: square"/>
   </g>
   <g id="line2d_16">
    <path d="M 540.410938 118.072726 
L 540.410938 69.892807 
" clip-path="url(#p12658fafba)" style="fill: none; stroke: #515151; stroke-width: 1.5; stroke-linecap: square"/>
   </g>
   <g id="line2d_17">
    <path d="M 540.410938 100.005177 
L 540.410938 87.956825 
" clip-path="url(#p12658fafba)" style="fill: none; stroke: #515151; stroke-width: 4.5; stroke-linecap: square"/>
   </g>
   <g id="patch_3">
    <path d="M 52.160938 170.28 
L 52.160938 7.2 
" style="fill: none; stroke: #000000; stroke-width: 0.8; stroke-linejoin: miter; stroke-linecap: square"/>
   </g>
   <g id="patch_4">
    <path d="M 610.160938 170.28 
L 610.160938 7.2 
" style="fill: none; stroke: #000000; stroke-width: 0.8; stroke-linejoin: miter; stroke-linecap: square"/>
   </g>
   <g id="patch_5">
    <path d="M 52.160938 170.28 
L 610.160938 170.28 
" style="fill: none; stroke: #000000; stroke-width: 0.8; stroke-linejoin: miter; stroke-linecap: square"/>
   </g>
   <g id="patch_6">
    <path d="M 52.160938 7.2 
L 610.160938 7.2 
" style="fill: none; stroke: #000000; stroke-width: 0.8; stroke-linejoin: miter; stroke-linecap: square"/>
   </g>
   <g id="PathCollection_1">
    <defs>
     <path id="m832bfa9ce0" d="M 0 1.5 
C 0.397805 1.5 0.77937 1.341951 1.06066 1.06066 
C 1.341951 0.77937 1.5 0.397805 1.5 0 
C 1.5 -0.397805 1.341951 -0.77937 1.06066 -1.06066 
C 0.77937 -1.341951 0.397805 -1.5 0 -1.5 
C -0.397805 -1.5 -0.77937 -1.341951 -1.06066 -1.06066 
C -1.341951 -0.77937 -1.5 -0.397805 -1.5 0 
C -1.5 0.397805 -1.341951 0.77937 -1.06066 1.06066 
C -0.77937 1.341951 -0.397805 1.5 0 1.5 
z
" style="stroke: #515151"/>
    </defs>
    <g clip-path="url(#p12658fafba)">
     <use xlink:href="#m832bfa9ce0" x="121.910938" y="93.892699" style="fill: #ffffff; stroke: #515151"/>
    </g>
   </g>
   <g id="PathCollection_2">
    <g clip-path="url(#p12658fafba)">
     <use xlink:href="#m832bfa9ce0" x="261.410938" y="93.960059" style="fill: #ffffff; stroke: #515151"/>
    </g>
   </g>
   <g id="PathCollection_3">
    <g clip-path="url(#p12658fafba)">
     <use xlink:href="#m832bfa9ce0" x="400.910938" y="93.96968" style="fill: #ffffff; stroke: #515151"/>
    </g>
   </g>
   <g id="PathCollection_4">
    <g clip-path="url(#p12658fafba)">
     <use xlink:href="#m832bfa9ce0" x="540.410938" y="93.941175" style="fill: #ffffff; stroke: #515151"/>
    </g>
   </g>
   <g id="legend_1">
    <g id="patch_7">
     <path d="M 59.160938 29.878125 
L 100.2875 29.878125 
Q 102.2875 29.878125 102.2875 27.878125 
L 102.2875 14.2 
Q 102.2875 12.2 100.2875 12.2 
L 59.160938 12.2 
Q 57.160938 12.2 57.160938 14.2 
L 57.160938 27.878125 
Q 57.160938 29.878125 59.160938 29.878125 
z
" style="fill: #ffffff; opacity: 0.8; stroke: #cccccc; stroke-linejoin: miter"/>
    </g>
    <g id="patch_8">
     <path d="M 61.160938 23.798438 
L 81.160938 23.798438 
L 81.160938 16.798438 
L 61.160938 16.798438 
z
" style="fill: #e1812c; stroke: #515151; stroke-width: 1.5; stroke-linejoin: miter"/>
    </g>
    <g id="text_11">
     <!-- id -->
     <g transform="translate(89.160938 23.798438)scale(0.1 -0.1)">
      <defs>
       <path id="DejaVuSans-69" d="M 603 3500 
L 1178 3500 
L 1178 0 
L 603 0 
L 603 3500 
z
M 603 4863 
L 1178 4863 
L 1178 4134 
L 603 4134 
L 603 4863 
z
" transform="scale(0.015625)"/>
      </defs>
      <use xlink:href="#DejaVuSans-69"/>
      <use xlink:href="#DejaVuSans-64" x="27.783203"/>
     </g>
    </g>
   </g>
  </g>
 </g>
 <defs>
  <clipPath id="p12658fafba">
   <rect x="52.160938" y="7.2" width="558" height="163.08"/>
  </clipPath>
 </defs>
</svg>
