<?xml version="1.0" encoding="utf-8" standalone="no"?>
<!DOCTYPE svg PUBLIC "-//W3C//DTD SVG 1.1//EN"
  "http://www.w3.org/Graphics/SVG/1.1/DTD/svg11.dtd">
<svg xmlns:xlink="http://www.w3.org/1999/xlink" width="630.085938pt" height="197.585635pt" viewBox="0 0 630.085938 197.585635" xmlns="http://www.w3.org/2000/svg" version="1.1">
 <metadata>
  <rdf:RDF xmlns:dc="http://purl.org/dc/elements/1.1/" xmlns:cc="http://creativecommons.org/ns#" xmlns:rdf="http://www.w3.org/1999/02/22-rdf-syntax-ns#">
   <cc:Work>
    <dc:type rdf:resource="http://purl.org/dc/dcmitype/StillImage"/>
    <dc:date>2022-07-08T21:38:13.160423</dc:date>
    <dc:format>image/svg+xml</dc:format>
    <dc:creator>
     <cc:Agent>
      <dc:title>Matplotlib v3.5.1, https://matplotlib.org/</dc:title>
     </cc:Agent>
    </dc:creator>
   </cc:Work>
  </rdf:RDF>
 </metadata>
 <defs>
  <style type="text/css">*{stroke-linejoin: round; stroke-linecap: butt}</style>
 </defs>
 <g id="figure_1">
  <g id="patch_1">
   <path d="M 0 197.585635 
L 630.085938 197.585635 
L 630.085938 0 
L 0 0 
L 0 197.585635 
z
" style="fill: none"/>
  </g>
  <g id="axes_1">
   <g id="patch_2">
    <path d="M 64.885938 173.70751 
L 622.885937 173.70751 
L 622.885937 10.62751 
L 64.885938 10.62751 
z
" style="fill: #ffffff"/>
   </g>
   <g id="PolyCollection_1">
    <defs>
     <path id="m328dbd4ff0" d="M 134.636161 -73.457528 
L 134.635714 -73.457528 
L 134.633698 -73.929242 
L 134.631448 -74.400955 
L 134.631719 -74.872669 
L 134.632266 -75.344382 
L 134.629576 -75.816096 
L 134.6281 -76.28781 
L 134.629639 -76.759523 
L 134.629708 -77.231237 
L 134.62868 -77.70295 
L 134.625687 -78.174664 
L 134.621574 -78.646377 
L 134.613508 -79.118091 
L 134.599895 -79.589804 
L 134.578919 -80.061518 
L 134.565347 -80.533232 
L 134.543468 -81.004945 
L 134.516059 -81.476659 
L 134.464387 -81.948372 
L 134.384812 -82.420086 
L 134.297847 -82.891799 
L 134.210156 -83.363513 
L 134.153263 -83.835226 
L 134.01604 -84.30694 
L 133.922305 -84.778654 
L 133.770332 -85.250367 
L 133.53996 -85.722081 
L 133.261008 -86.193794 
L 132.890495 -86.665508 
L 132.462898 -87.137221 
L 131.94065 -87.608935 
L 131.376605 -88.080648 
L 130.858499 -88.552362 
L 130.22859 -89.024076 
L 129.42451 -89.495789 
L 128.542101 -89.967503 
L 127.575094 -90.439216 
L 126.492542 -90.91093 
L 125.351068 -91.382643 
L 123.888345 -91.854357 
L 122.200016 -92.32607 
L 120.251061 -92.797784 
L 118.088434 -93.269498 
L 115.971667 -93.741211 
L 113.666567 -94.212925 
L 111.078877 -94.684638 
L 108.2071 -95.156352 
L 104.493818 -95.628065 
L 99.598206 -96.099779 
L 90.883841 -96.571492 
L 78.835938 -97.043206 
L 84.509259 -97.51492 
L 96.143283 -97.986633 
L 102.314837 -98.458347 
L 106.568861 -98.93006 
L 109.768304 -99.401774 
L 112.15703 -99.873487 
L 114.566272 -100.345201 
L 117.160035 -100.816914 
L 119.272516 -101.288628 
L 121.311486 -101.760342 
L 123.100083 -102.232055 
L 124.541087 -102.703769 
L 125.844787 -103.175482 
L 127.251239 -103.647196 
L 128.382805 -104.118909 
L 129.212318 -104.590623 
L 129.988368 -105.062336 
L 130.685588 -105.53405 
L 131.274983 -106.005764 
L 131.836621 -106.477477 
L 132.30617 -106.949191 
L 132.583433 -107.420904 
L 132.914399 -107.892618 
L 133.248691 -108.364331 
L 133.518956 -108.836045 
L 133.757941 -109.307758 
L 133.935799 -109.779472 
L 134.090138 -110.251186 
L 134.204091 -110.722899 
L 134.299979 -111.194613 
L 134.368036 -111.666326 
L 134.438945 -112.13804 
L 134.503959 -112.609753 
L 134.521765 -113.081467 
L 134.527309 -113.55318 
L 134.553576 -114.024894 
L 134.57453 -114.496608 
L 134.584108 -114.968321 
L 134.586081 -115.440035 
L 134.593287 -115.911748 
L 134.603763 -116.383462 
L 134.609895 -116.855175 
L 134.619677 -117.326889 
L 134.621374 -117.798603 
L 134.629205 -118.270316 
L 134.632679 -118.74203 
L 134.632057 -119.213743 
L 134.633937 -119.685457 
L 134.635724 -120.15717 
L 134.636151 -120.15717 
L 134.636151 -120.15717 
L 134.637938 -119.685457 
L 134.639818 -119.213743 
L 134.639196 -118.74203 
L 134.64267 -118.270316 
L 134.650501 -117.798603 
L 134.652198 -117.326889 
L 134.66198 -116.855175 
L 134.668112 -116.383462 
L 134.678588 -115.911748 
L 134.685794 -115.440035 
L 134.687767 -114.968321 
L 134.697345 -114.496608 
L 134.718299 -114.024894 
L 134.744566 -113.55318 
L 134.75011 -113.081467 
L 134.767916 -112.609753 
L 134.83293 -112.13804 
L 134.903839 -111.666326 
L 134.971896 -111.194613 
L 135.067784 -110.722899 
L 135.181737 -110.251186 
L 135.336076 -109.779472 
L 135.513934 -109.307758 
L 135.752919 -108.836045 
L 136.023184 -108.364331 
L 136.357476 -107.892618 
L 136.688442 -107.420904 
L 136.965705 -106.949191 
L 137.435254 -106.477477 
L 137.996892 -106.005764 
L 138.586287 -105.53405 
L 139.283507 -105.062336 
L 140.059557 -104.590623 
L 140.88907 -104.118909 
L 142.020636 -103.647196 
L 143.427088 -103.175482 
L 144.730788 -102.703769 
L 146.171792 -102.232055 
L 147.960389 -101.760342 
L 149.999359 -101.288628 
L 152.11184 -100.816914 
L 154.705603 -100.345201 
L 157.114845 -99.873487 
L 159.503571 -99.401774 
L 162.703014 -98.93006 
L 166.957038 -98.458347 
L 173.128592 -97.986633 
L 184.762616 -97.51492 
L 190.435938 -97.043206 
L 178.388034 -96.571492 
L 169.673669 -96.099779 
L 164.778057 -95.628065 
L 161.064775 -95.156352 
L 158.192998 -94.684638 
L 155.605308 -94.212925 
L 153.300208 -93.741211 
L 151.183441 -93.269498 
L 149.020814 -92.797784 
L 147.071859 -92.32607 
L 145.38353 -91.854357 
L 143.920807 -91.382643 
L 142.779333 -90.91093 
L 141.696781 -90.439216 
L 140.729774 -89.967503 
L 139.847365 -89.495789 
L 139.043285 -89.024076 
L 138.413376 -88.552362 
L 137.89527 -88.080648 
L 137.331225 -87.608935 
L 136.808977 -87.137221 
L 136.38138 -86.665508 
L 136.010867 -86.193794 
L 135.731915 -85.722081 
L 135.501543 -85.250367 
L 135.34957 -84.778654 
L 135.255835 -84.30694 
L 135.118612 -83.835226 
L 135.061719 -83.363513 
L 134.974028 -82.891799 
L 134.887063 -82.420086 
L 134.807488 -81.948372 
L 134.755816 -81.476659 
L 134.728407 -81.004945 
L 134.706528 -80.533232 
L 134.692956 -80.061518 
L 134.67198 -79.589804 
L 134.658367 -79.118091 
L 134.650301 -78.646377 
L 134.646188 -78.174664 
L 134.643195 -77.70295 
L 134.642167 -77.231237 
L 134.642236 -76.759523 
L 134.643775 -76.28781 
L 134.642299 -75.816096 
L 134.639609 -75.344382 
L 134.640156 -74.872669 
L 134.640427 -74.400955 
L 134.638177 -73.929242 
L 134.636161 -73.457528 
z
" style="stroke: #515151; stroke-width: 1.5"/>
    </defs>
    <g clip-path="url(#pb7d088f8f9)">
     <use xlink:href="#m328dbd4ff0" x="0" y="197.585635" style="fill: #e1812c; stroke: #515151; stroke-width: 1.5"/>
    </g>
   </g>
   <g id="PolyCollection_2">
    <defs>
     <path id="m38d47dc4e2" d="M 274.136369 -66.790928 
L 274.135506 -66.790928 
L 274.132638 -67.43657 
L 274.12635 -68.082213 
L 274.117708 -68.727856 
L 274.108948 -69.373498 
L 274.108662 -70.019141 
L 274.110132 -70.664784 
L 274.100701 -71.310426 
L 274.089954 -71.956069 
L 274.086901 -72.601712 
L 274.073982 -73.247354 
L 274.054644 -73.892997 
L 274.050257 -74.53864 
L 274.031158 -75.184282 
L 273.991811 -75.829925 
L 273.955833 -76.475568 
L 273.937363 -77.121211 
L 273.916618 -77.766853 
L 273.853368 -78.412496 
L 273.761323 -79.058139 
L 273.677494 -79.703781 
L 273.610116 -80.349424 
L 273.522381 -80.995067 
L 273.37258 -81.640709 
L 273.229976 -82.286352 
L 273.086264 -82.931995 
L 272.85591 -83.577637 
L 272.623708 -84.22328 
L 272.280201 -84.868923 
L 271.799949 -85.514565 
L 271.269746 -86.160208 
L 270.70482 -86.805851 
L 269.979037 -87.451494 
L 269.051552 -88.097136 
L 267.911609 -88.742779 
L 266.668094 -89.388422 
L 265.418013 -90.034064 
L 264.060036 -90.679707 
L 262.322078 -91.32535 
L 260.461104 -91.970992 
L 258.527642 -92.616635 
L 256.08315 -93.262278 
L 253.554852 -93.90792 
L 251.218696 -94.553563 
L 248.963266 -95.199206 
L 247.178368 -95.844848 
L 245.886921 -96.490491 
L 245.447596 -97.136134 
L 246.013918 -97.781776 
L 247.076234 -98.427419 
L 248.809128 -99.073062 
L 251.392093 -99.718705 
L 253.918014 -100.364347 
L 256.285952 -101.00999 
L 258.325303 -101.655633 
L 260.172388 -102.301275 
L 262.108094 -102.946918 
L 263.947163 -103.592561 
L 265.466674 -104.238203 
L 266.809718 -104.883846 
L 268.003967 -105.529489 
L 268.985015 -106.175131 
L 269.893867 -106.820774 
L 270.622583 -107.466417 
L 271.152541 -108.112059 
L 271.722353 -108.757702 
L 272.25443 -109.403345 
L 272.595551 -110.048988 
L 272.837063 -110.69463 
L 273.025409 -111.340273 
L 273.211998 -111.985916 
L 273.375783 -112.631558 
L 273.528659 -113.277201 
L 273.645788 -113.922844 
L 273.714948 -114.568486 
L 273.777237 -115.214129 
L 273.856662 -115.859772 
L 273.892313 -116.505414 
L 273.922089 -117.151057 
L 273.979051 -117.7967 
L 274.017165 -118.442342 
L 274.027444 -119.087985 
L 274.044685 -119.733628 
L 274.07008 -120.379271 
L 274.06909 -121.024913 
L 274.064567 -121.670556 
L 274.079812 -122.316199 
L 274.096931 -122.961841 
L 274.107847 -123.607484 
L 274.116514 -124.253127 
L 274.122344 -124.898769 
L 274.125326 -125.544412 
L 274.126589 -126.190055 
L 274.127229 -126.835697 
L 274.131749 -127.48134 
L 274.134026 -128.126983 
L 274.133683 -128.772625 
L 274.133696 -129.418268 
L 274.134488 -130.063911 
L 274.135677 -130.709554 
L 274.136198 -130.709554 
L 274.136198 -130.709554 
L 274.137387 -130.063911 
L 274.138179 -129.418268 
L 274.138192 -128.772625 
L 274.137849 -128.126983 
L 274.140126 -127.48134 
L 274.144646 -126.835697 
L 274.145286 -126.190055 
L 274.146549 -125.544412 
L 274.149531 -124.898769 
L 274.155361 -124.253127 
L 274.164028 -123.607484 
L 274.174944 -122.961841 
L 274.192063 -122.316199 
L 274.207308 -121.670556 
L 274.202785 -121.024913 
L 274.201795 -120.379271 
L 274.22719 -119.733628 
L 274.244431 -119.087985 
L 274.25471 -118.442342 
L 274.292824 -117.7967 
L 274.349786 -117.151057 
L 274.379562 -116.505414 
L 274.415213 -115.859772 
L 274.494638 -115.214129 
L 274.556927 -114.568486 
L 274.626087 -113.922844 
L 274.743216 -113.277201 
L 274.896092 -112.631558 
L 275.059877 -111.985916 
L 275.246466 -111.340273 
L 275.434812 -110.69463 
L 275.676324 -110.048988 
L 276.017445 -109.403345 
L 276.549522 -108.757702 
L 277.119334 -108.112059 
L 277.649292 -107.466417 
L 278.378008 -106.820774 
L 279.28686 -106.175131 
L 280.267908 -105.529489 
L 281.462157 -104.883846 
L 282.805201 -104.238203 
L 284.324712 -103.592561 
L 286.163781 -102.946918 
L 288.099487 -102.301275 
L 289.946572 -101.655633 
L 291.985923 -101.00999 
L 294.353861 -100.364347 
L 296.879782 -99.718705 
L 299.462747 -99.073062 
L 301.195641 -98.427419 
L 302.257957 -97.781776 
L 302.824279 -97.136134 
L 302.384954 -96.490491 
L 301.093507 -95.844848 
L 299.308609 -95.199206 
L 297.053179 -94.553563 
L 294.717023 -93.90792 
L 292.188725 -93.262278 
L 289.744233 -92.616635 
L 287.810771 -91.970992 
L 285.949797 -91.32535 
L 284.211839 -90.679707 
L 282.853862 -90.034064 
L 281.603781 -89.388422 
L 280.360266 -88.742779 
L 279.220323 -88.097136 
L 278.292838 -87.451494 
L 277.567055 -86.805851 
L 277.002129 -86.160208 
L 276.471926 -85.514565 
L 275.991674 -84.868923 
L 275.648167 -84.22328 
L 275.415965 -83.577637 
L 275.185611 -82.931995 
L 275.041899 -82.286352 
L 274.899295 -81.640709 
L 274.749494 -80.995067 
L 274.661759 -80.349424 
L 274.594381 -79.703781 
L 274.510552 -79.058139 
L 274.418507 -78.412496 
L 274.355257 -77.766853 
L 274.334512 -77.121211 
L 274.316042 -76.475568 
L 274.280064 -75.829925 
L 274.240717 -75.184282 
L 274.221618 -74.53864 
L 274.217231 -73.892997 
L 274.197893 -73.247354 
L 274.184974 -72.601712 
L 274.181921 -71.956069 
L 274.171174 -71.310426 
L 274.161743 -70.664784 
L 274.163213 -70.019141 
L 274.162927 -69.373498 
L 274.154167 -68.727856 
L 274.145525 -68.082213 
L 274.139237 -67.43657 
L 274.136369 -66.790928 
z
" style="stroke: #515151; stroke-width: 1.5"/>
    </defs>
    <g clip-path="url(#pb7d088f8f9)">
     <use xlink:href="#m38d47dc4e2" x="0" y="197.585635" style="fill: #e1812c; stroke: #515151; stroke-width: 1.5"/>
    </g>
   </g>
   <g id="PolyCollection_3">
    <defs>
     <path id="m6537a8d17a" d="M 413.636337 -62.36798 
L 413.635538 -62.36798 
L 413.634099 -63.07308 
L 413.632806 -63.778179 
L 413.632769 -64.483279 
L 413.630581 -65.188378 
L 413.627382 -65.893478 
L 413.625433 -66.598578 
L 413.623677 -67.303677 
L 413.621175 -68.008777 
L 413.613854 -68.713876 
L 413.605379 -69.418976 
L 413.599744 -70.124075 
L 413.584389 -70.829175 
L 413.564061 -71.534274 
L 413.548495 -72.239374 
L 413.534821 -72.944473 
L 413.519002 -73.649573 
L 413.502158 -74.354672 
L 413.470656 -75.059772 
L 413.419734 -75.764872 
L 413.382379 -76.469971 
L 413.328503 -77.175071 
L 413.23293 -77.88017 
L 413.142012 -78.58527 
L 413.042979 -79.290369 
L 412.901815 -79.995469 
L 412.739992 -80.700568 
L 412.55742 -81.405668 
L 412.376171 -82.110767 
L 412.126142 -82.815867 
L 411.766007 -83.520966 
L 411.339279 -84.226066 
L 410.803628 -84.931166 
L 410.194298 -85.636265 
L 409.524623 -86.341365 
L 408.745751 -87.046464 
L 407.795737 -87.751564 
L 406.654538 -88.456663 
L 405.399573 -89.161763 
L 404.050088 -89.866862 
L 402.582314 -90.571962 
L 400.977542 -91.277061 
L 399.148957 -91.982161 
L 397.330661 -92.68726 
L 395.693775 -93.39236 
L 394.090301 -94.097459 
L 392.52622 -94.802559 
L 391.293353 -95.507659 
L 390.387166 -96.212758 
L 389.984426 -96.917858 
L 389.997933 -97.622957 
L 390.304668 -98.328057 
L 391.315989 -99.033156 
L 392.776032 -99.738256 
L 394.500245 -100.443355 
L 396.443706 -101.148455 
L 398.497719 -101.853554 
L 400.32549 -102.558654 
L 401.790878 -103.263753 
L 403.140562 -103.968853 
L 404.47547 -104.673953 
L 405.777425 -105.379052 
L 407.013561 -106.084152 
L 408.174089 -106.789251 
L 409.073446 -107.494351 
L 409.739343 -108.19945 
L 410.338753 -108.90455 
L 410.839988 -109.609649 
L 411.32116 -110.314749 
L 411.810075 -111.019848 
L 412.182318 -111.724948 
L 412.446505 -112.430047 
L 412.660612 -113.135147 
L 412.832106 -113.840247 
L 412.972674 -114.545346 
L 413.080523 -115.250446 
L 413.16515 -115.955545 
L 413.26285 -116.660645 
L 413.353279 -117.365744 
L 413.408306 -118.070844 
L 413.44197 -118.775943 
L 413.477043 -119.481043 
L 413.50799 -120.186142 
L 413.528058 -120.891242 
L 413.546288 -121.596341 
L 413.566417 -122.301441 
L 413.582205 -123.006541 
L 413.59028 -123.71164 
L 413.603197 -124.41674 
L 413.616602 -125.121839 
L 413.622164 -125.826939 
L 413.621794 -126.532038 
L 413.62113 -127.237138 
L 413.622686 -127.942237 
L 413.625211 -128.647337 
L 413.627807 -129.352436 
L 413.627389 -130.057536 
L 413.628318 -130.762635 
L 413.632791 -131.467735 
L 413.635404 -132.172835 
L 413.636471 -132.172835 
L 413.636471 -132.172835 
L 413.639084 -131.467735 
L 413.643557 -130.762635 
L 413.644486 -130.057536 
L 413.644068 -129.352436 
L 413.646664 -128.647337 
L 413.649189 -127.942237 
L 413.650745 -127.237138 
L 413.650081 -126.532038 
L 413.649711 -125.826939 
L 413.655273 -125.121839 
L 413.668678 -124.41674 
L 413.681595 -123.71164 
L 413.68967 -123.006541 
L 413.705458 -122.301441 
L 413.725587 -121.596341 
L 413.743817 -120.891242 
L 413.763885 -120.186142 
L 413.794832 -119.481043 
L 413.829905 -118.775943 
L 413.863569 -118.070844 
L 413.918596 -117.365744 
L 414.009025 -116.660645 
L 414.106725 -115.955545 
L 414.191352 -115.250446 
L 414.299201 -114.545346 
L 414.439769 -113.840247 
L 414.611263 -113.135147 
L 414.82537 -112.430047 
L 415.089557 -111.724948 
L 415.4618 -111.019848 
L 415.950715 -110.314749 
L 416.431887 -109.609649 
L 416.933122 -108.90455 
L 417.532532 -108.19945 
L 418.198429 -107.494351 
L 419.097786 -106.789251 
L 420.258314 -106.084152 
L 421.49445 -105.379052 
L 422.796405 -104.673953 
L 424.131313 -103.968853 
L 425.480997 -103.263753 
L 426.946385 -102.558654 
L 428.774156 -101.853554 
L 430.828169 -101.148455 
L 432.77163 -100.443355 
L 434.495843 -99.738256 
L 435.955886 -99.033156 
L 436.967207 -98.328057 
L 437.273942 -97.622957 
L 437.287449 -96.917858 
L 436.884709 -96.212758 
L 435.978522 -95.507659 
L 434.745655 -94.802559 
L 433.181574 -94.097459 
L 431.5781 -93.39236 
L 429.941214 -92.68726 
L 428.122918 -91.982161 
L 426.294333 -91.277061 
L 424.689561 -90.571962 
L 423.221787 -89.866862 
L 421.872302 -89.161763 
L 420.617337 -88.456663 
L 419.476138 -87.751564 
L 418.526124 -87.046464 
L 417.747252 -86.341365 
L 417.077577 -85.636265 
L 416.468247 -84.931166 
L 415.932596 -84.226066 
L 415.505868 -83.520966 
L 415.145733 -82.815867 
L 414.895704 -82.110767 
L 414.714455 -81.405668 
L 414.531883 -80.700568 
L 414.37006 -79.995469 
L 414.228896 -79.290369 
L 414.129863 -78.58527 
L 414.038945 -77.88017 
L 413.943372 -77.175071 
L 413.889496 -76.469971 
L 413.852141 -75.764872 
L 413.801219 -75.059772 
L 413.769717 -74.354672 
L 413.752873 -73.649573 
L 413.737054 -72.944473 
L 413.72338 -72.239374 
L 413.707814 -71.534274 
L 413.687486 -70.829175 
L 413.672131 -70.124075 
L 413.666496 -69.418976 
L 413.658021 -68.713876 
L 413.6507 -68.008777 
L 413.648198 -67.303677 
L 413.646442 -66.598578 
L 413.644493 -65.893478 
L 413.641294 -65.188378 
L 413.639106 -64.483279 
L 413.639069 -63.778179 
L 413.637776 -63.07308 
L 413.636337 -62.36798 
z
" style="stroke: #515151; stroke-width: 1.5"/>
    </defs>
    <g clip-path="url(#pb7d088f8f9)">
     <use xlink:href="#m6537a8d17a" x="0" y="197.585635" style="fill: #e1812c; stroke: #515151; stroke-width: 1.5"/>
    </g>
   </g>
   <g id="PolyCollection_4">
    <defs>
     <path id="md7badc29ce" d="M 553.136481 -31.290852 
L 553.135394 -31.290852 
L 553.132417 -32.788373 
L 553.132131 -34.285894 
L 553.126272 -35.783414 
L 553.127039 -37.280935 
L 553.13139 -38.778456 
L 553.12699 -40.275976 
L 553.127535 -41.773497 
L 553.129716 -43.271018 
L 553.13039 -44.768538 
L 553.129409 -46.266059 
L 553.130589 -47.76358 
L 553.128014 -49.2611 
L 553.131032 -50.758621 
L 553.13074 -52.256142 
L 553.130936 -53.753662 
L 553.127663 -55.251183 
L 553.120185 -56.748704 
L 553.107767 -58.246224 
L 553.09959 -59.743745 
L 553.076415 -61.241265 
L 553.042315 -62.738786 
L 553.038126 -64.236307 
L 553.018615 -65.733827 
L 553.007235 -67.231348 
L 552.967968 -68.728869 
L 552.917187 -70.226389 
L 552.811201 -71.72391 
L 552.69614 -73.221431 
L 552.603816 -74.718951 
L 552.488371 -76.216472 
L 552.246781 -77.713993 
L 551.959188 -79.211513 
L 551.573043 -80.709034 
L 551.117752 -82.206555 
L 550.381004 -83.704075 
L 549.35925 -85.201596 
L 548.010838 -86.699117 
L 546.2285 -88.196637 
L 543.853265 -89.694158 
L 541.154557 -91.191679 
L 538.367114 -92.689199 
L 535.39372 -94.18672 
L 533.055523 -95.684241 
L 531.93975 -97.181761 
L 532.979175 -98.679282 
L 535.432304 -100.176803 
L 538.550148 -101.674323 
L 541.687302 -103.171844 
L 544.04197 -104.669365 
L 546.000546 -106.166885 
L 547.779001 -107.664406 
L 549.198637 -109.161927 
L 550.256401 -110.659447 
L 550.957917 -112.156968 
L 551.505985 -113.654489 
L 551.91132 -115.152009 
L 552.239499 -116.64953 
L 552.527959 -118.147051 
L 552.664028 -119.644571 
L 552.75943 -121.142092 
L 552.869797 -122.639613 
L 552.934843 -124.137133 
L 552.970189 -125.634654 
L 552.998143 -127.132175 
L 553.020179 -128.629695 
L 553.055689 -130.127216 
L 553.081231 -131.624737 
L 553.09675 -133.122257 
L 553.10258 -134.619778 
L 553.113568 -136.117299 
L 553.118595 -137.614819 
L 553.118965 -139.11234 
L 553.12176 -140.609861 
L 553.123256 -142.107381 
L 553.125338 -143.604902 
L 553.128845 -145.102423 
L 553.131297 -146.599943 
L 553.127154 -148.097464 
L 553.125904 -149.594985 
L 553.127323 -151.092505 
L 553.124445 -152.590026 
L 553.130818 -154.087546 
L 553.135592 -155.585067 
L 553.135934 -157.082588 
L 553.135847 -158.580108 
L 553.134152 -160.077629 
L 553.131493 -161.57515 
L 553.131504 -163.07267 
L 553.132844 -164.570191 
L 553.132404 -166.067712 
L 553.13315 -167.565232 
L 553.135673 -169.062753 
L 553.135935 -170.560274 
L 553.135937 -172.057794 
L 553.135936 -173.555315 
L 553.135728 -175.052836 
L 553.13339 -176.550356 
L 553.132438 -178.047877 
L 553.135394 -179.545398 
L 553.136481 -179.545398 
L 553.136481 -179.545398 
L 553.139437 -178.047877 
L 553.138485 -176.550356 
L 553.136147 -175.052836 
L 553.135939 -173.555315 
L 553.135938 -172.057794 
L 553.13594 -170.560274 
L 553.136202 -169.062753 
L 553.138725 -167.565232 
L 553.139471 -166.067712 
L 553.139031 -164.570191 
L 553.140371 -163.07267 
L 553.140382 -161.57515 
L 553.137723 -160.077629 
L 553.136028 -158.580108 
L 553.135941 -157.082588 
L 553.136283 -155.585067 
L 553.141057 -154.087546 
L 553.14743 -152.590026 
L 553.144552 -151.092505 
L 553.145971 -149.594985 
L 553.144721 -148.097464 
L 553.140578 -146.599943 
L 553.14303 -145.102423 
L 553.146537 -143.604902 
L 553.148619 -142.107381 
L 553.150115 -140.609861 
L 553.15291 -139.11234 
L 553.15328 -137.614819 
L 553.158307 -136.117299 
L 553.169295 -134.619778 
L 553.175125 -133.122257 
L 553.190644 -131.624737 
L 553.216186 -130.127216 
L 553.251696 -128.629695 
L 553.273732 -127.132175 
L 553.301686 -125.634654 
L 553.337032 -124.137133 
L 553.402078 -122.639613 
L 553.512445 -121.142092 
L 553.607847 -119.644571 
L 553.743916 -118.147051 
L 554.032376 -116.64953 
L 554.360555 -115.152009 
L 554.76589 -113.654489 
L 555.313958 -112.156968 
L 556.015474 -110.659447 
L 557.073238 -109.161927 
L 558.492874 -107.664406 
L 560.271329 -106.166885 
L 562.229905 -104.669365 
L 564.584573 -103.171844 
L 567.721727 -101.674323 
L 570.839571 -100.176803 
L 573.2927 -98.679282 
L 574.332125 -97.181761 
L 573.216352 -95.684241 
L 570.878155 -94.18672 
L 567.904761 -92.689199 
L 565.117318 -91.191679 
L 562.41861 -89.694158 
L 560.043375 -88.196637 
L 558.261037 -86.699117 
L 556.912625 -85.201596 
L 555.890871 -83.704075 
L 555.154123 -82.206555 
L 554.698832 -80.709034 
L 554.312687 -79.211513 
L 554.025094 -77.713993 
L 553.783504 -76.216472 
L 553.668059 -74.718951 
L 553.575735 -73.221431 
L 553.460674 -71.72391 
L 553.354688 -70.226389 
L 553.303907 -68.728869 
L 553.26464 -67.231348 
L 553.25326 -65.733827 
L 553.233749 -64.236307 
L 553.22956 -62.738786 
L 553.19546 -61.241265 
L 553.172285 -59.743745 
L 553.164108 -58.246224 
L 553.15169 -56.748704 
L 553.144212 -55.251183 
L 553.140939 -53.753662 
L 553.141135 -52.256142 
L 553.140843 -50.758621 
L 553.143861 -49.2611 
L 553.141286 -47.76358 
L 553.142466 -46.266059 
L 553.141485 -44.768538 
L 553.142159 -43.271018 
L 553.14434 -41.773497 
L 553.144885 -40.275976 
L 553.140485 -38.778456 
L 553.144836 -37.280935 
L 553.145603 -35.783414 
L 553.139744 -34.285894 
L 553.139458 -32.788373 
L 553.136481 -31.290852 
z
" style="stroke: #515151; stroke-width: 1.5"/>
    </defs>
    <g clip-path="url(#pb7d088f8f9)">
     <use xlink:href="#md7badc29ce" x="0" y="197.585635" style="fill: #e1812c; stroke: #515151; stroke-width: 1.5"/>
    </g>
   </g>
   <g id="matplotlib.axis_1">
    <g id="xtick_1">
     <g id="line2d_1">
      <defs>
       <path id="m1d161f1a9b" d="M 0 0 
L 0 3.5 
" style="stroke: #000000; stroke-width: 0.8"/>
      </defs>
      <g>
       <use xlink:href="#m1d161f1a9b" x="134.635938" y="173.70751" style="stroke: #000000; stroke-width: 0.8"/>
      </g>
     </g>
     <g id="text_1">
      <!-- (1, dense) -->
      <g transform="translate(109.274219 188.305948)scale(0.1 -0.1)">
       <defs>
        <path id="DejaVuSans-28" d="M 1984 4856 
Q 1566 4138 1362 3434 
Q 1159 2731 1159 2009 
Q 1159 1288 1364 580 
Q 1569 -128 1984 -844 
L 1484 -844 
Q 1016 -109 783 600 
Q 550 1309 550 2009 
Q 550 2706 781 3412 
Q 1013 4119 1484 4856 
L 1984 4856 
z
" transform="scale(0.015625)"/>
        <path id="DejaVuSans-31" d="M 794 531 
L 1825 531 
L 1825 4091 
L 703 3866 
L 703 4441 
L 1819 4666 
L 2450 4666 
L 2450 531 
L 3481 531 
L 3481 0 
L 794 0 
L 794 531 
z
" transform="scale(0.015625)"/>
        <path id="DejaVuSans-2c" d="M 750 794 
L 1409 794 
L 1409 256 
L 897 -744 
L 494 -744 
L 750 256 
L 750 794 
z
" transform="scale(0.015625)"/>
        <path id="DejaVuSans-20" transform="scale(0.015625)"/>
        <path id="DejaVuSans-64" d="M 2906 2969 
L 2906 4863 
L 3481 4863 
L 3481 0 
L 2906 0 
L 2906 525 
Q 2725 213 2448 61 
Q 2172 -91 1784 -91 
Q 1150 -91 751 415 
Q 353 922 353 1747 
Q 353 2572 751 3078 
Q 1150 3584 1784 3584 
Q 2172 3584 2448 3432 
Q 2725 3281 2906 2969 
z
M 947 1747 
Q 947 1113 1208 752 
Q 1469 391 1925 391 
Q 2381 391 2643 752 
Q 2906 1113 2906 1747 
Q 2906 2381 2643 2742 
Q 2381 3103 1925 3103 
Q 1469 3103 1208 2742 
Q 947 2381 947 1747 
z
" transform="scale(0.015625)"/>
        <path id="DejaVuSans-65" d="M 3597 1894 
L 3597 1613 
L 953 1613 
Q 991 1019 1311 708 
Q 1631 397 2203 397 
Q 2534 397 2845 478 
Q 3156 559 3463 722 
L 3463 178 
Q 3153 47 2828 -22 
Q 2503 -91 2169 -91 
Q 1331 -91 842 396 
Q 353 884 353 1716 
Q 353 2575 817 3079 
Q 1281 3584 2069 3584 
Q 2775 3584 3186 3129 
Q 3597 2675 3597 1894 
z
M 3022 2063 
Q 3016 2534 2758 2815 
Q 2500 3097 2075 3097 
Q 1594 3097 1305 2825 
Q 1016 2553 972 2059 
L 3022 2063 
z
" transform="scale(0.015625)"/>
        <path id="DejaVuSans-6e" d="M 3513 2113 
L 3513 0 
L 2938 0 
L 2938 2094 
Q 2938 2591 2744 2837 
Q 2550 3084 2163 3084 
Q 1697 3084 1428 2787 
Q 1159 2491 1159 1978 
L 1159 0 
L 581 0 
L 581 3500 
L 1159 3500 
L 1159 2956 
Q 1366 3272 1645 3428 
Q 1925 3584 2291 3584 
Q 2894 3584 3203 3211 
Q 3513 2838 3513 2113 
z
" transform="scale(0.015625)"/>
        <path id="DejaVuSans-73" d="M 2834 3397 
L 2834 2853 
Q 2591 2978 2328 3040 
Q 2066 3103 1784 3103 
Q 1356 3103 1142 2972 
Q 928 2841 928 2578 
Q 928 2378 1081 2264 
Q 1234 2150 1697 2047 
L 1894 2003 
Q 2506 1872 2764 1633 
Q 3022 1394 3022 966 
Q 3022 478 2636 193 
Q 2250 -91 1575 -91 
Q 1294 -91 989 -36 
Q 684 19 347 128 
L 347 722 
Q 666 556 975 473 
Q 1284 391 1588 391 
Q 1994 391 2212 530 
Q 2431 669 2431 922 
Q 2431 1156 2273 1281 
Q 2116 1406 1581 1522 
L 1381 1569 
Q 847 1681 609 1914 
Q 372 2147 372 2553 
Q 372 3047 722 3315 
Q 1072 3584 1716 3584 
Q 2034 3584 2315 3537 
Q 2597 3491 2834 3397 
z
" transform="scale(0.015625)"/>
        <path id="DejaVuSans-29" d="M 513 4856 
L 1013 4856 
Q 1481 4119 1714 3412 
Q 1947 2706 1947 2009 
Q 1947 1309 1714 600 
Q 1481 -109 1013 -844 
L 513 -844 
Q 928 -128 1133 580 
Q 1338 1288 1338 2009 
Q 1338 2731 1133 3434 
Q 928 4138 513 4856 
z
" transform="scale(0.015625)"/>
       </defs>
       <use xlink:href="#DejaVuSans-28"/>
       <use xlink:href="#DejaVuSans-31" x="39.013672"/>
       <use xlink:href="#DejaVuSans-2c" x="102.636719"/>
       <use xlink:href="#DejaVuSans-20" x="134.423828"/>
       <use xlink:href="#DejaVuSans-64" x="166.210938"/>
       <use xlink:href="#DejaVuSans-65" x="229.6875"/>
       <use xlink:href="#DejaVuSans-6e" x="291.210938"/>
       <use xlink:href="#DejaVuSans-73" x="354.589844"/>
       <use xlink:href="#DejaVuSans-65" x="406.689453"/>
       <use xlink:href="#DejaVuSans-29" x="468.212891"/>
      </g>
     </g>
    </g>
    <g id="xtick_2">
     <g id="line2d_2">
      <g>
       <use xlink:href="#m1d161f1a9b" x="274.135938" y="173.70751" style="stroke: #000000; stroke-width: 0.8"/>
      </g>
     </g>
     <g id="text_2">
      <!-- (2, dense) -->
      <g transform="translate(248.774219 188.305948)scale(0.1 -0.1)">
       <defs>
        <path id="DejaVuSans-32" d="M 1228 531 
L 3431 531 
L 3431 0 
L 469 0 
L 469 531 
Q 828 903 1448 1529 
Q 2069 2156 2228 2338 
Q 2531 2678 2651 2914 
Q 2772 3150 2772 3378 
Q 2772 3750 2511 3984 
Q 2250 4219 1831 4219 
Q 1534 4219 1204 4116 
Q 875 4013 500 3803 
L 500 4441 
Q 881 4594 1212 4672 
Q 1544 4750 1819 4750 
Q 2544 4750 2975 4387 
Q 3406 4025 3406 3419 
Q 3406 3131 3298 2873 
Q 3191 2616 2906 2266 
Q 2828 2175 2409 1742 
Q 1991 1309 1228 531 
z
" transform="scale(0.015625)"/>
       </defs>
       <use xlink:href="#DejaVuSans-28"/>
       <use xlink:href="#DejaVuSans-32" x="39.013672"/>
       <use xlink:href="#DejaVuSans-2c" x="102.636719"/>
       <use xlink:href="#DejaVuSans-20" x="134.423828"/>
       <use xlink:href="#DejaVuSans-64" x="166.210938"/>
       <use xlink:href="#DejaVuSans-65" x="229.6875"/>
       <use xlink:href="#DejaVuSans-6e" x="291.210938"/>
       <use xlink:href="#DejaVuSans-73" x="354.589844"/>
       <use xlink:href="#DejaVuSans-65" x="406.689453"/>
       <use xlink:href="#DejaVuSans-29" x="468.212891"/>
      </g>
     </g>
    </g>
    <g id="xtick_3">
     <g id="line2d_3">
      <g>
       <use xlink:href="#m1d161f1a9b" x="413.635938" y="173.70751" style="stroke: #000000; stroke-width: 0.8"/>
      </g>
     </g>
     <g id="text_3">
      <!-- (3, dense) -->
      <g transform="translate(388.274219 188.305948)scale(0.1 -0.1)">
       <defs>
        <path id="DejaVuSans-33" d="M 2597 2516 
Q 3050 2419 3304 2112 
Q 3559 1806 3559 1356 
Q 3559 666 3084 287 
Q 2609 -91 1734 -91 
Q 1441 -91 1130 -33 
Q 819 25 488 141 
L 488 750 
Q 750 597 1062 519 
Q 1375 441 1716 441 
Q 2309 441 2620 675 
Q 2931 909 2931 1356 
Q 2931 1769 2642 2001 
Q 2353 2234 1838 2234 
L 1294 2234 
L 1294 2753 
L 1863 2753 
Q 2328 2753 2575 2939 
Q 2822 3125 2822 3475 
Q 2822 3834 2567 4026 
Q 2313 4219 1838 4219 
Q 1578 4219 1281 4162 
Q 984 4106 628 3988 
L 628 4550 
Q 988 4650 1302 4700 
Q 1616 4750 1894 4750 
Q 2613 4750 3031 4423 
Q 3450 4097 3450 3541 
Q 3450 3153 3228 2886 
Q 3006 2619 2597 2516 
z
" transform="scale(0.015625)"/>
       </defs>
       <use xlink:href="#DejaVuSans-28"/>
       <use xlink:href="#DejaVuSans-33" x="39.013672"/>
       <use xlink:href="#DejaVuSans-2c" x="102.636719"/>
       <use xlink:href="#DejaVuSans-20" x="134.423828"/>
       <use xlink:href="#DejaVuSans-64" x="166.210938"/>
       <use xlink:href="#DejaVuSans-65" x="229.6875"/>
       <use xlink:href="#DejaVuSans-6e" x="291.210938"/>
       <use xlink:href="#DejaVuSans-73" x="354.589844"/>
       <use xlink:href="#DejaVuSans-65" x="406.689453"/>
       <use xlink:href="#DejaVuSans-29" x="468.212891"/>
      </g>
     </g>
    </g>
    <g id="xtick_4">
     <g id="line2d_4">
      <g>
       <use xlink:href="#m1d161f1a9b" x="553.135937" y="173.70751" style="stroke: #000000; stroke-width: 0.8"/>
      </g>
     </g>
     <g id="text_4">
      <!-- (4, dense) -->
      <g transform="translate(527.774219 188.305948)scale(0.1 -0.1)">
       <defs>
        <path id="DejaVuSans-34" d="M 2419 4116 
L 825 1625 
L 2419 1625 
L 2419 4116 
z
M 2253 4666 
L 3047 4666 
L 3047 1625 
L 3713 1625 
L 3713 1100 
L 3047 1100 
L 3047 0 
L 2419 0 
L 2419 1100 
L 313 1100 
L 313 1709 
L 2253 4666 
z
" transform="scale(0.015625)"/>
       </defs>
       <use xlink:href="#DejaVuSans-28"/>
       <use xlink:href="#DejaVuSans-34" x="39.013672"/>
       <use xlink:href="#DejaVuSans-2c" x="102.636719"/>
       <use xlink:href="#DejaVuSans-20" x="134.423828"/>
       <use xlink:href="#DejaVuSans-64" x="166.210938"/>
       <use xlink:href="#DejaVuSans-65" x="229.6875"/>
       <use xlink:href="#DejaVuSans-6e" x="291.210938"/>
       <use xlink:href="#DejaVuSans-73" x="354.589844"/>
       <use xlink:href="#DejaVuSans-65" x="406.689453"/>
       <use xlink:href="#DejaVuSans-29" x="468.212891"/>
      </g>
     </g>
    </g>
   </g>
   <g id="matplotlib.axis_2">
    <g id="ytick_1">
     <g id="line2d_5">
      <defs>
       <path id="mb3340b5a05" d="M 0 0 
L -3.5 0 
" style="stroke: #000000; stroke-width: 0.8"/>
      </defs>
      <g>
       <use xlink:href="#mb3340b5a05" x="64.885938" y="167.503702" style="stroke: #000000; stroke-width: 0.8"/>
      </g>
     </g>
     <g id="text_5">
      <!-- −0.075 -->
      <g transform="translate(20.878125 171.302921)scale(0.1 -0.1)">
       <defs>
        <path id="DejaVuSans-2212" d="M 678 2272 
L 4684 2272 
L 4684 1741 
L 678 1741 
L 678 2272 
z
" transform="scale(0.015625)"/>
        <path id="DejaVuSans-30" d="M 2034 4250 
Q 1547 4250 1301 3770 
Q 1056 3291 1056 2328 
Q 1056 1369 1301 889 
Q 1547 409 2034 409 
Q 2525 409 2770 889 
Q 3016 1369 3016 2328 
Q 3016 3291 2770 3770 
Q 2525 4250 2034 4250 
z
M 2034 4750 
Q 2819 4750 3233 4129 
Q 3647 3509 3647 2328 
Q 3647 1150 3233 529 
Q 2819 -91 2034 -91 
Q 1250 -91 836 529 
Q 422 1150 422 2328 
Q 422 3509 836 4129 
Q 1250 4750 2034 4750 
z
" transform="scale(0.015625)"/>
        <path id="DejaVuSans-2e" d="M 684 794 
L 1344 794 
L 1344 0 
L 684 0 
L 684 794 
z
" transform="scale(0.015625)"/>
        <path id="DejaVuSans-37" d="M 525 4666 
L 3525 4666 
L 3525 4397 
L 1831 0 
L 1172 0 
L 2766 4134 
L 525 4134 
L 525 4666 
z
" transform="scale(0.015625)"/>
        <path id="DejaVuSans-35" d="M 691 4666 
L 3169 4666 
L 3169 4134 
L 1269 4134 
L 1269 2991 
Q 1406 3038 1543 3061 
Q 1681 3084 1819 3084 
Q 2600 3084 3056 2656 
Q 3513 2228 3513 1497 
Q 3513 744 3044 326 
Q 2575 -91 1722 -91 
Q 1428 -91 1123 -41 
Q 819 9 494 109 
L 494 744 
Q 775 591 1075 516 
Q 1375 441 1709 441 
Q 2250 441 2565 725 
Q 2881 1009 2881 1497 
Q 2881 1984 2565 2268 
Q 2250 2553 1709 2553 
Q 1456 2553 1204 2497 
Q 953 2441 691 2322 
L 691 4666 
z
" transform="scale(0.015625)"/>
       </defs>
       <use xlink:href="#DejaVuSans-2212"/>
       <use xlink:href="#DejaVuSans-30" x="83.789062"/>
       <use xlink:href="#DejaVuSans-2e" x="147.412109"/>
       <use xlink:href="#DejaVuSans-30" x="179.199219"/>
       <use xlink:href="#DejaVuSans-37" x="242.822266"/>
       <use xlink:href="#DejaVuSans-35" x="306.445312"/>
      </g>
     </g>
    </g>
    <g id="ytick_2">
     <g id="line2d_6">
      <g>
       <use xlink:href="#mb3340b5a05" x="64.885938" y="145.145918" style="stroke: #000000; stroke-width: 0.8"/>
      </g>
     </g>
     <g id="text_6">
      <!-- −0.050 -->
      <g transform="translate(20.878125 148.945137)scale(0.1 -0.1)">
       <use xlink:href="#DejaVuSans-2212"/>
       <use xlink:href="#DejaVuSans-30" x="83.789062"/>
       <use xlink:href="#DejaVuSans-2e" x="147.412109"/>
       <use xlink:href="#DejaVuSans-30" x="179.199219"/>
       <use xlink:href="#DejaVuSans-35" x="242.822266"/>
       <use xlink:href="#DejaVuSans-30" x="306.445312"/>
      </g>
     </g>
    </g>
    <g id="ytick_3">
     <g id="line2d_7">
      <g>
       <use xlink:href="#mb3340b5a05" x="64.885938" y="122.788135" style="stroke: #000000; stroke-width: 0.8"/>
      </g>
     </g>
     <g id="text_7">
      <!-- −0.025 -->
      <g transform="translate(20.878125 126.587354)scale(0.1 -0.1)">
       <use xlink:href="#DejaVuSans-2212"/>
       <use xlink:href="#DejaVuSans-30" x="83.789062"/>
       <use xlink:href="#DejaVuSans-2e" x="147.412109"/>
       <use xlink:href="#DejaVuSans-30" x="179.199219"/>
       <use xlink:href="#DejaVuSans-32" x="242.822266"/>
       <use xlink:href="#DejaVuSans-35" x="306.445312"/>
      </g>
     </g>
    </g>
    <g id="ytick_4">
     <g id="line2d_8">
      <g>
       <use xlink:href="#mb3340b5a05" x="64.885938" y="100.430352" style="stroke: #000000; stroke-width: 0.8"/>
      </g>
     </g>
     <g id="text_8">
      <!-- 0.000 -->
      <g transform="translate(29.257813 104.229571)scale(0.1 -0.1)">
       <use xlink:href="#DejaVuSans-30"/>
       <use xlink:href="#DejaVuSans-2e" x="63.623047"/>
       <use xlink:href="#DejaVuSans-30" x="95.410156"/>
       <use xlink:href="#DejaVuSans-30" x="159.033203"/>
       <use xlink:href="#DejaVuSans-30" x="222.65625"/>
      </g>
     </g>
    </g>
    <g id="ytick_5">
     <g id="line2d_9">
      <g>
       <use xlink:href="#mb3340b5a05" x="64.885938" y="78.072569" style="stroke: #000000; stroke-width: 0.8"/>
      </g>
     </g>
     <g id="text_9">
      <!-- 0.025 -->
      <g transform="translate(29.257813 81.871787)scale(0.1 -0.1)">
       <use xlink:href="#DejaVuSans-30"/>
       <use xlink:href="#DejaVuSans-2e" x="63.623047"/>
       <use xlink:href="#DejaVuSans-30" x="95.410156"/>
       <use xlink:href="#DejaVuSans-32" x="159.033203"/>
       <use xlink:href="#DejaVuSans-35" x="222.65625"/>
      </g>
     </g>
    </g>
    <g id="ytick_6">
     <g id="line2d_10">
      <g>
       <use xlink:href="#mb3340b5a05" x="64.885938" y="55.714785" style="stroke: #000000; stroke-width: 0.8"/>
      </g>
     </g>
     <g id="text_10">
      <!-- 0.050 -->
      <g transform="translate(29.257813 59.514004)scale(0.1 -0.1)">
       <use xlink:href="#DejaVuSans-30"/>
       <use xlink:href="#DejaVuSans-2e" x="63.623047"/>
       <use xlink:href="#DejaVuSans-30" x="95.410156"/>
       <use xlink:href="#DejaVuSans-35" x="159.033203"/>
       <use xlink:href="#DejaVuSans-30" x="222.65625"/>
      </g>
     </g>
    </g>
    <g id="ytick_7">
     <g id="line2d_11">
      <g>
       <use xlink:href="#mb3340b5a05" x="64.885938" y="33.357002" style="stroke: #000000; stroke-width: 0.8"/>
      </g>
     </g>
     <g id="text_11">
      <!-- 0.075 -->
      <g transform="translate(29.257813 37.156221)scale(0.1 -0.1)">
       <use xlink:href="#DejaVuSans-30"/>
       <use xlink:href="#DejaVuSans-2e" x="63.623047"/>
       <use xlink:href="#DejaVuSans-30" x="95.410156"/>
       <use xlink:href="#DejaVuSans-37" x="159.033203"/>
       <use xlink:href="#DejaVuSans-35" x="222.65625"/>
      </g>
     </g>
    </g>
    <g id="ytick_8">
     <g id="line2d_12">
      <g>
       <use xlink:href="#mb3340b5a05" x="64.885938" y="10.999219" style="stroke: #000000; stroke-width: 0.8"/>
      </g>
     </g>
     <g id="text_12">
      <!-- 0.100 -->
      <g transform="translate(29.257813 14.798437)scale(0.1 -0.1)">
       <use xlink:href="#DejaVuSans-30"/>
       <use xlink:href="#DejaVuSans-2e" x="63.623047"/>
       <use xlink:href="#DejaVuSans-31" x="95.410156"/>
       <use xlink:href="#DejaVuSans-30" x="159.033203"/>
       <use xlink:href="#DejaVuSans-30" x="222.65625"/>
      </g>
     </g>
    </g>
    <g id="text_13">
     <!-- ${\nabla}_w L$ -->
     <g transform="translate(14.798438 101.36751)rotate(-90)scale(0.1 -0.1)">
      <defs>
       <path id="DejaVuSans-2207" d="M 2138 659 
L 3444 4047 
L 831 4047 
L 2138 659 
z
M 1791 0 
L -19 4603 
L 4300 4603 
L 2491 0 
L 1791 0 
z
" transform="scale(0.015625)"/>
       <path id="DejaVuSans-Oblique-77" d="M 544 3500 
L 1113 3500 
L 1259 684 
L 2566 3500 
L 3231 3500 
L 3425 684 
L 4666 3500 
L 5241 3500 
L 3641 0 
L 2969 0 
L 2797 2900 
L 1459 0 
L 781 0 
L 544 3500 
z
" transform="scale(0.015625)"/>
       <path id="DejaVuSans-Oblique-4c" d="M 1075 4666 
L 1709 4666 
L 909 525 
L 3181 525 
L 3078 0 
L 172 0 
L 1075 4666 
z
" transform="scale(0.015625)"/>
      </defs>
      <use xlink:href="#DejaVuSans-2207" transform="translate(0 0.09375)"/>
      <use xlink:href="#DejaVuSans-Oblique-77" transform="translate(67.851562 -16.3125)scale(0.7)"/>
      <use xlink:href="#DejaVuSans-Oblique-4c" transform="translate(127.836914 0.09375)"/>
     </g>
    </g>
   </g>
   <g id="line2d_13">
    <path d="M 134.635938 109.403213 
L 134.635938 91.449106 
" clip-path="url(#pb7d088f8f9)" style="fill: none; stroke: #515151; stroke-width: 1.5; stroke-linecap: square"/>
   </g>
   <g id="line2d_14">
    <path d="M 134.635938 102.670547 
L 134.635938 98.18196 
" clip-path="url(#pb7d088f8f9)" style="fill: none; stroke: #515151; stroke-width: 4.5; stroke-linecap: square"/>
   </g>
   <g id="line2d_15">
    <path d="M 274.135938 113.446229 
L 274.135938 87.431734 
" clip-path="url(#pb7d088f8f9)" style="fill: none; stroke: #515151; stroke-width: 1.5; stroke-linecap: square"/>
   </g>
   <g id="line2d_16">
    <path d="M 274.135938 103.694908 
L 274.135938 97.188761 
" clip-path="url(#pb7d088f8f9)" style="fill: none; stroke: #515151; stroke-width: 4.5; stroke-linecap: square"/>
   </g>
   <g id="line2d_17">
    <path d="M 413.635938 115.830363 
L 413.635938 85.079613 
" clip-path="url(#pb7d088f8f9)" style="fill: none; stroke: #515151; stroke-width: 1.5; stroke-linecap: square"/>
   </g>
   <g id="line2d_18">
    <path d="M 413.635938 104.300769 
L 413.635938 96.611879 
" clip-path="url(#pb7d088f8f9)" style="fill: none; stroke: #515151; stroke-width: 4.5; stroke-linecap: square"/>
   </g>
   <g id="line2d_19">
    <path d="M 553.135937 118.005794 
L 553.135937 82.82936 
" clip-path="url(#pb7d088f8f9)" style="fill: none; stroke: #515151; stroke-width: 1.5; stroke-linecap: square"/>
   </g>
   <g id="line2d_20">
    <path d="M 553.135937 104.812355 
L 553.135937 96.015963 
" clip-path="url(#pb7d088f8f9)" style="fill: none; stroke: #515151; stroke-width: 4.5; stroke-linecap: square"/>
   </g>
   <g id="patch_3">
    <path d="M 64.885938 173.70751 
L 64.885938 10.62751 
" style="fill: none; stroke: #000000; stroke-width: 0.8; stroke-linejoin: miter; stroke-linecap: square"/>
   </g>
   <g id="patch_4">
    <path d="M 622.885937 173.70751 
L 622.885937 10.62751 
" style="fill: none; stroke: #000000; stroke-width: 0.8; stroke-linejoin: miter; stroke-linecap: square"/>
   </g>
   <g id="patch_5">
    <path d="M 64.885938 173.70751 
L 622.885937 173.70751 
" style="fill: none; stroke: #000000; stroke-width: 0.8; stroke-linejoin: miter; stroke-linecap: square"/>
   </g>
   <g id="patch_6">
    <path d="M 64.885938 10.62751 
L 622.885937 10.62751 
" style="fill: none; stroke: #000000; stroke-width: 0.8; stroke-linejoin: miter; stroke-linecap: square"/>
   </g>
   <g id="PathCollection_1">
    <defs>
     <path id="maa59a6eda3" d="M 0 1.5 
C 0.397805 1.5 0.77937 1.341951 1.06066 1.06066 
C 1.341951 0.77937 1.5 0.397805 1.5 0 
C 1.5 -0.397805 1.341951 -0.77937 1.06066 -1.06066 
C 0.77937 -1.341951 0.397805 -1.5 0 -1.5 
C -0.397805 -1.5 -0.77937 -1.341951 -1.06066 -1.06066 
C -1.341951 -0.77937 -1.5 -0.397805 -1.5 0 
C -1.5 0.397805 -1.341951 0.77937 -1.06066 1.06066 
C -0.77937 1.341951 -0.397805 1.5 0 1.5 
z
" style="stroke: #515151"/>
    </defs>
    <g clip-path="url(#pb7d088f8f9)">
     <use xlink:href="#maa59a6eda3" x="134.635938" y="100.42869" style="fill: #ffffff; stroke: #515151"/>
    </g>
   </g>
   <g id="PathCollection_2">
    <g clip-path="url(#pb7d088f8f9)">
     <use xlink:href="#maa59a6eda3" x="274.135938" y="100.448849" style="fill: #ffffff; stroke: #515151"/>
    </g>
   </g>
   <g id="PathCollection_3">
    <g clip-path="url(#pb7d088f8f9)">
     <use xlink:href="#maa59a6eda3" x="413.635938" y="100.441281" style="fill: #ffffff; stroke: #515151"/>
    </g>
   </g>
   <g id="PathCollection_4">
    <g clip-path="url(#pb7d088f8f9)">
     <use xlink:href="#maa59a6eda3" x="553.135937" y="100.403665" style="fill: #ffffff; stroke: #515151"/>
    </g>
   </g>
   <g id="legend_1">
    <g id="patch_7">
     <path d="M 71.885938 33.305635 
L 126.609375 33.305635 
Q 128.609375 33.305635 128.609375 31.305635 
L 128.609375 17.62751 
Q 128.609375 15.62751 126.609375 15.62751 
L 71.885938 15.62751 
Q 69.885938 15.62751 69.885938 17.62751 
L 69.885938 31.305635 
Q 69.885938 33.305635 71.885938 33.305635 
z
" style="fill: #ffffff; opacity: 0.8; stroke: #cccccc; stroke-linejoin: miter"/>
    </g>
    <g id="patch_8">
     <path d="M 73.885938 27.225948 
L 93.885938 27.225948 
L 93.885938 20.225948 
L 73.885938 20.225948 
z
" style="fill: #e1812c; stroke: #515151; stroke-width: 1.5; stroke-linejoin: miter"/>
    </g>
    <g id="text_14">
     <!-- tanh -->
     <g transform="translate(101.885938 27.225948)scale(0.1 -0.1)">
      <defs>
       <path id="DejaVuSans-74" d="M 1172 4494 
L 1172 3500 
L 2356 3500 
L 2356 3053 
L 1172 3053 
L 1172 1153 
Q 1172 725 1289 603 
Q 1406 481 1766 481 
L 2356 481 
L 2356 0 
L 1766 0 
Q 1100 0 847 248 
Q 594 497 594 1153 
L 594 3053 
L 172 3053 
L 172 3500 
L 594 3500 
L 594 4494 
L 1172 4494 
z
" transform="scale(0.015625)"/>
       <path id="DejaVuSans-61" d="M 2194 1759 
Q 1497 1759 1228 1600 
Q 959 1441 959 1056 
Q 959 750 1161 570 
Q 1363 391 1709 391 
Q 2188 391 2477 730 
Q 2766 1069 2766 1631 
L 2766 1759 
L 2194 1759 
z
M 3341 1997 
L 3341 0 
L 2766 0 
L 2766 531 
Q 2569 213 2275 61 
Q 1981 -91 1556 -91 
Q 1019 -91 701 211 
Q 384 513 384 1019 
Q 384 1609 779 1909 
Q 1175 2209 1959 2209 
L 2766 2209 
L 2766 2266 
Q 2766 2663 2505 2880 
Q 2244 3097 1772 3097 
Q 1472 3097 1187 3025 
Q 903 2953 641 2809 
L 641 3341 
Q 956 3463 1253 3523 
Q 1550 3584 1831 3584 
Q 2591 3584 2966 3190 
Q 3341 2797 3341 1997 
z
" transform="scale(0.015625)"/>
       <path id="DejaVuSans-68" d="M 3513 2113 
L 3513 0 
L 2938 0 
L 2938 2094 
Q 2938 2591 2744 2837 
Q 2550 3084 2163 3084 
Q 1697 3084 1428 2787 
Q 1159 2491 1159 1978 
L 1159 0 
L 581 0 
L 581 4863 
L 1159 4863 
L 1159 2956 
Q 1366 3272 1645 3428 
Q 1925 3584 2291 3584 
Q 2894 3584 3203 3211 
Q 3513 2838 3513 2113 
z
" transform="scale(0.015625)"/>
      </defs>
      <use xlink:href="#DejaVuSans-74"/>
      <use xlink:href="#DejaVuSans-61" x="39.208984"/>
      <use xlink:href="#DejaVuSans-6e" x="100.488281"/>
      <use xlink:href="#DejaVuSans-68" x="163.867188"/>
     </g>
    </g>
   </g>
  </g>
 </g>
 <defs>
  <clipPath id="pb7d088f8f9">
   <rect x="64.885938" y="10.62751" width="558" height="163.08"/>
  </clipPath>
 </defs>
</svg>
