<?xml version="1.0" encoding="utf-8" standalone="no"?>
<!DOCTYPE svg PUBLIC "-//W3C//DTD SVG 1.1//EN"
  "http://www.w3.org/Graphics/SVG/1.1/DTD/svg11.dtd">
<svg xmlns:xlink="http://www.w3.org/1999/xlink" width="607.842188pt" height="194.158125pt" viewBox="0 0 607.842188 194.158125" xmlns="http://www.w3.org/2000/svg" version="1.1">
 <metadata>
  <rdf:RDF xmlns:dc="http://purl.org/dc/elements/1.1/" xmlns:cc="http://creativecommons.org/ns#" xmlns:rdf="http://www.w3.org/1999/02/22-rdf-syntax-ns#">
   <cc:Work>
    <dc:type rdf:resource="http://purl.org/dc/dcmitype/StillImage"/>
    <dc:date>2022-07-08T21:38:17.354763</dc:date>
    <dc:format>image/svg+xml</dc:format>
    <dc:creator>
     <cc:Agent>
      <dc:title>Matplotlib v3.5.1, https://matplotlib.org/</dc:title>
     </cc:Agent>
    </dc:creator>
   </cc:Work>
  </rdf:RDF>
 </metadata>
 <defs>
  <style type="text/css">*{stroke-linejoin: round; stroke-linecap: butt}</style>
 </defs>
 <g id="figure_1">
  <g id="patch_1">
   <path d="M 0 194.158125 
L 607.842188 194.158125 
L 607.842188 0 
L 0 0 
L 0 194.158125 
z
" style="fill: none"/>
  </g>
  <g id="axes_1">
   <g id="patch_2">
    <path d="M 42.642188 170.28 
L 600.642187 170.28 
L 600.642187 7.2 
L 42.642188 7.2 
z
" style="fill: #ffffff"/>
   </g>
   <g id="PolyCollection_1">
    <defs>
     <path id="mb747bc0fa3" d="M 99.771487 -70.418228 
L 97.112888 -70.418228 
L 93.672572 -71.140614 
L 86.182593 -71.863001 
L 75.24924 -72.585387 
L 64.779457 -73.307773 
L 58.660946 -74.03016 
L 57.258871 -74.752546 
L 58.405924 -75.474932 
L 60.188895 -76.197318 
L 61.850887 -76.919705 
L 63.279624 -77.642091 
L 64.512354 -78.364477 
L 65.575696 -79.086863 
L 66.487609 -79.80925 
L 67.282895 -80.531636 
L 68.010235 -81.254022 
L 68.700464 -81.976409 
L 69.352348 -82.698795 
L 69.952477 -83.421181 
L 70.491191 -84.143567 
L 70.963156 -84.865954 
L 71.375129 -85.58834 
L 71.748491 -86.310726 
L 72.096907 -87.033112 
L 72.416853 -87.755499 
L 72.71204 -88.477885 
L 72.99971 -89.200271 
L 73.275286 -89.922658 
L 73.507297 -90.645044 
L 73.691099 -91.36743 
L 73.864067 -92.089816 
L 74.053119 -92.812203 
L 74.248638 -93.534589 
L 74.431019 -94.256975 
L 74.593542 -94.979362 
L 74.737373 -95.701748 
L 74.860707 -96.424134 
L 74.965814 -97.14652 
L 75.062491 -97.868907 
L 75.15732 -98.591293 
L 75.253883 -99.313679 
L 75.349038 -100.036065 
L 75.425376 -100.758452 
L 75.468208 -101.480838 
L 75.48255 -102.203224 
L 75.483973 -102.925611 
L 75.482819 -103.647997 
L 75.484809 -104.370383 
L 75.502233 -105.092769 
L 75.544317 -105.815156 
L 75.591716 -106.537542 
L 75.610477 -107.259928 
L 75.59429 -107.982315 
L 75.563719 -108.704701 
L 75.534492 -109.427087 
L 75.503189 -110.149473 
L 75.449979 -110.87186 
L 75.359417 -111.594246 
L 75.247448 -112.316632 
L 75.149554 -113.039018 
L 75.079091 -113.761405 
L 75.016681 -114.483791 
L 74.928155 -115.206177 
L 74.779523 -115.928564 
L 74.565206 -116.65095 
L 74.325237 -117.373336 
L 74.102037 -118.095722 
L 73.901487 -118.818109 
L 73.712899 -119.540495 
L 73.523015 -120.262881 
L 73.315451 -120.985268 
L 73.093512 -121.707654 
L 72.882432 -122.43004 
L 72.690963 -123.152426 
L 72.491062 -123.874813 
L 72.240703 -124.597199 
L 71.918501 -125.319585 
L 71.534601 -126.041971 
L 71.105338 -126.764358 
L 70.636402 -127.486744 
L 70.145034 -128.20913 
L 69.658131 -128.931517 
L 69.167706 -129.653903 
L 68.624337 -130.376289 
L 67.984695 -131.098675 
L 67.242444 -131.821062 
L 66.410268 -132.543448 
L 65.490995 -133.265834 
L 64.475738 -133.988221 
L 63.347028 -134.710607 
L 62.058578 -135.432993 
L 60.542759 -136.155379 
L 58.874013 -136.877766 
L 57.759619 -137.600152 
L 59.09055 -138.322538 
L 65.079397 -139.044924 
L 75.42742 -139.767311 
L 86.274259 -140.489697 
L 93.711214 -141.212083 
L 97.125152 -141.93447 
L 99.759223 -141.93447 
L 99.759223 -141.93447 
L 103.173161 -141.212083 
L 110.610116 -140.489697 
L 121.456955 -139.767311 
L 131.804978 -139.044924 
L 137.793825 -138.322538 
L 139.124756 -137.600152 
L 138.010362 -136.877766 
L 136.341616 -136.155379 
L 134.825797 -135.432993 
L 133.537347 -134.710607 
L 132.408637 -133.988221 
L 131.39338 -133.265834 
L 130.474107 -132.543448 
L 129.641931 -131.821062 
L 128.89968 -131.098675 
L 128.260038 -130.376289 
L 127.716669 -129.653903 
L 127.226244 -128.931517 
L 126.739341 -128.20913 
L 126.247973 -127.486744 
L 125.779037 -126.764358 
L 125.349774 -126.041971 
L 124.965874 -125.319585 
L 124.643672 -124.597199 
L 124.393313 -123.874813 
L 124.193412 -123.152426 
L 124.001943 -122.43004 
L 123.790863 -121.707654 
L 123.568924 -120.985268 
L 123.36136 -120.262881 
L 123.171476 -119.540495 
L 122.982888 -118.818109 
L 122.782338 -118.095722 
L 122.559138 -117.373336 
L 122.319169 -116.65095 
L 122.104852 -115.928564 
L 121.95622 -115.206177 
L 121.867694 -114.483791 
L 121.805284 -113.761405 
L 121.734821 -113.039018 
L 121.636927 -112.316632 
L 121.524958 -111.594246 
L 121.434396 -110.87186 
L 121.381186 -110.149473 
L 121.349883 -109.427087 
L 121.320656 -108.704701 
L 121.290085 -107.982315 
L 121.273898 -107.259928 
L 121.292659 -106.537542 
L 121.340058 -105.815156 
L 121.382142 -105.092769 
L 121.399566 -104.370383 
L 121.401556 -103.647997 
L 121.400402 -102.925611 
L 121.401825 -102.203224 
L 121.416167 -101.480838 
L 121.458999 -100.758452 
L 121.535337 -100.036065 
L 121.630492 -99.313679 
L 121.727055 -98.591293 
L 121.821884 -97.868907 
L 121.918561 -97.14652 
L 122.023668 -96.424134 
L 122.147002 -95.701748 
L 122.290833 -94.979362 
L 122.453356 -94.256975 
L 122.635737 -93.534589 
L 122.831256 -92.812203 
L 123.020308 -92.089816 
L 123.193276 -91.36743 
L 123.377078 -90.645044 
L 123.609089 -89.922658 
L 123.884665 -89.200271 
L 124.172335 -88.477885 
L 124.467522 -87.755499 
L 124.787468 -87.033112 
L 125.135884 -86.310726 
L 125.509246 -85.58834 
L 125.921219 -84.865954 
L 126.393184 -84.143567 
L 126.931898 -83.421181 
L 127.532027 -82.698795 
L 128.183911 -81.976409 
L 128.87414 -81.254022 
L 129.60148 -80.531636 
L 130.396766 -79.80925 
L 131.308679 -79.086863 
L 132.372021 -78.364477 
L 133.604751 -77.642091 
L 135.033488 -76.919705 
L 136.69548 -76.197318 
L 138.478451 -75.474932 
L 139.625504 -74.752546 
L 138.223429 -74.03016 
L 132.104918 -73.307773 
L 121.635135 -72.585387 
L 110.701782 -71.863001 
L 103.211803 -71.140614 
L 99.771487 -70.418228 
z
" style="stroke: #3f3f3f; stroke-width: 1.5"/>
    </defs>
    <g clip-path="url(#p9d921ea27a)">
     <use xlink:href="#mb747bc0fa3" x="0" y="194.158125" style="fill: #3274a1; stroke: #3f3f3f; stroke-width: 1.5"/>
    </g>
   </g>
   <g id="PolyCollection_2">
    <defs>
     <path id="mc3fcb2ee60" d="M 210.150936 -70.509095 
L 209.933439 -70.509095 
L 209.547255 -71.229656 
L 208.41188 -71.950217 
L 206.034583 -72.670779 
L 202.391284 -73.39134 
L 198.137839 -74.111901 
L 194.14055 -74.832463 
L 190.898541 -75.553024 
L 188.4345 -76.273586 
L 186.53207 -76.994147 
L 185.003857 -77.714708 
L 183.796819 -78.43527 
L 182.898933 -79.155831 
L 182.228966 -79.876392 
L 181.672946 -80.596954 
L 181.173303 -81.317515 
L 180.734563 -82.038076 
L 180.368956 -82.758638 
L 180.061709 -83.479199 
L 179.79178 -84.199761 
L 179.565176 -84.920322 
L 179.3996 -85.640883 
L 179.276808 -86.361445 
L 179.152459 -87.082006 
L 179.032727 -87.802567 
L 178.977021 -88.523129 
L 178.997967 -89.24369 
L 179.023072 -89.964251 
L 178.978599 -90.684813 
L 178.871816 -91.405374 
L 178.772364 -92.125936 
L 178.73682 -92.846497 
L 178.766501 -93.567058 
L 178.822417 -94.28762 
L 178.865289 -95.008181 
L 178.877621 -95.728742 
L 178.85647 -96.449304 
L 178.812962 -97.169865 
L 178.784356 -97.890426 
L 178.802662 -98.610988 
L 178.853395 -99.331549 
L 178.905784 -100.052111 
L 178.955651 -100.772672 
L 179.007657 -101.493233 
L 179.052886 -102.213795 
L 179.077504 -102.934356 
L 179.066164 -103.654917 
L 179.014836 -104.375479 
L 178.949321 -105.09604 
L 178.897799 -105.816601 
L 178.868808 -106.537163 
L 178.872119 -107.257724 
L 178.917586 -107.978286 
L 178.994858 -108.698847 
L 179.086808 -109.419408 
L 179.183828 -110.13997 
L 179.266293 -110.860531 
L 179.306884 -111.581092 
L 179.291814 -112.301654 
L 179.226153 -113.022215 
L 179.13449 -113.742777 
L 179.047698 -114.463338 
L 178.992887 -115.183899 
L 178.994998 -115.904461 
L 179.04336 -116.625022 
L 179.077014 -117.345583 
L 179.056163 -118.066145 
L 179.014545 -118.786706 
L 179.004358 -119.507267 
L 179.020519 -120.227829 
L 179.026246 -120.94839 
L 179.033197 -121.668952 
L 179.076915 -122.389513 
L 179.160505 -123.110074 
L 179.285558 -123.830636 
L 179.447771 -124.551197 
L 179.610543 -125.271758 
L 179.747013 -125.99232 
L 179.85825 -126.712881 
L 179.975106 -127.433442 
L 180.171241 -128.154004 
L 180.508323 -128.874565 
L 180.9701 -129.595127 
L 181.46919 -130.315688 
L 181.916933 -131.036249 
L 182.320725 -131.756811 
L 182.785653 -132.477372 
L 183.398932 -133.197933 
L 184.188392 -133.918495 
L 185.208793 -134.639056 
L 186.585573 -135.359617 
L 188.454547 -136.080179 
L 190.926754 -136.80074 
L 194.109545 -137.521302 
L 198.005723 -138.241863 
L 202.223993 -138.962424 
L 205.921052 -139.682986 
L 208.368258 -140.403547 
L 209.539066 -141.124108 
L 209.933532 -141.84467 
L 210.150843 -141.84467 
L 210.150843 -141.84467 
L 210.545309 -141.124108 
L 211.716117 -140.403547 
L 214.163323 -139.682986 
L 217.860382 -138.962424 
L 222.078652 -138.241863 
L 225.97483 -137.521302 
L 229.157621 -136.80074 
L 231.629828 -136.080179 
L 233.498802 -135.359617 
L 234.875582 -134.639056 
L 235.895983 -133.918495 
L 236.685443 -133.197933 
L 237.298722 -132.477372 
L 237.76365 -131.756811 
L 238.167442 -131.036249 
L 238.615185 -130.315688 
L 239.114275 -129.595127 
L 239.576052 -128.874565 
L 239.913134 -128.154004 
L 240.109269 -127.433442 
L 240.226125 -126.712881 
L 240.337362 -125.99232 
L 240.473832 -125.271758 
L 240.636604 -124.551197 
L 240.798817 -123.830636 
L 240.92387 -123.110074 
L 241.00746 -122.389513 
L 241.051178 -121.668952 
L 241.058129 -120.94839 
L 241.063856 -120.227829 
L 241.080017 -119.507267 
L 241.06983 -118.786706 
L 241.028212 -118.066145 
L 241.007361 -117.345583 
L 241.041015 -116.625022 
L 241.089377 -115.904461 
L 241.091488 -115.183899 
L 241.036677 -114.463338 
L 240.949885 -113.742777 
L 240.858222 -113.022215 
L 240.792561 -112.301654 
L 240.777491 -111.581092 
L 240.818082 -110.860531 
L 240.900547 -110.13997 
L 240.997567 -109.419408 
L 241.089517 -108.698847 
L 241.166789 -107.978286 
L 241.212256 -107.257724 
L 241.215567 -106.537163 
L 241.186576 -105.816601 
L 241.135054 -105.09604 
L 241.069539 -104.375479 
L 241.018211 -103.654917 
L 241.006871 -102.934356 
L 241.031489 -102.213795 
L 241.076718 -101.493233 
L 241.128724 -100.772672 
L 241.178591 -100.052111 
L 241.23098 -99.331549 
L 241.281713 -98.610988 
L 241.300019 -97.890426 
L 241.271413 -97.169865 
L 241.227905 -96.449304 
L 241.206754 -95.728742 
L 241.219086 -95.008181 
L 241.261958 -94.28762 
L 241.317874 -93.567058 
L 241.347555 -92.846497 
L 241.312011 -92.125936 
L 241.212559 -91.405374 
L 241.105776 -90.684813 
L 241.061303 -89.964251 
L 241.086408 -89.24369 
L 241.107354 -88.523129 
L 241.051648 -87.802567 
L 240.931916 -87.082006 
L 240.807567 -86.361445 
L 240.684775 -85.640883 
L 240.519199 -84.920322 
L 240.292595 -84.199761 
L 240.022666 -83.479199 
L 239.715419 -82.758638 
L 239.349812 -82.038076 
L 238.911072 -81.317515 
L 238.411429 -80.596954 
L 237.855409 -79.876392 
L 237.185442 -79.155831 
L 236.287556 -78.43527 
L 235.080518 -77.714708 
L 233.552305 -76.994147 
L 231.649875 -76.273586 
L 229.185834 -75.553024 
L 225.943825 -74.832463 
L 221.946536 -74.111901 
L 217.693091 -73.39134 
L 214.049792 -72.670779 
L 211.672495 -71.950217 
L 210.53712 -71.229656 
L 210.150936 -70.509095 
z
" style="stroke: #3f3f3f; stroke-width: 1.5"/>
    </defs>
    <g clip-path="url(#p9d921ea27a)">
     <use xlink:href="#mc3fcb2ee60" x="0" y="194.158125" style="fill: #3274a1; stroke: #3f3f3f; stroke-width: 1.5"/>
    </g>
   </g>
   <g id="PolyCollection_3">
    <defs>
     <path id="mce114fcbcd" d="M 321.648425 -71.125004 
L 321.63595 -71.125004 
L 321.600301 -71.833193 
L 321.457999 -72.541383 
L 321.082411 -73.249572 
L 320.376939 -73.957762 
L 319.323693 -74.665951 
L 317.936699 -75.37414 
L 316.273049 -76.08233 
L 314.456162 -76.790519 
L 312.576846 -77.498709 
L 310.656581 -78.206898 
L 308.732012 -78.915087 
L 306.8841 -79.623277 
L 305.155386 -80.331466 
L 303.505027 -81.039656 
L 301.889215 -81.747845 
L 300.290088 -82.456034 
L 298.723226 -83.164224 
L 297.222703 -83.872413 
L 295.790147 -84.580603 
L 294.451505 -85.288792 
L 293.267292 -85.996981 
L 292.212392 -86.705171 
L 291.191814 -87.41336 
L 290.188013 -88.12155 
L 289.230816 -88.829739 
L 288.335726 -89.537928 
L 287.51512 -90.246118 
L 286.764918 -90.954307 
L 286.091137 -91.662497 
L 285.49654 -92.370686 
L 284.949931 -93.078875 
L 284.403098 -93.787065 
L 283.824288 -94.495254 
L 283.24128 -95.203444 
L 282.735997 -95.911633 
L 282.350981 -96.619822 
L 282.050371 -97.328012 
L 281.787252 -98.036201 
L 281.49595 -98.744391 
L 281.084544 -99.45258 
L 280.59442 -100.160769 
L 280.215064 -100.868959 
L 280.036664 -101.577148 
L 279.977452 -102.285338 
L 279.926901 -102.993527 
L 279.837347 -103.701716 
L 279.727968 -104.409906 
L 279.673395 -105.118095 
L 279.690413 -105.826285 
L 279.703865 -106.534474 
L 279.699583 -107.242663 
L 279.735523 -107.950853 
L 279.798723 -108.659042 
L 279.904516 -109.367232 
L 280.104093 -110.075421 
L 280.32109 -110.78361 
L 280.495805 -111.4918 
L 280.704848 -112.199989 
L 281.010064 -112.908179 
L 281.357564 -113.616368 
L 281.679124 -114.324557 
L 281.967631 -115.032747 
L 282.277175 -115.740936 
L 282.669706 -116.449126 
L 283.125945 -117.157315 
L 283.581016 -117.865504 
L 284.046489 -118.573694 
L 284.594838 -119.281883 
L 285.220371 -119.990073 
L 285.861146 -120.698262 
L 286.552185 -121.406451 
L 287.38923 -122.114641 
L 288.342075 -122.82283 
L 289.269369 -123.53102 
L 290.097197 -124.239209 
L 290.906329 -124.947398 
L 291.850512 -125.655588 
L 292.97831 -126.363777 
L 294.213234 -127.071967 
L 295.464826 -127.780156 
L 296.732602 -128.488345 
L 298.099434 -129.196535 
L 299.615993 -129.904724 
L 301.260646 -130.612914 
L 302.975866 -131.321103 
L 304.711236 -132.029292 
L 306.491532 -132.737482 
L 308.38061 -133.445671 
L 310.383174 -134.153861 
L 312.436754 -134.86205 
L 314.440899 -135.570239 
L 316.304325 -136.278429 
L 317.959884 -136.986618 
L 319.325214 -137.694808 
L 320.346924 -138.402997 
L 321.035925 -139.111186 
L 321.426275 -139.819376 
L 321.589094 -140.527565 
L 321.633801 -141.235755 
L 321.650574 -141.235755 
L 321.650574 -141.235755 
L 321.695281 -140.527565 
L 321.8581 -139.819376 
L 322.24845 -139.111186 
L 322.937451 -138.402997 
L 323.959161 -137.694808 
L 325.324491 -136.986618 
L 326.98005 -136.278429 
L 328.843476 -135.570239 
L 330.847621 -134.86205 
L 332.901201 -134.153861 
L 334.903765 -133.445671 
L 336.792843 -132.737482 
L 338.573139 -132.029292 
L 340.308509 -131.321103 
L 342.023729 -130.612914 
L 343.668382 -129.904724 
L 345.184941 -129.196535 
L 346.551773 -128.488345 
L 347.819549 -127.780156 
L 349.071141 -127.071967 
L 350.306065 -126.363777 
L 351.433863 -125.655588 
L 352.378046 -124.947398 
L 353.187178 -124.239209 
L 354.015006 -123.53102 
L 354.9423 -122.82283 
L 355.895145 -122.114641 
L 356.73219 -121.406451 
L 357.423229 -120.698262 
L 358.064004 -119.990073 
L 358.689537 -119.281883 
L 359.237886 -118.573694 
L 359.703359 -117.865504 
L 360.15843 -117.157315 
L 360.614669 -116.449126 
L 361.0072 -115.740936 
L 361.316744 -115.032747 
L 361.605251 -114.324557 
L 361.926811 -113.616368 
L 362.274311 -112.908179 
L 362.579527 -112.199989 
L 362.78857 -111.4918 
L 362.963285 -110.78361 
L 363.180282 -110.075421 
L 363.379859 -109.367232 
L 363.485652 -108.659042 
L 363.548852 -107.950853 
L 363.584792 -107.242663 
L 363.58051 -106.534474 
L 363.593962 -105.826285 
L 363.61098 -105.118095 
L 363.556407 -104.409906 
L 363.447028 -103.701716 
L 363.357474 -102.993527 
L 363.306923 -102.285338 
L 363.247711 -101.577148 
L 363.069311 -100.868959 
L 362.689955 -100.160769 
L 362.199831 -99.45258 
L 361.788425 -98.744391 
L 361.497123 -98.036201 
L 361.234004 -97.328012 
L 360.933394 -96.619822 
L 360.548378 -95.911633 
L 360.043095 -95.203444 
L 359.460087 -94.495254 
L 358.881277 -93.787065 
L 358.334444 -93.078875 
L 357.787835 -92.370686 
L 357.193238 -91.662497 
L 356.519457 -90.954307 
L 355.769255 -90.246118 
L 354.948649 -89.537928 
L 354.053559 -88.829739 
L 353.096362 -88.12155 
L 352.092561 -87.41336 
L 351.071983 -86.705171 
L 350.017083 -85.996981 
L 348.83287 -85.288792 
L 347.494228 -84.580603 
L 346.061672 -83.872413 
L 344.561149 -83.164224 
L 342.994287 -82.456034 
L 341.39516 -81.747845 
L 339.779348 -81.039656 
L 338.128989 -80.331466 
L 336.400275 -79.623277 
L 334.552363 -78.915087 
L 332.627794 -78.206898 
L 330.707529 -77.498709 
L 328.828213 -76.790519 
L 327.011326 -76.08233 
L 325.347676 -75.37414 
L 323.960682 -74.665951 
L 322.907436 -73.957762 
L 322.201964 -73.249572 
L 321.826376 -72.541383 
L 321.684074 -71.833193 
L 321.648425 -71.125004 
z
" style="stroke: #3f3f3f; stroke-width: 1.5"/>
    </defs>
    <g clip-path="url(#p9d921ea27a)">
     <use xlink:href="#mce114fcbcd" x="0" y="194.158125" style="fill: #3274a1; stroke: #3f3f3f; stroke-width: 1.5"/>
    </g>
   </g>
   <g id="PolyCollection_4">
    <defs>
     <path id="mda5f972014" d="M 433.245731 -71.004971 
L 433.238644 -71.004971 
L 433.220114 -71.713333 
L 433.143731 -72.421695 
L 432.919161 -73.130057 
L 432.432184 -73.838418 
L 431.611361 -74.54678 
L 430.457678 -75.255142 
L 429.013425 -75.963504 
L 427.356407 -76.671866 
L 425.604325 -77.380227 
L 423.847011 -78.088589 
L 422.097402 -78.796951 
L 420.336787 -79.505313 
L 418.568777 -80.213674 
L 416.821632 -80.922036 
L 415.114904 -81.630398 
L 413.435757 -82.33876 
L 411.78207 -83.047121 
L 410.208743 -83.755483 
L 408.75633 -84.463845 
L 407.393097 -85.172207 
L 406.066177 -85.880568 
L 404.757543 -86.58893 
L 403.47512 -87.297292 
L 402.230684 -88.005654 
L 401.107405 -88.714015 
L 400.202936 -89.422377 
L 399.43695 -90.130739 
L 398.637596 -90.839101 
L 397.773597 -91.547463 
L 396.901469 -92.255824 
L 396.055873 -92.964186 
L 395.308022 -93.672548 
L 394.724659 -94.38091 
L 394.257958 -95.089271 
L 393.799823 -95.797633 
L 393.279919 -96.505995 
L 392.660472 -97.214357 
L 391.95349 -97.922718 
L 391.268498 -98.63108 
L 390.722692 -99.339442 
L 390.324693 -100.047804 
L 390.005698 -100.756165 
L 389.727054 -101.464527 
L 389.541047 -102.172889 
L 389.493454 -102.881251 
L 389.476626 -103.589612 
L 389.352275 -104.297974 
L 389.14137 -105.006336 
L 388.91835 -105.714698 
L 388.709356 -106.42306 
L 388.602188 -107.131421 
L 388.715841 -107.839783 
L 389.009168 -108.548145 
L 389.327672 -109.256507 
L 389.612288 -109.964868 
L 389.868605 -110.67323 
L 390.052682 -111.381592 
L 390.200084 -112.089954 
L 390.477744 -112.798315 
L 390.95302 -113.506677 
L 391.522183 -114.215039 
L 392.09081 -114.923401 
L 392.639362 -115.631762 
L 393.209464 -116.340124 
L 393.856901 -117.048486 
L 394.546417 -117.756848 
L 395.249656 -118.465209 
L 396.033147 -119.173571 
L 396.934587 -119.881933 
L 397.919776 -120.590295 
L 398.926043 -121.298657 
L 399.907201 -122.007018 
L 400.87321 -122.71538 
L 401.880307 -123.423742 
L 402.987383 -124.132104 
L 404.176287 -124.840465 
L 405.366512 -125.548827 
L 406.549707 -126.257189 
L 407.797586 -126.965551 
L 409.1362 -127.673912 
L 410.531441 -128.382274 
L 411.946479 -129.090636 
L 413.37259 -129.798998 
L 414.84379 -130.507359 
L 416.376703 -131.215721 
L 417.952277 -131.924083 
L 419.569009 -132.632445 
L 421.245982 -133.340806 
L 422.987887 -134.049168 
L 424.762607 -134.75753 
L 426.522926 -135.465892 
L 428.215845 -136.174254 
L 429.767024 -136.882615 
L 431.089181 -137.590977 
L 432.098963 -138.299339 
L 432.749257 -139.007701 
L 433.078678 -139.716062 
L 433.202371 -140.424424 
L 433.23533 -141.132786 
L 433.249045 -141.132786 
L 433.249045 -141.132786 
L 433.282004 -140.424424 
L 433.405697 -139.716062 
L 433.735118 -139.007701 
L 434.385412 -138.299339 
L 435.395194 -137.590977 
L 436.717351 -136.882615 
L 438.26853 -136.174254 
L 439.961449 -135.465892 
L 441.721768 -134.75753 
L 443.496488 -134.049168 
L 445.238393 -133.340806 
L 446.915366 -132.632445 
L 448.532098 -131.924083 
L 450.107672 -131.215721 
L 451.640585 -130.507359 
L 453.111785 -129.798998 
L 454.537896 -129.090636 
L 455.952934 -128.382274 
L 457.348175 -127.673912 
L 458.686789 -126.965551 
L 459.934668 -126.257189 
L 461.117863 -125.548827 
L 462.308088 -124.840465 
L 463.496992 -124.132104 
L 464.604068 -123.423742 
L 465.611165 -122.71538 
L 466.577174 -122.007018 
L 467.558332 -121.298657 
L 468.564599 -120.590295 
L 469.549788 -119.881933 
L 470.451228 -119.173571 
L 471.234719 -118.465209 
L 471.937958 -117.756848 
L 472.627474 -117.048486 
L 473.274911 -116.340124 
L 473.845013 -115.631762 
L 474.393565 -114.923401 
L 474.962192 -114.215039 
L 475.531355 -113.506677 
L 476.006631 -112.798315 
L 476.284291 -112.089954 
L 476.431693 -111.381592 
L 476.61577 -110.67323 
L 476.872087 -109.964868 
L 477.156703 -109.256507 
L 477.475207 -108.548145 
L 477.768534 -107.839783 
L 477.882187 -107.131421 
L 477.775019 -106.42306 
L 477.566025 -105.714698 
L 477.343005 -105.006336 
L 477.1321 -104.297974 
L 477.007749 -103.589612 
L 476.990921 -102.881251 
L 476.943328 -102.172889 
L 476.757321 -101.464527 
L 476.478677 -100.756165 
L 476.159682 -100.047804 
L 475.761683 -99.339442 
L 475.215877 -98.63108 
L 474.530885 -97.922718 
L 473.823903 -97.214357 
L 473.204456 -96.505995 
L 472.684552 -95.797633 
L 472.226417 -95.089271 
L 471.759716 -94.38091 
L 471.176353 -93.672548 
L 470.428502 -92.964186 
L 469.582906 -92.255824 
L 468.710778 -91.547463 
L 467.846779 -90.839101 
L 467.047425 -90.130739 
L 466.281439 -89.422377 
L 465.37697 -88.714015 
L 464.253691 -88.005654 
L 463.009255 -87.297292 
L 461.726832 -86.58893 
L 460.418198 -85.880568 
L 459.091278 -85.172207 
L 457.728045 -84.463845 
L 456.275632 -83.755483 
L 454.702305 -83.047121 
L 453.048618 -82.33876 
L 451.369471 -81.630398 
L 449.662743 -80.922036 
L 447.915598 -80.213674 
L 446.147588 -79.505313 
L 444.386973 -78.796951 
L 442.637364 -78.088589 
L 440.88005 -77.380227 
L 439.127968 -76.671866 
L 437.47095 -75.963504 
L 436.026697 -75.255142 
L 434.873014 -74.54678 
L 434.052191 -73.838418 
L 433.565214 -73.130057 
L 433.340644 -72.421695 
L 433.264261 -71.713333 
L 433.245731 -71.004971 
z
" style="stroke: #3f3f3f; stroke-width: 1.5"/>
    </defs>
    <g clip-path="url(#p9d921ea27a)">
     <use xlink:href="#mda5f972014" x="0" y="194.158125" style="fill: #3274a1; stroke: #3f3f3f; stroke-width: 1.5"/>
    </g>
   </g>
   <g id="PolyCollection_5">
    <defs>
     <path id="m4f71c89eec" d="M 544.843686 -31.290852 
L 544.840689 -31.290852 
L 544.836117 -32.788373 
L 544.824516 -34.285894 
L 544.803763 -35.783414 
L 544.779879 -37.280935 
L 544.767007 -38.778456 
L 544.769212 -40.275976 
L 544.770818 -41.773497 
L 544.757501 -43.271018 
L 544.730042 -44.768538 
L 544.686921 -46.266059 
L 544.619192 -47.76358 
L 544.540762 -49.2611 
L 544.47696 -50.758621 
L 544.41161 -52.256142 
L 544.311088 -53.753662 
L 544.178187 -55.251183 
L 544.022935 -56.748704 
L 543.819605 -58.246224 
L 543.543709 -59.743745 
L 543.207202 -61.241265 
L 542.827194 -62.738786 
L 542.407048 -64.236307 
L 541.927685 -65.733827 
L 541.33848 -67.231348 
L 540.616128 -68.728869 
L 539.815286 -70.226389 
L 538.968826 -71.72391 
L 537.987077 -73.221431 
L 536.757175 -74.718951 
L 535.285699 -76.216472 
L 533.654139 -77.713993 
L 531.910862 -79.211513 
L 530.067861 -80.709034 
L 528.113479 -82.206555 
L 526.014004 -83.704075 
L 523.778239 -85.201596 
L 521.559116 -86.699117 
L 519.50753 -88.196637 
L 517.484815 -89.694158 
L 515.209507 -91.191679 
L 512.684504 -92.689199 
L 510.176677 -94.18672 
L 507.885395 -95.684241 
L 505.971275 -97.181761 
L 504.620115 -98.679282 
L 503.802026 -100.176803 
L 503.209839 -101.674323 
L 502.624653 -103.171844 
L 502.217391 -104.669365 
L 502.251232 -106.166885 
L 502.697607 -107.664406 
L 503.458936 -109.161927 
L 504.550372 -110.659447 
L 505.869497 -112.156968 
L 507.327498 -113.654489 
L 508.937524 -115.152009 
L 510.500354 -116.64953 
L 511.771783 -118.147051 
L 512.902101 -119.644571 
L 514.326491 -121.142092 
L 516.335337 -122.639613 
L 518.722105 -124.137133 
L 520.98697 -125.634654 
L 523.003582 -127.132175 
L 525.022726 -128.629695 
L 527.098348 -130.127216 
L 529.088832 -131.624737 
L 531.003602 -133.122257 
L 532.850049 -134.619778 
L 534.454802 -136.117299 
L 535.72796 -137.614819 
L 536.805797 -139.11234 
L 537.83887 -140.609861 
L 538.856537 -142.107381 
L 539.816608 -143.604902 
L 540.671101 -145.102423 
L 541.405355 -146.599943 
L 542.028269 -148.097464 
L 542.550227 -149.594985 
L 542.984324 -151.092505 
L 543.34616 -152.590026 
L 543.648196 -154.087546 
L 543.879137 -155.585067 
L 544.041141 -157.082588 
L 544.180498 -158.580108 
L 544.316902 -160.077629 
L 544.422311 -161.57515 
L 544.489624 -163.07267 
L 544.550545 -164.570191 
L 544.624171 -166.067712 
L 544.691314 -167.565232 
L 544.73465 -169.062753 
L 544.766042 -170.560274 
L 544.795754 -172.057794 
L 544.817182 -173.555315 
L 544.827708 -175.052836 
L 544.83356 -176.550356 
L 544.83821 -178.047877 
L 544.840988 -179.545398 
L 544.843387 -179.545398 
L 544.843387 -179.545398 
L 544.846165 -178.047877 
L 544.850815 -176.550356 
L 544.856667 -175.052836 
L 544.867193 -173.555315 
L 544.888621 -172.057794 
L 544.918333 -170.560274 
L 544.949725 -169.062753 
L 544.993061 -167.565232 
L 545.060204 -166.067712 
L 545.13383 -164.570191 
L 545.194751 -163.07267 
L 545.262064 -161.57515 
L 545.367473 -160.077629 
L 545.503877 -158.580108 
L 545.643234 -157.082588 
L 545.805238 -155.585067 
L 546.036179 -154.087546 
L 546.338215 -152.590026 
L 546.700051 -151.092505 
L 547.134148 -149.594985 
L 547.656106 -148.097464 
L 548.27902 -146.599943 
L 549.013274 -145.102423 
L 549.867767 -143.604902 
L 550.827838 -142.107381 
L 551.845505 -140.609861 
L 552.878578 -139.11234 
L 553.956415 -137.614819 
L 555.229573 -136.117299 
L 556.834326 -134.619778 
L 558.680773 -133.122257 
L 560.595543 -131.624737 
L 562.586027 -130.127216 
L 564.661649 -128.629695 
L 566.680793 -127.132175 
L 568.697405 -125.634654 
L 570.96227 -124.137133 
L 573.349038 -122.639613 
L 575.357884 -121.142092 
L 576.782274 -119.644571 
L 577.912592 -118.147051 
L 579.184021 -116.64953 
L 580.746851 -115.152009 
L 582.356877 -113.654489 
L 583.814878 -112.156968 
L 585.134003 -110.659447 
L 586.225439 -109.161927 
L 586.986768 -107.664406 
L 587.433143 -106.166885 
L 587.466984 -104.669365 
L 587.059722 -103.171844 
L 586.474536 -101.674323 
L 585.882349 -100.176803 
L 585.06426 -98.679282 
L 583.7131 -97.181761 
L 581.79898 -95.684241 
L 579.507698 -94.18672 
L 576.999871 -92.689199 
L 574.474868 -91.191679 
L 572.19956 -89.694158 
L 570.176845 -88.196637 
L 568.125259 -86.699117 
L 565.906136 -85.201596 
L 563.670371 -83.704075 
L 561.570896 -82.206555 
L 559.616514 -80.709034 
L 557.773513 -79.211513 
L 556.030236 -77.713993 
L 554.398676 -76.216472 
L 552.9272 -74.718951 
L 551.697298 -73.221431 
L 550.715549 -71.72391 
L 549.869089 -70.226389 
L 549.068247 -68.728869 
L 548.345895 -67.231348 
L 547.75669 -65.733827 
L 547.277327 -64.236307 
L 546.857181 -62.738786 
L 546.477173 -61.241265 
L 546.140666 -59.743745 
L 545.86477 -58.246224 
L 545.66144 -56.748704 
L 545.506188 -55.251183 
L 545.373287 -53.753662 
L 545.272765 -52.256142 
L 545.207415 -50.758621 
L 545.143613 -49.2611 
L 545.065183 -47.76358 
L 544.997454 -46.266059 
L 544.954333 -44.768538 
L 544.926874 -43.271018 
L 544.913557 -41.773497 
L 544.915163 -40.275976 
L 544.917368 -38.778456 
L 544.904496 -37.280935 
L 544.880612 -35.783414 
L 544.859859 -34.285894 
L 544.848258 -32.788373 
L 544.843686 -31.290852 
z
" style="stroke: #3f3f3f; stroke-width: 1.5"/>
    </defs>
    <g clip-path="url(#p9d921ea27a)">
     <use xlink:href="#m4f71c89eec" x="0" y="194.158125" style="fill: #3274a1; stroke: #3f3f3f; stroke-width: 1.5"/>
    </g>
   </g>
   <g id="matplotlib.axis_1">
    <g id="xtick_1">
     <g id="line2d_1">
      <defs>
       <path id="m0b1cd90b99" d="M 0 0 
L 0 3.5 
" style="stroke: #000000; stroke-width: 0.8"/>
      </defs>
      <g>
       <use xlink:href="#m0b1cd90b99" x="98.442188" y="170.28" style="stroke: #000000; stroke-width: 0.8"/>
      </g>
     </g>
     <g id="text_1">
      <!-- (1, tanh) -->
      <g transform="translate(76.819531 184.878438)scale(0.1 -0.1)">
       <defs>
        <path id="DejaVuSans-28" d="M 1984 4856 
Q 1566 4138 1362 3434 
Q 1159 2731 1159 2009 
Q 1159 1288 1364 580 
Q 1569 -128 1984 -844 
L 1484 -844 
Q 1016 -109 783 600 
Q 550 1309 550 2009 
Q 550 2706 781 3412 
Q 1013 4119 1484 4856 
L 1984 4856 
z
" transform="scale(0.015625)"/>
        <path id="DejaVuSans-31" d="M 794 531 
L 1825 531 
L 1825 4091 
L 703 3866 
L 703 4441 
L 1819 4666 
L 2450 4666 
L 2450 531 
L 3481 531 
L 3481 0 
L 794 0 
L 794 531 
z
" transform="scale(0.015625)"/>
        <path id="DejaVuSans-2c" d="M 750 794 
L 1409 794 
L 1409 256 
L 897 -744 
L 494 -744 
L 750 256 
L 750 794 
z
" transform="scale(0.015625)"/>
        <path id="DejaVuSans-20" transform="scale(0.015625)"/>
        <path id="DejaVuSans-74" d="M 1172 4494 
L 1172 3500 
L 2356 3500 
L 2356 3053 
L 1172 3053 
L 1172 1153 
Q 1172 725 1289 603 
Q 1406 481 1766 481 
L 2356 481 
L 2356 0 
L 1766 0 
Q 1100 0 847 248 
Q 594 497 594 1153 
L 594 3053 
L 172 3053 
L 172 3500 
L 594 3500 
L 594 4494 
L 1172 4494 
z
" transform="scale(0.015625)"/>
        <path id="DejaVuSans-61" d="M 2194 1759 
Q 1497 1759 1228 1600 
Q 959 1441 959 1056 
Q 959 750 1161 570 
Q 1363 391 1709 391 
Q 2188 391 2477 730 
Q 2766 1069 2766 1631 
L 2766 1759 
L 2194 1759 
z
M 3341 1997 
L 3341 0 
L 2766 0 
L 2766 531 
Q 2569 213 2275 61 
Q 1981 -91 1556 -91 
Q 1019 -91 701 211 
Q 384 513 384 1019 
Q 384 1609 779 1909 
Q 1175 2209 1959 2209 
L 2766 2209 
L 2766 2266 
Q 2766 2663 2505 2880 
Q 2244 3097 1772 3097 
Q 1472 3097 1187 3025 
Q 903 2953 641 2809 
L 641 3341 
Q 956 3463 1253 3523 
Q 1550 3584 1831 3584 
Q 2591 3584 2966 3190 
Q 3341 2797 3341 1997 
z
" transform="scale(0.015625)"/>
        <path id="DejaVuSans-6e" d="M 3513 2113 
L 3513 0 
L 2938 0 
L 2938 2094 
Q 2938 2591 2744 2837 
Q 2550 3084 2163 3084 
Q 1697 3084 1428 2787 
Q 1159 2491 1159 1978 
L 1159 0 
L 581 0 
L 581 3500 
L 1159 3500 
L 1159 2956 
Q 1366 3272 1645 3428 
Q 1925 3584 2291 3584 
Q 2894 3584 3203 3211 
Q 3513 2838 3513 2113 
z
" transform="scale(0.015625)"/>
        <path id="DejaVuSans-68" d="M 3513 2113 
L 3513 0 
L 2938 0 
L 2938 2094 
Q 2938 2591 2744 2837 
Q 2550 3084 2163 3084 
Q 1697 3084 1428 2787 
Q 1159 2491 1159 1978 
L 1159 0 
L 581 0 
L 581 4863 
L 1159 4863 
L 1159 2956 
Q 1366 3272 1645 3428 
Q 1925 3584 2291 3584 
Q 2894 3584 3203 3211 
Q 3513 2838 3513 2113 
z
" transform="scale(0.015625)"/>
        <path id="DejaVuSans-29" d="M 513 4856 
L 1013 4856 
Q 1481 4119 1714 3412 
Q 1947 2706 1947 2009 
Q 1947 1309 1714 600 
Q 1481 -109 1013 -844 
L 513 -844 
Q 928 -128 1133 580 
Q 1338 1288 1338 2009 
Q 1338 2731 1133 3434 
Q 928 4138 513 4856 
z
" transform="scale(0.015625)"/>
       </defs>
       <use xlink:href="#DejaVuSans-28"/>
       <use xlink:href="#DejaVuSans-31" x="39.013672"/>
       <use xlink:href="#DejaVuSans-2c" x="102.636719"/>
       <use xlink:href="#DejaVuSans-20" x="134.423828"/>
       <use xlink:href="#DejaVuSans-74" x="166.210938"/>
       <use xlink:href="#DejaVuSans-61" x="205.419922"/>
       <use xlink:href="#DejaVuSans-6e" x="266.699219"/>
       <use xlink:href="#DejaVuSans-68" x="330.078125"/>
       <use xlink:href="#DejaVuSans-29" x="393.457031"/>
      </g>
     </g>
    </g>
    <g id="xtick_2">
     <g id="line2d_2">
      <g>
       <use xlink:href="#m0b1cd90b99" x="210.042188" y="170.28" style="stroke: #000000; stroke-width: 0.8"/>
      </g>
     </g>
     <g id="text_2">
      <!-- (2, tanh) -->
      <g transform="translate(188.419531 184.878438)scale(0.1 -0.1)">
       <defs>
        <path id="DejaVuSans-32" d="M 1228 531 
L 3431 531 
L 3431 0 
L 469 0 
L 469 531 
Q 828 903 1448 1529 
Q 2069 2156 2228 2338 
Q 2531 2678 2651 2914 
Q 2772 3150 2772 3378 
Q 2772 3750 2511 3984 
Q 2250 4219 1831 4219 
Q 1534 4219 1204 4116 
Q 875 4013 500 3803 
L 500 4441 
Q 881 4594 1212 4672 
Q 1544 4750 1819 4750 
Q 2544 4750 2975 4387 
Q 3406 4025 3406 3419 
Q 3406 3131 3298 2873 
Q 3191 2616 2906 2266 
Q 2828 2175 2409 1742 
Q 1991 1309 1228 531 
z
" transform="scale(0.015625)"/>
       </defs>
       <use xlink:href="#DejaVuSans-28"/>
       <use xlink:href="#DejaVuSans-32" x="39.013672"/>
       <use xlink:href="#DejaVuSans-2c" x="102.636719"/>
       <use xlink:href="#DejaVuSans-20" x="134.423828"/>
       <use xlink:href="#DejaVuSans-74" x="166.210938"/>
       <use xlink:href="#DejaVuSans-61" x="205.419922"/>
       <use xlink:href="#DejaVuSans-6e" x="266.699219"/>
       <use xlink:href="#DejaVuSans-68" x="330.078125"/>
       <use xlink:href="#DejaVuSans-29" x="393.457031"/>
      </g>
     </g>
    </g>
    <g id="xtick_3">
     <g id="line2d_3">
      <g>
       <use xlink:href="#m0b1cd90b99" x="321.642188" y="170.28" style="stroke: #000000; stroke-width: 0.8"/>
      </g>
     </g>
     <g id="text_3">
      <!-- (3, tanh) -->
      <g transform="translate(300.019531 184.878438)scale(0.1 -0.1)">
       <defs>
        <path id="DejaVuSans-33" d="M 2597 2516 
Q 3050 2419 3304 2112 
Q 3559 1806 3559 1356 
Q 3559 666 3084 287 
Q 2609 -91 1734 -91 
Q 1441 -91 1130 -33 
Q 819 25 488 141 
L 488 750 
Q 750 597 1062 519 
Q 1375 441 1716 441 
Q 2309 441 2620 675 
Q 2931 909 2931 1356 
Q 2931 1769 2642 2001 
Q 2353 2234 1838 2234 
L 1294 2234 
L 1294 2753 
L 1863 2753 
Q 2328 2753 2575 2939 
Q 2822 3125 2822 3475 
Q 2822 3834 2567 4026 
Q 2313 4219 1838 4219 
Q 1578 4219 1281 4162 
Q 984 4106 628 3988 
L 628 4550 
Q 988 4650 1302 4700 
Q 1616 4750 1894 4750 
Q 2613 4750 3031 4423 
Q 3450 4097 3450 3541 
Q 3450 3153 3228 2886 
Q 3006 2619 2597 2516 
z
" transform="scale(0.015625)"/>
       </defs>
       <use xlink:href="#DejaVuSans-28"/>
       <use xlink:href="#DejaVuSans-33" x="39.013672"/>
       <use xlink:href="#DejaVuSans-2c" x="102.636719"/>
       <use xlink:href="#DejaVuSans-20" x="134.423828"/>
       <use xlink:href="#DejaVuSans-74" x="166.210938"/>
       <use xlink:href="#DejaVuSans-61" x="205.419922"/>
       <use xlink:href="#DejaVuSans-6e" x="266.699219"/>
       <use xlink:href="#DejaVuSans-68" x="330.078125"/>
       <use xlink:href="#DejaVuSans-29" x="393.457031"/>
      </g>
     </g>
    </g>
    <g id="xtick_4">
     <g id="line2d_4">
      <g>
       <use xlink:href="#m0b1cd90b99" x="433.242188" y="170.28" style="stroke: #000000; stroke-width: 0.8"/>
      </g>
     </g>
     <g id="text_4">
      <!-- (4, tanh) -->
      <g transform="translate(411.619531 184.878438)scale(0.1 -0.1)">
       <defs>
        <path id="DejaVuSans-34" d="M 2419 4116 
L 825 1625 
L 2419 1625 
L 2419 4116 
z
M 2253 4666 
L 3047 4666 
L 3047 1625 
L 3713 1625 
L 3713 1100 
L 3047 1100 
L 3047 0 
L 2419 0 
L 2419 1100 
L 313 1100 
L 313 1709 
L 2253 4666 
z
" transform="scale(0.015625)"/>
       </defs>
       <use xlink:href="#DejaVuSans-28"/>
       <use xlink:href="#DejaVuSans-34" x="39.013672"/>
       <use xlink:href="#DejaVuSans-2c" x="102.636719"/>
       <use xlink:href="#DejaVuSans-20" x="134.423828"/>
       <use xlink:href="#DejaVuSans-74" x="166.210938"/>
       <use xlink:href="#DejaVuSans-61" x="205.419922"/>
       <use xlink:href="#DejaVuSans-6e" x="266.699219"/>
       <use xlink:href="#DejaVuSans-68" x="330.078125"/>
       <use xlink:href="#DejaVuSans-29" x="393.457031"/>
      </g>
     </g>
    </g>
    <g id="xtick_5">
     <g id="line2d_5">
      <g>
       <use xlink:href="#m0b1cd90b99" x="544.842188" y="170.28" style="stroke: #000000; stroke-width: 0.8"/>
      </g>
     </g>
     <g id="text_5">
      <!-- logits -->
      <g transform="translate(531.265625 184.878438)scale(0.1 -0.1)">
       <defs>
        <path id="DejaVuSans-6c" d="M 603 4863 
L 1178 4863 
L 1178 0 
L 603 0 
L 603 4863 
z
" transform="scale(0.015625)"/>
        <path id="DejaVuSans-6f" d="M 1959 3097 
Q 1497 3097 1228 2736 
Q 959 2375 959 1747 
Q 959 1119 1226 758 
Q 1494 397 1959 397 
Q 2419 397 2687 759 
Q 2956 1122 2956 1747 
Q 2956 2369 2687 2733 
Q 2419 3097 1959 3097 
z
M 1959 3584 
Q 2709 3584 3137 3096 
Q 3566 2609 3566 1747 
Q 3566 888 3137 398 
Q 2709 -91 1959 -91 
Q 1206 -91 779 398 
Q 353 888 353 1747 
Q 353 2609 779 3096 
Q 1206 3584 1959 3584 
z
" transform="scale(0.015625)"/>
        <path id="DejaVuSans-67" d="M 2906 1791 
Q 2906 2416 2648 2759 
Q 2391 3103 1925 3103 
Q 1463 3103 1205 2759 
Q 947 2416 947 1791 
Q 947 1169 1205 825 
Q 1463 481 1925 481 
Q 2391 481 2648 825 
Q 2906 1169 2906 1791 
z
M 3481 434 
Q 3481 -459 3084 -895 
Q 2688 -1331 1869 -1331 
Q 1566 -1331 1297 -1286 
Q 1028 -1241 775 -1147 
L 775 -588 
Q 1028 -725 1275 -790 
Q 1522 -856 1778 -856 
Q 2344 -856 2625 -561 
Q 2906 -266 2906 331 
L 2906 616 
Q 2728 306 2450 153 
Q 2172 0 1784 0 
Q 1141 0 747 490 
Q 353 981 353 1791 
Q 353 2603 747 3093 
Q 1141 3584 1784 3584 
Q 2172 3584 2450 3431 
Q 2728 3278 2906 2969 
L 2906 3500 
L 3481 3500 
L 3481 434 
z
" transform="scale(0.015625)"/>
        <path id="DejaVuSans-69" d="M 603 3500 
L 1178 3500 
L 1178 0 
L 603 0 
L 603 3500 
z
M 603 4863 
L 1178 4863 
L 1178 4134 
L 603 4134 
L 603 4863 
z
" transform="scale(0.015625)"/>
        <path id="DejaVuSans-73" d="M 2834 3397 
L 2834 2853 
Q 2591 2978 2328 3040 
Q 2066 3103 1784 3103 
Q 1356 3103 1142 2972 
Q 928 2841 928 2578 
Q 928 2378 1081 2264 
Q 1234 2150 1697 2047 
L 1894 2003 
Q 2506 1872 2764 1633 
Q 3022 1394 3022 966 
Q 3022 478 2636 193 
Q 2250 -91 1575 -91 
Q 1294 -91 989 -36 
Q 684 19 347 128 
L 347 722 
Q 666 556 975 473 
Q 1284 391 1588 391 
Q 1994 391 2212 530 
Q 2431 669 2431 922 
Q 2431 1156 2273 1281 
Q 2116 1406 1581 1522 
L 1381 1569 
Q 847 1681 609 1914 
Q 372 2147 372 2553 
Q 372 3047 722 3315 
Q 1072 3584 1716 3584 
Q 2034 3584 2315 3537 
Q 2597 3491 2834 3397 
z
" transform="scale(0.015625)"/>
       </defs>
       <use xlink:href="#DejaVuSans-6c"/>
       <use xlink:href="#DejaVuSans-6f" x="27.783203"/>
       <use xlink:href="#DejaVuSans-67" x="88.964844"/>
       <use xlink:href="#DejaVuSans-69" x="152.441406"/>
       <use xlink:href="#DejaVuSans-74" x="180.224609"/>
       <use xlink:href="#DejaVuSans-73" x="219.433594"/>
      </g>
     </g>
    </g>
   </g>
   <g id="matplotlib.axis_2">
    <g id="ytick_1">
     <g id="line2d_6">
      <defs>
       <path id="m68e4fd64ac" d="M 0 0 
L -3.5 0 
" style="stroke: #000000; stroke-width: 0.8"/>
      </defs>
      <g>
       <use xlink:href="#m68e4fd64ac" x="42.642188" y="154.882221" style="stroke: #000000; stroke-width: 0.8"/>
      </g>
     </g>
     <g id="text_6">
      <!-- −2 -->
      <g transform="translate(20.9 158.68144)scale(0.1 -0.1)">
       <defs>
        <path id="DejaVuSans-2212" d="M 678 2272 
L 4684 2272 
L 4684 1741 
L 678 1741 
L 678 2272 
z
" transform="scale(0.015625)"/>
       </defs>
       <use xlink:href="#DejaVuSans-2212"/>
       <use xlink:href="#DejaVuSans-32" x="83.789062"/>
      </g>
     </g>
    </g>
    <g id="ytick_2">
     <g id="line2d_7">
      <g>
       <use xlink:href="#m68e4fd64ac" x="42.642188" y="121.432" style="stroke: #000000; stroke-width: 0.8"/>
      </g>
     </g>
     <g id="text_7">
      <!-- −1 -->
      <g transform="translate(20.9 125.231218)scale(0.1 -0.1)">
       <use xlink:href="#DejaVuSans-2212"/>
       <use xlink:href="#DejaVuSans-31" x="83.789062"/>
      </g>
     </g>
    </g>
    <g id="ytick_3">
     <g id="line2d_8">
      <g>
       <use xlink:href="#m68e4fd64ac" x="42.642188" y="87.981778" style="stroke: #000000; stroke-width: 0.8"/>
      </g>
     </g>
     <g id="text_8">
      <!-- 0 -->
      <g transform="translate(29.279688 91.780997)scale(0.1 -0.1)">
       <defs>
        <path id="DejaVuSans-30" d="M 2034 4250 
Q 1547 4250 1301 3770 
Q 1056 3291 1056 2328 
Q 1056 1369 1301 889 
Q 1547 409 2034 409 
Q 2525 409 2770 889 
Q 3016 1369 3016 2328 
Q 3016 3291 2770 3770 
Q 2525 4250 2034 4250 
z
M 2034 4750 
Q 2819 4750 3233 4129 
Q 3647 3509 3647 2328 
Q 3647 1150 3233 529 
Q 2819 -91 2034 -91 
Q 1250 -91 836 529 
Q 422 1150 422 2328 
Q 422 3509 836 4129 
Q 1250 4750 2034 4750 
z
" transform="scale(0.015625)"/>
       </defs>
       <use xlink:href="#DejaVuSans-30"/>
      </g>
     </g>
    </g>
    <g id="ytick_4">
     <g id="line2d_9">
      <g>
       <use xlink:href="#m68e4fd64ac" x="42.642188" y="54.531557" style="stroke: #000000; stroke-width: 0.8"/>
      </g>
     </g>
     <g id="text_9">
      <!-- 1 -->
      <g transform="translate(29.279688 58.330775)scale(0.1 -0.1)">
       <use xlink:href="#DejaVuSans-31"/>
      </g>
     </g>
    </g>
    <g id="ytick_5">
     <g id="line2d_10">
      <g>
       <use xlink:href="#m68e4fd64ac" x="42.642188" y="21.081335" style="stroke: #000000; stroke-width: 0.8"/>
      </g>
     </g>
     <g id="text_10">
      <!-- 2 -->
      <g transform="translate(29.279688 24.880554)scale(0.1 -0.1)">
       <use xlink:href="#DejaVuSans-32"/>
      </g>
     </g>
    </g>
    <g id="text_11">
     <!-- ${\phi}$ -->
     <g transform="translate(14.8 92.04)rotate(-90)scale(0.1 -0.1)">
      <defs>
       <path id="DejaVuSans-Oblique-3d5" d="M 2991 4863 
L 2738 3572 
Q 3363 3572 3684 3094 
Q 4016 2606 3850 1747 
Q 3681 888 3159 400 
Q 2653 -78 2028 -78 
L 1784 -1331 
L 1213 -1331 
L 1456 -78 
Q 834 -78 509 400 
Q 178 888 347 1747 
Q 513 2606 1034 3094 
Q 1544 3572 2166 3572 
L 2419 4863 
L 2991 4863 
z
M 2128 434 
Q 2481 434 2784 756 
Q 3116 1116 3244 1747 
Q 3369 2372 3169 2738 
Q 2991 3059 2638 3059 
L 2128 434 
z
M 1556 434 
L 2066 3059 
Q 1716 3059 1413 2738 
Q 1072 2372 953 1747 
Q 834 1116 1028 756 
Q 1203 434 1556 434 
z
" transform="scale(0.015625)"/>
      </defs>
      <use xlink:href="#DejaVuSans-Oblique-3d5" transform="translate(0 0.015625)"/>
     </g>
    </g>
   </g>
   <g id="line2d_11">
    <path d="M 98.442188 121.432 
L 98.442188 54.531553 
" clip-path="url(#p9d921ea27a)" style="fill: none; stroke: #3f3f3f; stroke-width: 1.5; stroke-linecap: square"/>
   </g>
   <g id="line2d_12">
    <path d="M 98.442188 107.701479 
L 98.442188 68.280938 
" clip-path="url(#p9d921ea27a)" style="fill: none; stroke: #3f3f3f; stroke-width: 4.5; stroke-linecap: square"/>
   </g>
   <g id="line2d_13">
    <path d="M 210.042188 121.412967 
L 210.042188 54.549519 
" clip-path="url(#p9d921ea27a)" style="fill: none; stroke: #3f3f3f; stroke-width: 1.5; stroke-linecap: square"/>
   </g>
   <g id="line2d_14">
    <path d="M 210.042188 103.309911 
L 210.042188 72.813947 
" clip-path="url(#p9d921ea27a)" style="fill: none; stroke: #3f3f3f; stroke-width: 4.5; stroke-linecap: square"/>
   </g>
   <g id="line2d_15">
    <path d="M 321.642188 121.197271 
L 321.642188 54.75822 
" clip-path="url(#p9d921ea27a)" style="fill: none; stroke: #3f3f3f; stroke-width: 1.5; stroke-linecap: square"/>
   </g>
   <g id="line2d_16">
    <path d="M 321.642188 99.54956 
L 321.642188 76.259992 
" clip-path="url(#p9d921ea27a)" style="fill: none; stroke: #3f3f3f; stroke-width: 4.5; stroke-linecap: square"/>
   </g>
   <g id="line2d_17">
    <path d="M 433.242188 121.105443 
L 433.242188 55.07305 
" clip-path="url(#p9d921ea27a)" style="fill: none; stroke: #3f3f3f; stroke-width: 1.5; stroke-linecap: square"/>
   </g>
   <g id="line2d_18">
    <path d="M 433.242188 99.181513 
L 433.242188 76.961665 
" clip-path="url(#p9d921ea27a)" style="fill: none; stroke: #3f3f3f; stroke-width: 4.5; stroke-linecap: square"/>
   </g>
   <g id="line2d_19">
    <path d="M 544.842188 135.44222 
L 544.842188 39.700377 
" clip-path="url(#p9d921ea27a)" style="fill: none; stroke: #3f3f3f; stroke-width: 1.5; stroke-linecap: square"/>
   </g>
   <g id="line2d_20">
    <path d="M 544.842188 99.545235 
L 544.842188 75.599871 
" clip-path="url(#p9d921ea27a)" style="fill: none; stroke: #3f3f3f; stroke-width: 4.5; stroke-linecap: square"/>
   </g>
   <g id="patch_3">
    <path d="M 42.642188 170.28 
L 42.642188 7.2 
" style="fill: none; stroke: #000000; stroke-width: 0.8; stroke-linejoin: miter; stroke-linecap: square"/>
   </g>
   <g id="patch_4">
    <path d="M 600.642187 170.28 
L 600.642187 7.2 
" style="fill: none; stroke: #000000; stroke-width: 0.8; stroke-linejoin: miter; stroke-linecap: square"/>
   </g>
   <g id="patch_5">
    <path d="M 42.642188 170.28 
L 600.642188 170.28 
" style="fill: none; stroke: #000000; stroke-width: 0.8; stroke-linejoin: miter; stroke-linecap: square"/>
   </g>
   <g id="patch_6">
    <path d="M 42.642188 7.2 
L 600.642188 7.2 
" style="fill: none; stroke: #000000; stroke-width: 0.8; stroke-linejoin: miter; stroke-linecap: square"/>
   </g>
   <g id="PathCollection_1">
    <defs>
     <path id="m522e0ae3f3" d="M 0 1.5 
C 0.397805 1.5 0.77937 1.341951 1.06066 1.06066 
C 1.341951 0.77937 1.5 0.397805 1.5 0 
C 1.5 -0.397805 1.341951 -0.77937 1.06066 -1.06066 
C 0.77937 -1.341951 0.397805 -1.5 0 -1.5 
C -0.397805 -1.5 -0.77937 -1.341951 -1.06066 -1.06066 
C -1.341951 -0.77937 -1.5 -0.397805 -1.5 0 
C -1.5 0.397805 -1.341951 0.77937 -1.06066 1.06066 
C -0.77937 1.341951 -0.397805 1.5 0 1.5 
z
" style="stroke: #3f3f3f"/>
    </defs>
    <g clip-path="url(#p9d921ea27a)">
     <use xlink:href="#m522e0ae3f3" x="98.442188" y="87.934369" style="fill: #ffffff; stroke: #3f3f3f"/>
    </g>
   </g>
   <g id="PathCollection_2">
    <g clip-path="url(#p9d921ea27a)">
     <use xlink:href="#m522e0ae3f3" x="210.042188" y="88.106204" style="fill: #ffffff; stroke: #3f3f3f"/>
    </g>
   </g>
   <g id="PathCollection_3">
    <g clip-path="url(#p9d921ea27a)">
     <use xlink:href="#m522e0ae3f3" x="321.642188" y="87.912636" style="fill: #ffffff; stroke: #3f3f3f"/>
    </g>
   </g>
   <g id="PathCollection_4">
    <g clip-path="url(#p9d921ea27a)">
     <use xlink:href="#m522e0ae3f3" x="433.242188" y="88.026546" style="fill: #ffffff; stroke: #3f3f3f"/>
    </g>
   </g>
   <g id="PathCollection_5">
    <g clip-path="url(#p9d921ea27a)">
     <use xlink:href="#m522e0ae3f3" x="544.842188" y="87.969549" style="fill: #ffffff; stroke: #3f3f3f"/>
    </g>
   </g>
  </g>
 </g>
 <defs>
  <clipPath id="p9d921ea27a">
   <rect x="42.642188" y="7.2" width="558" height="163.08"/>
  </clipPath>
 </defs>
</svg>
