<?xml version="1.0" encoding="utf-8" standalone="no"?>
<!DOCTYPE svg PUBLIC "-//W3C//DTD SVG 1.1//EN"
  "http://www.w3.org/Graphics/SVG/1.1/DTD/svg11.dtd">
<svg xmlns:xlink="http://www.w3.org/1999/xlink" width="395.328125pt" height="262.19625pt" viewBox="0 0 395.328125 262.19625" xmlns="http://www.w3.org/2000/svg" version="1.1">
 <metadata>
  <rdf:RDF xmlns:dc="http://purl.org/dc/elements/1.1/" xmlns:cc="http://creativecommons.org/ns#" xmlns:rdf="http://www.w3.org/1999/02/22-rdf-syntax-ns#">
   <cc:Work>
    <dc:type rdf:resource="http://purl.org/dc/dcmitype/StillImage"/>
    <dc:date>2022-05-29T08:46:06.821439</dc:date>
    <dc:format>image/svg+xml</dc:format>
    <dc:creator>
     <cc:Agent>
      <dc:title>Matplotlib v3.5.1, https://matplotlib.org/</dc:title>
     </cc:Agent>
    </dc:creator>
   </cc:Work>
  </rdf:RDF>
 </metadata>
 <defs>
  <style type="text/css">*{stroke-linejoin: round; stroke-linecap: butt}</style>
 </defs>
 <g id="figure_1">
  <g id="patch_1">
   <path d="M 0 262.19625 
L 395.328125 262.19625 
L 395.328125 0 
L 0 0 
L 0 262.19625 
z
" style="fill: none"/>
  </g>
  <g id="axes_1">
   <g id="patch_2">
    <path d="M 53.328125 224.64 
L 388.128125 224.64 
L 388.128125 7.2 
L 53.328125 7.2 
z
" style="fill: #ffffff"/>
   </g>
   <g id="patch_3">
    <path d="M 68.546307 224.64 
L 72.127055 224.64 
L 72.127055 190.090957 
L 68.546307 190.090957 
z
" clip-path="url(#p6201d727d4)" style="fill: #1f77b4; fill-opacity: 0.75; stroke: #000000; stroke-width: 0.358075; stroke-linejoin: miter"/>
   </g>
   <g id="patch_4">
    <path d="M 72.127055 224.64 
L 75.707804 224.64 
L 75.707804 170.00107 
L 72.127055 170.00107 
z
" clip-path="url(#p6201d727d4)" style="fill: #1f77b4; fill-opacity: 0.75; stroke: #000000; stroke-width: 0.358075; stroke-linejoin: miter"/>
   </g>
   <g id="patch_5">
    <path d="M 75.707804 224.64 
L 79.288553 224.64 
L 79.288553 139.344877 
L 75.707804 139.344877 
z
" clip-path="url(#p6201d727d4)" style="fill: #1f77b4; fill-opacity: 0.75; stroke: #000000; stroke-width: 0.358075; stroke-linejoin: miter"/>
   </g>
   <g id="patch_6">
    <path d="M 79.288553 224.64 
L 82.869301 224.64 
L 82.869301 148.798941 
L 79.288553 148.798941 
z
" clip-path="url(#p6201d727d4)" style="fill: #1f77b4; fill-opacity: 0.75; stroke: #000000; stroke-width: 0.358075; stroke-linejoin: miter"/>
   </g>
   <g id="patch_7">
    <path d="M 82.869301 224.64 
L 86.45005 224.64 
L 86.45005 85.262069 
L 82.869301 85.262069 
z
" clip-path="url(#p6201d727d4)" style="fill: #1f77b4; fill-opacity: 0.75; stroke: #000000; stroke-width: 0.358075; stroke-linejoin: miter"/>
   </g>
   <g id="patch_8">
    <path d="M 86.45005 224.64 
L 90.030799 224.64 
L 90.030799 62.669636 
L 86.45005 62.669636 
z
" clip-path="url(#p6201d727d4)" style="fill: #1f77b4; fill-opacity: 0.75; stroke: #000000; stroke-width: 0.358075; stroke-linejoin: miter"/>
   </g>
   <g id="patch_9">
    <path d="M 90.030799 224.64 
L 93.611547 224.64 
L 93.611547 109.03626 
L 90.030799 109.03626 
z
" clip-path="url(#p6201d727d4)" style="fill: #1f77b4; fill-opacity: 0.75; stroke: #000000; stroke-width: 0.358075; stroke-linejoin: miter"/>
   </g>
   <g id="patch_10">
    <path d="M 93.611547 224.64 
L 97.192296 224.64 
L 97.192296 30.623139 
L 93.611547 30.623139 
z
" clip-path="url(#p6201d727d4)" style="fill: #1f77b4; fill-opacity: 0.75; stroke: #000000; stroke-width: 0.358075; stroke-linejoin: miter"/>
   </g>
   <g id="patch_11">
    <path d="M 97.192296 224.64 
L 100.773045 224.64 
L 100.773045 23.741137 
L 97.192296 23.741137 
z
" clip-path="url(#p6201d727d4)" style="fill: #1f77b4; fill-opacity: 0.75; stroke: #000000; stroke-width: 0.358075; stroke-linejoin: miter"/>
   </g>
   <g id="patch_12">
    <path d="M 100.773045 224.64 
L 104.353793 224.64 
L 104.353793 102.988439 
L 100.773045 102.988439 
z
" clip-path="url(#p6201d727d4)" style="fill: #1f77b4; fill-opacity: 0.75; stroke: #000000; stroke-width: 0.358075; stroke-linejoin: miter"/>
   </g>
   <g id="patch_13">
    <path d="M 104.353793 224.64 
L 107.934542 224.64 
L 107.934542 22.698409 
L 104.353793 22.698409 
z
" clip-path="url(#p6201d727d4)" style="fill: #1f77b4; fill-opacity: 0.75; stroke: #000000; stroke-width: 0.358075; stroke-linejoin: miter"/>
   </g>
   <g id="patch_14">
    <path d="M 107.934542 224.64 
L 111.515291 224.64 
L 111.515291 27.633986 
L 107.934542 27.633986 
z
" clip-path="url(#p6201d727d4)" style="fill: #1f77b4; fill-opacity: 0.75; stroke: #000000; stroke-width: 0.358075; stroke-linejoin: miter"/>
   </g>
   <g id="patch_15">
    <path d="M 111.515291 224.64 
L 115.096039 224.64 
L 115.096039 17.554286 
L 111.515291 17.554286 
z
" clip-path="url(#p6201d727d4)" style="fill: #1f77b4; fill-opacity: 0.75; stroke: #000000; stroke-width: 0.358075; stroke-linejoin: miter"/>
   </g>
   <g id="patch_16">
    <path d="M 115.096039 224.64 
L 118.676788 224.64 
L 118.676788 126.484569 
L 115.096039 126.484569 
z
" clip-path="url(#p6201d727d4)" style="fill: #1f77b4; fill-opacity: 0.75; stroke: #000000; stroke-width: 0.358075; stroke-linejoin: miter"/>
   </g>
   <g id="patch_17">
    <path d="M 118.676788 224.64 
L 122.257537 224.64 
L 122.257537 36.323384 
L 118.676788 36.323384 
z
" clip-path="url(#p6201d727d4)" style="fill: #1f77b4; fill-opacity: 0.75; stroke: #000000; stroke-width: 0.358075; stroke-linejoin: miter"/>
   </g>
   <g id="patch_18">
    <path d="M 122.257537 224.64 
L 125.838285 224.64 
L 125.838285 43.274901 
L 122.257537 43.274901 
z
" clip-path="url(#p6201d727d4)" style="fill: #1f77b4; fill-opacity: 0.75; stroke: #000000; stroke-width: 0.358075; stroke-linejoin: miter"/>
   </g>
   <g id="patch_19">
    <path d="M 125.838285 224.64 
L 129.419034 224.64 
L 129.419034 143.376757 
L 125.838285 143.376757 
z
" clip-path="url(#p6201d727d4)" style="fill: #1f77b4; fill-opacity: 0.75; stroke: #000000; stroke-width: 0.358075; stroke-linejoin: miter"/>
   </g>
   <g id="patch_20">
    <path d="M 129.419034 224.64 
L 132.999783 224.64 
L 132.999783 48.279994 
L 129.419034 48.279994 
z
" clip-path="url(#p6201d727d4)" style="fill: #1f77b4; fill-opacity: 0.75; stroke: #000000; stroke-width: 0.358075; stroke-linejoin: miter"/>
   </g>
   <g id="patch_21">
    <path d="M 132.999783 224.64 
L 136.580531 224.64 
L 136.580531 57.664543 
L 132.999783 57.664543 
z
" clip-path="url(#p6201d727d4)" style="fill: #1f77b4; fill-opacity: 0.75; stroke: #000000; stroke-width: 0.358075; stroke-linejoin: miter"/>
   </g>
   <g id="patch_22">
    <path d="M 136.580531 224.64 
L 140.16128 224.64 
L 140.16128 158.392036 
L 136.580531 158.392036 
z
" clip-path="url(#p6201d727d4)" style="fill: #1f77b4; fill-opacity: 0.75; stroke: #000000; stroke-width: 0.358075; stroke-linejoin: miter"/>
   </g>
   <g id="patch_23">
    <path d="M 140.16128 224.64 
L 143.742029 224.64 
L 143.742029 65.519758 
L 140.16128 65.519758 
z
" clip-path="url(#p6201d727d4)" style="fill: #1f77b4; fill-opacity: 0.75; stroke: #000000; stroke-width: 0.358075; stroke-linejoin: miter"/>
   </g>
   <g id="patch_24">
    <path d="M 143.742029 224.64 
L 147.322777 224.64 
L 147.322777 80.952128 
L 143.742029 80.952128 
z
" clip-path="url(#p6201d727d4)" style="fill: #1f77b4; fill-opacity: 0.75; stroke: #000000; stroke-width: 0.358075; stroke-linejoin: miter"/>
   </g>
   <g id="patch_25">
    <path d="M 147.322777 224.64 
L 150.903526 224.64 
L 150.903526 174.032951 
L 147.322777 174.032951 
z
" clip-path="url(#p6201d727d4)" style="fill: #1f77b4; fill-opacity: 0.75; stroke: #000000; stroke-width: 0.358075; stroke-linejoin: miter"/>
   </g>
   <g id="patch_26">
    <path d="M 150.903526 224.64 
L 154.484275 224.64 
L 154.484275 94.160012 
L 150.903526 94.160012 
z
" clip-path="url(#p6201d727d4)" style="fill: #1f77b4; fill-opacity: 0.75; stroke: #000000; stroke-width: 0.358075; stroke-linejoin: miter"/>
   </g>
   <g id="patch_27">
    <path d="M 154.484275 224.64 
L 158.065023 224.64 
L 158.065023 99.929771 
L 154.484275 99.929771 
z
" clip-path="url(#p6201d727d4)" style="fill: #1f77b4; fill-opacity: 0.75; stroke: #000000; stroke-width: 0.358075; stroke-linejoin: miter"/>
   </g>
   <g id="patch_28">
    <path d="M 158.065023 224.64 
L 161.645772 224.64 
L 161.645772 105.14341 
L 158.065023 105.14341 
z
" clip-path="url(#p6201d727d4)" style="fill: #1f77b4; fill-opacity: 0.75; stroke: #000000; stroke-width: 0.358075; stroke-linejoin: miter"/>
   </g>
   <g id="patch_29">
    <path d="M 161.645772 224.64 
L 165.226521 224.64 
L 165.226521 185.502955 
L 161.645772 185.502955 
z
" clip-path="url(#p6201d727d4)" style="fill: #1f77b4; fill-opacity: 0.75; stroke: #000000; stroke-width: 0.358075; stroke-linejoin: miter"/>
   </g>
   <g id="patch_30">
    <path d="M 165.226521 224.64 
L 168.807269 224.64 
L 168.807269 115.501171 
L 165.226521 115.501171 
z
" clip-path="url(#p6201d727d4)" style="fill: #1f77b4; fill-opacity: 0.75; stroke: #000000; stroke-width: 0.358075; stroke-linejoin: miter"/>
   </g>
   <g id="patch_31">
    <path d="M 168.807269 224.64 
L 172.388018 224.64 
L 172.388018 124.329599 
L 168.807269 124.329599 
z
" clip-path="url(#p6201d727d4)" style="fill: #1f77b4; fill-opacity: 0.75; stroke: #000000; stroke-width: 0.358075; stroke-linejoin: miter"/>
   </g>
   <g id="patch_32">
    <path d="M 172.388018 224.64 
L 175.968767 224.64 
L 175.968767 195.652171 
L 172.388018 195.652171 
z
" clip-path="url(#p6201d727d4)" style="fill: #1f77b4; fill-opacity: 0.75; stroke: #000000; stroke-width: 0.358075; stroke-linejoin: miter"/>
   </g>
   <g id="patch_33">
    <path d="M 175.968767 224.64 
L 179.549515 224.64 
L 179.549515 129.751782 
L 175.968767 129.751782 
z
" clip-path="url(#p6201d727d4)" style="fill: #1f77b4; fill-opacity: 0.75; stroke: #000000; stroke-width: 0.358075; stroke-linejoin: miter"/>
   </g>
   <g id="patch_34">
    <path d="M 179.549515 224.64 
L 183.130264 224.64 
L 183.130264 134.131239 
L 179.549515 134.131239 
z
" clip-path="url(#p6201d727d4)" style="fill: #1f77b4; fill-opacity: 0.75; stroke: #000000; stroke-width: 0.358075; stroke-linejoin: miter"/>
   </g>
   <g id="patch_35">
    <path d="M 183.130264 224.64 
L 186.711013 224.64 
L 186.711013 201.00484 
L 183.130264 201.00484 
z
" clip-path="url(#p6201d727d4)" style="fill: #1f77b4; fill-opacity: 0.75; stroke: #000000; stroke-width: 0.358075; stroke-linejoin: miter"/>
   </g>
   <g id="patch_36">
    <path d="M 186.711013 224.64 
L 190.291761 224.64 
L 190.291761 145.114637 
L 186.711013 145.114637 
z
" clip-path="url(#p6201d727d4)" style="fill: #1f77b4; fill-opacity: 0.75; stroke: #000000; stroke-width: 0.358075; stroke-linejoin: miter"/>
   </g>
   <g id="patch_37">
    <path d="M 190.291761 224.64 
L 193.87251 224.64 
L 193.87251 148.659911 
L 190.291761 148.659911 
z
" clip-path="url(#p6201d727d4)" style="fill: #1f77b4; fill-opacity: 0.75; stroke: #000000; stroke-width: 0.358075; stroke-linejoin: miter"/>
   </g>
   <g id="patch_38">
    <path d="M 193.87251 224.64 
L 197.453259 224.64 
L 197.453259 208.303933 
L 193.87251 208.303933 
z
" clip-path="url(#p6201d727d4)" style="fill: #1f77b4; fill-opacity: 0.75; stroke: #000000; stroke-width: 0.358075; stroke-linejoin: miter"/>
   </g>
   <g id="patch_39">
    <path d="M 197.453259 224.64 
L 201.034007 224.64 
L 201.034007 154.221125 
L 197.453259 154.221125 
z
" clip-path="url(#p6201d727d4)" style="fill: #1f77b4; fill-opacity: 0.75; stroke: #000000; stroke-width: 0.358075; stroke-linejoin: miter"/>
   </g>
   <g id="patch_40">
    <path d="M 201.034007 224.64 
L 204.614756 224.64 
L 204.614756 160.407976 
L 201.034007 160.407976 
z
" clip-path="url(#p6201d727d4)" style="fill: #1f77b4; fill-opacity: 0.75; stroke: #000000; stroke-width: 0.358075; stroke-linejoin: miter"/>
   </g>
   <g id="patch_41">
    <path d="M 204.614756 224.64 
L 208.195505 224.64 
L 208.195505 159.782339 
L 204.614756 159.782339 
z
" clip-path="url(#p6201d727d4)" style="fill: #1f77b4; fill-opacity: 0.75; stroke: #000000; stroke-width: 0.358075; stroke-linejoin: miter"/>
   </g>
   <g id="patch_42">
    <path d="M 208.195505 224.64 
L 211.776253 224.64 
L 211.776253 211.432116 
L 208.195505 211.432116 
z
" clip-path="url(#p6201d727d4)" style="fill: #1f77b4; fill-opacity: 0.75; stroke: #000000; stroke-width: 0.358075; stroke-linejoin: miter"/>
   </g>
   <g id="patch_43">
    <path d="M 211.776253 224.64 
L 215.357002 224.64 
L 215.357002 170.487677 
L 211.776253 170.487677 
z
" clip-path="url(#p6201d727d4)" style="fill: #1f77b4; fill-opacity: 0.75; stroke: #000000; stroke-width: 0.358075; stroke-linejoin: miter"/>
   </g>
   <g id="patch_44">
    <path d="M 215.357002 224.64 
L 218.937751 224.64 
L 218.937751 170.418161 
L 215.357002 170.418161 
z
" clip-path="url(#p6201d727d4)" style="fill: #1f77b4; fill-opacity: 0.75; stroke: #000000; stroke-width: 0.358075; stroke-linejoin: miter"/>
   </g>
   <g id="patch_45">
    <path d="M 218.937751 224.64 
L 222.518499 224.64 
L 222.518499 213.239511 
L 218.937751 213.239511 
z
" clip-path="url(#p6201d727d4)" style="fill: #1f77b4; fill-opacity: 0.75; stroke: #000000; stroke-width: 0.358075; stroke-linejoin: miter"/>
   </g>
   <g id="patch_46">
    <path d="M 222.518499 224.64 
L 226.099248 224.64 
L 226.099248 179.107559 
L 222.518499 179.107559 
z
" clip-path="url(#p6201d727d4)" style="fill: #1f77b4; fill-opacity: 0.75; stroke: #000000; stroke-width: 0.358075; stroke-linejoin: miter"/>
   </g>
   <g id="patch_47">
    <path d="M 226.099248 224.64 
L 229.679997 224.64 
L 229.679997 178.134346 
L 226.099248 178.134346 
z
" clip-path="url(#p6201d727d4)" style="fill: #1f77b4; fill-opacity: 0.75; stroke: #000000; stroke-width: 0.358075; stroke-linejoin: miter"/>
   </g>
   <g id="patch_48">
    <path d="M 229.679997 224.64 
L 233.260745 224.64 
L 233.260745 216.228664 
L 229.679997 216.228664 
z
" clip-path="url(#p6201d727d4)" style="fill: #1f77b4; fill-opacity: 0.75; stroke: #000000; stroke-width: 0.358075; stroke-linejoin: miter"/>
   </g>
   <g id="patch_49">
    <path d="M 233.260745 224.64 
L 236.841494 224.64 
L 236.841494 181.54059 
L 233.260745 181.54059 
z
" clip-path="url(#p6201d727d4)" style="fill: #1f77b4; fill-opacity: 0.75; stroke: #000000; stroke-width: 0.358075; stroke-linejoin: miter"/>
   </g>
   <g id="patch_50">
    <path d="M 236.841494 224.64 
L 240.422243 224.64 
L 240.422243 184.807803 
L 236.841494 184.807803 
z
" clip-path="url(#p6201d727d4)" style="fill: #1f77b4; fill-opacity: 0.75; stroke: #000000; stroke-width: 0.358075; stroke-linejoin: miter"/>
   </g>
   <g id="patch_51">
    <path d="M 240.422243 224.64 
L 244.002991 224.64 
L 244.002991 186.962774 
L 240.422243 186.962774 
z
" clip-path="url(#p6201d727d4)" style="fill: #1f77b4; fill-opacity: 0.75; stroke: #000000; stroke-width: 0.358075; stroke-linejoin: miter"/>
   </g>
   <g id="patch_52">
    <path d="M 244.002991 224.64 
L 247.58374 224.64 
L 247.58374 217.688482 
L 244.002991 217.688482 
z
" clip-path="url(#p6201d727d4)" style="fill: #1f77b4; fill-opacity: 0.75; stroke: #000000; stroke-width: 0.358075; stroke-linejoin: miter"/>
   </g>
   <g id="patch_53">
    <path d="M 247.58374 224.64 
L 251.164489 224.64 
L 251.164489 188.839683 
L 247.58374 188.839683 
z
" clip-path="url(#p6201d727d4)" style="fill: #1f77b4; fill-opacity: 0.75; stroke: #000000; stroke-width: 0.358075; stroke-linejoin: miter"/>
   </g>
   <g id="patch_54">
    <path d="M 251.164489 224.64 
L 254.745237 224.64 
L 254.745237 190.508048 
L 251.164489 190.508048 
z
" clip-path="url(#p6201d727d4)" style="fill: #1f77b4; fill-opacity: 0.75; stroke: #000000; stroke-width: 0.358075; stroke-linejoin: miter"/>
   </g>
   <g id="patch_55">
    <path d="M 254.745237 224.64 
L 258.325986 224.64 
L 258.325986 217.688482 
L 254.745237 217.688482 
z
" clip-path="url(#p6201d727d4)" style="fill: #1f77b4; fill-opacity: 0.75; stroke: #000000; stroke-width: 0.358075; stroke-linejoin: miter"/>
   </g>
   <g id="patch_56">
    <path d="M 258.325986 224.64 
L 261.906735 224.64 
L 261.906735 193.288655 
L 258.325986 193.288655 
z
" clip-path="url(#p6201d727d4)" style="fill: #1f77b4; fill-opacity: 0.75; stroke: #000000; stroke-width: 0.358075; stroke-linejoin: miter"/>
   </g>
   <g id="patch_57">
    <path d="M 261.906735 224.64 
L 265.487483 224.64 
L 265.487483 194.817989 
L 261.906735 194.817989 
z
" clip-path="url(#p6201d727d4)" style="fill: #1f77b4; fill-opacity: 0.75; stroke: #000000; stroke-width: 0.358075; stroke-linejoin: miter"/>
   </g>
   <g id="patch_58">
    <path d="M 265.487483 224.64 
L 269.068232 224.64 
L 269.068232 219.148301 
L 265.487483 219.148301 
z
" clip-path="url(#p6201d727d4)" style="fill: #1f77b4; fill-opacity: 0.75; stroke: #000000; stroke-width: 0.358075; stroke-linejoin: miter"/>
   </g>
   <g id="patch_59">
    <path d="M 269.068232 224.64 
L 272.648981 224.64 
L 272.648981 196.486353 
L 269.068232 196.486353 
z
" clip-path="url(#p6201d727d4)" style="fill: #1f77b4; fill-opacity: 0.75; stroke: #000000; stroke-width: 0.358075; stroke-linejoin: miter"/>
   </g>
   <g id="patch_60">
    <path d="M 272.648981 224.64 
L 276.229729 224.64 
L 276.229729 197.598596 
L 272.648981 197.598596 
z
" clip-path="url(#p6201d727d4)" style="fill: #1f77b4; fill-opacity: 0.75; stroke: #000000; stroke-width: 0.358075; stroke-linejoin: miter"/>
   </g>
   <g id="patch_61">
    <path d="M 276.229729 224.64 
L 279.810478 224.64 
L 279.810478 220.121513 
L 276.229729 220.121513 
z
" clip-path="url(#p6201d727d4)" style="fill: #1f77b4; fill-opacity: 0.75; stroke: #000000; stroke-width: 0.358075; stroke-linejoin: miter"/>
   </g>
   <g id="patch_62">
    <path d="M 279.810478 224.64 
L 283.391227 224.64 
L 283.391227 202.256113 
L 279.810478 202.256113 
z
" clip-path="url(#p6201d727d4)" style="fill: #1f77b4; fill-opacity: 0.75; stroke: #000000; stroke-width: 0.358075; stroke-linejoin: miter"/>
   </g>
   <g id="patch_63">
    <path d="M 283.391227 224.64 
L 286.971975 224.64 
L 286.971975 204.272053 
L 283.391227 204.272053 
z
" clip-path="url(#p6201d727d4)" style="fill: #1f77b4; fill-opacity: 0.75; stroke: #000000; stroke-width: 0.358075; stroke-linejoin: miter"/>
   </g>
   <g id="patch_64">
    <path d="M 286.971975 224.64 
L 290.552724 224.64 
L 290.552724 206.009932 
L 286.971975 206.009932 
z
" clip-path="url(#p6201d727d4)" style="fill: #1f77b4; fill-opacity: 0.75; stroke: #000000; stroke-width: 0.358075; stroke-linejoin: miter"/>
   </g>
   <g id="patch_65">
    <path d="M 290.552724 224.64 
L 294.133473 224.64 
L 294.133473 220.538605 
L 290.552724 220.538605 
z
" clip-path="url(#p6201d727d4)" style="fill: #1f77b4; fill-opacity: 0.75; stroke: #000000; stroke-width: 0.358075; stroke-linejoin: miter"/>
   </g>
   <g id="patch_66">
    <path d="M 294.133473 224.64 
L 297.714221 224.64 
L 297.714221 207.330721 
L 294.133473 207.330721 
z
" clip-path="url(#p6201d727d4)" style="fill: #1f77b4; fill-opacity: 0.75; stroke: #000000; stroke-width: 0.358075; stroke-linejoin: miter"/>
   </g>
   <g id="patch_67">
    <path d="M 297.714221 224.64 
L 301.29497 224.64 
L 301.29497 209.694237 
L 297.714221 209.694237 
z
" clip-path="url(#p6201d727d4)" style="fill: #1f77b4; fill-opacity: 0.75; stroke: #000000; stroke-width: 0.358075; stroke-linejoin: miter"/>
   </g>
   <g id="patch_68">
    <path d="M 301.29497 224.64 
L 304.875719 224.64 
L 304.875719 219.843453 
L 301.29497 219.843453 
z
" clip-path="url(#p6201d727d4)" style="fill: #1f77b4; fill-opacity: 0.75; stroke: #000000; stroke-width: 0.358075; stroke-linejoin: miter"/>
   </g>
   <g id="patch_69">
    <path d="M 304.875719 224.64 
L 308.456467 224.64 
L 308.456467 209.346661 
L 304.875719 209.346661 
z
" clip-path="url(#p6201d727d4)" style="fill: #1f77b4; fill-opacity: 0.75; stroke: #000000; stroke-width: 0.358075; stroke-linejoin: miter"/>
   </g>
   <g id="patch_70">
    <path d="M 308.456467 224.64 
L 312.037216 224.64 
L 312.037216 209.833267 
L 308.456467 209.833267 
z
" clip-path="url(#p6201d727d4)" style="fill: #1f77b4; fill-opacity: 0.75; stroke: #000000; stroke-width: 0.358075; stroke-linejoin: miter"/>
   </g>
   <g id="patch_71">
    <path d="M 312.037216 224.64 
L 315.617965 224.64 
L 315.617965 220.469089 
L 312.037216 220.469089 
z
" clip-path="url(#p6201d727d4)" style="fill: #1f77b4; fill-opacity: 0.75; stroke: #000000; stroke-width: 0.358075; stroke-linejoin: miter"/>
   </g>
   <g id="patch_72">
    <path d="M 315.617965 224.64 
L 319.198713 224.64 
L 319.198713 211.849207 
L 315.617965 211.849207 
z
" clip-path="url(#p6201d727d4)" style="fill: #1f77b4; fill-opacity: 0.75; stroke: #000000; stroke-width: 0.358075; stroke-linejoin: miter"/>
   </g>
   <g id="patch_73">
    <path d="M 319.198713 224.64 
L 322.779462 224.64 
L 322.779462 213.934663 
L 319.198713 213.934663 
z
" clip-path="url(#p6201d727d4)" style="fill: #1f77b4; fill-opacity: 0.75; stroke: #000000; stroke-width: 0.358075; stroke-linejoin: miter"/>
   </g>
   <g id="patch_74">
    <path d="M 322.779462 224.64 
L 326.360211 224.64 
L 326.360211 221.511817 
L 322.779462 221.511817 
z
" clip-path="url(#p6201d727d4)" style="fill: #1f77b4; fill-opacity: 0.75; stroke: #000000; stroke-width: 0.358075; stroke-linejoin: miter"/>
   </g>
   <g id="patch_75">
    <path d="M 326.360211 224.64 
L 329.940959 224.64 
L 329.940959 214.560299 
L 326.360211 214.560299 
z
" clip-path="url(#p6201d727d4)" style="fill: #1f77b4; fill-opacity: 0.75; stroke: #000000; stroke-width: 0.358075; stroke-linejoin: miter"/>
   </g>
   <g id="patch_76">
    <path d="M 329.940959 224.64 
L 333.521708 224.64 
L 333.521708 216.71527 
L 329.940959 216.71527 
z
" clip-path="url(#p6201d727d4)" style="fill: #1f77b4; fill-opacity: 0.75; stroke: #000000; stroke-width: 0.358075; stroke-linejoin: miter"/>
   </g>
   <g id="patch_77">
    <path d="M 333.521708 224.64 
L 337.102457 224.64 
L 337.102457 215.394481 
L 333.521708 215.394481 
z
" clip-path="url(#p6201d727d4)" style="fill: #1f77b4; fill-opacity: 0.75; stroke: #000000; stroke-width: 0.358075; stroke-linejoin: miter"/>
   </g>
   <g id="patch_78">
    <path d="M 337.102457 224.64 
L 340.683205 224.64 
L 340.683205 221.233756 
L 337.102457 221.233756 
z
" clip-path="url(#p6201d727d4)" style="fill: #1f77b4; fill-opacity: 0.75; stroke: #000000; stroke-width: 0.358075; stroke-linejoin: miter"/>
   </g>
   <g id="patch_79">
    <path d="M 340.683205 224.64 
L 344.263954 224.64 
L 344.263954 216.71527 
L 340.683205 216.71527 
z
" clip-path="url(#p6201d727d4)" style="fill: #1f77b4; fill-opacity: 0.75; stroke: #000000; stroke-width: 0.358075; stroke-linejoin: miter"/>
   </g>
   <g id="patch_80">
    <path d="M 344.263954 224.64 
L 347.844703 224.64 
L 347.844703 219.217816 
L 344.263954 219.217816 
z
" clip-path="url(#p6201d727d4)" style="fill: #1f77b4; fill-opacity: 0.75; stroke: #000000; stroke-width: 0.358075; stroke-linejoin: miter"/>
   </g>
   <g id="patch_81">
    <path d="M 347.844703 224.64 
L 351.425451 224.64 
L 351.425451 222.206969 
L 347.844703 222.206969 
z
" clip-path="url(#p6201d727d4)" style="fill: #1f77b4; fill-opacity: 0.75; stroke: #000000; stroke-width: 0.358075; stroke-linejoin: miter"/>
   </g>
   <g id="patch_82">
    <path d="M 351.425451 224.64 
L 355.0062 224.64 
L 355.0062 217.897028 
L 351.425451 217.897028 
z
" clip-path="url(#p6201d727d4)" style="fill: #1f77b4; fill-opacity: 0.75; stroke: #000000; stroke-width: 0.358075; stroke-linejoin: miter"/>
   </g>
   <g id="patch_83">
    <path d="M 355.0062 224.64 
L 358.586949 224.64 
L 358.586949 217.549452 
L 355.0062 217.549452 
z
" clip-path="url(#p6201d727d4)" style="fill: #1f77b4; fill-opacity: 0.75; stroke: #000000; stroke-width: 0.358075; stroke-linejoin: miter"/>
   </g>
   <g id="patch_84">
    <path d="M 358.586949 224.64 
L 362.167697 224.64 
L 362.167697 223.041151 
L 358.586949 223.041151 
z
" clip-path="url(#p6201d727d4)" style="fill: #1f77b4; fill-opacity: 0.75; stroke: #000000; stroke-width: 0.358075; stroke-linejoin: miter"/>
   </g>
   <g id="patch_85">
    <path d="M 362.167697 224.64 
L 365.748446 224.64 
L 365.748446 219.495877 
L 362.167697 219.495877 
z
" clip-path="url(#p6201d727d4)" style="fill: #1f77b4; fill-opacity: 0.75; stroke: #000000; stroke-width: 0.358075; stroke-linejoin: miter"/>
   </g>
   <g id="patch_86">
    <path d="M 365.748446 224.64 
L 369.329195 224.64 
L 369.329195 220.60812 
L 365.748446 220.60812 
z
" clip-path="url(#p6201d727d4)" style="fill: #1f77b4; fill-opacity: 0.75; stroke: #000000; stroke-width: 0.358075; stroke-linejoin: miter"/>
   </g>
   <g id="patch_87">
    <path d="M 369.329195 224.64 
L 372.909943 224.64 
L 372.909943 220.260544 
L 369.329195 220.260544 
z
" clip-path="url(#p6201d727d4)" style="fill: #1f77b4; fill-opacity: 0.75; stroke: #000000; stroke-width: 0.358075; stroke-linejoin: miter"/>
   </g>
   <g id="matplotlib.axis_1">
    <g id="xtick_1">
     <g id="line2d_1">
      <defs>
       <path id="mafa1a6a363" d="M 0 0 
L 0 3.5 
" style="stroke: #000000; stroke-width: 0.8"/>
      </defs>
      <g>
       <use xlink:href="#mafa1a6a363" x="63.387601" y="224.64" style="stroke: #000000; stroke-width: 0.8"/>
      </g>
     </g>
     <g id="text_1">
      <!-- 0 -->
      <g transform="translate(60.206351 239.238437)scale(0.1 -0.1)">
       <defs>
        <path id="DejaVuSans-30" d="M 2034 4250 
Q 1547 4250 1301 3770 
Q 1056 3291 1056 2328 
Q 1056 1369 1301 889 
Q 1547 409 2034 409 
Q 2525 409 2770 889 
Q 3016 1369 3016 2328 
Q 3016 3291 2770 3770 
Q 2525 4250 2034 4250 
z
M 2034 4750 
Q 2819 4750 3233 4129 
Q 3647 3509 3647 2328 
Q 3647 1150 3233 529 
Q 2819 -91 2034 -91 
Q 1250 -91 836 529 
Q 422 1150 422 2328 
Q 422 3509 836 4129 
Q 1250 4750 2034 4750 
z
" transform="scale(0.015625)"/>
       </defs>
       <use xlink:href="#DejaVuSans-30"/>
      </g>
     </g>
    </g>
    <g id="xtick_2">
     <g id="line2d_2">
      <g>
       <use xlink:href="#mafa1a6a363" x="114.974658" y="224.64" style="stroke: #000000; stroke-width: 0.8"/>
      </g>
     </g>
     <g id="text_2">
      <!-- 10 -->
      <g transform="translate(108.612158 239.238437)scale(0.1 -0.1)">
       <defs>
        <path id="DejaVuSans-31" d="M 794 531 
L 1825 531 
L 1825 4091 
L 703 3866 
L 703 4441 
L 1819 4666 
L 2450 4666 
L 2450 531 
L 3481 531 
L 3481 0 
L 794 0 
L 794 531 
z
" transform="scale(0.015625)"/>
       </defs>
       <use xlink:href="#DejaVuSans-31"/>
       <use xlink:href="#DejaVuSans-30" x="63.623047"/>
      </g>
     </g>
    </g>
    <g id="xtick_3">
     <g id="line2d_3">
      <g>
       <use xlink:href="#mafa1a6a363" x="166.561715" y="224.64" style="stroke: #000000; stroke-width: 0.8"/>
      </g>
     </g>
     <g id="text_3">
      <!-- 20 -->
      <g transform="translate(160.199215 239.238437)scale(0.1 -0.1)">
       <defs>
        <path id="DejaVuSans-32" d="M 1228 531 
L 3431 531 
L 3431 0 
L 469 0 
L 469 531 
Q 828 903 1448 1529 
Q 2069 2156 2228 2338 
Q 2531 2678 2651 2914 
Q 2772 3150 2772 3378 
Q 2772 3750 2511 3984 
Q 2250 4219 1831 4219 
Q 1534 4219 1204 4116 
Q 875 4013 500 3803 
L 500 4441 
Q 881 4594 1212 4672 
Q 1544 4750 1819 4750 
Q 2544 4750 2975 4387 
Q 3406 4025 3406 3419 
Q 3406 3131 3298 2873 
Q 3191 2616 2906 2266 
Q 2828 2175 2409 1742 
Q 1991 1309 1228 531 
z
" transform="scale(0.015625)"/>
       </defs>
       <use xlink:href="#DejaVuSans-32"/>
       <use xlink:href="#DejaVuSans-30" x="63.623047"/>
      </g>
     </g>
    </g>
    <g id="xtick_4">
     <g id="line2d_4">
      <g>
       <use xlink:href="#mafa1a6a363" x="218.148772" y="224.64" style="stroke: #000000; stroke-width: 0.8"/>
      </g>
     </g>
     <g id="text_4">
      <!-- 30 -->
      <g transform="translate(211.786272 239.238437)scale(0.1 -0.1)">
       <defs>
        <path id="DejaVuSans-33" d="M 2597 2516 
Q 3050 2419 3304 2112 
Q 3559 1806 3559 1356 
Q 3559 666 3084 287 
Q 2609 -91 1734 -91 
Q 1441 -91 1130 -33 
Q 819 25 488 141 
L 488 750 
Q 750 597 1062 519 
Q 1375 441 1716 441 
Q 2309 441 2620 675 
Q 2931 909 2931 1356 
Q 2931 1769 2642 2001 
Q 2353 2234 1838 2234 
L 1294 2234 
L 1294 2753 
L 1863 2753 
Q 2328 2753 2575 2939 
Q 2822 3125 2822 3475 
Q 2822 3834 2567 4026 
Q 2313 4219 1838 4219 
Q 1578 4219 1281 4162 
Q 984 4106 628 3988 
L 628 4550 
Q 988 4650 1302 4700 
Q 1616 4750 1894 4750 
Q 2613 4750 3031 4423 
Q 3450 4097 3450 3541 
Q 3450 3153 3228 2886 
Q 3006 2619 2597 2516 
z
" transform="scale(0.015625)"/>
       </defs>
       <use xlink:href="#DejaVuSans-33"/>
       <use xlink:href="#DejaVuSans-30" x="63.623047"/>
      </g>
     </g>
    </g>
    <g id="xtick_5">
     <g id="line2d_5">
      <g>
       <use xlink:href="#mafa1a6a363" x="269.735829" y="224.64" style="stroke: #000000; stroke-width: 0.8"/>
      </g>
     </g>
     <g id="text_5">
      <!-- 40 -->
      <g transform="translate(263.373329 239.238437)scale(0.1 -0.1)">
       <defs>
        <path id="DejaVuSans-34" d="M 2419 4116 
L 825 1625 
L 2419 1625 
L 2419 4116 
z
M 2253 4666 
L 3047 4666 
L 3047 1625 
L 3713 1625 
L 3713 1100 
L 3047 1100 
L 3047 0 
L 2419 0 
L 2419 1100 
L 313 1100 
L 313 1709 
L 2253 4666 
z
" transform="scale(0.015625)"/>
       </defs>
       <use xlink:href="#DejaVuSans-34"/>
       <use xlink:href="#DejaVuSans-30" x="63.623047"/>
      </g>
     </g>
    </g>
    <g id="xtick_6">
     <g id="line2d_6">
      <g>
       <use xlink:href="#mafa1a6a363" x="321.322886" y="224.64" style="stroke: #000000; stroke-width: 0.8"/>
      </g>
     </g>
     <g id="text_6">
      <!-- 50 -->
      <g transform="translate(314.960386 239.238437)scale(0.1 -0.1)">
       <defs>
        <path id="DejaVuSans-35" d="M 691 4666 
L 3169 4666 
L 3169 4134 
L 1269 4134 
L 1269 2991 
Q 1406 3038 1543 3061 
Q 1681 3084 1819 3084 
Q 2600 3084 3056 2656 
Q 3513 2228 3513 1497 
Q 3513 744 3044 326 
Q 2575 -91 1722 -91 
Q 1428 -91 1123 -41 
Q 819 9 494 109 
L 494 744 
Q 775 591 1075 516 
Q 1375 441 1709 441 
Q 2250 441 2565 725 
Q 2881 1009 2881 1497 
Q 2881 1984 2565 2268 
Q 2250 2553 1709 2553 
Q 1456 2553 1204 2497 
Q 953 2441 691 2322 
L 691 4666 
z
" transform="scale(0.015625)"/>
       </defs>
       <use xlink:href="#DejaVuSans-35"/>
       <use xlink:href="#DejaVuSans-30" x="63.623047"/>
      </g>
     </g>
    </g>
    <g id="xtick_7">
     <g id="line2d_7">
      <g>
       <use xlink:href="#mafa1a6a363" x="372.909943" y="224.64" style="stroke: #000000; stroke-width: 0.8"/>
      </g>
     </g>
     <g id="text_7">
      <!-- 60 -->
      <g transform="translate(366.547443 239.238437)scale(0.1 -0.1)">
       <defs>
        <path id="DejaVuSans-36" d="M 2113 2584 
Q 1688 2584 1439 2293 
Q 1191 2003 1191 1497 
Q 1191 994 1439 701 
Q 1688 409 2113 409 
Q 2538 409 2786 701 
Q 3034 994 3034 1497 
Q 3034 2003 2786 2293 
Q 2538 2584 2113 2584 
z
M 3366 4563 
L 3366 3988 
Q 3128 4100 2886 4159 
Q 2644 4219 2406 4219 
Q 1781 4219 1451 3797 
Q 1122 3375 1075 2522 
Q 1259 2794 1537 2939 
Q 1816 3084 2150 3084 
Q 2853 3084 3261 2657 
Q 3669 2231 3669 1497 
Q 3669 778 3244 343 
Q 2819 -91 2113 -91 
Q 1303 -91 875 529 
Q 447 1150 447 2328 
Q 447 3434 972 4092 
Q 1497 4750 2381 4750 
Q 2619 4750 2861 4703 
Q 3103 4656 3366 4563 
z
" transform="scale(0.015625)"/>
       </defs>
       <use xlink:href="#DejaVuSans-36"/>
       <use xlink:href="#DejaVuSans-30" x="63.623047"/>
      </g>
     </g>
    </g>
    <g id="text_8">
     <!-- Ride duration (min) -->
     <g transform="translate(172.066406 252.916562)scale(0.1 -0.1)">
      <defs>
       <path id="DejaVuSans-52" d="M 2841 2188 
Q 3044 2119 3236 1894 
Q 3428 1669 3622 1275 
L 4263 0 
L 3584 0 
L 2988 1197 
Q 2756 1666 2539 1819 
Q 2322 1972 1947 1972 
L 1259 1972 
L 1259 0 
L 628 0 
L 628 4666 
L 2053 4666 
Q 2853 4666 3247 4331 
Q 3641 3997 3641 3322 
Q 3641 2881 3436 2590 
Q 3231 2300 2841 2188 
z
M 1259 4147 
L 1259 2491 
L 2053 2491 
Q 2509 2491 2742 2702 
Q 2975 2913 2975 3322 
Q 2975 3731 2742 3939 
Q 2509 4147 2053 4147 
L 1259 4147 
z
" transform="scale(0.015625)"/>
       <path id="DejaVuSans-69" d="M 603 3500 
L 1178 3500 
L 1178 0 
L 603 0 
L 603 3500 
z
M 603 4863 
L 1178 4863 
L 1178 4134 
L 603 4134 
L 603 4863 
z
" transform="scale(0.015625)"/>
       <path id="DejaVuSans-64" d="M 2906 2969 
L 2906 4863 
L 3481 4863 
L 3481 0 
L 2906 0 
L 2906 525 
Q 2725 213 2448 61 
Q 2172 -91 1784 -91 
Q 1150 -91 751 415 
Q 353 922 353 1747 
Q 353 2572 751 3078 
Q 1150 3584 1784 3584 
Q 2172 3584 2448 3432 
Q 2725 3281 2906 2969 
z
M 947 1747 
Q 947 1113 1208 752 
Q 1469 391 1925 391 
Q 2381 391 2643 752 
Q 2906 1113 2906 1747 
Q 2906 2381 2643 2742 
Q 2381 3103 1925 3103 
Q 1469 3103 1208 2742 
Q 947 2381 947 1747 
z
" transform="scale(0.015625)"/>
       <path id="DejaVuSans-65" d="M 3597 1894 
L 3597 1613 
L 953 1613 
Q 991 1019 1311 708 
Q 1631 397 2203 397 
Q 2534 397 2845 478 
Q 3156 559 3463 722 
L 3463 178 
Q 3153 47 2828 -22 
Q 2503 -91 2169 -91 
Q 1331 -91 842 396 
Q 353 884 353 1716 
Q 353 2575 817 3079 
Q 1281 3584 2069 3584 
Q 2775 3584 3186 3129 
Q 3597 2675 3597 1894 
z
M 3022 2063 
Q 3016 2534 2758 2815 
Q 2500 3097 2075 3097 
Q 1594 3097 1305 2825 
Q 1016 2553 972 2059 
L 3022 2063 
z
" transform="scale(0.015625)"/>
       <path id="DejaVuSans-20" transform="scale(0.015625)"/>
       <path id="DejaVuSans-75" d="M 544 1381 
L 544 3500 
L 1119 3500 
L 1119 1403 
Q 1119 906 1312 657 
Q 1506 409 1894 409 
Q 2359 409 2629 706 
Q 2900 1003 2900 1516 
L 2900 3500 
L 3475 3500 
L 3475 0 
L 2900 0 
L 2900 538 
Q 2691 219 2414 64 
Q 2138 -91 1772 -91 
Q 1169 -91 856 284 
Q 544 659 544 1381 
z
M 1991 3584 
L 1991 3584 
z
" transform="scale(0.015625)"/>
       <path id="DejaVuSans-72" d="M 2631 2963 
Q 2534 3019 2420 3045 
Q 2306 3072 2169 3072 
Q 1681 3072 1420 2755 
Q 1159 2438 1159 1844 
L 1159 0 
L 581 0 
L 581 3500 
L 1159 3500 
L 1159 2956 
Q 1341 3275 1631 3429 
Q 1922 3584 2338 3584 
Q 2397 3584 2469 3576 
Q 2541 3569 2628 3553 
L 2631 2963 
z
" transform="scale(0.015625)"/>
       <path id="DejaVuSans-61" d="M 2194 1759 
Q 1497 1759 1228 1600 
Q 959 1441 959 1056 
Q 959 750 1161 570 
Q 1363 391 1709 391 
Q 2188 391 2477 730 
Q 2766 1069 2766 1631 
L 2766 1759 
L 2194 1759 
z
M 3341 1997 
L 3341 0 
L 2766 0 
L 2766 531 
Q 2569 213 2275 61 
Q 1981 -91 1556 -91 
Q 1019 -91 701 211 
Q 384 513 384 1019 
Q 384 1609 779 1909 
Q 1175 2209 1959 2209 
L 2766 2209 
L 2766 2266 
Q 2766 2663 2505 2880 
Q 2244 3097 1772 3097 
Q 1472 3097 1187 3025 
Q 903 2953 641 2809 
L 641 3341 
Q 956 3463 1253 3523 
Q 1550 3584 1831 3584 
Q 2591 3584 2966 3190 
Q 3341 2797 3341 1997 
z
" transform="scale(0.015625)"/>
       <path id="DejaVuSans-74" d="M 1172 4494 
L 1172 3500 
L 2356 3500 
L 2356 3053 
L 1172 3053 
L 1172 1153 
Q 1172 725 1289 603 
Q 1406 481 1766 481 
L 2356 481 
L 2356 0 
L 1766 0 
Q 1100 0 847 248 
Q 594 497 594 1153 
L 594 3053 
L 172 3053 
L 172 3500 
L 594 3500 
L 594 4494 
L 1172 4494 
z
" transform="scale(0.015625)"/>
       <path id="DejaVuSans-6f" d="M 1959 3097 
Q 1497 3097 1228 2736 
Q 959 2375 959 1747 
Q 959 1119 1226 758 
Q 1494 397 1959 397 
Q 2419 397 2687 759 
Q 2956 1122 2956 1747 
Q 2956 2369 2687 2733 
Q 2419 3097 1959 3097 
z
M 1959 3584 
Q 2709 3584 3137 3096 
Q 3566 2609 3566 1747 
Q 3566 888 3137 398 
Q 2709 -91 1959 -91 
Q 1206 -91 779 398 
Q 353 888 353 1747 
Q 353 2609 779 3096 
Q 1206 3584 1959 3584 
z
" transform="scale(0.015625)"/>
       <path id="DejaVuSans-6e" d="M 3513 2113 
L 3513 0 
L 2938 0 
L 2938 2094 
Q 2938 2591 2744 2837 
Q 2550 3084 2163 3084 
Q 1697 3084 1428 2787 
Q 1159 2491 1159 1978 
L 1159 0 
L 581 0 
L 581 3500 
L 1159 3500 
L 1159 2956 
Q 1366 3272 1645 3428 
Q 1925 3584 2291 3584 
Q 2894 3584 3203 3211 
Q 3513 2838 3513 2113 
z
" transform="scale(0.015625)"/>
       <path id="DejaVuSans-28" d="M 1984 4856 
Q 1566 4138 1362 3434 
Q 1159 2731 1159 2009 
Q 1159 1288 1364 580 
Q 1569 -128 1984 -844 
L 1484 -844 
Q 1016 -109 783 600 
Q 550 1309 550 2009 
Q 550 2706 781 3412 
Q 1013 4119 1484 4856 
L 1984 4856 
z
" transform="scale(0.015625)"/>
       <path id="DejaVuSans-6d" d="M 3328 2828 
Q 3544 3216 3844 3400 
Q 4144 3584 4550 3584 
Q 5097 3584 5394 3201 
Q 5691 2819 5691 2113 
L 5691 0 
L 5113 0 
L 5113 2094 
Q 5113 2597 4934 2840 
Q 4756 3084 4391 3084 
Q 3944 3084 3684 2787 
Q 3425 2491 3425 1978 
L 3425 0 
L 2847 0 
L 2847 2094 
Q 2847 2600 2669 2842 
Q 2491 3084 2119 3084 
Q 1678 3084 1418 2786 
Q 1159 2488 1159 1978 
L 1159 0 
L 581 0 
L 581 3500 
L 1159 3500 
L 1159 2956 
Q 1356 3278 1631 3431 
Q 1906 3584 2284 3584 
Q 2666 3584 2933 3390 
Q 3200 3197 3328 2828 
z
" transform="scale(0.015625)"/>
       <path id="DejaVuSans-29" d="M 513 4856 
L 1013 4856 
Q 1481 4119 1714 3412 
Q 1947 2706 1947 2009 
Q 1947 1309 1714 600 
Q 1481 -109 1013 -844 
L 513 -844 
Q 928 -128 1133 580 
Q 1338 1288 1338 2009 
Q 1338 2731 1133 3434 
Q 928 4138 513 4856 
z
" transform="scale(0.015625)"/>
      </defs>
      <use xlink:href="#DejaVuSans-52"/>
      <use xlink:href="#DejaVuSans-69" x="69.482422"/>
      <use xlink:href="#DejaVuSans-64" x="97.265625"/>
      <use xlink:href="#DejaVuSans-65" x="160.742188"/>
      <use xlink:href="#DejaVuSans-20" x="222.265625"/>
      <use xlink:href="#DejaVuSans-64" x="254.052734"/>
      <use xlink:href="#DejaVuSans-75" x="317.529297"/>
      <use xlink:href="#DejaVuSans-72" x="380.908203"/>
      <use xlink:href="#DejaVuSans-61" x="422.021484"/>
      <use xlink:href="#DejaVuSans-74" x="483.300781"/>
      <use xlink:href="#DejaVuSans-69" x="522.509766"/>
      <use xlink:href="#DejaVuSans-6f" x="550.292969"/>
      <use xlink:href="#DejaVuSans-6e" x="611.474609"/>
      <use xlink:href="#DejaVuSans-20" x="674.853516"/>
      <use xlink:href="#DejaVuSans-28" x="706.640625"/>
      <use xlink:href="#DejaVuSans-6d" x="745.654297"/>
      <use xlink:href="#DejaVuSans-69" x="843.066406"/>
      <use xlink:href="#DejaVuSans-6e" x="870.849609"/>
      <use xlink:href="#DejaVuSans-29" x="934.228516"/>
     </g>
    </g>
   </g>
   <g id="matplotlib.axis_2">
    <g id="ytick_1">
     <g id="line2d_8">
      <defs>
       <path id="m5f496ea01d" d="M 0 0 
L -3.5 0 
" style="stroke: #000000; stroke-width: 0.8"/>
      </defs>
      <g>
       <use xlink:href="#m5f496ea01d" x="53.328125" y="224.64" style="stroke: #000000; stroke-width: 0.8"/>
      </g>
     </g>
     <g id="text_9">
      <!-- 0 -->
      <g transform="translate(39.965625 228.439219)scale(0.1 -0.1)">
       <use xlink:href="#DejaVuSans-30"/>
      </g>
     </g>
    </g>
    <g id="ytick_2">
     <g id="line2d_9">
      <g>
       <use xlink:href="#m5f496ea01d" x="53.328125" y="189.882411" style="stroke: #000000; stroke-width: 0.8"/>
      </g>
     </g>
     <g id="text_10">
      <!-- 500 -->
      <g transform="translate(27.240625 193.68163)scale(0.1 -0.1)">
       <use xlink:href="#DejaVuSans-35"/>
       <use xlink:href="#DejaVuSans-30" x="63.623047"/>
       <use xlink:href="#DejaVuSans-30" x="127.246094"/>
      </g>
     </g>
    </g>
    <g id="ytick_3">
     <g id="line2d_10">
      <g>
       <use xlink:href="#m5f496ea01d" x="53.328125" y="155.124822" style="stroke: #000000; stroke-width: 0.8"/>
      </g>
     </g>
     <g id="text_11">
      <!-- 1000 -->
      <g transform="translate(20.878125 158.924041)scale(0.1 -0.1)">
       <use xlink:href="#DejaVuSans-31"/>
       <use xlink:href="#DejaVuSans-30" x="63.623047"/>
       <use xlink:href="#DejaVuSans-30" x="127.246094"/>
       <use xlink:href="#DejaVuSans-30" x="190.869141"/>
      </g>
     </g>
    </g>
    <g id="ytick_4">
     <g id="line2d_11">
      <g>
       <use xlink:href="#m5f496ea01d" x="53.328125" y="120.367233" style="stroke: #000000; stroke-width: 0.8"/>
      </g>
     </g>
     <g id="text_12">
      <!-- 1500 -->
      <g transform="translate(20.878125 124.166452)scale(0.1 -0.1)">
       <use xlink:href="#DejaVuSans-31"/>
       <use xlink:href="#DejaVuSans-35" x="63.623047"/>
       <use xlink:href="#DejaVuSans-30" x="127.246094"/>
       <use xlink:href="#DejaVuSans-30" x="190.869141"/>
      </g>
     </g>
    </g>
    <g id="ytick_5">
     <g id="line2d_12">
      <g>
       <use xlink:href="#m5f496ea01d" x="53.328125" y="85.609645" style="stroke: #000000; stroke-width: 0.8"/>
      </g>
     </g>
     <g id="text_13">
      <!-- 2000 -->
      <g transform="translate(20.878125 89.408863)scale(0.1 -0.1)">
       <use xlink:href="#DejaVuSans-32"/>
       <use xlink:href="#DejaVuSans-30" x="63.623047"/>
       <use xlink:href="#DejaVuSans-30" x="127.246094"/>
       <use xlink:href="#DejaVuSans-30" x="190.869141"/>
      </g>
     </g>
    </g>
    <g id="ytick_6">
     <g id="line2d_13">
      <g>
       <use xlink:href="#m5f496ea01d" x="53.328125" y="50.852056" style="stroke: #000000; stroke-width: 0.8"/>
      </g>
     </g>
     <g id="text_14">
      <!-- 2500 -->
      <g transform="translate(20.878125 54.651275)scale(0.1 -0.1)">
       <use xlink:href="#DejaVuSans-32"/>
       <use xlink:href="#DejaVuSans-35" x="63.623047"/>
       <use xlink:href="#DejaVuSans-30" x="127.246094"/>
       <use xlink:href="#DejaVuSans-30" x="190.869141"/>
      </g>
     </g>
    </g>
    <g id="ytick_7">
     <g id="line2d_14">
      <g>
       <use xlink:href="#m5f496ea01d" x="53.328125" y="16.094467" style="stroke: #000000; stroke-width: 0.8"/>
      </g>
     </g>
     <g id="text_15">
      <!-- 3000 -->
      <g transform="translate(20.878125 19.893686)scale(0.1 -0.1)">
       <use xlink:href="#DejaVuSans-33"/>
       <use xlink:href="#DejaVuSans-30" x="63.623047"/>
       <use xlink:href="#DejaVuSans-30" x="127.246094"/>
       <use xlink:href="#DejaVuSans-30" x="190.869141"/>
      </g>
     </g>
    </g>
    <g id="text_16">
     <!-- Count -->
     <g transform="translate(14.798438 130.768437)rotate(-90)scale(0.1 -0.1)">
      <defs>
       <path id="DejaVuSans-43" d="M 4122 4306 
L 4122 3641 
Q 3803 3938 3442 4084 
Q 3081 4231 2675 4231 
Q 1875 4231 1450 3742 
Q 1025 3253 1025 2328 
Q 1025 1406 1450 917 
Q 1875 428 2675 428 
Q 3081 428 3442 575 
Q 3803 722 4122 1019 
L 4122 359 
Q 3791 134 3420 21 
Q 3050 -91 2638 -91 
Q 1578 -91 968 557 
Q 359 1206 359 2328 
Q 359 3453 968 4101 
Q 1578 4750 2638 4750 
Q 3056 4750 3426 4639 
Q 3797 4528 4122 4306 
z
" transform="scale(0.015625)"/>
      </defs>
      <use xlink:href="#DejaVuSans-43"/>
      <use xlink:href="#DejaVuSans-6f" x="69.824219"/>
      <use xlink:href="#DejaVuSans-75" x="131.005859"/>
      <use xlink:href="#DejaVuSans-6e" x="194.384766"/>
      <use xlink:href="#DejaVuSans-74" x="257.763672"/>
     </g>
    </g>
   </g>
   <g id="patch_88">
    <path d="M 53.328125 224.64 
L 53.328125 7.2 
" style="fill: none; stroke: #000000; stroke-width: 0.8; stroke-linejoin: miter; stroke-linecap: square"/>
   </g>
   <g id="patch_89">
    <path d="M 388.128125 224.64 
L 388.128125 7.2 
" style="fill: none; stroke: #000000; stroke-width: 0.8; stroke-linejoin: miter; stroke-linecap: square"/>
   </g>
   <g id="patch_90">
    <path d="M 53.328125 224.64 
L 388.128125 224.64 
" style="fill: none; stroke: #000000; stroke-width: 0.8; stroke-linejoin: miter; stroke-linecap: square"/>
   </g>
   <g id="patch_91">
    <path d="M 53.328125 7.2 
L 388.128125 7.2 
" style="fill: none; stroke: #000000; stroke-width: 0.8; stroke-linejoin: miter; stroke-linecap: square"/>
   </g>
  </g>
 </g>
 <defs>
  <clipPath id="p6201d727d4">
   <rect x="53.328125" y="7.2" width="334.8" height="217.44"/>
  </clipPath>
 </defs>
</svg>
