<?xml version="1.0" encoding="utf-8" standalone="no"?>
<!DOCTYPE svg PUBLIC "-//W3C//DTD SVG 1.1//EN"
  "http://www.w3.org/Graphics/SVG/1.1/DTD/svg11.dtd">
<svg xmlns:xlink="http://www.w3.org/1999/xlink" width="487.840625pt" height="218.434687pt" viewBox="0 0 487.840625 218.434687" xmlns="http://www.w3.org/2000/svg" version="1.1">
 <metadata>
  <rdf:RDF xmlns:dc="http://purl.org/dc/elements/1.1/" xmlns:cc="http://creativecommons.org/ns#" xmlns:rdf="http://www.w3.org/1999/02/22-rdf-syntax-ns#">
   <cc:Work>
    <dc:type rdf:resource="http://purl.org/dc/dcmitype/StillImage"/>
    <dc:date>2022-07-06T22:12:52.105994</dc:date>
    <dc:format>image/svg+xml</dc:format>
    <dc:creator>
     <cc:Agent>
      <dc:title>Matplotlib v3.5.1, https://matplotlib.org/</dc:title>
     </cc:Agent>
    </dc:creator>
   </cc:Work>
  </rdf:RDF>
 </metadata>
 <defs>
  <style type="text/css">*{stroke-linejoin: round; stroke-linecap: butt}</style>
 </defs>
 <g id="figure_1">
  <g id="patch_1">
   <path d="M 0 218.434687 
L 487.840625 218.434687 
L 487.840625 0 
L 0 0 
L 0 218.434687 
z
" style="fill: none"/>
  </g>
  <g id="axes_1">
   <g id="patch_2">
    <path d="M 34.240625 180.878437 
L 237.149716 180.878437 
L 237.149716 17.798437 
L 34.240625 17.798437 
z
" style="fill: #ffffff"/>
   </g>
   <g id="patch_3">
    <path d="M 55.782262 180.878437 
L 58.978779 180.878437 
L 58.978779 176.564152 
L 55.782262 176.564152 
z
" clip-path="url(#pb2a9fecfee)" style="fill: #1f77b4; opacity: 0.4"/>
   </g>
   <g id="patch_4">
    <path d="M 58.978779 180.878437 
L 62.175295 180.878437 
L 62.175295 171.387009 
L 58.978779 171.387009 
z
" clip-path="url(#pb2a9fecfee)" style="fill: #1f77b4; opacity: 0.4"/>
   </g>
   <g id="patch_5">
    <path d="M 62.175295 180.878437 
L 65.371811 180.878437 
L 65.371811 169.661295 
L 62.175295 169.661295 
z
" clip-path="url(#pb2a9fecfee)" style="fill: #1f77b4; opacity: 0.4"/>
   </g>
   <g id="patch_6">
    <path d="M 65.371811 180.878437 
L 68.568328 180.878437 
L 68.568328 128.244152 
L 65.371811 128.244152 
z
" clip-path="url(#pb2a9fecfee)" style="fill: #1f77b4; opacity: 0.4"/>
   </g>
   <g id="patch_7">
    <path d="M 68.568328 180.878437 
L 71.764844 180.878437 
L 71.764844 130.832723 
L 68.568328 130.832723 
z
" clip-path="url(#pb2a9fecfee)" style="fill: #1f77b4; opacity: 0.4"/>
   </g>
   <g id="patch_8">
    <path d="M 71.764844 180.878437 
L 74.96136 180.878437 
L 74.96136 72.158437 
L 71.764844 72.158437 
z
" clip-path="url(#pb2a9fecfee)" style="fill: #1f77b4; opacity: 0.4"/>
   </g>
   <g id="patch_9">
    <path d="M 74.96136 180.878437 
L 78.157877 180.878437 
L 78.157877 38.507009 
L 74.96136 38.507009 
z
" clip-path="url(#pb2a9fecfee)" style="fill: #1f77b4; opacity: 0.4"/>
   </g>
   <g id="patch_10">
    <path d="M 78.157877 180.878437 
L 81.354393 180.878437 
L 81.354393 25.564152 
L 78.157877 25.564152 
z
" clip-path="url(#pb2a9fecfee)" style="fill: #1f77b4; opacity: 0.4"/>
   </g>
   <g id="patch_11">
    <path d="M 81.354393 180.878437 
L 84.550909 180.878437 
L 84.550909 75.609866 
L 81.354393 75.609866 
z
" clip-path="url(#pb2a9fecfee)" style="fill: #1f77b4; opacity: 0.4"/>
   </g>
   <g id="patch_12">
    <path d="M 84.550909 180.878437 
L 87.747426 180.878437 
L 87.747426 68.707009 
L 84.550909 68.707009 
z
" clip-path="url(#pb2a9fecfee)" style="fill: #1f77b4; opacity: 0.4"/>
   </g>
   <g id="patch_13">
    <path d="M 87.747426 180.878437 
L 90.943942 180.878437 
L 90.943942 76.472723 
L 87.747426 76.472723 
z
" clip-path="url(#pb2a9fecfee)" style="fill: #1f77b4; opacity: 0.4"/>
   </g>
   <g id="patch_14">
    <path d="M 90.943942 180.878437 
L 94.140458 180.878437 
L 94.140458 113.57558 
L 90.943942 113.57558 
z
" clip-path="url(#pb2a9fecfee)" style="fill: #1f77b4; opacity: 0.4"/>
   </g>
   <g id="patch_15">
    <path d="M 94.140458 180.878437 
L 97.336975 180.878437 
L 97.336975 128.244152 
L 94.140458 128.244152 
z
" clip-path="url(#pb2a9fecfee)" style="fill: #1f77b4; opacity: 0.4"/>
   </g>
   <g id="patch_16">
    <path d="M 97.336975 180.878437 
L 100.533491 180.878437 
L 100.533491 125.65558 
L 97.336975 125.65558 
z
" clip-path="url(#pb2a9fecfee)" style="fill: #1f77b4; opacity: 0.4"/>
   </g>
   <g id="patch_17">
    <path d="M 100.533491 180.878437 
L 103.730007 180.878437 
L 103.730007 138.598437 
L 100.533491 138.598437 
z
" clip-path="url(#pb2a9fecfee)" style="fill: #1f77b4; opacity: 0.4"/>
   </g>
   <g id="patch_18">
    <path d="M 103.730007 180.878437 
L 106.926524 180.878437 
L 106.926524 149.81558 
L 103.730007 149.81558 
z
" clip-path="url(#pb2a9fecfee)" style="fill: #1f77b4; opacity: 0.4"/>
   </g>
   <g id="patch_19">
    <path d="M 106.926524 180.878437 
L 110.12304 180.878437 
L 110.12304 149.81558 
L 106.926524 149.81558 
z
" clip-path="url(#pb2a9fecfee)" style="fill: #1f77b4; opacity: 0.4"/>
   </g>
   <g id="patch_20">
    <path d="M 110.12304 180.878437 
L 113.319556 180.878437 
L 113.319556 159.307009 
L 110.12304 159.307009 
z
" clip-path="url(#pb2a9fecfee)" style="fill: #1f77b4; opacity: 0.4"/>
   </g>
   <g id="patch_21">
    <path d="M 113.319556 180.878437 
L 116.516073 180.878437 
L 116.516073 169.661295 
L 113.319556 169.661295 
z
" clip-path="url(#pb2a9fecfee)" style="fill: #1f77b4; opacity: 0.4"/>
   </g>
   <g id="patch_22">
    <path d="M 116.516073 180.878437 
L 119.712589 180.878437 
L 119.712589 159.307009 
L 116.516073 159.307009 
z
" clip-path="url(#pb2a9fecfee)" style="fill: #1f77b4; opacity: 0.4"/>
   </g>
   <g id="patch_23">
    <path d="M 119.712589 180.878437 
L 122.909105 180.878437 
L 122.909105 167.072723 
L 119.712589 167.072723 
z
" clip-path="url(#pb2a9fecfee)" style="fill: #1f77b4; opacity: 0.4"/>
   </g>
   <g id="patch_24">
    <path d="M 122.909105 180.878437 
L 126.105621 180.878437 
L 126.105621 171.387009 
L 122.909105 171.387009 
z
" clip-path="url(#pb2a9fecfee)" style="fill: #1f77b4; opacity: 0.4"/>
   </g>
   <g id="patch_25">
    <path d="M 126.105621 180.878437 
L 129.302138 180.878437 
L 129.302138 177.427009 
L 126.105621 177.427009 
z
" clip-path="url(#pb2a9fecfee)" style="fill: #1f77b4; opacity: 0.4"/>
   </g>
   <g id="patch_26">
    <path d="M 129.302138 180.878437 
L 132.498654 180.878437 
L 132.498654 171.387009 
L 129.302138 171.387009 
z
" clip-path="url(#pb2a9fecfee)" style="fill: #1f77b4; opacity: 0.4"/>
   </g>
   <g id="patch_27">
    <path d="M 132.498654 180.878437 
L 135.69517 180.878437 
L 135.69517 173.112723 
L 132.498654 173.112723 
z
" clip-path="url(#pb2a9fecfee)" style="fill: #1f77b4; opacity: 0.4"/>
   </g>
   <g id="patch_28">
    <path d="M 135.69517 180.878437 
L 138.891687 180.878437 
L 138.891687 176.564152 
L 135.69517 176.564152 
z
" clip-path="url(#pb2a9fecfee)" style="fill: #1f77b4; opacity: 0.4"/>
   </g>
   <g id="patch_29">
    <path d="M 138.891687 180.878437 
L 142.088203 180.878437 
L 142.088203 177.427009 
L 138.891687 177.427009 
z
" clip-path="url(#pb2a9fecfee)" style="fill: #1f77b4; opacity: 0.4"/>
   </g>
   <g id="patch_30">
    <path d="M 142.088203 180.878437 
L 145.284719 180.878437 
L 145.284719 177.427009 
L 142.088203 177.427009 
z
" clip-path="url(#pb2a9fecfee)" style="fill: #1f77b4; opacity: 0.4"/>
   </g>
   <g id="patch_31">
    <path d="M 145.284719 180.878437 
L 148.481236 180.878437 
L 148.481236 177.427009 
L 145.284719 177.427009 
z
" clip-path="url(#pb2a9fecfee)" style="fill: #1f77b4; opacity: 0.4"/>
   </g>
   <g id="patch_32">
    <path d="M 148.481236 180.878437 
L 151.677752 180.878437 
L 151.677752 179.152723 
L 148.481236 179.152723 
z
" clip-path="url(#pb2a9fecfee)" style="fill: #1f77b4; opacity: 0.4"/>
   </g>
   <g id="patch_33">
    <path d="M 151.677752 180.878437 
L 154.874268 180.878437 
L 154.874268 180.01558 
L 151.677752 180.01558 
z
" clip-path="url(#pb2a9fecfee)" style="fill: #1f77b4; opacity: 0.4"/>
   </g>
   <g id="patch_34">
    <path d="M 154.874268 180.878437 
L 158.070785 180.878437 
L 158.070785 180.01558 
L 154.874268 180.01558 
z
" clip-path="url(#pb2a9fecfee)" style="fill: #1f77b4; opacity: 0.4"/>
   </g>
   <g id="patch_35">
    <path d="M 158.070785 180.878437 
L 161.267301 180.878437 
L 161.267301 180.01558 
L 158.070785 180.01558 
z
" clip-path="url(#pb2a9fecfee)" style="fill: #1f77b4; opacity: 0.4"/>
   </g>
   <g id="patch_36">
    <path d="M 161.267301 180.878437 
L 164.463817 180.878437 
L 164.463817 180.878437 
L 161.267301 180.878437 
z
" clip-path="url(#pb2a9fecfee)" style="fill: #1f77b4; opacity: 0.4"/>
   </g>
   <g id="patch_37">
    <path d="M 164.463817 180.878437 
L 167.660334 180.878437 
L 167.660334 180.01558 
L 164.463817 180.01558 
z
" clip-path="url(#pb2a9fecfee)" style="fill: #1f77b4; opacity: 0.4"/>
   </g>
   <g id="patch_38">
    <path d="M 167.660334 180.878437 
L 170.85685 180.878437 
L 170.85685 180.878437 
L 167.660334 180.878437 
z
" clip-path="url(#pb2a9fecfee)" style="fill: #1f77b4; opacity: 0.4"/>
   </g>
   <g id="patch_39">
    <path d="M 170.85685 180.878437 
L 174.053366 180.878437 
L 174.053366 179.152723 
L 170.85685 179.152723 
z
" clip-path="url(#pb2a9fecfee)" style="fill: #1f77b4; opacity: 0.4"/>
   </g>
   <g id="patch_40">
    <path d="M 174.053366 180.878437 
L 177.249883 180.878437 
L 177.249883 180.878437 
L 174.053366 180.878437 
z
" clip-path="url(#pb2a9fecfee)" style="fill: #1f77b4; opacity: 0.4"/>
   </g>
   <g id="patch_41">
    <path d="M 177.249883 180.878437 
L 180.446399 180.878437 
L 180.446399 180.01558 
L 177.249883 180.01558 
z
" clip-path="url(#pb2a9fecfee)" style="fill: #1f77b4; opacity: 0.4"/>
   </g>
   <g id="patch_42">
    <path d="M 180.446399 180.878437 
L 183.642915 180.878437 
L 183.642915 180.878437 
L 180.446399 180.878437 
z
" clip-path="url(#pb2a9fecfee)" style="fill: #1f77b4; opacity: 0.4"/>
   </g>
   <g id="patch_43">
    <path d="M 183.642915 180.878437 
L 186.839432 180.878437 
L 186.839432 179.152723 
L 183.642915 179.152723 
z
" clip-path="url(#pb2a9fecfee)" style="fill: #1f77b4; opacity: 0.4"/>
   </g>
   <g id="patch_44">
    <path d="M 186.839432 180.878437 
L 190.035948 180.878437 
L 190.035948 180.878437 
L 186.839432 180.878437 
z
" clip-path="url(#pb2a9fecfee)" style="fill: #1f77b4; opacity: 0.4"/>
   </g>
   <g id="patch_45">
    <path d="M 190.035948 180.878437 
L 193.232464 180.878437 
L 193.232464 180.878437 
L 190.035948 180.878437 
z
" clip-path="url(#pb2a9fecfee)" style="fill: #1f77b4; opacity: 0.4"/>
   </g>
   <g id="patch_46">
    <path d="M 193.232464 180.878437 
L 196.428981 180.878437 
L 196.428981 180.878437 
L 193.232464 180.878437 
z
" clip-path="url(#pb2a9fecfee)" style="fill: #1f77b4; opacity: 0.4"/>
   </g>
   <g id="patch_47">
    <path d="M 196.428981 180.878437 
L 199.625497 180.878437 
L 199.625497 180.878437 
L 196.428981 180.878437 
z
" clip-path="url(#pb2a9fecfee)" style="fill: #1f77b4; opacity: 0.4"/>
   </g>
   <g id="patch_48">
    <path d="M 199.625497 180.878437 
L 202.822013 180.878437 
L 202.822013 180.878437 
L 199.625497 180.878437 
z
" clip-path="url(#pb2a9fecfee)" style="fill: #1f77b4; opacity: 0.4"/>
   </g>
   <g id="patch_49">
    <path d="M 202.822013 180.878437 
L 206.018529 180.878437 
L 206.018529 180.878437 
L 202.822013 180.878437 
z
" clip-path="url(#pb2a9fecfee)" style="fill: #1f77b4; opacity: 0.4"/>
   </g>
   <g id="patch_50">
    <path d="M 206.018529 180.878437 
L 209.215046 180.878437 
L 209.215046 180.878437 
L 206.018529 180.878437 
z
" clip-path="url(#pb2a9fecfee)" style="fill: #1f77b4; opacity: 0.4"/>
   </g>
   <g id="patch_51">
    <path d="M 209.215046 180.878437 
L 212.411562 180.878437 
L 212.411562 180.878437 
L 209.215046 180.878437 
z
" clip-path="url(#pb2a9fecfee)" style="fill: #1f77b4; opacity: 0.4"/>
   </g>
   <g id="patch_52">
    <path d="M 212.411562 180.878437 
L 215.608078 180.878437 
L 215.608078 179.152723 
L 212.411562 179.152723 
z
" clip-path="url(#pb2a9fecfee)" style="fill: #1f77b4; opacity: 0.4"/>
   </g>
   <g id="matplotlib.axis_1">
    <g id="xtick_1">
     <g id="line2d_1">
      <defs>
       <path id="m92bf7a119b" d="M 0 0 
L 0 3.5 
" style="stroke: #000000; stroke-width: 0.8"/>
      </defs>
      <g>
       <use xlink:href="#m92bf7a119b" x="48.036226" y="180.878437" style="stroke: #000000; stroke-width: 0.8"/>
      </g>
     </g>
     <g id="text_1">
      <!-- 0 -->
      <g transform="translate(44.854976 195.476875)scale(0.1 -0.1)">
       <defs>
        <path id="DejaVuSans-30" d="M 2034 4250 
Q 1547 4250 1301 3770 
Q 1056 3291 1056 2328 
Q 1056 1369 1301 889 
Q 1547 409 2034 409 
Q 2525 409 2770 889 
Q 3016 1369 3016 2328 
Q 3016 3291 2770 3770 
Q 2525 4250 2034 4250 
z
M 2034 4750 
Q 2819 4750 3233 4129 
Q 3647 3509 3647 2328 
Q 3647 1150 3233 529 
Q 2819 -91 2034 -91 
Q 1250 -91 836 529 
Q 422 1150 422 2328 
Q 422 3509 836 4129 
Q 1250 4750 2034 4750 
z
" transform="scale(0.015625)"/>
       </defs>
       <use xlink:href="#DejaVuSans-30"/>
      </g>
     </g>
    </g>
    <g id="xtick_2">
     <g id="line2d_2">
      <g>
       <use xlink:href="#m92bf7a119b" x="92.426121" y="180.878437" style="stroke: #000000; stroke-width: 0.8"/>
      </g>
     </g>
     <g id="text_2">
      <!-- 200000 -->
      <g transform="translate(73.338621 195.476875)scale(0.1 -0.1)">
       <defs>
        <path id="DejaVuSans-32" d="M 1228 531 
L 3431 531 
L 3431 0 
L 469 0 
L 469 531 
Q 828 903 1448 1529 
Q 2069 2156 2228 2338 
Q 2531 2678 2651 2914 
Q 2772 3150 2772 3378 
Q 2772 3750 2511 3984 
Q 2250 4219 1831 4219 
Q 1534 4219 1204 4116 
Q 875 4013 500 3803 
L 500 4441 
Q 881 4594 1212 4672 
Q 1544 4750 1819 4750 
Q 2544 4750 2975 4387 
Q 3406 4025 3406 3419 
Q 3406 3131 3298 2873 
Q 3191 2616 2906 2266 
Q 2828 2175 2409 1742 
Q 1991 1309 1228 531 
z
" transform="scale(0.015625)"/>
       </defs>
       <use xlink:href="#DejaVuSans-32"/>
       <use xlink:href="#DejaVuSans-30" x="63.623047"/>
       <use xlink:href="#DejaVuSans-30" x="127.246094"/>
       <use xlink:href="#DejaVuSans-30" x="190.869141"/>
       <use xlink:href="#DejaVuSans-30" x="254.492188"/>
       <use xlink:href="#DejaVuSans-30" x="318.115234"/>
      </g>
     </g>
    </g>
    <g id="xtick_3">
     <g id="line2d_3">
      <g>
       <use xlink:href="#m92bf7a119b" x="136.816015" y="180.878437" style="stroke: #000000; stroke-width: 0.8"/>
      </g>
     </g>
     <g id="text_3">
      <!-- 400000 -->
      <g transform="translate(117.728515 195.476875)scale(0.1 -0.1)">
       <defs>
        <path id="DejaVuSans-34" d="M 2419 4116 
L 825 1625 
L 2419 1625 
L 2419 4116 
z
M 2253 4666 
L 3047 4666 
L 3047 1625 
L 3713 1625 
L 3713 1100 
L 3047 1100 
L 3047 0 
L 2419 0 
L 2419 1100 
L 313 1100 
L 313 1709 
L 2253 4666 
z
" transform="scale(0.015625)"/>
       </defs>
       <use xlink:href="#DejaVuSans-34"/>
       <use xlink:href="#DejaVuSans-30" x="63.623047"/>
       <use xlink:href="#DejaVuSans-30" x="127.246094"/>
       <use xlink:href="#DejaVuSans-30" x="190.869141"/>
       <use xlink:href="#DejaVuSans-30" x="254.492188"/>
       <use xlink:href="#DejaVuSans-30" x="318.115234"/>
      </g>
     </g>
    </g>
    <g id="xtick_4">
     <g id="line2d_4">
      <g>
       <use xlink:href="#m92bf7a119b" x="181.20591" y="180.878437" style="stroke: #000000; stroke-width: 0.8"/>
      </g>
     </g>
     <g id="text_4">
      <!-- 600000 -->
      <g transform="translate(162.11841 195.476875)scale(0.1 -0.1)">
       <defs>
        <path id="DejaVuSans-36" d="M 2113 2584 
Q 1688 2584 1439 2293 
Q 1191 2003 1191 1497 
Q 1191 994 1439 701 
Q 1688 409 2113 409 
Q 2538 409 2786 701 
Q 3034 994 3034 1497 
Q 3034 2003 2786 2293 
Q 2538 2584 2113 2584 
z
M 3366 4563 
L 3366 3988 
Q 3128 4100 2886 4159 
Q 2644 4219 2406 4219 
Q 1781 4219 1451 3797 
Q 1122 3375 1075 2522 
Q 1259 2794 1537 2939 
Q 1816 3084 2150 3084 
Q 2853 3084 3261 2657 
Q 3669 2231 3669 1497 
Q 3669 778 3244 343 
Q 2819 -91 2113 -91 
Q 1303 -91 875 529 
Q 447 1150 447 2328 
Q 447 3434 972 4092 
Q 1497 4750 2381 4750 
Q 2619 4750 2861 4703 
Q 3103 4656 3366 4563 
z
" transform="scale(0.015625)"/>
       </defs>
       <use xlink:href="#DejaVuSans-36"/>
       <use xlink:href="#DejaVuSans-30" x="63.623047"/>
       <use xlink:href="#DejaVuSans-30" x="127.246094"/>
       <use xlink:href="#DejaVuSans-30" x="190.869141"/>
       <use xlink:href="#DejaVuSans-30" x="254.492188"/>
       <use xlink:href="#DejaVuSans-30" x="318.115234"/>
      </g>
     </g>
    </g>
    <g id="xtick_5">
     <g id="line2d_5">
      <g>
       <use xlink:href="#m92bf7a119b" x="225.595805" y="180.878437" style="stroke: #000000; stroke-width: 0.8"/>
      </g>
     </g>
     <g id="text_5">
      <!-- 800000 -->
      <g transform="translate(206.508305 195.476875)scale(0.1 -0.1)">
       <defs>
        <path id="DejaVuSans-38" d="M 2034 2216 
Q 1584 2216 1326 1975 
Q 1069 1734 1069 1313 
Q 1069 891 1326 650 
Q 1584 409 2034 409 
Q 2484 409 2743 651 
Q 3003 894 3003 1313 
Q 3003 1734 2745 1975 
Q 2488 2216 2034 2216 
z
M 1403 2484 
Q 997 2584 770 2862 
Q 544 3141 544 3541 
Q 544 4100 942 4425 
Q 1341 4750 2034 4750 
Q 2731 4750 3128 4425 
Q 3525 4100 3525 3541 
Q 3525 3141 3298 2862 
Q 3072 2584 2669 2484 
Q 3125 2378 3379 2068 
Q 3634 1759 3634 1313 
Q 3634 634 3220 271 
Q 2806 -91 2034 -91 
Q 1263 -91 848 271 
Q 434 634 434 1313 
Q 434 1759 690 2068 
Q 947 2378 1403 2484 
z
M 1172 3481 
Q 1172 3119 1398 2916 
Q 1625 2713 2034 2713 
Q 2441 2713 2670 2916 
Q 2900 3119 2900 3481 
Q 2900 3844 2670 4047 
Q 2441 4250 2034 4250 
Q 1625 4250 1398 4047 
Q 1172 3844 1172 3481 
z
" transform="scale(0.015625)"/>
       </defs>
       <use xlink:href="#DejaVuSans-38"/>
       <use xlink:href="#DejaVuSans-30" x="63.623047"/>
       <use xlink:href="#DejaVuSans-30" x="127.246094"/>
       <use xlink:href="#DejaVuSans-30" x="190.869141"/>
       <use xlink:href="#DejaVuSans-30" x="254.492188"/>
       <use xlink:href="#DejaVuSans-30" x="318.115234"/>
      </g>
     </g>
    </g>
    <g id="text_6">
     <!-- Sale Price -->
     <g transform="translate(111.204545 209.155)scale(0.1 -0.1)">
      <defs>
       <path id="DejaVuSans-53" d="M 3425 4513 
L 3425 3897 
Q 3066 4069 2747 4153 
Q 2428 4238 2131 4238 
Q 1616 4238 1336 4038 
Q 1056 3838 1056 3469 
Q 1056 3159 1242 3001 
Q 1428 2844 1947 2747 
L 2328 2669 
Q 3034 2534 3370 2195 
Q 3706 1856 3706 1288 
Q 3706 609 3251 259 
Q 2797 -91 1919 -91 
Q 1588 -91 1214 -16 
Q 841 59 441 206 
L 441 856 
Q 825 641 1194 531 
Q 1563 422 1919 422 
Q 2459 422 2753 634 
Q 3047 847 3047 1241 
Q 3047 1584 2836 1778 
Q 2625 1972 2144 2069 
L 1759 2144 
Q 1053 2284 737 2584 
Q 422 2884 422 3419 
Q 422 4038 858 4394 
Q 1294 4750 2059 4750 
Q 2388 4750 2728 4690 
Q 3069 4631 3425 4513 
z
" transform="scale(0.015625)"/>
       <path id="DejaVuSans-61" d="M 2194 1759 
Q 1497 1759 1228 1600 
Q 959 1441 959 1056 
Q 959 750 1161 570 
Q 1363 391 1709 391 
Q 2188 391 2477 730 
Q 2766 1069 2766 1631 
L 2766 1759 
L 2194 1759 
z
M 3341 1997 
L 3341 0 
L 2766 0 
L 2766 531 
Q 2569 213 2275 61 
Q 1981 -91 1556 -91 
Q 1019 -91 701 211 
Q 384 513 384 1019 
Q 384 1609 779 1909 
Q 1175 2209 1959 2209 
L 2766 2209 
L 2766 2266 
Q 2766 2663 2505 2880 
Q 2244 3097 1772 3097 
Q 1472 3097 1187 3025 
Q 903 2953 641 2809 
L 641 3341 
Q 956 3463 1253 3523 
Q 1550 3584 1831 3584 
Q 2591 3584 2966 3190 
Q 3341 2797 3341 1997 
z
" transform="scale(0.015625)"/>
       <path id="DejaVuSans-6c" d="M 603 4863 
L 1178 4863 
L 1178 0 
L 603 0 
L 603 4863 
z
" transform="scale(0.015625)"/>
       <path id="DejaVuSans-65" d="M 3597 1894 
L 3597 1613 
L 953 1613 
Q 991 1019 1311 708 
Q 1631 397 2203 397 
Q 2534 397 2845 478 
Q 3156 559 3463 722 
L 3463 178 
Q 3153 47 2828 -22 
Q 2503 -91 2169 -91 
Q 1331 -91 842 396 
Q 353 884 353 1716 
Q 353 2575 817 3079 
Q 1281 3584 2069 3584 
Q 2775 3584 3186 3129 
Q 3597 2675 3597 1894 
z
M 3022 2063 
Q 3016 2534 2758 2815 
Q 2500 3097 2075 3097 
Q 1594 3097 1305 2825 
Q 1016 2553 972 2059 
L 3022 2063 
z
" transform="scale(0.015625)"/>
       <path id="DejaVuSans-20" transform="scale(0.015625)"/>
       <path id="DejaVuSans-50" d="M 1259 4147 
L 1259 2394 
L 2053 2394 
Q 2494 2394 2734 2622 
Q 2975 2850 2975 3272 
Q 2975 3691 2734 3919 
Q 2494 4147 2053 4147 
L 1259 4147 
z
M 628 4666 
L 2053 4666 
Q 2838 4666 3239 4311 
Q 3641 3956 3641 3272 
Q 3641 2581 3239 2228 
Q 2838 1875 2053 1875 
L 1259 1875 
L 1259 0 
L 628 0 
L 628 4666 
z
" transform="scale(0.015625)"/>
       <path id="DejaVuSans-72" d="M 2631 2963 
Q 2534 3019 2420 3045 
Q 2306 3072 2169 3072 
Q 1681 3072 1420 2755 
Q 1159 2438 1159 1844 
L 1159 0 
L 581 0 
L 581 3500 
L 1159 3500 
L 1159 2956 
Q 1341 3275 1631 3429 
Q 1922 3584 2338 3584 
Q 2397 3584 2469 3576 
Q 2541 3569 2628 3553 
L 2631 2963 
z
" transform="scale(0.015625)"/>
       <path id="DejaVuSans-69" d="M 603 3500 
L 1178 3500 
L 1178 0 
L 603 0 
L 603 3500 
z
M 603 4863 
L 1178 4863 
L 1178 4134 
L 603 4134 
L 603 4863 
z
" transform="scale(0.015625)"/>
       <path id="DejaVuSans-63" d="M 3122 3366 
L 3122 2828 
Q 2878 2963 2633 3030 
Q 2388 3097 2138 3097 
Q 1578 3097 1268 2742 
Q 959 2388 959 1747 
Q 959 1106 1268 751 
Q 1578 397 2138 397 
Q 2388 397 2633 464 
Q 2878 531 3122 666 
L 3122 134 
Q 2881 22 2623 -34 
Q 2366 -91 2075 -91 
Q 1284 -91 818 406 
Q 353 903 353 1747 
Q 353 2603 823 3093 
Q 1294 3584 2113 3584 
Q 2378 3584 2631 3529 
Q 2884 3475 3122 3366 
z
" transform="scale(0.015625)"/>
      </defs>
      <use xlink:href="#DejaVuSans-53"/>
      <use xlink:href="#DejaVuSans-61" x="63.476562"/>
      <use xlink:href="#DejaVuSans-6c" x="124.755859"/>
      <use xlink:href="#DejaVuSans-65" x="152.539062"/>
      <use xlink:href="#DejaVuSans-20" x="214.0625"/>
      <use xlink:href="#DejaVuSans-50" x="245.849609"/>
      <use xlink:href="#DejaVuSans-72" x="304.402344"/>
      <use xlink:href="#DejaVuSans-69" x="345.515625"/>
      <use xlink:href="#DejaVuSans-63" x="373.298828"/>
      <use xlink:href="#DejaVuSans-65" x="428.279297"/>
     </g>
    </g>
   </g>
   <g id="matplotlib.axis_2">
    <g id="ytick_1">
     <g id="line2d_6">
      <defs>
       <path id="mb7db4aa625" d="M 0 0 
L -3.5 0 
" style="stroke: #000000; stroke-width: 0.8"/>
      </defs>
      <g>
       <use xlink:href="#mb7db4aa625" x="34.240625" y="180.878437" style="stroke: #000000; stroke-width: 0.8"/>
      </g>
     </g>
     <g id="text_7">
      <!-- 0 -->
      <g transform="translate(20.878125 184.677656)scale(0.1 -0.1)">
       <use xlink:href="#DejaVuSans-30"/>
      </g>
     </g>
    </g>
    <g id="ytick_2">
     <g id="line2d_7">
      <g>
       <use xlink:href="#mb7db4aa625" x="34.240625" y="144.591981" style="stroke: #000000; stroke-width: 0.8"/>
      </g>
     </g>
     <g id="text_8">
      <!-- 2 -->
      <g transform="translate(20.878125 148.3912)scale(0.1 -0.1)">
       <use xlink:href="#DejaVuSans-32"/>
      </g>
     </g>
    </g>
    <g id="ytick_3">
     <g id="line2d_8">
      <g>
       <use xlink:href="#mb7db4aa625" x="34.240625" y="108.305525" style="stroke: #000000; stroke-width: 0.8"/>
      </g>
     </g>
     <g id="text_9">
      <!-- 4 -->
      <g transform="translate(20.878125 112.104744)scale(0.1 -0.1)">
       <use xlink:href="#DejaVuSans-34"/>
      </g>
     </g>
    </g>
    <g id="ytick_4">
     <g id="line2d_9">
      <g>
       <use xlink:href="#mb7db4aa625" x="34.240625" y="72.019069" style="stroke: #000000; stroke-width: 0.8"/>
      </g>
     </g>
     <g id="text_10">
      <!-- 6 -->
      <g transform="translate(20.878125 75.818288)scale(0.1 -0.1)">
       <use xlink:href="#DejaVuSans-36"/>
      </g>
     </g>
    </g>
    <g id="ytick_5">
     <g id="line2d_10">
      <g>
       <use xlink:href="#mb7db4aa625" x="34.240625" y="35.732613" style="stroke: #000000; stroke-width: 0.8"/>
      </g>
     </g>
     <g id="text_11">
      <!-- 8 -->
      <g transform="translate(20.878125 39.531831)scale(0.1 -0.1)">
       <use xlink:href="#DejaVuSans-38"/>
      </g>
     </g>
    </g>
    <g id="text_12">
     <!-- Density -->
     <g transform="translate(14.798437 118.347031)rotate(-90)scale(0.1 -0.1)">
      <defs>
       <path id="DejaVuSans-44" d="M 1259 4147 
L 1259 519 
L 2022 519 
Q 2988 519 3436 956 
Q 3884 1394 3884 2338 
Q 3884 3275 3436 3711 
Q 2988 4147 2022 4147 
L 1259 4147 
z
M 628 4666 
L 1925 4666 
Q 3281 4666 3915 4102 
Q 4550 3538 4550 2338 
Q 4550 1131 3912 565 
Q 3275 0 1925 0 
L 628 0 
L 628 4666 
z
" transform="scale(0.015625)"/>
       <path id="DejaVuSans-6e" d="M 3513 2113 
L 3513 0 
L 2938 0 
L 2938 2094 
Q 2938 2591 2744 2837 
Q 2550 3084 2163 3084 
Q 1697 3084 1428 2787 
Q 1159 2491 1159 1978 
L 1159 0 
L 581 0 
L 581 3500 
L 1159 3500 
L 1159 2956 
Q 1366 3272 1645 3428 
Q 1925 3584 2291 3584 
Q 2894 3584 3203 3211 
Q 3513 2838 3513 2113 
z
" transform="scale(0.015625)"/>
       <path id="DejaVuSans-73" d="M 2834 3397 
L 2834 2853 
Q 2591 2978 2328 3040 
Q 2066 3103 1784 3103 
Q 1356 3103 1142 2972 
Q 928 2841 928 2578 
Q 928 2378 1081 2264 
Q 1234 2150 1697 2047 
L 1894 2003 
Q 2506 1872 2764 1633 
Q 3022 1394 3022 966 
Q 3022 478 2636 193 
Q 2250 -91 1575 -91 
Q 1294 -91 989 -36 
Q 684 19 347 128 
L 347 722 
Q 666 556 975 473 
Q 1284 391 1588 391 
Q 1994 391 2212 530 
Q 2431 669 2431 922 
Q 2431 1156 2273 1281 
Q 2116 1406 1581 1522 
L 1381 1569 
Q 847 1681 609 1914 
Q 372 2147 372 2553 
Q 372 3047 722 3315 
Q 1072 3584 1716 3584 
Q 2034 3584 2315 3537 
Q 2597 3491 2834 3397 
z
" transform="scale(0.015625)"/>
       <path id="DejaVuSans-74" d="M 1172 4494 
L 1172 3500 
L 2356 3500 
L 2356 3053 
L 1172 3053 
L 1172 1153 
Q 1172 725 1289 603 
Q 1406 481 1766 481 
L 2356 481 
L 2356 0 
L 1766 0 
Q 1100 0 847 248 
Q 594 497 594 1153 
L 594 3053 
L 172 3053 
L 172 3500 
L 594 3500 
L 594 4494 
L 1172 4494 
z
" transform="scale(0.015625)"/>
       <path id="DejaVuSans-79" d="M 2059 -325 
Q 1816 -950 1584 -1140 
Q 1353 -1331 966 -1331 
L 506 -1331 
L 506 -850 
L 844 -850 
Q 1081 -850 1212 -737 
Q 1344 -625 1503 -206 
L 1606 56 
L 191 3500 
L 800 3500 
L 1894 763 
L 2988 3500 
L 3597 3500 
L 2059 -325 
z
" transform="scale(0.015625)"/>
      </defs>
      <use xlink:href="#DejaVuSans-44"/>
      <use xlink:href="#DejaVuSans-65" x="77.001953"/>
      <use xlink:href="#DejaVuSans-6e" x="138.525391"/>
      <use xlink:href="#DejaVuSans-73" x="201.904297"/>
      <use xlink:href="#DejaVuSans-69" x="254.003906"/>
      <use xlink:href="#DejaVuSans-74" x="281.787109"/>
      <use xlink:href="#DejaVuSans-79" x="320.996094"/>
     </g>
    </g>
    <g id="text_13">
     <!-- 1e−6 -->
     <g transform="translate(34.240625 14.798437)scale(0.1 -0.1)">
      <defs>
       <path id="DejaVuSans-31" d="M 794 531 
L 1825 531 
L 1825 4091 
L 703 3866 
L 703 4441 
L 1819 4666 
L 2450 4666 
L 2450 531 
L 3481 531 
L 3481 0 
L 794 0 
L 794 531 
z
" transform="scale(0.015625)"/>
       <path id="DejaVuSans-2212" d="M 678 2272 
L 4684 2272 
L 4684 1741 
L 678 1741 
L 678 2272 
z
" transform="scale(0.015625)"/>
      </defs>
      <use xlink:href="#DejaVuSans-31"/>
      <use xlink:href="#DejaVuSans-65" x="63.623047"/>
      <use xlink:href="#DejaVuSans-2212" x="125.146484"/>
      <use xlink:href="#DejaVuSans-36" x="208.935547"/>
     </g>
    </g>
   </g>
   <g id="line2d_11">
    <path d="M 43.463765 180.867645 
L 47.171561 180.750168 
L 49.025458 180.539307 
L 50.879356 180.112485 
L 52.733253 179.365457 
L 54.587151 178.180561 
L 55.5141 177.371772 
L 56.441049 176.375428 
L 57.367997 175.145342 
L 58.294946 173.62431 
L 59.221895 171.747308 
L 60.148844 169.447678 
L 61.075793 166.665356 
L 62.002741 163.3551 
L 62.92969 159.492049 
L 63.856639 155.072195 
L 65.710537 144.613423 
L 67.564434 132.083812 
L 69.418332 117.510969 
L 72.199178 92.551035 
L 74.053076 75.834359 
L 74.980024 68.365026 
L 75.906973 61.958176 
L 76.833922 56.914169 
L 77.760871 53.43468 
L 78.68782 51.5886 
L 79.614768 51.300658 
L 80.541717 52.367867 
L 81.468666 54.501901 
L 82.395615 57.387986 
L 84.249512 64.374013 
L 86.10341 72.137502 
L 87.957308 80.757607 
L 89.811205 90.499355 
L 93.519 110.521773 
L 95.372898 118.612689 
L 97.226796 124.996888 
L 99.080693 130.275807 
L 101.861539 137.435358 
L 104.642386 144.054293 
L 107.423232 149.970729 
L 110.204079 155.4798 
L 112.057976 158.765051 
L 112.984925 160.161964 
L 113.911874 161.348678 
L 114.838823 162.322446 
L 116.69272 163.777629 
L 119.473567 165.728338 
L 121.327464 167.454172 
L 125.035259 171.316807 
L 125.962208 172.071393 
L 126.889157 172.667079 
L 127.816106 173.099505 
L 129.670003 173.55923 
L 133.377798 174.032032 
L 135.231696 174.575368 
L 142.647286 177.372714 
L 147.28203 178.406301 
L 151.916774 179.228922 
L 158.405416 180.095025 
L 162.113211 180.377698 
L 164.894057 180.36168 
L 172.309648 180.091741 
L 181.579136 180.339726 
L 186.21388 180.359722 
L 199.191163 180.874701 
L 206.606753 180.785684 
L 215.876241 180.387993 
L 227.926575 180.874952 
L 227.926575 180.874952 
" clip-path="url(#pb2a9fecfee)" style="fill: none; stroke: #1f77b4; stroke-width: 1.5; stroke-linecap: square"/>
   </g>
   <g id="patch_53">
    <path d="M 34.240625 180.878437 
L 34.240625 17.798437 
" style="fill: none; stroke: #000000; stroke-width: 0.8; stroke-linejoin: miter; stroke-linecap: square"/>
   </g>
   <g id="patch_54">
    <path d="M 237.149716 180.878437 
L 237.149716 17.798437 
" style="fill: none; stroke: #000000; stroke-width: 0.8; stroke-linejoin: miter; stroke-linecap: square"/>
   </g>
   <g id="patch_55">
    <path d="M 34.240625 180.878437 
L 237.149716 180.878437 
" style="fill: none; stroke: #000000; stroke-width: 0.8; stroke-linejoin: miter; stroke-linecap: square"/>
   </g>
   <g id="patch_56">
    <path d="M 34.240625 17.798437 
L 237.149716 17.798437 
" style="fill: none; stroke: #000000; stroke-width: 0.8; stroke-linejoin: miter; stroke-linecap: square"/>
   </g>
  </g>
  <g id="axes_2">
   <g id="patch_57">
    <path d="M 277.731534 180.878437 
L 480.640625 180.878437 
L 480.640625 17.798437 
L 277.731534 17.798437 
z
" style="fill: #ffffff"/>
   </g>
   <g id="patch_58">
    <path d="M 301.12675 180.878437 
L 304.249123 180.878437 
L 304.249123 178.332302 
L 301.12675 178.332302 
z
" clip-path="url(#p721be6e48c)" style="fill: #1f77b4; opacity: 0.4"/>
   </g>
   <g id="patch_59">
    <path d="M 304.249123 180.878437 
L 307.371497 180.878437 
L 307.371497 178.332302 
L 304.249123 178.332302 
z
" clip-path="url(#p721be6e48c)" style="fill: #1f77b4; opacity: 0.4"/>
   </g>
   <g id="patch_60">
    <path d="M 307.371497 180.878437 
L 310.49387 180.878437 
L 310.49387 179.60537 
L 307.371497 179.60537 
z
" clip-path="url(#p721be6e48c)" style="fill: #1f77b4; opacity: 0.4"/>
   </g>
   <g id="patch_61">
    <path d="M 310.49387 180.878437 
L 313.616243 180.878437 
L 313.616243 180.878437 
L 310.49387 180.878437 
z
" clip-path="url(#p721be6e48c)" style="fill: #1f77b4; opacity: 0.4"/>
   </g>
   <g id="patch_62">
    <path d="M 313.616243 180.878437 
L 316.738616 180.878437 
L 316.738616 180.878437 
L 313.616243 180.878437 
z
" clip-path="url(#p721be6e48c)" style="fill: #1f77b4; opacity: 0.4"/>
   </g>
   <g id="patch_63">
    <path d="M 316.738616 180.878437 
L 319.860989 180.878437 
L 319.860989 180.878437 
L 316.738616 180.878437 
z
" clip-path="url(#p721be6e48c)" style="fill: #1f77b4; opacity: 0.4"/>
   </g>
   <g id="patch_64">
    <path d="M 319.860989 180.878437 
L 322.983363 180.878437 
L 322.983363 178.332302 
L 319.860989 178.332302 
z
" clip-path="url(#p721be6e48c)" style="fill: #1f77b4; opacity: 0.4"/>
   </g>
   <g id="patch_65">
    <path d="M 322.983363 180.878437 
L 326.105736 180.878437 
L 326.105736 177.059234 
L 322.983363 177.059234 
z
" clip-path="url(#p721be6e48c)" style="fill: #1f77b4; opacity: 0.4"/>
   </g>
   <g id="patch_66">
    <path d="M 326.105736 180.878437 
L 329.228109 180.878437 
L 329.228109 175.786166 
L 326.105736 175.786166 
z
" clip-path="url(#p721be6e48c)" style="fill: #1f77b4; opacity: 0.4"/>
   </g>
   <g id="patch_67">
    <path d="M 329.228109 180.878437 
L 332.350482 180.878437 
L 332.350482 177.059234 
L 329.228109 177.059234 
z
" clip-path="url(#p721be6e48c)" style="fill: #1f77b4; opacity: 0.4"/>
   </g>
   <g id="patch_68">
    <path d="M 332.350482 180.878437 
L 335.472855 180.878437 
L 335.472855 174.513098 
L 332.350482 174.513098 
z
" clip-path="url(#p721be6e48c)" style="fill: #1f77b4; opacity: 0.4"/>
   </g>
   <g id="patch_69">
    <path d="M 335.472855 180.878437 
L 338.595228 180.878437 
L 338.595228 179.60537 
L 335.472855 179.60537 
z
" clip-path="url(#p721be6e48c)" style="fill: #1f77b4; opacity: 0.4"/>
   </g>
   <g id="patch_70">
    <path d="M 338.595228 180.878437 
L 341.717602 180.878437 
L 341.717602 174.513098 
L 338.595228 174.513098 
z
" clip-path="url(#p721be6e48c)" style="fill: #1f77b4; opacity: 0.4"/>
   </g>
   <g id="patch_71">
    <path d="M 341.717602 180.878437 
L 344.839975 180.878437 
L 344.839975 154.144011 
L 341.717602 154.144011 
z
" clip-path="url(#p721be6e48c)" style="fill: #1f77b4; opacity: 0.4"/>
   </g>
   <g id="patch_72">
    <path d="M 344.839975 180.878437 
L 347.962348 180.878437 
L 347.962348 152.870943 
L 344.839975 152.870943 
z
" clip-path="url(#p721be6e48c)" style="fill: #1f77b4; opacity: 0.4"/>
   </g>
   <g id="patch_73">
    <path d="M 347.962348 180.878437 
L 351.084721 180.878437 
L 351.084721 151.597875 
L 347.962348 151.597875 
z
" clip-path="url(#p721be6e48c)" style="fill: #1f77b4; opacity: 0.4"/>
   </g>
   <g id="patch_74">
    <path d="M 351.084721 180.878437 
L 354.207094 180.878437 
L 354.207094 157.963215 
L 351.084721 157.963215 
z
" clip-path="url(#p721be6e48c)" style="fill: #1f77b4; opacity: 0.4"/>
   </g>
   <g id="patch_75">
    <path d="M 354.207094 180.878437 
L 357.329467 180.878437 
L 357.329467 143.959468 
L 354.207094 143.959468 
z
" clip-path="url(#p721be6e48c)" style="fill: #1f77b4; opacity: 0.4"/>
   </g>
   <g id="patch_76">
    <path d="M 357.329467 180.878437 
L 360.451841 180.878437 
L 360.451841 107.040498 
L 357.329467 107.040498 
z
" clip-path="url(#p721be6e48c)" style="fill: #1f77b4; opacity: 0.4"/>
   </g>
   <g id="patch_77">
    <path d="M 360.451841 180.878437 
L 363.574214 180.878437 
L 363.574214 109.586634 
L 360.451841 109.586634 
z
" clip-path="url(#p721be6e48c)" style="fill: #1f77b4; opacity: 0.4"/>
   </g>
   <g id="patch_78">
    <path d="M 363.574214 180.878437 
L 366.696587 180.878437 
L 366.696587 98.129023 
L 363.574214 98.129023 
z
" clip-path="url(#p721be6e48c)" style="fill: #1f77b4; opacity: 0.4"/>
   </g>
   <g id="patch_79">
    <path d="M 366.696587 180.878437 
L 369.81896 180.878437 
L 369.81896 53.571646 
L 366.696587 53.571646 
z
" clip-path="url(#p721be6e48c)" style="fill: #1f77b4; opacity: 0.4"/>
   </g>
   <g id="patch_80">
    <path d="M 369.81896 180.878437 
L 372.941333 180.878437 
L 372.941333 25.564152 
L 369.81896 25.564152 
z
" clip-path="url(#p721be6e48c)" style="fill: #1f77b4; opacity: 0.4"/>
   </g>
   <g id="patch_81">
    <path d="M 372.941333 180.878437 
L 376.063706 180.878437 
L 376.063706 62.483121 
L 372.941333 62.483121 
z
" clip-path="url(#p721be6e48c)" style="fill: #1f77b4; opacity: 0.4"/>
   </g>
   <g id="patch_82">
    <path d="M 376.063706 180.878437 
L 379.18608 180.878437 
L 379.18608 66.302325 
L 376.063706 66.302325 
z
" clip-path="url(#p721be6e48c)" style="fill: #1f77b4; opacity: 0.4"/>
   </g>
   <g id="patch_83">
    <path d="M 379.18608 180.878437 
L 382.308453 180.878437 
L 382.308453 76.486868 
L 379.18608 76.486868 
z
" clip-path="url(#p721be6e48c)" style="fill: #1f77b4; opacity: 0.4"/>
   </g>
   <g id="patch_84">
    <path d="M 382.308453 180.878437 
L 385.430826 180.878437 
L 385.430826 43.387103 
L 382.308453 43.387103 
z
" clip-path="url(#p721be6e48c)" style="fill: #1f77b4; opacity: 0.4"/>
   </g>
   <g id="patch_85">
    <path d="M 385.430826 180.878437 
L 388.553199 180.878437 
L 388.553199 65.029257 
L 385.430826 65.029257 
z
" clip-path="url(#p721be6e48c)" style="fill: #1f77b4; opacity: 0.4"/>
   </g>
   <g id="patch_86">
    <path d="M 388.553199 180.878437 
L 391.675572 180.878437 
L 391.675572 99.402091 
L 388.553199 99.402091 
z
" clip-path="url(#p721be6e48c)" style="fill: #1f77b4; opacity: 0.4"/>
   </g>
   <g id="patch_87">
    <path d="M 391.675572 180.878437 
L 394.797945 180.878437 
L 394.797945 110.859702 
L 391.675572 110.859702 
z
" clip-path="url(#p721be6e48c)" style="fill: #1f77b4; opacity: 0.4"/>
   </g>
   <g id="patch_88">
    <path d="M 394.797945 180.878437 
L 397.920319 180.878437 
L 397.920319 107.040498 
L 394.797945 107.040498 
z
" clip-path="url(#p721be6e48c)" style="fill: #1f77b4; opacity: 0.4"/>
   </g>
   <g id="patch_89">
    <path d="M 397.920319 180.878437 
L 401.042692 180.878437 
L 401.042692 115.951974 
L 397.920319 115.951974 
z
" clip-path="url(#p721be6e48c)" style="fill: #1f77b4; opacity: 0.4"/>
   </g>
   <g id="patch_90">
    <path d="M 401.042692 180.878437 
L 404.165065 180.878437 
L 404.165065 122.317313 
L 401.042692 122.317313 
z
" clip-path="url(#p721be6e48c)" style="fill: #1f77b4; opacity: 0.4"/>
   </g>
   <g id="patch_91">
    <path d="M 404.165065 180.878437 
L 407.287438 180.878437 
L 407.287438 127.409585 
L 404.165065 127.409585 
z
" clip-path="url(#p721be6e48c)" style="fill: #1f77b4; opacity: 0.4"/>
   </g>
   <g id="patch_92">
    <path d="M 407.287438 180.878437 
L 410.409811 180.878437 
L 410.409811 151.597875 
L 407.287438 151.597875 
z
" clip-path="url(#p721be6e48c)" style="fill: #1f77b4; opacity: 0.4"/>
   </g>
   <g id="patch_93">
    <path d="M 410.409811 180.878437 
L 413.532184 180.878437 
L 413.532184 143.959468 
L 410.409811 143.959468 
z
" clip-path="url(#p721be6e48c)" style="fill: #1f77b4; opacity: 0.4"/>
   </g>
   <g id="patch_94">
    <path d="M 413.532184 180.878437 
L 416.654558 180.878437 
L 416.654558 152.870943 
L 413.532184 152.870943 
z
" clip-path="url(#p721be6e48c)" style="fill: #1f77b4; opacity: 0.4"/>
   </g>
   <g id="patch_95">
    <path d="M 416.654558 180.878437 
L 419.776931 180.878437 
L 419.776931 164.328555 
L 416.654558 164.328555 
z
" clip-path="url(#p721be6e48c)" style="fill: #1f77b4; opacity: 0.4"/>
   </g>
   <g id="patch_96">
    <path d="M 419.776931 180.878437 
L 422.899304 180.878437 
L 422.899304 164.328555 
L 419.776931 164.328555 
z
" clip-path="url(#p721be6e48c)" style="fill: #1f77b4; opacity: 0.4"/>
   </g>
   <g id="patch_97">
    <path d="M 422.899304 180.878437 
L 426.021677 180.878437 
L 426.021677 164.328555 
L 422.899304 164.328555 
z
" clip-path="url(#p721be6e48c)" style="fill: #1f77b4; opacity: 0.4"/>
   </g>
   <g id="patch_98">
    <path d="M 426.021677 180.878437 
L 429.14405 180.878437 
L 429.14405 171.966962 
L 426.021677 171.966962 
z
" clip-path="url(#p721be6e48c)" style="fill: #1f77b4; opacity: 0.4"/>
   </g>
   <g id="patch_99">
    <path d="M 429.14405 180.878437 
L 432.266423 180.878437 
L 432.266423 174.513098 
L 429.14405 174.513098 
z
" clip-path="url(#p721be6e48c)" style="fill: #1f77b4; opacity: 0.4"/>
   </g>
   <g id="patch_100">
    <path d="M 432.266423 180.878437 
L 435.388797 180.878437 
L 435.388797 175.786166 
L 432.266423 175.786166 
z
" clip-path="url(#p721be6e48c)" style="fill: #1f77b4; opacity: 0.4"/>
   </g>
   <g id="patch_101">
    <path d="M 435.388797 180.878437 
L 438.51117 180.878437 
L 438.51117 179.60537 
L 435.388797 179.60537 
z
" clip-path="url(#p721be6e48c)" style="fill: #1f77b4; opacity: 0.4"/>
   </g>
   <g id="patch_102">
    <path d="M 438.51117 180.878437 
L 441.633543 180.878437 
L 441.633543 178.332302 
L 438.51117 178.332302 
z
" clip-path="url(#p721be6e48c)" style="fill: #1f77b4; opacity: 0.4"/>
   </g>
   <g id="patch_103">
    <path d="M 441.633543 180.878437 
L 444.755916 180.878437 
L 444.755916 178.332302 
L 441.633543 178.332302 
z
" clip-path="url(#p721be6e48c)" style="fill: #1f77b4; opacity: 0.4"/>
   </g>
   <g id="patch_104">
    <path d="M 444.755916 180.878437 
L 447.878289 180.878437 
L 447.878289 178.332302 
L 444.755916 178.332302 
z
" clip-path="url(#p721be6e48c)" style="fill: #1f77b4; opacity: 0.4"/>
   </g>
   <g id="patch_105">
    <path d="M 447.878289 180.878437 
L 451.000662 180.878437 
L 451.000662 180.878437 
L 447.878289 180.878437 
z
" clip-path="url(#p721be6e48c)" style="fill: #1f77b4; opacity: 0.4"/>
   </g>
   <g id="patch_106">
    <path d="M 451.000662 180.878437 
L 454.123036 180.878437 
L 454.123036 180.878437 
L 451.000662 180.878437 
z
" clip-path="url(#p721be6e48c)" style="fill: #1f77b4; opacity: 0.4"/>
   </g>
   <g id="patch_107">
    <path d="M 454.123036 180.878437 
L 457.245409 180.878437 
L 457.245409 178.332302 
L 454.123036 178.332302 
z
" clip-path="url(#p721be6e48c)" style="fill: #1f77b4; opacity: 0.4"/>
   </g>
   <g id="matplotlib.axis_3">
    <g id="xtick_6">
     <g id="line2d_12">
      <g>
       <use xlink:href="#m92bf7a119b" x="277.754277" y="180.878437" style="stroke: #000000; stroke-width: 0.8"/>
      </g>
     </g>
     <g id="text_14">
      <!-- 10 -->
      <g transform="translate(271.391777 195.476875)scale(0.1 -0.1)">
       <use xlink:href="#DejaVuSans-31"/>
       <use xlink:href="#DejaVuSans-30" x="63.623047"/>
      </g>
     </g>
    </g>
    <g id="xtick_7">
     <g id="line2d_13">
      <g>
       <use xlink:href="#m92bf7a119b" x="328.537274" y="180.878437" style="stroke: #000000; stroke-width: 0.8"/>
      </g>
     </g>
     <g id="text_15">
      <!-- 11 -->
      <g transform="translate(322.174774 195.476875)scale(0.1 -0.1)">
       <use xlink:href="#DejaVuSans-31"/>
       <use xlink:href="#DejaVuSans-31" x="63.623047"/>
      </g>
     </g>
    </g>
    <g id="xtick_8">
     <g id="line2d_14">
      <g>
       <use xlink:href="#m92bf7a119b" x="379.32027" y="180.878437" style="stroke: #000000; stroke-width: 0.8"/>
      </g>
     </g>
     <g id="text_16">
      <!-- 12 -->
      <g transform="translate(372.95777 195.476875)scale(0.1 -0.1)">
       <use xlink:href="#DejaVuSans-31"/>
       <use xlink:href="#DejaVuSans-32" x="63.623047"/>
      </g>
     </g>
    </g>
    <g id="xtick_9">
     <g id="line2d_15">
      <g>
       <use xlink:href="#m92bf7a119b" x="430.103267" y="180.878437" style="stroke: #000000; stroke-width: 0.8"/>
      </g>
     </g>
     <g id="text_17">
      <!-- 13 -->
      <g transform="translate(423.740767 195.476875)scale(0.1 -0.1)">
       <defs>
        <path id="DejaVuSans-33" d="M 2597 2516 
Q 3050 2419 3304 2112 
Q 3559 1806 3559 1356 
Q 3559 666 3084 287 
Q 2609 -91 1734 -91 
Q 1441 -91 1130 -33 
Q 819 25 488 141 
L 488 750 
Q 750 597 1062 519 
Q 1375 441 1716 441 
Q 2309 441 2620 675 
Q 2931 909 2931 1356 
Q 2931 1769 2642 2001 
Q 2353 2234 1838 2234 
L 1294 2234 
L 1294 2753 
L 1863 2753 
Q 2328 2753 2575 2939 
Q 2822 3125 2822 3475 
Q 2822 3834 2567 4026 
Q 2313 4219 1838 4219 
Q 1578 4219 1281 4162 
Q 984 4106 628 3988 
L 628 4550 
Q 988 4650 1302 4700 
Q 1616 4750 1894 4750 
Q 2613 4750 3031 4423 
Q 3450 4097 3450 3541 
Q 3450 3153 3228 2886 
Q 3006 2619 2597 2516 
z
" transform="scale(0.015625)"/>
       </defs>
       <use xlink:href="#DejaVuSans-31"/>
       <use xlink:href="#DejaVuSans-33" x="63.623047"/>
      </g>
     </g>
    </g>
    <g id="text_18">
     <!-- Log Sale Price -->
     <g transform="translate(344.174361 209.155)scale(0.1 -0.1)">
      <defs>
       <path id="DejaVuSans-4c" d="M 628 4666 
L 1259 4666 
L 1259 531 
L 3531 531 
L 3531 0 
L 628 0 
L 628 4666 
z
" transform="scale(0.015625)"/>
       <path id="DejaVuSans-6f" d="M 1959 3097 
Q 1497 3097 1228 2736 
Q 959 2375 959 1747 
Q 959 1119 1226 758 
Q 1494 397 1959 397 
Q 2419 397 2687 759 
Q 2956 1122 2956 1747 
Q 2956 2369 2687 2733 
Q 2419 3097 1959 3097 
z
M 1959 3584 
Q 2709 3584 3137 3096 
Q 3566 2609 3566 1747 
Q 3566 888 3137 398 
Q 2709 -91 1959 -91 
Q 1206 -91 779 398 
Q 353 888 353 1747 
Q 353 2609 779 3096 
Q 1206 3584 1959 3584 
z
" transform="scale(0.015625)"/>
       <path id="DejaVuSans-67" d="M 2906 1791 
Q 2906 2416 2648 2759 
Q 2391 3103 1925 3103 
Q 1463 3103 1205 2759 
Q 947 2416 947 1791 
Q 947 1169 1205 825 
Q 1463 481 1925 481 
Q 2391 481 2648 825 
Q 2906 1169 2906 1791 
z
M 3481 434 
Q 3481 -459 3084 -895 
Q 2688 -1331 1869 -1331 
Q 1566 -1331 1297 -1286 
Q 1028 -1241 775 -1147 
L 775 -588 
Q 1028 -725 1275 -790 
Q 1522 -856 1778 -856 
Q 2344 -856 2625 -561 
Q 2906 -266 2906 331 
L 2906 616 
Q 2728 306 2450 153 
Q 2172 0 1784 0 
Q 1141 0 747 490 
Q 353 981 353 1791 
Q 353 2603 747 3093 
Q 1141 3584 1784 3584 
Q 2172 3584 2450 3431 
Q 2728 3278 2906 2969 
L 2906 3500 
L 3481 3500 
L 3481 434 
z
" transform="scale(0.015625)"/>
      </defs>
      <use xlink:href="#DejaVuSans-4c"/>
      <use xlink:href="#DejaVuSans-6f" x="53.962891"/>
      <use xlink:href="#DejaVuSans-67" x="115.144531"/>
      <use xlink:href="#DejaVuSans-20" x="178.621094"/>
      <use xlink:href="#DejaVuSans-53" x="210.408203"/>
      <use xlink:href="#DejaVuSans-61" x="273.884766"/>
      <use xlink:href="#DejaVuSans-6c" x="335.164062"/>
      <use xlink:href="#DejaVuSans-65" x="362.947266"/>
      <use xlink:href="#DejaVuSans-20" x="424.470703"/>
      <use xlink:href="#DejaVuSans-50" x="456.257812"/>
      <use xlink:href="#DejaVuSans-72" x="514.810547"/>
      <use xlink:href="#DejaVuSans-69" x="555.923828"/>
      <use xlink:href="#DejaVuSans-63" x="583.707031"/>
      <use xlink:href="#DejaVuSans-65" x="638.6875"/>
     </g>
    </g>
   </g>
   <g id="matplotlib.axis_4">
    <g id="ytick_6">
     <g id="line2d_16">
      <g>
       <use xlink:href="#mb7db4aa625" x="277.731534" y="180.878437" style="stroke: #000000; stroke-width: 0.8"/>
      </g>
     </g>
     <g id="text_19">
      <!-- 0.0 -->
      <g transform="translate(254.828409 184.677656)scale(0.1 -0.1)">
       <defs>
        <path id="DejaVuSans-2e" d="M 684 794 
L 1344 794 
L 1344 0 
L 684 0 
L 684 794 
z
" transform="scale(0.015625)"/>
       </defs>
       <use xlink:href="#DejaVuSans-30"/>
       <use xlink:href="#DejaVuSans-2e" x="63.623047"/>
       <use xlink:href="#DejaVuSans-30" x="95.410156"/>
      </g>
     </g>
    </g>
    <g id="ytick_7">
     <g id="line2d_17">
      <g>
       <use xlink:href="#mb7db4aa625" x="277.731534" y="158.022402" style="stroke: #000000; stroke-width: 0.8"/>
      </g>
     </g>
     <g id="text_20">
      <!-- 0.2 -->
      <g transform="translate(254.828409 161.821621)scale(0.1 -0.1)">
       <use xlink:href="#DejaVuSans-30"/>
       <use xlink:href="#DejaVuSans-2e" x="63.623047"/>
       <use xlink:href="#DejaVuSans-32" x="95.410156"/>
      </g>
     </g>
    </g>
    <g id="ytick_8">
     <g id="line2d_18">
      <g>
       <use xlink:href="#mb7db4aa625" x="277.731534" y="135.166366" style="stroke: #000000; stroke-width: 0.8"/>
      </g>
     </g>
     <g id="text_21">
      <!-- 0.4 -->
      <g transform="translate(254.828409 138.965585)scale(0.1 -0.1)">
       <use xlink:href="#DejaVuSans-30"/>
       <use xlink:href="#DejaVuSans-2e" x="63.623047"/>
       <use xlink:href="#DejaVuSans-34" x="95.410156"/>
      </g>
     </g>
    </g>
    <g id="ytick_9">
     <g id="line2d_19">
      <g>
       <use xlink:href="#mb7db4aa625" x="277.731534" y="112.31033" style="stroke: #000000; stroke-width: 0.8"/>
      </g>
     </g>
     <g id="text_22">
      <!-- 0.6 -->
      <g transform="translate(254.828409 116.109549)scale(0.1 -0.1)">
       <use xlink:href="#DejaVuSans-30"/>
       <use xlink:href="#DejaVuSans-2e" x="63.623047"/>
       <use xlink:href="#DejaVuSans-36" x="95.410156"/>
      </g>
     </g>
    </g>
    <g id="ytick_10">
     <g id="line2d_20">
      <g>
       <use xlink:href="#mb7db4aa625" x="277.731534" y="89.454295" style="stroke: #000000; stroke-width: 0.8"/>
      </g>
     </g>
     <g id="text_23">
      <!-- 0.8 -->
      <g transform="translate(254.828409 93.253513)scale(0.1 -0.1)">
       <use xlink:href="#DejaVuSans-30"/>
       <use xlink:href="#DejaVuSans-2e" x="63.623047"/>
       <use xlink:href="#DejaVuSans-38" x="95.410156"/>
      </g>
     </g>
    </g>
    <g id="ytick_11">
     <g id="line2d_21">
      <g>
       <use xlink:href="#mb7db4aa625" x="277.731534" y="66.598259" style="stroke: #000000; stroke-width: 0.8"/>
      </g>
     </g>
     <g id="text_24">
      <!-- 1.0 -->
      <g transform="translate(254.828409 70.397478)scale(0.1 -0.1)">
       <use xlink:href="#DejaVuSans-31"/>
       <use xlink:href="#DejaVuSans-2e" x="63.623047"/>
       <use xlink:href="#DejaVuSans-30" x="95.410156"/>
      </g>
     </g>
    </g>
    <g id="ytick_12">
     <g id="line2d_22">
      <g>
       <use xlink:href="#mb7db4aa625" x="277.731534" y="43.742223" style="stroke: #000000; stroke-width: 0.8"/>
      </g>
     </g>
     <g id="text_25">
      <!-- 1.2 -->
      <g transform="translate(254.828409 47.541442)scale(0.1 -0.1)">
       <use xlink:href="#DejaVuSans-31"/>
       <use xlink:href="#DejaVuSans-2e" x="63.623047"/>
       <use xlink:href="#DejaVuSans-32" x="95.410156"/>
      </g>
     </g>
    </g>
    <g id="ytick_13">
     <g id="line2d_23">
      <g>
       <use xlink:href="#mb7db4aa625" x="277.731534" y="20.886187" style="stroke: #000000; stroke-width: 0.8"/>
      </g>
     </g>
     <g id="text_26">
      <!-- 1.4 -->
      <g transform="translate(254.828409 24.685406)scale(0.1 -0.1)">
       <use xlink:href="#DejaVuSans-31"/>
       <use xlink:href="#DejaVuSans-2e" x="63.623047"/>
       <use xlink:href="#DejaVuSans-34" x="95.410156"/>
      </g>
     </g>
    </g>
    <g id="text_27">
     <!-- Density -->
     <g transform="translate(248.748722 118.347031)rotate(-90)scale(0.1 -0.1)">
      <use xlink:href="#DejaVuSans-44"/>
      <use xlink:href="#DejaVuSans-65" x="77.001953"/>
      <use xlink:href="#DejaVuSans-6e" x="138.525391"/>
      <use xlink:href="#DejaVuSans-73" x="201.904297"/>
      <use xlink:href="#DejaVuSans-69" x="254.003906"/>
      <use xlink:href="#DejaVuSans-74" x="281.787109"/>
      <use xlink:href="#DejaVuSans-79" x="320.996094"/>
     </g>
    </g>
   </g>
   <g id="line2d_24">
    <path d="M 286.954675 180.871944 
L 292.516367 180.751577 
L 296.224163 180.421583 
L 303.639753 179.49072 
L 306.420599 179.51557 
L 309.201446 179.806596 
L 312.909241 180.211984 
L 314.763138 180.223697 
L 316.617036 180.032599 
L 318.470934 179.639979 
L 321.25178 178.790046 
L 324.959575 177.606517 
L 327.740422 176.954771 
L 332.375165 176.061036 
L 334.229063 175.32318 
L 335.156012 174.743819 
L 336.082961 173.977687 
L 337.009909 172.997784 
L 337.936858 171.789532 
L 339.790756 168.717271 
L 342.571602 163.076034 
L 344.4255 159.362006 
L 346.279397 156.154962 
L 350.914141 149.05624 
L 351.84109 147.144362 
L 352.768039 144.860473 
L 353.694988 142.150804 
L 354.621937 138.991406 
L 356.475834 131.369289 
L 358.329732 122.277359 
L 360.183629 112.112528 
L 362.964476 95.591465 
L 365.745322 78.929871 
L 367.59922 69.220137 
L 368.526168 65.229399 
L 369.453117 61.988762 
L 370.380066 59.578342 
L 371.307015 58.019899 
L 372.233964 57.270376 
L 373.160912 57.225008 
L 374.087861 57.730152 
L 375.01481 58.604158 
L 377.795656 61.744278 
L 379.649554 63.341386 
L 381.503452 64.808156 
L 382.4304 65.79991 
L 383.357349 67.145027 
L 384.284298 68.94443 
L 385.211247 71.246922 
L 386.138195 74.040016 
L 387.992093 80.765041 
L 391.699888 95.016962 
L 393.553786 100.924851 
L 395.407683 105.940196 
L 400.969376 120.116129 
L 408.384967 140.181822 
L 410.238864 144.426425 
L 413.019711 150.031983 
L 415.800557 155.143471 
L 417.654454 158.301494 
L 419.508352 161.117453 
L 421.36225 163.53988 
L 424.143096 166.680503 
L 429.704789 172.537269 
L 431.558686 174.252823 
L 433.412584 175.70628 
L 435.266482 176.846341 
L 437.120379 177.661759 
L 438.974277 178.190366 
L 441.755123 178.639102 
L 448.243765 179.516748 
L 451.95156 179.930063 
L 469.563587 180.859588 
L 471.417485 180.872306 
L 471.417485 180.872306 
" clip-path="url(#p721be6e48c)" style="fill: none; stroke: #1f77b4; stroke-width: 1.5; stroke-linecap: square"/>
   </g>
   <g id="patch_108">
    <path d="M 277.731534 180.878437 
L 277.731534 17.798437 
" style="fill: none; stroke: #000000; stroke-width: 0.8; stroke-linejoin: miter; stroke-linecap: square"/>
   </g>
   <g id="patch_109">
    <path d="M 480.640625 180.878437 
L 480.640625 17.798437 
" style="fill: none; stroke: #000000; stroke-width: 0.8; stroke-linejoin: miter; stroke-linecap: square"/>
   </g>
   <g id="patch_110">
    <path d="M 277.731534 180.878437 
L 480.640625 180.878437 
" style="fill: none; stroke: #000000; stroke-width: 0.8; stroke-linejoin: miter; stroke-linecap: square"/>
   </g>
   <g id="patch_111">
    <path d="M 277.731534 17.798437 
L 480.640625 17.798437 
" style="fill: none; stroke: #000000; stroke-width: 0.8; stroke-linejoin: miter; stroke-linecap: square"/>
   </g>
  </g>
 </g>
 <defs>
  <clipPath id="pb2a9fecfee">
   <rect x="34.240625" y="17.798437" width="202.909091" height="163.08"/>
  </clipPath>
  <clipPath id="p721be6e48c">
   <rect x="277.731534" y="17.798437" width="202.909091" height="163.08"/>
  </clipPath>
 </defs>
</svg>
