<?xml version="1.0" encoding="utf-8" standalone="no"?>
<!DOCTYPE svg PUBLIC "-//W3C//DTD SVG 1.1//EN"
  "http://www.w3.org/Graphics/SVG/1.1/DTD/svg11.dtd">
<svg xmlns:xlink="http://www.w3.org/1999/xlink" width="398.50625pt" height="479.63625pt" viewBox="0 0 398.50625 479.63625" xmlns="http://www.w3.org/2000/svg" version="1.1">
 <metadata>
  <rdf:RDF xmlns:dc="http://purl.org/dc/elements/1.1/" xmlns:cc="http://creativecommons.org/ns#" xmlns:rdf="http://www.w3.org/1999/02/22-rdf-syntax-ns#">
   <cc:Work>
    <dc:type rdf:resource="http://purl.org/dc/dcmitype/StillImage"/>
    <dc:date>2022-07-06T22:12:54.670776</dc:date>
    <dc:format>image/svg+xml</dc:format>
    <dc:creator>
     <cc:Agent>
      <dc:title>Matplotlib v3.5.1, https://matplotlib.org/</dc:title>
     </cc:Agent>
    </dc:creator>
   </cc:Work>
  </rdf:RDF>
 </metadata>
 <defs>
  <style type="text/css">*{stroke-linejoin: round; stroke-linecap: butt}</style>
 </defs>
 <g id="figure_1">
  <g id="patch_1">
   <path d="M 0 479.63625 
L 398.50625 479.63625 
L 398.50625 0 
L 0 0 
L 0 479.63625 
z
" style="fill: none"/>
  </g>
  <g id="axes_1">
   <g id="patch_2">
    <path d="M 56.50625 204.872727 
L 391.30625 204.872727 
L 391.30625 7.2 
L 56.50625 7.2 
z
" style="fill: #ffffff"/>
   </g>
   <g id="patch_3">
    <path d="M 101.749493 204.872727 
L 109.953601 204.872727 
L 109.953601 93.348159 
L 101.749493 93.348159 
z
" clip-path="url(#p7f357d9356)" style="fill: #1f77b4; opacity: 0.4"/>
   </g>
   <g id="patch_4">
    <path d="M 109.953601 204.872727 
L 118.157709 204.872727 
L 118.157709 152.296859 
L 109.953601 152.296859 
z
" clip-path="url(#p7f357d9356)" style="fill: #1f77b4; opacity: 0.4"/>
   </g>
   <g id="patch_5">
    <path d="M 118.157709 204.872727 
L 126.361818 204.872727 
L 126.361818 175.000075 
L 118.157709 175.000075 
z
" clip-path="url(#p7f357d9356)" style="fill: #1f77b4; opacity: 0.4"/>
   </g>
   <g id="patch_6">
    <path d="M 126.361818 204.872727 
L 134.565926 204.872727 
L 134.565926 178.983095 
L 126.361818 178.983095 
z
" clip-path="url(#p7f357d9356)" style="fill: #1f77b4; opacity: 0.4"/>
   </g>
   <g id="patch_7">
    <path d="M 134.565926 204.872727 
L 142.770034 204.872727 
L 142.770034 194.915176 
L 134.565926 194.915176 
z
" clip-path="url(#p7f357d9356)" style="fill: #1f77b4; opacity: 0.4"/>
   </g>
   <g id="patch_8">
    <path d="M 142.770034 204.872727 
L 150.974142 204.872727 
L 150.974142 194.118572 
L 142.770034 194.118572 
z
" clip-path="url(#p7f357d9356)" style="fill: #1f77b4; opacity: 0.4"/>
   </g>
   <g id="patch_9">
    <path d="M 150.974142 204.872727 
L 159.17825 204.872727 
L 159.17825 177.389887 
L 150.974142 177.389887 
z
" clip-path="url(#p7f357d9356)" style="fill: #1f77b4; opacity: 0.4"/>
   </g>
   <g id="patch_10">
    <path d="M 159.17825 204.872727 
L 167.382358 204.872727 
L 167.382358 171.415357 
L 159.17825 171.415357 
z
" clip-path="url(#p7f357d9356)" style="fill: #1f77b4; opacity: 0.4"/>
   </g>
   <g id="patch_11">
    <path d="M 167.382358 204.872727 
L 175.586466 204.872727 
L 175.586466 173.008565 
L 167.382358 173.008565 
z
" clip-path="url(#p7f357d9356)" style="fill: #1f77b4; opacity: 0.4"/>
   </g>
   <g id="patch_12">
    <path d="M 175.586466 204.872727 
L 183.790574 204.872727 
L 183.790574 168.627242 
L 175.586466 168.627242 
z
" clip-path="url(#p7f357d9356)" style="fill: #1f77b4; opacity: 0.4"/>
   </g>
   <g id="patch_13">
    <path d="M 183.790574 204.872727 
L 191.994682 204.872727 
L 191.994682 174.203471 
L 183.790574 174.203471 
z
" clip-path="url(#p7f357d9356)" style="fill: #1f77b4; opacity: 0.4"/>
   </g>
   <g id="patch_14">
    <path d="M 191.994682 204.872727 
L 200.198791 204.872727 
L 200.198791 168.22894 
L 191.994682 168.22894 
z
" clip-path="url(#p7f357d9356)" style="fill: #1f77b4; opacity: 0.4"/>
   </g>
   <g id="patch_15">
    <path d="M 200.198791 204.872727 
L 208.402899 204.872727 
L 208.402899 187.347438 
L 200.198791 187.347438 
z
" clip-path="url(#p7f357d9356)" style="fill: #1f77b4; opacity: 0.4"/>
   </g>
   <g id="patch_16">
    <path d="M 208.402899 204.872727 
L 216.607007 204.872727 
L 216.607007 188.542344 
L 208.402899 188.542344 
z
" clip-path="url(#p7f357d9356)" style="fill: #1f77b4; opacity: 0.4"/>
   </g>
   <g id="patch_17">
    <path d="M 216.607007 204.872727 
L 224.811115 204.872727 
L 224.811115 196.508385 
L 216.607007 196.508385 
z
" clip-path="url(#p7f357d9356)" style="fill: #1f77b4; opacity: 0.4"/>
   </g>
   <g id="patch_18">
    <path d="M 224.811115 204.872727 
L 233.015223 204.872727 
L 233.015223 188.144042 
L 224.811115 188.144042 
z
" clip-path="url(#p7f357d9356)" style="fill: #1f77b4; opacity: 0.4"/>
   </g>
   <g id="patch_19">
    <path d="M 233.015223 204.872727 
L 241.219331 204.872727 
L 241.219331 194.915176 
L 233.015223 194.915176 
z
" clip-path="url(#p7f357d9356)" style="fill: #1f77b4; opacity: 0.4"/>
   </g>
   <g id="patch_20">
    <path d="M 241.219331 204.872727 
L 249.423439 204.872727 
L 249.423439 194.516874 
L 241.219331 194.516874 
z
" clip-path="url(#p7f357d9356)" style="fill: #1f77b4; opacity: 0.4"/>
   </g>
   <g id="patch_21">
    <path d="M 249.423439 204.872727 
L 257.627547 204.872727 
L 257.627547 187.347438 
L 249.423439 187.347438 
z
" clip-path="url(#p7f357d9356)" style="fill: #1f77b4; opacity: 0.4"/>
   </g>
   <g id="patch_22">
    <path d="M 257.627547 204.872727 
L 265.831655 204.872727 
L 265.831655 187.74574 
L 257.627547 187.74574 
z
" clip-path="url(#p7f357d9356)" style="fill: #1f77b4; opacity: 0.4"/>
   </g>
   <g id="patch_23">
    <path d="M 265.831655 204.872727 
L 274.035764 204.872727 
L 274.035764 194.516874 
L 265.831655 194.516874 
z
" clip-path="url(#p7f357d9356)" style="fill: #1f77b4; opacity: 0.4"/>
   </g>
   <g id="patch_24">
    <path d="M 274.035764 204.872727 
L 282.239872 204.872727 
L 282.239872 196.906687 
L 274.035764 196.906687 
z
" clip-path="url(#p7f357d9356)" style="fill: #1f77b4; opacity: 0.4"/>
   </g>
   <g id="patch_25">
    <path d="M 282.239872 204.872727 
L 290.44398 204.872727 
L 290.44398 202.482915 
L 282.239872 202.482915 
z
" clip-path="url(#p7f357d9356)" style="fill: #1f77b4; opacity: 0.4"/>
   </g>
   <g id="patch_26">
    <path d="M 290.44398 204.872727 
L 298.648088 204.872727 
L 298.648088 202.084613 
L 290.44398 202.084613 
z
" clip-path="url(#p7f357d9356)" style="fill: #1f77b4; opacity: 0.4"/>
   </g>
   <g id="patch_27">
    <path d="M 298.648088 204.872727 
L 306.852196 204.872727 
L 306.852196 203.279519 
L 298.648088 203.279519 
z
" clip-path="url(#p7f357d9356)" style="fill: #1f77b4; opacity: 0.4"/>
   </g>
   <g id="patch_28">
    <path d="M 306.852196 204.872727 
L 315.056304 204.872727 
L 315.056304 203.279519 
L 306.852196 203.279519 
z
" clip-path="url(#p7f357d9356)" style="fill: #1f77b4; opacity: 0.4"/>
   </g>
   <g id="patch_29">
    <path d="M 315.056304 204.872727 
L 323.260412 204.872727 
L 323.260412 204.076123 
L 315.056304 204.076123 
z
" clip-path="url(#p7f357d9356)" style="fill: #1f77b4; opacity: 0.4"/>
   </g>
   <g id="patch_30">
    <path d="M 323.260412 204.872727 
L 331.46452 204.872727 
L 331.46452 204.076123 
L 323.260412 204.076123 
z
" clip-path="url(#p7f357d9356)" style="fill: #1f77b4; opacity: 0.4"/>
   </g>
   <g id="patch_31">
    <path d="M 331.46452 204.872727 
L 339.668628 204.872727 
L 339.668628 203.279519 
L 331.46452 203.279519 
z
" clip-path="url(#p7f357d9356)" style="fill: #1f77b4; opacity: 0.4"/>
   </g>
   <g id="patch_32">
    <path d="M 339.668628 204.872727 
L 347.872736 204.872727 
L 347.872736 204.076123 
L 339.668628 204.076123 
z
" clip-path="url(#p7f357d9356)" style="fill: #1f77b4; opacity: 0.4"/>
   </g>
   <g id="patch_33">
    <path d="M 99.939764 204.872727 
L 103.619547 204.872727 
L 103.619547 16.612987 
L 99.939764 16.612987 
z
" clip-path="url(#p7f357d9356)" style="fill: #ff7f0e; opacity: 0.4"/>
   </g>
   <g id="patch_34">
    <path d="M 103.619547 204.872727 
L 107.299331 204.872727 
L 107.299331 111.630875 
L 103.619547 111.630875 
z
" clip-path="url(#p7f357d9356)" style="fill: #ff7f0e; opacity: 0.4"/>
   </g>
   <g id="patch_35">
    <path d="M 107.299331 204.872727 
L 110.979115 204.872727 
L 110.979115 108.078804 
L 107.299331 108.078804 
z
" clip-path="url(#p7f357d9356)" style="fill: #ff7f0e; opacity: 0.4"/>
   </g>
   <g id="patch_36">
    <path d="M 110.979115 204.872727 
L 114.658899 204.872727 
L 114.658899 135.607351 
L 110.979115 135.607351 
z
" clip-path="url(#p7f357d9356)" style="fill: #ff7f0e; opacity: 0.4"/>
   </g>
   <g id="patch_37">
    <path d="M 114.658899 204.872727 
L 118.338682 204.872727 
L 118.338682 133.831316 
L 114.658899 133.831316 
z
" clip-path="url(#p7f357d9356)" style="fill: #ff7f0e; opacity: 0.4"/>
   </g>
   <g id="patch_38">
    <path d="M 118.338682 204.872727 
L 122.018466 204.872727 
L 122.018466 145.375545 
L 118.338682 145.375545 
z
" clip-path="url(#p7f357d9356)" style="fill: #ff7f0e; opacity: 0.4"/>
   </g>
   <g id="patch_39">
    <path d="M 122.018466 204.872727 
L 125.69825 204.872727 
L 125.69825 155.143739 
L 122.018466 155.143739 
z
" clip-path="url(#p7f357d9356)" style="fill: #ff7f0e; opacity: 0.4"/>
   </g>
   <g id="patch_40">
    <path d="M 125.69825 204.872727 
L 129.378034 204.872727 
L 129.378034 162.24788 
L 125.69825 162.24788 
z
" clip-path="url(#p7f357d9356)" style="fill: #ff7f0e; opacity: 0.4"/>
   </g>
   <g id="patch_41">
    <path d="M 129.378034 204.872727 
L 133.057818 204.872727 
L 133.057818 177.34418 
L 129.378034 177.34418 
z
" clip-path="url(#p7f357d9356)" style="fill: #ff7f0e; opacity: 0.4"/>
   </g>
   <g id="patch_42">
    <path d="M 133.057818 204.872727 
L 136.737601 204.872727 
L 136.737601 184.448321 
L 133.057818 184.448321 
z
" clip-path="url(#p7f357d9356)" style="fill: #ff7f0e; opacity: 0.4"/>
   </g>
   <g id="patch_43">
    <path d="M 136.737601 204.872727 
L 140.417385 204.872727 
L 140.417385 188.000392 
L 136.737601 188.000392 
z
" clip-path="url(#p7f357d9356)" style="fill: #ff7f0e; opacity: 0.4"/>
   </g>
   <g id="patch_44">
    <path d="M 140.417385 204.872727 
L 144.097169 204.872727 
L 144.097169 192.44048 
L 140.417385 192.44048 
z
" clip-path="url(#p7f357d9356)" style="fill: #ff7f0e; opacity: 0.4"/>
   </g>
   <g id="patch_45">
    <path d="M 144.097169 204.872727 
L 147.776953 204.872727 
L 147.776953 193.328498 
L 144.097169 193.328498 
z
" clip-path="url(#p7f357d9356)" style="fill: #ff7f0e; opacity: 0.4"/>
   </g>
   <g id="patch_46">
    <path d="M 147.776953 204.872727 
L 151.456736 204.872727 
L 151.456736 191.552463 
L 147.776953 191.552463 
z
" clip-path="url(#p7f357d9356)" style="fill: #ff7f0e; opacity: 0.4"/>
   </g>
   <g id="patch_47">
    <path d="M 151.456736 204.872727 
L 155.13652 204.872727 
L 155.13652 183.560304 
L 151.456736 183.560304 
z
" clip-path="url(#p7f357d9356)" style="fill: #ff7f0e; opacity: 0.4"/>
   </g>
   <g id="patch_48">
    <path d="M 155.13652 204.872727 
L 158.816304 204.872727 
L 158.816304 164.911933 
L 155.13652 164.911933 
z
" clip-path="url(#p7f357d9356)" style="fill: #ff7f0e; opacity: 0.4"/>
   </g>
   <g id="patch_49">
    <path d="M 158.816304 204.872727 
L 162.496088 204.872727 
L 162.496088 176.456163 
L 158.816304 176.456163 
z
" clip-path="url(#p7f357d9356)" style="fill: #ff7f0e; opacity: 0.4"/>
   </g>
   <g id="patch_50">
    <path d="M 162.496088 204.872727 
L 166.175872 204.872727 
L 166.175872 183.560304 
L 162.496088 183.560304 
z
" clip-path="url(#p7f357d9356)" style="fill: #ff7f0e; opacity: 0.4"/>
   </g>
   <g id="patch_51">
    <path d="M 166.175872 204.872727 
L 169.855655 204.872727 
L 169.855655 167.575986 
L 166.175872 167.575986 
z
" clip-path="url(#p7f357d9356)" style="fill: #ff7f0e; opacity: 0.4"/>
   </g>
   <g id="patch_52">
    <path d="M 169.855655 204.872727 
L 173.535439 204.872727 
L 173.535439 172.016074 
L 169.855655 172.016074 
z
" clip-path="url(#p7f357d9356)" style="fill: #ff7f0e; opacity: 0.4"/>
   </g>
   <g id="patch_53">
    <path d="M 173.535439 204.872727 
L 177.215223 204.872727 
L 177.215223 182.672286 
L 173.535439 182.672286 
z
" clip-path="url(#p7f357d9356)" style="fill: #ff7f0e; opacity: 0.4"/>
   </g>
   <g id="patch_54">
    <path d="M 177.215223 204.872727 
L 180.895007 204.872727 
L 180.895007 181.784269 
L 177.215223 181.784269 
z
" clip-path="url(#p7f357d9356)" style="fill: #ff7f0e; opacity: 0.4"/>
   </g>
   <g id="patch_55">
    <path d="M 180.895007 204.872727 
L 184.574791 204.872727 
L 184.574791 178.232198 
L 180.895007 178.232198 
z
" clip-path="url(#p7f357d9356)" style="fill: #ff7f0e; opacity: 0.4"/>
   </g>
   <g id="patch_56">
    <path d="M 184.574791 204.872727 
L 188.254574 204.872727 
L 188.254574 180.896251 
L 184.574791 180.896251 
z
" clip-path="url(#p7f357d9356)" style="fill: #ff7f0e; opacity: 0.4"/>
   </g>
   <g id="patch_57">
    <path d="M 188.254574 204.872727 
L 191.934358 204.872727 
L 191.934358 182.672286 
L 188.254574 182.672286 
z
" clip-path="url(#p7f357d9356)" style="fill: #ff7f0e; opacity: 0.4"/>
   </g>
   <g id="patch_58">
    <path d="M 191.934358 204.872727 
L 195.614142 204.872727 
L 195.614142 184.448321 
L 191.934358 184.448321 
z
" clip-path="url(#p7f357d9356)" style="fill: #ff7f0e; opacity: 0.4"/>
   </g>
   <g id="patch_59">
    <path d="M 195.614142 204.872727 
L 199.293926 204.872727 
L 199.293926 181.784269 
L 195.614142 181.784269 
z
" clip-path="url(#p7f357d9356)" style="fill: #ff7f0e; opacity: 0.4"/>
   </g>
   <g id="patch_60">
    <path d="M 199.293926 204.872727 
L 202.973709 204.872727 
L 202.973709 192.44048 
L 199.293926 192.44048 
z
" clip-path="url(#p7f357d9356)" style="fill: #ff7f0e; opacity: 0.4"/>
   </g>
   <g id="patch_61">
    <path d="M 202.973709 204.872727 
L 206.653493 204.872727 
L 206.653493 120.511051 
L 202.973709 120.511051 
z
" clip-path="url(#p7f357d9356)" style="fill: #ff7f0e; opacity: 0.4"/>
   </g>
   <g id="patch_62">
    <path d="M 206.653493 204.872727 
L 210.333277 204.872727 
L 210.333277 120.511051 
L 206.653493 120.511051 
z
" clip-path="url(#p7f357d9356)" style="fill: #ff7f0e; opacity: 0.4"/>
   </g>
   <g id="patch_63">
    <path d="M 101.749493 204.872727 
L 108.204196 204.872727 
L 108.204196 76.235259 
L 101.749493 76.235259 
z
" clip-path="url(#p7f357d9356)" style="fill: #2ca02c; opacity: 0.4"/>
   </g>
   <g id="patch_64">
    <path d="M 108.204196 204.872727 
L 114.658899 204.872727 
L 114.658899 131.978162 
L 108.204196 131.978162 
z
" clip-path="url(#p7f357d9356)" style="fill: #2ca02c; opacity: 0.4"/>
   </g>
   <g id="patch_65">
    <path d="M 114.658899 204.872727 
L 121.113601 204.872727 
L 121.113601 159.849614 
L 114.658899 159.849614 
z
" clip-path="url(#p7f357d9356)" style="fill: #2ca02c; opacity: 0.4"/>
   </g>
   <g id="patch_66">
    <path d="M 121.113601 204.872727 
L 127.568304 204.872727 
L 127.568304 163.06555 
L 121.113601 163.06555 
z
" clip-path="url(#p7f357d9356)" style="fill: #2ca02c; opacity: 0.4"/>
   </g>
   <g id="patch_67">
    <path d="M 127.568304 204.872727 
L 134.023007 204.872727 
L 134.023007 177.537265 
L 127.568304 177.537265 
z
" clip-path="url(#p7f357d9356)" style="fill: #2ca02c; opacity: 0.4"/>
   </g>
   <g id="patch_68">
    <path d="M 134.023007 204.872727 
L 140.477709 204.872727 
L 140.477709 180.753202 
L 134.023007 180.753202 
z
" clip-path="url(#p7f357d9356)" style="fill: #2ca02c; opacity: 0.4"/>
   </g>
   <g id="patch_69">
    <path d="M 140.477709 204.872727 
L 146.932412 204.872727 
L 146.932412 193.080959 
L 140.477709 193.080959 
z
" clip-path="url(#p7f357d9356)" style="fill: #2ca02c; opacity: 0.4"/>
   </g>
   <g id="patch_70">
    <path d="M 146.932412 204.872727 
L 153.387115 204.872727 
L 153.387115 182.89716 
L 146.932412 182.89716 
z
" clip-path="url(#p7f357d9356)" style="fill: #2ca02c; opacity: 0.4"/>
   </g>
   <g id="patch_71">
    <path d="M 153.387115 204.872727 
L 159.841818 204.872727 
L 159.841818 155.025708 
L 153.387115 155.025708 
z
" clip-path="url(#p7f357d9356)" style="fill: #2ca02c; opacity: 0.4"/>
   </g>
   <g id="patch_72">
    <path d="M 159.841818 204.872727 
L 166.29652 204.872727 
L 166.29652 182.36117 
L 159.841818 182.36117 
z
" clip-path="url(#p7f357d9356)" style="fill: #2ca02c; opacity: 0.4"/>
   </g>
   <g id="patch_73">
    <path d="M 166.29652 204.872727 
L 172.751223 204.872727 
L 172.751223 167.889455 
L 166.29652 167.889455 
z
" clip-path="url(#p7f357d9356)" style="fill: #2ca02c; opacity: 0.4"/>
   </g>
   <g id="patch_74">
    <path d="M 172.751223 204.872727 
L 179.205926 204.872727 
L 179.205926 172.71336 
L 172.751223 172.71336 
z
" clip-path="url(#p7f357d9356)" style="fill: #2ca02c; opacity: 0.4"/>
   </g>
   <g id="patch_75">
    <path d="M 179.205926 204.872727 
L 185.660628 204.872727 
L 185.660628 168.961434 
L 179.205926 168.961434 
z
" clip-path="url(#p7f357d9356)" style="fill: #2ca02c; opacity: 0.4"/>
   </g>
   <g id="patch_76">
    <path d="M 185.660628 204.872727 
L 192.115331 204.872727 
L 192.115331 173.24935 
L 185.660628 173.24935 
z
" clip-path="url(#p7f357d9356)" style="fill: #2ca02c; opacity: 0.4"/>
   </g>
   <g id="patch_77">
    <path d="M 192.115331 204.872727 
L 198.570034 204.872727 
L 198.570034 166.817476 
L 192.115331 166.817476 
z
" clip-path="url(#p7f357d9356)" style="fill: #2ca02c; opacity: 0.4"/>
   </g>
   <g id="patch_78">
    <path d="M 198.570034 204.872727 
L 205.024736 204.872727 
L 205.024736 181.825181 
L 198.570034 181.825181 
z
" clip-path="url(#p7f357d9356)" style="fill: #2ca02c; opacity: 0.4"/>
   </g>
   <g id="patch_79">
    <path d="M 205.024736 204.872727 
L 211.479439 204.872727 
L 211.479439 188.793044 
L 205.024736 188.793044 
z
" clip-path="url(#p7f357d9356)" style="fill: #2ca02c; opacity: 0.4"/>
   </g>
   <g id="patch_80">
    <path d="M 211.479439 204.872727 
L 217.934142 204.872727 
L 217.934142 198.440854 
L 211.479439 198.440854 
z
" clip-path="url(#p7f357d9356)" style="fill: #2ca02c; opacity: 0.4"/>
   </g>
   <g id="patch_81">
    <path d="M 217.934142 204.872727 
L 224.388845 204.872727 
L 224.388845 195.760907 
L 217.934142 195.760907 
z
" clip-path="url(#p7f357d9356)" style="fill: #2ca02c; opacity: 0.4"/>
   </g>
   <g id="patch_82">
    <path d="M 224.388845 204.872727 
L 230.843547 204.872727 
L 230.843547 190.937002 
L 224.388845 190.937002 
z
" clip-path="url(#p7f357d9356)" style="fill: #2ca02c; opacity: 0.4"/>
   </g>
   <g id="patch_83">
    <path d="M 230.843547 204.872727 
L 237.29825 204.872727 
L 237.29825 198.440854 
L 230.843547 198.440854 
z
" clip-path="url(#p7f357d9356)" style="fill: #2ca02c; opacity: 0.4"/>
   </g>
   <g id="patch_84">
    <path d="M 237.29825 204.872727 
L 243.752953 204.872727 
L 243.752953 199.512833 
L 237.29825 199.512833 
z
" clip-path="url(#p7f357d9356)" style="fill: #2ca02c; opacity: 0.4"/>
   </g>
   <g id="patch_85">
    <path d="M 243.752953 204.872727 
L 250.207655 204.872727 
L 250.207655 195.760907 
L 243.752953 195.760907 
z
" clip-path="url(#p7f357d9356)" style="fill: #2ca02c; opacity: 0.4"/>
   </g>
   <g id="patch_86">
    <path d="M 250.207655 204.872727 
L 256.662358 204.872727 
L 256.662358 195.760907 
L 250.207655 195.760907 
z
" clip-path="url(#p7f357d9356)" style="fill: #2ca02c; opacity: 0.4"/>
   </g>
   <g id="patch_87">
    <path d="M 256.662358 204.872727 
L 263.117061 204.872727 
L 263.117061 194.152938 
L 256.662358 194.152938 
z
" clip-path="url(#p7f357d9356)" style="fill: #2ca02c; opacity: 0.4"/>
   </g>
   <g id="patch_88">
    <path d="M 263.117061 204.872727 
L 269.571764 204.872727 
L 269.571764 201.120801 
L 263.117061 201.120801 
z
" clip-path="url(#p7f357d9356)" style="fill: #2ca02c; opacity: 0.4"/>
   </g>
   <g id="patch_89">
    <path d="M 269.571764 204.872727 
L 276.026466 204.872727 
L 276.026466 202.19278 
L 269.571764 202.19278 
z
" clip-path="url(#p7f357d9356)" style="fill: #2ca02c; opacity: 0.4"/>
   </g>
   <g id="patch_90">
    <path d="M 276.026466 204.872727 
L 282.481169 204.872727 
L 282.481169 203.800748 
L 276.026466 203.800748 
z
" clip-path="url(#p7f357d9356)" style="fill: #2ca02c; opacity: 0.4"/>
   </g>
   <g id="patch_91">
    <path d="M 282.481169 204.872727 
L 288.935872 204.872727 
L 288.935872 203.800748 
L 282.481169 203.800748 
z
" clip-path="url(#p7f357d9356)" style="fill: #2ca02c; opacity: 0.4"/>
   </g>
   <g id="patch_92">
    <path d="M 288.935872 204.872727 
L 295.390574 204.872727 
L 295.390574 204.336738 
L 288.935872 204.336738 
z
" clip-path="url(#p7f357d9356)" style="fill: #2ca02c; opacity: 0.4"/>
   </g>
   <g id="matplotlib.axis_1">
    <g id="xtick_1">
     <g id="line2d_1">
      <defs>
       <path id="macc327393c" d="M 0 0 
L 0 3.5 
" style="stroke: #000000; stroke-width: 0.8"/>
      </defs>
      <g>
       <use xlink:href="#macc327393c" x="56.50625" y="204.872727" style="stroke: #000000; stroke-width: 0.8"/>
      </g>
     </g>
     <g id="text_1">
      <!-- −25 -->
      <g transform="translate(45.953906 219.471165)scale(0.1 -0.1)">
       <defs>
        <path id="DejaVuSans-2212" d="M 678 2272 
L 4684 2272 
L 4684 1741 
L 678 1741 
L 678 2272 
z
" transform="scale(0.015625)"/>
        <path id="DejaVuSans-32" d="M 1228 531 
L 3431 531 
L 3431 0 
L 469 0 
L 469 531 
Q 828 903 1448 1529 
Q 2069 2156 2228 2338 
Q 2531 2678 2651 2914 
Q 2772 3150 2772 3378 
Q 2772 3750 2511 3984 
Q 2250 4219 1831 4219 
Q 1534 4219 1204 4116 
Q 875 4013 500 3803 
L 500 4441 
Q 881 4594 1212 4672 
Q 1544 4750 1819 4750 
Q 2544 4750 2975 4387 
Q 3406 4025 3406 3419 
Q 3406 3131 3298 2873 
Q 3191 2616 2906 2266 
Q 2828 2175 2409 1742 
Q 1991 1309 1228 531 
z
" transform="scale(0.015625)"/>
        <path id="DejaVuSans-35" d="M 691 4666 
L 3169 4666 
L 3169 4134 
L 1269 4134 
L 1269 2991 
Q 1406 3038 1543 3061 
Q 1681 3084 1819 3084 
Q 2600 3084 3056 2656 
Q 3513 2228 3513 1497 
Q 3513 744 3044 326 
Q 2575 -91 1722 -91 
Q 1428 -91 1123 -41 
Q 819 9 494 109 
L 494 744 
Q 775 591 1075 516 
Q 1375 441 1709 441 
Q 2250 441 2565 725 
Q 2881 1009 2881 1497 
Q 2881 1984 2565 2268 
Q 2250 2553 1709 2553 
Q 1456 2553 1204 2497 
Q 953 2441 691 2322 
L 691 4666 
z
" transform="scale(0.015625)"/>
       </defs>
       <use xlink:href="#DejaVuSans-2212"/>
       <use xlink:href="#DejaVuSans-32" x="83.789062"/>
       <use xlink:href="#DejaVuSans-35" x="147.412109"/>
      </g>
     </g>
    </g>
    <g id="xtick_2">
     <g id="line2d_2">
      <g>
       <use xlink:href="#macc327393c" x="101.749493" y="204.872727" style="stroke: #000000; stroke-width: 0.8"/>
      </g>
     </g>
     <g id="text_2">
      <!-- 0 -->
      <g transform="translate(98.568243 219.471165)scale(0.1 -0.1)">
       <defs>
        <path id="DejaVuSans-30" d="M 2034 4250 
Q 1547 4250 1301 3770 
Q 1056 3291 1056 2328 
Q 1056 1369 1301 889 
Q 1547 409 2034 409 
Q 2525 409 2770 889 
Q 3016 1369 3016 2328 
Q 3016 3291 2770 3770 
Q 2525 4250 2034 4250 
z
M 2034 4750 
Q 2819 4750 3233 4129 
Q 3647 3509 3647 2328 
Q 3647 1150 3233 529 
Q 2819 -91 2034 -91 
Q 1250 -91 836 529 
Q 422 1150 422 2328 
Q 422 3509 836 4129 
Q 1250 4750 2034 4750 
z
" transform="scale(0.015625)"/>
       </defs>
       <use xlink:href="#DejaVuSans-30"/>
      </g>
     </g>
    </g>
    <g id="xtick_3">
     <g id="line2d_3">
      <g>
       <use xlink:href="#macc327393c" x="146.992736" y="204.872727" style="stroke: #000000; stroke-width: 0.8"/>
      </g>
     </g>
     <g id="text_3">
      <!-- 25 -->
      <g transform="translate(140.630236 219.471165)scale(0.1 -0.1)">
       <use xlink:href="#DejaVuSans-32"/>
       <use xlink:href="#DejaVuSans-35" x="63.623047"/>
      </g>
     </g>
    </g>
    <g id="xtick_4">
     <g id="line2d_4">
      <g>
       <use xlink:href="#macc327393c" x="192.23598" y="204.872727" style="stroke: #000000; stroke-width: 0.8"/>
      </g>
     </g>
     <g id="text_4">
      <!-- 50 -->
      <g transform="translate(185.87348 219.471165)scale(0.1 -0.1)">
       <use xlink:href="#DejaVuSans-35"/>
       <use xlink:href="#DejaVuSans-30" x="63.623047"/>
      </g>
     </g>
    </g>
    <g id="xtick_5">
     <g id="line2d_5">
      <g>
       <use xlink:href="#macc327393c" x="237.479223" y="204.872727" style="stroke: #000000; stroke-width: 0.8"/>
      </g>
     </g>
     <g id="text_5">
      <!-- 75 -->
      <g transform="translate(231.116723 219.471165)scale(0.1 -0.1)">
       <defs>
        <path id="DejaVuSans-37" d="M 525 4666 
L 3525 4666 
L 3525 4397 
L 1831 0 
L 1172 0 
L 2766 4134 
L 525 4134 
L 525 4666 
z
" transform="scale(0.015625)"/>
       </defs>
       <use xlink:href="#DejaVuSans-37"/>
       <use xlink:href="#DejaVuSans-35" x="63.623047"/>
      </g>
     </g>
    </g>
    <g id="xtick_6">
     <g id="line2d_6">
      <g>
       <use xlink:href="#macc327393c" x="282.722466" y="204.872727" style="stroke: #000000; stroke-width: 0.8"/>
      </g>
     </g>
     <g id="text_6">
      <!-- 100 -->
      <g transform="translate(273.178716 219.471165)scale(0.1 -0.1)">
       <defs>
        <path id="DejaVuSans-31" d="M 794 531 
L 1825 531 
L 1825 4091 
L 703 3866 
L 703 4441 
L 1819 4666 
L 2450 4666 
L 2450 531 
L 3481 531 
L 3481 0 
L 794 0 
L 794 531 
z
" transform="scale(0.015625)"/>
       </defs>
       <use xlink:href="#DejaVuSans-31"/>
       <use xlink:href="#DejaVuSans-30" x="63.623047"/>
       <use xlink:href="#DejaVuSans-30" x="127.246094"/>
      </g>
     </g>
    </g>
    <g id="xtick_7">
     <g id="line2d_7">
      <g>
       <use xlink:href="#macc327393c" x="327.965709" y="204.872727" style="stroke: #000000; stroke-width: 0.8"/>
      </g>
     </g>
     <g id="text_7">
      <!-- 125 -->
      <g transform="translate(318.421959 219.471165)scale(0.1 -0.1)">
       <use xlink:href="#DejaVuSans-31"/>
       <use xlink:href="#DejaVuSans-32" x="63.623047"/>
       <use xlink:href="#DejaVuSans-35" x="127.246094"/>
      </g>
     </g>
    </g>
    <g id="xtick_8">
     <g id="line2d_8">
      <g>
       <use xlink:href="#macc327393c" x="373.208953" y="204.872727" style="stroke: #000000; stroke-width: 0.8"/>
      </g>
     </g>
     <g id="text_8">
      <!-- 150 -->
      <g transform="translate(363.665203 219.471165)scale(0.1 -0.1)">
       <use xlink:href="#DejaVuSans-31"/>
       <use xlink:href="#DejaVuSans-35" x="63.623047"/>
       <use xlink:href="#DejaVuSans-30" x="127.246094"/>
      </g>
     </g>
    </g>
    <g id="text_9">
     <!-- Years sold after -->
     <g transform="translate(185.479688 233.14929)scale(0.1 -0.1)">
      <defs>
       <path id="DejaVuSans-59" d="M -13 4666 
L 666 4666 
L 1959 2747 
L 3244 4666 
L 3922 4666 
L 2272 2222 
L 2272 0 
L 1638 0 
L 1638 2222 
L -13 4666 
z
" transform="scale(0.015625)"/>
       <path id="DejaVuSans-65" d="M 3597 1894 
L 3597 1613 
L 953 1613 
Q 991 1019 1311 708 
Q 1631 397 2203 397 
Q 2534 397 2845 478 
Q 3156 559 3463 722 
L 3463 178 
Q 3153 47 2828 -22 
Q 2503 -91 2169 -91 
Q 1331 -91 842 396 
Q 353 884 353 1716 
Q 353 2575 817 3079 
Q 1281 3584 2069 3584 
Q 2775 3584 3186 3129 
Q 3597 2675 3597 1894 
z
M 3022 2063 
Q 3016 2534 2758 2815 
Q 2500 3097 2075 3097 
Q 1594 3097 1305 2825 
Q 1016 2553 972 2059 
L 3022 2063 
z
" transform="scale(0.015625)"/>
       <path id="DejaVuSans-61" d="M 2194 1759 
Q 1497 1759 1228 1600 
Q 959 1441 959 1056 
Q 959 750 1161 570 
Q 1363 391 1709 391 
Q 2188 391 2477 730 
Q 2766 1069 2766 1631 
L 2766 1759 
L 2194 1759 
z
M 3341 1997 
L 3341 0 
L 2766 0 
L 2766 531 
Q 2569 213 2275 61 
Q 1981 -91 1556 -91 
Q 1019 -91 701 211 
Q 384 513 384 1019 
Q 384 1609 779 1909 
Q 1175 2209 1959 2209 
L 2766 2209 
L 2766 2266 
Q 2766 2663 2505 2880 
Q 2244 3097 1772 3097 
Q 1472 3097 1187 3025 
Q 903 2953 641 2809 
L 641 3341 
Q 956 3463 1253 3523 
Q 1550 3584 1831 3584 
Q 2591 3584 2966 3190 
Q 3341 2797 3341 1997 
z
" transform="scale(0.015625)"/>
       <path id="DejaVuSans-72" d="M 2631 2963 
Q 2534 3019 2420 3045 
Q 2306 3072 2169 3072 
Q 1681 3072 1420 2755 
Q 1159 2438 1159 1844 
L 1159 0 
L 581 0 
L 581 3500 
L 1159 3500 
L 1159 2956 
Q 1341 3275 1631 3429 
Q 1922 3584 2338 3584 
Q 2397 3584 2469 3576 
Q 2541 3569 2628 3553 
L 2631 2963 
z
" transform="scale(0.015625)"/>
       <path id="DejaVuSans-73" d="M 2834 3397 
L 2834 2853 
Q 2591 2978 2328 3040 
Q 2066 3103 1784 3103 
Q 1356 3103 1142 2972 
Q 928 2841 928 2578 
Q 928 2378 1081 2264 
Q 1234 2150 1697 2047 
L 1894 2003 
Q 2506 1872 2764 1633 
Q 3022 1394 3022 966 
Q 3022 478 2636 193 
Q 2250 -91 1575 -91 
Q 1294 -91 989 -36 
Q 684 19 347 128 
L 347 722 
Q 666 556 975 473 
Q 1284 391 1588 391 
Q 1994 391 2212 530 
Q 2431 669 2431 922 
Q 2431 1156 2273 1281 
Q 2116 1406 1581 1522 
L 1381 1569 
Q 847 1681 609 1914 
Q 372 2147 372 2553 
Q 372 3047 722 3315 
Q 1072 3584 1716 3584 
Q 2034 3584 2315 3537 
Q 2597 3491 2834 3397 
z
" transform="scale(0.015625)"/>
       <path id="DejaVuSans-20" transform="scale(0.015625)"/>
       <path id="DejaVuSans-6f" d="M 1959 3097 
Q 1497 3097 1228 2736 
Q 959 2375 959 1747 
Q 959 1119 1226 758 
Q 1494 397 1959 397 
Q 2419 397 2687 759 
Q 2956 1122 2956 1747 
Q 2956 2369 2687 2733 
Q 2419 3097 1959 3097 
z
M 1959 3584 
Q 2709 3584 3137 3096 
Q 3566 2609 3566 1747 
Q 3566 888 3137 398 
Q 2709 -91 1959 -91 
Q 1206 -91 779 398 
Q 353 888 353 1747 
Q 353 2609 779 3096 
Q 1206 3584 1959 3584 
z
" transform="scale(0.015625)"/>
       <path id="DejaVuSans-6c" d="M 603 4863 
L 1178 4863 
L 1178 0 
L 603 0 
L 603 4863 
z
" transform="scale(0.015625)"/>
       <path id="DejaVuSans-64" d="M 2906 2969 
L 2906 4863 
L 3481 4863 
L 3481 0 
L 2906 0 
L 2906 525 
Q 2725 213 2448 61 
Q 2172 -91 1784 -91 
Q 1150 -91 751 415 
Q 353 922 353 1747 
Q 353 2572 751 3078 
Q 1150 3584 1784 3584 
Q 2172 3584 2448 3432 
Q 2725 3281 2906 2969 
z
M 947 1747 
Q 947 1113 1208 752 
Q 1469 391 1925 391 
Q 2381 391 2643 752 
Q 2906 1113 2906 1747 
Q 2906 2381 2643 2742 
Q 2381 3103 1925 3103 
Q 1469 3103 1208 2742 
Q 947 2381 947 1747 
z
" transform="scale(0.015625)"/>
       <path id="DejaVuSans-66" d="M 2375 4863 
L 2375 4384 
L 1825 4384 
Q 1516 4384 1395 4259 
Q 1275 4134 1275 3809 
L 1275 3500 
L 2222 3500 
L 2222 3053 
L 1275 3053 
L 1275 0 
L 697 0 
L 697 3053 
L 147 3053 
L 147 3500 
L 697 3500 
L 697 3744 
Q 697 4328 969 4595 
Q 1241 4863 1831 4863 
L 2375 4863 
z
" transform="scale(0.015625)"/>
       <path id="DejaVuSans-74" d="M 1172 4494 
L 1172 3500 
L 2356 3500 
L 2356 3053 
L 1172 3053 
L 1172 1153 
Q 1172 725 1289 603 
Q 1406 481 1766 481 
L 2356 481 
L 2356 0 
L 1766 0 
Q 1100 0 847 248 
Q 594 497 594 1153 
L 594 3053 
L 172 3053 
L 172 3500 
L 594 3500 
L 594 4494 
L 1172 4494 
z
" transform="scale(0.015625)"/>
      </defs>
      <use xlink:href="#DejaVuSans-59"/>
      <use xlink:href="#DejaVuSans-65" x="47.833984"/>
      <use xlink:href="#DejaVuSans-61" x="109.357422"/>
      <use xlink:href="#DejaVuSans-72" x="170.636719"/>
      <use xlink:href="#DejaVuSans-73" x="211.75"/>
      <use xlink:href="#DejaVuSans-20" x="263.849609"/>
      <use xlink:href="#DejaVuSans-73" x="295.636719"/>
      <use xlink:href="#DejaVuSans-6f" x="347.736328"/>
      <use xlink:href="#DejaVuSans-6c" x="408.917969"/>
      <use xlink:href="#DejaVuSans-64" x="436.701172"/>
      <use xlink:href="#DejaVuSans-20" x="500.177734"/>
      <use xlink:href="#DejaVuSans-61" x="531.964844"/>
      <use xlink:href="#DejaVuSans-66" x="593.244141"/>
      <use xlink:href="#DejaVuSans-74" x="626.699219"/>
      <use xlink:href="#DejaVuSans-65" x="665.908203"/>
      <use xlink:href="#DejaVuSans-72" x="727.431641"/>
     </g>
    </g>
   </g>
   <g id="matplotlib.axis_2">
    <g id="ytick_1">
     <g id="line2d_9">
      <defs>
       <path id="m58b9f9c2a7" d="M 0 0 
L -3.5 0 
" style="stroke: #000000; stroke-width: 0.8"/>
      </defs>
      <g>
       <use xlink:href="#m58b9f9c2a7" x="56.50625" y="204.872727" style="stroke: #000000; stroke-width: 0.8"/>
      </g>
     </g>
     <g id="text_10">
      <!-- 0.00 -->
      <g transform="translate(27.240625 208.671946)scale(0.1 -0.1)">
       <defs>
        <path id="DejaVuSans-2e" d="M 684 794 
L 1344 794 
L 1344 0 
L 684 0 
L 684 794 
z
" transform="scale(0.015625)"/>
       </defs>
       <use xlink:href="#DejaVuSans-30"/>
       <use xlink:href="#DejaVuSans-2e" x="63.623047"/>
       <use xlink:href="#DejaVuSans-30" x="95.410156"/>
       <use xlink:href="#DejaVuSans-30" x="159.033203"/>
      </g>
     </g>
    </g>
    <g id="ytick_2">
     <g id="line2d_10">
      <g>
       <use xlink:href="#m58b9f9c2a7" x="56.50625" y="178.510444" style="stroke: #000000; stroke-width: 0.8"/>
      </g>
     </g>
     <g id="text_11">
      <!-- 0.01 -->
      <g transform="translate(27.240625 182.309662)scale(0.1 -0.1)">
       <use xlink:href="#DejaVuSans-30"/>
       <use xlink:href="#DejaVuSans-2e" x="63.623047"/>
       <use xlink:href="#DejaVuSans-30" x="95.410156"/>
       <use xlink:href="#DejaVuSans-31" x="159.033203"/>
      </g>
     </g>
    </g>
    <g id="ytick_3">
     <g id="line2d_11">
      <g>
       <use xlink:href="#m58b9f9c2a7" x="56.50625" y="152.14816" style="stroke: #000000; stroke-width: 0.8"/>
      </g>
     </g>
     <g id="text_12">
      <!-- 0.02 -->
      <g transform="translate(27.240625 155.947379)scale(0.1 -0.1)">
       <use xlink:href="#DejaVuSans-30"/>
       <use xlink:href="#DejaVuSans-2e" x="63.623047"/>
       <use xlink:href="#DejaVuSans-30" x="95.410156"/>
       <use xlink:href="#DejaVuSans-32" x="159.033203"/>
      </g>
     </g>
    </g>
    <g id="ytick_4">
     <g id="line2d_12">
      <g>
       <use xlink:href="#m58b9f9c2a7" x="56.50625" y="125.785876" style="stroke: #000000; stroke-width: 0.8"/>
      </g>
     </g>
     <g id="text_13">
      <!-- 0.03 -->
      <g transform="translate(27.240625 129.585095)scale(0.1 -0.1)">
       <defs>
        <path id="DejaVuSans-33" d="M 2597 2516 
Q 3050 2419 3304 2112 
Q 3559 1806 3559 1356 
Q 3559 666 3084 287 
Q 2609 -91 1734 -91 
Q 1441 -91 1130 -33 
Q 819 25 488 141 
L 488 750 
Q 750 597 1062 519 
Q 1375 441 1716 441 
Q 2309 441 2620 675 
Q 2931 909 2931 1356 
Q 2931 1769 2642 2001 
Q 2353 2234 1838 2234 
L 1294 2234 
L 1294 2753 
L 1863 2753 
Q 2328 2753 2575 2939 
Q 2822 3125 2822 3475 
Q 2822 3834 2567 4026 
Q 2313 4219 1838 4219 
Q 1578 4219 1281 4162 
Q 984 4106 628 3988 
L 628 4550 
Q 988 4650 1302 4700 
Q 1616 4750 1894 4750 
Q 2613 4750 3031 4423 
Q 3450 4097 3450 3541 
Q 3450 3153 3228 2886 
Q 3006 2619 2597 2516 
z
" transform="scale(0.015625)"/>
       </defs>
       <use xlink:href="#DejaVuSans-30"/>
       <use xlink:href="#DejaVuSans-2e" x="63.623047"/>
       <use xlink:href="#DejaVuSans-30" x="95.410156"/>
       <use xlink:href="#DejaVuSans-33" x="159.033203"/>
      </g>
     </g>
    </g>
    <g id="ytick_5">
     <g id="line2d_13">
      <g>
       <use xlink:href="#m58b9f9c2a7" x="56.50625" y="99.423592" style="stroke: #000000; stroke-width: 0.8"/>
      </g>
     </g>
     <g id="text_14">
      <!-- 0.04 -->
      <g transform="translate(27.240625 103.222811)scale(0.1 -0.1)">
       <defs>
        <path id="DejaVuSans-34" d="M 2419 4116 
L 825 1625 
L 2419 1625 
L 2419 4116 
z
M 2253 4666 
L 3047 4666 
L 3047 1625 
L 3713 1625 
L 3713 1100 
L 3047 1100 
L 3047 0 
L 2419 0 
L 2419 1100 
L 313 1100 
L 313 1709 
L 2253 4666 
z
" transform="scale(0.015625)"/>
       </defs>
       <use xlink:href="#DejaVuSans-30"/>
       <use xlink:href="#DejaVuSans-2e" x="63.623047"/>
       <use xlink:href="#DejaVuSans-30" x="95.410156"/>
       <use xlink:href="#DejaVuSans-34" x="159.033203"/>
      </g>
     </g>
    </g>
    <g id="ytick_6">
     <g id="line2d_14">
      <g>
       <use xlink:href="#m58b9f9c2a7" x="56.50625" y="73.061309" style="stroke: #000000; stroke-width: 0.8"/>
      </g>
     </g>
     <g id="text_15">
      <!-- 0.05 -->
      <g transform="translate(27.240625 76.860527)scale(0.1 -0.1)">
       <use xlink:href="#DejaVuSans-30"/>
       <use xlink:href="#DejaVuSans-2e" x="63.623047"/>
       <use xlink:href="#DejaVuSans-30" x="95.410156"/>
       <use xlink:href="#DejaVuSans-35" x="159.033203"/>
      </g>
     </g>
    </g>
    <g id="ytick_7">
     <g id="line2d_15">
      <g>
       <use xlink:href="#m58b9f9c2a7" x="56.50625" y="46.699025" style="stroke: #000000; stroke-width: 0.8"/>
      </g>
     </g>
     <g id="text_16">
      <!-- 0.06 -->
      <g transform="translate(27.240625 50.498243)scale(0.1 -0.1)">
       <defs>
        <path id="DejaVuSans-36" d="M 2113 2584 
Q 1688 2584 1439 2293 
Q 1191 2003 1191 1497 
Q 1191 994 1439 701 
Q 1688 409 2113 409 
Q 2538 409 2786 701 
Q 3034 994 3034 1497 
Q 3034 2003 2786 2293 
Q 2538 2584 2113 2584 
z
M 3366 4563 
L 3366 3988 
Q 3128 4100 2886 4159 
Q 2644 4219 2406 4219 
Q 1781 4219 1451 3797 
Q 1122 3375 1075 2522 
Q 1259 2794 1537 2939 
Q 1816 3084 2150 3084 
Q 2853 3084 3261 2657 
Q 3669 2231 3669 1497 
Q 3669 778 3244 343 
Q 2819 -91 2113 -91 
Q 1303 -91 875 529 
Q 447 1150 447 2328 
Q 447 3434 972 4092 
Q 1497 4750 2381 4750 
Q 2619 4750 2861 4703 
Q 3103 4656 3366 4563 
z
" transform="scale(0.015625)"/>
       </defs>
       <use xlink:href="#DejaVuSans-30"/>
       <use xlink:href="#DejaVuSans-2e" x="63.623047"/>
       <use xlink:href="#DejaVuSans-30" x="95.410156"/>
       <use xlink:href="#DejaVuSans-36" x="159.033203"/>
      </g>
     </g>
    </g>
    <g id="ytick_8">
     <g id="line2d_16">
      <g>
       <use xlink:href="#m58b9f9c2a7" x="56.50625" y="20.336741" style="stroke: #000000; stroke-width: 0.8"/>
      </g>
     </g>
     <g id="text_17">
      <!-- 0.07 -->
      <g transform="translate(27.240625 24.13596)scale(0.1 -0.1)">
       <use xlink:href="#DejaVuSans-30"/>
       <use xlink:href="#DejaVuSans-2e" x="63.623047"/>
       <use xlink:href="#DejaVuSans-30" x="95.410156"/>
       <use xlink:href="#DejaVuSans-37" x="159.033203"/>
      </g>
     </g>
    </g>
    <g id="text_18">
     <!-- Density -->
     <g transform="translate(21.160938 125.044957)rotate(-90)scale(0.1 -0.1)">
      <defs>
       <path id="DejaVuSans-44" d="M 1259 4147 
L 1259 519 
L 2022 519 
Q 2988 519 3436 956 
Q 3884 1394 3884 2338 
Q 3884 3275 3436 3711 
Q 2988 4147 2022 4147 
L 1259 4147 
z
M 628 4666 
L 1925 4666 
Q 3281 4666 3915 4102 
Q 4550 3538 4550 2338 
Q 4550 1131 3912 565 
Q 3275 0 1925 0 
L 628 0 
L 628 4666 
z
" transform="scale(0.015625)"/>
       <path id="DejaVuSans-6e" d="M 3513 2113 
L 3513 0 
L 2938 0 
L 2938 2094 
Q 2938 2591 2744 2837 
Q 2550 3084 2163 3084 
Q 1697 3084 1428 2787 
Q 1159 2491 1159 1978 
L 1159 0 
L 581 0 
L 581 3500 
L 1159 3500 
L 1159 2956 
Q 1366 3272 1645 3428 
Q 1925 3584 2291 3584 
Q 2894 3584 3203 3211 
Q 3513 2838 3513 2113 
z
" transform="scale(0.015625)"/>
       <path id="DejaVuSans-69" d="M 603 3500 
L 1178 3500 
L 1178 0 
L 603 0 
L 603 3500 
z
M 603 4863 
L 1178 4863 
L 1178 4134 
L 603 4134 
L 603 4863 
z
" transform="scale(0.015625)"/>
       <path id="DejaVuSans-79" d="M 2059 -325 
Q 1816 -950 1584 -1140 
Q 1353 -1331 966 -1331 
L 506 -1331 
L 506 -850 
L 844 -850 
Q 1081 -850 1212 -737 
Q 1344 -625 1503 -206 
L 1606 56 
L 191 3500 
L 800 3500 
L 1894 763 
L 2988 3500 
L 3597 3500 
L 2059 -325 
z
" transform="scale(0.015625)"/>
      </defs>
      <use xlink:href="#DejaVuSans-44"/>
      <use xlink:href="#DejaVuSans-65" x="77.001953"/>
      <use xlink:href="#DejaVuSans-6e" x="138.525391"/>
      <use xlink:href="#DejaVuSans-73" x="201.904297"/>
      <use xlink:href="#DejaVuSans-69" x="254.003906"/>
      <use xlink:href="#DejaVuSans-74" x="281.787109"/>
      <use xlink:href="#DejaVuSans-79" x="320.996094"/>
     </g>
    </g>
   </g>
   <g id="line2d_17">
    <path d="M 63.502969 204.683959 
L 66.745344 204.464025 
L 69.987719 204.040768 
L 73.230093 203.279834 
L 74.851281 202.71839 
L 76.472468 202.00281 
L 78.093656 201.106677 
L 79.714843 200.004177 
L 81.33603 198.671906 
L 82.957218 197.090962 
L 84.578405 195.249208 
L 86.199593 193.143509 
L 87.82078 190.781741 
L 91.063155 185.385065 
L 95.926717 176.307133 
L 99.169092 170.391639 
L 100.790279 167.71062 
L 102.411467 165.314752 
L 104.032654 163.268866 
L 105.653841 161.624896 
L 107.275029 160.419251 
L 108.896216 159.671287 
L 110.517404 159.382955 
L 112.138591 159.539595 
L 113.759778 160.111718 
L 115.380966 161.057537 
L 117.002153 162.325958 
L 118.623341 163.859734 
L 121.865715 167.481465 
L 128.350465 175.33382 
L 131.59284 178.797454 
L 133.214027 180.287867 
L 134.835214 181.584152 
L 136.456402 182.668212 
L 138.077589 183.52741 
L 139.698777 184.154657 
L 141.319964 184.548514 
L 142.941151 184.713232 
L 144.562339 184.658693 
L 146.183526 184.400158 
L 147.804714 183.957804 
L 149.425901 183.356017 
L 152.668276 181.786984 
L 157.531838 178.973924 
L 160.774213 177.122429 
L 164.016588 175.49257 
L 167.258962 174.18533 
L 170.501337 173.240519 
L 173.743712 172.654687 
L 176.986087 172.404549 
L 180.228462 172.467665 
L 183.470836 172.834444 
L 186.713211 173.509097 
L 189.955586 174.500912 
L 193.197961 175.810008 
L 196.440335 177.413229 
L 199.68271 179.25549 
L 212.652209 187.058855 
L 215.894584 188.623018 
L 219.136959 189.917675 
L 222.379334 190.942312 
L 225.621709 191.715617 
L 228.864083 192.260213 
L 232.106458 192.592233 
L 235.348833 192.720612 
L 238.591208 192.656041 
L 243.45477 192.261314 
L 253.181894 191.273218 
L 256.424269 191.227778 
L 259.666644 191.44984 
L 262.909019 191.963243 
L 266.151393 192.750671 
L 269.393768 193.760625 
L 274.25733 195.530024 
L 282.363267 198.511966 
L 287.22683 200.002284 
L 292.090392 201.16477 
L 296.953954 202.016579 
L 301.817516 202.621627 
L 308.302266 203.160399 
L 316.408203 203.547892 
L 327.756514 203.805494 
L 342.347201 204.183538 
L 361.80145 204.727539 
L 376.392136 204.856771 
L 386.119261 204.870771 
L 386.119261 204.870771 
" clip-path="url(#p7f357d9356)" style="fill: none; stroke: #1f77b4; stroke-width: 1.5; stroke-linecap: square"/>
   </g>
   <g id="line2d_18">
    <path d="M 73.842928 204.704627 
L 76.293991 204.460102 
L 77.928033 204.152764 
L 79.562076 203.657767 
L 81.196118 202.889382 
L 82.83016 201.740037 
L 84.464202 200.083863 
L 86.098244 197.785551 
L 87.732286 194.715184 
L 89.366328 190.768452 
L 91.00037 185.89003 
L 92.634412 180.096239 
L 94.268454 173.492066 
L 96.719517 162.528364 
L 99.987601 147.606732 
L 101.621643 140.851986 
L 103.255685 135.037856 
L 104.889727 130.433503 
L 105.706748 128.641757 
L 106.523769 127.206535 
L 107.34079 126.131126 
L 108.157811 125.412059 
L 108.974832 125.039662 
L 109.791853 124.998824 
L 110.608874 125.269887 
L 111.425895 125.829634 
L 112.242916 126.652302 
L 113.059938 127.710586 
L 114.69398 130.422587 
L 116.328022 133.749249 
L 118.779085 139.477635 
L 123.681211 151.937628 
L 127.766316 162.077035 
L 130.217379 167.696744 
L 132.668442 172.775509 
L 134.302484 175.781176 
L 135.936526 178.429831 
L 137.570568 180.68209 
L 139.20461 182.506933 
L 140.838652 183.88432 
L 142.472694 184.807546 
L 144.106736 185.285251 
L 145.740778 185.342831 
L 147.374821 185.022883 
L 149.008863 184.384199 
L 150.642905 183.498984 
L 153.093968 181.887083 
L 157.179073 179.115532 
L 159.630136 177.76032 
L 161.264178 177.068643 
L 162.89822 176.563955 
L 164.532262 176.24571 
L 166.166304 176.103362 
L 168.617367 176.181141 
L 171.06843 176.54316 
L 174.336514 177.326069 
L 180.872683 179.088004 
L 183.323746 179.478305 
L 184.957788 179.5519 
L 186.59183 179.427645 
L 188.225872 179.067857 
L 189.859914 178.445452 
L 191.493956 177.552533 
L 193.127998 176.409641 
L 195.579061 174.361852 
L 198.847145 171.61526 
L 200.481187 170.588242 
L 201.298208 170.236414 
L 202.115229 170.018973 
L 202.93225 169.953217 
L 203.749271 170.053463 
L 204.566292 170.330424 
L 205.383313 170.790713 
L 206.200334 171.436506 
L 207.017355 172.265363 
L 208.651397 174.439764 
L 210.285439 177.207429 
L 212.736502 182.109513 
L 216.821608 190.659139 
L 218.45565 193.705976 
L 220.089692 196.36663 
L 221.723734 198.59269 
L 223.357776 200.380166 
L 224.991818 201.759467 
L 226.62586 202.783285 
L 228.259902 203.514871 
L 229.893944 204.018428 
L 232.345007 204.47166 
L 235.613091 204.742253 
L 236.430112 204.776199 
L 236.430112 204.776199 
" clip-path="url(#p7f357d9356)" style="fill: none; stroke: #ff7f0e; stroke-width: 1.5; stroke-linecap: square"/>
   </g>
   <g id="line2d_19">
    <path d="M 70.127339 204.638292 
L 72.709102 204.381183 
L 75.290864 203.899231 
L 77.872627 203.050869 
L 79.163508 202.432399 
L 80.45439 201.649309 
L 81.745271 200.673657 
L 83.036153 199.477695 
L 84.327034 198.035511 
L 85.617915 196.32496 
L 86.908797 194.329769 
L 88.199678 192.041691 
L 89.490559 189.462506 
L 92.072322 183.497486 
L 94.654085 176.697543 
L 99.81761 162.567801 
L 102.399373 156.467911 
L 103.690254 153.914944 
L 104.981136 151.766562 
L 106.272017 150.059993 
L 107.562898 148.816589 
L 108.85378 148.041631 
L 110.144661 147.725121 
L 111.435542 147.843457 
L 112.726424 148.361752 
L 114.017305 149.236589 
L 115.308186 150.418922 
L 116.599068 151.856904 
L 119.18083 155.293226 
L 123.053475 161.15183 
L 126.926119 166.988064 
L 129.507881 170.535131 
L 132.089644 173.650883 
L 134.671407 176.234296 
L 135.962288 177.300073 
L 137.253169 178.203715 
L 138.544051 178.938675 
L 139.834932 179.500632 
L 141.125813 179.888007 
L 142.416695 180.102462 
L 143.707576 180.149287 
L 144.998458 180.037642 
L 146.289339 179.780566 
L 148.871102 178.900018 
L 151.452864 177.674261 
L 157.907271 174.302332 
L 160.489034 173.205264 
L 163.070797 172.350103 
L 165.652559 171.725375 
L 168.234322 171.288556 
L 172.106966 170.885521 
L 175.97961 170.717082 
L 179.852254 170.821421 
L 182.434017 171.102833 
L 185.01578 171.605409 
L 187.597542 172.369338 
L 190.179305 173.42339 
L 192.761068 174.778741 
L 195.34283 176.423765 
L 197.924593 178.320797 
L 201.797237 181.493337 
L 208.251644 186.879449 
L 210.833407 188.786137 
L 213.415169 190.441282 
L 215.996932 191.814879 
L 218.578695 192.914109 
L 221.160457 193.777514 
L 225.033102 194.754348 
L 230.196627 195.720575 
L 235.360152 196.426473 
L 239.232796 196.738406 
L 243.105441 196.850793 
L 252.14161 196.934053 
L 256.014254 197.263091 
L 259.886898 197.896654 
L 263.759542 198.798738 
L 277.959237 202.476078 
L 281.831881 203.161851 
L 286.995407 203.809943 
L 292.158932 204.227571 
L 299.90422 204.589574 
L 310.231271 204.804521 
L 327.012729 204.871164 
L 327.012729 204.871164 
" clip-path="url(#p7f357d9356)" style="fill: none; stroke: #2ca02c; stroke-width: 1.5; stroke-linecap: square"/>
   </g>
   <g id="patch_93">
    <path d="M 56.50625 204.872727 
L 56.50625 7.2 
" style="fill: none; stroke: #000000; stroke-width: 0.8; stroke-linejoin: miter; stroke-linecap: square"/>
   </g>
   <g id="patch_94">
    <path d="M 391.30625 204.872727 
L 391.30625 7.2 
" style="fill: none; stroke: #000000; stroke-width: 0.8; stroke-linejoin: miter; stroke-linecap: square"/>
   </g>
   <g id="patch_95">
    <path d="M 56.50625 204.872727 
L 391.30625 204.872727 
" style="fill: none; stroke: #000000; stroke-width: 0.8; stroke-linejoin: miter; stroke-linecap: square"/>
   </g>
   <g id="patch_96">
    <path d="M 56.50625 7.2 
L 391.30625 7.2 
" style="fill: none; stroke: #000000; stroke-width: 0.8; stroke-linejoin: miter; stroke-linecap: square"/>
   </g>
   <g id="legend_1">
    <g id="patch_97">
     <path d="M 298.084375 59.234375 
L 384.30625 59.234375 
Q 386.30625 59.234375 386.30625 57.234375 
L 386.30625 14.2 
Q 386.30625 12.2 384.30625 12.2 
L 298.084375 12.2 
Q 296.084375 12.2 296.084375 14.2 
L 296.084375 57.234375 
Q 296.084375 59.234375 298.084375 59.234375 
z
" style="fill: #ffffff; opacity: 0.8; stroke: #cccccc; stroke-linejoin: miter"/>
    </g>
    <g id="patch_98">
     <path d="M 300.084375 23.798437 
L 320.084375 23.798437 
L 320.084375 16.798437 
L 300.084375 16.798437 
z
" style="fill: #1f77b4; opacity: 0.4"/>
    </g>
    <g id="text_19">
     <!-- Built -->
     <g transform="translate(328.084375 23.798437)scale(0.1 -0.1)">
      <defs>
       <path id="DejaVuSans-42" d="M 1259 2228 
L 1259 519 
L 2272 519 
Q 2781 519 3026 730 
Q 3272 941 3272 1375 
Q 3272 1813 3026 2020 
Q 2781 2228 2272 2228 
L 1259 2228 
z
M 1259 4147 
L 1259 2741 
L 2194 2741 
Q 2656 2741 2882 2914 
Q 3109 3088 3109 3444 
Q 3109 3797 2882 3972 
Q 2656 4147 2194 4147 
L 1259 4147 
z
M 628 4666 
L 2241 4666 
Q 2963 4666 3353 4366 
Q 3744 4066 3744 3513 
Q 3744 3084 3544 2831 
Q 3344 2578 2956 2516 
Q 3422 2416 3680 2098 
Q 3938 1781 3938 1306 
Q 3938 681 3513 340 
Q 3088 0 2303 0 
L 628 0 
L 628 4666 
z
" transform="scale(0.015625)"/>
       <path id="DejaVuSans-75" d="M 544 1381 
L 544 3500 
L 1119 3500 
L 1119 1403 
Q 1119 906 1312 657 
Q 1506 409 1894 409 
Q 2359 409 2629 706 
Q 2900 1003 2900 1516 
L 2900 3500 
L 3475 3500 
L 3475 0 
L 2900 0 
L 2900 538 
Q 2691 219 2414 64 
Q 2138 -91 1772 -91 
Q 1169 -91 856 284 
Q 544 659 544 1381 
z
M 1991 3584 
L 1991 3584 
z
" transform="scale(0.015625)"/>
      </defs>
      <use xlink:href="#DejaVuSans-42"/>
      <use xlink:href="#DejaVuSans-75" x="68.603516"/>
      <use xlink:href="#DejaVuSans-69" x="131.982422"/>
      <use xlink:href="#DejaVuSans-6c" x="159.765625"/>
      <use xlink:href="#DejaVuSans-74" x="187.548828"/>
     </g>
    </g>
    <g id="patch_99">
     <path d="M 300.084375 38.476562 
L 320.084375 38.476562 
L 320.084375 31.476562 
L 300.084375 31.476562 
z
" style="fill: #ff7f0e; opacity: 0.4"/>
    </g>
    <g id="text_20">
     <!-- RemodAdd -->
     <g transform="translate(328.084375 38.476562)scale(0.1 -0.1)">
      <defs>
       <path id="DejaVuSans-52" d="M 2841 2188 
Q 3044 2119 3236 1894 
Q 3428 1669 3622 1275 
L 4263 0 
L 3584 0 
L 2988 1197 
Q 2756 1666 2539 1819 
Q 2322 1972 1947 1972 
L 1259 1972 
L 1259 0 
L 628 0 
L 628 4666 
L 2053 4666 
Q 2853 4666 3247 4331 
Q 3641 3997 3641 3322 
Q 3641 2881 3436 2590 
Q 3231 2300 2841 2188 
z
M 1259 4147 
L 1259 2491 
L 2053 2491 
Q 2509 2491 2742 2702 
Q 2975 2913 2975 3322 
Q 2975 3731 2742 3939 
Q 2509 4147 2053 4147 
L 1259 4147 
z
" transform="scale(0.015625)"/>
       <path id="DejaVuSans-6d" d="M 3328 2828 
Q 3544 3216 3844 3400 
Q 4144 3584 4550 3584 
Q 5097 3584 5394 3201 
Q 5691 2819 5691 2113 
L 5691 0 
L 5113 0 
L 5113 2094 
Q 5113 2597 4934 2840 
Q 4756 3084 4391 3084 
Q 3944 3084 3684 2787 
Q 3425 2491 3425 1978 
L 3425 0 
L 2847 0 
L 2847 2094 
Q 2847 2600 2669 2842 
Q 2491 3084 2119 3084 
Q 1678 3084 1418 2786 
Q 1159 2488 1159 1978 
L 1159 0 
L 581 0 
L 581 3500 
L 1159 3500 
L 1159 2956 
Q 1356 3278 1631 3431 
Q 1906 3584 2284 3584 
Q 2666 3584 2933 3390 
Q 3200 3197 3328 2828 
z
" transform="scale(0.015625)"/>
       <path id="DejaVuSans-41" d="M 2188 4044 
L 1331 1722 
L 3047 1722 
L 2188 4044 
z
M 1831 4666 
L 2547 4666 
L 4325 0 
L 3669 0 
L 3244 1197 
L 1141 1197 
L 716 0 
L 50 0 
L 1831 4666 
z
" transform="scale(0.015625)"/>
      </defs>
      <use xlink:href="#DejaVuSans-52"/>
      <use xlink:href="#DejaVuSans-65" x="64.982422"/>
      <use xlink:href="#DejaVuSans-6d" x="126.505859"/>
      <use xlink:href="#DejaVuSans-6f" x="223.917969"/>
      <use xlink:href="#DejaVuSans-64" x="285.099609"/>
      <use xlink:href="#DejaVuSans-41" x="348.576172"/>
      <use xlink:href="#DejaVuSans-64" x="415.234375"/>
      <use xlink:href="#DejaVuSans-64" x="478.710938"/>
     </g>
    </g>
    <g id="patch_100">
     <path d="M 300.084375 53.154687 
L 320.084375 53.154687 
L 320.084375 46.154687 
L 300.084375 46.154687 
z
" style="fill: #2ca02c; opacity: 0.4"/>
    </g>
    <g id="text_21">
     <!-- Garage -->
     <g transform="translate(328.084375 53.154687)scale(0.1 -0.1)">
      <defs>
       <path id="DejaVuSans-47" d="M 3809 666 
L 3809 1919 
L 2778 1919 
L 2778 2438 
L 4434 2438 
L 4434 434 
Q 4069 175 3628 42 
Q 3188 -91 2688 -91 
Q 1594 -91 976 548 
Q 359 1188 359 2328 
Q 359 3472 976 4111 
Q 1594 4750 2688 4750 
Q 3144 4750 3555 4637 
Q 3966 4525 4313 4306 
L 4313 3634 
Q 3963 3931 3569 4081 
Q 3175 4231 2741 4231 
Q 1884 4231 1454 3753 
Q 1025 3275 1025 2328 
Q 1025 1384 1454 906 
Q 1884 428 2741 428 
Q 3075 428 3337 486 
Q 3600 544 3809 666 
z
" transform="scale(0.015625)"/>
       <path id="DejaVuSans-67" d="M 2906 1791 
Q 2906 2416 2648 2759 
Q 2391 3103 1925 3103 
Q 1463 3103 1205 2759 
Q 947 2416 947 1791 
Q 947 1169 1205 825 
Q 1463 481 1925 481 
Q 2391 481 2648 825 
Q 2906 1169 2906 1791 
z
M 3481 434 
Q 3481 -459 3084 -895 
Q 2688 -1331 1869 -1331 
Q 1566 -1331 1297 -1286 
Q 1028 -1241 775 -1147 
L 775 -588 
Q 1028 -725 1275 -790 
Q 1522 -856 1778 -856 
Q 2344 -856 2625 -561 
Q 2906 -266 2906 331 
L 2906 616 
Q 2728 306 2450 153 
Q 2172 0 1784 0 
Q 1141 0 747 490 
Q 353 981 353 1791 
Q 353 2603 747 3093 
Q 1141 3584 1784 3584 
Q 2172 3584 2450 3431 
Q 2728 3278 2906 2969 
L 2906 3500 
L 3481 3500 
L 3481 434 
z
" transform="scale(0.015625)"/>
      </defs>
      <use xlink:href="#DejaVuSans-47"/>
      <use xlink:href="#DejaVuSans-61" x="77.490234"/>
      <use xlink:href="#DejaVuSans-72" x="138.769531"/>
      <use xlink:href="#DejaVuSans-61" x="179.882812"/>
      <use xlink:href="#DejaVuSans-67" x="241.162109"/>
      <use xlink:href="#DejaVuSans-65" x="304.638672"/>
     </g>
    </g>
   </g>
  </g>
  <g id="axes_2">
   <g id="patch_101">
    <path d="M 56.50625 442.08 
L 391.30625 442.08 
L 391.30625 244.407273 
L 56.50625 244.407273 
z
" style="fill: #ffffff"/>
   </g>
   <g id="matplotlib.axis_3">
    <g id="xtick_9">
     <g id="line2d_20">
      <g>
       <use xlink:href="#macc327393c" x="56.50625" y="442.08" style="stroke: #000000; stroke-width: 0.8"/>
      </g>
     </g>
     <g id="text_22">
      <!-- −25 -->
      <g transform="translate(45.953906 456.678437)scale(0.1 -0.1)">
       <use xlink:href="#DejaVuSans-2212"/>
       <use xlink:href="#DejaVuSans-32" x="83.789062"/>
       <use xlink:href="#DejaVuSans-35" x="147.412109"/>
      </g>
     </g>
    </g>
    <g id="xtick_10">
     <g id="line2d_21">
      <g>
       <use xlink:href="#macc327393c" x="101.749493" y="442.08" style="stroke: #000000; stroke-width: 0.8"/>
      </g>
     </g>
     <g id="text_23">
      <!-- 0 -->
      <g transform="translate(98.568243 456.678437)scale(0.1 -0.1)">
       <use xlink:href="#DejaVuSans-30"/>
      </g>
     </g>
    </g>
    <g id="xtick_11">
     <g id="line2d_22">
      <g>
       <use xlink:href="#macc327393c" x="146.992736" y="442.08" style="stroke: #000000; stroke-width: 0.8"/>
      </g>
     </g>
     <g id="text_24">
      <!-- 25 -->
      <g transform="translate(140.630236 456.678437)scale(0.1 -0.1)">
       <use xlink:href="#DejaVuSans-32"/>
       <use xlink:href="#DejaVuSans-35" x="63.623047"/>
      </g>
     </g>
    </g>
    <g id="xtick_12">
     <g id="line2d_23">
      <g>
       <use xlink:href="#macc327393c" x="192.23598" y="442.08" style="stroke: #000000; stroke-width: 0.8"/>
      </g>
     </g>
     <g id="text_25">
      <!-- 50 -->
      <g transform="translate(185.87348 456.678437)scale(0.1 -0.1)">
       <use xlink:href="#DejaVuSans-35"/>
       <use xlink:href="#DejaVuSans-30" x="63.623047"/>
      </g>
     </g>
    </g>
    <g id="xtick_13">
     <g id="line2d_24">
      <g>
       <use xlink:href="#macc327393c" x="237.479223" y="442.08" style="stroke: #000000; stroke-width: 0.8"/>
      </g>
     </g>
     <g id="text_26">
      <!-- 75 -->
      <g transform="translate(231.116723 456.678437)scale(0.1 -0.1)">
       <use xlink:href="#DejaVuSans-37"/>
       <use xlink:href="#DejaVuSans-35" x="63.623047"/>
      </g>
     </g>
    </g>
    <g id="xtick_14">
     <g id="line2d_25">
      <g>
       <use xlink:href="#macc327393c" x="282.722466" y="442.08" style="stroke: #000000; stroke-width: 0.8"/>
      </g>
     </g>
     <g id="text_27">
      <!-- 100 -->
      <g transform="translate(273.178716 456.678437)scale(0.1 -0.1)">
       <use xlink:href="#DejaVuSans-31"/>
       <use xlink:href="#DejaVuSans-30" x="63.623047"/>
       <use xlink:href="#DejaVuSans-30" x="127.246094"/>
      </g>
     </g>
    </g>
    <g id="xtick_15">
     <g id="line2d_26">
      <g>
       <use xlink:href="#macc327393c" x="327.965709" y="442.08" style="stroke: #000000; stroke-width: 0.8"/>
      </g>
     </g>
     <g id="text_28">
      <!-- 125 -->
      <g transform="translate(318.421959 456.678437)scale(0.1 -0.1)">
       <use xlink:href="#DejaVuSans-31"/>
       <use xlink:href="#DejaVuSans-32" x="63.623047"/>
       <use xlink:href="#DejaVuSans-35" x="127.246094"/>
      </g>
     </g>
    </g>
    <g id="xtick_16">
     <g id="line2d_27">
      <g>
       <use xlink:href="#macc327393c" x="373.208953" y="442.08" style="stroke: #000000; stroke-width: 0.8"/>
      </g>
     </g>
     <g id="text_29">
      <!-- 150 -->
      <g transform="translate(363.665203 456.678437)scale(0.1 -0.1)">
       <use xlink:href="#DejaVuSans-31"/>
       <use xlink:href="#DejaVuSans-35" x="63.623047"/>
       <use xlink:href="#DejaVuSans-30" x="127.246094"/>
      </g>
     </g>
    </g>
    <g id="text_30">
     <!-- Years sold after -->
     <g transform="translate(185.479688 470.356562)scale(0.1 -0.1)">
      <use xlink:href="#DejaVuSans-59"/>
      <use xlink:href="#DejaVuSans-65" x="47.833984"/>
      <use xlink:href="#DejaVuSans-61" x="109.357422"/>
      <use xlink:href="#DejaVuSans-72" x="170.636719"/>
      <use xlink:href="#DejaVuSans-73" x="211.75"/>
      <use xlink:href="#DejaVuSans-20" x="263.849609"/>
      <use xlink:href="#DejaVuSans-73" x="295.636719"/>
      <use xlink:href="#DejaVuSans-6f" x="347.736328"/>
      <use xlink:href="#DejaVuSans-6c" x="408.917969"/>
      <use xlink:href="#DejaVuSans-64" x="436.701172"/>
      <use xlink:href="#DejaVuSans-20" x="500.177734"/>
      <use xlink:href="#DejaVuSans-61" x="531.964844"/>
      <use xlink:href="#DejaVuSans-66" x="593.244141"/>
      <use xlink:href="#DejaVuSans-74" x="626.699219"/>
      <use xlink:href="#DejaVuSans-65" x="665.908203"/>
      <use xlink:href="#DejaVuSans-72" x="727.431641"/>
     </g>
    </g>
   </g>
   <g id="matplotlib.axis_4">
    <g id="ytick_9">
     <g id="line2d_28">
      <g>
       <use xlink:href="#m58b9f9c2a7" x="56.50625" y="436.979302" style="stroke: #000000; stroke-width: 0.8"/>
      </g>
     </g>
     <g id="text_31">
      <!-- 11.25 -->
      <g transform="translate(20.878125 440.77852)scale(0.1 -0.1)">
       <use xlink:href="#DejaVuSans-31"/>
       <use xlink:href="#DejaVuSans-31" x="63.623047"/>
       <use xlink:href="#DejaVuSans-2e" x="127.246094"/>
       <use xlink:href="#DejaVuSans-32" x="159.033203"/>
       <use xlink:href="#DejaVuSans-35" x="222.65625"/>
      </g>
     </g>
    </g>
    <g id="ytick_10">
     <g id="line2d_29">
      <g>
       <use xlink:href="#m58b9f9c2a7" x="56.50625" y="411.776139" style="stroke: #000000; stroke-width: 0.8"/>
      </g>
     </g>
     <g id="text_32">
      <!-- 11.50 -->
      <g transform="translate(20.878125 415.575357)scale(0.1 -0.1)">
       <use xlink:href="#DejaVuSans-31"/>
       <use xlink:href="#DejaVuSans-31" x="63.623047"/>
       <use xlink:href="#DejaVuSans-2e" x="127.246094"/>
       <use xlink:href="#DejaVuSans-35" x="159.033203"/>
       <use xlink:href="#DejaVuSans-30" x="222.65625"/>
      </g>
     </g>
    </g>
    <g id="ytick_11">
     <g id="line2d_30">
      <g>
       <use xlink:href="#m58b9f9c2a7" x="56.50625" y="386.572976" style="stroke: #000000; stroke-width: 0.8"/>
      </g>
     </g>
     <g id="text_33">
      <!-- 11.75 -->
      <g transform="translate(20.878125 390.372194)scale(0.1 -0.1)">
       <use xlink:href="#DejaVuSans-31"/>
       <use xlink:href="#DejaVuSans-31" x="63.623047"/>
       <use xlink:href="#DejaVuSans-2e" x="127.246094"/>
       <use xlink:href="#DejaVuSans-37" x="159.033203"/>
       <use xlink:href="#DejaVuSans-35" x="222.65625"/>
      </g>
     </g>
    </g>
    <g id="ytick_12">
     <g id="line2d_31">
      <g>
       <use xlink:href="#m58b9f9c2a7" x="56.50625" y="361.369812" style="stroke: #000000; stroke-width: 0.8"/>
      </g>
     </g>
     <g id="text_34">
      <!-- 12.00 -->
      <g transform="translate(20.878125 365.169031)scale(0.1 -0.1)">
       <use xlink:href="#DejaVuSans-31"/>
       <use xlink:href="#DejaVuSans-32" x="63.623047"/>
       <use xlink:href="#DejaVuSans-2e" x="127.246094"/>
       <use xlink:href="#DejaVuSans-30" x="159.033203"/>
       <use xlink:href="#DejaVuSans-30" x="222.65625"/>
      </g>
     </g>
    </g>
    <g id="ytick_13">
     <g id="line2d_32">
      <g>
       <use xlink:href="#m58b9f9c2a7" x="56.50625" y="336.166649" style="stroke: #000000; stroke-width: 0.8"/>
      </g>
     </g>
     <g id="text_35">
      <!-- 12.25 -->
      <g transform="translate(20.878125 339.965868)scale(0.1 -0.1)">
       <use xlink:href="#DejaVuSans-31"/>
       <use xlink:href="#DejaVuSans-32" x="63.623047"/>
       <use xlink:href="#DejaVuSans-2e" x="127.246094"/>
       <use xlink:href="#DejaVuSans-32" x="159.033203"/>
       <use xlink:href="#DejaVuSans-35" x="222.65625"/>
      </g>
     </g>
    </g>
    <g id="ytick_14">
     <g id="line2d_33">
      <g>
       <use xlink:href="#m58b9f9c2a7" x="56.50625" y="310.963486" style="stroke: #000000; stroke-width: 0.8"/>
      </g>
     </g>
     <g id="text_36">
      <!-- 12.50 -->
      <g transform="translate(20.878125 314.762705)scale(0.1 -0.1)">
       <use xlink:href="#DejaVuSans-31"/>
       <use xlink:href="#DejaVuSans-32" x="63.623047"/>
       <use xlink:href="#DejaVuSans-2e" x="127.246094"/>
       <use xlink:href="#DejaVuSans-35" x="159.033203"/>
       <use xlink:href="#DejaVuSans-30" x="222.65625"/>
      </g>
     </g>
    </g>
    <g id="ytick_15">
     <g id="line2d_34">
      <g>
       <use xlink:href="#m58b9f9c2a7" x="56.50625" y="285.760323" style="stroke: #000000; stroke-width: 0.8"/>
      </g>
     </g>
     <g id="text_37">
      <!-- 12.75 -->
      <g transform="translate(20.878125 289.559542)scale(0.1 -0.1)">
       <use xlink:href="#DejaVuSans-31"/>
       <use xlink:href="#DejaVuSans-32" x="63.623047"/>
       <use xlink:href="#DejaVuSans-2e" x="127.246094"/>
       <use xlink:href="#DejaVuSans-37" x="159.033203"/>
       <use xlink:href="#DejaVuSans-35" x="222.65625"/>
      </g>
     </g>
    </g>
    <g id="ytick_16">
     <g id="line2d_35">
      <g>
       <use xlink:href="#m58b9f9c2a7" x="56.50625" y="260.55716" style="stroke: #000000; stroke-width: 0.8"/>
      </g>
     </g>
     <g id="text_38">
      <!-- 13.00 -->
      <g transform="translate(20.878125 264.356379)scale(0.1 -0.1)">
       <use xlink:href="#DejaVuSans-31"/>
       <use xlink:href="#DejaVuSans-33" x="63.623047"/>
       <use xlink:href="#DejaVuSans-2e" x="127.246094"/>
       <use xlink:href="#DejaVuSans-30" x="159.033203"/>
       <use xlink:href="#DejaVuSans-30" x="222.65625"/>
      </g>
     </g>
    </g>
    <g id="text_39">
     <!-- Median log sale price -->
     <g transform="translate(14.798438 396.399105)rotate(-90)scale(0.1 -0.1)">
      <defs>
       <path id="DejaVuSans-4d" d="M 628 4666 
L 1569 4666 
L 2759 1491 
L 3956 4666 
L 4897 4666 
L 4897 0 
L 4281 0 
L 4281 4097 
L 3078 897 
L 2444 897 
L 1241 4097 
L 1241 0 
L 628 0 
L 628 4666 
z
" transform="scale(0.015625)"/>
       <path id="DejaVuSans-70" d="M 1159 525 
L 1159 -1331 
L 581 -1331 
L 581 3500 
L 1159 3500 
L 1159 2969 
Q 1341 3281 1617 3432 
Q 1894 3584 2278 3584 
Q 2916 3584 3314 3078 
Q 3713 2572 3713 1747 
Q 3713 922 3314 415 
Q 2916 -91 2278 -91 
Q 1894 -91 1617 61 
Q 1341 213 1159 525 
z
M 3116 1747 
Q 3116 2381 2855 2742 
Q 2594 3103 2138 3103 
Q 1681 3103 1420 2742 
Q 1159 2381 1159 1747 
Q 1159 1113 1420 752 
Q 1681 391 2138 391 
Q 2594 391 2855 752 
Q 3116 1113 3116 1747 
z
" transform="scale(0.015625)"/>
       <path id="DejaVuSans-63" d="M 3122 3366 
L 3122 2828 
Q 2878 2963 2633 3030 
Q 2388 3097 2138 3097 
Q 1578 3097 1268 2742 
Q 959 2388 959 1747 
Q 959 1106 1268 751 
Q 1578 397 2138 397 
Q 2388 397 2633 464 
Q 2878 531 3122 666 
L 3122 134 
Q 2881 22 2623 -34 
Q 2366 -91 2075 -91 
Q 1284 -91 818 406 
Q 353 903 353 1747 
Q 353 2603 823 3093 
Q 1294 3584 2113 3584 
Q 2378 3584 2631 3529 
Q 2884 3475 3122 3366 
z
" transform="scale(0.015625)"/>
      </defs>
      <use xlink:href="#DejaVuSans-4d"/>
      <use xlink:href="#DejaVuSans-65" x="86.279297"/>
      <use xlink:href="#DejaVuSans-64" x="147.802734"/>
      <use xlink:href="#DejaVuSans-69" x="211.279297"/>
      <use xlink:href="#DejaVuSans-61" x="239.0625"/>
      <use xlink:href="#DejaVuSans-6e" x="300.341797"/>
      <use xlink:href="#DejaVuSans-20" x="363.720703"/>
      <use xlink:href="#DejaVuSans-6c" x="395.507812"/>
      <use xlink:href="#DejaVuSans-6f" x="423.291016"/>
      <use xlink:href="#DejaVuSans-67" x="484.472656"/>
      <use xlink:href="#DejaVuSans-20" x="547.949219"/>
      <use xlink:href="#DejaVuSans-73" x="579.736328"/>
      <use xlink:href="#DejaVuSans-61" x="631.835938"/>
      <use xlink:href="#DejaVuSans-6c" x="693.115234"/>
      <use xlink:href="#DejaVuSans-65" x="720.898438"/>
      <use xlink:href="#DejaVuSans-20" x="782.421875"/>
      <use xlink:href="#DejaVuSans-70" x="814.208984"/>
      <use xlink:href="#DejaVuSans-72" x="877.685547"/>
      <use xlink:href="#DejaVuSans-69" x="918.798828"/>
      <use xlink:href="#DejaVuSans-63" x="946.582031"/>
      <use xlink:href="#DejaVuSans-65" x="1001.5625"/>
     </g>
    </g>
   </g>
   <g id="line2d_36">
    <path d="M 101.749493 320.851803 
L 103.559223 324.309765 
L 105.368953 339.094122 
L 107.178682 319.947486 
L 108.988412 344.448264 
L 110.798142 329.876244 
L 112.607872 332.151822 
L 114.417601 336.933255 
L 116.227331 333.351145 
L 118.037061 332.370788 
L 119.846791 345.771681 
L 121.65652 336.837172 
L 123.46625 329.647644 
L 125.27598 340.092275 
L 127.085709 326.705809 
L 128.895439 325.540774 
L 130.705169 343.280174 
L 132.514899 347.101382 
L 134.324628 336.465517 
L 136.134358 335.197496 
L 137.944088 345.766096 
L 139.753818 340.645514 
L 141.563547 349.001004 
L 143.373277 352.343166 
L 145.183007 380.968288 
L 146.992736 347.101382 
L 148.802466 368.261789 
L 150.612196 378.736183 
L 152.421926 342.118728 
L 154.231655 364.366953 
L 156.041385 369.597075 
L 157.851115 364.998959 
L 159.660845 363.406309 
L 161.470574 369.597075 
L 163.280304 383.636454 
L 165.090034 379.47474 
L 166.899764 388.830759 
L 168.709493 381.345158 
L 170.519223 360.668961 
L 172.328953 388.179425 
L 174.138682 365.643131 
L 175.948412 374.414979 
L 177.758142 372.578659 
L 179.567872 370.950286 
L 181.377601 365.007139 
L 183.187331 379.104785 
L 184.997061 372.841115 
L 186.806791 375.834899 
L 188.61652 369.345672 
L 190.42625 373.712449 
L 192.23598 363.982901 
L 194.045709 377.275104 
L 195.855439 379.660228 
L 197.665169 382.549429 
L 199.474899 380.592822 
L 201.284628 395.510474 
L 203.094358 387.594955 
L 204.904088 388.584297 
L 206.713818 380.218748 
L 208.523547 379.552197 
L 210.333277 385.586469 
L 212.143007 382.484296 
L 213.952736 393.787139 
L 215.762466 378.385589 
L 217.572196 419.742751 
L 219.381926 404.312546 
L 221.191655 384.222186 
L 223.001385 387.174103 
L 224.811115 393.159356 
L 226.620845 392.408356 
L 228.430574 387.519773 
L 230.240304 419.648995 
L 232.050034 396.383316 
L 233.859764 375.478039 
L 235.669493 346.458237 
L 237.479223 312.893507 
L 239.288953 393.422828 
L 241.098682 376.985412 
L 242.908412 391.673588 
L 244.718142 392.092768 
L 246.527872 433.094876 
L 248.337601 400.407415 
L 250.147331 399.048123 
L 251.957061 390.456894 
L 253.766791 398.152004 
L 255.57652 402.267378 
L 257.38625 386.377161 
L 259.19598 409.469969 
L 261.005709 386.580709 
L 262.815439 398.600064 
L 264.625169 378.86795 
L 266.434899 381.94334 
L 268.244628 372.289826 
L 270.054358 367.009442 
L 271.864088 407.032171 
L 273.673818 385.586469 
L 275.483547 395.732095 
L 277.293277 384.023451 
L 279.103007 403.18225 
L 280.912736 413.860834 
L 282.722466 387.574949 
L 286.341926 380.218748 
L 288.151655 361.218041 
L 289.961385 364.678409 
L 293.580845 424.512467 
L 295.390574 421.094761 
L 297.200304 392.936394 
L 299.010034 415.644101 
L 300.819764 392.132549 
L 302.629493 404.598845 
L 308.058682 253.392397 
L 309.868412 291.649752 
L 313.487872 383.29428 
L 317.107331 388.058077 
L 322.53652 410.473088 
L 327.965709 390.014083 
L 329.775439 388.787139 
L 331.585169 376.193664 
L 333.394899 301.41344 
L 335.204628 311.853396 
L 346.063007 416.710912 
L 347.872736 390.426406 
" clip-path="url(#p164b91b2dc)" style="fill: none; stroke: #1f77b4; stroke-width: 1.5; stroke-linecap: square"/>
   </g>
   <g id="line2d_37">
    <path d="M 99.939764 348.590918 
L 101.749493 321.257784 
L 103.559223 336.883768 
L 105.368953 341.233599 
L 107.178682 349.001004 
L 108.988412 346.565143 
L 110.798142 347.658244 
L 112.607872 344.76826 
L 114.417601 348.131454 
L 116.227331 339.243265 
L 118.037061 347.643749 
L 119.846791 345.504273 
L 121.65652 351.49718 
L 123.46625 342.000673 
L 125.27598 345.847565 
L 127.085709 345.236894 
L 128.895439 352.343166 
L 130.705169 351.216756 
L 132.514899 356.683408 
L 134.324628 331.181217 
L 136.134358 350.937109 
L 137.944088 345.766096 
L 139.753818 355.517892 
L 141.563547 345.687964 
L 143.373277 360.631443 
L 145.183007 377.340368 
L 146.992736 352.343166 
L 148.802466 373.014781 
L 150.612196 378.369589 
L 152.421926 369.933679 
L 154.231655 363.090776 
L 156.041385 371.633764 
L 157.851115 365.645202 
L 159.660845 363.406309 
L 161.470574 368.660521 
L 163.280304 378.809795 
L 165.090034 380.218748 
L 166.899764 387.217619 
L 168.709493 382.878549 
L 170.519223 377.638393 
L 172.328953 388.179425 
L 174.138682 366.291446 
L 175.948412 381.379817 
L 177.758142 375.837434 
L 179.567872 380.482184 
L 181.377601 380.592822 
L 183.187331 379.104785 
L 184.997061 373.712449 
L 186.806791 376.931772 
L 188.61652 376.193664 
L 190.42625 375.834899 
L 192.23598 369.597075 
L 194.045709 382.529881 
L 195.855439 381.841839 
L 197.665169 388.827314 
L 199.474899 384.801931 
L 201.284628 400.864616 
L 203.094358 395.510474 
L 204.904088 388.381454 
L 206.713818 394.731325 
L 208.523547 405.554422 
L 210.333277 398.152004 
" clip-path="url(#p164b91b2dc)" style="fill: none; stroke: #ff7f0e; stroke-width: 1.5; stroke-linecap: square"/>
   </g>
   <g id="line2d_38">
    <path d="M 101.749493 318.204859 
L 103.559223 330.301584 
L 105.368953 339.094122 
L 107.178682 321.433254 
L 108.988412 347.965341 
L 110.798142 333.692851 
L 112.607872 333.774235 
L 114.417601 340.343679 
L 116.227331 343.471796 
L 118.037061 334.010054 
L 119.846791 346.832906 
L 121.65652 338.598727 
L 123.46625 346.485056 
L 125.27598 336.907481 
L 127.085709 330.986611 
L 128.895439 328.277947 
L 130.705169 352.343166 
L 132.514899 351.469294 
L 134.324628 346.032093 
L 136.134358 350.937109 
L 137.944088 370.950286 
L 139.753818 373.084331 
L 141.563547 360.601448 
L 143.373277 374.476641 
L 145.183007 380.968288 
L 146.992736 347.101382 
L 148.802466 380.293452 
L 150.612196 379.504395 
L 152.421926 372.086283 
L 154.231655 368.296708 
L 156.041385 373.712449 
L 157.851115 359.683572 
L 159.660845 363.786256 
L 161.470574 369.094268 
L 163.280304 384.414945 
L 165.090034 373.712449 
L 166.899764 377.275104 
L 168.709493 376.986346 
L 170.519223 355.806754 
L 172.328953 386.389663 
L 174.138682 365.967289 
L 175.948412 370.30775 
L 177.758142 375.837434 
L 179.567872 366.943958 
L 181.377601 369.653113 
L 183.187331 377.828607 
L 184.997061 375.837434 
L 186.806791 377.275104 
L 188.61652 375.478669 
L 190.42625 374.773674 
L 192.23598 376.55243 
L 194.045709 377.275104 
L 195.855439 378.772989 
L 197.665169 382.549429 
L 199.474899 380.592822 
L 201.284628 387.574949 
L 203.094358 382.484296 
L 204.904088 390.861767 
L 206.713818 384.411939 
L 208.523547 376.55243 
L 210.333277 382.487189 
L 212.143007 393.360869 
L 213.952736 383.636454 
L 217.572196 419.742751 
L 219.381926 381.723443 
L 221.191655 404.603331 
L 223.001385 381.791308 
L 224.811115 385.583393 
L 226.620845 382.850129 
L 228.430574 392.936394 
L 230.240304 419.648995 
L 232.050034 409.971529 
L 233.859764 324.337213 
L 235.669493 378.368923 
L 237.479223 310.652857 
L 239.288953 396.819066 
L 241.098682 380.543221 
L 242.908412 370.27141 
L 244.718142 399.500201 
L 246.527872 357.686892 
L 248.337601 390.745757 
L 250.147331 387.977395 
L 251.957061 387.977395 
L 253.766791 378.387256 
L 255.57652 411.772536 
L 257.38625 340.544689 
L 259.19598 425.677944 
L 261.005709 375.971488 
L 262.815439 410.647291 
L 264.625169 385.586469 
L 266.434899 379.47474 
L 268.244628 377.357093 
L 270.054358 385.737446 
L 271.864088 366.291446 
L 273.673818 403.276073 
L 275.483547 378.736183 
L 277.293277 382.484296 
L 280.912736 404.598845 
L 282.722466 322.214763 
L 286.341926 380.218748 
L 295.390574 381.04355 
" clip-path="url(#p164b91b2dc)" style="fill: none; stroke: #2ca02c; stroke-width: 1.5; stroke-linecap: square"/>
   </g>
   <g id="patch_102">
    <path d="M 56.50625 442.08 
L 56.50625 244.407273 
" style="fill: none; stroke: #000000; stroke-width: 0.8; stroke-linejoin: miter; stroke-linecap: square"/>
   </g>
   <g id="patch_103">
    <path d="M 391.30625 442.08 
L 391.30625 244.407273 
" style="fill: none; stroke: #000000; stroke-width: 0.8; stroke-linejoin: miter; stroke-linecap: square"/>
   </g>
   <g id="patch_104">
    <path d="M 56.50625 442.08 
L 391.30625 442.08 
" style="fill: none; stroke: #000000; stroke-width: 0.8; stroke-linejoin: miter; stroke-linecap: square"/>
   </g>
   <g id="patch_105">
    <path d="M 56.50625 244.407273 
L 391.30625 244.407273 
" style="fill: none; stroke: #000000; stroke-width: 0.8; stroke-linejoin: miter; stroke-linecap: square"/>
   </g>
   <g id="legend_2">
    <g id="patch_106">
     <path d="M 63.50625 296.441648 
L 170.903125 296.441648 
Q 172.903125 296.441648 172.903125 294.441648 
L 172.903125 251.407273 
Q 172.903125 249.407273 170.903125 249.407273 
L 63.50625 249.407273 
Q 61.50625 249.407273 61.50625 251.407273 
L 61.50625 294.441648 
Q 61.50625 296.441648 63.50625 296.441648 
z
" style="fill: #ffffff; opacity: 0.8; stroke: #cccccc; stroke-linejoin: miter"/>
    </g>
    <g id="line2d_39">
     <path d="M 65.50625 257.50571 
L 75.50625 257.50571 
L 85.50625 257.50571 
" style="fill: none; stroke: #1f77b4; stroke-width: 1.5; stroke-linecap: square"/>
    </g>
    <g id="text_40">
     <!-- YearBuilt -->
     <g transform="translate(93.50625 261.00571)scale(0.1 -0.1)">
      <use xlink:href="#DejaVuSans-59"/>
      <use xlink:href="#DejaVuSans-65" x="47.833984"/>
      <use xlink:href="#DejaVuSans-61" x="109.357422"/>
      <use xlink:href="#DejaVuSans-72" x="170.636719"/>
      <use xlink:href="#DejaVuSans-42" x="211.75"/>
      <use xlink:href="#DejaVuSans-75" x="280.353516"/>
      <use xlink:href="#DejaVuSans-69" x="343.732422"/>
      <use xlink:href="#DejaVuSans-6c" x="371.515625"/>
      <use xlink:href="#DejaVuSans-74" x="399.298828"/>
     </g>
    </g>
    <g id="line2d_40">
     <path d="M 65.50625 272.183835 
L 75.50625 272.183835 
L 85.50625 272.183835 
" style="fill: none; stroke: #ff7f0e; stroke-width: 1.5; stroke-linecap: square"/>
    </g>
    <g id="text_41">
     <!-- YearRemodAdd -->
     <g transform="translate(93.50625 275.683835)scale(0.1 -0.1)">
      <use xlink:href="#DejaVuSans-59"/>
      <use xlink:href="#DejaVuSans-65" x="47.833984"/>
      <use xlink:href="#DejaVuSans-61" x="109.357422"/>
      <use xlink:href="#DejaVuSans-72" x="170.636719"/>
      <use xlink:href="#DejaVuSans-52" x="211.75"/>
      <use xlink:href="#DejaVuSans-65" x="276.732422"/>
      <use xlink:href="#DejaVuSans-6d" x="338.255859"/>
      <use xlink:href="#DejaVuSans-6f" x="435.667969"/>
      <use xlink:href="#DejaVuSans-64" x="496.849609"/>
      <use xlink:href="#DejaVuSans-41" x="560.326172"/>
      <use xlink:href="#DejaVuSans-64" x="626.984375"/>
      <use xlink:href="#DejaVuSans-64" x="690.460938"/>
     </g>
    </g>
    <g id="line2d_41">
     <path d="M 65.50625 286.86196 
L 75.50625 286.86196 
L 85.50625 286.86196 
" style="fill: none; stroke: #2ca02c; stroke-width: 1.5; stroke-linecap: square"/>
    </g>
    <g id="text_42">
     <!-- GarageYrBlt -->
     <g transform="translate(93.50625 290.36196)scale(0.1 -0.1)">
      <use xlink:href="#DejaVuSans-47"/>
      <use xlink:href="#DejaVuSans-61" x="77.490234"/>
      <use xlink:href="#DejaVuSans-72" x="138.769531"/>
      <use xlink:href="#DejaVuSans-61" x="179.882812"/>
      <use xlink:href="#DejaVuSans-67" x="241.162109"/>
      <use xlink:href="#DejaVuSans-65" x="304.638672"/>
      <use xlink:href="#DejaVuSans-59" x="366.162109"/>
      <use xlink:href="#DejaVuSans-72" x="427.246094"/>
      <use xlink:href="#DejaVuSans-42" x="468.359375"/>
      <use xlink:href="#DejaVuSans-6c" x="536.962891"/>
      <use xlink:href="#DejaVuSans-74" x="564.746094"/>
     </g>
    </g>
   </g>
  </g>
 </g>
 <defs>
  <clipPath id="p7f357d9356">
   <rect x="56.50625" y="7.2" width="334.8" height="197.672727"/>
  </clipPath>
  <clipPath id="p164b91b2dc">
   <rect x="56.50625" y="244.407273" width="334.8" height="197.672727"/>
  </clipPath>
 </defs>
</svg>
